<svg width="208" height="319" viewBox="0 0 208 319" fill="none" xmlns="http://www.w3.org/2000/svg">
<path d="M192.5 0.5H15.5C7.21573 0.5 0.5 7.21573 0.5 15.5V303.5C0.5 311.784 7.21573 318.5 15.5 318.5H192.5C200.784 318.5 207.5 311.784 207.5 303.5V15.5C207.5 7.21573 200.784 0.5 192.5 0.5Z" fill="url(#paint0_linear_2689_19962)" stroke="black" stroke-linecap="square"/>
<path d="M133.667 15H193V304H133.667M74.3333 304H15V15H74.3333" stroke="black"/>
<path d="M19.0236 23.7104C19.102 23.3475 19.1815 23.0319 19.2603 22.7637C19.3386 22.4954 19.5049 22.1089 19.7574 21.604C20.0256 21.0833 20.3175 20.6572 20.6331 20.3259C20.9644 19.9788 21.4141 19.6711 21.9822 19.4029C22.566 19.1347 23.2207 19.0005 23.9465 19.0005C25.1772 19.0005 26.2108 19.4028 27.0471 20.2075C27.899 21.0122 28.325 22.0063 28.325 23.1897C28.325 24.9726 27.3151 26.9213 25.2955 29.0356L21.3194 33.2011H26.976C27.5123 33.2011 27.907 33.1143 28.1594 32.9408C28.4276 32.7514 28.7824 32.3175 29.2243 31.6391L29.532 31.7574L28.2304 34.9998H19V34.7159L23.2129 30.2426C25.2641 28.0652 26.2895 26.014 26.2895 24.089C26.2895 23.095 25.982 22.2903 25.3667 21.675C24.7513 21.0596 23.9465 20.752 22.9524 20.752C22.1319 20.752 21.4693 20.9808 20.9645 21.4383C20.4753 21.8801 19.9939 22.6769 19.5206 23.8288L19.0236 23.7104Z" fill="black"/>
<path d="M187.976 294.29C187.898 294.652 187.818 294.968 187.739 295.236C187.661 295.505 187.495 295.891 187.242 296.396C186.974 296.917 186.682 297.343 186.366 297.674C186.035 298.021 185.585 298.329 185.017 298.597C184.434 298.865 183.779 298.999 183.053 299C181.822 298.999 180.789 298.597 179.952 297.792C179.1 296.988 178.675 295.994 178.675 294.81C178.675 293.027 179.684 291.079 181.704 288.964L185.68 284.799H180.024C179.487 284.799 179.093 284.886 178.84 285.059C178.572 285.249 178.217 285.682 177.775 286.361L177.468 286.243L178.769 283H188V283.284L183.787 287.757C181.735 289.935 180.71 291.986 180.71 293.911C180.71 294.905 181.018 295.71 181.633 296.325C182.248 296.94 183.053 297.248 184.047 297.248C184.868 297.248 185.53 297.019 186.035 296.562C186.524 296.12 187.006 295.323 187.479 294.171L187.976 294.29Z" fill="black"/>
<path d="M102.909 166.947C101.435 166.937 99.9769 167.919 99.7293 169.415C98.5831 172.031 95.5405 172.936 92.9464 173.441C86.4618 175.208 80.4783 178.84 76.0149 183.903C72.8503 187.148 70.0417 190.937 68.9846 195.411C67.5731 199.277 63.5081 201.979 63.4482 206.361C63.5263 209.215 66.8747 211.355 69.5097 210.212C72.8005 214.293 74.2664 219.416 76.0089 224.273C77.7701 228.14 78.9924 232.418 81.9534 235.572C85.0976 241.154 91.299 244.127 97.3082 245.571C98.2625 247.03 96.8507 248.53 95.9023 249.538C94.5317 251.171 92.6039 252.621 92.2852 254.859C88.6257 255.848 87.0063 259.612 85.0454 262.489C84.3363 263.409 83.6684 264.926 82.2976 264.753C81.0645 264.883 80.6764 266.235 80.7037 267.282C80.6721 268.673 80.0366 270.531 78.383 270.534C77.4975 270.419 76.5407 270.59 76.1078 271.462C74.5939 273.728 74.817 276.882 75.9736 279.273C76.3374 280.06 77.1718 280.465 78.0096 280.228C90.6741 280.455 103.343 280.209 116.006 280.561C119.551 280.651 123.138 280.389 126.659 280.726C128.496 281.232 131.001 280.56 131.466 278.468C131.957 277.102 131.361 275.612 131.518 274.274C131.899 273.487 131.668 272.208 130.632 272.162C129.078 271.786 126.835 271.33 126.618 269.391C126.77 266.585 123.969 265.041 122.406 263.114C121.118 261.723 120.292 259.694 120.778 257.857C116.28 256.44 113.545 252.301 110.125 249.328C108.722 247.93 109.066 245.378 110.72 244.34C112.128 243.144 114.047 242.85 115.813 242.742C120.734 240.671 124.625 236.626 127.622 232.303C129.561 228.622 130.367 224.438 132.447 220.82C133.627 217.783 134.003 213.871 137.06 212.026C138.309 211.283 139.815 211.767 141.144 211.577C144.112 210.781 145.457 206.788 143.571 204.36C142.568 202.995 140.807 202.397 140.024 200.819C137.918 197.529 137.703 193.303 135.026 190.344C132.505 186.431 129.611 182.632 125.63 180.115C122.051 177.173 117.732 174.906 113.106 174.397C111.289 175.107 108.992 174.171 108.461 172.221C107.765 170.603 107.206 168.582 105.441 167.84C104.788 167.179 103.822 166.901 102.909 166.947ZM103.084 167.846C103.762 167.841 105.175 168.248 104.595 169.158C104.011 170.166 102.033 170.013 102.145 168.645C102.198 168.186 102.632 167.85 103.084 167.846ZM99.8693 170.798C101.365 170.561 101.113 173.395 99.706 172.951C98.7072 172.569 98.6637 170.893 99.8693 170.798ZM106.578 173.149C108.136 173.248 107.99 176.2 106.438 175.996C105.446 175.512 105.516 173.773 106.333 173.207C106.413 173.185 106.493 173.143 106.578 173.149ZM94.4438 177.297C95.2983 177.28 95.9031 177.97 96.5498 178.434C96.176 179.64 94.2389 180.195 93.6795 178.854C93.3284 178.226 93.6911 177.346 94.4438 177.297ZM82.671 179.263C83.3965 179.227 84.4258 180.207 83.5869 180.785C82.979 181.505 81.5959 181.049 81.7492 180.039C81.8306 179.604 82.2225 179.257 82.671 179.263ZM74.2235 187.582C75.5278 187.64 75.6576 189.83 74.3401 190.003C73.3986 190.511 72.3105 189.23 73.0567 188.399C73.2888 187.97 73.7107 187.589 74.2235 187.582ZM116.834 187.821C119.133 188.268 119.57 191.371 121.851 191.852C122.674 191.913 122.94 190.805 123.724 190.604C125.152 189.727 126.986 190.269 128 191.496C129.619 193.115 130.398 195.374 130.882 197.581C126.963 195.844 122.84 194.647 118.666 193.801C114.09 192.364 109.193 192.685 104.49 191.928C104.583 190.026 106.548 188.953 108.264 188.935C110.618 188.746 113.078 189.385 115.358 188.877C115.648 188.326 116.164 187.776 116.834 187.821ZM75.1277 192.039C76.5872 192.094 76.2504 194.735 74.8127 194.326C73.8764 193.963 73.989 192.038 75.1277 192.039ZM75.046 203.526C76.0601 203.399 76.4213 205.147 75.2969 205.2C74.4302 205.437 73.4823 204.086 74.521 203.66C74.6886 203.594 74.8652 203.54 75.046 203.526ZM65.5543 205.27C66.746 205.405 66.8465 206.85 67.0303 207.767C66.2837 208.663 64.3642 208.579 64.3175 207.196C64.2291 206.398 64.6102 205.285 65.5543 205.27ZM106.952 233.314C108.096 233.318 108.069 234.999 107.08 235.257C105.598 235.803 105.559 233.39 106.952 233.314ZM103.107 235.286C105.135 235.405 107.178 236.773 107.815 238.716C107.915 239.742 106.569 240.039 105.843 239.609C106.435 240.663 106.798 242.484 105.435 243.103C105.206 244.475 103.993 245.222 102.862 245.775C102.107 246.142 102.536 246.913 102.745 247.479C102.801 247.9 103.577 247.695 103.819 248.12C104.23 248.451 104.536 248.887 104.951 249.223C104.195 250.2 102.176 250.367 101.876 248.92C101.786 248.498 100.971 248.631 100.68 248.208C98.1305 246.199 98.2985 242.437 99.3676 239.678C100.011 238.152 100.785 236.496 102.162 235.519C102.457 235.376 102.782 235.307 103.107 235.286ZM98.0841 235.414C99.3325 235.504 99.4147 237.077 98.8426 237.911C98.3777 238.799 96.9447 238.33 97.034 237.351C96.8636 236.59 97.0893 235.386 98.0841 235.414ZM108.457 240.145C109.68 240.966 109.39 242.688 109.472 243.961C109.448 244.826 108.931 245.813 108.06 245.939C108.017 247.405 106.755 249.116 105.143 248.657C104.093 248.058 104.906 246.657 105.563 246.079C105.904 245.546 106.621 245.17 107.028 244.918C106.883 243.614 107.122 242.276 107.243 240.98C107.336 240.435 107.904 239.949 108.457 240.145ZM112.062 240.706C112.871 240.656 113.985 241.854 113.077 242.462C112.312 243.066 110.613 242.878 110.872 241.61C110.999 241.082 111.527 240.704 112.062 240.706ZM107.407 249.696C108.045 249.649 109.308 250.148 108.667 250.932C108.092 251.483 106.833 252.229 106.287 251.224C105.943 250.481 106.656 249.69 107.407 249.696ZM120.971 266.322C122.717 266.196 125.005 267.041 125.101 269.052C125.221 269.869 125.164 271.296 123.998 271.164C119.121 271.44 114.311 270.36 109.431 270.435C106.9 270.366 104.365 270.229 101.87 269.788C101.549 267.783 103.546 266.139 105.458 266.392C108.068 266.333 110.677 267.261 113.258 266.637C115.826 267.136 118.394 266.253 120.971 266.322Z" fill="#8FD5F7"/>
<path d="M102.596 166.312C102.329 166.318 102.059 166.345 101.779 166.394C99.1341 167.003 98.373 170.681 96.6858 172.262C92.2754 171.888 88.4774 174.559 84.6622 176.288C78.2267 179.897 73.2575 185.753 69.459 192.004C67.9663 196.574 65.5277 200.621 63.205 204.757C61.6126 210.184 68.001 210.131 70.2932 212.12C73.6818 216.138 73.6051 221.625 76.203 225.899C77.4255 230.2 79.7633 234.345 82.982 237.462C86.3364 242.472 92.2519 244.583 97.7301 246.388C94.4199 248.932 93.1582 253.21 90.0935 255.839C85.6046 256.804 86.6966 263.022 82.6728 264.345C77.8816 263.609 82.0026 270.327 78.2332 269.94C73.4389 269.779 73.9183 278.435 76.4655 280.365C89.2748 280.997 102.128 280.582 114.952 280.937L115.547 280.977C120.81 280.856 126.217 281.369 131.386 280.499C132.466 277.885 131.85 274.824 132.115 272.011C128.843 271.177 126.581 270.327 126.806 266.13C122.785 264.811 121.277 260.382 120.908 257C116.31 255.763 113.663 251.844 110.384 248.774C108.053 245.342 112.799 243.197 115.78 243.156C120.137 241.543 123.566 237.837 126.445 234.551C128.291 234.336 128.85 230.545 129.892 228.023C132.077 223.691 133.478 218.969 135.58 214.506C136.744 209.728 140.637 213.187 143.223 210.76C148.299 206.551 141.365 203.18 139.501 199.688C139.611 198.886 138.757 196.381 137.914 194.921C137.301 193.126 136.397 191.763 135.51 190.371C134.489 188.577 134.099 187.756 132.704 186.462C130.076 182.931 126.739 179.824 122.839 177.746C119.335 174.776 114.577 173.268 109.876 173.803C109.018 170.75 106.589 166.221 102.596 166.312ZM102.905 168.325C106.984 168.232 109.433 176.178 105.034 178.079C103.339 178.924 100.732 178.423 99.9003 176.568C98.1194 174.2 99.4966 170.456 101.592 168.628C102.043 168.431 102.483 168.334 102.905 168.325ZM94.5681 173.925C97.7061 173.855 98.5616 180.582 93.6872 178.528C90.0323 177.607 83.9475 183.349 87.1182 187.425C85.7101 193.27 81.2109 183.972 79.6742 188.282C76.1844 191.721 75.3118 197.488 70.2349 198.912C66.3209 200.884 70.4602 192.631 71.6117 191.929C72.9412 187.448 77.0342 184.306 80.2984 181.095C84.0556 178.56 87.5864 175.447 92.3512 174.987C93.1684 174.248 93.9169 173.94 94.5681 173.925ZM112.332 175.098C113.053 175.061 113.801 175.27 114.514 175.821C118.795 176.781 122.717 178.86 126.077 181.521C128.96 184.074 131.475 186.82 133.719 189.869C135.225 192.681 134.5 191.33 136.368 195.476C138.846 198.828 135.256 200.558 133.107 197.535C131.656 193.522 129.334 190.464 126.147 187.401C123.786 189.618 118.819 190.842 120.558 185.523C120.034 181.924 114.362 176.345 111.329 180.681C106.075 181.068 108.862 175.277 112.332 175.098ZM98.7335 178.686C100.083 178.72 101.65 179.892 103.115 180.587C106.59 177.976 107.569 181.356 110.378 182.402C113.603 180.159 118.194 181.199 118.884 185.645C116.702 188.567 119.217 192.27 122.769 191.964C126.183 186.902 129.717 193.442 130.423 196.392C130.03 196.404 129.411 196.963 128.965 196.654C124.647 194.326 119.363 194.134 114.578 192.891C107.52 192.088 100.353 192.488 93.2555 192.611C87.9286 192.784 82.8827 194.974 77.6965 195.645C75.8739 193.081 81.1108 186.123 84.0438 190.383C88.8651 191.021 88.6539 185.733 88.6175 182.215C90.9525 178.886 93.3237 179.876 96.3708 180.733C96.9882 179.175 97.8105 178.662 98.7335 178.686ZM101.452 193.41C104.172 193.407 106.894 193.517 109.59 193.638C113.527 194.034 118.44 194.155 121.427 196.672C126.878 196.933 131.626 199.287 136.491 201.292C139.983 202.51 146.674 206.59 141.409 210.148L141.094 210.486C136.334 209.827 132.347 206.171 127.751 204.676C122.582 203.113 117.459 200.957 111.982 200.755C105.629 199.01 99.0448 200.089 92.6079 200.726C87.5078 200.813 82.893 203.062 78.0173 204.186C73.675 204.705 69.7855 209.471 65.5969 208.129C61.4004 203.591 69.7201 200.344 73.3269 199.279C77.8808 196.953 83.0358 195.946 88.0108 194.898C92.3938 193.746 96.919 193.417 101.452 193.41ZM101.872 202.365C103.367 202.352 104.864 202.378 106.358 202.435C111.378 202.847 116.698 203.121 121.334 204.897C125.277 206 129.253 209.066 132.833 209.057C138.439 210.192 130.841 217.286 130.884 212.505C131.32 207.735 129.858 212.269 129.257 214.132C125.73 216.606 129.718 211.16 128.825 209.664C127.797 211.27 125.743 214.551 125.11 217.295C122.853 221.004 121.02 225.278 119.916 229.581C116.102 232.051 120.895 225.643 121.019 223.817C122.822 219.548 124.646 215.409 126.1 211.145C125.851 207.046 125.078 213.969 123.924 213.52C121.972 217.357 121.151 221.906 118.569 225.153C118.901 228.981 113.474 229.923 110.396 230.444C109.108 226.532 105.555 222.272 100.618 224.155C96.675 224.828 98.921 233.508 95.204 230.777C90.1521 229.612 87.471 234.505 87.3574 238.874C85.6777 239.729 82.5593 235.375 82.3228 233.279C78.0133 230.967 79.815 225.388 80.5259 221.577C82.9835 219.051 81.3552 215.464 77.5798 216.151C73.5554 215.97 68.3769 209.474 74.6395 208.024C79.2314 206.528 83.6805 204.258 88.5184 203.707C92.9098 202.79 97.3863 202.405 101.872 202.365ZM103.354 206.157C101.553 206.176 99.6115 207.891 98.9844 209.652C93.868 213.386 100.133 216.391 101.884 219.926C103.601 221.128 105.698 217.146 106.79 216.034C111.266 214.006 107.941 210.602 106.131 208.31C105.464 206.746 104.434 206.147 103.354 206.157ZM103.016 208.345C103.643 208.352 104.257 208.741 104.789 209.705C109.661 212.37 105.611 215.012 103.377 217.621C101.973 218.706 99.4416 214.652 98.6752 213.322C99.1132 211.737 101.133 208.325 103.016 208.345ZM131.182 215.579C133.317 215.476 130.952 220.154 130.668 221.979C129.8 221.332 124.396 216.532 129.21 216.326C130.099 215.825 130.739 215.601 131.182 215.579ZM75.5846 216.979C75.9481 216.953 76.5197 217.244 77.3639 217.994C82.4909 217.309 78.3409 221.683 78.5366 224.295C77.7798 226.627 73.6214 217.123 75.5846 216.979ZM125.33 219.418C129.648 222.674 122.595 227.864 121.597 231.622C121.211 233.038 119.71 231.953 120.325 231.103C123.239 227.922 122.54 223.023 125.33 219.418ZM128.405 223.624C128.948 223.593 129.226 224.404 128.79 226.594C127.168 230.6 124.591 233.99 121.772 237.346L121.497 237.731L121.235 237.894C119.574 234.215 124.384 230.14 125.978 226.763C126.57 225.092 127.706 223.664 128.405 223.624ZM103.016 225.164C107.366 225.238 108.79 231.576 107.228 235.199C102.93 235.474 105.65 230.458 104.165 228.606C100.429 229.049 104.632 235.544 99.9528 234.954C97.4284 232.505 99.681 227.924 101.277 225.439C101.899 225.242 102.481 225.155 103.016 225.164ZM114.788 230.952C115.418 230.919 116.043 231.045 116.638 231.372C120.989 234.143 118.27 240.593 114.03 241.995C113.309 242.224 110.635 243.33 110.681 241.861C113.468 240.668 115.747 238.061 117.221 235.14C116.883 233.208 112.924 237.656 111.906 238.769C105.877 239.056 110.381 231.176 114.788 230.952ZM93.4655 232.41C95.5168 232.39 97.8348 234.431 98.6869 236.167C98.5419 241.025 95.0778 238.193 93.0046 236.045C89.5141 237.628 99.3063 240.241 97.3276 243.553L96.8842 243.85L96.575 243.681C90.9695 244.363 86.7131 237.494 91.2836 233.524C91.9007 232.744 92.6628 232.418 93.4655 232.41ZM103.179 235.765C105.473 235.722 108.131 237.832 109.042 240.333C109.894 244.158 107.865 248.132 104.293 249.177C102.488 250.871 100.699 247.719 99.4453 246.697C98.2311 244.775 99.1126 241.534 99.6553 239.44C100.211 236.832 101.609 235.794 103.179 235.765ZM107.059 240.484C106.583 240.572 105.683 242.177 104.795 243.185C105.963 246.291 99.7379 244.792 102.858 247.555C105.042 249.398 107.784 244.464 107.368 242.421C107.482 240.924 107.344 240.431 107.059 240.484ZM98.0918 248.022C101.296 249.351 96.8424 252.529 95.4724 254.013C91.8306 256.14 96.662 257.445 96.5808 254.766C98.7743 251.054 101.699 250.509 105.437 250.507C110.477 247.151 113.767 254.305 117.029 256.959C121.063 260.145 115.508 260.075 112.974 259.234C108.69 254.737 108.587 262.511 104.888 263.522C103.101 264.213 100.857 262.89 99.6203 261.65C99.7801 256.125 94.4973 259.122 91.1961 258.406C91.9121 255.355 96.1185 251.473 98.0918 248.022ZM108.033 251.09C105.966 252.674 112.263 255.457 113.68 257.117L114.555 257.636C113.804 255.62 110.452 252.272 108.033 251.09ZM103.797 253.22C102.796 253.185 103.241 259.133 103.64 260.629C105.534 260.592 104.389 256.088 104.871 254.585C104.402 253.625 104.053 253.229 103.797 253.22ZM90.4319 259.894C91.6805 259.909 92.9672 260.271 93.9031 261.002C96.6545 258.246 98.1841 261.841 99.0952 264.211C100.611 266.185 93.0487 263.333 91.2195 264.806C89.8911 265.842 88.409 264.44 86.9782 264.502C85.1326 261.491 87.6849 259.859 90.4319 259.894ZM110.851 260.191C111.256 260.191 111.719 260.405 112.21 260.926C113.714 261.44 115.612 261.077 117.268 261.253C119.79 260.656 121.68 262.439 122.028 264.841C118.928 265.556 115.496 265.017 112.303 264.858C108.021 266.487 108.66 260.195 110.851 260.191ZM102.747 266.072C106.426 266.009 108.734 267.508 113.645 266.585C118.224 267.239 126.309 264.126 124.484 270.838C120.361 271.435 115.777 270.11 111.731 270.961C110.008 270.783 109.264 270.388 107.762 270.543C99.4494 270.389 91.4298 270.201 83.1162 270.19C81.1409 270.691 80.6842 266.246 82.9762 266.235C89.0132 266.644 95.1472 267.194 101.16 266.276C101.691 266.144 102.222 266.081 102.747 266.072ZM91.4353 271.608C102.303 272.161 113.175 272.853 124.07 272.717C128.187 271.494 130.856 274.46 128.661 278.16C127.581 278.511 126.422 278.361 125.307 278.434C109.867 278.345 94.3883 278.979 78.9799 277.856C76.1134 277.293 76.5443 270.437 80.2109 271.871C84.0101 272.022 87.7034 272.093 91.4353 271.608Z" fill="#2D1609"/>
<path opacity="0.99" d="M103.438 202.172C98.5674 202.182 93.6764 202.402 88.8938 203.383C86.1728 203.781 83.506 204.483 80.9457 205.474C78.4392 206.423 75.9022 207.302 73.3949 208.225C72.1722 208.641 71.2551 209.925 71.5444 211.239C72.0041 213.435 73.8699 215.078 75.8376 215.974C77.2614 216.669 79.0263 215.931 80.3606 216.855C81.6832 217.787 81.7042 219.785 80.7131 220.949C80.0597 221.695 80.1241 222.768 79.8648 223.677C79.4466 226.111 78.8606 228.784 79.95 231.131C80.4086 232.086 81.1812 232.874 82.0666 233.421C82.7221 235.585 84.0177 237.651 85.9207 238.937C86.3949 239.151 87.1948 239.443 87.5473 238.913C87.7606 237.091 88.082 235.24 89.0992 233.67C90.0832 232.009 91.9141 230.713 93.9177 230.863C94.7464 230.84 95.4824 231.233 96.2249 231.538C97.1102 231.662 97.5699 230.712 97.7365 230C98.2399 228.437 98.3097 226.686 99.2599 225.297C99.8892 224.393 101.063 224.255 102.056 224.033C103.536 223.826 105.105 224.128 106.311 225.035C108.136 226.34 109.376 228.317 110.142 230.38C110.625 230.886 111.395 230.42 111.977 230.389C114.048 229.921 116.312 229.447 117.856 227.875C118.54 227.195 118.766 226.226 118.878 225.309C119.357 224.326 120.054 223.442 120.486 222.425C121.868 219.666 122.639 216.637 124.052 213.897C124.281 213.568 124.73 213.426 124.842 212.986C125.236 212.193 125.454 211.328 125.782 210.508C125.917 211.582 125.254 212.544 124.967 213.543C123.545 217.356 121.846 221.079 120.406 224.878C119.733 226.493 118.772 227.991 118.271 229.673C118.116 230.211 118.767 230.487 119.179 230.228C119.771 230.062 120.269 229.629 120.331 228.986C121.419 225.067 123.512 221.522 125.493 218.016C126.148 216.684 126.402 215.194 127.042 213.85C127.539 212.659 128.065 211.479 128.708 210.358C128.514 211.808 127.727 213.131 127.556 214.589C127.708 215.165 128.433 214.953 128.776 214.687C129.278 214.476 129.637 214.105 129.716 213.55C130.027 212.669 130.3 211.776 130.697 210.93C130.759 211.976 130.371 213.275 131.204 214.103C132.093 214.724 133.221 214.025 133.882 213.369C134.763 212.525 135.567 211.073 134.795 209.907C133.898 208.692 132.238 208.875 130.927 208.537C127.56 207.579 124.592 205.619 121.234 204.613C116.487 202.906 111.411 202.586 106.423 202.217C105.429 202.166 104.433 202.165 103.438 202.172ZM103.406 206.413C104.576 206.398 105.445 207.38 105.921 208.353C106.93 209.875 108.431 211.221 108.739 213.092C108.924 214.305 107.91 215.242 106.909 215.712C105.666 216.714 104.983 218.247 103.767 219.279C103.368 219.68 102.769 220 102.198 219.837C101.081 218.215 99.7221 216.752 98.4672 215.235C97.652 214.261 96.8685 212.853 97.5155 211.598C97.895 210.904 98.5358 210.365 99.0978 209.831C99.7444 208.616 100.643 207.453 101.885 206.799C102.37 206.583 102.88 206.44 103.406 206.413Z" fill="#FF0000"/>
<path opacity="0.99" d="M122.578 225.584C122.082 227.453 121.479 229.351 120.248 230.886C119.816 231.389 119.936 232.255 120.62 232.454C121.101 232.637 121.568 232.318 121.708 231.851C122.506 229.93 123.73 228.262 124.907 226.567C125.902 225.055 127.088 223.427 126.884 221.513C126.849 220.581 126.173 219.788 125.464 219.256C124.4 220.638 123.44 222.795 122.578 225.584Z" fill="#EA4612"/>
<path opacity="0.99" d="M128.396 223.408C127.442 223.633 126.848 224.58 126.385 225.382C125.5 227.238 124.404 228.924 123.206 230.593C121.957 232.418 120.471 234.453 120.705 236.788C120.786 237.213 120.811 237.826 121.206 238.047C121.718 238.076 121.905 237.399 122.249 237.124C124.911 233.908 127.5 230.525 128.991 226.587C129.21 225.677 129.371 224.621 128.988 223.726C128.865 223.523 128.637 223.383 128.396 223.408Z" fill="#EA4612"/>
<path opacity="0.99" d="M94.4581 173.729C93.2175 173.768 92.403 174.953 91.1435 174.967C87.31 175.721 84.1218 178.179 80.99 180.363C78.38 182.563 75.8606 184.924 73.6852 187.556C72.682 188.85 72.0305 190.355 71.3096 191.806C69.9497 193.724 68.786 195.913 68.3639 198.257C68.2276 199.087 69.1519 199.708 69.8807 199.294C72.0707 198.66 73.9299 197.185 75.1562 195.273C76.7756 192.847 78.1603 190.281 80.04 188.031C80.301 187.511 80.8868 187.13 81.4318 187.481C82.9783 188.056 84.1731 189.773 85.9615 189.527C86.7572 189.223 87.194 188.246 87.2366 187.439C86.913 186.477 86.312 185.531 86.524 184.46C86.9208 181.878 89.0291 179.736 91.4644 178.928C92.3849 178.602 93.3738 178.708 94.3039 178.846C94.6975 178.835 94.4297 178.193 94.8373 178.459C95.3749 178.471 94.8451 179.027 95.3082 179.142C96.6039 179.191 97.5415 177.829 97.3001 176.6C97.1359 175.192 96.0067 173.646 94.4581 173.729Z" fill="#FFCC00"/>
<path opacity="0.99" d="M102.759 168.145C101.667 168.099 100.86 168.888 100.334 169.758C98.9181 171.752 98.2254 174.689 99.7961 176.8C100.783 178.675 103.291 179.004 105.101 178.259C107.424 177.268 108.042 174.282 107.245 172.081C106.614 170.128 105.045 167.998 102.759 168.145Z" fill="#FFCC00"/>
<path opacity="0.99" d="M112.289 174.95C110.246 175.029 108.428 176.875 108.23 178.884C108.116 180.485 110.14 181.237 111.422 180.747C112.222 180.023 113.134 179.195 114.31 179.359C116.854 179.757 118.779 181.869 119.861 184.08C120.543 185.088 120.134 186.277 119.977 187.364C119.89 188.527 120.883 189.659 122.094 189.477C123.651 189.482 124.967 188.45 126.224 187.756C128.799 190.345 131.13 193.227 132.498 196.642C132.801 197.793 133.727 198.74 134.837 199.161C135.967 199.672 137.612 198.813 137.383 197.465C137.147 195.831 136.067 194.466 135.457 192.955C134.511 190.838 133.386 188.784 131.787 187.093C128.717 183.478 125.261 180.064 120.944 177.984C118.973 176.931 116.844 176.178 114.706 175.604C113.937 175.226 113.191 174.813 112.289 174.95Z" fill="#FFCC00"/>
<path opacity="0.99" d="M100.992 193.248C97.1789 193.214 93.3609 193.501 89.6338 194.327C84.1124 195.503 78.5117 196.589 73.3624 198.972C70.4312 200.102 67.208 201.096 65.0677 203.528C63.7213 205.635 64.4448 207.731 65.6469 208.341C68.3679 209.079 70.9489 207.511 73.2579 206.291C75.0043 205.338 76.8208 204.547 78.7857 204.208C83.1208 203.091 87.3196 201.321 91.8219 200.999C97.3459 200.437 102.928 199.755 108.479 200.311C110.313 200.588 112.115 201.049 113.975 201.15C118.61 201.783 123.019 203.432 127.462 204.85C132.033 206.291 135.82 209.671 140.575 210.608C141.703 210.601 142.407 209.507 143.088 208.746C144.198 207.331 143.184 205.467 142.063 204.408C139.399 201.817 135.689 200.82 132.382 199.35C128.964 197.902 125.392 196.786 121.69 196.432C120.706 196.03 119.887 195.27 118.844 194.965C114.537 193.494 109.898 193.491 105.393 193.287C103.926 193.253 102.459 193.236 100.992 193.248Z" fill="#FFCC00"/>
<path opacity="0.99" d="M131.049 215.421C130.01 215.604 129.086 216.162 128.045 216.354C127.189 216.523 126.786 217.513 127.215 218.263C127.91 219.794 129.195 220.994 130.47 222.047C131.107 222.067 130.996 221.039 131.27 220.609C131.66 219.104 132.438 217.548 132.149 215.963C132.003 215.509 131.478 215.369 131.049 215.421Z" fill="#F1D73C"/>
<path opacity="0.99" d="M102.721 208.174C100.901 208.561 99.9419 210.404 99.0451 211.859C98.6838 212.481 98.2034 213.3 98.811 213.937C99.8203 215.426 100.788 217.216 102.513 217.954C103.648 218.099 104.28 216.829 105.015 216.187C106.007 214.989 107.571 213.686 107.209 211.946C106.826 210.423 105.165 209.889 104.267 208.737C103.852 208.356 103.293 208.106 102.721 208.174Z" fill="#F1D73C"/>
<path opacity="0.99" d="M75.5062 216.763C74.6343 217.029 74.9306 218.21 75.0062 218.892C75.4784 220.917 76.2267 222.987 77.6314 224.559C78.0079 225.102 78.7753 224.722 78.7607 224.114C78.8337 222.224 80.297 220.569 80.0483 218.642C79.7161 217.628 78.4372 217.651 77.5689 217.73C76.8496 217.5 76.3185 216.721 75.5062 216.763Z" fill="#F1D73C"/>
<path opacity="0.99" d="M102.376 225.039C101.391 224.902 100.72 225.715 100.392 226.539C99.2459 228.52 98.4411 230.784 98.7335 233.106C98.8425 234.175 99.6899 235.411 100.913 235.156C102.275 235.098 102.646 233.547 102.634 232.431C102.712 231.256 102.412 229.603 103.692 228.964C104.37 228.725 104.34 229.756 104.388 230.16C104.59 231.585 104.199 233.171 104.88 234.49C105.4 235.25 106.698 235.78 107.451 235.098C108.25 233.328 108.11 231.241 107.705 229.381C107.2 227.358 105.757 225.191 103.484 225.051C103.115 225.021 102.745 225.025 102.376 225.039Z" fill="#F1D73C"/>
<path opacity="0.99" d="M114.693 230.819C112.443 230.893 110.744 232.679 109.551 234.415C108.839 235.546 108.352 237.415 109.547 238.398C110.227 238.785 111.121 239.16 111.889 238.882C113.557 237.672 114.73 235.772 116.644 234.915C117.126 234.804 116.861 235.44 116.698 235.623C115.287 238.119 113.286 240.361 110.71 241.657C110.13 242.179 110.958 242.942 111.564 242.761C114.195 242.579 116.795 241.167 118.052 238.786C119.33 236.687 119.499 233.642 117.577 231.873C116.8 231.05 115.832 230.666 114.693 230.819ZM112.018 241.724C112.392 241.738 111.695 241.899 112.018 241.724Z" fill="#F1D73C"/>
<path opacity="0.99" d="M93.2705 232.235C91.7295 232.351 90.7578 233.786 89.8952 234.906C88.3 237.438 89.4878 240.87 91.7954 242.541C93.291 243.725 95.3222 244.145 97.1834 243.912C98.1857 243.167 97.8115 241.645 96.9709 240.915C95.6736 239.425 93.7565 238.584 92.5579 237.011C92.379 236.667 93.0039 236.05 93.1997 236.602C94.3918 237.545 95.5688 238.813 97.1459 239.019C98.4665 238.987 98.9053 237.373 98.9044 236.286C98.197 234.586 96.6734 233.249 94.9873 232.544C94.4433 232.33 93.8571 232.203 93.2705 232.235Z" fill="#F1D73C"/>
<path opacity="0.99" d="M79.0649 271.468C77.4135 271.706 76.7811 273.639 76.9359 275.093C76.9645 276.422 77.7412 278.024 79.2524 278.048C90.6885 278.948 102.174 278.697 113.635 278.696C118.585 278.619 123.544 278.695 128.486 278.411C129.426 277.884 129.517 276.591 129.591 275.619C129.801 273.774 128.053 272.331 126.32 272.281C120.438 272.496 114.537 272.411 108.651 272.235C102.782 272.033 96.922 271.54 91.0494 271.48C87.3406 271.723 83.6024 271.819 79.8942 271.556C79.6242 271.483 79.3449 271.446 79.0649 271.468Z" fill="#FFCC00"/>
<path opacity="0.99" d="M98.1835 247.924C97.3803 248.292 97.1358 249.309 96.5316 249.911C94.7819 252.406 92.6077 254.655 91.312 257.438C91.1028 257.823 90.8549 258.663 91.5495 258.671C93.6773 258.836 95.8446 258.291 97.9459 258.659C99.1566 259.05 99.3683 260.455 99.4794 261.542C99.9393 262.499 100.991 263.019 101.905 263.476C103.698 264.39 106.068 263.766 107.125 262.043C108.112 260.842 108.79 259.354 109.939 258.309C110.907 257.848 111.912 258.509 112.615 259.145C113.834 259.968 115.427 259.892 116.844 259.884C117.614 259.902 118.9 259.546 118.581 258.525C117.977 257.158 116.547 256.406 115.656 255.242C113.643 253.203 111.975 250.455 109.105 249.558C107.737 249.132 106.402 249.827 105.18 250.283C103.429 250.365 101.625 250.457 100.021 251.247C98.228 252.065 96.7672 253.649 96.1458 255.513C95.8252 256.08 94.7304 256.225 94.4039 255.625C94.5187 254.725 95.5986 254.337 96.1117 253.676C97.3092 252.436 98.8749 251.302 99.3794 249.583C99.518 248.892 98.9094 247.936 98.1835 247.924ZM108.109 251.404C110.438 252.695 112.397 254.638 113.885 256.834C114.134 257.274 113.238 256.367 113.039 256.275C111.386 254.898 109.328 253.963 107.976 252.266C107.787 252.012 107.832 251.547 108.109 251.404ZM103.751 253.458C104.838 254.079 104.44 255.56 104.52 256.588C104.409 257.74 104.691 259.034 104.155 260.101C103.963 260.471 103.762 260.263 103.763 259.951C103.49 257.939 103.326 255.865 103.597 253.846C103.629 253.713 103.661 253.558 103.751 253.458Z" fill="#F1D73C"/>
<path opacity="0.99" d="M90.116 259.709C88.4982 259.736 86.4242 260.498 86.1865 262.33C86.1364 263.18 86.3335 264.337 87.1699 264.747C88.2225 264.8 89.2017 265.472 90.2535 265.388C91.3592 264.987 92.4617 264.474 93.6789 264.647C95.4961 264.671 97.3031 265.23 99.1127 265.084C99.7777 264.617 99.0603 263.743 98.9086 263.183C98.2657 261.872 97.5534 260.095 95.9291 259.829C95.1541 259.754 94.487 260.238 93.9289 260.717C92.766 260.06 91.4674 259.622 90.116 259.709Z" fill="#F1D73C"/>
<path opacity="0.99" d="M110.751 260C109.453 260.185 108.902 261.764 108.939 262.922C108.9 264.193 109.964 265.581 111.351 265.28C113.502 264.946 115.685 265.462 117.852 265.358C119.211 265.27 120.68 265.502 121.969 265.009C122.436 264.374 121.873 263.491 121.552 262.897C120.775 261.559 119.241 260.818 117.71 260.996C115.879 260.923 113.924 261.238 112.181 260.621C111.776 260.287 111.309 259.957 110.751 260Z" fill="#F1D73C"/>
<path opacity="0.99" d="M116.518 188.702C115.878 189.2 115.478 190.004 114.408 189.716C111.706 190.128 108.543 189.107 106.11 190.47C105.12 191.51 107.485 191.458 108.053 191.557C115.193 192.133 122.261 193.647 128.988 195.974C130.154 195.619 128.679 193.871 128.386 193.31C127.406 191.67 125.029 189.946 123.413 191.837C121.258 193.511 119.385 190.687 117.897 189.386C117.487 189.098 117.066 188.629 116.518 188.702Z" fill="white"/>
<path opacity="0.99" d="M103.081 236.201C100.507 237.068 99.8979 240.42 99.5455 242.801C99.2087 244.759 99.9673 247.194 101.832 247.999C102.19 247.121 101.141 245.728 102.48 245.241C104.003 244.475 104.71 242.874 105.604 241.622C105.788 240.668 104.248 238.824 105.078 238.68C105.685 239.087 107.56 238.974 106.547 237.957C105.64 237.036 104.471 236.009 103.081 236.201Z" fill="white"/>
<path opacity="0.99" d="M113.288 267.304C109.975 267.468 106.513 267.138 103.282 267.729C102.06 268.936 104.187 269.461 105.097 269.367C111.35 269.831 117.698 270.575 123.943 270.133C124.983 269.044 123.651 267.26 122.246 267.493C119.272 267.202 116.272 267.315 113.288 267.304Z" fill="white"/>
<path d="M102.909 38.6178C101.435 38.6079 99.9769 39.5891 99.7293 41.0856C98.5831 43.701 95.5405 44.6068 92.9464 45.1115C86.4618 46.8788 80.4783 50.5099 76.0149 55.573C72.8503 58.8187 70.0417 62.6075 68.9846 67.0815C67.5731 70.9469 63.5081 73.649 63.4482 78.0317C63.5263 80.8858 66.8747 83.0252 69.5097 81.8821C72.8005 85.963 74.2664 91.0862 76.0089 95.9431C77.7701 99.8105 78.9924 104.088 81.9534 107.242C85.0976 112.824 91.299 115.797 97.3082 117.241C98.2625 118.701 96.8507 120.2 95.9023 121.208C94.5317 122.842 92.6039 124.291 92.2852 126.529C88.6257 127.518 87.0063 131.282 85.0454 134.16C84.3363 135.08 83.6684 136.597 82.2976 136.423C81.0645 136.553 80.6764 137.905 80.7037 138.953C80.6721 140.344 80.0366 142.201 78.383 142.205C77.4975 142.09 76.5407 142.26 76.1078 143.132C74.5939 145.399 74.817 148.552 75.9736 150.944C76.3374 151.731 77.1718 152.135 78.0096 151.899C90.6741 152.126 103.343 151.879 116.006 152.231C119.551 152.322 123.138 152.06 126.659 152.397C128.496 152.903 131.001 152.23 131.466 150.139C131.957 148.773 131.361 147.283 131.518 145.944C131.899 145.158 131.668 143.879 130.632 143.832C129.078 143.457 126.835 143.001 126.618 141.061C126.77 138.256 123.969 136.712 122.406 134.784C121.118 133.394 120.292 131.364 120.778 129.528C116.28 128.11 113.545 123.972 110.125 120.998C108.722 119.6 109.066 117.049 110.72 116.01C112.128 114.815 114.047 114.521 115.813 114.412C120.734 112.341 124.625 108.297 127.622 103.974C129.561 100.292 130.367 96.108 132.447 92.4904C133.627 89.4532 134.003 85.541 137.06 83.6964C138.309 82.9533 139.815 83.4378 141.144 83.2472C144.112 82.4517 145.457 78.4581 143.571 76.0307C142.568 74.6651 140.807 74.0671 140.024 72.4895C137.918 69.1999 137.703 64.9733 135.026 62.014C132.505 58.1011 129.611 54.3024 125.63 51.7856C122.051 48.8436 117.732 46.5762 113.106 46.0677C111.289 46.7771 108.992 45.8416 108.461 43.8911C107.765 42.2737 107.206 40.2522 105.441 39.5104C104.788 38.8493 103.822 38.571 102.909 38.6178ZM103.084 39.5162C103.762 39.5112 105.175 39.9188 104.595 40.8289C104.011 41.8364 102.033 41.6831 102.145 40.3155C102.198 39.8564 102.632 39.5201 103.084 39.5162ZM99.8693 42.4682C101.365 42.2312 101.113 45.0657 99.706 44.6209C98.7072 44.2398 98.6637 42.5633 99.8693 42.4682ZM106.578 44.8193C108.136 44.9187 107.99 47.8701 106.438 47.6662C105.446 47.1827 105.516 45.4439 106.333 44.8776C106.413 44.8556 106.493 44.8134 106.578 44.8193ZM94.4438 48.9672C95.2983 48.9506 95.9031 49.6405 96.5498 50.1048C96.176 51.3101 94.2389 51.8652 93.6795 50.5248C93.3284 49.8959 93.6911 49.0165 94.4438 48.9672ZM82.671 50.9332C83.3965 50.8972 84.4258 51.8769 83.5869 52.4559C82.979 53.1751 81.5959 52.7191 81.7492 51.7091C81.8306 51.2744 82.2225 50.927 82.671 50.9332ZM74.2235 59.2524C75.5278 59.3105 75.6576 61.5008 74.3401 61.6734C73.3986 62.1819 72.3105 60.9005 73.0567 60.0691C73.2888 59.6404 73.7107 59.2597 74.2235 59.2524ZM116.834 59.4915C119.133 59.9388 119.57 63.0417 121.851 63.5228C122.674 63.583 122.94 62.4752 123.724 62.2743C125.152 61.3969 126.986 61.9397 128 63.1669C129.619 64.7858 130.398 67.0445 130.882 69.2517C126.963 67.5145 122.84 66.3173 118.666 65.4713C114.09 64.0341 109.193 64.3549 104.49 63.5986C104.583 61.6964 106.548 60.6231 108.264 60.6058C110.618 60.4164 113.078 61.0554 115.358 60.5475C115.648 59.9964 116.164 59.4467 116.834 59.4915ZM75.1277 63.7095C76.5872 63.7642 76.2504 66.405 74.8127 65.9964C73.8764 65.6333 73.989 63.7088 75.1277 63.7095ZM75.046 75.1964C76.0601 75.0692 76.4213 76.8172 75.2969 76.8708C74.4302 77.1077 73.4823 75.7567 74.521 75.3306C74.6886 75.2644 74.8652 75.2108 75.046 75.1964ZM65.5543 76.9408C66.746 77.0755 66.8465 78.5207 67.0303 79.4377C66.2837 80.3333 64.3642 80.2499 64.3175 78.866C64.2291 78.0681 64.6102 76.9558 65.5543 76.9408ZM106.952 104.984C108.096 104.988 108.069 106.669 107.08 106.927C105.598 107.473 105.559 105.061 106.952 104.984ZM103.107 106.956C105.135 107.076 107.178 108.444 107.815 110.387C107.915 111.413 106.569 111.709 105.843 111.279C106.435 112.333 106.798 114.154 105.435 114.774C105.206 116.146 103.993 116.892 102.862 117.446C102.107 117.813 102.536 118.583 102.745 119.149C102.801 119.57 103.577 119.365 103.819 119.791C104.23 120.122 104.536 120.557 104.951 120.893C104.195 121.871 102.176 122.037 101.876 120.59C101.786 120.168 100.971 120.301 100.68 119.878C98.1305 117.87 98.2985 114.107 99.3676 111.349C100.011 109.823 100.785 108.166 102.162 107.19C102.457 107.046 102.782 106.977 103.107 106.956ZM98.0841 107.085C99.3325 107.174 99.4147 108.747 98.8426 109.581C98.3777 110.469 96.9447 110 97.034 109.021C96.8636 108.261 97.0893 107.056 98.0841 107.085ZM108.457 111.816C109.68 112.636 109.39 114.359 109.472 115.631C109.448 116.496 108.931 117.484 108.06 117.609C108.017 119.075 106.755 120.786 105.143 120.328C104.093 119.728 104.906 118.327 105.563 117.749C105.904 117.216 106.621 116.84 107.028 116.588C106.883 115.284 107.122 113.947 107.243 112.65C107.336 112.105 107.904 111.62 108.457 111.816ZM112.062 112.376C112.871 112.327 113.985 113.524 113.077 114.132C112.312 114.737 110.613 114.549 110.872 113.28C110.999 112.752 111.527 112.375 112.062 112.376ZM107.407 121.366C108.045 121.319 109.308 121.818 108.667 122.603C108.092 123.153 106.833 123.899 106.287 122.894C105.943 122.152 106.656 121.361 107.407 121.366ZM120.971 137.993C122.717 137.867 125.005 138.711 125.101 140.723C125.221 141.539 125.164 142.966 123.998 142.835C119.121 143.111 114.311 142.03 109.431 142.106C106.9 142.037 104.365 141.899 101.87 141.458C101.549 139.454 103.546 137.809 105.458 138.063C108.068 138.004 110.677 138.932 113.258 138.308C115.826 138.806 118.394 137.923 120.971 137.993Z" fill="#8FD5F7"/>
<path d="M102.596 37.9823C102.329 37.9884 102.059 38.015 101.779 38.064C99.1341 38.673 98.373 42.3515 96.6858 43.9329C92.2754 43.5583 88.4774 46.2299 84.6622 47.9583C78.2267 51.5677 73.2575 57.4231 69.459 63.6748C67.9663 68.2448 65.5277 72.2911 63.205 76.4278C61.6126 81.8543 68.001 81.8015 70.2932 83.7901C73.6818 87.8081 73.6051 93.2958 76.203 97.5698C77.4255 101.87 79.7633 106.015 82.982 109.133C86.3364 114.142 92.2519 116.253 97.7301 118.059C94.4199 120.603 93.1582 124.881 90.0935 127.509C85.6046 128.474 86.6966 134.692 82.6728 136.015C77.8816 135.28 82.0026 141.997 78.2332 141.61C73.4389 141.45 73.9183 150.106 76.4655 152.035C89.2748 152.668 102.128 152.253 114.952 152.607L115.547 152.648C120.81 152.526 126.217 153.039 131.386 152.169C132.466 149.555 131.85 146.495 132.115 143.681C128.843 142.847 126.581 141.997 126.806 137.8C122.785 136.481 121.277 132.053 120.908 128.67C116.31 127.433 113.663 123.515 110.384 120.445C108.053 117.013 112.799 114.867 115.78 114.827C120.137 113.214 123.566 109.507 126.445 106.222C128.291 106.006 128.85 102.215 129.892 99.6934C132.077 95.3614 133.478 90.6389 135.58 86.1762C136.744 81.3982 140.637 84.8573 143.223 82.4308C148.299 78.2218 141.365 74.8503 139.501 71.3581C139.611 70.5566 138.757 68.0517 137.914 66.5918C137.301 64.7964 136.397 63.433 135.51 62.0413C134.489 60.2475 134.099 59.4266 132.704 58.1326C130.076 54.6011 126.739 51.4945 122.839 49.4168C119.335 46.4467 114.577 44.9386 109.876 45.473C109.018 42.4205 106.589 37.8913 102.596 37.9823ZM102.905 39.995C106.984 39.9028 109.433 47.8488 105.034 49.7493C103.339 50.5947 100.732 50.0932 99.9003 48.2383C98.1194 45.8703 99.4966 42.1268 101.592 40.2984C102.043 40.1012 102.483 40.0045 102.905 39.995ZM94.5681 45.5956C97.7061 45.5254 98.5616 52.2522 93.6872 50.1985C90.0323 49.2779 83.9475 55.0191 87.1182 59.0952C85.7101 64.9408 81.2109 55.6426 79.6742 59.9528C76.1844 63.391 75.3118 69.1588 70.2349 70.5822C66.3209 72.5543 70.4602 64.3019 71.6117 63.599C72.9412 59.1186 77.0342 55.9768 80.2984 52.7654C84.0556 50.23 87.5864 47.1171 92.3512 46.6573C93.1684 45.9179 93.9169 45.6101 94.5681 45.5956ZM112.332 46.7682C113.053 46.731 113.801 46.9403 114.514 47.4916C118.795 48.4518 122.717 50.5307 126.077 53.1913C128.96 55.7448 131.475 58.4909 133.719 61.5396C135.225 64.3515 134.5 63.0008 136.368 67.146C138.846 70.4989 135.256 72.2288 133.107 69.2054C131.656 65.1923 129.334 62.1342 126.147 59.0719C123.786 61.2879 118.819 62.5127 120.558 57.1934C120.034 53.5941 114.362 48.0153 111.329 52.3512C106.075 52.7387 108.862 46.9475 112.332 46.7682ZM98.7335 50.356C100.083 50.39 101.65 51.5629 103.115 52.2579C106.59 49.6465 107.569 53.0268 110.378 54.0722C113.603 51.8298 118.194 52.8689 118.884 57.3159C116.702 60.2375 119.217 63.9402 122.769 63.634C126.183 58.5722 129.717 65.1124 130.423 68.0619C130.03 68.074 129.411 68.6333 128.965 68.3245C124.647 65.9961 119.363 65.8039 114.578 64.5616C107.52 63.7585 100.353 64.1582 93.2555 64.2816C87.9286 64.4545 82.8827 66.6447 77.6965 67.3152C75.8739 64.7511 81.1108 57.7934 84.0438 62.053C88.8651 62.6913 88.6539 57.4032 88.6175 53.8855C90.9525 50.5569 93.3237 51.5466 96.3708 52.4037C96.9882 50.845 97.8105 50.3328 98.7335 50.356ZM101.452 65.0808C104.172 65.077 106.894 65.1875 109.59 65.3083C113.527 65.7044 118.44 65.8251 121.427 68.342C126.878 68.603 131.626 70.9572 136.491 72.9624C139.983 74.1808 146.674 78.2603 141.409 81.8183L141.094 82.1567C136.334 81.4972 132.347 77.8412 127.751 76.3461C122.582 74.7834 117.459 72.6271 111.982 72.4257C105.629 70.6802 99.0448 71.7597 92.6079 72.3965C87.5078 72.4833 82.893 74.7324 78.0173 75.856C73.675 76.3751 69.7855 81.1416 65.5969 79.7998C61.4004 75.2614 69.7201 72.0142 73.3269 70.9497C77.8808 68.6236 83.0358 67.6164 88.0108 66.5685C92.3938 65.416 96.919 65.0871 101.452 65.0808ZM101.872 74.0359C103.367 74.0227 104.864 74.0486 106.358 74.1059C111.378 74.5173 116.698 74.7918 121.334 76.5678C125.277 77.6706 129.253 80.7366 132.833 80.7273C138.439 81.8626 130.841 88.9566 130.884 84.1752C131.32 79.405 129.858 83.9392 129.257 85.8028C125.73 88.2765 129.718 82.8301 128.825 81.3341C127.797 82.9405 125.743 86.221 125.11 88.9656C122.853 92.6743 121.02 96.9483 119.916 101.251C116.102 103.721 120.895 97.3138 121.019 95.4871C122.822 91.218 124.646 87.0793 126.1 82.8159C125.851 78.7167 125.078 85.6399 123.924 85.1903C121.972 89.0273 121.151 93.5763 118.569 96.8231C118.901 100.651 113.474 101.593 110.396 102.114C109.108 98.2024 105.555 93.9427 100.618 95.8255C96.675 96.4981 98.921 105.178 95.204 102.447C90.1521 101.282 87.471 106.176 87.3574 110.544C85.6777 111.4 82.5593 107.045 82.3228 104.95C78.0133 102.638 79.815 97.0586 80.5259 93.2469C82.9835 90.7209 81.3552 87.1343 77.5798 87.8214C73.5554 87.6406 68.3769 81.1443 74.6395 79.6947C79.2314 78.1987 83.6805 75.9284 88.5184 75.3777C92.9098 74.4608 97.3863 74.0752 101.872 74.0359ZM103.354 77.8279C101.553 77.8462 99.6115 79.561 98.9844 81.3224C93.868 85.0566 100.133 88.0613 101.884 91.5959C103.601 92.7981 105.698 88.8167 106.79 87.7047C111.266 85.676 107.941 82.2723 106.131 79.9806C105.464 78.4164 104.434 77.8169 103.354 77.8279ZM103.016 80.0156C103.643 80.0223 104.257 80.4112 104.789 81.3749C109.661 84.04 105.611 86.6826 103.377 89.2915C101.973 90.3763 99.4416 86.3226 98.6752 84.9919C99.1132 83.407 101.133 79.9957 103.016 80.0156ZM131.182 87.2497C133.317 87.1464 130.952 91.8239 130.668 93.6495C129.8 93.002 124.396 88.202 129.21 87.9964C130.099 87.495 130.739 87.2711 131.182 87.2497ZM75.5846 88.6498C75.9481 88.6233 76.5197 88.9143 77.3639 89.6649C82.4909 88.9795 78.3409 93.3538 78.5366 95.9655C77.7798 98.2977 73.6214 88.7931 75.5846 88.6498ZM125.33 91.0884C129.648 94.3442 122.595 99.5342 121.597 103.293C121.211 104.709 119.71 103.623 120.325 102.774C123.239 99.5921 122.54 94.6933 125.33 91.0884ZM128.405 95.2946C128.948 95.2637 129.226 96.0742 128.79 98.2641C127.168 102.271 124.591 105.661 121.772 109.016L121.497 109.401L121.235 109.564C119.574 105.886 124.384 101.811 125.978 98.4333C126.57 96.7627 127.706 95.3344 128.405 95.2946ZM103.016 96.8348C107.366 96.9085 108.79 103.247 107.228 106.869C102.93 107.144 105.65 102.128 104.165 100.277C100.429 100.719 104.632 107.214 99.9528 106.624C97.4284 104.176 99.681 99.5943 101.277 97.109C101.899 96.9124 102.481 96.8257 103.016 96.8348ZM114.788 102.622C115.418 102.59 116.043 102.716 116.638 103.042C120.989 105.813 118.27 112.264 114.03 113.666C113.309 113.894 110.635 115.001 110.681 113.531C113.468 112.339 115.747 109.732 117.221 106.811C116.883 104.878 112.924 109.326 111.906 110.439C105.877 110.727 110.381 102.847 114.788 102.622ZM93.4655 104.08C95.5168 104.061 97.8348 106.101 98.6869 107.838C98.5419 112.695 95.0778 109.864 93.0046 107.715C89.5141 109.298 99.3063 111.911 97.3276 115.223L96.8842 115.521L96.575 115.352C90.9695 116.033 86.7131 109.164 91.2836 105.195C91.9007 104.414 92.6628 104.088 93.4655 104.08ZM103.179 107.435C105.473 107.392 108.131 109.503 109.042 112.003C109.894 115.828 107.865 119.803 104.293 120.847C102.488 122.541 100.699 119.389 99.4453 118.368C98.2311 116.446 99.1126 113.204 99.6553 111.11C100.211 108.502 101.609 107.464 103.179 107.435ZM107.059 112.155C106.583 112.243 105.683 113.848 104.795 114.856C105.963 117.962 99.7379 116.462 102.858 119.225C105.042 121.068 107.784 116.135 107.368 114.091C107.482 112.594 107.344 112.102 107.059 112.155ZM98.0918 119.692C101.296 121.022 96.8424 124.2 95.4724 125.683C91.8306 127.81 96.662 129.116 96.5808 126.436C98.7743 122.724 101.699 122.179 105.437 122.177C110.477 118.821 113.767 125.975 117.029 128.63C121.063 131.816 115.508 131.745 112.974 130.905C108.69 126.408 108.587 134.181 104.888 135.193C103.101 135.883 100.857 134.561 99.6203 133.32C99.7801 127.796 94.4973 130.792 91.1961 130.076C91.9121 127.025 96.1185 123.144 98.0918 119.692ZM108.033 122.761C105.966 124.345 112.263 127.127 113.68 128.787L114.555 129.306C113.804 127.29 110.452 123.942 108.033 122.761ZM103.797 124.89C102.796 124.855 103.241 130.803 103.64 132.299C105.534 132.262 104.389 127.759 104.871 126.255C104.402 125.296 104.053 124.899 103.797 124.89ZM90.4319 131.564C91.6805 131.58 92.9672 131.941 93.9031 132.672C96.6545 129.916 98.1841 133.512 99.0952 135.881C100.611 137.855 93.0487 135.004 91.2195 136.476C89.8911 137.512 88.409 136.11 86.9782 136.173C85.1326 133.161 87.6849 131.529 90.4319 131.564ZM110.851 131.862C111.256 131.861 111.719 132.076 112.21 132.597C113.714 133.11 115.612 132.748 117.268 132.923C119.79 132.327 121.68 134.11 122.028 136.511C118.928 137.226 115.496 136.688 112.303 136.529C108.021 138.157 108.66 131.865 110.851 131.862ZM102.747 137.742C106.426 137.68 108.734 139.178 113.645 138.256C118.224 138.909 126.309 135.796 124.484 142.508C120.361 143.106 115.777 141.78 111.731 142.631C110.008 142.454 109.264 142.059 107.762 142.214C99.4494 142.06 91.4298 141.871 83.1162 141.861C81.1409 142.362 80.6842 137.916 82.9762 137.905C89.0132 138.314 95.1472 138.864 101.16 137.946C101.691 137.815 102.222 137.751 102.747 137.742ZM91.4353 143.278C102.303 143.832 113.175 144.524 124.07 144.387C128.187 143.165 130.856 146.13 128.661 149.83C127.581 150.181 126.422 150.031 125.307 150.104C109.867 150.015 94.3883 150.649 78.9799 149.527C76.1134 148.963 76.5443 142.107 80.2109 143.541C84.0101 143.692 87.7034 143.763 91.4353 143.278Z" fill="#2D1609"/>
<path opacity="0.99" d="M103.438 73.8428C98.5674 73.8522 93.6764 74.0725 88.8938 75.0539C86.1728 75.4517 83.506 76.1537 80.9457 77.144C78.4392 78.0934 75.9022 78.9721 73.3949 79.8951C72.1722 80.3117 71.2551 81.5955 71.5444 82.9094C72.0041 85.1057 73.8699 86.7479 75.8376 87.6446C77.2614 88.3391 79.0263 87.6009 80.3606 88.5256C81.6832 89.457 81.7042 91.4551 80.7131 92.6198C80.0597 93.3653 80.1241 94.4383 79.8648 95.3476C79.4466 97.7814 78.8606 100.455 79.95 102.802C80.4086 103.756 81.1812 104.544 82.0666 105.091C82.7221 107.255 84.0177 109.321 85.9207 110.607C86.3949 110.822 87.1948 111.113 87.5473 110.584C87.7606 108.761 88.082 106.911 89.0992 105.341C90.0832 103.68 91.9141 102.383 93.9177 102.534C94.7464 102.511 95.4824 102.903 96.2249 103.208C97.1102 103.332 97.5699 102.382 97.7365 101.67C98.2399 100.107 98.3097 98.3564 99.2599 96.9675C99.8892 96.0634 101.063 95.9257 102.056 95.7034C103.536 95.4967 105.105 95.7986 106.311 96.7053C108.136 98.0105 109.376 99.9875 110.142 102.05C110.625 102.557 111.395 102.09 111.977 102.059C114.048 101.591 116.312 101.118 117.856 99.5458C118.54 98.8653 118.766 97.896 118.878 96.9793C119.357 95.9963 120.054 95.1119 120.486 94.0956C121.868 91.336 122.639 88.307 124.052 85.5673C124.281 85.2388 124.73 85.096 124.842 84.6568C125.236 83.8632 125.454 82.9987 125.782 82.1787C125.917 83.252 125.254 84.214 124.967 85.2135C123.545 89.0267 121.846 92.7499 120.406 96.5482C119.733 98.1639 118.772 99.6615 118.271 101.343C118.116 101.881 118.767 102.158 119.179 101.899C119.771 101.733 120.269 101.299 120.331 100.657C121.419 96.7374 123.512 93.1921 125.493 89.6865C126.148 88.3546 126.402 86.864 127.042 85.5199C127.539 84.3294 128.065 83.1491 128.708 82.0284C128.514 83.4785 127.727 84.8009 127.556 86.2597C127.708 86.8354 128.433 86.6232 128.776 86.3569C129.278 86.1467 129.637 85.7753 129.716 85.2204C130.027 84.3392 130.3 83.446 130.697 82.6001C130.759 83.646 130.371 84.9452 131.204 85.7735C132.093 86.3948 133.221 85.6951 133.882 85.0398C134.763 84.1958 135.567 82.7434 134.795 81.5776C133.898 80.3622 132.238 80.5457 130.927 80.2074C127.56 79.2491 124.592 77.2891 121.234 76.2835C116.487 74.5762 111.411 74.2568 106.423 73.887C105.429 73.8363 104.433 73.8352 103.438 73.8428ZM103.406 78.0829C104.576 78.0688 105.445 79.05 105.921 80.0239C106.93 81.5449 108.431 82.8914 108.739 84.7628C108.924 85.9753 107.91 86.9123 106.909 87.3823C105.666 88.3849 104.983 89.917 103.767 90.9498C103.368 91.3507 102.769 91.6708 102.198 91.5075C101.081 89.8858 99.7221 88.4228 98.4672 86.905C97.652 85.9317 96.8685 84.5232 97.5155 83.2689C97.895 82.5748 98.5358 82.0354 99.0978 81.501C99.7444 80.2865 100.643 79.1239 101.885 78.4697C102.37 78.2537 102.88 78.1102 103.406 78.0829Z" fill="#FF0000"/>
<path opacity="0.99" d="M122.578 97.2546C122.082 99.123 121.479 101.022 120.248 102.557C119.816 103.059 119.936 103.925 120.62 104.124C121.101 104.308 121.568 103.988 121.708 103.522C122.506 101.6 123.73 99.9327 124.907 98.2372C125.902 96.7259 127.088 95.0971 126.884 93.1838C126.849 92.2514 126.173 91.4588 125.464 90.9268C124.4 92.3087 123.44 94.4654 122.578 97.2546Z" fill="#EA4612"/>
<path opacity="0.99" d="M128.396 95.0785C127.442 95.303 126.848 96.2507 126.385 97.0527C125.5 98.9087 124.404 100.594 123.206 102.263C121.957 104.088 120.471 106.123 120.705 108.459C120.786 108.884 120.811 109.496 121.206 109.717C121.718 109.747 121.905 109.07 122.249 108.795C124.911 105.579 127.5 102.195 128.991 98.2579C129.21 97.3473 129.371 96.2917 128.988 95.3967C128.865 95.193 128.637 95.0538 128.396 95.0785Z" fill="#EA4612"/>
<path opacity="0.99" d="M94.4581 45.3997C93.2175 45.4387 92.403 46.6235 91.1435 46.6372C87.31 47.3916 84.1218 49.8494 80.99 52.0334C78.38 54.2331 75.8606 56.5945 73.6852 59.2261C72.682 60.5205 72.0305 62.025 71.3096 63.4767C69.9497 65.3941 68.786 67.5834 68.3639 69.9271C68.2276 70.7579 69.1519 71.3787 69.8807 70.9647C72.0707 70.3301 73.9299 68.8554 75.1562 66.9435C76.7756 64.517 78.1603 61.9515 80.04 59.7011C80.301 59.1811 80.8868 58.8001 81.4318 59.1511C82.9783 59.7266 84.1731 61.4438 85.9615 61.1971C86.7572 60.8935 87.194 59.9163 87.2366 59.1094C86.913 58.1478 86.312 57.2014 86.524 56.13C86.9208 53.548 89.0291 51.4062 91.4644 50.5985C92.3849 50.2723 93.3738 50.3785 94.3039 50.5169C94.6975 50.5059 94.4297 49.8632 94.8373 50.1294C95.3749 50.1418 94.8451 50.6979 95.3082 50.8128C96.6039 50.861 97.5415 49.4997 97.3001 48.2708C97.1359 46.8625 96.0067 45.3161 94.4581 45.3997Z" fill="#FFCC00"/>
<path opacity="0.99" d="M102.759 39.8159C101.667 39.7696 100.86 40.5583 100.334 41.4285C98.9181 43.4227 98.2254 46.3594 99.7961 48.4709C100.783 50.3455 103.291 50.6748 105.101 49.9294C107.424 48.9384 108.042 45.9523 107.245 43.7515C106.614 41.7985 105.045 39.6679 102.759 39.8159Z" fill="#FFCC00"/>
<path opacity="0.99" d="M112.289 46.6206C110.246 46.6993 108.428 48.5449 108.23 50.5543C108.116 52.1554 110.14 52.9076 111.422 52.417C112.222 51.6933 113.134 50.8656 114.31 51.0294C116.854 51.4272 118.779 53.5395 119.861 55.7507C120.543 56.7584 120.134 57.9471 119.977 59.0343C119.89 60.1969 120.883 61.3298 122.094 61.1471C123.651 61.152 124.967 60.1207 126.224 59.426C128.799 62.0153 131.13 64.8974 132.498 68.312C132.801 69.4634 133.727 70.4101 134.837 70.8313C135.967 71.3428 137.612 70.4838 137.383 69.1353C137.147 67.5015 136.067 66.1361 135.457 64.6251C134.511 62.5087 133.386 60.4546 131.787 58.7635C128.717 55.1485 125.261 51.7344 120.944 49.6542C118.973 48.6014 116.844 47.8482 114.706 47.2749C113.937 46.8962 113.191 46.4836 112.289 46.6206Z" fill="#FFCC00"/>
<path opacity="0.99" d="M100.992 64.9182C97.1789 64.8844 93.3609 65.171 89.6338 65.9964C84.1124 67.1732 78.5117 68.259 73.3624 70.6423C70.4312 71.7721 67.208 72.7664 65.0677 75.1983C63.7213 77.3051 64.4448 79.4014 65.6469 80.0113C68.3679 80.7485 70.9489 79.1805 73.2579 77.9605C75.0043 77.008 76.8208 76.2173 78.7857 75.8776C83.1208 74.7606 87.3196 72.9914 91.8219 72.6689C97.3459 72.1067 102.928 71.4254 108.479 71.9809C110.313 72.2575 112.115 72.7186 113.975 72.8204C118.61 73.4528 123.019 75.102 127.462 76.5202C132.033 77.9609 135.82 81.3413 140.575 82.2782C141.703 82.2714 142.407 81.1771 143.088 80.4155C144.198 79.0007 143.184 77.1372 142.063 76.0776C139.399 73.4873 135.689 72.4904 132.382 71.0198C128.964 69.5718 125.392 68.4558 121.69 68.1018C120.706 67.6998 119.887 66.9395 118.844 66.635C114.537 65.1639 109.898 65.1612 105.393 64.9567C103.926 64.9229 102.459 64.9056 100.992 64.9182Z" fill="#FFCC00"/>
<path opacity="0.99" d="M131.049 87.0914C130.01 87.274 129.086 87.8325 128.045 88.0249C127.189 88.1937 126.786 89.1834 127.215 89.9334C127.91 91.4641 129.195 92.6647 130.47 93.7171C131.107 93.7378 130.996 92.7091 131.27 92.2795C131.66 90.774 132.438 89.2185 132.149 87.6332C132.003 87.179 131.478 87.0392 131.049 87.0914Z" fill="#F1D73C"/>
<path opacity="0.99" d="M102.721 79.8448C100.901 80.231 99.9419 82.0741 99.0451 83.5291C98.6838 84.1512 98.2034 84.9707 98.811 85.6076C99.8203 87.0964 100.788 88.8867 102.513 89.6249C103.648 89.769 104.28 88.4993 105.015 87.8576C106.007 86.6599 107.571 85.3565 107.209 83.616C106.826 82.0936 105.165 81.559 104.267 80.4073C103.852 80.0262 103.293 79.7764 102.721 79.8448Z" fill="#F1D73C"/>
<path opacity="0.99" d="M75.5062 88.4332C74.6343 88.6997 74.9306 89.8804 75.0062 90.5626C75.4784 92.5875 76.2267 94.6577 77.6314 96.2298C78.0079 96.772 78.7753 96.3927 78.7607 95.784C78.8337 93.8943 80.297 92.2396 80.0483 90.3126C79.7161 89.2983 78.4372 89.3212 77.5689 89.4C76.8496 89.1703 76.3185 88.3917 75.5062 88.4332Z" fill="#F1D73C"/>
<path opacity="0.99" d="M102.376 96.709C101.391 96.5721 100.72 97.3856 100.392 98.2092C99.2459 100.191 98.4411 102.455 98.7335 104.776C98.8425 105.846 99.6899 107.081 100.913 106.827C102.275 106.768 102.646 105.217 102.634 104.101C102.712 102.926 102.412 101.274 103.692 100.634C104.37 100.395 104.34 101.426 104.388 101.83C104.59 103.256 104.199 104.841 104.88 106.16C105.4 106.92 106.698 107.451 107.451 106.768C108.25 104.998 108.11 102.912 107.705 101.051C107.2 99.0281 105.757 96.8611 103.484 96.7215C103.115 96.6917 102.745 96.6956 102.376 96.709Z" fill="#F1D73C"/>
<path opacity="0.99" d="M114.693 102.489C112.443 102.564 110.744 104.349 109.551 106.085C108.839 107.217 108.352 109.086 109.547 110.069C110.227 110.456 111.121 110.83 111.889 110.552C113.557 109.342 114.73 107.443 116.644 106.585C117.126 106.475 116.861 107.11 116.698 107.294C115.287 109.79 113.286 112.031 110.71 113.327C110.13 113.849 110.958 114.613 111.564 114.432C114.195 114.249 116.795 112.838 118.052 110.456C119.33 108.357 119.499 105.313 117.577 103.543C116.8 102.72 115.832 102.336 114.693 102.489ZM112.018 113.394C112.392 113.409 111.695 113.569 112.018 113.394Z" fill="#F1D73C"/>
<path opacity="0.99" d="M93.2705 103.905C91.7295 104.021 90.7578 105.456 89.8952 106.576C88.3 109.108 89.4878 112.54 91.7954 114.211C93.291 115.395 95.3222 115.815 97.1834 115.581C98.1857 114.837 97.8115 113.314 96.9709 112.585C95.6736 111.095 93.7565 110.254 92.5579 108.681C92.379 108.337 93.0039 107.72 93.1997 108.272C94.3918 109.215 95.5688 110.483 97.1459 110.689C98.4665 110.657 98.9053 109.043 98.9044 107.956C98.197 106.256 96.6734 104.919 94.9873 104.214C94.4433 104 93.8571 103.873 93.2705 103.905Z" fill="#F1D73C"/>
<path opacity="0.99" d="M79.0649 143.138C77.4135 143.376 76.7811 145.309 76.9359 146.763C76.9645 148.092 77.7412 149.694 79.2524 149.718C90.6885 150.618 102.174 150.367 113.635 150.366C118.585 150.289 123.544 150.365 128.486 150.081C129.426 149.554 129.517 148.261 129.591 147.289C129.801 145.444 128.053 144.001 126.32 143.951C120.438 144.166 114.537 144.081 108.651 143.905C102.782 143.703 96.922 143.21 91.0494 143.15C87.3406 143.393 83.6024 143.489 79.8942 143.226C79.6242 143.152 79.3449 143.116 79.0649 143.138Z" fill="#FFCC00"/>
<path opacity="0.99" d="M98.1835 119.595C97.3803 119.963 97.1358 120.98 96.5316 121.581C94.7819 124.077 92.6077 126.325 91.312 129.108C91.1028 129.493 90.8549 130.334 91.5495 130.342C93.6773 130.506 95.8446 129.961 97.9459 130.329C99.1566 130.72 99.3683 132.126 99.4794 133.213C99.9393 134.169 100.991 134.69 101.905 135.146C103.698 136.06 106.068 135.436 107.125 133.713C108.112 132.513 108.79 131.024 109.939 129.979C110.907 129.518 111.912 130.179 112.615 130.815C113.834 131.639 115.427 131.563 116.844 131.554C117.614 131.573 118.9 131.216 118.581 130.196C117.977 128.828 116.547 128.077 115.656 126.912C113.643 124.874 111.975 122.125 109.105 121.228C107.737 120.803 106.402 121.498 105.18 121.953C103.429 122.035 101.625 122.127 100.021 122.917C98.228 123.735 96.7672 125.319 96.1458 127.183C95.8252 127.75 94.7304 127.895 94.4039 127.296C94.5187 126.396 95.5986 126.007 96.1117 125.347C97.3092 124.106 98.8749 122.973 99.3794 121.253C99.518 120.563 98.9094 119.607 98.1835 119.595ZM108.109 123.074C110.438 124.366 112.397 126.308 113.885 128.504C114.134 128.944 113.238 128.038 113.039 127.946C111.386 126.568 109.328 125.634 107.976 123.937C107.787 123.682 107.832 123.217 108.109 123.074ZM103.751 125.129C104.838 125.749 104.44 127.23 104.52 128.258C104.409 129.41 104.691 130.705 104.155 131.771C103.963 132.142 103.762 131.933 103.763 131.621C103.49 129.61 103.326 127.535 103.597 125.516C103.629 125.384 103.661 125.229 103.751 125.129Z" fill="#F1D73C"/>
<path opacity="0.99" d="M90.116 131.379C88.4982 131.407 86.4242 132.168 86.1865 134C86.1364 134.851 86.3335 136.007 87.1699 136.417C88.2225 136.47 89.2017 137.142 90.2535 137.059C91.3592 136.657 92.4617 136.144 93.6789 136.317C95.4961 136.342 97.3031 136.901 99.1127 136.755C99.7777 136.288 99.0603 135.413 98.9086 134.853C98.2657 133.542 97.5534 131.765 95.9291 131.5C95.1541 131.424 94.487 131.909 93.9289 132.387C92.766 131.731 91.4674 131.293 90.116 131.379Z" fill="#F1D73C"/>
<path opacity="0.99" d="M110.751 131.671C109.453 131.855 108.902 133.435 108.939 134.592C108.9 135.863 109.964 137.252 111.351 136.951C113.502 136.616 115.685 137.132 117.852 137.029C119.211 136.94 120.68 137.172 121.969 136.68C122.436 136.045 121.873 135.161 121.552 134.567C120.775 133.23 119.241 132.489 117.71 132.667C115.879 132.593 113.924 132.908 112.181 132.292C111.776 131.958 111.309 131.628 110.751 131.671Z" fill="#F1D73C"/>
<path opacity="0.99" d="M116.518 60.3724C115.878 60.8705 115.478 61.6744 114.408 61.386C111.706 61.7982 108.543 60.7776 106.11 62.1404C105.12 63.1807 107.485 63.1279 108.053 63.2272C115.193 63.803 122.261 65.3178 128.988 67.6445C130.154 67.289 128.679 65.5415 128.386 64.9808C127.406 63.3409 125.029 61.6167 123.413 63.5076C121.258 65.1818 119.385 62.3579 117.897 61.056C117.487 60.7682 117.066 60.2991 116.518 60.3724Z" fill="white"/>
<path opacity="0.99" d="M103.081 107.871C100.507 108.738 99.8979 112.091 99.5455 114.471C99.2087 116.429 99.9673 118.864 101.832 119.669C102.19 118.791 101.141 117.398 102.48 116.911C104.003 116.146 104.71 114.544 105.604 113.293C105.788 112.338 104.248 110.495 105.078 110.35C105.685 110.757 107.56 110.645 106.547 109.627C105.64 108.706 104.471 107.679 103.081 107.871Z" fill="white"/>
<path opacity="0.99" d="M113.288 138.975C109.975 139.138 106.513 138.808 103.282 139.399C102.06 140.607 104.187 141.131 105.097 141.037C111.35 141.501 117.698 142.245 123.943 141.804C124.983 140.714 123.651 138.931 122.246 139.163C119.272 138.873 116.272 138.985 113.288 138.975Z" fill="white"/>
<defs>
<linearGradient id="paint0_linear_2689_19962" x1="135.067" y1="148.459" x2="-384.797" y2="148.459" gradientUnits="userSpaceOnUse">
<stop stop-color="white"/>
<stop offset="1" stop-color="#CCCCCC"/>
</linearGradient>
</defs>
</svg>
