<svg width="208" height="319" viewBox="0 0 208 319" fill="none" xmlns="http://www.w3.org/2000/svg">
<path d="M192.5 0.5H15.5001C7.21579 0.5 0.500061 7.21573 0.500061 15.5V303.5C0.500061 311.784 7.21579 318.5 15.5001 318.5H192.5C200.784 318.5 207.5 311.784 207.5 303.5V15.5C207.5 7.21573 200.784 0.5 192.5 0.5Z" fill="url(#paint0_linear_2689_20584)" stroke="black" stroke-linecap="square"/>
<path d="M157.4 15H193V304H157.4M121.8 304H86.2001M50.6001 304H15.0001V15H50.6001M86.2001 15H121.8" stroke="black"/>
<path d="M19 25C19.0783 24.6371 19.1578 24.3215 19.2367 24.0532C19.315 23.785 19.4813 23.3985 19.7338 22.8935C20.002 22.3729 20.2939 21.9468 20.6094 21.6154C20.9408 21.2683 21.3905 20.9607 21.9586 20.6924C22.5423 20.4242 23.197 20.2901 23.9229 20.29C25.1536 20.2901 26.1872 20.6924 27.0235 21.4971C27.8754 22.3018 28.3013 23.2958 28.3013 24.4792C28.3013 26.2622 27.2915 28.2108 25.2719 30.3251L21.2957 34.4906H26.9523C27.4887 34.4906 27.8834 34.4039 28.1358 34.2303C28.404 34.041 28.7588 33.6071 29.2007 32.9286L29.5084 33.047L28.2068 36.2894H18.9764V36.0054L23.1892 31.5322C25.2404 29.3548 26.2659 27.3036 26.2659 25.3786C26.2659 24.3846 25.9584 23.5799 25.343 22.9645C24.7277 22.3492 23.9229 22.0415 22.9288 22.0415C22.1083 22.0415 21.4457 22.2703 20.9409 22.7279C20.4517 23.1697 19.9703 23.9665 19.497 25.1183L19 25Z" fill="black"/>
<path d="M187.952 295.579C187.874 295.942 187.794 296.258 187.716 296.526C187.637 296.794 187.471 297.181 187.218 297.686C186.95 298.206 186.658 298.632 186.343 298.964C186.011 299.311 185.562 299.618 184.994 299.887C184.41 300.155 183.755 300.289 183.029 300.289C181.799 300.289 180.765 299.887 179.929 299.082C179.077 298.277 178.651 297.283 178.651 296.1C178.651 294.317 179.661 292.368 181.68 290.254L185.657 286.088H180C179.464 286.088 179.069 286.175 178.816 286.349C178.548 286.538 178.193 286.972 177.752 287.65L177.444 287.532L178.746 284.29H187.976V284.574L183.763 289.047C181.712 291.224 180.686 293.276 180.686 295.201C180.686 296.195 180.994 296.999 181.609 297.615C182.225 298.23 183.029 298.538 184.023 298.538C184.844 298.538 185.507 298.309 186.011 297.851C186.501 297.409 186.982 296.613 187.455 295.461L187.952 295.579Z" fill="black"/>
<path d="M48.0385 90.3644L48.1323 86.623" stroke="black" stroke-width="1.59886" stroke-linecap="round"/>
<path d="M68.9778 81.6601C68.9778 81.6601 73.9243 82.3109 76.1372 79.0566C76.1372 79.0566 76.3975 83.0919 74.8355 84.5238C74.8355 84.5238 76.5278 85.1747 65.2029 86.6065L68.9778 81.6601Z" stroke="black" stroke-width="1.82469" stroke-linecap="round"/>
<path d="M68.7512 99.0176C63.7808 101.227 64.5172 106.013 64.5172 106.013L66.1739 108.958L64.3331 110.983L47.581 110.431C47.581 110.431 45.556 108.59 48.5014 107.118C48.5014 107.118 48.5014 99.2017 44.4514 97.9131L68.7512 99.0176Z" fill="#FFD42A"/>
<path d="M62.308 44.3433C58.6262 46.0001 51.0786 43.791 51.0786 43.791C51.0786 43.791 48.1332 47.4728 49.6059 55.0205L61.5717 47.4728L62.308 44.3433Z" fill="#FF0000"/>
<path d="M48.6854 61.8315L64.1489 51.3384L63.9648 56.3088L48.5013 67.7223L48.6854 61.8315Z" fill="#FF0000"/>
<path d="M49.0537 72.3246L64.3331 61.2793L64.1489 68.0906L48.3173 77.111L49.0537 72.3246Z" fill="#FF0000"/>
<path d="M50.8945 80.6087L63.7807 73.4292L63.4126 81.345L50.8945 80.6087Z" fill="#FF0000"/>
<path d="M48.8695 86.4996V89.8132L56.2331 89.4451L60.4671 85.7633C60.4671 85.7633 53.2876 84.8428 48.8695 86.4996Z" fill="#FF2A2A"/>
<path d="M47.3968 98.4653L51.6309 101.411L55.1285 98.4653H47.3968Z" fill="#FF2A2A"/>
<path d="M56.2331 99.0176H62.4921L58.9944 101.963L56.2331 99.0176Z" fill="#FF0000"/>
<path d="M53.1036 93.8629L57.1535 97.3606L62.4921 93.8629L58.4421 90.5493L53.1036 93.8629Z" fill="#FF2A2A"/>
<path d="M75.9307 42.3179C86.6079 47.8405 88.817 62.0154 88.817 62.0154C90.6579 74.1653 85.6874 86.8674 85.6874 86.8674C76.8512 97.9128 67.6467 99.2014 67.6467 99.2014L44.0833 97.1764C38.7447 95.7037 36.9038 101.963 36.9038 101.963C36.9038 101.963 40.5856 103.067 40.5856 105.46C40.5856 105.46 42.2424 109.326 36.3515 109.326C36.3515 109.326 28.0675 108.038 32.1175 98.0969C32.1175 98.0969 38.3765 89.997 45.3718 90.5492L68.5672 89.4447C68.5672 89.4447 79.0603 85.5788 75.5625 77.2948C75.5625 77.2948 70.9603 79.688 69.3035 75.8221C69.3035 75.8221 71.1444 65.6972 79.0603 71.0358L80.5329 69.5631L76.8512 63.304C76.8512 63.304 78.1398 60.9109 80.1648 61.095L77.5876 57.045L76.483 54.6518L77.9556 52.6269C77.9556 52.6269 76.8512 45.9996 69.1194 47.1042C69.1194 47.1042 70.9603 52.6269 63.5967 51.3382L48.3173 61.8313C48.3173 61.8313 46.4765 58.1495 49.7901 55.5723L61.3877 48.2087L61.2035 43.6065C61.2035 43.6065 57.7059 46.3678 52.7355 44.3428C52.7355 44.3428 49.0537 43.2383 50.5264 40.1088C50.5264 40.1088 47.9491 32.377 53.4718 28.8793C53.4718 28.8793 60.099 26.4862 61.9399 32.377L66.5422 30.5361L69.3035 33.1134L68.0149 36.0588L65.2535 36.427C65.2535 36.427 67.6466 40.8451 75.9307 42.3179Z" fill="#FFD42A"/>
<path d="M55.8649 90.3653L69.1194 75.4541C69.1194 75.4541 69.8558 78.3995 71.8807 77.4791L63.0444 89.8131L55.8649 90.3653Z" fill="#FFDD55"/>
<path d="M61.0193 85.2111C46.8445 83.3702 44.4513 90.3656 44.4513 90.3656L38.9286 92.5747C38.9286 92.5747 38.3764 84.6588 47.3968 81.1611L63.5966 81.5293L61.0193 85.2111Z" fill="#FFE680"/>
<path d="M68.0148 81.3448C68.0148 81.3448 73.1693 82.2653 76.2989 79.3198C76.2989 79.3198 76.483 82.6334 74.6421 85.2107L66.1739 86.3152L64.7012 86.1311L68.0148 81.3448Z" fill="#FFDD55"/>
<path d="M48.5013 67.5385L64.1489 55.9409C64.1489 55.9409 65.2535 57.7818 64.333 60.175L59.7307 64.7772L47.765 73.4294C47.765 73.4294 45.74 71.0362 48.5013 67.5385Z" fill="#FFD42A"/>
<path d="M47.5809 80.4243C47.5809 80.4243 46.6604 77.4789 50.8945 76.0062L64.5171 67.7222C64.5171 67.7222 67.4625 69.9312 63.4126 73.9812L53.84 78.5834L49.0537 81.713L47.5809 80.4243Z" fill="#FFDD55"/>
<path d="M56.049 110.431L56.7854 288.63L63.4126 279.793L63.2285 110.615L56.049 110.431Z" fill="#87AADE"/>
<path d="M47.3968 110.799C48.5013 110.799 56.049 110.247 56.049 110.247L56.7854 289.182L49.4217 281.266L47.3968 110.799Z" fill="#D5E5FF"/>
<path d="M50.884 40.0053C50.884 40.0053 57.7058 45.0795 61.7558 38.8205L61.9399 34.4023C61.9399 34.4023 61.7558 39.7409 65.6217 41.3977C65.6217 41.3977 59.3626 43.6068 62.4921 49.1295" stroke="black" stroke-width="1.23818" stroke-linecap="round"/>
<path d="M52.7354 35.3229C58.1229 41.7209 60.3506 33.0136 58.4421 32.3774C58.4421 32.3774 61.7558 36.7956 56.4172 39.9251" stroke="black" stroke-width="1.23818" stroke-linecap="round"/>
<path d="M50.7104 43.0542C50.7104 43.0542 54.3921 46.3678 60.6512 44.5269" stroke="black" stroke-width="1.23818" stroke-linecap="round"/>
<path d="M63.9648 51.3383C69.6716 54.2837 68.9352 47.2883 68.9352 47.2883C68.9352 47.2883 61.7558 49.4974 67.6467 41.9497" stroke="black" stroke-width="1.23818" stroke-linecap="round"/>
<path d="M77.9556 46.9204C69.4875 40.8455 69.6716 46.7363 69.6716 46.7363C69.6716 46.7363 77.0352 46.7363 77.7716 52.6272C77.7716 52.6272 75.0102 55.0203 77.7716 57.0453C77.7716 57.0453 77.0352 59.4385 81.0851 61.4635C81.0851 61.4635 83.4783 64.9612 83.4783 69.0111" stroke="black" stroke-width="1.23818" stroke-linecap="round"/>
<path d="M79.4284 61.8314C79.4284 61.8314 77.0352 60.3587 77.0352 64.2246C77.0352 64.2246 80.9011 67.3541 79.7965 71.9563C79.7965 71.9563 75.9307 67.17 71.5125 70.8518C71.5125 70.8518 69.3034 72.6927 69.4875 75.454L63.5967 81.3449L64.1489 73.245C64.1489 73.245 67.0944 70.4836 64.1489 67.5382L64.3331 59.6224C64.3331 59.6224 65.6217 57.0451 63.9648 55.9406V52.4429" stroke="black" stroke-width="1.23818" stroke-linecap="round"/>
<path d="M70.0398 76.9268C70.0398 76.9268 72.617 79.6881 75.1943 77.2949C75.1943 77.2949 79.6125 84.8426 69.1194 89.6289L62.124 89.813L70.5921 79.3199" stroke="black" stroke-width="1.23818" stroke-linecap="round"/>
<path d="M47.949 81.1611L62.308 81.7134" stroke="black" stroke-width="1.23818" stroke-linecap="round"/>
<path d="M44.2673 90.5493C44.2673 90.5493 44.2673 84.2902 60.6513 85.7629L56.2331 89.997L44.2673 90.5493Z" fill="#FF0000" stroke="black" stroke-width="1.23818" stroke-linecap="round"/>
<path d="M48.6854 77.2952L62.6762 69.1953" stroke="black" stroke-width="1.23818" stroke-linecap="round"/>
<path d="M51.999 79.6882L62.6762 73.7974" stroke="black" stroke-width="1.23818" stroke-linecap="round"/>
<path d="M48.8695 72.8769L63.0444 61.8315" stroke="black" stroke-width="1.23818" stroke-linecap="round"/>
<path d="M49.2377 67.1703L63.0444 57.2295" stroke="black" stroke-width="1.23818" stroke-linecap="round"/>
<path d="M48.5013 61.8314L62.1239 52.2588" stroke="black" stroke-width="1.23818" stroke-linecap="round"/>
<path d="M49.4218 55.9407L60.2831 48.5771" stroke="black" stroke-width="1.23818" stroke-linecap="round"/>
<path d="M78.692 51.5225C78.692 51.5225 81.8214 51.5225 83.4783 55.0202" stroke="black" stroke-width="1.23818" stroke-linecap="round"/>
<path d="M82.0055 56.6772C82.0055 56.6772 89.5532 62.1999 85.3192 78.5839C85.3192 78.5839 84.7669 86.8679 77.2192 92.0224" stroke="black" stroke-width="1.23818" stroke-linecap="round"/>
<path d="M77.2192 72.877C77.2192 72.877 80.5328 76.7428 79.0602 82.0814C79.0602 82.0814 81.2692 79.5042 81.2692 73.9815" stroke="black" stroke-width="1.23818" stroke-linecap="round"/>
<path d="M44.4514 97.5449C44.4514 97.5449 65.6217 99.3858 68.7512 99.0176" stroke="black" stroke-width="1.23818" stroke-linecap="round"/>
<path d="M52.7354 93.6788L57.3376 97.3606L62.6762 93.8629L58.074 90.5493L52.7354 93.6788Z" fill="#FF0000" stroke="black" stroke-width="1.23818" stroke-linecap="round"/>
<path d="M47.7651 98.4653L51.9991 101.411L54.5763 98.8335" stroke="black" stroke-width="1.23818" stroke-linecap="round"/>
<path d="M56.6013 99.2017L58.8104 102.147L62.1239 99.5698" stroke="black" stroke-width="1.23818" stroke-linecap="round"/>
<path d="M47.949 107.118L64.3331 106.75" stroke="black" stroke-width="1.23818" stroke-linecap="round"/>
<path d="M63.7807 110.799L47.3968 110.615" stroke="black" stroke-width="1.23818" stroke-linecap="round"/>
<path d="M56.049 112.64L56.6013 288.629" stroke="black" stroke-width="1.23818" stroke-linecap="round"/>
<path d="M48.4108 95.4582C49.3454 95.4582 50.103 94.7005 50.103 93.7659C50.103 92.8314 49.3454 92.0737 48.4108 92.0737C47.4762 92.0737 46.7186 92.8314 46.7186 93.7659C46.7186 94.7005 47.4762 95.4582 48.4108 95.4582Z" fill="#FF5555" stroke="black" stroke-width="1.82469" stroke-linecap="round" stroke-linejoin="round"/>
<path d="M66.657 95.5119C67.5916 95.5119 68.3492 94.7542 68.3492 93.8197C68.3492 92.8851 67.5916 92.1274 66.657 92.1274C65.7225 92.1274 64.9648 92.8851 64.9648 93.8197C64.9648 94.7542 65.7225 95.5119 66.657 95.5119Z" fill="#FF5555" stroke="black" stroke-width="1.82469" stroke-linecap="round" stroke-linejoin="round"/>
<path d="M69.3035 33.4818C68.9353 37.5318 65.2535 36.4272 65.2535 36.4272C66.1739 39.1886 74.4579 41.9499 74.4579 41.9499C84.5828 45.9999 87.1601 55.9407 87.1601 55.9407C91.026 66.2497 87.5283 81.1609 87.5283 81.1609C83.8465 94.9676 68.5672 99.0176 68.5672 99.0176C63.0445 101.963 64.3331 106.933 64.3331 106.933L65.8058 107.67C66.7262 110.983 63.4126 110.983 63.4126 110.983V279.977L56.7854 288.629L49.4218 281.266L48.1332 111.352C44.6355 109.695 48.1332 106.749 48.1332 106.749C48.8696 102.331 43.8992 97.1767 43.8992 97.1767C37.456 96.2562 36.1674 103.252 36.1674 103.252C36.5356 102.147 38.9287 102.515 38.9287 102.515C43.3469 104.908 40.2173 108.406 40.2173 108.406C32.3015 111.352 31.0129 103.804 31.0129 103.804C30.8289 94.7835 39.481 91.8381 39.481 91.8381C38.7446 84.1063 47.3968 80.9768 47.3968 80.9768C47.2127 78.0314 48.8696 77.4791 48.8696 77.4791V73.061H47.7651C45.3719 69.7474 48.8696 67.3542 48.8696 67.3542L48.3173 62.0156C46.2924 57.7816 49.79 55.0202 49.79 55.0202C48.8696 48.0248 50.8945 43.4226 50.8945 43.4226C48.8696 41.0295 50.8841 40.0052 50.8841 40.0052C47.2393 33.757 54.0082 28.5502 54.0082 28.5502C54.0082 28.5502 59.3627 26.4864 62.4921 32.5613C62.4921 32.5613 66.7262 27.9591 69.3035 33.4818Z" stroke="black" stroke-width="1.17302"/>
<path d="M158.953 228.069L158.859 231.811" stroke="black" stroke-width="1.59886" stroke-linecap="round"/>
<path d="M138.014 236.774C138.014 236.774 133.067 236.123 130.854 239.377C130.854 239.377 130.594 235.342 132.156 233.91C132.156 233.91 130.464 233.259 141.789 231.827L138.014 236.774Z" stroke="black" stroke-width="1.82469" stroke-linecap="round"/>
<path d="M138.24 219.416C143.211 217.207 142.474 212.421 142.474 212.421L140.817 209.475L142.658 207.45L159.41 208.002C159.41 208.002 161.435 209.843 158.49 211.316C158.49 211.316 158.49 219.232 162.54 220.521L138.24 219.416Z" fill="#FFD42A"/>
<path d="M144.683 274.09C148.365 272.434 155.913 274.643 155.913 274.643C155.913 274.643 158.858 270.961 157.385 263.413L145.42 270.961L144.683 274.09Z" fill="#FF0000"/>
<path d="M158.306 256.602L142.842 267.095L143.027 262.125L158.49 250.711L158.306 256.602Z" fill="#FF0000"/>
<path d="M157.938 246.109L142.658 257.154L142.842 250.343L158.674 241.323L157.938 246.109Z" fill="#FF0000"/>
<path d="M156.097 237.825L143.211 245.004L143.579 237.089L156.097 237.825Z" fill="#FF0000"/>
<path d="M158.122 231.934V228.62L150.758 228.989L146.524 232.67C146.524 232.67 153.704 233.591 158.122 231.934Z" fill="#FF2A2A"/>
<path d="M159.595 219.968L155.36 217.023L151.863 219.968H159.595Z" fill="#FF2A2A"/>
<path d="M150.758 219.416H144.499L147.997 216.471L150.758 219.416Z" fill="#FF0000"/>
<path d="M153.888 224.571L149.838 221.073L144.499 224.571L148.549 227.884L153.888 224.571Z" fill="#FF2A2A"/>
<path d="M131.061 276.116C120.384 270.593 118.174 256.418 118.174 256.418C116.334 244.268 121.304 231.566 121.304 231.566C130.14 220.521 139.345 219.232 139.345 219.232L162.908 221.257C168.247 222.73 170.088 216.471 170.088 216.471C170.088 216.471 166.406 215.366 166.406 212.973C166.406 212.973 164.749 209.107 170.64 209.107C170.64 209.107 178.924 210.396 174.874 220.337C174.874 220.337 168.615 228.437 161.62 227.884L138.424 228.989C138.424 228.989 127.931 232.855 131.429 241.139C131.429 241.139 136.031 238.746 137.688 242.611C137.688 242.611 135.847 252.736 127.931 247.398L126.458 248.871L130.14 255.13C130.14 255.13 128.852 257.523 126.827 257.339L129.404 261.389L130.508 263.782L129.036 265.807C129.036 265.807 130.14 272.434 137.872 271.329C137.872 271.329 136.031 265.807 143.395 267.095L158.674 256.602C158.674 256.602 160.515 260.284 157.201 262.861L145.604 270.225L145.788 274.827C145.788 274.827 149.286 272.066 154.256 274.091C154.256 274.091 157.938 275.195 156.465 278.325C156.465 278.325 159.042 286.057 153.52 289.554C153.52 289.554 146.892 291.947 145.051 286.057L140.449 287.897L137.688 285.32L138.977 282.375L141.738 282.007C141.738 282.007 139.345 277.588 131.061 276.116Z" fill="#FFD42A"/>
<path d="M151.126 228.068L137.872 242.979C137.872 242.979 137.136 240.034 135.111 240.955L143.947 228.621L151.126 228.068Z" fill="#FFDD55"/>
<path d="M145.972 233.222C160.147 235.063 162.54 228.068 162.54 228.068L168.063 225.859C168.063 225.859 168.615 233.775 159.595 237.272L143.395 236.904L145.972 233.222Z" fill="#FFE680"/>
<path d="M138.977 237.089C138.977 237.089 133.822 236.168 130.693 239.114C130.693 239.114 130.508 235.8 132.349 233.223L140.818 232.118L142.29 232.302L138.977 237.089Z" fill="#FFDD55"/>
<path d="M158.49 250.895L142.842 262.493C142.842 262.493 141.738 260.652 142.658 258.259L147.261 253.656L159.226 245.004C159.226 245.004 161.251 247.397 158.49 250.895Z" fill="#FFD42A"/>
<path d="M159.41 238.009C159.41 238.009 160.331 240.955 156.097 242.427L142.474 250.711C142.474 250.711 139.529 248.502 143.579 244.452L153.151 239.85L157.938 236.721L159.41 238.009Z" fill="#FFDD55"/>
<path d="M150.942 208.002L150.206 29.8041L143.579 38.6403L143.763 207.818L150.942 208.002Z" fill="#87AADE"/>
<path d="M159.595 207.634C158.49 207.634 150.942 208.187 150.942 208.187L150.206 29.2518L157.57 37.1676L159.595 207.634Z" fill="#D5E5FF"/>
<path d="M156.107 278.428C156.107 278.428 149.286 273.354 145.236 279.613L145.051 284.031C145.051 284.031 145.236 278.693 141.37 277.036C141.37 277.036 147.629 274.827 144.499 269.304" stroke="black" stroke-width="1.23818" stroke-linecap="round"/>
<path d="M154.256 283.111C148.869 276.713 146.641 285.42 148.549 286.056C148.549 286.056 145.236 281.638 150.574 278.508" stroke="black" stroke-width="1.23818" stroke-linecap="round"/>
<path d="M156.281 275.379C156.281 275.379 152.599 272.066 146.34 273.907" stroke="black" stroke-width="1.23818" stroke-linecap="round"/>
<path d="M143.027 267.095C137.32 264.15 138.056 271.145 138.056 271.145C138.056 271.145 145.236 268.936 139.345 276.484" stroke="black" stroke-width="1.23818" stroke-linecap="round"/>
<path d="M129.036 271.513C137.504 277.588 137.32 271.697 137.32 271.697C137.32 271.697 129.956 271.697 129.22 265.806C129.22 265.806 131.981 263.413 129.22 261.388C129.22 261.388 129.956 258.995 125.906 256.97C125.906 256.97 123.513 253.472 123.513 249.422" stroke="black" stroke-width="1.23818" stroke-linecap="round"/>
<path d="M127.563 256.602C127.563 256.602 129.956 258.075 129.956 254.209C129.956 254.209 126.09 251.079 127.195 246.477C127.195 246.477 131.061 251.264 135.479 247.582C135.479 247.582 137.688 245.741 137.504 242.98L143.395 237.089L142.842 245.189C142.842 245.189 139.897 247.95 142.842 250.895L142.658 258.811C142.658 258.811 141.37 261.388 143.027 262.493V265.991" stroke="black" stroke-width="1.23818" stroke-linecap="round"/>
<path d="M136.952 241.507C136.952 241.507 134.374 238.746 131.797 241.139C131.797 241.139 127.379 233.591 137.872 228.805L144.867 228.621L136.399 239.114" stroke="black" stroke-width="1.23818" stroke-linecap="round"/>
<path d="M159.042 237.272L144.683 236.72" stroke="black" stroke-width="1.23818" stroke-linecap="round"/>
<path d="M162.724 227.884C162.724 227.884 162.724 234.143 146.34 232.671L150.758 228.437L162.724 227.884Z" fill="#FF0000" stroke="black" stroke-width="1.23818" stroke-linecap="round"/>
<path d="M158.306 241.138L144.315 249.238" stroke="black" stroke-width="1.23818" stroke-linecap="round"/>
<path d="M154.992 238.745L144.315 244.636" stroke="black" stroke-width="1.23818" stroke-linecap="round"/>
<path d="M158.122 245.557L143.947 256.602" stroke="black" stroke-width="1.23818" stroke-linecap="round"/>
<path d="M157.754 251.263L143.947 261.204" stroke="black" stroke-width="1.23818" stroke-linecap="round"/>
<path d="M158.49 256.602L144.867 266.175" stroke="black" stroke-width="1.23818" stroke-linecap="round"/>
<path d="M157.57 262.493L146.708 269.856" stroke="black" stroke-width="1.23818" stroke-linecap="round"/>
<path d="M128.299 266.911C128.299 266.911 125.17 266.911 123.513 263.413" stroke="black" stroke-width="1.23818" stroke-linecap="round"/>
<path d="M124.986 261.756C124.986 261.756 117.438 256.234 121.672 239.85C121.672 239.85 122.225 231.566 129.772 226.411" stroke="black" stroke-width="1.23818" stroke-linecap="round"/>
<path d="M129.772 245.557C129.772 245.557 126.459 241.691 127.931 236.352C127.931 236.352 125.722 238.929 125.722 244.452" stroke="black" stroke-width="1.23818" stroke-linecap="round"/>
<path d="M162.54 220.889C162.54 220.889 141.37 219.048 138.24 219.416" stroke="black" stroke-width="1.23818" stroke-linecap="round"/>
<path d="M154.256 224.755L149.654 221.073L144.315 224.571L148.917 227.884L154.256 224.755Z" fill="#FF0000" stroke="black" stroke-width="1.23818" stroke-linecap="round"/>
<path d="M159.226 219.968L154.992 217.023L152.415 219.6" stroke="black" stroke-width="1.23818" stroke-linecap="round"/>
<path d="M150.39 219.232L148.181 216.287L144.867 218.864" stroke="black" stroke-width="1.23818" stroke-linecap="round"/>
<path d="M159.042 211.316L142.658 211.684" stroke="black" stroke-width="1.23818" stroke-linecap="round"/>
<path d="M143.211 207.634L159.595 207.818" stroke="black" stroke-width="1.23818" stroke-linecap="round"/>
<path d="M150.942 205.793L150.39 29.8042" stroke="black" stroke-width="1.23818" stroke-linecap="round"/>
<path d="M158.581 222.975C157.646 222.975 156.888 223.733 156.888 224.668C156.888 225.602 157.646 226.36 158.581 226.36C159.515 226.36 160.273 225.602 160.273 224.668C160.273 223.733 159.515 222.975 158.581 222.975Z" fill="#FF5555" stroke="black" stroke-width="1.82469" stroke-linecap="round" stroke-linejoin="round"/>
<path d="M140.334 222.922C139.4 222.922 138.642 223.679 138.642 224.614C138.642 225.549 139.4 226.306 140.334 226.306C141.269 226.306 142.027 225.549 142.027 224.614C142.027 223.679 141.269 222.922 140.334 222.922Z" fill="#FF5555" stroke="black" stroke-width="1.82469" stroke-linecap="round" stroke-linejoin="round"/>
<path d="M137.688 284.952C138.056 280.902 141.738 282.006 141.738 282.006C140.817 279.245 132.533 276.484 132.533 276.484C122.409 272.434 119.831 262.493 119.831 262.493C115.965 252.184 119.463 237.273 119.463 237.273C123.145 223.466 138.424 219.416 138.424 219.416C143.947 216.471 142.658 211.5 142.658 211.5L141.186 210.764C140.265 207.45 143.579 207.45 143.579 207.45V38.4563L150.206 29.8041L157.57 37.1677L158.858 207.082C162.356 208.739 158.858 211.684 158.858 211.684C158.122 216.102 163.092 221.257 163.092 221.257C169.535 222.177 170.824 215.182 170.824 215.182C170.456 216.287 168.063 215.918 168.063 215.918C163.645 213.525 166.774 210.027 166.774 210.027C174.69 207.082 175.978 214.63 175.978 214.63C176.163 223.65 167.51 226.596 167.51 226.596C168.247 234.327 159.595 237.457 159.595 237.457C159.779 240.402 158.122 240.954 158.122 240.954V245.373H159.226C161.62 248.686 158.122 251.079 158.122 251.079L158.674 256.418C160.699 260.652 157.201 263.413 157.201 263.413C158.122 270.409 156.097 275.011 156.097 275.011C158.122 277.404 156.107 278.428 156.107 278.428C159.752 284.677 152.983 289.883 152.983 289.883C152.983 289.883 147.629 291.947 144.499 285.872C144.499 285.872 140.265 290.474 137.688 284.952Z" stroke="black" stroke-width="1.17302"/>
<defs>
<linearGradient id="paint0_linear_2689_20584" x1="135.067" y1="148.459" x2="-384.797" y2="148.459" gradientUnits="userSpaceOnUse">
<stop stop-color="white"/>
<stop offset="1" stop-color="#CCCCCC"/>
</linearGradient>
</defs>
</svg>
