<svg width="208" height="319" viewBox="0 0 208 319" fill="none" xmlns="http://www.w3.org/2000/svg">
<path d="M192.5 0.5H15.5C7.21573 0.5 0.5 7.21573 0.5 15.5V303.5C0.5 311.784 7.21573 318.5 15.5 318.5H192.5C200.784 318.5 207.5 311.784 207.5 303.5V15.5C207.5 7.21573 200.784 0.5 192.5 0.5Z" fill="url(#paint0_linear_2689_15642)" stroke="black" stroke-linecap="square"/>
<path d="M15 14.0127H193V303.013H15V14.0127Z" stroke="black"/>
<path d="M21.1695 20.4384C20.8913 20.4384 20.3347 20.6084 19.5 20.9485V20.6239L23.6738 18.5137L23.8595 18.5601V32.4731C23.8593 33.0297 23.9986 33.3929 24.2768 33.563C24.5551 33.733 25.1502 33.8258 26.0623 33.8413V34.1891H19.6622V33.8413C20.528 33.8104 21.1076 33.6867 21.4013 33.4702C21.7105 33.2384 21.8651 32.7592 21.8651 32.0326V21.5282C21.8651 20.8017 21.6333 20.4384 21.1695 20.4384Z" fill="black"/>
<path d="M38.1203 32.2876C37.1618 33.7717 35.8941 34.5137 34.3173 34.5137C32.7406 34.5137 31.4729 33.7562 30.5144 32.2412C29.556 30.7263 29.0767 28.7784 29.0767 26.3977C29.0767 24.1562 29.556 22.2857 30.5144 20.7861C31.4729 19.2712 32.7714 18.5137 34.4101 18.5137C35.9251 18.5137 37.1618 19.2558 38.1203 20.7398C39.0788 22.2239 39.5579 24.1562 39.5579 26.5369C39.5579 28.8866 39.0788 30.8036 38.1203 32.2876ZM34.3406 19.1166C32.3154 19.1166 31.3028 21.6132 31.3028 26.6064C31.3028 31.476 32.3076 33.9108 34.3173 33.9108C36.3269 33.9108 37.3318 31.4683 37.3318 26.5833C37.3318 24.1562 37.0767 22.3089 36.5666 21.0412C36.0565 19.7582 35.3144 19.1166 34.3406 19.1166Z" fill="black"/>
<path d="M186.83 296.588C187.109 296.588 187.665 296.418 188.5 296.078V296.403L184.326 298.513L184.141 298.467V284.554C184.141 283.997 184.001 283.634 183.723 283.464C183.445 283.294 182.85 283.201 181.938 283.186V282.838H188.338V283.186C187.472 283.217 186.892 283.34 186.599 283.557C186.29 283.788 186.135 284.268 186.135 284.994V295.499C186.135 296.225 186.367 296.588 186.83 296.588Z" fill="black"/>
<path d="M169.88 284.739C170.838 283.255 172.106 282.513 173.683 282.513C175.259 282.513 176.527 283.271 177.486 284.786C178.444 286.301 178.923 288.248 178.923 290.629C178.923 292.871 178.444 294.741 177.486 296.241C176.527 297.756 175.229 298.513 173.59 298.513C172.075 298.513 170.838 297.771 169.88 296.287C168.921 294.803 168.442 292.871 168.442 290.49C168.442 288.14 168.921 286.223 169.88 284.739ZM173.659 297.91C175.685 297.91 176.697 295.414 176.697 290.42C176.697 285.551 175.692 283.116 173.683 283.116C171.673 283.116 170.668 285.559 170.668 290.444C170.668 292.871 170.923 294.718 171.433 295.986C171.944 297.269 172.686 297.91 173.659 297.91Z" fill="black"/>
<path d="M74.0956 127.397L90.0317 125.776L80.308 173.044L76.7967 173.855L71.1245 169.803L74.0956 127.397Z" fill="#445500" stroke="black" stroke-width="0.273189"/>
<path d="M97.585 45.7746C97.585 45.7746 109.999 26.962 124.133 43.4827C124.133 43.4827 122.605 48.162 124.897 49.3079C124.897 49.3079 129.003 48.162 129.099 43.8647C129.099 43.8647 129.194 39.8539 127.953 39.4719C127.953 39.4719 125.852 35.8431 123.655 36.3205C123.655 36.3205 118.594 29.4448 105.798 31.8322C105.798 31.8322 105.702 34.8881 103.888 35.3656C103.888 35.3656 104.174 38.135 101.882 38.4214C101.882 38.4214 100.832 39.4719 99.7814 38.3259C99.7814 38.3259 99.6859 40.1404 98.158 39.8539C98.158 39.8539 96.248 39.8539 96.5345 36.7025C96.5345 36.7025 95.5796 37.753 94.4336 36.607C94.4336 36.607 92.0462 41.6683 95.8661 44.7242L97.1075 45.0106L97.585 45.7746Z" fill="#FF2A2A"/>
<path d="M97.585 45.9659C97.585 45.9659 109.331 27.6308 123.751 42.8146L124.324 44.1515L122.7 43.0056C122.7 43.0056 122.223 44.5335 120.886 44.247L119.74 43.483L117.735 43.865L117.448 43.5785L117.544 43.1011V42.8146C117.544 42.8146 116.016 43.1966 114.679 42.6236C114.679 42.6236 112.1 42.7191 111.718 42.0506L109.713 43.1966L107.803 44.7245C107.803 44.7245 106.657 47.4939 105.511 47.3984L103.601 51.5047C103.601 51.5047 103.41 47.4939 100.545 50.9317L99.7814 51.9822C99.7814 51.9822 97.394 50.6452 98.1579 48.1623L97.585 45.9659Z" fill="#FFDD55"/>
<path d="M97.2986 26.2937C97.2986 26.2937 98.2535 23.4288 101.118 24.5748C101.118 24.5748 104.556 24.5748 104.079 28.0126C104.079 28.0126 106.753 28.0126 105.798 31.9279C105.798 31.9279 105.989 33.8378 103.888 35.9388C103.888 35.9388 103.601 37.9442 101.978 38.8991C101.978 38.8991 100.068 39.6631 99.686 38.3261C99.686 38.3261 99.304 39.8541 97.6806 39.7586C97.6806 39.7586 96.1526 39.3766 96.3436 36.9892C96.3436 36.9892 94.9112 37.2757 94.5292 36.6072C94.1472 35.9388 94.1472 35.9388 94.1472 35.9388L93.5743 35.0793C93.5743 35.0793 90.9004 35.5568 90.4229 33.4559C90.4229 33.4559 88.895 31.546 91.7598 29.0631C91.7598 29.0631 93.1923 23.3333 97.2986 26.2937Z" fill="#5599FF"/>
<path d="M106.561 84.2596C106.561 84.2596 109.617 78.2434 116.302 74.9965C116.302 74.9965 121.268 68.6938 119.453 65.5424C119.453 65.5424 124.133 62.0091 123.751 52.8415L123.56 52.173L124.897 49.5947C124.897 49.5947 122.987 47.7802 124.037 44.1514L122.796 43.0054C122.796 43.0054 121.841 44.9154 120.599 44.2469L119.74 43.2919C119.74 43.2919 118.307 44.4379 117.543 43.5784L117.352 42.719C117.352 42.719 116.589 43.5784 114.87 42.6235C114.87 42.6235 112.769 43.1009 111.718 42.146L109.426 43.3874L107.707 44.5334L106.466 47.2073H105.702L103.983 51.1226C103.983 51.1226 102.169 46.5388 99.6858 52.6505C99.6858 52.6505 99.7813 57.4253 102.837 57.6163C102.837 57.6163 103.028 65.1604 105.416 67.1659L106.37 70.8902C106.37 70.8902 109.426 78.3388 102.933 83.6866C102.933 83.6866 103.41 84.5461 106.561 84.2596Z" fill="#FFE6D5"/>
<path d="M102.742 83.4954C104.556 82.4449 105.225 79.1026 105.225 79.1026C105.034 75.4738 102.646 74.1368 102.646 74.1368C101.691 74.7098 100.927 73.5638 100.927 73.5638C98.0623 73.8503 98.6353 72.0359 98.6353 72.0359C96.5344 72.3224 96.3434 70.508 96.3434 70.508C95.0065 71.0809 93.1921 67.9296 93.1921 67.9296C90.2317 65.4467 93.8605 64.4918 93.8605 64.4918C93.6695 62.7728 96.0569 62.1999 96.0569 62.1999C96.1524 58.8575 98.3488 60.9584 98.3488 60.9584C100.068 57.998 102.837 59.717 102.837 59.717C102.837 59.717 103.792 64.7782 105.511 67.3566L105.606 69.4575C105.606 69.4575 110.19 78.2431 102.742 83.4954Z" fill="#FFF6D5"/>
<path d="M106.179 84.4507C106.179 84.4507 111.241 76.6201 116.302 75.2831C116.302 75.2831 120.695 68.5029 119.644 65.3516L122.414 61.2453C122.414 61.2453 125.374 59.9083 125.661 62.9642C125.661 62.9642 128.907 60.9588 128.334 65.9246C128.334 65.9246 130.626 67.2615 128.239 69.8399C128.239 69.8399 128.143 72.2273 125.374 73.0867C125.374 73.0867 121.459 75.5696 121.172 77.8615C121.172 77.8615 119.358 79.1029 118.021 79.1029C118.021 79.1029 115.538 80.0579 115.538 82.3498C115.538 82.3498 115.252 83.4002 112.578 81.3948C112.578 81.3948 110.668 82.0633 110.954 84.3552C110.954 84.3552 110.381 86.1696 106.179 84.4507Z" fill="#FFF6D5"/>
<path d="M105.129 78.1479C105.416 81.5858 102.742 83.8777 102.742 83.8777L101.691 85.5966C100.068 83.1137 92.9056 85.3101 92.9056 85.3101C92.7146 84.8326 90.7092 83.8777 90.7092 83.8777C90.7092 83.8777 93.0966 75.7605 97.2984 71.8452H98.7309C98.7309 71.8452 97.4894 73.3731 101.118 73.3731C101.118 73.3731 100.927 74.6146 102.551 73.9461C102.551 73.9461 104.843 75.3786 105.129 78.1479Z" fill="#2A7FFF"/>
<path d="M100.736 78.9116L102.264 79.6756L102.742 80.4396L102.646 81.872L101.214 82.7314L99.6858 82.063L99.5903 80.4396L100.736 78.9116Z" fill="#D5F6FF"/>
<path d="M96.3436 70.6035L97.1076 72.0359C97.1076 72.0359 91.5688 78.2432 90.7094 83.7819C90.7094 83.7819 87.94 82.636 86.4121 82.9225C86.4121 82.9225 83.1652 79.5801 80.7778 78.6252C80.7778 78.6252 85.0751 71.9405 89.1814 73.4684L92.3328 73.7549C92.3328 73.7549 94.7202 72.7044 95.6752 70.699L96.3436 70.6035Z" fill="#FF2A2A"/>
<path d="M137.98 93.6179C138.935 98.7747 133.3 100.78 133.3 100.78C129.958 102.69 128.43 101.258 128.43 101.258C125.565 102.785 122.318 101.926 122.318 101.926C118.785 104.6 115.347 101.449 115.347 101.449C111.432 102.213 111.527 100.016 111.527 100.016C117.639 89.5116 110.954 84.7368 110.954 84.7368C110.954 84.7368 110.477 81.108 112.96 81.49L114.679 82.5404H115.156C115.156 82.5404 115.92 79.0071 119.549 79.1981L121.745 77.0017C121.745 77.0017 123.655 73.2773 126.616 72.8953L128.048 70.7944L129.289 71.9404C129.289 71.9404 133.587 73.7548 134.351 76.9062C134.351 76.9062 138.266 78.9116 138.553 84.1638C138.553 84.1638 139.603 89.5116 137.884 92.4719L137.98 93.6179Z" fill="#FF2A2A"/>
<path d="M121.841 82.3497C121.841 82.3497 122.032 78.8164 125.47 78.8164C125.47 78.8164 127.762 79.3893 129.003 77.6704C129.003 77.6704 129.289 80.0578 127.284 81.2037L125.183 81.7767L124.324 81.6812L121.841 82.3497Z" fill="#FFD42A"/>
<path d="M121.554 89.4164C121.554 89.4164 123.655 85.2146 126.329 85.4056C126.329 85.4056 129.672 85.5966 130.722 85.1191C130.722 85.1191 131.868 87.0291 128.526 87.8885L126.616 88.4615L124.515 88.175L123.369 88.557L121.554 89.4164Z" fill="#FFD42A"/>
<path d="M121.745 95.2417C121.745 95.2417 123.942 92.9499 126.138 93.2363C126.138 93.2363 129.099 93.8093 130.244 92.5679C130.244 92.5679 129.767 95.3372 127.189 96.1012C127.189 96.1012 125.565 96.8652 124.133 96.2922C124.133 96.2922 122.509 94.8598 121.745 95.2417Z" fill="#FFCC00"/>
<path d="M111.814 99.7296C104.079 102.308 97.6804 100.589 97.6804 100.589C91.6642 102.499 90.9002 98.6792 90.9002 98.6792C82.8786 98.7747 80.7777 93.6179 80.7777 93.6179C79.0587 93.9999 77.0533 93.1404 77.0533 93.1404C76.0029 93.2359 73.138 90.6576 73.138 90.6576L70.6551 91.4215C69.7002 78.7206 77.3398 77.0972 77.3398 77.0972C77.3398 77.0972 76.6713 78.0521 80.0137 78.4341C80.0137 78.4341 85.075 80.2485 85.7434 82.6359C85.7434 82.6359 91.3777 83.3044 92.7146 85.1188C92.7146 85.1188 100.259 83.3044 101.978 85.5963L102.742 86.2648C102.742 86.2648 105.511 84.1638 110.19 85.0233L110.859 84.5458C110.859 84.5458 117.925 88.9386 111.814 99.7296Z" fill="#FFDD55"/>
<path d="M70.3686 88.6522L70.7506 91.0396L69.4137 90.3711C69.4137 90.3711 66.7398 90.1801 68.0767 86.3603C68.0767 86.3603 67.7903 81.0125 73.52 75.5693C73.52 75.5693 77.1488 73.1819 77.9128 76.0468L77.4353 77.1927C77.4353 77.1927 72.1831 75.3783 70.3686 88.6522Z" fill="#FFF6D5"/>
<path d="M57.5722 72.991C57.5722 72.991 65.9758 69.1712 72.6605 76.9063C72.6605 76.9063 68.2677 80.0577 67.8857 86.4559L64.9254 85.0234L62.347 84.4505L61.2965 82.636L59.7686 81.1081V78.1477C59.7686 78.1477 59.2911 75.4739 59.6731 74.9964C60.0551 74.5189 60.2461 74.2324 60.2461 74.2324C57.0947 74.0414 57.5722 72.991 57.5722 72.991Z" fill="#F4E3D7"/>
<path d="M86.6984 104.791L86.7939 98.0107C86.7939 98.0107 81.9237 96.7693 80.3957 93.6179C80.3957 93.6179 78.3903 93.8089 77.0534 93.0449L76.0984 98.1062C76.0984 98.1062 72.5651 102.308 72.7561 109.184C72.7561 109.184 65.4984 112.431 65.5939 114.34C65.5939 114.34 61.2011 113.863 59.7687 120.07L59.0047 129.524L57.0948 133.344L55.9488 135.731C55.9488 135.731 51.6515 138.119 52.702 141.748C52.702 141.748 54.5164 150.533 57.7633 152.634C57.7633 152.634 55.0894 154.449 56.6173 157.695L59.4822 163.043L61.1056 165.144V167.15C61.1056 167.15 61.4876 170.11 63.9705 168.2C63.9705 168.2 65.3074 166.672 67.5993 167.436C67.5993 167.436 70.6552 169.155 72.1831 167.245L73.1381 165.813L74.1885 145.281L75.1435 129.142L76.0984 121.885L76.1939 120.834C76.1939 120.834 76.6714 115.295 78.3903 116.346C78.3903 116.346 79.7273 110.425 82.3056 108.993C82.3056 108.993 82.7831 104.982 86.6984 104.791Z" fill="#FF2A2A"/>
<path d="M78.3904 116.537C78.3904 116.537 79.2498 111.38 82.4012 108.706C82.4012 108.706 82.7832 105.364 84.8841 105.173L89.9454 103.263C89.9454 103.263 91.0913 104.696 88.6084 105.651L86.412 107.656C86.412 107.656 86.985 108.42 88.7994 107.656L90.3273 106.606C90.3273 106.606 91.5688 108.897 88.7994 110.043C88.7994 110.043 90.1363 111.38 87.9399 112.622L88.4174 114.054C88.4174 114.054 91.6643 111.953 92.6192 113.099C92.6192 113.099 92.8102 115.2 89.6589 115.964L87.4625 117.683L87.176 118.924C87.176 118.924 87.2715 122.458 85.5526 122.935L83.2607 122.362C83.2607 122.362 79.6318 124.177 78.3904 116.537Z" fill="#FFE6D5"/>
<path d="M87.176 121.694C85.7436 123.795 83.2607 122.362 83.2607 122.362C79.8229 123.89 78.2949 116.442 78.2949 116.442C78.2949 116.442 76.4805 115.582 76.385 121.025C76.385 121.025 80.7778 127.137 86.4121 126.469C89.6589 123.89 87.176 121.694 87.176 121.694Z" fill="#FFF6D5"/>
<path d="M133.778 101.353C132.441 105.459 128.526 111.571 128.526 111.571C125.852 117.014 118.117 125.895 118.117 125.895C99.1129 136.114 87.6534 125.036 87.6534 125.036C88.9903 123.317 87.0804 121.598 87.0804 121.598L87.3669 119.02C87.1759 117.11 89.9453 115.677 89.9453 115.677C92.9056 114.627 92.2372 113.386 92.2372 113.386C92.1417 111.667 88.1309 113.863 88.1309 113.863L87.5579 112.622C90.5183 110.998 88.5128 110.139 88.5128 110.139C92.0462 108.229 90.0408 106.892 90.0408 106.892C88.2264 107.847 86.2209 107.847 86.2209 107.847C86.2209 107.083 90.0408 104.886 90.0408 104.886C90.9002 103.836 90.1363 103.358 90.1363 103.358L86.5074 104.504L86.7939 98.0107L90.9957 98.5837C90.9957 98.5837 92.1417 102.786 97.3939 100.685C97.3939 100.685 103.983 102.499 111.336 99.7297C111.336 99.7297 112.482 102.499 115.443 101.353C115.443 101.353 118.594 104.6 122.318 101.831C122.318 101.831 124.706 103.168 128.43 101.258C128.43 101.258 130.626 102.69 133.3 100.78L133.778 101.353Z" fill="#5599FF"/>
<path d="M113.724 136.687C94.147 142.608 84.693 133.344 84.693 133.344V129.907C81.2551 132.676 75.5254 131.148 75.5254 131.148L76.0984 120.644C76.0984 120.644 79.1542 126.946 86.5074 126.373L87.8443 125.036C87.8443 125.036 97.5849 135.827 117.448 126.087C117.448 126.087 116.875 128.856 117.734 130.098C117.734 130.098 114.87 130.098 115.634 135.445C115.634 135.445 113.819 135.636 113.724 136.687Z" fill="#FFD42A"/>
<path d="M112.005 140.125C96.1525 146.523 84.2156 139.552 84.2156 139.552L84.5976 133.153C84.5976 133.153 93.4787 141.461 113.246 136.591L112.005 140.125Z" fill="#AAEEFF"/>
<path d="M140.08 158.46C133.778 163.903 132.059 154.735 132.059 154.735C127.857 158.269 128.907 153.589 128.907 153.589C130.531 151.393 129.289 141.557 129.289 141.557C127.38 139.838 126.425 133.631 126.425 133.631L125.374 134.013C119.931 141.843 115.634 135.254 115.634 135.254C115.634 135.254 114.583 130.67 117.83 130.384C117.83 130.384 115.92 126.851 118.594 125.514C118.594 125.514 121.363 124.081 123.369 125.8L124.897 127.71C124.897 127.71 127.571 129.524 126.52 132.007C126.52 132.007 129.576 129.524 128.716 134.777C128.716 134.777 130.435 139.552 135.497 137.642C135.497 137.642 137.12 140.22 141.417 140.029C141.417 140.029 139.794 139.838 141.895 142.989C142.086 143.467 144.473 146.523 144.473 146.523C144.473 146.523 148.866 148.528 147.911 151.297C147.911 151.297 148.293 155.404 143.614 156.645L141.226 156.55L140.08 158.46Z" fill="#AAD400"/>
<path d="M141.322 139.647C138.266 140.984 135.497 137.642 135.497 137.642C130.817 140.125 128.716 134.108 128.716 134.108C129.385 130.002 126.711 131.912 126.711 131.912C127.189 128.57 124.515 127.424 124.515 127.424L123.273 125.132C123.273 125.132 126.902 118.829 131.295 125.132L131.677 126.087H133.969L135.019 127.137C135.019 127.137 136.929 124.75 139.507 126.087C139.507 126.087 142.563 128.283 142.659 128.952L142.277 133.344C142.277 133.344 145.428 136.687 141.322 139.647Z" fill="#FFD42A"/>
<path d="M123.655 154.449C114.774 157.123 113.915 151.871 113.915 151.871L111.623 151.489C107.039 149.292 111.527 143.658 111.527 143.658C112.673 134.299 115.634 135.35 115.634 135.35C115.634 135.35 120.026 141.748 125.088 134.49L125.852 133.822L126.234 133.631C126.234 133.631 126.998 140.029 129.194 141.748C129.194 141.748 131.486 154.449 127.475 154.735L124.61 153.589L123.655 154.449Z" fill="#FF2A2A"/>
<path d="M80.7131 143.603C84.3595 134.554 81.5234 132.394 81.5234 132.394C77.742 137.12 74.9059 133.879 74.9059 133.879L73.0152 166.021C73.0152 166.021 71.6647 169.668 67.4781 167.372C67.4781 167.372 65.4523 166.426 61.8059 169.398C61.8059 169.398 70.8543 175.88 79.4976 173.584C79.4976 173.584 75.4461 171.018 75.7162 160.079L75.9863 155.217C75.9863 155.217 80.7131 145.899 80.7131 143.603Z" fill="#AAD400"/>
<path d="M123.254 179.121C117.447 180.067 123.254 175.07 123.254 175.07L122.174 175.61C113.395 181.417 110.694 178.176 110.694 178.176C108.128 179.797 106.103 179.121 106.103 179.121C101.106 181.822 97.1893 177.636 97.1893 177.636C95.0285 180.202 90.0316 178.041 90.0316 178.041L87.7357 178.446C78.1471 176.69 77.6069 168.722 77.6069 168.722C74.5007 160.349 80.3079 151.301 80.3079 151.301L83.5491 142.657L84.2244 138.876C84.2244 138.876 91.112 146.439 112.315 140.091L111.37 144.008C111.37 144.008 107.453 149.14 111.235 151.166L113.936 151.571C113.936 151.571 115.421 157.918 124.605 153.597L127.711 154.542L128.926 154.002C128.926 154.002 127.846 157.378 131.087 155.352C131.087 155.352 130.817 164.401 133.248 168.452C133.248 168.452 130.007 168.722 131.222 172.099L131.897 174.394C131.897 174.394 127.576 176.825 125.955 176.015C125.955 176.015 124.2 178.581 123.254 179.121Z" fill="#FFD42A"/>
<path d="M136.084 177.366C126.225 171.018 132.978 168.452 132.978 168.452C132.033 166.021 130.952 155.217 130.952 155.217L131.897 154.812C131.897 154.812 133.653 163.185 140.136 158.728L139.865 160.889L140.541 163.725L140.136 166.697L140.001 169.803C140.001 169.803 141.486 173.719 139.865 174.935L139.325 178.446L136.084 177.366Z" fill="#2A7FFF"/>
<path d="M139.595 178.176C136.624 178.446 132.168 174.26 132.168 174.26L129.872 175.745C129.872 175.745 128.386 179.797 130.277 180.877C130.277 180.877 128.386 184.794 130.277 186.414L131.897 186.684C131.897 186.684 133.248 188.305 134.463 188.035C134.463 188.035 135.544 190.061 136.624 188.98L138.38 191.006H138.65C138.65 191.006 140.541 189.386 140.136 186.009L139.325 184.389L139.595 178.176Z" fill="#FFDD55"/>
<path d="M122.849 181.282C110.289 178.176 100.296 182.633 100.296 182.633C96.2441 182.768 92.5977 180.067 92.5977 180.067L88.0059 180.742L87.7358 178.716L89.8967 177.906L92.1925 178.716C92.1925 178.716 92.7327 180.202 97.1894 177.906C97.1894 177.906 101.646 181.958 106.238 179.121C106.238 179.121 108.264 179.932 110.965 178.176C110.965 178.176 114.476 180.877 121.634 175.745L122.984 174.8L120.553 178.446C120.553 178.446 120.553 179.392 122.984 179.121L122.849 181.282Z" fill="#550000"/>
<path d="M119.203 205.727C121.228 201.405 119.068 195.328 119.068 195.328C120.553 192.897 123.119 181.552 123.119 181.552C108.804 177.906 100.16 182.768 100.16 182.768C96.2439 182.768 92.4625 180.337 92.4625 180.337L88.1409 180.472C88.1409 180.472 90.4367 194.247 94.4883 201.27C94.4883 201.27 93.5429 211.399 99.2151 217.206L103.402 228.82L104.212 235.438L104.887 247.052L103.672 253.4L100.566 266.905L98.4048 272.172C98.4048 272.172 102.997 267.175 105.427 271.767C105.427 271.767 109.344 270.551 110.154 263.258C110.154 263.258 110.424 256.776 113.531 255.425C113.531 255.425 113.666 260.017 112.45 261.638C112.45 261.638 114.611 263.258 114.746 266.094C114.746 266.094 119.743 264.204 122.714 264.744C122.714 264.744 119.338 258.667 120.958 252.049C120.958 252.049 122.714 235.978 121.769 230.711C121.769 230.711 124.605 216.125 119.203 205.727Z" fill="#FF2A2A"/>
<path d="M97.1895 273.927L98.9451 271.496C98.9451 271.496 104.482 266.5 106.913 275.008L106.103 275.413C106.103 275.413 100.701 270.956 98.54 274.062L97.1895 273.927Z" fill="#FFD42A"/>
<path d="M112.585 261.368C114.746 258.532 113.53 255.561 113.53 255.561C113.53 255.561 109.884 257.451 110.154 263.664L112.18 266.23C112.18 266.23 113.666 265.014 114.611 265.284C114.611 263.258 112.585 261.368 112.585 261.368Z" fill="#FFD42A"/>
<path d="M100.161 267.58C100.161 267.58 95.8389 268.931 94.3534 268.796C94.3534 268.796 90.5719 269.066 92.0575 271.767L94.6235 273.117L97.4595 273.522L98.2699 271.902L100.161 267.58Z" fill="#5599FF"/>
<path d="M107.858 279.06C109.479 277.439 108.939 274.738 108.939 274.738L112.18 272.982C115.961 275.818 122.714 273.522 122.714 273.522C127.171 271.902 123.794 265.824 123.794 265.824C122.174 263.394 114.746 265.689 114.746 265.689C114.206 264.474 112.18 266.365 112.18 266.365C111.64 264.609 110.154 264.069 110.154 264.069C110.154 264.069 108.669 271.227 105.833 271.767L106.778 275.413L105.427 275.548C105.427 275.548 102.051 270.146 96.3791 275.548L95.7038 276.764C95.7038 276.764 90.4368 281.085 91.2471 283.921C91.2471 283.921 92.7327 288.378 97.9997 287.298C97.9997 287.298 105.833 288.378 107.858 279.06Z" fill="#2A7FFF"/>
<path d="M117.582 126.046C117.582 126.046 132.033 110.515 133.383 100.927C133.383 100.927 138.171 99.0612 138.171 94.4774L137.789 92.472C137.789 92.472 139.794 89.7026 138.457 84.4503C138.457 84.4503 138.744 80.153 134.542 77.0017C134.542 77.0017 132.441 72.7999 128.526 71.6539C128.526 71.6539 127.571 70.6035 128.526 69.553C128.526 69.553 129.958 68.2161 128.526 65.8287C128.526 65.8287 129.003 63.2503 127.093 62.5818L125.947 62.7728C125.947 62.7728 125.279 60.0989 122.318 61.1494C122.318 61.1494 124.037 57.4251 123.751 51.6953C123.751 51.6953 124.706 50.6449 124.706 49.3079C124.706 49.3079 128.717 48.735 128.908 44.8196C128.908 44.8196 129.672 40.3313 127.666 39.3764C127.666 39.3764 126.234 35.9385 123.655 36.225C123.655 36.225 118.785 29.9223 105.798 31.7367C105.798 31.7367 107.135 28.2989 103.888 28.2034C103.888 28.2034 105.32 24.9565 101.214 24.861C101.214 24.861 98.6355 23.0466 97.2031 26.198C97.2031 26.198 93.8607 24.0016 92.2373 28.0124L92.1418 28.9674C92.1418 28.9674 88.9904 30.4953 90.5184 33.4557C90.5184 33.4557 90.9003 35.4611 93.7652 34.9836L94.6247 36.607C94.6247 36.607 91.2823 41.1908 95.9616 44.9151L97.2031 45.1061L97.967 46.2521C97.967 46.2521 96.9166 46.6341 97.967 48.162C97.967 48.162 97.2986 50.2629 99.7814 51.5998C99.7814 51.5998 99.113 57.3296 102.742 57.6161L102.837 59.908C102.837 59.908 99.8769 58.2845 98.54 60.7674C98.54 60.7674 96.4391 59.2395 96.0571 62.1998C96.0571 62.1998 93.7652 62.8683 94.1472 64.3962C94.1472 64.3962 89.5634 65.7332 93.6697 68.2161C93.6697 68.2161 93.8607 70.0305 95.5796 70.6035C95.5796 70.6035 94.7202 73.0863 92.4283 73.7548C92.4283 73.7548 90.7093 73.3728 89.3724 73.6593C89.3724 73.6593 86.1255 71.1764 80.6823 78.7206C80.6823 78.7206 77.9129 78.4341 77.5309 77.4792C77.5309 77.4792 79.0589 73.4683 74.5706 74.9963C74.5706 74.9963 73.1381 75.7602 72.6607 76.7152C72.6607 76.7152 69.3183 72.5134 62.9201 72.0359C62.9201 72.0359 58.6228 71.5584 57.4769 73.2773C57.4769 73.2773 56.9039 74.2323 59.6733 74.5188C59.6733 74.5188 58.8138 76.2377 59.7688 77.8611C59.7688 77.8611 59.0048 80.917 61.0102 82.4449C61.0102 82.4449 61.2967 84.6413 65.4985 85.5008L67.8859 86.3602C67.8859 86.3602 66.4534 89.7026 69.3183 90.3711C69.3183 90.3711 71.6102 92.281 73.4246 90.5621C73.7111 91.135 75.43 92.3765 77.2445 92.9494C77.2445 92.9494 76.194 94.8594 76.194 98.0107C76.194 98.0107 72.5652 102.117 72.7562 109.375C72.7562 109.375 65.976 112.335 65.4985 114.149C65.4985 114.149 58.7183 113.767 59.3868 126.182L58.9093 130.002C58.9093 130.002 56.2354 133.631 56.2354 135.445C56.2354 135.445 52.2246 137.641 52.7021 140.697C52.7021 140.697 53.275 148.432 57.9543 152.73C57.9543 152.73 54.7075 154.258 57.1904 158.65C57.1904 158.65 59.0048 162.948 60.6282 164.667L61.2012 166.195C61.2012 166.195 60.3417 168.773 64.639 170.874C64.639 170.874 70.5598 174.98 79.5364 173.834C79.5364 173.834 83.4517 178.036 87.8445 178.609C87.8445 178.609 89.1814 191.596 94.3382 201.051C94.3382 201.051 93.0967 212.128 99.3995 216.998C99.3995 216.998 102.551 226.93 103.888 229.126C103.888 229.126 104.27 242.878 104.843 245.838C104.843 245.838 102.646 262.359 99.9724 267.611C99.9724 267.611 97.585 268.852 94.7202 268.661C94.7202 268.661 89.7544 268.757 92.6193 272.386L97.394 273.627C97.394 273.627 96.1526 275.728 96.0571 276.683C96.0571 276.683 90.8048 280.216 91.2823 283.559C91.2823 283.559 90.9958 288.047 98.54 287.57C98.54 287.57 106.944 287.474 107.708 279.166C107.708 279.166 109.999 277.256 108.758 274.582L112.196 272.959C112.196 272.959 118.308 275.442 123.082 273.532C123.082 273.532 125.852 272.481 124.801 268.375C124.801 268.375 124.133 265.319 122.796 264.937C122.796 264.937 119.836 259.876 120.886 252.141C120.886 252.141 122.796 234.569 121.745 230.463C121.745 230.463 124.324 217.667 119.454 205.921C119.454 205.921 120.695 198.281 119.263 194.652C119.263 194.652 122.987 185.771 123.178 179.087C123.178 179.087 125.279 177.368 125.947 176.031C125.947 176.031 127.857 176.699 129.576 175.744C129.576 175.744 128.526 179.946 130.149 180.901C130.149 180.901 129.481 184.721 130.054 185.676C130.054 185.676 130.245 186.822 131.772 186.44C131.772 186.44 132.25 188.445 134.255 188.159C134.255 188.159 135.688 189.782 136.738 189.4C136.738 189.4 137.598 191.692 139.03 190.928C139.03 190.928 140.654 188.254 139.508 184.721C139.508 184.721 139.699 180.71 139.412 178.227C139.412 178.227 139.126 176.031 140.367 174.503C140.367 174.503 140.845 173.261 139.89 169.155C139.89 169.155 141.227 165.049 139.603 160.847C139.603 160.847 139.699 157.6 141.513 156.359C141.513 156.359 144.951 157.6 147.243 154.067C147.243 154.067 148.675 152.73 147.816 149.674C147.816 149.674 148.102 148.528 144.569 146.427C144.569 146.427 141.991 143.371 140.749 140.029C140.749 140.029 143.423 139.456 143.327 135.445C143.327 135.445 143.327 134.49 142.372 133.344C142.372 133.344 143.232 129.333 142.086 128.378C142.086 128.378 139.412 123.986 135.879 126.373L135.019 127.041C135.019 127.041 134.542 125.704 131.677 125.8C131.677 125.8 130.531 122.267 127.093 122.267C127.093 122.267 124.133 122.458 123.369 125.609C123.369 125.609 121.059 123.618 117.582 126.046Z" stroke="black" stroke-linecap="round"/>
<path d="M109.904 48.3321L112.673 46.9951C112.673 46.9951 116.016 47.9501 116.875 47.8546L117.734 49.669C116.97 49.669 115.825 48.4275 115.825 48.4275L112.769 47.9501L109.904 48.3321Z" fill="black"/>
<path d="M124.61 49.2871C124.61 49.2871 120.313 45.6583 119.74 53.1069C119.74 53.1069 120.122 57.0223 120.026 58.0727C120.026 58.0727 117.066 57.5952 116.684 57.9772L115.92 58.7412L117.639 58.4547L118.499 59.6961L120.599 58.6457C120.599 58.6457 120.695 55.8763 120.313 54.2529C120.313 54.2529 119.835 46.6132 124.61 50.3376V49.2871Z" fill="black"/>
<path d="M114.87 60.6507L117.257 60.5552C117.257 60.5552 117.257 61.3191 118.976 60.8417L119.931 61.7011L118.976 62.2741C118.976 62.2741 116.111 61.8921 116.111 61.5101L114.679 61.7011L113.915 61.1282L114.87 60.6507Z" fill="black"/>
<path d="M118.212 63.2291C116.016 65.0435 115.252 63.2291 115.252 63.2291L116.016 63.0381C116.016 63.0381 116.302 63.7066 117.639 63.0381L118.212 63.2291Z" fill="black"/>
<path d="M124.133 44.5332C124.133 44.5332 122.891 47.3026 124.61 49.308" stroke="black" stroke-width="0.437103" stroke-linecap="round"/>
<path d="M99.7554 46.5011C99.7554 46.5011 109.074 32.0506 124.2 43.8" stroke="black" stroke-width="0.655654" stroke-linecap="round"/>
<path d="M98.675 44.4751C98.675 44.4751 109.884 28.269 123.66 42.5844" stroke="black" stroke-width="0.655654" stroke-linecap="round"/>
<path d="M100.566 30.97C100.566 30.97 102.591 29.8896 103.807 34.7514" stroke="black" stroke-width="0.655654" stroke-linecap="round"/>
<path d="M96.5141 27.999C96.5141 27.999 94.3533 28.2691 94.7585 31.1052C94.7585 31.1052 92.4626 31.5104 93.543 34.3464" stroke="black" stroke-width="0.655654" stroke-linecap="round"/>
<path d="M98.4049 35.0215C98.4049 35.0215 95.5688 35.9668 96.7843 39.073C96.7843 39.073 98.2698 40.9637 99.8904 38.3978C99.8904 38.3978 102.321 40.5586 104.077 35.9668" stroke="black" stroke-width="0.655654" stroke-linecap="round"/>
<path d="M123.929 37.1826C123.929 37.1826 124.335 38.5331 123.929 39.4785" stroke="black" stroke-width="0.655654" stroke-linecap="round"/>
<path d="M126.496 40.0186C126.496 40.0186 126.361 41.9093 125.82 42.4495" stroke="black" stroke-width="0.655654" stroke-linecap="round"/>
<path d="M101.646 51.3628C101.646 51.3628 100.971 52.8484 101.781 53.7937" stroke="black" stroke-width="0.655654" stroke-linecap="round"/>
<path d="M100.701 50.9576C100.701 50.9576 102.456 47.8514 103.807 50.9576L105.563 47.0411C105.563 47.0411 106.643 47.7164 107.723 44.4751C107.723 44.4751 108.534 44.4751 110.154 42.7195C110.154 42.7195 110.694 42.9896 111.91 41.9092C111.91 41.9092 113.26 42.9896 115.016 42.4494C115.016 42.4494 116.232 43.9349 118.257 42.1793C118.257 42.1793 115.691 44.7453 119.878 43.3947C119.878 43.3947 120.418 45.4205 122.579 43.5298" stroke="black" stroke-width="0.655654" stroke-linecap="round"/>
<path d="M103.672 43.9351C103.672 43.9351 103.402 47.0412 104.482 47.7165" stroke="black" stroke-width="0.655654" stroke-linecap="round"/>
<path d="M105.697 42.9897C105.697 42.9897 105.562 44.8805 105.697 45.9609" stroke="black" stroke-width="0.655654" stroke-linecap="round"/>
<path d="M108.129 40.8291C108.129 40.8291 107.588 43.26 107.588 43.9353" stroke="black" stroke-width="0.655654" stroke-linecap="round"/>
<path d="M102.591 45.5557C102.591 45.5557 102.456 48.1216 103.807 49.3371" stroke="black" stroke-width="0.655654" stroke-linecap="round"/>
<path d="M102.646 57.6162C102.646 57.6162 102.933 64.4919 105.989 67.9297C105.989 67.9297 109.235 72.1315 108.567 76.7153" stroke="black" stroke-width="0.655654" stroke-linecap="round"/>
<path d="M105.32 63.1548C105.32 63.1548 109.044 68.598 111.432 69.2665" stroke="black" stroke-width="0.655654" stroke-linecap="round"/>
<path d="M111.145 67.2613C111.145 67.2613 117.066 72.5135 122.605 60.7676" stroke="black" stroke-width="0.655654" stroke-linecap="round"/>
<path d="M119.74 66.3062C119.74 66.3062 119.931 69.744 117.066 72.8954" stroke="black" stroke-width="0.655654" stroke-linecap="round"/>
<path d="M121.268 64.874C121.268 64.874 122.7 67.3569 120.218 70.9857" stroke="black" stroke-width="0.655654" stroke-linecap="round"/>
<path d="M122.509 63.0596C122.509 63.0596 127.284 64.492 123.942 71.4632" stroke="black" stroke-width="0.655654" stroke-linecap="round"/>
<path d="M102.455 61.9136C102.455 61.9136 95.102 63.537 95.9615 66.1154C95.9615 66.1154 103.315 69.5532 105.034 75.092" stroke="black" stroke-width="0.655654" stroke-linecap="round"/>
<path d="M105.129 67.9297C105.129 67.9297 107.898 74.3279 106.943 78.0522C106.943 78.0522 106.657 80.4396 102.837 83.782" stroke="black" stroke-width="0.655654" stroke-linecap="round"/>
<path d="M108.471 79.1025L103.983 84.6413" stroke="black" stroke-width="0.655654" stroke-linecap="round"/>
<path d="M106.275 84.3551C106.275 84.3551 112.196 74.1371 121.841 73.8506" stroke="black" stroke-width="0.655654" stroke-linecap="round"/>
<path d="M95.7705 70.6991L96.3435 70.4126C96.3435 70.4126 95.7705 72.036 98.5399 71.9405C98.5399 71.9405 97.6804 73.6595 101.023 73.4685C101.023 73.4685 101.023 74.9009 102.646 73.9459C102.646 73.9459 105.034 75.3784 105.225 79.2937" stroke="black" stroke-width="0.655654" stroke-linecap="round"/>
<path d="M96.1526 72.8955C96.1526 72.8955 92.1418 78.2433 90.9958 82.8271" stroke="black" stroke-width="0.655654" stroke-linecap="round"/>
<path d="M92.4282 74.9009C92.4282 74.9009 90.5183 77.5748 90.5183 81.2036" stroke="black" stroke-width="0.655654" stroke-linecap="round"/>
<path d="M85.5525 76.62C85.5525 76.62 86.7939 73.8506 89.8498 73.8506" stroke="black" stroke-width="0.655654" stroke-linecap="round"/>
<path d="M84.7886 80.7264C84.7886 80.7264 86.412 77.0976 88.8949 75.9517" stroke="black" stroke-width="0.655654" stroke-linecap="round"/>
<path d="M90.2318 77.0972C90.2318 77.0972 86.7939 79.5801 86.2209 81.9674" stroke="black" stroke-width="0.655654" stroke-linecap="round"/>
<path d="M100.736 79.1982C100.736 79.1982 102.646 79.1982 102.551 81.2036C102.551 81.2036 102.169 83.1136 100.45 82.6361C98.0624 80.7262 100.736 79.1982 100.736 79.1982Z" stroke="black" stroke-width="0.655654" stroke-linecap="round"/>
<path d="M121.936 74.519C121.936 74.519 119.358 75.7605 118.212 77.4794C118.212 77.4794 113.915 78.7208 113.246 80.8218" stroke="black" stroke-width="0.655654" stroke-linecap="round"/>
<path d="M115.252 101.353C122.223 88.366 112.578 81.2993 112.578 81.2993C112.578 81.2993 110.763 81.5858 110.859 84.3552C110.859 84.3552 117.735 89.7984 111.718 99.8255C111.718 99.8255 111.814 101.544 113.342 101.64" stroke="black" stroke-width="0.655654" stroke-linecap="round"/>
<path d="M115.252 82.4453C115.252 82.4453 115.825 79.0074 119.549 78.9119C119.549 78.9119 121.172 78.0525 122.032 76.0471C122.032 76.0471 124.706 73.0867 126.425 72.9912C126.425 72.9912 131.486 74.7101 131.772 77.6705C131.772 77.6705 136.261 79.9624 135.974 84.3552C135.974 84.3552 136.738 89.321 135.401 91.1354C135.401 91.1354 134.542 93.1408 133.3 93.9048C133.3 93.9048 133.3 97.7246 128.908 101.353" stroke="black" stroke-width="0.655654" stroke-linecap="round"/>
<path d="M129.098 77.5747C128.143 79.0071 125.852 79.0071 125.852 79.0071C121.841 78.4342 122.032 82.5405 122.032 82.5405C122.032 82.5405 123.464 81.5855 124.897 81.7765C129.289 81.49 129.098 77.5747 129.098 77.5747Z" stroke="black" stroke-width="0.655654" stroke-linecap="round"/>
<path d="M121.745 89.2255C121.745 89.2255 123.655 85.0237 126.329 85.4057C126.329 85.4057 129.099 85.6922 131.104 84.9282C130.913 89.0345 123.942 88.3661 123.942 88.3661L121.745 89.2255Z" stroke="black" stroke-width="0.655654" stroke-linecap="round"/>
<path d="M130.244 92.6631C127.857 94 126.234 93.1406 126.234 93.1406C122.891 93.0451 121.745 95.2415 121.745 95.2415C121.745 95.2415 123.751 95.528 124.133 96.1964C124.133 96.1964 128.526 98.1063 130.244 92.6631Z" stroke="black" stroke-width="0.655654" stroke-linecap="round"/>
<path d="M118.308 98.3931C118.308 98.3931 121.554 104.218 127.571 101.449" stroke="black" stroke-width="0.655654" stroke-linecap="round"/>
<path d="M76.3848 77.002C76.3848 77.002 71.1326 78.9119 70.4641 89.4164" stroke="black" stroke-width="0.655654" stroke-linecap="round"/>
<path d="M71.7056 77.5747C71.7056 77.5747 68.7452 80.5351 68.1722 85.4054C68.1722 85.4054 67.5038 83.018 68.3632 80.8216" stroke="black" stroke-width="0.655654" stroke-linecap="round"/>
<path d="M62.6335 83.4957C61.6786 76.7155 64.5434 74.9011 64.5434 74.9011C64.5434 74.9011 61.965 74.2326 60.8191 74.5191" stroke="black" stroke-width="0.655654" stroke-linecap="round"/>
<path d="M79.6318 91.1353C79.6318 91.1353 81.1598 99.9209 93.0012 98.2974" stroke="black" stroke-width="0.655654" stroke-linecap="round"/>
<path d="M94.2426 88.2705C94.2426 88.2705 91.6642 89.321 92.0462 93.7138" stroke="black" stroke-width="0.655654" stroke-linecap="round"/>
<path d="M95.3886 88.2705C95.3886 88.2705 93.1922 89.8939 93.4787 92.3768" stroke="black" stroke-width="0.655654" stroke-linecap="round"/>
<path d="M80.1094 78.5298L83.4517 80.3442" stroke="black" stroke-width="0.655654" stroke-linecap="round"/>
<path d="M78.7722 81.5856C78.7722 81.5856 81.4461 79.2937 86.2209 82.9225C86.2209 82.9225 91.0912 83.018 93.0011 85.3099C93.0011 85.3099 99.9723 83.3045 101.978 85.5964C101.978 85.5964 99.3993 87.9838 97.7759 88.2702" stroke="black" stroke-width="0.655654" stroke-linecap="round"/>
<path d="M91.4733 87.5063C91.4733 87.5063 89.8499 89.6072 89.7544 90.9442" stroke="black" stroke-width="0.655654" stroke-linecap="round"/>
<path d="M90.1362 87.2197C90.1362 87.2197 88.3218 89.5116 88.3218 90.6576" stroke="black" stroke-width="0.655654" stroke-linecap="round"/>
<path d="M88.1308 87.2197C88.1308 87.2197 87.0804 88.6522 86.9849 89.2251" stroke="black" stroke-width="0.655654" stroke-linecap="round"/>
<path d="M86.9851 86.4561C86.9851 86.4561 85.9346 87.602 85.8391 88.366" stroke="black" stroke-width="0.655654" stroke-linecap="round"/>
<path d="M85.3614 86.0737C85.3614 86.0737 84.502 86.9332 84.502 87.6017" stroke="black" stroke-width="0.655654" stroke-linecap="round"/>
<path d="M102.646 85.9784C102.646 85.9784 105.225 84.7369 110.19 85.0234" stroke="black" stroke-width="0.655654" stroke-linecap="round"/>
<path d="M91.0913 99.5391C91.0913 99.5391 94.0517 102.786 97.585 100.494C97.585 100.494 104.174 102.117 110.381 99.921" stroke="black" stroke-width="0.655654" stroke-linecap="round"/>
<path d="M130.435 102.022C130.435 102.022 127.189 113.004 119.453 120.835" stroke="black" stroke-width="0.655654" stroke-linecap="round"/>
<path d="M125.47 108.324C125.47 108.324 125.088 111.571 120.122 117.205" stroke="black" stroke-width="0.655654" stroke-linecap="round"/>
<path d="M121.745 103.55C121.745 103.55 119.931 113.672 110.286 128.379" stroke="black" stroke-width="0.655654" stroke-linecap="round"/>
<path d="M108.185 103.836C108.185 103.836 104.652 121.407 106.084 129.811" stroke="black" stroke-width="0.655654" stroke-linecap="round"/>
<path d="M98.2535 105.65C98.2535 105.65 97.8715 123.604 99.4949 130.002" stroke="black" stroke-width="0.655654" stroke-linecap="round"/>
<path d="M93.0967 108.324C93.0967 108.324 93.0967 122.076 95.0066 128.856" stroke="black" stroke-width="0.655654" stroke-linecap="round"/>
<path d="M88.6083 99.6343C88.6083 99.6343 88.4173 100.971 88.6083 102.977" stroke="black" stroke-width="0.655654" stroke-linecap="round"/>
<path d="M86.7938 98.8706C86.7938 98.8706 86.5073 101.544 86.7938 103.454" stroke="black" stroke-width="0.655654" stroke-linecap="round"/>
<path d="M91.2822 116.633C91.2822 116.633 91.4732 124.081 92.4282 127.615" stroke="black" stroke-width="0.655654" stroke-linecap="round"/>
<path d="M90.0408 118.065C90.0408 118.065 90.2318 123.604 91.1867 127.424" stroke="black" stroke-width="0.655654" stroke-linecap="round"/>
<path d="M88.704 120.261C88.704 120.261 88.322 123.222 89.3724 125.895" stroke="black" stroke-width="0.655654" stroke-linecap="round"/>
<path d="M87.6533 126.755C87.6533 126.755 98.0623 136.304 116.589 127.232" stroke="black" stroke-width="0.655654" stroke-linecap="round"/>
<path d="M86.3164 127.71C86.3164 127.71 89.5633 131.148 96.6299 131.912" stroke="black" stroke-width="0.655654" stroke-linecap="round"/>
<path d="M89.2769 132.771C89.2769 132.771 100.45 137.832 115.061 131.721" stroke="black" stroke-width="0.655654" stroke-linecap="round"/>
<path d="M95.866 136.209C95.866 136.209 103.792 138.024 114.488 134.013" stroke="black" stroke-width="0.655654" stroke-linecap="round"/>
<path d="M84.6931 133.153C84.6931 133.153 93.0967 142.034 113.151 136.687" stroke="black" stroke-width="0.655654" stroke-linecap="round"/>
<path d="M83.8335 136.496C83.8335 136.496 91.1867 143.753 104.652 140.697" stroke="black" stroke-width="0.655654" stroke-linecap="round"/>
<path d="M84.2156 138.979C84.2156 138.979 92.7147 147 111.527 140.22" stroke="black" stroke-width="0.655654" stroke-linecap="round"/>
<path d="M111.909 151.489C111.909 151.489 106.275 150.629 111.527 143.562" stroke="black" stroke-width="0.655654" stroke-linecap="round"/>
<path d="M111.814 142.034C111.814 142.034 112.96 134.968 115.443 135.35C115.443 135.35 115.061 130.67 117.639 130.193C117.639 130.193 116.302 127.71 118.307 125.514" stroke="black" stroke-width="0.655654" stroke-linecap="round"/>
<path d="M115.347 136.496C115.347 136.496 113.533 140.602 114.01 143.658C114.01 143.658 112.196 146.523 114.201 149.579" stroke="black" stroke-width="0.655654" stroke-linecap="round"/>
<path d="M126.043 133.249C126.043 133.249 126.998 138.406 129.194 141.939C129.194 141.939 130.627 149.197 129.099 153.59" stroke="black" stroke-width="0.655654" stroke-linecap="round"/>
<path d="M116.97 136.591C116.97 136.591 121.745 140.984 125.279 133.726" stroke="black" stroke-width="0.655654" stroke-linecap="round"/>
<path d="M124.324 127.232C124.324 127.232 127.38 128.665 126.52 132.007C126.52 132.007 129.862 130.193 128.812 134.49C128.812 134.49 130.626 139.647 135.21 137.546C135.21 137.546 136.834 135.923 139.221 136.495" stroke="black" stroke-width="0.655654" stroke-linecap="round"/>
<path d="M136.261 127.806C136.261 127.806 135.401 130.002 138.075 132.198" stroke="black" stroke-width="0.655654" stroke-linecap="round"/>
<path d="M129.671 137.546C129.671 137.546 132.345 142.798 131.963 147.382C131.963 147.382 130.531 161.897 137.693 159.987" stroke="black" stroke-width="0.655654" stroke-linecap="round"/>
<path d="M132.727 139.169C132.727 139.169 134.542 142.798 134.255 148.337C134.255 148.337 133.873 154.353 138.075 155.022" stroke="black" stroke-width="0.655654" stroke-linecap="round"/>
<path d="M134.733 139.647C134.733 139.647 137.311 142.798 137.502 146.809C137.502 146.809 137.789 152.634 141.799 151.202" stroke="black" stroke-width="0.655654" stroke-linecap="round"/>
<path d="M116.875 138.406C116.875 138.406 115.538 140.411 117.066 143.085C117.066 143.085 121.65 146.523 115.92 152.062" stroke="black" stroke-width="0.655654" stroke-linecap="round"/>
<path d="M121.554 147.478C121.554 147.478 121.077 153.112 116.207 154.067" stroke="black" stroke-width="0.655654" stroke-linecap="round"/>
<path d="M121.65 141.748C121.65 141.748 121.745 139.169 124.324 138.501C124.324 138.501 124.228 140.315 123.082 141.461" stroke="black" stroke-width="0.655654" stroke-linecap="round"/>
<path d="M122.318 150.916C122.318 150.916 125.183 155.69 128.621 154.353" stroke="black" stroke-width="0.655654" stroke-linecap="round"/>
<path d="M117.83 155.022C117.83 155.022 120.408 156.454 123.56 154.258" stroke="black" stroke-width="0.655654" stroke-linecap="round"/>
<path d="M83.5471 100.398C83.5471 100.398 83.6426 103.168 79.8227 104.791C79.8227 104.791 76.9579 105.173 77.0534 108.229" stroke="black" stroke-width="0.655654" stroke-linecap="round"/>
<path d="M81.3507 97.438C81.3507 97.438 81.3507 100.78 78.3904 102.022C78.3904 102.022 74.9525 103.932 73.9976 107.561" stroke="black" stroke-width="0.655654" stroke-linecap="round"/>
<path d="M79.2498 95.0508C79.2498 95.0508 79.9183 98.1066 77.9128 100.972" stroke="black" stroke-width="0.655654" stroke-linecap="round"/>
<path d="M73.9021 109.279C73.9021 109.279 78.5814 108.515 80.3003 109.184" stroke="black" stroke-width="0.655654" stroke-linecap="round"/>
<path d="M82.3057 108.898C82.3057 108.898 82.8787 105.364 85.0751 105.173C85.0751 105.173 87.2715 104.696 89.9454 103.359C89.9454 103.359 91.0913 104.409 88.9904 105.555C88.9904 105.555 86.985 106.51 86.2211 107.752C86.2211 107.752 87.176 108.516 90.1364 106.892C90.1364 106.892 91.9508 108.229 88.6085 110.235C88.6085 110.235 90.3274 110.617 87.749 112.622C87.749 112.622 88.513 113.29 87.8445 113.959C87.8445 113.959 90.8049 112.431 91.9508 112.622C91.9508 112.622 94.5292 113.768 88.7994 116.442C88.7994 116.442 87.176 117.683 87.2715 118.638C87.2715 118.638 88.131 121.121 85.6481 123.031C85.6481 123.031 83.5472 123.031 83.2607 122.363C83.2607 122.363 80.0139 124.559 78.2949 116.442" stroke="black" stroke-width="0.655654" stroke-linecap="round"/>
<path d="M80.1094 113.195C80.1094 113.195 81.6373 110.903 87.0806 110.33" stroke="black" stroke-width="0.655654" stroke-linecap="round"/>
<path d="M80.2048 115.868C80.2048 115.868 82.7832 112.717 85.7436 113.099" stroke="black" stroke-width="0.655654" stroke-linecap="round"/>
<path d="M85.7435 115.391C82.2102 115.869 81.6372 118.542 81.6372 118.542C81.6372 118.542 82.5922 118.065 83.7381 118.065C83.7381 118.065 84.3111 116.824 85.1705 116.633" stroke="black" stroke-width="0.655654" stroke-linecap="round"/>
<path d="M84.2157 108.611C84.2157 108.611 81.8283 109.757 80.7778 111.285" stroke="black" stroke-width="0.655654" stroke-linecap="round"/>
<path d="M79.0587 110.712C79.0587 110.712 70.1776 112.431 65.8803 116.919C65.8803 116.919 63.2064 115.964 62.2515 122.553" stroke="black" stroke-width="0.655654" stroke-linecap="round"/>
<path d="M74.4751 112.813C74.4751 112.813 67.4084 114.627 63.2066 125.323L59.9597 130.098" stroke="black" stroke-width="0.655654" stroke-linecap="round"/>
<path d="M57.8589 140.124C57.8589 139.647 67.2175 119.211 72.9472 117.11C72.9472 117.11 77.531 115.678 78.295 114.914" stroke="black" stroke-width="0.655654" stroke-linecap="round"/>
<path d="M75.2391 119.115C75.2391 119.115 73.4246 120.834 69.1273 132.771C69.1273 132.771 66.0715 144.326 59.8643 151.679" stroke="black" stroke-width="0.655654" stroke-linecap="round"/>
<path d="M74.093 123.795L70.5597 162.948L67.6948 159.319" stroke="black" stroke-width="0.655654" stroke-linecap="round"/>
<path d="M75.812 120.261C75.812 120.261 78.9634 126.564 86.3165 126.373" stroke="black" stroke-width="0.655654" stroke-linecap="round"/>
<path d="M76.0031 122.458C76.0031 122.458 72.9472 165.431 72.7562 166.291C72.7562 166.291 72.1832 169.155 67.313 167.436C67.313 167.436 65.212 166.768 63.5886 168.391" stroke="black" stroke-width="0.655654" stroke-linecap="round"/>
<path d="M57.9543 154.926C57.9543 154.926 60.2462 154.162 62.4426 158.651C62.4426 158.651 67.0264 163.425 70.3688 164.285C70.3688 164.285 72.3742 165.526 65.8805 165.24C65.8805 165.24 66.8354 165.144 67.0264 164.285" stroke="black" stroke-width="0.655654" stroke-linecap="round"/>
<path d="M61.5831 159.51L61.2966 164.572L60.8191 163.33L61.5831 159.51Z" fill="black" stroke="black" stroke-width="0.655654" stroke-linecap="round"/>
<path d="M76.2896 127.615C76.2896 127.615 77.8175 129.811 81.0643 129.62" stroke="black" stroke-width="0.655654" stroke-linecap="round"/>
<path d="M85.9345 127.519C85.9345 127.519 84.4066 132.771 76.4805 130.957" stroke="black" stroke-width="0.655654" stroke-linecap="round"/>
<path d="M76.6715 134.777C76.6715 134.777 79.4409 135.159 81.8283 132.294C81.8283 132.294 85.0751 136.305 76.194 155.213L74.4751 170.015L75.5256 170.97L75.621 167.245" stroke="black" stroke-width="0.655654" stroke-linecap="round"/>
<path d="M83.6425 140.984C83.6425 140.984 83.547 144.995 78.4858 155.308C78.4858 155.308 74.6659 162.852 78.7723 172.115" stroke="black" stroke-width="0.655654" stroke-linecap="round"/>
<path d="M84.9795 143.467C84.9795 143.467 83.8335 151.297 79.9182 158.078" stroke="black" stroke-width="0.655654" stroke-linecap="round"/>
<path d="M79.8227 159.319L79.4407 164.094" stroke="black" stroke-width="0.655654" stroke-linecap="round"/>
<path d="M80.7777 164.667C80.7777 164.667 80.0137 170.206 80.6822 171.256" stroke="black" stroke-width="0.655654" stroke-linecap="round"/>
<path d="M87.558 177.081C83.9292 170.396 86.3166 165.908 86.3166 165.908C84.9796 160.178 87.367 158.841 87.367 158.841C87.367 149.101 90.0409 145.186 90.0409 145.186C90.0409 145.186 85.8391 148.814 85.2661 155.499C85.2661 155.499 82.7832 158.268 82.8787 165.24C82.8787 165.24 82.4968 172.975 83.6427 175.076" stroke="black" stroke-width="0.655654" stroke-linecap="round"/>
<path d="M97.3941 178.227C91.9508 170.206 95.8661 161.42 95.8661 161.42C94.1472 153.303 95.9616 147.191 95.9616 147.191L95.1022 146.141C95.1022 146.141 92.9058 154.162 94.1472 159.987C94.1472 159.987 89.3724 167.532 93.3833 175.267L94.2427 176.795C94.2427 176.795 93.6697 179.564 90.3274 175.171" stroke="black" stroke-width="0.655654" stroke-linecap="round"/>
<path d="M88.3218 176.317C88.3218 176.317 89.4677 178.705 91.8551 178.418" stroke="black" stroke-width="0.655654" stroke-linecap="round"/>
<path d="M103.506 177.941C101.787 176.222 103.124 170.874 103.124 170.874C100.832 168.773 102.073 162.566 102.073 162.566C100.163 155.022 101.787 147.477 101.787 147.477L103.41 145.854L105.225 149.101C105.225 149.101 103.506 155.404 106.466 163.616C106.466 163.616 104.365 171.351 106.084 176.699C106.084 176.699 106.562 179.468 109.809 177.368" stroke="black" stroke-width="0.655654" stroke-linecap="round"/>
<path d="M113.628 154.163L115.729 160.943C115.729 160.943 114.201 165.049 115.443 169.442C115.443 169.442 116.78 174.217 112.578 175.936C112.578 175.936 113.533 178.705 116.111 175.458C116.111 175.458 117.448 174.121 117.448 171.161C117.448 171.161 118.594 166.768 116.971 162.566C116.971 162.566 117.353 159.415 116.493 156.645" stroke="black" stroke-width="0.655654" stroke-linecap="round"/>
<path d="M117.83 156.454C117.83 156.454 119.74 162.375 119.454 169.919" stroke="black" stroke-width="0.655654" stroke-linecap="round"/>
<path d="M122.032 156.072C122.032 156.072 125.947 162.279 123.56 173.452" stroke="black" stroke-width="0.655654" stroke-linecap="round"/>
<path d="M123.846 154.831C123.846 154.831 125.947 158.746 126.425 165.24C126.425 165.24 126.807 167.341 125.565 170.301" stroke="black" stroke-width="0.655654" stroke-linecap="round"/>
<path d="M131.39 157.791C131.39 157.791 131.199 166.672 134.255 170.492" stroke="black" stroke-width="0.655654" stroke-linecap="round"/>
<path d="M139.412 166.386C139.412 166.386 138.839 168.773 137.311 170.301" stroke="black" stroke-width="0.655654" stroke-linecap="round"/>
<path d="M131.009 170.015C131.009 170.015 128.908 174.885 138.171 178.036" stroke="black" stroke-width="0.655654" stroke-linecap="round"/>
<path d="M134.351 173.548C134.351 173.548 135.019 175.267 138.457 176.508" stroke="black" stroke-width="0.655654" stroke-linecap="round"/>
<path d="M131.677 175.171C131.677 175.171 131.104 177.654 131.868 179.087" stroke="black" stroke-width="0.655654" stroke-linecap="round"/>
<path d="M134.733 177.845C134.733 177.845 134.064 180.233 134.637 182.429" stroke="black" stroke-width="0.655654" stroke-linecap="round"/>
<path d="M137.407 179.182C137.407 179.182 137.884 186.249 136.929 189.018" stroke="black" stroke-width="0.655654" stroke-linecap="round"/>
<path d="M134.924 183.766C134.924 183.766 134.733 186.535 134.255 188.063" stroke="black" stroke-width="0.655654" stroke-linecap="round"/>
<path d="M132.25 180.232C132.25 180.232 131.486 185.294 132.154 187.013" stroke="black" stroke-width="0.655654" stroke-linecap="round"/>
<path d="M127.571 155.786C127.571 155.786 130.626 161.993 129.003 171.16C129.003 171.16 129.767 167.627 130.626 167.818" stroke="black" stroke-width="0.655654" stroke-linecap="round"/>
<path d="M111.718 179.182C118.307 179.851 122.891 174.98 122.891 174.98C122.891 174.98 122.414 177.081 120.695 178.227C120.695 178.227 119.931 180.71 123.942 177.368" stroke="black" stroke-width="0.655654" stroke-linecap="round"/>
<path d="M88.3218 180.232L92.8101 180.042C92.8101 180.042 94.6245 182.142 99.8768 182.62C99.8768 182.62 107.898 178.418 122.987 181.092" stroke="black" stroke-width="0.655654" stroke-linecap="round"/>
<path d="M100.259 182.429C100.259 182.429 100.068 189.973 103.601 196.276C103.601 196.276 103.41 198.95 104.938 203.247C104.938 203.247 105.225 206.59 105.798 208.595C105.798 208.595 104.461 212.51 106.084 215.471C106.084 215.471 103.792 220.627 103.792 229.127" stroke="black" stroke-width="0.655654" stroke-linecap="round"/>
<path d="M95.484 196.181C95.484 196.181 95.3885 199.237 94.5291 201.146" stroke="black" stroke-width="0.655654" stroke-linecap="round"/>
<path d="M105.607 202.006C105.607 202.006 108.854 206.971 113.342 197.899" stroke="black" stroke-width="0.655654" stroke-linecap="round"/>
<path d="M107.039 208.213C107.039 208.213 108.185 204.584 111.814 206.016" stroke="black" stroke-width="0.655654" stroke-linecap="round"/>
<path d="M114.87 209.168C114.87 209.168 114.488 219.1 107.708 216.426" stroke="black" stroke-width="0.655654" stroke-linecap="round"/>
<path d="M120.026 192.934C120.026 192.934 117.926 197.804 116.589 198.663" stroke="black" stroke-width="0.655654" stroke-linecap="round"/>
<path d="M109.14 218.24C109.14 218.24 106.657 231.227 107.803 239.44" stroke="black" stroke-width="0.655654" stroke-linecap="round"/>
<path d="M107.803 217.954C107.803 217.954 104.938 230.368 106.562 240.682" stroke="black" stroke-width="0.655654" stroke-linecap="round"/>
<path d="M104.174 250.9C104.174 250.9 105.797 242.496 110.286 237.053" stroke="black" stroke-width="0.655654" stroke-linecap="round"/>
<path d="M120.504 218.622C120.504 218.622 122.032 232.278 116.016 241.159C116.016 241.159 118.403 243.546 110.572 257.011" stroke="black" stroke-width="0.655654" stroke-linecap="round"/>
<path d="M120.695 232.946C120.695 232.946 117.83 245.17 113.628 254.528C113.628 254.528 114.01 258.062 112.578 261.595C112.578 261.595 114.774 263.123 114.965 266.083C114.965 266.083 120.791 263.505 123.082 265.415" stroke="black" stroke-width="0.655654" stroke-linecap="round"/>
<path d="M112.482 255.961C112.482 255.961 110.095 258.635 110.095 263.028C110.095 263.028 109.617 269.044 106.371 271.431" stroke="black" stroke-width="0.655654" stroke-linecap="round"/>
<path d="M110.668 264.364C110.668 264.364 112.196 265.224 112.196 268.184" stroke="black" stroke-width="0.655654" stroke-linecap="round"/>
<path d="M109.044 272.195L112.387 270.858C112.387 270.858 114.297 272.481 121.363 272.004" stroke="black" stroke-width="0.655654" stroke-linecap="round"/>
<path d="M106.848 275.251C104.27 264.746 97.967 272.577 97.967 272.577C97.967 272.577 99.113 271.144 99.3995 268.853" stroke="black" stroke-width="0.655654" stroke-linecap="round"/>
<path d="M98.3489 274.105C98.3489 274.105 102.264 271.145 105.702 275.537C105.702 275.537 105.607 277.638 106.848 278.402" stroke="black" stroke-width="0.655654" stroke-linecap="round"/>
<path d="M94.5291 279.262C94.5291 279.262 97.8714 275.442 104.843 280.121" stroke="black" stroke-width="0.655654" stroke-linecap="round"/>
<path d="M103.315 281.172C103.315 281.172 97.3939 277.638 93.6695 281.649C93.6695 281.649 91.3777 284.801 97.7759 284.896" stroke="black" stroke-width="0.655654" stroke-linecap="round"/>
<path d="M102.36 284.991C102.36 284.991 94.7202 288.238 92.3328 283.654" stroke="black" stroke-width="0.655654" stroke-linecap="round"/>
<path d="M96.6299 281.267C96.6299 281.267 91.8552 282.986 96.6299 283.75" stroke="black" stroke-width="0.655654" stroke-linecap="round"/>
<path d="M107.517 271.431C107.517 271.431 106.848 272.482 107.994 273.532" stroke="black" stroke-width="0.655654" stroke-linecap="round"/>
<path d="M97.585 269.521C97.585 269.521 97.394 270.285 96.821 272.004" stroke="black" stroke-width="0.655654" stroke-linecap="round"/>
<path d="M61.2048 70.0058C72.6004 70.0058 81.8383 60.7678 81.8383 49.3723C81.8383 37.9767 72.6004 28.7388 61.2048 28.7388C49.8092 28.7388 40.5713 37.9767 40.5713 49.3723C40.5713 60.7678 49.8092 70.0058 61.2048 70.0058Z" fill="#FFCC00"/>
<path opacity="0.506" d="M60.1598 61.7313C66.9727 61.7313 72.4957 56.2083 72.4957 49.3954C72.4957 42.5825 66.9727 37.0596 60.1598 37.0596C53.3469 37.0596 47.824 42.5825 47.824 49.3954C47.824 56.2083 53.3469 61.7313 60.1598 61.7313Z" fill="#FF6600"/>
<path d="M60.0342 27.0371L59.0308 28.6862L57.7062 27.2818L56.8802 29.0266L55.4162 27.7689L54.7772 29.5901L53.1896 28.492L52.7444 30.3705L51.0511 29.4445L50.8049 31.359L49.0235 30.6147L48.9788 32.5446L47.1297 31.9907L47.2869 33.9149L45.3897 33.5572L45.7474 35.4544L43.8233 35.2972L44.3771 37.1463L42.4472 37.191L43.1915 38.9724L41.277 39.2185L42.203 40.9124L40.3245 41.3571L41.4227 42.9447L39.6009 43.5837L40.8592 45.0477L39.1144 45.8737L40.5188 47.1983L38.8696 48.2017L40.4048 49.3724L38.8696 50.5427L40.5188 51.5466L39.1144 52.8712L40.8592 53.6967L39.6009 55.1612L41.4227 55.7997L40.3245 57.3873L42.203 57.8325L41.277 59.5264L43.1915 59.7725L42.4472 61.5534L44.3771 61.5986L43.8233 63.4477L45.7474 63.2905L45.3897 65.1872L47.2869 64.83L47.1297 66.7537L48.9788 66.1998L49.0235 68.1297L50.8049 67.3859L51.0511 69.3004L52.7444 68.3744L53.1896 70.2524L54.7772 69.1543L55.4162 70.976L56.8802 69.7178L57.7062 71.4626L59.0308 70.0587L60.0342 71.7073L61.205 70.1726L62.3752 71.7073L63.3791 70.0587L64.7037 71.4626L65.5292 69.7178L66.9933 70.976L67.6322 69.1543L69.2198 70.2524L69.665 68.3744L71.3584 69.3004L71.605 67.3859L73.3859 68.1297L73.4306 66.1998L75.2802 66.7537L75.123 64.83L77.0198 65.1872L76.6625 63.2905L78.5862 63.4477L78.0323 61.5986L79.9622 61.5534L79.2184 59.7725L81.133 59.5264L80.2065 57.8325L82.0849 57.3873L80.9868 55.7997L82.8085 55.1612L81.5503 53.6967L83.2951 52.8712L81.8912 51.5466L83.5398 50.5427L82.0051 49.3724L83.5398 48.2017L81.8912 47.1983L83.2951 45.8737L81.5503 45.0477L82.8085 43.5837L80.9868 42.9447L82.0849 41.3571L80.2065 40.9124L81.133 39.2185L79.2184 38.9724L79.9622 37.191L78.0323 37.1463L78.5862 35.2972L76.6625 35.4544L77.0198 33.5572L75.123 33.9149L75.2802 31.9907L73.4306 32.5446L73.3859 30.6147L71.605 31.359L71.3584 29.4445L69.665 30.3705L69.2198 28.492L67.6322 29.5901L66.9933 27.7689L65.5292 29.0266L64.7037 27.2818L63.3791 28.6862L62.3752 27.0371L61.205 28.5723L60.0342 27.0371ZM61.205 29.6579C63.7939 29.658 66.3574 30.1679 68.7493 31.1587C71.1411 32.1494 73.3144 33.6016 75.145 35.4323C76.9756 37.2629 78.4277 39.4362 79.4185 41.8281C80.4092 44.2199 80.919 46.7835 80.919 49.3724C80.919 54.6009 78.8419 59.6152 75.1448 63.3123C71.4478 67.0094 66.4334 69.0864 61.205 69.0865C58.616 69.0865 56.0525 68.5766 53.6606 67.5859C51.2687 66.5952 49.0954 65.1431 47.2648 63.3125C45.4341 61.4819 43.9819 59.3086 42.9912 56.9168C42.0004 54.5249 41.4905 51.9614 41.4904 49.3724C41.4904 46.7835 42.0003 44.2199 42.991 41.828C43.9818 39.4361 45.4339 37.2628 47.2646 35.4321C49.0953 33.6014 51.2686 32.1493 53.6605 31.1585C56.0524 30.1678 58.616 29.6579 61.205 29.6579Z" fill="black"/>
<path d="M51.7882 60.8965L52.2861 59.7901L54.4988 57.9647L54.9413 54.0371L53.2818 53.2073L51.8988 52.2116L52.0648 50.1095L51.5116 49.5564L51.6932 48.708L51.4283 48.1981L51.235 47.0117L50.1287 45.9054L52.2031 42.3097L52.618 40.7055L52.8946 39.2119L52.9499 37.4971L53.7243 35.7822L55.6604 34.8972L57.7072 33.6802H61.856L64.0687 34.2334L65.1198 34.344L67.775 36.612L69.7111 38.4928L70.6515 40.3183L71.2047 45.2416L71.3707 46.8458L70.4303 49.1691L69.5452 49.8883L68.0516 50.4414L66.558 50.3861L68.5495 52.2669L69.0473 53.318L69.8218 53.7328L70.4303 54.8115L69.4899 56.3051L68.1622 57.5221L66.1708 58.02L64.8432 56.9136L62.5751 57.4115L57.2093 59.7348L53.9456 60.7859L51.7882 60.8965Z" fill="#FFCC00"/>
<path d="M54.4551 56.8078L52.7956 57.1397L51.302 58.5779L49.6978 59.9609L49.5872 62.2289L50.7488 62.948L53.6807 63.114L57.3316 62.8374L60.5401 62.1736L64.5229 62.4792L67.0122 62.1831L69.1272 60.7906L68.7271 57.7482L65.9612 58.0247L64.5783 56.7524L62.4209 57.5822L58.3827 59.0205L54.3445 60.4034L52.0211 60.9566L51.6339 60.6247L52.6849 59.463L54.3445 58.1354L54.4551 56.8078Z" fill="#E60000"/>
<path d="M61.1484 39.936L61.8447 37.5439L62.9739 38.3871L64.2462 40.3786L65.4079 43.0338L66.6249 45.855L67.0674 47.9571L66.5143 50.3358L65.4079 50.0039L65.2514 48.289L64.5228 46.9061L64.025 45.5231L63.1952 44.8593L62.642 42.2594L61.7569 41.7615L61.1484 39.936Z" fill="#E60000"/>
<path d="M44.9712 56.7652L46.2913 56.5433L46.5931 56.4706L46.6081 56.4993L46.3735 56.7015L45.4314 57.6511L45.7018 58.1717L47.3573 56.395L47.1243 55.9463L44.7068 56.2562L44.9712 56.7652Z" fill="black"/>
<path d="M45.6665 53.1198L45.9985 52.8899L45.8335 52.3135L43.8638 53.7471L44.0297 54.3266L46.464 54.5164L46.3097 53.9773L45.9064 53.9579L45.8485 53.9678L45.8387 53.9099L45.6345 53.1964L45.6122 53.1421L45.6665 53.1198ZM45.3931 53.9431L45.3299 53.9342L44.7934 53.9091L44.5307 53.9101L44.5218 53.8789L44.7461 53.7439L45.1889 53.4418L45.2388 53.404L45.2486 53.4618L45.3708 53.8887L45.3931 53.9431Z" fill="black"/>
<path d="M43.9648 49.3715C43.7061 49.3887 43.5847 49.4682 43.4881 49.5786C43.3553 49.7304 43.285 49.9429 43.3069 50.2728L43.3782 51.3432L45.6613 51.1913L45.6256 50.6544L44.8397 50.7067L44.7854 50.7201L44.788 50.6615L44.7695 50.3833L45.5681 49.791L45.527 49.1733C45.5011 49.1751 45.4856 49.1858 45.4608 49.2037L44.6667 49.8153C44.5687 49.4645 44.3044 49.3489 43.9648 49.3715ZM44.0031 49.8984C44.1972 49.8855 44.3006 49.976 44.3146 50.1862L44.3482 50.6907L44.3585 50.7485L44.3029 50.7425L43.8308 50.7739L43.7764 50.7872L43.779 50.7286L43.7455 50.2241C43.7315 50.0139 43.8317 49.9098 44.0031 49.8984Z" fill="black"/>
<path d="M43.3411 47.7599L45.6174 47.9916L45.6719 47.4564L43.3956 47.2246L43.3411 47.7599Z" fill="black"/>
<path d="M43.8812 44.4906C43.7773 44.8586 43.8335 45.1607 43.9682 45.3873C44.1119 45.63 44.2967 45.7865 44.7146 45.9045C45.1544 46.0286 45.4165 45.9948 45.6694 45.8507C45.8974 45.7231 46.0921 45.4985 46.1916 45.1461C46.2937 44.7842 46.2411 44.4933 46.1158 44.2693C45.9756 44.0142 45.7698 43.8483 45.33 43.7242C44.9121 43.6062 44.6735 43.6399 44.4242 43.7716C44.19 43.8975 43.9851 44.1225 43.8812 44.4906ZM45.7424 45.0193C45.6931 45.194 45.5969 45.3082 45.4849 45.3709C45.34 45.4546 45.1722 45.4645 44.8634 45.3774C44.5577 45.2911 44.4595 45.2095 44.3741 45.0709C44.3051 44.9571 44.2784 44.8014 44.3303 44.6173C44.3831 44.4302 44.4887 44.3186 44.6038 44.2568C44.7501 44.1802 44.8764 44.1619 45.1821 44.2482C45.4909 44.3354 45.6288 44.4316 45.7076 44.5818C45.7703 44.6938 45.7935 44.8384 45.7424 45.0193Z" fill="black"/>
<path d="M45.6521 41.2478C45.7679 41.0304 45.9417 40.9248 46.0731 40.8919L46.1533 40.8723L46.1642 40.397C46.1385 40.3833 46.1124 40.384 46.0876 40.3892L46.0599 40.3928C45.8253 40.4404 45.4826 40.6287 45.2646 41.0377C45.007 41.5211 45.043 41.9773 45.4806 42.2105C45.6465 42.2989 45.8116 42.306 45.9638 42.2549C46.1334 42.1984 46.2815 42.079 46.429 41.8712L46.6666 41.5424C46.7508 41.4257 46.8671 41.304 47.0072 41.3787C47.1417 41.4503 47.1688 41.6337 47.0301 41.894C46.8945 42.1486 46.6838 42.275 46.5144 42.3243L46.456 42.3373L46.4451 42.8126C46.4709 42.8263 46.4869 42.8238 46.5189 42.8188L46.6123 42.7952C46.8663 42.7322 47.1829 42.5446 47.4283 42.0841C47.7422 41.4949 47.5461 41.0636 47.22 40.8898C47.0513 40.7999 46.885 40.7811 46.7272 40.8292C46.5562 40.8813 46.3904 41.0133 46.2339 41.231L46.0053 41.5499C45.8894 41.7122 45.7922 41.7705 45.6806 41.7111C45.5691 41.6516 45.5256 41.4852 45.6521 41.2478Z" fill="black"/>
<path d="M74.7849 40.2698C74.9408 40.2973 75.109 40.2663 75.3199 40.1046L75.3456 40.0849C75.5745 39.9094 75.6309 39.7805 75.6532 39.6285C75.6798 39.4448 75.6232 39.2432 75.4418 39.0065L74.7714 38.132L72.9555 39.5242L73.2828 39.9512L73.8847 39.4897L73.9225 39.4485L73.9528 39.4987L74.2664 39.9077C74.4478 40.1443 74.6083 40.2418 74.7849 40.2698ZM75.0177 39.6625C74.8479 39.7926 74.7187 39.7733 74.5886 39.6035L74.3026 39.2306L74.262 39.1882L74.3116 39.1624L74.7103 38.8567L74.7481 38.8155L74.7785 38.8657L75.0644 39.2387C75.1945 39.4085 75.1694 39.5461 75.0177 39.6625Z" fill="black"/>
<path d="M76.9814 43.124C77.2153 43.0122 77.2987 42.8934 77.3475 42.7551C77.4147 42.5649 77.4013 42.3414 77.2588 42.0431L76.7963 41.0752L74.7317 42.0617L74.9637 42.5471L75.6743 42.2076L75.7198 42.175L75.7391 42.2305L75.8593 42.482L75.3367 43.3279L75.6036 43.8865C75.627 43.8753 75.6374 43.8595 75.6539 43.8337L76.1651 42.9716C76.386 43.2612 76.6743 43.2707 76.9814 43.124ZM76.7507 42.6487C76.5753 42.7325 76.4456 42.6867 76.3548 42.4966L76.1368 42.0404L76.1058 41.9906L76.1597 41.9756L76.5867 41.7716L76.6322 41.7391L76.6515 41.7945L76.8695 42.2507C76.9603 42.4408 76.9057 42.5746 76.7507 42.6487Z" fill="black"/>
<path d="M76.8311 46.6633L76.5441 45.4789L76.524 45.4238L76.5799 45.4202L76.961 45.3279L77.0123 45.3054L77.0197 45.3637L77.2632 46.3685L77.6947 46.2639L77.4512 45.2591L77.4312 45.2039L77.487 45.2004L77.8524 45.1118L77.9037 45.0894L77.9111 45.1476L78.1905 46.3005L78.6189 46.1966L78.2013 44.4737L75.9775 45.0126L76.4027 46.7671L76.8311 46.6633Z" fill="black"/>
<path d="M77.7178 49.8888L76.6127 49.9019L76.619 50.4366L78.907 50.4096L78.8995 49.7744L77.6193 49.2353L77.6191 49.2158L78.8862 48.6434L78.8785 47.992L76.5905 48.019L76.5967 48.5472L77.7018 48.5342L78.0549 48.5138L78.0552 48.5397L77.6907 48.6866L76.8618 49.04L76.8661 49.403L77.7031 49.7367L78.071 49.8782L78.0713 49.9041L77.7178 49.8888Z" fill="black"/>
<path d="M78.674 52.2076L76.4207 51.8097L76.3271 52.3395L78.5804 52.7374L78.674 52.2076Z" fill="black"/>
<path d="M77.8946 55.4299C78.0254 55.0705 77.9918 54.7651 77.8742 54.5291C77.7489 54.2765 77.5762 54.1067 77.1681 53.9581C76.7387 53.8018 76.4748 53.816 76.212 53.9411C75.9752 54.0515 75.7644 54.261 75.6391 54.6051C75.5104 54.9584 75.5413 55.2525 75.6497 55.4851C75.7706 55.7499 75.9635 55.9305 76.3929 56.0869C76.801 56.2354 77.0414 56.2195 77.2998 56.1066C77.5427 55.9985 77.7637 55.7892 77.8946 55.4299ZM76.0776 54.7648C76.1397 54.5943 76.2441 54.4874 76.3605 54.4332C76.5111 54.3604 76.6792 54.363 76.9807 54.4728C77.2791 54.5815 77.371 54.6701 77.446 54.8147C77.5063 54.9332 77.5215 55.0905 77.456 55.2702C77.3895 55.4529 77.2759 55.5564 77.1566 55.6095C77.0051 55.6751 76.8777 55.6839 76.5793 55.5752C76.2778 55.4654 76.1474 55.3593 76.0799 55.2037C76.0257 55.0874 76.0133 54.9414 76.0776 54.7648Z" fill="black"/>
<path d="M75.8834 58.5345C75.7514 58.7425 75.57 58.8346 75.4365 58.8574L75.355 58.8708L75.308 59.3439C75.3326 59.3595 75.3587 59.3608 75.3838 59.3575L75.4117 59.356C75.6493 59.3264 76.0053 59.1647 76.2538 58.7735C76.5473 58.3111 76.5461 57.8534 76.1275 57.5876C75.9688 57.4869 75.8047 57.4672 75.6492 57.5066C75.4757 57.55 75.319 57.6578 75.1561 57.8539L74.8942 58.1636C74.8013 58.2736 74.6762 58.386 74.5421 58.3009C74.4135 58.2193 74.4004 58.0343 74.5585 57.7854C74.7131 57.5418 74.9327 57.4318 75.1054 57.3955L75.1646 57.387L75.2116 56.9139C75.1869 56.8983 75.1708 56.8996 75.1385 56.9021L75.0436 56.9186C74.7856 56.9621 74.4556 57.125 74.1759 57.5655C73.8181 58.1291 73.9808 58.5742 74.2928 58.7722C74.4542 58.8747 74.6185 58.9061 74.7796 58.8702C74.954 58.8312 75.1294 58.7122 75.3019 58.507L75.5542 58.2064C75.682 58.0534 75.7834 58.0026 75.8901 58.0704C75.9968 58.1381 76.0276 58.3074 75.8834 58.5345Z" fill="black"/>
<path d="M57.4572 63.0206C59.2791 62.6494 60.7076 62.5366 63.1674 62.5701C66.2325 62.6118 66.5401 62.5726 67.8536 61.9711C69.4106 61.2583 69.4345 61.1924 69.0305 58.7304C68.8383 57.5594 68.8616 57.4855 69.6606 56.732C70.5814 55.8636 70.7156 55.0652 70.1308 53.9343C69.9332 53.5521 69.5455 53.1802 69.2693 53.108C68.9929 53.0357 68.7671 52.7726 68.7671 52.5229C68.7671 52.2732 68.3517 51.7132 67.844 51.2782L66.9208 50.4874L68.0819 50.4782C69.0687 50.4703 69.3691 50.3428 70.0831 49.6288C71.043 48.6689 71.9483 46.248 71.5398 45.7333C71.2961 45.4263 71.1605 44.6345 70.7644 41.2072C70.6529 40.2428 70.3958 39.2167 70.193 38.9272C69.9902 38.6376 68.7559 37.4051 67.4502 36.1882C65.6011 34.465 64.9195 33.9757 64.3678 33.9757C63.9782 33.9757 63.1928 33.8111 62.6225 33.6099C61.8024 33.3205 61.0883 33.2868 59.2068 33.4485C57.1528 33.6251 56.6617 33.7591 55.6105 34.4298C54.9409 34.857 54.2657 35.2066 54.1101 35.2066C53.9545 35.2066 53.634 35.42 53.3979 35.6809C52.7449 36.4025 52.4185 37.9023 52.2086 41.1459C52.1717 41.7163 51.7285 42.7058 50.9815 43.8855C50.3384 44.9012 49.8122 45.8539 49.8122 46.0025C49.8122 46.1511 50.084 46.4508 50.4161 46.6684C50.8431 46.9482 51.0219 47.2923 51.0267 47.8434C51.0299 48.2183 51.4645 48.5278 51.4721 48.7853C51.4752 48.889 51.3483 48.9844 51.2423 49.0721C51.0652 49.2034 51.1095 49.3396 51.126 49.5274C51.1696 49.9336 51.2402 50.0799 51.4286 50.2363C51.684 50.4483 51.7447 50.7843 51.634 51.3745C51.441 52.4029 51.9342 53.0412 53.4432 53.7164C54.3026 54.1009 54.4888 54.3033 54.486 54.8499C54.4793 56.1852 54.2286 56.6035 53.3349 56.7712C52.7434 56.8822 52.0072 57.3948 50.94 58.4389C49.7072 59.6449 49.4576 59.9249 49.3871 60.6971C49.3732 60.85 49.5899 60.8576 49.5837 61.06C49.5769 61.2812 49.3582 61.6578 49.3728 61.8484C49.406 62.2831 49.4893 62.6068 49.599 62.6746C50.0777 62.9704 52.59 63.4503 53.8353 63.4838C54.491 63.5014 56.1208 63.293 57.4572 63.0206ZM51.2152 62.7857C49.9472 62.5402 49.6075 62.177 50.0232 61.5113C50.254 61.1417 50.2696 60.9208 50.0786 60.7297C49.5981 60.2492 49.797 59.839 50.8254 59.1898C51.3827 58.838 51.8923 58.3451 51.9579 58.0945C52.0697 57.6667 53.1693 57.1154 53.9107 57.1154C54.5548 57.1154 54.255 58.0814 53.4878 58.4781C52.5953 58.9396 51.3067 60.2941 51.2964 60.7815C51.2804 61.541 54.1321 60.867 58.8716 58.9909C64.6983 56.6846 64.3993 56.7653 65.0794 57.316C66.1968 58.2209 64.8157 58.9937 61.6549 59.2323C58.5684 59.4653 58.3717 59.9319 61.4274 59.7721C63.4122 59.6683 63.9788 59.537 65.2179 58.8938C67.8252 57.5404 68.4579 57.595 66.9626 59.0443C66.0559 59.9231 63.9958 60.8079 62.8564 60.8079C62.4517 60.8079 62.1206 60.9329 62.1206 61.0856C62.1206 61.7951 66.5166 60.3216 67.4383 59.3032C67.9353 58.754 68.5209 58.693 68.5209 59.1903C68.5209 59.9642 67.3825 60.6971 65.1976 61.3298L63.7206 61.7575L64.7275 61.7751C65.389 61.7866 66.2596 61.5302 67.2653 61.0276C68.1073 60.6069 68.8561 60.3226 68.9294 60.3958C69.1975 60.664 68.677 61.1185 67.4445 61.6924C65.8557 62.4322 63.7635 62.4688 60.996 61.8053C57.8446 61.0497 56.7636 60.9819 54.7494 61.4133C53.7416 61.6293 52.8828 61.8401 52.841 61.882C52.7991 61.9238 53.9132 61.907 55.3168 61.8446C58.4325 61.706 58.9359 62.0612 56.4268 62.6279C54.6017 63.04 52.8093 63.0943 51.2152 62.7857ZM52.0277 60.3617C52.0277 60.1065 53.1811 59.0525 54.0482 58.5153C54.6676 58.1316 54.7199 57.9672 54.7867 56.1934L54.8586 54.2845L56.0895 54.1318C57.5806 53.9468 59.0797 53.3428 59.8641 52.6111C60.5349 51.9854 61.4992 50.2228 61.1708 50.2228C61.049 50.2228 60.8172 50.5421 60.6555 50.9323C60.0087 52.4939 58.2877 53.4455 56.01 53.501C54.3727 53.5409 53.185 53.2511 52.5459 52.6557C52.0819 52.2234 52.0196 51.984 52.1579 51.1652C52.2909 50.378 52.2349 50.1248 51.8675 49.8535C51.1453 49.3203 51.7688 48.8535 52.7476 49.1947C52.972 49.273 53.1864 49.4885 53.2986 49.5043C53.522 49.5359 53.5047 49.2681 53.5047 48.9937C53.5047 48.4388 53.098 48.1199 52.9512 48.5596C52.8731 48.7938 52.6739 48.8063 52.1302 48.611C51.5321 48.3962 51.4252 48.2354 51.4894 47.648C51.5463 47.1279 51.3986 46.8079 50.9266 46.4288L50.2867 45.9148L51.5356 43.9455C52.4443 42.5126 52.7461 41.8211 52.6437 41.407C52.5463 41.013 52.7763 40.3879 53.3909 39.3761C53.8793 38.5722 54.3745 37.9144 54.4915 37.9144C54.6084 37.9144 54.9531 38.3575 55.2575 38.8991C55.5618 39.4406 55.9013 39.8837 56.0117 39.8837C56.1222 39.8837 56.2126 40.1663 56.2126 40.5117C56.2126 41.0014 56.41 41.2222 57.1091 41.5143C57.6022 41.7203 58.2669 41.8233 58.5861 41.7432C59.1188 41.6095 59.1667 41.6738 59.1682 42.5254C59.1692 43.0367 59.3893 43.7846 59.6589 44.1917C60.2483 45.0817 60.2933 45.9307 59.7618 46.1347C59.141 46.3729 58.9204 46.3114 58.9204 45.9003C58.9204 45.6892 58.8096 45.585 58.6742 45.6687C58.2684 45.9195 58.3952 46.7436 58.9204 47.2688C59.1912 47.5395 59.4127 47.864 59.4127 47.9897C59.4127 48.1154 59.5967 48.4022 59.8216 48.6271C60.1395 48.9451 60.4755 48.9992 61.3327 48.8707C62.3358 48.7202 62.4183 48.7459 62.2504 49.1564C62.149 49.4044 62.009 50.3412 61.9393 51.2381C61.8279 52.6729 61.8759 52.9321 62.3392 53.3954C62.6288 53.685 63.039 54.355 63.2508 54.8843C63.4625 55.4136 63.7934 55.9071 63.9859 55.981C64.6846 56.2491 64.3068 56.6179 62.9208 57.0208C62.1424 57.2471 60.3423 57.9251 58.9206 58.5274C57.4989 59.1298 55.7367 59.834 55.0047 60.0922C53.6414 60.5732 52.0277 60.7193 52.0277 60.3617ZM53.6518 45.9744C53.7073 45.3029 53.4264 45.0078 53.1398 44.8978C52.657 44.7125 52.4499 44.904 52.667 45.185C52.7169 45.2496 52.9139 45.2225 53.0226 45.2721C53.6039 45.7744 53.2438 46.7491 52.5053 46.5945C52.1681 46.5099 51.7815 46.3691 51.7815 46.4845C51.7815 46.8724 52.1281 47.0457 52.757 46.9724C53.2855 46.9107 53.587 46.7571 53.6518 45.9744ZM54.7434 44.4994C54.7477 44.3301 54.9104 43.9814 55.1049 43.7244C55.3872 43.3515 55.5304 43.3166 55.8137 43.5517C56.0718 43.7659 56.2151 43.7714 56.3384 43.5718C56.5394 43.2465 56.6007 43.2959 55.2894 42.7257C54.714 42.4754 54.2432 42.1227 54.2432 41.9419C54.2432 41.7032 54.6308 41.787 55.6587 42.2481C57.7547 43.1884 57.8967 43.2023 56.9511 42.3744C56.6665 42.1253 56.3753 41.8827 56.1005 41.7435C55.9177 41.6509 55.7204 41.615 55.6165 41.6135C55.3564 41.6099 54.9454 41.4276 54.7033 41.2085C54.5391 41.0599 54.4103 40.9299 54.2037 40.8977C54.0452 40.8731 53.8168 40.9221 53.6377 40.967C52.9541 41.1386 52.7788 41.6069 53.3982 41.6069C53.672 41.6069 53.711 41.6116 53.6001 41.961C53.58 42.0244 53.4749 42.0927 53.3996 42.148C53.284 42.3281 53.4955 42.331 53.6509 42.3484C53.8282 42.3985 54.0416 42.5712 54.0409 42.7061C54.0386 43.1444 54.1211 43.4766 54.6121 43.7719C54.7505 43.8551 54.5942 43.9496 54.39 44.0723C53.5484 44.3066 54.898 45.261 54.7434 44.4994ZM65.594 57.2052C65.1552 56.8978 65.0631 56.6267 65.1231 55.8191C65.1641 55.2669 65.3351 54.7699 65.5032 54.7147C65.7231 54.6423 65.7656 54.8295 65.6549 55.3831C65.5363 55.976 65.6256 56.2846 66.0448 56.7309C66.69 57.4176 66.3731 57.7509 65.594 57.2052ZM66.3546 56.82C65.6063 56.0717 66.2407 55.45 67.3035 55.8902C67.9072 56.1402 68.1269 56.123 68.6425 55.7851C69.3585 55.316 69.4491 54.5391 68.8286 54.189C68.1525 53.8075 68.7886 53.2854 69.4791 53.655C70.3311 54.1109 70.2536 55.5076 69.3304 56.3367C68.7009 56.9022 68.2622 56.9324 67.167 56.4856C66.7287 56.3068 66.7118 56.3304 67.0125 56.7001C67.2999 57.0535 67.2981 57.1154 67.0002 57.1154C66.8076 57.1154 66.5171 56.9825 66.3546 56.82ZM67.7824 55.4429C67.7824 55.3128 67.9613 55.0579 68.18 54.8764C68.5241 54.5909 68.5656 54.6089 68.4878 55.0105C68.395 55.4889 67.7824 55.8645 67.7824 55.4429ZM63.8176 54.4176C63.5954 53.6757 63.593 53.1072 63.8078 52.0379C64.2556 49.8079 64.1337 49.1427 63.588 50.8382C63.3265 51.6505 63.1073 52.5367 63.101 52.8075L63.0896 53.2999L62.7088 52.8075C62.4279 52.4444 62.3614 51.9598 62.4554 50.9613C62.679 48.5856 63.1149 45.4539 63.2393 45.3295C63.5483 45.0205 63.977 45.9445 64.1153 47.2174C64.2322 48.2926 64.3115 48.4932 64.4531 48.0716C64.7671 47.1368 65.0746 47.7176 65.0746 49.2453C65.0746 50.5766 65.1374 50.7468 65.8131 51.2464C66.4377 51.7082 66.5516 51.9582 66.5516 52.8683C66.5516 53.523 66.648 53.8847 66.7978 53.7922C66.9331 53.7085 67.0439 53.2228 67.0439 52.7128C67.0439 52.0424 66.8737 51.6257 66.4295 51.2083C65.4132 50.2536 65.9644 50.3319 67.1608 51.3122C68.0818 52.0669 68.2748 52.369 68.2748 53.0562C68.2748 54.2092 67.4938 54.7718 66.5622 54.29C66.0009 53.9998 65.9223 53.8263 66.0104 53.0718C66.1496 51.8792 65.8945 51.9603 65.5563 53.2161C65.2576 54.3256 64.6504 55.3923 64.3177 55.3923C64.2033 55.3923 63.9782 54.9537 63.8176 54.4176ZM66.5516 55.1461C66.5516 55.0107 66.6623 54.8999 66.7977 54.8999C66.9331 54.8999 67.0439 55.0107 67.0439 55.1461C67.0439 55.2815 66.9331 55.3923 66.7977 55.3923C66.6623 55.3923 66.5516 55.2815 66.5516 55.1461ZM67.4695 49.954C66.8693 49.6045 67.1865 49.2027 67.9178 49.3863C68.3066 49.4839 68.8279 49.3517 69.4107 49.0079C69.9032 48.7173 70.3633 48.5368 70.4333 48.6067C70.7616 48.935 68.9801 50.2329 68.2254 50.2153C68.0495 50.2112 67.7093 50.0936 67.4695 49.954ZM65.4597 48.6428C65.37 48.0446 65.1359 47.4218 64.9394 47.2587C64.743 47.0957 64.5822 46.6939 64.5822 46.3658C64.5822 46.0378 64.316 45.5031 63.9906 45.1777C63.6523 44.8395 63.3229 44.1326 63.2213 43.5273C63.1173 42.907 62.7521 42.1353 62.3395 41.6639C61.4176 40.6106 61.2481 39.8415 61.6924 38.7275L62.0558 37.8163L62.9521 38.7885C63.5021 39.3851 64.1348 40.5215 64.5898 41.73C64.9976 42.8131 65.462 43.9209 65.6218 44.1917C66.8562 46.2833 67.0689 47.4021 66.5275 48.9552C66.1392 50.0689 65.6522 49.9265 65.4597 48.6428ZM67.5362 48.738C67.5362 48.4717 67.7137 48.3907 68.8388 48.1437C69.2801 48.0467 69.8085 47.5904 70.3158 46.8679C70.9831 45.9177 71.1179 45.8232 71.1843 46.2593C71.2275 46.5433 71.0351 47.0955 70.7566 47.4865C70.055 48.4719 67.5362 49.4508 67.5362 48.738ZM60.3153 48.0893C60.0261 47.8001 60.137 47.6004 60.7391 47.3261C61.1586 47.135 61.4666 46.6273 61.8142 45.5538C62.3883 43.7811 62.024 43.6675 61.3616 45.4126C60.8769 46.6894 60.5626 47.0128 59.8006 47.0188C59.3557 47.0224 59.3606 46.9867 59.8806 46.4332C60.1987 46.0946 60.5904 45.1592 60.8014 44.2344C61.2629 42.2108 61.7279 41.7424 62.4243 42.5996C62.8623 43.1388 62.8994 43.4279 62.7546 45.1744C62.5641 47.471 62.1618 48.2534 61.1712 48.2534C60.7908 48.2534 60.4056 48.1796 60.3153 48.0893ZM67.2901 47.7964C67.2901 47.6511 67.5393 47.404 67.8439 47.2473C68.8854 46.7116 69.7517 45.7157 69.7517 45.0542C69.7517 44.6993 69.9158 44.1938 70.1163 43.931C70.4327 43.5163 70.5149 43.5019 70.7384 43.8224C71.2905 44.6141 70.5386 46.3661 69.2442 47.304C68.4846 47.8544 67.2901 48.1554 67.2901 47.7964ZM67.0682 46.2225C66.9189 45.8215 66.989 45.5067 67.3223 45.0816C67.5753 44.7587 67.7824 44.2415 67.7824 43.9323C67.7824 43.623 67.9727 43.0385 68.2052 42.6333C68.6183 41.9135 68.6113 41.8624 67.8975 40.3984C67.4957 39.5744 67.082 38.9 66.9782 38.8996C66.8744 38.8994 67.0682 39.4493 67.409 40.1217C68.1194 41.5236 68.1835 42.1565 67.6593 42.5916C67.4562 42.7601 67.2865 43.1337 67.2822 43.4218C67.2779 43.7098 67.1074 44.1665 66.9033 44.4366C66.4959 44.9757 66.4443 44.9366 65.6684 43.5026C65.3234 42.865 65.3353 42.7493 65.8271 41.9534C66.1975 41.3542 66.3109 40.8912 66.201 40.427C66.1143 40.0605 66.0109 39.3001 65.9713 38.7371C65.9318 38.1742 65.7049 37.4168 65.4673 37.0541C64.9137 36.2093 64.6798 36.4188 65.1508 37.3377C65.6694 38.3493 65.9485 41.4941 65.542 41.7454C65.3659 41.8542 65.1883 41.8252 65.1398 41.6796C65.092 41.5362 64.6617 40.7693 64.1835 39.9752C63.562 38.943 63.3512 38.3464 63.444 37.8824C63.52 37.5024 63.3877 36.8683 63.1248 36.3526C62.6047 35.3325 62.7341 35.0172 63.4187 35.6368C63.8741 36.049 65.0746 36.2638 65.0746 35.9331C65.0746 35.6128 64.1128 34.9172 63.874 35.0648C63.7383 35.1487 63.2605 34.9938 62.8123 34.7205C61.9498 34.1947 60.8897 34.0555 60.8897 34.4681C60.8897 34.6035 61.1667 34.7142 61.5051 34.7142C62.078 34.7142 62.2271 34.9212 62.1465 35.6045C62.1287 35.7557 62.2817 36.0185 62.4866 36.1885C62.8875 36.5213 63.0062 37.9144 62.6336 37.9144C62.5096 37.9144 62.0572 37.4713 61.6282 36.9297C61.1993 36.3882 60.7276 35.9451 60.58 35.9451C60.4323 35.9451 60.5524 36.2015 60.8468 36.5148C61.4638 37.1715 61.5473 38.3359 61.0278 39.0367C60.7254 39.4445 60.5992 39.4691 60.1662 39.2047C59.7115 38.927 59.6589 38.9533 59.6589 39.4576C59.6589 40.5837 58.4499 41.5845 57.6711 41.1032C57.413 40.9437 57.4196 40.8244 57.7054 40.4801C57.9329 40.206 58.0638 39.4532 58.0728 38.3672C58.0903 36.2678 57.7425 36.4822 57.641 38.6334C57.5656 40.2329 57.0634 40.9821 56.7837 39.9124C56.7096 39.6289 56.557 39.4538 56.4446 39.5232C56.0975 39.7378 54.9817 37.5503 54.9817 36.6552C54.9817 35.6338 55.1671 35.162 56.2753 34.4768C56.9541 34.0571 57.0529 33.9875 59.5963 33.7296C61.0109 33.7296 62.1344 33.8633 62.698 34.0988C63.1841 34.3019 63.9644 34.4681 64.4321 34.4681C65.1187 34.4681 65.3655 34.7739 66.1204 35.4472C66.6495 35.919 67.4768 36.822 68.1102 37.3056C70.084 38.8127 70.7667 41.1105 69.8748 43.245C69.6717 43.731 69.5056 44.3478 69.5056 44.6156C69.5056 45.1337 68.0211 46.7764 67.5529 46.7764C67.3996 46.7764 67.1815 46.5272 67.0682 46.2225ZM57.406 36.4353C58.042 35.5751 57.7643 35.4452 57.016 36.2528C56.4781 36.8333 56.3631 37.3053 56.4612 38.5298C56.5122 39.1667 56.5438 39.124 56.691 38.22C56.7848 37.6434 57.1066 36.8403 57.406 36.4353ZM59.9489 43.8771C59.7484 43.5198 59.6732 42.7606 59.7416 41.7847C59.837 40.4238 59.9108 40.2437 60.4031 40.1699C61.4271 40.0164 61.7269 41.4159 60.9145 42.5568C60.6573 42.918 60.4056 43.4889 60.3552 43.8256L60.2635 44.4378L59.9489 43.8771ZM52.7662 38.5444C52.7662 38.3493 52.877 38.1212 53.0124 38.0375C53.1478 37.9538 53.2585 37.6077 53.2585 37.2683C53.2585 36.4557 53.6782 35.6989 54.1288 35.6989C54.7047 35.6989 54.5572 36.8377 53.8413 37.9197C53.1735 38.9288 52.7662 39.1654 52.7662 38.5444Z" fill="black"/>
<path d="M117.149 52.9168L117.044 51.1216C117.044 51.1216 114.298 50.1712 109.863 50.6993" stroke="black" stroke-width="0.5" stroke-linecap="round" stroke-linejoin="bevel"/>
<path d="M123.64 52.4252C123.112 51.7916 121.105 51.686 121.105 51.686L120.472 52.9532" stroke="black" stroke-width="0.5"/>
<path d="M114.196 51.8371C114.642 51.9294 115.036 51.6884 115.075 51.2989C115.115 50.9093 114.786 50.5187 114.34 50.4264C113.894 50.3341 113.5 50.5751 113.46 50.9647C113.42 51.3542 113.75 51.7449 114.196 51.8371Z" fill="black"/>
<path d="M122.043 52.7308C122.338 52.8243 122.618 52.6922 122.668 52.4359C122.719 52.1795 122.521 51.8959 122.227 51.8025C121.932 51.709 121.652 51.8411 121.602 52.0975C121.551 52.3539 121.749 52.6374 122.043 52.7308Z" fill="black"/>
<path d="M106.321 177.774C103.681 172.282 106.11 163.623 106.11 163.623C103.364 157.921 104.843 149.05 104.843 149.05L103.47 146.093L102.097 147.572C102.097 147.572 100.724 156.759 102.52 162.039C102.52 162.039 101.147 168.375 103.364 170.698C103.364 170.698 102.308 176.612 103.787 177.879C103.787 177.879 105.054 179.569 106.321 177.774Z" fill="#FF0000"/>
<path d="M94.3886 176.612C89.3197 167.847 94.3886 160.138 94.3886 160.138C93.3326 155.281 94.9165 146.833 94.9165 146.833L95.6558 147.149C95.6558 147.149 93.8606 156.125 95.5502 161.405C95.5502 161.405 91.7486 170.487 96.8174 177.985L94.3886 176.612Z" fill="#FF0000"/>
<path d="M113.291 175.978C116.67 174.183 115.825 169.959 115.825 169.959C114.347 163.834 116.248 161.405 116.248 161.405L114.03 153.908L116.353 157.076C116.353 157.076 117.198 161.405 116.67 162.673C116.67 162.673 118.677 167.425 117.093 170.593C117.093 170.593 117.621 175.134 114.453 176.401C113.291 177.246 113.291 175.978 113.291 175.978Z" fill="#FF0000"/>
<path d="M83.8282 174.817C81.3993 161.194 85.6235 155.386 85.6235 155.386C85.3067 152.007 88.3691 147.149 88.3691 147.149C88.3691 147.149 86.5739 154.647 87.2075 158.766C87.2075 158.766 84.4619 160.772 86.0459 165.841C86.0459 165.841 83.8283 170.91 86.9963 176.718C84.4619 176.823 83.8282 174.817 83.8282 174.817Z" fill="#FF0000"/>
<path d="M123.64 174.078C127.019 162.884 122.056 155.492 122.056 155.492L123.64 154.647C123.64 154.647 127.864 164.468 125.329 170.065L123.64 174.078Z" fill="#FF0000"/>
<path d="M109.957 48.2369C109.957 48.2369 115.856 48.6849 117.424 49.581L116.353 48.0425L112.552 47.2505C112.552 47.2505 110.794 48.1144 109.957 48.2369Z" fill="black"/>
<path d="M114.512 61.6033C114.81 61.678 115.706 62.126 115.706 62.126C115.706 62.126 117.947 62.8727 119.216 62.7234L118.677 61.8765L115.825 61.0317L114.512 61.6033Z" fill="black"/>
<path d="M118.465 63.1963C116.248 63.6715 115.297 63.4075 115.297 63.4075C115.297 63.4075 115.086 64.8859 117.937 64.5163C118.149 64.4635 118.465 63.1963 118.465 63.1963Z" fill="black"/>
<path d="M107.483 216.107C107.483 216.107 114.664 224.977 114.875 209.56C113.819 219.972 107.483 216.107 107.483 216.107Z" fill="black"/>
<path d="M107.866 50.8506L108.613 52.6427C108.613 52.6427 105.925 53.9868 106.074 56.6749C106.223 55.9282 107.866 50.8506 107.866 50.8506Z" fill="#F9F9F9"/>
<path d="M132.507 165.994C132.507 165.994 134.15 175.104 138.929 167.935C134.598 170.922 132.507 165.994 132.507 165.994Z" fill="white"/>
<defs>
<linearGradient id="paint0_linear_2689_15642" x1="135.067" y1="148.459" x2="-384.797" y2="148.459" gradientUnits="userSpaceOnUse">
<stop stop-color="white"/>
<stop offset="1" stop-color="#CCCCCC"/>
</linearGradient>
</defs>
</svg>
