<svg width="208" height="319" viewBox="0 0 208 319" fill="none" xmlns="http://www.w3.org/2000/svg">
<path d="M192.5 0.5H15.5C7.21573 0.5 0.5 7.21573 0.5 15.5V303.5C0.5 311.784 7.21573 318.5 15.5 318.5H192.5C200.784 318.5 207.5 311.784 207.5 303.5V15.5C207.5 7.21573 200.784 0.5 192.5 0.5Z" fill="url(#paint0_linear_2689_14091)" stroke="black" stroke-linecap="square"/>
<path d="M15 15H193V304H15V15Z" stroke="black"/>
<path d="M19.5235 24.2104C19.6018 23.8475 19.6813 23.5319 19.7602 23.2637C19.8385 22.9954 20.0048 22.6089 20.2573 22.104C20.5255 21.5833 20.8174 21.1572 21.1329 20.8259C21.4643 20.4788 21.914 20.1711 22.4821 19.9029C23.0658 19.6347 23.7205 19.5005 24.4464 19.5005C25.6771 19.5005 26.7107 19.9028 27.547 20.7075C28.3989 21.5122 28.8248 22.5063 28.8248 23.6897C28.8248 25.4726 27.815 27.4213 25.7954 29.5356L21.8192 33.7011H27.4758C28.0122 33.7011 28.4069 33.6143 28.6593 33.4408C28.9275 33.2514 29.2823 32.8175 29.7242 32.1391L30.0319 32.2574L28.7302 35.4998H19.4999V35.2159L23.7127 30.7426C25.7639 28.5652 26.7894 26.514 26.7894 24.589C26.7894 23.595 26.4819 22.7903 25.8665 22.175C25.2512 21.5596 24.4464 21.252 23.4523 21.252C22.6318 21.252 21.9692 21.4808 21.4644 21.9383C20.9752 22.3801 20.4938 23.1769 20.0205 24.3288L19.5235 24.2104Z" fill="black"/>
<path d="M188.476 294.79C188.397 295.152 188.318 295.468 188.239 295.736C188.161 296.005 187.994 296.391 187.742 296.896C187.474 297.417 187.182 297.843 186.866 298.174C186.535 298.521 186.085 298.829 185.517 299.097C184.933 299.365 184.279 299.499 183.553 299.5C182.322 299.499 181.289 299.097 180.452 298.292C179.6 297.488 179.174 296.494 179.174 295.31C179.174 293.527 180.184 291.579 182.204 289.464L186.18 285.299H180.523C179.987 285.299 179.592 285.386 179.34 285.559C179.072 285.749 178.717 286.182 178.275 286.861L177.967 286.743L179.269 283.5H188.499V283.784L184.287 288.257C182.235 290.435 181.21 292.486 181.21 294.411C181.21 295.405 181.517 296.21 182.133 296.825C182.748 297.44 183.553 297.748 184.547 297.748C185.367 297.748 186.03 297.519 186.535 297.062C187.024 296.62 187.505 295.823 187.979 294.671L188.476 294.79Z" fill="black"/>
<path d="M104 132.249C131.414 132.249 153.638 110.025 153.638 82.6106C153.638 55.1963 131.414 32.9727 104 32.9727C76.5857 32.9727 54.362 55.1963 54.362 82.6106C54.362 110.025 76.5857 132.249 104 132.249Z" fill="#FFCC00"/>
<path opacity="0.506" d="M101.486 112.342C117.876 112.342 131.163 99.0554 131.163 82.6656C131.163 66.2758 117.876 52.9893 101.486 52.9893C85.0966 52.9893 71.81 66.2758 71.81 82.6656C71.81 99.0554 85.0966 112.342 101.486 112.342Z" fill="#FF6600"/>
<path d="M101.184 28.8789L98.7702 32.8462L95.5836 29.4676L93.5965 33.6651L90.0745 30.6393L88.5373 35.0207L84.7181 32.3789L83.647 36.8979L79.5733 34.6702L78.9811 39.276L74.6958 37.4855L74.5882 42.1283L70.1397 40.7958L70.5179 45.4247L65.9538 44.5642L66.8144 49.1283L62.1855 48.7501L63.5179 53.1986L58.8751 53.3061L60.6656 57.5915L56.0599 58.1837L58.2876 62.2586L53.7685 63.3285L56.4103 67.1477L52.0278 68.6849L55.0547 72.2069L50.8573 74.194L54.2358 77.3806L50.2685 79.7945L53.9617 82.6109L50.2685 85.4262L54.2358 87.8413L50.8573 91.0279L55.0547 93.0138L52.0278 96.537L56.4103 98.073L53.7685 101.892L58.2876 102.963L56.0599 107.038L60.6656 107.63L58.8751 111.915L63.5179 112.023L62.1855 116.472L66.8144 116.094L65.9538 120.657L70.5179 119.797L70.1397 124.425L74.5882 123.092L74.6958 127.735L78.9811 125.946L79.5733 130.552L83.647 128.324L84.7181 132.842L88.5373 130.2L90.0745 134.583L93.5965 131.556L95.5836 135.753L98.7702 132.376L101.184 136.342L104.001 132.65L106.816 136.342L109.231 132.376L112.417 135.753L114.403 131.556L117.925 134.583L119.463 130.2L123.282 132.842L124.353 128.324L128.427 130.552L129.02 125.946L133.304 127.735L133.412 123.092L137.861 124.425L137.483 119.797L142.046 120.657L141.187 116.094L145.815 116.472L144.482 112.023L149.125 111.915L147.335 107.63L151.941 107.038L149.712 102.963L154.231 101.892L151.59 98.073L155.972 96.537L152.945 93.0138L157.143 91.0279L153.765 87.8413L157.731 85.4262L154.039 82.6109L157.731 79.7945L153.765 77.3806L157.143 74.194L152.945 72.2069L155.972 68.6849L151.59 67.1477L154.231 63.3285L149.712 62.2586L151.941 58.1837L147.335 57.5915L149.125 53.3061L144.482 53.1986L145.815 48.7501L141.187 49.1283L142.046 44.5642L137.483 45.4247L137.861 40.7958L133.412 42.1283L133.304 37.4855L129.02 39.276L128.427 34.6702L124.353 36.8979L123.282 32.3789L119.463 35.0207L117.925 30.6393L114.403 33.6651L112.417 29.4676L109.231 32.8462L106.816 28.8789L104.001 32.5721L101.184 28.8789ZM104.001 35.1838C110.229 35.1839 116.396 36.4106 122.15 38.7941C127.904 41.1776 133.132 44.6711 137.536 49.0751C141.94 53.4791 145.433 58.7074 147.817 64.4615C150.2 70.2156 151.427 76.3828 151.427 82.6109C151.426 95.1891 146.43 107.252 137.536 116.146C128.642 125.04 116.579 130.037 104.001 130.037C97.7724 130.037 91.6052 128.81 85.8511 126.427C80.097 124.044 74.8687 120.55 70.4647 116.146C66.0607 111.743 62.5672 106.514 60.1837 100.76C57.8003 95.0063 56.5735 88.8391 56.5734 82.6109C56.5733 76.3827 57.8 70.2154 60.1834 64.4613C62.5668 58.7071 66.0603 53.4787 70.4643 49.0747C74.8683 44.6706 80.0967 41.1772 85.8509 38.7938C91.605 36.4104 97.7723 35.1837 104.001 35.1838Z" fill="black"/>
<path d="M81.3468 110.335L82.5445 107.673L87.8676 103.281L88.9322 93.8329L84.9399 91.8368L81.6129 89.4414L82.0122 84.3844L80.6814 83.0536L81.1182 81.0128L80.4811 79.7861L80.016 76.9321L77.3544 74.2705L82.3448 65.6205L83.3429 61.7612L84.0083 58.1681L84.1414 54.0427L86.0045 49.9173L90.6622 47.7881L95.5861 44.8604H105.567L110.89 46.1911L113.418 46.4573L119.806 51.9135L124.464 56.4381L126.726 60.8297L128.057 72.6736L128.456 76.5328L126.194 82.1221L124.065 83.8521L120.472 85.1829L116.878 85.0498L121.669 89.5744L122.867 92.1029L124.73 93.101L126.194 95.696L123.932 99.2891L120.738 102.217L115.947 103.415L112.753 100.753L107.297 101.951L94.3884 107.54L86.5368 110.068L81.3468 110.335Z" fill="#FFCC00"/>
<path d="M87.7625 100.498L83.7702 101.296L80.1771 104.756L76.3179 108.083L76.0517 113.539L78.8463 115.269L85.8994 115.669L94.6826 115.003L102.401 113.406L111.983 114.142L117.971 113.429L123.059 110.079L122.097 102.76L115.443 103.426L112.116 100.365L106.926 102.361L97.211 105.821L87.4964 109.148L81.9071 110.479L80.9756 109.68L83.504 106.886L87.4964 103.692L87.7625 100.498Z" fill="#E60000"/>
<path d="M103.865 59.9094L105.54 54.1548L108.256 56.1832L111.317 60.974L114.112 67.3618L117.04 74.1487L118.104 79.2057L116.773 84.928L114.112 84.1295L113.736 80.0041L111.983 76.6772L110.785 73.3503L108.789 71.7533L107.458 65.4987L105.329 64.301L103.865 59.9094Z" fill="#E60000"/>
<path d="M64.9473 100.396L68.1229 99.8621L68.8491 99.687L68.885 99.7562L68.3206 100.243L66.0543 102.527L66.7048 103.779L70.6875 99.5052L70.1268 98.4258L64.3111 99.1713L64.9473 100.396Z" fill="black"/>
<path d="M66.6195 91.6268L67.4182 91.0737L67.0212 89.687L62.2827 93.1358L62.6818 94.53L68.5382 94.9866L68.167 93.6898L67.1967 93.6431L67.0575 93.6667L67.0338 93.5275L66.5425 91.811L66.4889 91.6803L66.6195 91.6268ZM65.9618 93.6073L65.8097 93.586L64.5192 93.5255L63.8873 93.5279L63.8658 93.453L64.4054 93.1282L65.4707 92.4015L65.5906 92.3104L65.6142 92.4496L65.9082 93.4766L65.9618 93.6073Z" fill="black"/>
<path d="M62.5259 82.6095C61.9036 82.6509 61.6116 82.8422 61.3792 83.1077C61.0596 83.4728 60.8905 83.9842 60.9433 84.7777L61.1146 87.3528L66.6071 86.9873L66.5212 85.6959L64.6307 85.8217L64.5 85.8538L64.5062 85.7128L64.4617 85.0437L66.3829 83.6187L66.2841 82.1328C66.2218 82.137 66.1845 82.1629 66.1248 82.2059L64.2145 83.6771C63.9786 82.8332 63.3428 82.5551 62.5259 82.6095ZM62.6181 83.877C63.0849 83.846 63.3338 84.0638 63.3674 84.5695L63.4482 85.7832L63.4731 85.9222L63.3393 85.9076L62.2034 85.9832L62.0727 86.0153L62.079 85.8743L61.9982 84.6606C61.9646 84.1549 62.2058 83.9045 62.6181 83.877Z" fill="black"/>
<path d="M61.0251 78.732L66.5014 79.2895L66.6325 78.0019L61.1562 77.4443L61.0251 78.732Z" fill="black"/>
<path d="M62.3245 70.8668C62.0746 71.7522 62.2097 72.479 62.5338 73.0242C62.8795 73.6078 63.3241 73.9845 64.3296 74.2683C65.3876 74.5669 66.0182 74.4856 66.6265 74.1388C67.1749 73.8318 67.6433 73.2916 67.8827 72.4437C68.1283 71.5733 68.0019 70.8733 67.7003 70.3345C67.3631 69.7208 66.8681 69.3218 65.81 69.0232C64.8045 68.7394 64.2308 68.8205 63.6309 69.1373C63.0675 69.44 62.5744 69.9814 62.3245 70.8668ZM66.8021 72.1387C66.6835 72.5589 66.452 72.8339 66.1826 72.9847C65.8341 73.186 65.4304 73.2098 64.6875 73.0002C63.9522 72.7926 63.7159 72.5963 63.5103 72.2628C63.3445 71.9892 63.2801 71.6145 63.4051 71.1718C63.5321 70.7216 63.7862 70.453 64.0631 70.3043C64.4148 70.1201 64.7189 70.0763 65.4542 70.2838C66.1971 70.4935 66.5288 70.7248 66.7184 71.0862C66.8692 71.3556 66.925 71.7035 66.8021 72.1387Z" fill="black"/>
<path d="M66.5849 63.0661C66.8635 62.5431 67.2817 62.2889 67.5977 62.2099L67.7908 62.1626L67.817 61.0192C67.755 60.9862 67.6922 60.988 67.6326 61.0005L67.5661 61.0092C67.0016 61.1236 66.1771 61.5766 65.6527 62.5605C65.0331 63.7234 65.1197 64.8209 66.1724 65.3819C66.5715 65.5946 66.9687 65.6119 67.3347 65.4888C67.7428 65.3529 68.0991 65.0657 68.4539 64.5656L69.0255 63.7747C69.2282 63.494 69.5078 63.2013 69.845 63.3809C70.1684 63.5533 70.2337 63.9945 69.9 64.6206C69.5737 65.233 69.067 65.5373 68.6593 65.6557L68.519 65.687L68.4928 66.8304C68.5547 66.8634 68.5932 66.8574 68.6703 66.8455L68.895 66.7885C69.5058 66.6369 70.2675 66.1858 70.8578 65.078C71.6132 63.6605 71.1413 62.6228 70.3569 62.2048C69.9509 61.9885 69.551 61.9432 69.1712 62.0589C68.7599 62.1843 68.361 62.5018 67.9846 63.0257L67.4345 63.7927C67.1558 64.1831 66.922 64.3235 66.6536 64.1805C66.3852 64.0375 66.2805 63.6372 66.5849 63.0661Z" fill="black"/>
<path d="M136.67 60.7138C137.045 60.78 137.449 60.7055 137.957 60.3165L138.019 60.2691C138.569 59.8469 138.705 59.5367 138.759 59.1712C138.823 58.7292 138.687 58.2441 138.25 57.6748L136.637 55.571L132.269 58.9202L133.056 59.9473L134.504 58.8373L134.595 58.7381L134.668 58.8589L135.422 59.8428C135.859 60.412 136.245 60.6465 136.67 60.7138ZM137.23 59.2529C136.821 59.566 136.511 59.5194 136.198 59.111L135.51 58.2138L135.412 58.1119L135.531 58.0498L136.49 57.3145L136.581 57.2153L136.654 57.3362L137.342 58.2334C137.655 58.6417 137.595 58.973 137.23 59.2529Z" fill="black"/>
<path d="M141.953 67.5799C142.516 67.311 142.717 67.0251 142.834 66.6924C142.996 66.235 142.964 65.6973 142.621 64.9797L141.508 62.6511L136.541 65.0243L137.099 66.1922L138.809 65.3753L138.918 65.2971L138.965 65.4304L139.254 66.0354L137.997 68.0705L138.639 69.4142C138.695 69.3873 138.72 69.3494 138.76 69.2873L139.99 67.2134C140.521 67.91 141.215 67.9328 141.953 67.5799ZM141.399 66.4365C140.976 66.6382 140.665 66.528 140.446 66.0707L139.922 64.9733L139.847 64.8534L139.977 64.8173L141.004 64.3265L141.113 64.2483L141.16 64.3816L141.684 65.4791C141.903 65.9364 141.771 66.2584 141.399 66.4365Z" fill="black"/>
<path d="M141.592 76.0939L140.901 73.2447L140.853 73.112L140.988 73.1035L141.904 72.8813L142.028 72.8273L142.046 72.9674L142.631 75.3846L143.67 75.1331L143.084 72.7158L143.036 72.5831L143.17 72.5746L144.049 72.3616L144.172 72.3076L144.19 72.4477L144.862 75.2211L145.893 74.9713L144.888 70.8264L139.539 72.1229L140.561 76.3436L141.592 76.0939Z" fill="black"/>
<path d="M143.725 83.8539L141.067 83.8853L141.082 85.1717L146.586 85.1067L146.568 83.5786L143.489 82.2817L143.488 82.2349L146.536 80.8577L146.518 79.2906L141.013 79.3557L141.028 80.6265L143.687 80.595L144.536 80.546L144.537 80.6084L143.66 80.9618L141.666 81.8119L141.677 82.6851L143.69 83.4879L144.575 83.8283L144.576 83.8907L143.725 83.8539Z" fill="black"/>
<path d="M146.026 89.4318L140.605 88.4746L140.38 89.7492L145.8 90.7063L146.026 89.4318Z" fill="black"/>
<path d="M144.151 97.1847C144.465 96.3202 144.384 95.5854 144.102 95.0177C143.8 94.4101 143.385 94.0016 142.403 93.6441C141.37 93.2679 140.735 93.3023 140.103 93.6031C139.533 93.8686 139.026 94.3727 138.724 95.2005C138.415 96.0504 138.489 96.7579 138.75 97.3175C139.041 97.9545 139.505 98.389 140.538 98.7652C141.52 99.1226 142.098 99.0843 142.72 98.8128C143.304 98.5525 143.836 98.0492 144.151 97.1847ZM139.779 95.5847C139.929 95.1744 140.18 94.9174 140.46 94.787C140.822 94.6119 141.227 94.6181 141.952 94.8822C142.67 95.1437 142.891 95.3569 143.071 95.7047C143.216 95.9899 143.253 96.3683 143.096 96.8005C142.935 97.2401 142.662 97.4891 142.375 97.6169C142.011 97.7746 141.704 97.7958 140.986 97.5343C140.261 97.2702 139.947 97.015 139.785 96.6405C139.654 96.3607 139.625 96.0096 139.779 95.5847Z" fill="black"/>
<path d="M139.312 104.652C138.995 105.153 138.559 105.374 138.237 105.429L138.041 105.461L137.928 106.599C137.987 106.637 138.05 106.64 138.111 106.632L138.178 106.628C138.749 106.557 139.606 106.168 140.203 105.227C140.91 104.115 140.907 103.014 139.9 102.374C139.518 102.132 139.123 102.085 138.749 102.179C138.332 102.284 137.955 102.543 137.563 103.015L136.933 103.76C136.709 104.025 136.408 104.295 136.086 104.09C135.776 103.894 135.745 103.449 136.125 102.85C136.497 102.264 137.025 101.999 137.441 101.912L137.583 101.892L137.696 100.754C137.637 100.716 137.598 100.719 137.52 100.725L137.292 100.765C136.671 100.87 135.878 101.261 135.205 102.321C134.344 103.677 134.736 104.748 135.486 105.224C135.874 105.471 136.27 105.546 136.657 105.46C137.077 105.366 137.499 105.08 137.914 104.586L138.521 103.863C138.828 103.495 139.072 103.373 139.329 103.536C139.585 103.699 139.659 104.106 139.312 104.652Z" fill="black"/>
<path d="M94.9849 115.444C99.3677 114.551 102.804 114.28 108.722 114.361C116.096 114.461 116.836 114.366 119.996 112.92C123.741 111.205 123.799 111.046 122.827 105.123C122.364 102.306 122.42 102.129 124.343 100.316C126.558 98.2267 126.881 96.3059 125.474 93.5855C124.998 92.666 124.066 91.7714 123.401 91.5977C122.736 91.4238 122.193 90.7908 122.193 90.1899C122.193 89.5894 121.194 88.242 119.972 87.1957L117.751 85.2933L120.545 85.2711C122.919 85.2522 123.641 84.9455 125.359 83.2277C127.668 80.9185 129.846 75.0946 128.863 73.8564C128.277 73.1178 127.951 71.2129 126.998 62.968C126.73 60.6477 126.111 58.1794 125.623 57.4829C125.135 56.7863 122.166 53.8212 119.025 50.8938C114.577 46.7481 112.937 45.5712 111.61 45.5712C110.672 45.5712 108.783 45.1751 107.411 44.6911C105.438 43.9949 103.72 43.9138 99.1938 44.3029C94.2524 44.7277 93.0712 45.05 90.5422 46.6635C88.9313 47.6913 87.307 48.5322 86.9327 48.5322C86.5584 48.5322 85.7874 49.0457 85.2195 49.6733C83.6485 51.4093 82.8633 55.0173 82.3583 62.8204C82.2695 64.1927 81.2033 66.573 79.4063 69.4112C77.8592 71.8547 76.5933 74.1464 76.5933 74.504C76.5933 74.8615 77.2471 75.5824 78.0461 76.1059C79.0734 76.779 79.5036 77.6069 79.515 78.9326C79.5227 79.8345 80.5682 80.579 80.5866 81.1984C80.594 81.4481 80.2886 81.6774 80.0338 81.8885C79.6075 82.2044 79.7141 82.5319 79.754 82.9837C79.8588 83.9609 80.0286 84.313 80.4818 84.6891C81.0964 85.1992 81.2423 86.0076 80.9759 87.4272C80.5118 89.9013 81.6981 91.4368 85.3283 93.0611C87.3958 93.9862 87.8437 94.4731 87.8371 95.7881C87.8209 99.0004 87.2179 100.007 85.0679 100.41C83.645 100.677 81.8738 101.91 79.3063 104.422C76.3406 107.323 75.7404 107.997 75.5707 109.855C75.5371 110.222 76.0584 110.241 76.0436 110.728C76.0273 111.26 75.5011 112.166 75.5362 112.624C75.616 113.67 75.8166 114.449 76.0804 114.612C77.2321 115.324 83.2758 116.478 86.2717 116.559C87.849 116.601 91.77 116.1 94.9849 115.444ZM79.9684 114.879C76.918 114.289 76.1008 113.415 77.1009 111.813C77.6561 110.924 77.6938 110.393 77.2341 109.933C76.0782 108.777 76.5568 107.79 79.0309 106.229C80.3715 105.382 81.5974 104.197 81.7551 103.594C82.0242 102.564 84.6694 101.238 86.453 101.238C88.0025 101.238 87.2813 103.562 85.4356 104.517C83.2886 105.627 80.1886 108.885 80.1639 110.058C80.1255 111.885 86.9856 110.263 98.3876 105.75C112.405 100.202 111.685 100.396 113.322 101.721C116.01 103.898 112.687 105.757 105.083 106.331C97.6581 106.891 97.1849 108.014 104.536 107.629C109.311 107.38 110.674 107.064 113.655 105.517C119.927 102.261 121.449 102.392 117.852 105.878C115.671 107.993 110.715 110.121 107.974 110.121C107 110.121 106.203 110.422 106.203 110.789C106.203 112.496 116.779 108.951 118.996 106.501C120.192 105.18 121.601 105.033 121.601 106.23C121.601 108.092 118.862 109.855 113.606 111.377L110.053 112.406L112.475 112.448C114.066 112.476 116.161 111.859 118.58 110.65C120.606 109.638 122.407 108.954 122.583 109.13C123.229 109.775 121.976 110.869 119.011 112.249C115.189 114.029 110.156 114.117 103.498 112.521C95.9169 110.703 93.3162 110.54 88.4708 111.578C86.0463 112.097 83.9802 112.604 83.8796 112.705C83.7789 112.806 86.4591 112.765 89.8356 112.615C97.3312 112.282 98.5423 113.136 92.506 114.5C88.1153 115.491 83.8034 115.622 79.9684 114.879ZM81.9232 109.048C81.9232 108.434 84.698 105.898 86.7839 104.606C88.2739 103.683 88.3997 103.287 88.5605 99.0202L88.7335 94.428L91.6945 94.0605C95.2816 93.6154 98.8881 92.1625 100.775 90.4023C102.389 88.8971 104.709 84.6566 103.919 84.6566C103.626 84.6566 103.068 85.4248 102.679 86.3637C101.123 90.1202 96.9828 92.4095 91.5033 92.5431C87.5644 92.6391 84.7072 91.9418 83.1697 90.5094C82.0535 89.4696 81.9036 88.8936 82.2364 86.9238C82.5564 85.0301 82.4215 84.4209 81.5378 83.7684C79.8004 82.4855 81.3004 81.3626 83.6549 82.1834C84.1949 82.3717 84.7106 82.8901 84.9805 82.9283C85.518 83.0043 85.4764 82.36 85.4764 81.6997C85.4764 80.365 84.4979 79.5977 84.1448 80.6556C83.9568 81.219 83.4776 81.249 82.1696 80.7792C80.731 80.2625 80.4736 79.8757 80.6282 78.4625C80.765 77.2113 80.4097 76.4416 79.2742 75.5296L77.7348 74.2931L80.7393 69.5554C82.9253 66.1083 83.6515 64.4448 83.4051 63.4485C83.1707 62.5007 83.724 60.997 85.2026 58.5629C86.3775 56.6288 87.5689 55.0465 87.8502 55.0465C88.1315 55.0465 88.9607 56.1124 89.693 57.4153C90.4252 58.7181 91.2417 59.7841 91.5075 59.7841C91.7732 59.7841 91.9906 60.4639 91.9906 61.2948C91.9906 62.4728 92.4656 63.004 94.1474 63.7067C95.3337 64.2024 96.9326 64.4502 97.7007 64.2574C98.9823 63.9357 99.0974 64.0904 99.1009 66.139C99.1033 67.3692 99.6329 69.1684 100.281 70.1476C101.699 72.2887 101.808 74.3313 100.529 74.8219C99.0357 75.395 98.5048 75.2472 98.5048 74.2581C98.5048 73.7503 98.2383 73.4996 97.9126 73.7009C96.9364 74.3042 97.2414 76.2867 98.5048 77.5502C99.1563 78.2016 99.6892 78.982 99.6892 79.2845C99.6892 79.5869 100.132 80.277 100.673 80.818C101.438 81.5828 102.246 81.7131 104.308 81.4039C106.721 81.042 106.92 81.1038 106.516 82.0912C106.272 82.6879 105.935 84.9415 105.767 87.0992C105.499 90.5508 105.615 91.1746 106.729 92.289C107.426 92.9856 108.413 94.5975 108.922 95.8708C109.432 97.1441 110.228 98.3313 110.691 98.5091C112.372 99.1541 111.463 100.041 108.129 101.011C106.256 101.555 101.926 103.186 98.5053 104.635C95.0851 106.084 90.8459 107.778 89.0849 108.4C85.8051 109.557 81.9232 109.908 81.9232 109.048ZM85.8301 74.4363C85.9637 72.8209 85.2881 72.1109 84.5986 71.8463C83.4369 71.4006 82.9388 71.8612 83.4612 72.5373C83.5812 72.6927 84.055 72.6274 84.3166 72.7468C85.715 73.9551 84.8486 76.3 83.0721 75.9282C82.2609 75.7246 81.3309 75.386 81.3309 75.6636C81.3309 76.5966 82.1647 77.0135 83.6776 76.8371C84.949 76.6888 85.6744 76.3193 85.8301 74.4363ZM88.4562 70.8879C88.4666 70.4808 88.858 69.6417 89.326 69.0234C90.005 68.1264 90.3496 68.0425 91.0311 68.608C91.6519 69.1233 91.9966 69.1365 92.2933 68.6565C92.7769 67.8739 92.9243 67.9928 89.7698 66.6209C88.3856 66.0188 87.253 65.1703 87.253 64.7354C87.253 64.161 88.1855 64.3628 90.6581 65.4721C95.7005 67.7342 96.0423 67.7676 93.7672 65.7759C93.0826 65.1765 92.3821 64.593 91.7211 64.2581C91.2814 64.0354 90.8067 63.949 90.5567 63.9455C89.931 63.9367 88.9423 63.4982 88.3598 62.971C87.9648 62.6135 87.6549 62.3008 87.158 62.2235C86.7766 62.1641 86.2271 62.282 85.7963 62.3901C84.1518 62.8029 83.7301 63.9295 85.2202 63.9295C85.8789 63.9295 85.9727 63.9407 85.7059 64.7812C85.6575 64.9338 85.4045 65.0982 85.2236 65.2311C84.9455 65.6645 85.4542 65.6715 85.8281 65.7134C86.2546 65.8338 86.7679 66.2492 86.7662 66.5738C86.7607 67.6282 86.9593 68.4274 88.1403 69.1378C88.4732 69.338 88.0972 69.5653 87.6061 69.8604C85.5814 70.4242 88.8282 72.7202 88.4562 70.8879ZM114.56 101.454C113.504 100.715 113.282 100.063 113.427 98.1197C113.525 96.7913 113.937 95.5957 114.341 95.4628C114.87 95.2888 114.972 95.739 114.706 97.0709C114.421 98.4971 114.636 99.2396 115.644 100.313C117.196 101.965 116.434 102.767 114.56 101.454ZM116.389 100.528C114.589 98.7274 116.115 97.2317 118.672 98.2906C120.124 98.8922 120.653 98.8507 121.893 98.0379C123.616 96.9094 123.834 95.0404 122.341 94.1982C120.715 93.2804 122.245 92.0243 123.906 92.9134C125.955 94.0103 125.769 97.3702 123.548 99.365C122.034 100.725 120.979 100.798 118.344 99.7231C117.289 99.293 117.249 99.3497 117.972 100.239C118.663 101.089 118.659 101.238 117.942 101.238C117.479 101.238 116.78 100.919 116.389 100.528ZM119.824 97.2147C119.824 96.9018 120.255 96.2884 120.781 95.8518C121.608 95.1649 121.708 95.2084 121.521 96.1744C121.298 97.3254 119.824 98.229 119.824 97.2147ZM110.286 94.748C109.751 92.9633 109.746 91.5957 110.262 89.0233C111.34 83.6586 111.047 82.0584 109.734 86.1371C109.104 88.0914 108.577 90.2233 108.562 90.8747L108.535 92.0592L107.619 90.8747C106.943 90.0012 106.783 88.8353 107.009 86.4332C107.547 80.7181 108.595 73.1842 108.895 72.8849C109.638 72.1416 110.67 74.3644 111.002 77.4267C111.283 80.0132 111.474 80.4959 111.815 79.4815C112.57 77.2327 113.31 78.6299 113.31 82.305C113.31 85.5078 113.461 85.9173 115.087 87.1191C116.589 88.2301 116.863 88.8317 116.863 91.0211C116.863 92.5959 117.095 93.4662 117.455 93.2436C117.781 93.0423 118.048 91.8738 118.048 90.6469C118.048 89.0342 117.638 88.0316 116.569 87.0276C114.125 84.7309 115.451 84.9192 118.329 87.2775C120.544 89.0931 121.009 89.8199 121.009 91.473C121.009 94.2467 119.13 95.6002 116.889 94.4412C115.538 93.7429 115.349 93.3255 115.561 91.5106C115.896 88.6416 115.282 88.8366 114.469 91.8576C113.75 94.5269 112.29 97.0929 111.489 97.0929C111.214 97.0929 110.673 96.0377 110.286 94.748ZM116.863 96.5007C116.863 96.175 117.13 95.9085 117.455 95.9085C117.781 95.9085 118.048 96.175 118.048 96.5007C118.048 96.8264 117.781 97.0929 117.455 97.0929C117.13 97.0929 116.863 96.8264 116.863 96.5007ZM119.071 84.01C117.627 83.1694 118.391 82.2027 120.15 82.6442C121.085 82.879 122.339 82.5612 123.741 81.734C124.926 81.035 126.033 80.6007 126.201 80.7689C126.991 81.5588 122.706 84.6811 120.89 84.6386C120.467 84.6287 119.648 84.3458 119.071 84.01ZM114.236 80.8557C114.021 79.4166 113.457 77.9183 112.985 77.5261C112.512 77.1339 112.126 76.1672 112.126 75.378C112.126 74.5888 111.485 73.3026 110.702 72.5198C109.888 71.7061 109.096 70.0054 108.852 68.5493C108.601 67.0571 107.723 65.2006 106.73 64.0667C104.512 61.5326 104.105 59.6825 105.173 57.0025L106.048 54.8105L108.204 57.1492C109.527 58.5844 111.049 61.3183 112.144 64.2256C113.125 66.8313 114.242 69.4962 114.626 70.1476C117.596 75.1795 118.108 77.8711 116.805 81.6072C115.871 84.2866 114.7 83.9438 114.236 80.8557ZM119.232 81.0848C119.232 80.4441 119.659 80.2493 122.366 79.6549C123.427 79.4218 124.698 78.324 125.919 76.5859C127.524 74.2999 127.848 74.0726 128.008 75.1218C128.112 75.8049 127.649 77.1333 126.979 78.074C125.291 80.4446 119.232 82.7994 119.232 81.0848ZM101.861 79.5242C101.165 78.8285 101.432 78.3481 102.88 77.6881C103.889 77.2283 104.63 76.0069 105.467 73.4244C106.848 69.16 105.971 68.8867 104.378 73.0848C103.212 76.1563 102.456 76.9343 100.622 76.9489C99.5521 76.9574 99.5638 76.8717 100.815 75.5402C101.58 74.7255 102.522 72.4752 103.03 70.2503C104.14 65.3822 105.259 64.2554 106.934 66.3175C107.988 67.6147 108.077 68.3103 107.729 72.5117C107.271 78.0366 106.303 79.919 103.92 79.919C103.004 79.919 102.078 79.7413 101.861 79.5242ZM118.64 78.8196C118.64 78.4701 119.239 77.8756 119.972 77.4987C122.478 76.2099 124.562 73.8141 124.562 72.2227C124.562 71.3688 124.956 70.1528 125.439 69.5206C126.2 68.5228 126.398 68.4883 126.935 69.2593C128.264 71.1638 126.455 75.3786 123.341 77.6349C121.513 78.9589 118.64 79.6831 118.64 78.8196ZM118.106 75.0333C117.747 74.0684 117.916 73.3113 118.717 72.2885C119.326 71.5118 119.824 70.2675 119.824 69.5236C119.824 68.7796 120.282 67.3734 120.841 66.3987C121.835 64.667 121.818 64.5442 120.101 61.0223C119.134 59.0399 118.139 57.4174 117.89 57.4166C117.64 57.416 118.106 58.7389 118.926 60.3566C120.635 63.7292 120.789 65.2517 119.528 66.2983C119.039 66.7038 118.631 67.6025 118.621 68.2955C118.611 68.9885 118.2 70.0871 117.709 70.737C116.729 72.0337 116.605 71.9397 114.738 68.4899C113.909 66.956 113.937 66.6777 115.12 64.763C116.011 63.3215 116.284 62.2076 116.02 61.0909C115.811 60.2093 115.563 58.3799 115.467 57.0256C115.372 55.6713 114.826 53.8494 114.255 52.9769C112.923 50.9444 112.36 51.4485 113.493 53.659C114.741 56.0927 115.412 63.6582 114.435 64.2626C114.011 64.5244 113.584 64.4546 113.467 64.1044C113.352 63.7595 112.317 61.9144 111.166 60.0041C109.671 57.5208 109.164 56.0857 109.387 54.9694C109.57 54.0552 109.252 52.5298 108.619 51.2893C107.368 48.8352 107.68 48.0766 109.326 49.5673C110.422 50.5589 113.31 51.0757 113.31 50.2801C113.31 49.5095 110.996 47.836 110.422 48.191C110.095 48.3929 108.946 48.0203 107.868 47.363C105.793 46.0979 103.242 45.763 103.242 46.7556C103.242 47.0813 103.909 47.3478 104.723 47.3478C106.101 47.3478 106.46 47.8457 106.266 49.4896C106.223 49.8533 106.591 50.4855 107.084 50.8945C108.048 51.695 108.334 55.0465 107.438 55.0465C107.139 55.0465 106.051 53.9805 105.019 52.6776C103.987 51.3748 102.852 50.3088 102.497 50.3088C102.142 50.3088 102.431 50.9256 103.139 51.6794C104.623 53.2593 104.824 56.0604 103.575 57.7462C102.847 58.7274 102.544 58.7866 101.502 58.1505C100.408 57.4825 100.281 57.5456 100.281 58.759C100.281 61.468 97.373 63.8756 95.4994 62.7176C94.8786 62.334 94.8944 62.0471 95.5819 61.2187C96.1292 60.5592 96.4441 58.7483 96.4659 56.1357C96.5078 51.0853 95.6711 51.601 95.427 56.7761C95.2456 60.624 94.0376 62.4263 93.3647 59.8531C93.1863 59.1711 92.8192 58.7497 92.5488 58.9168C91.7137 59.4329 89.0296 54.1705 89.0296 52.0171C89.0296 49.5601 89.4755 48.4249 92.1416 46.7766C93.7745 45.767 94.0123 45.5996 100.131 44.979C103.534 44.979 106.237 45.3007 107.593 45.8673C108.762 46.3559 110.639 46.7556 111.764 46.7556C113.416 46.7556 114.01 47.4913 115.826 49.111C117.099 50.246 119.089 52.4184 120.613 53.5819C125.361 57.2076 127.003 62.7352 124.858 67.8702C124.369 69.0395 123.97 70.5233 123.97 71.1675C123.97 72.4139 120.398 76.3658 119.272 76.3658C118.903 76.3658 118.379 75.7662 118.106 75.0333ZM94.8618 51.4881C96.3916 49.4189 95.7236 49.1063 93.9234 51.0491C92.6294 52.4455 92.3527 53.5811 92.5887 56.527C92.7115 58.059 92.7876 57.9564 93.1416 55.7815C93.3674 54.3944 94.1415 52.4624 94.8618 51.4881ZM100.979 69.3909C100.497 68.5313 100.316 66.705 100.48 64.3571C100.71 61.0833 100.887 60.6501 102.072 60.4725C104.535 60.1031 105.256 63.4699 103.302 66.2147C102.683 67.0835 102.078 68.4571 101.957 69.2671L101.736 70.7398L100.979 69.3909ZM83.6998 56.5619C83.6998 56.0926 83.9663 55.5439 84.292 55.3426C84.6177 55.1413 84.8842 54.3085 84.8842 53.4921C84.8842 51.5373 85.8938 49.7166 86.9777 49.7166C88.3632 49.7166 88.0085 52.4563 86.286 55.0591C84.6795 57.4867 83.6998 58.056 83.6998 56.5619Z" fill="black"/>
<path d="M104 286.027C131.414 286.027 153.638 263.804 153.638 236.389C153.638 208.975 131.414 186.751 104 186.751C76.5857 186.751 54.362 208.975 54.362 236.389C54.362 263.804 76.5857 286.027 104 286.027Z" fill="#FFCC00"/>
<path opacity="0.506" d="M101.486 266.121C117.876 266.121 131.163 252.835 131.163 236.445C131.163 220.055 117.876 206.769 101.486 206.769C85.0966 206.769 71.81 220.055 71.81 236.445C71.81 252.835 85.0966 266.121 101.486 266.121Z" fill="#FF6600"/>
<path d="M101.184 182.658L98.7702 186.626L95.5836 183.247L93.5965 187.444L90.0745 184.419L88.5373 188.8L84.7181 186.158L83.647 190.677L79.5733 188.45L78.9811 193.055L74.6958 191.265L74.5882 195.908L70.1397 194.575L70.5179 199.204L65.9538 198.343L66.8144 202.908L62.1855 202.529L63.5179 206.978L58.8751 207.085L60.6656 211.371L56.0599 211.963L58.2876 216.038L53.7685 217.108L56.4103 220.927L52.0278 222.464L55.0547 225.986L50.8573 227.973L54.2358 231.16L50.2685 233.574L53.9617 236.39L50.2685 239.206L54.2358 241.621L50.8573 244.807L55.0547 246.793L52.0278 250.316L56.4103 251.852L53.7685 255.672L58.2876 256.743L56.0599 260.817L60.6656 261.41L58.8751 265.694L63.5179 265.803L62.1855 270.251L66.8144 269.873L65.9538 274.436L70.5179 273.576L70.1397 278.204L74.5882 276.872L74.6958 281.515L78.9811 279.725L79.5733 284.331L83.647 282.103L84.7181 286.621L88.5373 283.979L90.0745 288.362L93.5965 285.335L95.5836 289.532L98.7702 286.155L101.184 290.121L104.001 286.429L106.816 290.121L109.231 286.155L112.417 289.532L114.403 285.335L117.925 288.362L119.463 283.979L123.282 286.621L124.353 282.103L128.427 284.331L129.02 279.725L133.304 281.515L133.412 276.872L137.861 278.204L137.483 273.576L142.046 274.436L141.187 269.873L145.815 270.251L144.482 265.803L149.125 265.694L147.335 261.41L151.941 260.817L149.712 256.743L154.231 255.672L151.59 251.852L155.972 250.316L152.945 246.793L157.143 244.807L153.765 241.621L157.731 239.206L154.039 236.39L157.731 233.574L153.765 231.16L157.143 227.973L152.945 225.986L155.972 222.464L151.59 220.927L154.231 217.108L149.712 216.038L151.941 211.963L147.335 211.371L149.125 207.085L144.482 206.978L145.815 202.529L141.187 202.908L142.046 198.343L137.483 199.204L137.861 194.575L133.412 195.908L133.304 191.265L129.02 193.055L128.427 188.45L124.353 190.677L123.282 186.158L119.463 188.8L117.925 184.419L114.403 187.444L112.417 183.247L109.231 186.626L106.816 182.658L104.001 186.351L101.184 182.658ZM104.001 188.963C110.229 188.963 116.396 190.19 122.15 192.573C127.904 194.957 133.132 198.45 137.536 202.854C141.94 207.258 145.433 212.487 147.817 218.241C150.2 223.995 151.427 230.162 151.427 236.39C151.426 248.968 146.43 261.031 137.536 269.925C128.642 278.819 116.579 283.816 104.001 283.816C97.7724 283.816 91.6052 282.59 85.8511 280.206C80.097 277.823 74.8687 274.33 70.4647 269.926C66.0607 265.522 62.5672 260.294 60.1837 254.54C57.8003 248.786 56.5735 242.618 56.5734 236.39C56.5733 230.162 57.8 223.995 60.1834 218.241C62.5668 212.486 66.0603 207.258 70.4643 202.854C74.8683 198.45 80.0967 194.956 85.8509 192.573C91.605 190.19 97.7723 188.963 104.001 188.963Z" fill="black"/>
<path d="M81.3468 264.114L82.5445 261.452L87.8676 257.061L88.9322 247.612L84.9399 245.616L81.6129 243.221L82.0122 238.164L80.6814 236.833L81.1182 234.792L80.4811 233.565L80.016 230.711L77.3544 228.05L82.3448 219.4L83.3429 215.541L84.0083 211.947L84.1414 207.822L86.0045 203.697L90.6622 201.567L95.5861 198.64H105.567L110.89 199.97L113.418 200.237L119.806 205.693L124.464 210.217L126.726 214.609L128.057 226.453L128.456 230.312L126.194 235.901L124.065 237.631L120.472 238.962L116.878 238.829L121.669 243.354L122.867 245.882L124.73 246.88L126.194 249.475L123.932 253.068L120.738 255.996L115.947 257.194L112.753 254.532L107.297 255.73L94.3884 261.319L86.5368 263.848L81.3468 264.114Z" fill="#FFCC00"/>
<path d="M87.7625 254.277L83.7702 255.076L80.1771 258.536L76.3179 261.863L76.0517 267.319L78.8463 269.049L85.8994 269.448L94.6826 268.783L102.401 267.186L111.983 267.921L117.971 267.208L123.059 263.859L122.097 256.539L115.443 257.205L112.116 254.144L106.926 256.14L97.211 259.6L87.4964 262.927L81.9071 264.258L80.9756 263.459L83.504 260.665L87.4964 257.471L87.7625 254.277Z" fill="#E60000"/>
<path d="M103.865 213.689L105.54 207.934L108.256 209.963L111.317 214.753L114.112 221.141L117.04 227.928L118.104 232.985L116.773 238.707L114.112 237.909L113.736 233.783L111.983 230.456L110.785 227.13L108.789 225.533L107.458 219.278L105.329 218.08L103.865 213.689Z" fill="#E60000"/>
<path d="M64.9473 254.175L68.1229 253.641L68.8491 253.466L68.885 253.535L68.3206 254.022L66.0543 256.306L66.7048 257.559L70.6875 253.284L70.1268 252.205L64.3111 252.951L64.9473 254.175Z" fill="black"/>
<path d="M66.6195 245.406L67.4182 244.853L67.0212 243.466L62.2827 246.915L62.6818 248.309L68.5382 248.766L68.167 247.469L67.1967 247.422L67.0575 247.446L67.0338 247.307L66.5425 245.59L66.4889 245.46L66.6195 245.406ZM65.9618 247.387L65.8097 247.365L64.5192 247.305L63.8873 247.307L63.8658 247.232L64.4054 246.907L65.4707 246.181L65.5906 246.09L65.6142 246.229L65.9082 247.256L65.9618 247.387Z" fill="black"/>
<path d="M62.5259 236.388C61.9036 236.43 61.6116 236.621 61.3792 236.887C61.0596 237.252 60.8905 237.763 60.9433 238.557L61.1146 241.132L66.6071 240.766L66.5212 239.475L64.6307 239.6L64.5 239.633L64.5062 239.492L64.4617 238.823L66.3829 237.398L66.2841 235.912C66.2218 235.916 66.1845 235.942 66.1248 235.985L64.2145 237.456C63.9786 236.612 63.3428 236.334 62.5259 236.388ZM62.6181 237.656C63.0849 237.625 63.3338 237.843 63.3674 238.348L63.4482 239.562L63.4731 239.701L63.3393 239.686L62.2034 239.762L62.0727 239.794L62.079 239.653L61.9982 238.439C61.9646 237.934 62.2058 237.683 62.6181 237.656Z" fill="black"/>
<path d="M61.0251 232.511L66.5014 233.069L66.6325 231.781L61.1562 231.224L61.0251 232.511Z" fill="black"/>
<path d="M62.3245 224.646C62.0746 225.532 62.2097 226.258 62.5338 226.803C62.8795 227.387 63.3241 227.764 64.3296 228.048C65.3876 228.346 66.0182 228.265 66.6265 227.918C67.1749 227.611 67.6433 227.071 67.8827 226.223C68.1283 225.353 68.0019 224.653 67.7003 224.114C67.3631 223.5 66.8681 223.101 65.81 222.802C64.8045 222.519 64.2308 222.6 63.6309 222.917C63.0675 223.219 62.5744 223.761 62.3245 224.646ZM66.8021 225.918C66.6835 226.338 66.452 226.613 66.1826 226.764C65.8341 226.965 65.4304 226.989 64.6875 226.779C63.9522 226.572 63.7159 226.376 63.5103 226.042C63.3445 225.768 63.2801 225.394 63.4051 224.951C63.5321 224.501 63.7862 224.232 64.0631 224.084C64.4148 223.899 64.7189 223.856 65.4542 224.063C66.1971 224.273 66.5288 224.504 66.7184 224.866C66.8692 225.135 66.925 225.483 66.8021 225.918Z" fill="black"/>
<path d="M66.5849 216.845C66.8635 216.322 67.2817 216.068 67.5977 215.989L67.7908 215.942L67.817 214.798C67.755 214.765 67.6922 214.767 67.6326 214.78L67.5661 214.788C67.0016 214.903 66.1771 215.356 65.6527 216.34C65.0331 217.503 65.1197 218.6 66.1724 219.161C66.5715 219.374 66.9687 219.391 67.3347 219.268C67.7428 219.132 68.0991 218.845 68.4539 218.345L69.0255 217.554C69.2282 217.273 69.5078 216.981 69.845 217.16C70.1684 217.333 70.2337 217.774 69.9 218.4C69.5737 219.012 69.067 219.317 68.6593 219.435L68.519 219.466L68.4928 220.61C68.5547 220.643 68.5932 220.637 68.6703 220.625L68.895 220.568C69.5058 220.416 70.2675 219.965 70.8578 218.857C71.6132 217.44 71.1413 216.402 70.3569 215.984C69.9509 215.768 69.551 215.722 69.1712 215.838C68.7599 215.964 68.361 216.281 67.9846 216.805L67.4345 217.572C67.1558 217.962 66.922 218.103 66.6536 217.96C66.3852 217.817 66.2805 217.416 66.5849 216.845Z" fill="black"/>
<path d="M136.67 214.493C137.045 214.559 137.449 214.485 137.957 214.096L138.019 214.048C138.569 213.626 138.705 213.316 138.759 212.951C138.823 212.508 138.687 212.023 138.25 211.454L136.637 209.35L132.269 212.699L133.056 213.727L134.504 212.617L134.595 212.517L134.668 212.638L135.422 213.622C135.859 214.191 136.245 214.426 136.67 214.493ZM137.23 213.032C136.821 213.345 136.511 213.299 136.198 212.89L135.51 211.993L135.412 211.891L135.531 211.829L136.49 211.094L136.581 210.995L136.654 211.115L137.342 212.013C137.655 212.421 137.595 212.752 137.23 213.032Z" fill="black"/>
<path d="M141.953 221.359C142.516 221.09 142.717 220.804 142.834 220.472C142.996 220.014 142.964 219.477 142.621 218.759L141.508 216.43L136.541 218.804L137.099 219.971L138.809 219.155L138.918 219.076L138.965 219.21L139.254 219.815L137.997 221.85L138.639 223.194C138.695 223.167 138.72 223.129 138.76 223.067L139.99 220.993C140.521 221.689 141.215 221.712 141.953 221.359ZM141.399 220.216C140.976 220.418 140.665 220.307 140.446 219.85L139.922 218.753L139.847 218.633L139.977 218.597L141.004 218.106L141.113 218.028L141.16 218.161L141.684 219.258C141.903 219.716 141.771 220.038 141.399 220.216Z" fill="black"/>
<path d="M141.592 229.873L140.901 227.024L140.853 226.891L140.988 226.883L141.904 226.661L142.028 226.607L142.046 226.747L142.631 229.164L143.67 228.912L143.084 226.495L143.036 226.362L143.17 226.354L144.049 226.141L144.172 226.087L144.19 226.227L144.862 229L145.893 228.751L144.888 224.606L139.539 225.902L140.561 230.123L141.592 229.873Z" fill="black"/>
<path d="M143.725 237.633L141.067 237.665L141.082 238.951L146.586 238.886L146.568 237.358L143.489 236.061L143.488 236.014L146.536 234.637L146.518 233.07L141.013 233.135L141.028 234.406L143.687 234.374L144.536 234.325L144.537 234.388L143.66 234.741L141.666 235.591L141.677 236.464L143.69 237.267L144.575 237.608L144.576 237.67L143.725 237.633Z" fill="black"/>
<path d="M146.026 243.211L140.605 242.254L140.38 243.528L145.8 244.486L146.026 243.211Z" fill="black"/>
<path d="M144.151 250.964C144.465 250.099 144.384 249.365 144.102 248.797C143.8 248.189 143.385 247.781 142.403 247.423C141.37 247.047 140.735 247.082 140.103 247.382C139.533 247.648 139.026 248.152 138.724 248.98C138.415 249.83 138.489 250.537 138.75 251.097C139.041 251.734 139.505 252.168 140.538 252.544C141.52 252.902 142.098 252.864 142.72 252.592C143.304 252.332 143.836 251.828 144.151 250.964ZM139.779 249.364C139.929 248.954 140.18 248.697 140.46 248.566C140.822 248.391 141.227 248.397 141.952 248.662C142.67 248.923 142.891 249.136 143.071 249.484C143.216 249.769 143.253 250.148 143.096 250.58C142.935 251.019 142.662 251.268 142.375 251.396C142.011 251.554 141.704 251.575 140.986 251.314C140.261 251.05 139.947 250.794 139.785 250.42C139.654 250.14 139.625 249.789 139.779 249.364Z" fill="black"/>
<path d="M139.312 258.432C138.995 258.932 138.559 259.154 138.237 259.208L138.041 259.241L137.928 260.379C137.987 260.416 138.05 260.419 138.111 260.411L138.178 260.408C138.749 260.337 139.606 259.948 140.203 259.006C140.91 257.894 140.907 256.793 139.9 256.154C139.518 255.911 139.123 255.864 138.749 255.959C138.332 256.063 137.955 256.323 137.563 256.794L136.933 257.539C136.709 257.804 136.408 258.074 136.086 257.87C135.776 257.673 135.745 257.228 136.125 256.629C136.497 256.044 137.025 255.779 137.441 255.692L137.583 255.671L137.696 254.533C137.637 254.495 137.598 254.498 137.52 254.504L137.292 254.544C136.671 254.649 135.878 255.041 135.205 256.1C134.344 257.456 134.736 258.527 135.486 259.003C135.874 259.25 136.27 259.326 136.657 259.239C137.077 259.145 137.499 258.859 137.914 258.365L138.521 257.642C138.828 257.274 139.072 257.152 139.329 257.315C139.585 257.478 139.659 257.885 139.312 258.432Z" fill="black"/>
<path d="M94.9849 269.224C99.3677 268.331 102.804 268.059 108.722 268.14C116.096 268.24 116.836 268.146 119.996 266.699C123.741 264.984 123.799 264.825 122.827 258.903C122.364 256.086 122.42 255.908 124.343 254.095C126.558 252.006 126.881 250.085 125.474 247.365C124.998 246.445 124.066 245.551 123.401 245.377C122.736 245.203 122.193 244.57 122.193 243.969C122.193 243.369 121.194 242.021 119.972 240.975L117.751 239.073L120.545 239.05C122.919 239.031 123.641 238.725 125.359 237.007C127.668 234.698 129.846 228.874 128.863 227.636C128.277 226.897 127.951 224.992 126.998 216.747C126.73 214.427 126.111 211.959 125.623 211.262C125.135 210.566 122.166 207.6 119.025 204.673C114.577 200.527 112.937 199.35 111.61 199.35C110.672 199.35 108.783 198.954 107.411 198.47C105.438 197.774 103.72 197.693 99.1938 198.082C94.2524 198.507 93.0712 198.829 90.5422 200.443C88.9313 201.471 87.307 202.312 86.9327 202.312C86.5584 202.312 85.7874 202.825 85.2195 203.453C83.6485 205.189 82.8633 208.797 82.3583 216.6C82.2695 217.972 81.2033 220.352 79.4063 223.19C77.8592 225.634 76.5933 227.926 76.5933 228.283C76.5933 228.641 77.2471 229.362 78.0461 229.885C79.0734 230.558 79.5036 231.386 79.515 232.712C79.5227 233.614 80.5682 234.358 80.5866 234.978C80.594 235.227 80.2886 235.457 80.0338 235.668C79.6075 235.984 79.7141 236.311 79.754 236.763C79.8588 237.74 80.0286 238.092 80.4818 238.468C81.0964 238.978 81.2423 239.787 80.9759 241.207C80.5118 243.681 81.6981 245.216 85.3283 246.84C87.3958 247.766 87.8437 248.252 87.8371 249.567C87.8209 252.78 87.2179 253.786 85.0679 254.189C83.645 254.456 81.8738 255.69 79.3063 258.201C76.3406 261.103 75.7404 261.776 75.5707 263.634C75.5371 264.002 76.0584 264.02 76.0436 264.507C76.0273 265.039 75.5011 265.945 75.5362 266.404C75.616 267.45 75.8166 268.228 76.0804 268.391C77.2321 269.103 83.2758 270.257 86.2717 270.338C87.849 270.38 91.77 269.879 94.9849 269.224ZM79.9684 268.659C76.918 268.068 76.1008 267.194 77.1009 265.593C77.6561 264.704 77.6938 264.172 77.2341 263.712C76.0782 262.556 76.5568 261.57 79.0309 260.008C80.3715 259.162 81.5974 257.976 81.7551 257.373C82.0242 256.344 84.6694 255.018 86.453 255.018C88.0025 255.018 87.2813 257.341 85.4356 258.296C83.2886 259.406 80.1886 262.665 80.1639 263.837C80.1255 265.664 86.9856 264.043 98.3876 259.529C112.405 253.981 111.685 254.175 113.322 255.5C116.01 257.677 112.687 259.536 105.083 260.11C97.6581 260.671 97.1849 261.793 104.536 261.409C109.311 261.159 110.674 260.843 113.655 259.296C119.927 256.04 121.449 256.171 117.852 259.658C115.671 261.772 110.715 263.901 107.974 263.901C107 263.901 106.203 264.201 106.203 264.569C106.203 266.275 116.779 262.731 118.996 260.281C120.192 258.96 121.601 258.813 121.601 260.009C121.601 261.871 118.862 263.634 113.606 265.156L110.053 266.185L112.475 266.227C114.066 266.255 116.161 265.638 118.58 264.429C120.606 263.417 122.407 262.733 122.583 262.909C123.229 263.554 121.976 264.648 119.011 266.028C115.189 267.808 110.156 267.896 103.498 266.3C95.9169 264.482 93.3162 264.319 88.4708 265.357C86.0463 265.876 83.9802 266.384 83.8796 266.484C83.7789 266.585 86.4591 266.545 89.8356 266.394C97.3312 266.061 98.5423 266.916 92.506 268.279C88.1153 269.27 83.8034 269.401 79.9684 268.659ZM81.9232 262.827C81.9232 262.213 84.698 259.678 86.7839 258.385C88.2739 257.462 88.3997 257.067 88.5605 252.8L88.7335 248.207L91.6945 247.84C95.2816 247.395 98.8881 245.942 100.775 244.182C102.389 242.676 104.709 238.436 103.919 238.436C103.626 238.436 103.068 239.204 102.679 240.143C101.123 243.9 96.9828 246.189 91.5033 246.322C87.5644 246.418 84.7072 245.721 83.1697 244.289C82.0535 243.249 81.9036 242.673 82.2364 240.703C82.5564 238.809 82.4215 238.2 81.5378 237.548C79.8004 236.265 81.3004 235.142 83.6549 235.963C84.1949 236.151 84.7106 236.669 84.9805 236.708C85.518 236.784 85.4764 236.139 85.4764 235.479C85.4764 234.144 84.4979 233.377 84.1448 234.435C83.9568 234.998 83.4776 235.028 82.1696 234.559C80.731 234.042 80.4736 233.655 80.6282 232.242C80.765 230.991 80.4097 230.221 79.2742 229.309L77.7348 228.072L80.7393 223.335C82.9253 219.888 83.6515 218.224 83.4051 217.228C83.1707 216.28 83.724 214.776 85.2026 212.342C86.3775 210.408 87.5689 208.826 87.8502 208.826C88.1315 208.826 88.9607 209.892 89.693 211.195C90.4252 212.497 91.2417 213.563 91.5075 213.563C91.7732 213.563 91.9906 214.243 91.9906 215.074C91.9906 216.252 92.4656 216.783 94.1474 217.486C95.3337 217.982 96.9326 218.229 97.7007 218.037C98.9823 217.715 99.0974 217.87 99.1009 219.918C99.1033 221.149 99.6329 222.948 100.281 223.927C101.699 226.068 101.808 228.111 100.529 228.601C99.0357 229.174 98.5048 229.026 98.5048 228.037C98.5048 227.53 98.2383 227.279 97.9126 227.48C96.9364 228.084 97.2414 230.066 98.5048 231.329C99.1563 231.981 99.6892 232.761 99.6892 233.064C99.6892 233.366 100.132 234.056 100.673 234.597C101.438 235.362 102.246 235.492 104.308 235.183C106.721 234.821 106.92 234.883 106.516 235.87C106.272 236.467 105.935 238.721 105.767 240.879C105.499 244.33 105.615 244.954 106.729 246.068C107.426 246.765 108.413 248.377 108.922 249.65C109.432 250.923 110.228 252.111 110.691 252.288C112.372 252.933 111.463 253.821 108.129 254.79C106.256 255.334 101.926 256.965 98.5053 258.414C95.0851 259.864 90.8459 261.558 89.0849 262.179C85.8051 263.336 81.9232 263.687 81.9232 262.827ZM85.8301 228.216C85.9637 226.6 85.2881 225.89 84.5986 225.626C83.4369 225.18 82.9388 225.64 83.4612 226.317C83.5812 226.472 84.055 226.407 84.3166 226.526C85.715 227.734 84.8486 230.079 83.0721 229.708C82.2609 229.504 81.3309 229.165 81.3309 229.443C81.3309 230.376 82.1647 230.793 83.6776 230.616C84.949 230.468 85.6744 230.099 85.8301 228.216ZM88.4562 224.667C88.4666 224.26 88.858 223.421 89.326 222.803C90.005 221.906 90.3496 221.822 91.0311 222.387C91.6519 222.903 91.9966 222.916 92.2933 222.436C92.7769 221.653 92.9243 221.772 89.7698 220.4C88.3856 219.798 87.253 218.95 87.253 218.515C87.253 217.94 88.1855 218.142 90.6581 219.251C95.7005 221.513 96.0423 221.547 93.7672 219.555C93.0826 218.956 92.3821 218.372 91.7211 218.037C91.2814 217.815 90.8067 217.728 90.5567 217.725C89.931 217.716 88.9423 217.278 88.3598 216.75C87.9648 216.393 87.6549 216.08 87.158 216.003C86.7766 215.943 86.2271 216.061 85.7963 216.169C84.1518 216.582 83.7301 217.709 85.2202 217.709C85.8789 217.709 85.9727 217.72 85.7059 218.561C85.6575 218.713 85.4045 218.877 85.2236 219.01C84.9455 219.444 85.4542 219.451 85.8281 219.493C86.2546 219.613 86.7679 220.029 86.7662 220.353C86.7607 221.408 86.9593 222.207 88.1403 222.917C88.4732 223.117 88.0972 223.345 87.6061 223.64C85.5814 224.204 88.8282 226.499 88.4562 224.667ZM114.56 255.233C113.504 254.494 113.282 253.842 113.427 251.899C113.525 250.571 113.937 249.375 114.341 249.242C114.87 249.068 114.972 249.518 114.706 250.85C114.421 252.276 114.636 253.019 115.644 254.092C117.196 255.744 116.434 256.546 114.56 255.233ZM116.389 254.307C114.589 252.507 116.115 251.011 118.672 252.07C120.124 252.671 120.653 252.63 121.893 251.817C123.616 250.689 123.834 248.82 122.341 247.977C120.715 247.06 122.245 245.804 123.906 246.693C125.955 247.79 125.769 251.15 123.548 253.144C122.034 254.505 120.979 254.577 118.344 253.502C117.289 253.072 117.249 253.129 117.972 254.018C118.663 254.868 118.659 255.018 117.942 255.018C117.479 255.018 116.78 254.698 116.389 254.307ZM119.824 250.994C119.824 250.681 120.255 250.068 120.781 249.631C121.608 248.944 121.708 248.988 121.521 249.954C121.298 251.105 119.824 252.008 119.824 250.994ZM110.286 248.527C109.751 246.743 109.746 245.375 110.262 242.803C111.34 237.438 111.047 235.838 109.734 239.916C109.104 241.871 108.577 244.003 108.562 244.654L108.535 245.838L107.619 244.654C106.943 243.781 106.783 242.615 107.009 240.213C107.547 234.497 108.595 226.964 108.895 226.664C109.638 225.921 110.67 228.144 111.002 231.206C111.283 233.793 111.474 234.275 111.815 233.261C112.57 231.012 113.31 232.409 113.31 236.084C113.31 239.287 113.461 239.697 115.087 240.898C116.589 242.009 116.863 242.611 116.863 244.8C116.863 246.375 117.095 247.246 117.455 247.023C117.781 246.822 118.048 245.653 118.048 244.426C118.048 242.814 117.638 241.811 116.569 240.807C114.125 238.51 115.451 238.699 118.329 241.057C120.544 242.872 121.009 243.599 121.009 245.252C121.009 248.026 119.13 249.379 116.889 248.22C115.538 247.522 115.349 247.105 115.561 245.29C115.896 242.421 115.282 242.616 114.469 245.637C113.75 248.306 112.29 250.872 111.489 250.872C111.214 250.872 110.673 249.817 110.286 248.527ZM116.863 250.28C116.863 249.954 117.13 249.688 117.455 249.688C117.781 249.688 118.048 249.954 118.048 250.28C118.048 250.606 117.781 250.872 117.455 250.872C117.13 250.872 116.863 250.606 116.863 250.28ZM119.071 237.789C117.627 236.949 118.391 235.982 120.15 236.424C121.085 236.658 122.339 236.341 123.741 235.513C124.926 234.814 126.033 234.38 126.201 234.548C126.991 235.338 122.706 238.46 120.89 238.418C120.467 238.408 119.648 238.125 119.071 237.789ZM114.236 234.635C114.021 233.196 113.457 231.698 112.985 231.305C112.512 230.913 112.126 229.947 112.126 229.157C112.126 228.368 111.485 227.082 110.702 226.299C109.888 225.485 109.096 223.785 108.852 222.329C108.601 220.836 107.723 218.98 106.73 217.846C104.512 215.312 104.105 213.462 105.173 210.782L106.048 208.59L108.204 210.929C109.527 212.364 111.049 215.098 112.144 218.005C113.125 220.611 114.242 223.276 114.626 223.927C117.596 228.959 118.108 231.65 116.805 235.387C115.871 238.066 114.7 237.723 114.236 234.635ZM119.232 234.864C119.232 234.223 119.659 234.029 122.366 233.434C123.427 233.201 124.698 232.103 125.919 230.365C127.524 228.079 127.848 227.852 128.008 228.901C128.112 229.584 127.649 230.913 126.979 231.853C125.291 234.224 119.232 236.579 119.232 234.864ZM101.861 233.303C101.165 232.608 101.432 232.127 102.88 231.467C103.889 231.008 104.63 229.786 105.467 227.204C106.848 222.939 105.971 222.666 104.378 226.864C103.212 229.936 102.456 230.714 100.622 230.728C99.5521 230.737 99.5638 230.651 100.815 229.319C101.58 228.505 102.522 226.254 103.03 224.03C104.14 219.162 105.259 218.035 106.934 220.097C107.988 221.394 108.077 222.09 107.729 226.291C107.271 231.816 106.303 233.698 103.92 233.698C103.004 233.698 102.078 233.521 101.861 233.303ZM118.64 232.599C118.64 232.249 119.239 231.655 119.972 231.278C122.478 229.989 124.562 227.593 124.562 226.002C124.562 225.148 124.956 223.932 125.439 223.3C126.2 222.302 126.398 222.268 126.935 223.039C128.264 224.943 126.455 229.158 123.341 231.414C121.513 232.738 118.64 233.462 118.64 232.599ZM118.106 228.813C117.747 227.848 117.916 227.091 118.717 226.068C119.326 225.291 119.824 224.047 119.824 223.303C119.824 222.559 120.282 221.153 120.841 220.178C121.835 218.446 121.818 218.324 120.101 214.802C119.134 212.819 118.139 211.197 117.89 211.196C117.64 211.195 118.106 212.518 118.926 214.136C120.635 217.508 120.789 219.031 119.528 220.078C119.039 220.483 118.631 221.382 118.621 222.075C118.611 222.768 118.2 223.866 117.709 224.516C116.729 225.813 116.605 225.719 114.738 222.269C113.909 220.735 113.937 220.457 115.12 218.542C116.011 217.101 116.284 215.987 116.02 214.87C115.811 213.989 115.563 212.159 115.467 210.805C115.372 209.451 114.826 207.629 114.255 206.756C112.923 204.724 112.36 205.228 113.493 207.438C114.741 209.872 115.412 217.437 114.435 218.042C114.011 218.304 113.584 218.234 113.467 217.884C113.352 217.539 112.317 215.694 111.166 213.783C109.671 211.3 109.164 209.865 109.387 208.749C109.57 207.834 109.252 206.309 108.619 205.069C107.368 202.614 107.68 201.856 109.326 203.347C110.422 204.338 113.31 204.855 113.31 204.059C113.31 203.289 110.996 201.615 110.422 201.97C110.095 202.172 108.946 201.8 107.868 201.142C105.793 199.877 103.242 199.542 103.242 200.535C103.242 200.861 103.909 201.127 104.723 201.127C106.101 201.127 106.46 201.625 106.266 203.269C106.223 203.633 106.591 204.265 107.084 204.674C108.048 205.474 108.334 208.826 107.438 208.826C107.139 208.826 106.051 207.76 105.019 206.457C103.987 205.154 102.852 204.088 102.497 204.088C102.142 204.088 102.431 204.705 103.139 205.459C104.623 207.039 104.824 209.84 103.575 211.526C102.847 212.507 102.544 212.566 101.502 211.93C100.408 211.262 100.281 211.325 100.281 212.538C100.281 215.247 97.373 217.655 95.4994 216.497C94.8786 216.113 94.8944 215.826 95.5819 214.998C96.1292 214.339 96.4441 212.528 96.4659 209.915C96.5078 204.865 95.6711 205.38 95.427 210.555C95.2456 214.403 94.0376 216.206 93.3647 213.632C93.1863 212.95 92.8192 212.529 92.5488 212.696C91.7137 213.212 89.0296 207.95 89.0296 205.796C89.0296 203.339 89.4755 202.204 92.1416 200.556C93.7745 199.546 94.0123 199.379 100.131 198.758C103.534 198.758 106.237 199.08 107.593 199.647C108.762 200.135 110.639 200.535 111.764 200.535C113.416 200.535 114.01 201.271 115.826 202.89C117.099 204.025 119.089 206.198 120.613 207.361C125.361 210.987 127.003 216.515 124.858 221.649C124.369 222.819 123.97 224.303 123.97 224.947C123.97 226.193 120.398 230.145 119.272 230.145C118.903 230.145 118.379 229.545 118.106 228.813ZM94.8618 205.267C96.3916 203.198 95.7236 202.886 93.9234 204.828C92.6294 206.225 92.3527 207.36 92.5887 210.306C92.7115 211.838 92.7876 211.736 93.1416 209.561C93.3674 208.174 94.1415 206.242 94.8618 205.267ZM100.979 223.17C100.497 222.311 100.316 220.484 100.48 218.136C100.71 214.863 100.887 214.429 102.072 214.252C104.535 213.882 105.256 217.249 103.302 219.994C102.683 220.863 102.078 222.236 101.957 223.046L101.736 224.519L100.979 223.17ZM83.6998 210.341C83.6998 209.872 83.9663 209.323 84.292 209.122C84.6177 208.921 84.8842 208.088 84.8842 207.271C84.8842 205.317 85.8938 203.496 86.9777 203.496C88.3632 203.496 88.0085 206.236 86.286 208.838C84.6795 211.266 83.6998 211.835 83.6998 210.341Z" fill="black"/>
<defs>
<linearGradient id="paint0_linear_2689_14091" x1="135.067" y1="148.459" x2="-384.797" y2="148.459" gradientUnits="userSpaceOnUse">
<stop stop-color="white"/>
<stop offset="1" stop-color="#CCCCCC"/>
</linearGradient>
</defs>
</svg>
