<svg width="208" height="319" viewBox="0 0 208 319" fill="none" xmlns="http://www.w3.org/2000/svg">
<path d="M192.5 0.5H15.5001C7.21579 0.5 0.500061 7.21573 0.500061 15.5V303.5C0.500061 311.784 7.21579 318.5 15.5001 318.5H192.5C200.784 318.5 207.5 311.784 207.5 303.5V15.5C207.5 7.21573 200.784 0.5 192.5 0.5Z" fill="url(#paint0_linear_2689_20474)" stroke="black" stroke-linecap="square"/>
<path d="M157.4 15H193V304H157.4M121.8 304H86.2001M50.6001 304H15.0001V15H50.6001M86.2001 15H121.8" stroke="black"/>
<path d="M19.7057 20.1184C19.4217 20.1184 18.8536 20.2919 18.0015 20.6391V20.3077L22.2617 18.1538L22.4512 18.2012V32.4023C22.4512 32.9704 22.5931 33.3412 22.8771 33.5148C23.161 33.6883 23.7687 33.7831 24.6996 33.7988V34.1538H18.1672V33.7988C19.0508 33.7673 19.6426 33.641 19.9423 33.4201C20.2579 33.1834 20.4157 32.6943 20.4157 31.9527V21.2308C20.4157 20.4892 20.179 20.1184 19.7057 20.1184Z" fill="black"/>
<path d="M185.296 296.189C185.58 296.189 186.148 296.016 187 295.669V296L182.74 298.154L182.55 298.106V283.905C182.55 283.337 182.409 282.966 182.125 282.793C181.841 282.619 181.233 282.525 180.302 282.509V282.154H186.834V282.509C185.951 282.54 185.359 282.667 185.059 282.888C184.744 283.124 184.586 283.613 184.586 284.355V295.077C184.586 295.818 184.823 296.189 185.296 296.189Z" fill="black"/>
<path d="M90.0646 106.37L100.229 145.445L103.843 130.99L106.101 133.023L100.455 107.274C100.455 107.274 95.4854 109.758 93.6785 104.789L90.0646 106.37Z" fill="#D7E3F4"/>
<path d="M100.229 107.499C100.229 107.499 103.842 107.273 103.617 102.982H105.649L115.588 141.379L106.327 133.022L100.229 107.499Z" fill="#80B3FF"/>
<path d="M100.229 147.026L108.812 194.007L113.555 177.97L110.167 154.254L100.229 147.026Z" fill="#D5E5FF"/>
<path d="M109.941 154.48L113.555 177.97L121.008 184.746L122.138 182.262L115.813 143.413L112.2 155.835L109.941 154.48Z" fill="#5599FF"/>
<path d="M109.037 195.136C109.037 195.136 115.136 225.628 119.879 233.082L123.719 231.501C123.719 231.501 123.719 227.887 125.074 227.887L119.201 203.945L109.037 195.136Z" fill="#D5E5FF"/>
<path d="M133.431 229.016C129.366 222.692 123.719 192.651 123.719 192.651L120.105 205.3L124.848 227.209C124.848 227.209 128.914 227.887 128.01 231.275L131.624 231.952L133.431 229.016Z" fill="#5599FF"/>
<path d="M77.8677 102.079L111.748 93.4958L114.232 91.2371L111.522 87.8491L75.609 98.239V101.627C75.609 101.627 75.3832 102.305 77.8677 102.079Z" fill="#FF0000"/>
<path d="M85.3214 92.3664L82.1592 82.4282L102.487 88.3008L85.3214 92.3664Z" fill="#FF0000"/>
<path d="M77.416 74.5229L98.6475 79.7179L94.8078 70.4573C94.8078 70.4573 85.3214 66.6175 75.3832 68.8762L77.416 74.5229Z" fill="#FF0000"/>
<path d="M71.3175 61.1967L64.9932 53.969L82.8368 52.6138C82.8368 52.6138 88.4835 54.8724 88.7093 60.0674L82.385 60.5191L71.3175 61.1967Z" fill="#FF0000"/>
<path d="M58.6689 49.2259L76.5125 46.5154C76.5125 46.5154 67.4778 39.2877 60.7018 40.6429L58.6689 49.2259Z" fill="#FF0000"/>
<path d="M99.7769 147.704C99.7769 147.704 96.163 155.158 96.163 161.482C96.163 161.482 92.3232 170.517 92.3232 174.356C93.4526 175.26 97.2923 181.584 97.2923 181.584L99.7769 176.389L102.939 164.87L103.165 159.675L99.7769 147.704Z" fill="#FF0000"/>
<path d="M98.4217 215.012C94.8078 219.755 90.968 215.464 90.968 215.464C88.4835 215.916 85.5472 214.109 85.5472 214.109L81.4816 204.622C80.3523 200.783 85.5472 189.715 85.5472 189.715L89.387 180.906L95.0336 188.36C95.0336 188.36 94.3561 194.007 91.8715 195.588C91.8715 195.588 90.9681 201.686 93.9043 204.396L97.0665 202.138C97.0665 202.138 94.582 196.265 101.81 194.007C101.81 194.007 103.391 188.36 107.231 188.36L108.36 194.007C108.36 194.007 102.261 193.103 102.939 205.978L102.036 210.721L99.0993 212.979V215.012H98.4217Z" fill="#FF0000"/>
<path d="M72.6727 194.458C80.804 187.457 76.2867 165.096 76.2867 165.096L70.1882 160.804C70.1882 160.804 67.0261 163.289 69.5106 171.872L68.833 178.422L66.1227 186.101L72.6727 194.458Z" fill="#FF0000"/>
<path d="M114.232 133.248L121.008 120.374L125.526 107.951L129.14 117.212L115.813 143.864L114.232 133.248Z" fill="#FF0000"/>
<path d="M139.755 70.2315L142.918 74.0713L150.597 56.6794L148.113 53.7432L139.755 70.2315Z" fill="#FF0000"/>
<path d="M121.008 184.972L125.752 177.744C125.752 177.744 127.784 164.192 130.721 159.223L137.271 168.258C137.271 168.258 133.657 179.551 131.173 181.584L125.074 189.264L121.008 184.972Z" fill="#FF0000"/>
<path d="M132.076 152.899C132.076 152.899 134.109 140.476 135.916 137.992L139.078 117.664L144.273 124.665L143.595 136.411L140.433 159.223L139.755 161.256C139.755 161.256 134.109 150.64 132.076 152.899Z" fill="#FF0000"/>
<path d="M145.854 94.1733L142.014 107.048L145.628 113.824L147.661 109.532L152.178 123.536C152.178 123.536 163.923 129.86 167.537 128.505C167.537 128.505 160.084 105.693 159.406 104.563L146.306 100.949L145.854 94.1733Z" fill="#FF0000"/>
<path d="M66.1227 90.1077C66.1227 90.1077 73.3503 86.2679 73.5762 91.237C73.5762 91.237 79.2229 90.3336 77.416 94.3992L84.8696 91.9146L85.5472 95.5285L74.9315 97.7872C74.9315 97.7872 76.5125 100.498 75.1573 101.853L88.2577 98.9165L88.9352 102.305L80.5782 104.563C80.5782 104.563 80.1264 108.177 77.416 108.177C77.416 108.177 79.2229 112.92 73.8021 112.017L73.1245 110.21L70.8659 111.565L68.833 108.855C68.833 108.855 65.8967 111.339 64.9932 110.888L62.2829 107.274C62.2829 107.274 57.9914 107.048 58.2173 104.111L57.0879 102.305C57.0879 102.305 40.3737 96.8837 38.5668 77.9108L40.5996 76.3298C40.5996 76.3298 33.3718 64.1329 47.6015 46.5152C47.6015 46.5152 42.1807 42.6755 43.5359 38.384C43.5359 38.384 45.5686 32.7373 50.7636 34.3184L54.8292 37.4805C54.8292 37.4805 57.3138 35.8995 59.3466 39.0616L61.1535 39.7392C61.1535 39.7392 59.1207 51.0326 55.9586 52.6137L53.2482 53.5171C53.2482 53.5171 48.9567 57.3569 50.9895 63.907C50.9895 63.907 55.9586 64.8105 52.7964 69.5537L50.7636 68.1985C50.7636 68.1985 50.0861 75.6522 54.6034 77.9108C54.6034 77.9108 59.7983 78.1367 57.3138 82.2023L56.1844 82.4282C56.1844 82.4282 58.2172 87.849 66.1227 90.1077Z" fill="#FFD42A"/>
<path d="M59.7983 49.4517C59.7983 49.4517 74.9314 44.9344 79.2229 46.9672L83.5144 51.4845L83.9661 52.388L65.6709 54.4208L59.7983 49.4517Z" fill="#FFD42A"/>
<path d="M95.0336 70.9089C89.387 67.9726 75.3832 68.4243 75.3832 68.4243L70.64 61.4224C70.64 61.4224 84.6437 59.1637 90.0646 61.1966C90.0646 61.1966 96.163 67.0691 95.0336 70.9089Z" fill="#FFD42A"/>
<path d="M76.2866 74.0713L100.68 79.718L103.165 88.9785L78.9971 81.9767L79.4488 77.6852C79.4488 77.6852 75.8349 75.8782 76.2866 74.0713Z" fill="#FFD42A"/>
<path d="M123.267 94.3994C124.622 92.3666 122.364 91.0114 122.364 91.0114L122.815 89.882L125.074 89.2044L124.622 87.3975L128.01 84.0095C127.559 79.2662 122.815 82.4284 122.815 82.4284V79.2663H122.138L117.846 79.9438C117.169 74.2972 112.877 77.4593 112.877 77.4593L111.296 74.7489C117.169 71.3609 113.781 66.1659 113.781 66.1659C116.039 60.5192 111.522 61.6486 111.522 61.6486L113.555 60.2934C114.458 56.9053 111.296 56.4536 111.296 56.4536C108.586 56.4536 107.005 61.4227 107.005 61.4227L104.52 63.6814C104.52 63.6814 103.843 70.4574 103.843 71.5868C103.843 72.7161 106.779 73.3937 106.779 73.3937L108.812 74.523C103.842 77.6852 107.23 80.6215 107.23 80.6215C102.713 84.6871 108.36 86.2681 108.36 86.2681L83.7403 91.9148L84.6437 94.8511L111.748 87.8492C111.748 87.8492 112.877 91.2372 115.136 91.4631L86.6766 99.3685L86.9025 102.531L109.941 96.2063C109.941 96.2063 111.974 100.724 114.684 96.8839C114.684 96.8839 118.524 102.305 120.783 96.6581L121.008 95.077L123.267 94.3994Z" fill="#FFD42A"/>
<path d="M87.8059 102.079L105.424 98.0132L106.779 102.531L103.843 102.756C103.843 102.756 104.294 109.081 97.0665 107.951C97.0665 107.951 93.2267 107.5 93.4525 105.015L89.1611 105.693L87.8059 102.079Z" fill="#FFDD55"/>
<path d="M100.229 145.22L104.068 131.216L116.491 142.735L111.974 156.287L100.229 145.22Z" fill="#FFDD55"/>
<path d="M112.877 178.422L108.812 194.91L119.653 204.848L124.396 189.489L112.877 178.422Z" fill="#FFD42A"/>
<path d="M161.439 267.414C167.989 263.348 157.825 255.894 157.825 255.894C159.632 250.022 149.919 246.408 149.919 246.408C148.564 239.406 140.207 243.02 140.207 243.02L133.431 229.016L131.85 231.275H128.688C128.688 228.564 125.978 227.435 125.978 227.435C123.041 227.209 124.171 231.952 124.171 231.952C124.171 231.952 119.879 229.016 120.331 236.47C119.879 237.147 112.877 235.566 114.684 244.375L117.846 246.182C117.846 246.182 115.813 254.313 122.364 257.701C122.364 257.701 121.46 263.122 128.462 265.155C128.462 265.155 128.236 272.609 136.142 274.19C136.142 274.19 141.111 280.288 146.531 278.029C146.531 278.029 153.533 282.999 157.147 277.126C157.147 277.126 161.665 279.836 164.149 275.545C166.408 271.028 161.439 267.414 161.439 267.414Z" fill="#FFDD55"/>
<path d="M61.8311 195.136L67.252 203.268L71.7693 195.136L66.1227 185.65C66.1227 185.65 61.1536 191.748 61.8311 195.136Z" fill="#FFE680"/>
<path d="M70.64 159.449L75.6091 165.322L78.5454 158.32L72.6727 148.156C72.6727 148.156 68.1554 156.287 70.64 159.449Z" fill="#FFE680"/>
<path d="M54.1516 233.308C54.6034 229.92 49.8601 228.339 49.8601 228.339C49.8601 228.339 45.1169 232.179 48.279 235.567L44.6652 238.955L46.0204 241.891L46.2462 251.152L49.6343 250.7C49.6343 250.7 50.9895 250.926 53.6999 250.248C53.6999 250.248 56.1844 251.377 58.2173 249.57L57.3138 240.084L55.2809 237.148L54.1516 235.793V233.308Z" fill="#FFDD55"/>
<path d="M167.763 129.408C160.761 129.183 152.856 123.762 152.856 123.762C152.856 123.762 156.921 134.377 159.858 135.733L170.248 140.476C170.248 140.476 169.796 131.441 167.763 129.408Z" fill="#FFE680"/>
<path d="M144.724 94.625L146.08 101.853L159.18 105.015L155.114 95.3026L145.176 93.0439L144.724 94.625Z" fill="#FFE680"/>
<path d="M141.562 106.822L145.854 114.501L145.176 123.988L139.078 117.663L141.562 106.822Z" fill="#FFDD55"/>
<path d="M125.3 107.048L129.591 96.6577L133.205 107.951L129.366 116.986L125.3 107.048Z" fill="#FFE680"/>
<path d="M138.174 76.3297L139.981 71.1348L142.692 74.2969L140.885 84.6868L138.174 76.3297Z" fill="#FFE680"/>
<path d="M148.79 46.9669C148.79 46.9669 146.983 53.5171 151.049 57.131L154.437 58.9379L159.858 59.1638L163.472 56.6792L166.408 53.9688C166.408 53.9688 167.763 48.7739 167.311 46.0635L163.697 41.3202C163.697 41.3202 157.825 38.384 155.566 39.7392L150.823 42.9013C150.823 42.9013 148.564 45.6117 148.79 46.9669Z" fill="#FFCC00"/>
<path d="M166.182 183.617C166.408 178.874 161.891 178.874 161.891 178.874C161.891 178.874 158.954 180.229 159.406 183.843C159.406 183.843 156.244 195.588 158.954 198.75C158.954 198.75 159.632 201.234 162.116 199.879C162.116 199.879 165.053 202.364 167.085 199.653C167.085 199.653 169.796 203.041 169.344 189.038L168.215 185.198L166.182 183.617Z" fill="#FFDD55"/>
<path d="M128.051 97.3423L137.953 74.6631L140.828 85.2041L132.842 106.925L128.051 97.3423Z" fill="#AAEEFF"/>
<path d="M148.494 52.6229C144.022 55.8172 140.509 52.3035 140.509 52.3035C134.12 53.2618 132.842 58.3726 132.842 58.3726C121.982 63.4834 122.301 58.692 122.301 58.692C119.746 57.4143 113.357 57.4143 113.357 57.4143L111.76 55.4977C111.76 55.4977 114.955 51.3452 122.621 51.3452L128.051 50.3869L132.842 45.2761L136.675 46.5538L141.147 44.3179L145.3 47.5121L147.855 46.8733L148.494 52.6229Z" fill="#AFDDE9"/>
<path d="M145.619 94.1481L149.452 80.7323C149.452 80.7323 149.452 72.7466 150.73 70.8301C150.73 70.8301 153.605 62.8445 150.73 56.7754L155.521 59.6502C155.521 59.6502 157.438 68.5941 155.521 72.7466L155.841 95.4258C155.841 95.4258 146.897 92.8704 145.619 94.1481Z" fill="#AACCFF"/>
<path d="M170.535 154.2C172.771 150.367 168.937 143.34 168.937 143.34L169.896 139.507C168.299 139.507 159.035 134.715 159.035 134.715L161.271 139.826L161.591 147.812L162.229 164.422C162.229 164.422 158.077 175.921 161.591 179.115L165.743 180.393C165.743 180.393 162.549 175.282 166.382 172.088L168.299 164.102C168.299 164.102 167.34 155.797 170.535 154.2Z" fill="#D5E5FF"/>
<path d="M72.7904 148.45L78.2206 158.033C78.2206 158.033 80.4566 153.561 80.7761 151.964L86.5257 145.895C86.5257 145.895 89.4006 143.659 92.9142 145.576C92.9142 145.576 96.7473 148.131 99.6221 145.895L99.3027 142.381C99.3027 142.381 94.1919 143.02 92.2753 140.145C92.2753 140.145 86.8451 134.076 80.4566 141.104L72.7904 148.45Z" fill="#AACCFF"/>
<path d="M63.5271 217.446C68.3185 212.655 67.6796 204.031 67.6796 204.031L60.9717 196.045L60.0134 203.711C60.0134 203.711 57.7774 208.822 58.7357 212.974L55.8609 220.96C55.8609 220.96 50.7501 222.877 50.7501 227.668L53.9443 228.946C53.9443 228.946 51.3889 226.39 58.4163 223.835C61.6106 223.196 63.5271 217.446 63.5271 217.446Z" fill="#AACCFF"/>
<path d="M92.0974 174.13L97.0665 182.036L94.582 187.005L88.7094 180.681C88.7094 180.681 90.7422 174.582 92.0974 174.13Z" fill="#FFE680"/>
<path d="M69.5106 95.0767L71.0916 96.8836" stroke="black" stroke-width="0.799571" stroke-linecap="round"/>
<path d="M71.5435 92.3662L73.1245 96.6577" stroke="black" stroke-width="0.799571" stroke-linecap="round"/>
<path d="M64.9932 100.271L69.0589 100.497" stroke="black" stroke-width="0.799571" stroke-linecap="round"/>
<path d="M63.864 103.434L68.833 102.079" stroke="black" stroke-width="0.799571" stroke-linecap="round"/>
<path d="M69.2848 103.66L67.0261 105.692" stroke="black" stroke-width="0.799571" stroke-linecap="round"/>
<path d="M72.6727 104.789L72.8986 108.177" stroke="black" stroke-width="0.799571" stroke-linecap="round"/>
<path d="M74.2538 104.789L75.1573 107.499" stroke="black" stroke-width="0.799571" stroke-linecap="round"/>
<path d="M76.0607 103.434L77.6418 105.919" stroke="black" stroke-width="0.799571" stroke-linecap="round"/>
<path d="M65.445 97.5615L68.1554 98.465" stroke="black" stroke-width="0.799571" stroke-linecap="round"/>
<path d="M110.844 80.6211L112.651 83.7832" stroke="black" stroke-width="0.799571" stroke-linecap="round"/>
<path d="M114.232 80.6211V83.1056" stroke="black" stroke-width="0.799571" stroke-linecap="round"/>
<path d="M109.941 83.5576L111.522 85.8163" stroke="black" stroke-width="0.799571" stroke-linecap="round"/>
<path d="M121.008 82.8799L117.846 84.6868" stroke="black" stroke-width="0.799571" stroke-linecap="round"/>
<path d="M122.59 84.4609L118.298 86.2679" stroke="black" stroke-width="0.799571" stroke-linecap="round"/>
<path d="M121.686 87.8491H118.298" stroke="black" stroke-width="0.799571" stroke-linecap="round"/>
<path d="M118.072 88.9785L122.815 90.3337" stroke="black" stroke-width="0.799571" stroke-linecap="round"/>
<path d="M117.395 91.0112L119.879 92.8182" stroke="black" stroke-width="0.799571" stroke-linecap="round"/>
<path d="M116.265 91.9146L118.75 96.206" stroke="black" stroke-width="0.799571" stroke-linecap="round"/>
<path d="M157.758 256.097C159.993 249.389 150.411 247.153 150.411 247.153C148.494 238.209 139.87 243.639 139.87 243.639L132.523 228.626C129.329 222.876 124.218 194.767 124.218 194.767L125.815 188.698C125.815 188.698 134.439 178.476 139.231 164.422C139.231 164.422 142.745 150.047 142.745 140.784L146.897 110.439L147.536 109.161C147.536 109.161 154.563 130.243 158.077 133.437L160.313 136.632C160.313 136.632 160.632 144.298 161.591 145.895C161.91 149.728 161.91 163.144 161.91 163.144C161.91 163.144 158.077 175.601 161.271 178.476C161.271 178.476 158.396 181.351 159.993 184.545C159.993 184.545 156.16 189.656 158.396 198.281C158.396 198.281 159.355 201.794 162.229 199.878C162.229 199.878 164.785 202.114 166.701 200.197C166.701 200.197 169.257 200.836 169.576 195.725L168.937 188.059L168.299 185.504L166.382 184.226C166.382 184.226 167.5 181.351 164.785 179.435C164.785 179.435 163.507 174.324 166.542 171.609C166.542 171.609 168.139 166.498 168.299 164.262C168.299 164.262 168.458 157.873 170.535 153.881C170.535 153.881 171.014 146.853 169.417 143.18L170.535 136.791C170.535 136.791 170.055 132.799 167.5 128.327L163.667 115.869C163.667 115.869 161.591 108.682 159.195 105.168L155.522 94.7869L155.681 82.6488L155.362 74.6632C155.362 74.6632 158.237 66.997 155.042 59.171C155.042 59.171 163.507 59.9696 165.743 54.3797C165.743 54.3797 168.139 53.102 167.021 45.9149C167.021 45.9149 166.701 42.7207 162.389 40.9638C162.389 40.9638 158.556 37.9293 154.084 41.1235C154.084 41.1235 150.091 41.6027 148.494 47.8314H145.46L142.265 45.2761C142.265 45.2761 139.87 44.9566 137.155 46.8732L132.842 46.2343C132.842 46.2343 129.329 48.3106 127.572 51.0257C127.572 51.0257 123.579 51.0257 121.024 51.984C121.024 51.984 116.073 50.5466 111.76 56.7753C111.76 56.7753 108.087 57.8933 108.247 60.7682L106.649 62.0459C106.649 62.0459 103.934 61.8862 105.212 63.9624C105.212 63.9624 102.178 70.5106 104.733 72.2675C104.733 72.2675 106.809 74.0243 108.406 73.5452L109.365 75.1423C109.365 75.1423 104.414 76.2603 107.288 80.4128C107.288 80.4128 101.698 83.4473 107.768 86.6416L102.816 87.9193L100.101 80.0934L98.9833 79.2948L95.4696 70.6703C95.4696 70.6703 93.8725 63.9624 90.1991 61.5667C90.1991 61.5667 86.5257 54.22 83.4912 52.4631C83.4912 52.4631 81.5746 47.6717 77.7416 46.5538L76.6236 46.394C76.6236 46.394 69.9157 41.4429 60.9717 39.6861L59.3746 39.207C59.3746 39.207 59.2149 36.4919 55.0624 37.9293C55.0624 37.9293 53.1458 32.8185 46.917 34.4156C46.917 34.4156 40.0493 37.6098 45.7991 44.7969L47.7156 45.4358V46.7135C47.7156 46.7135 42.6048 48.4703 40.3688 58.8516C40.3688 58.8516 37.1746 65.7193 39.73 76.1006C39.73 76.1006 37.1745 81.3711 44.5213 92.2315C44.5213 92.2315 49.6321 100.377 58.7357 102.773C58.7357 102.773 56.8193 108.682 63.048 106.925C63.048 106.925 63.8466 113.793 68.9574 108.522C68.9574 108.522 69.5962 112.036 72.6308 110.439C72.6308 110.439 76.943 114.432 78.3804 109.001L76.7833 107.564C76.7833 107.564 81.8941 109.161 79.9776 104.37L88.9214 101.974L99.4625 142.701C99.4625 142.701 96.5876 144.617 90.9977 138.548C90.9977 138.548 84.2898 134.236 78.6998 143.18L75.825 145.576C75.825 145.576 69.4365 149.888 70.2351 159.79C70.2351 159.79 66.4019 163.463 69.2768 171.289L69.5963 177.358C69.5963 177.358 67.0408 182.15 66.8812 186.142C66.8812 186.142 61.7703 187.58 61.6106 196.364L60.4926 203.232C60.4926 203.232 57.9372 205.947 58.7357 213.134C58.7357 213.134 56.3401 217.766 56.0206 220.321C56.0206 220.321 49.9515 225.751 50.271 229.105C50.271 229.105 46.1185 229.904 48.3544 235.334L46.5977 237.73C46.5977 237.73 44.202 238.368 45.6394 240.125L46.438 250.986C46.438 250.986 47.0768 252.104 49.7919 250.666C49.7919 250.666 51.2293 252.263 53.6249 250.187C53.6249 250.187 56.4998 251.625 57.9372 249.548C57.9372 249.548 58.5761 243.32 56.979 239.966C56.979 239.966 56.9789 238.528 55.8609 238.209C55.8609 238.209 55.6199 236.018 53.6435 235.115C53.6435 235.115 55.5069 232.461 52.7965 229.807C52.7965 229.807 52.6835 226.701 56.128 225.289C56.128 225.289 59.9677 225.233 63.0734 219.417C63.0734 219.417 67.0826 214.109 67.1955 207.559C67.1955 207.559 67.0261 199.879 72.7857 194.458C72.7857 194.458 77.0772 190.506 77.1902 184.972L76.1737 165.547C76.1737 165.547 78.0936 161.143 78.7712 157.416C78.7712 157.416 80.3523 155.722 80.6911 151.656C80.6911 151.656 84.4179 148.043 85.999 145.558C85.999 145.558 88.9352 143.864 91.081 145.219C91.081 145.219 94.469 148.381 99.777 146.01C99.777 146.01 96.2759 155.609 96.8406 162.385C96.8406 162.385 91.6457 168.145 92.3233 174.13C92.3233 174.13 88.3706 177.292 89.1611 182.036C89.1611 182.036 85.3214 187.456 85.6602 191.07C85.6602 191.07 79.3359 197.846 82.498 207.446L84.8697 213.883C84.8697 213.883 86.3377 216.142 90.6293 215.577C90.6293 215.577 94.0173 218.4 96.2759 216.706C96.2759 216.706 97.6311 216.593 100.003 212.302C100.003 212.302 103.278 210.043 103.052 204.509C103.052 204.509 102.6 194.458 108.473 193.216C108.473 193.216 115.475 223.595 120.67 235.566L119.879 237.373C119.879 237.373 115.588 235.115 114.571 240.309C114.571 240.309 113.442 244.149 117.846 246.634C117.846 246.634 116.152 254.765 122.251 257.362C122.251 257.362 122.59 264.026 128.688 265.494C128.688 265.494 126.773 272.547 137.155 274.144C137.155 274.144 140.828 280.852 146.418 278.137C146.418 278.137 153.445 282.928 157.278 277.658C157.278 277.658 165.104 280.053 164.306 271.269C164.306 271.269 163.986 268.554 161.91 267.596C161.91 267.596 164.625 265.52 162.709 262.166C162.709 262.166 162.549 258.812 157.758 256.097Z" stroke="black" stroke-width="1.299" stroke-linecap="round"/>
<path d="M107.288 187.74L102.816 162.505C102.816 162.505 100.421 176.241 98.1847 181.032L94.6711 188.059C94.6711 188.059 94.5114 193.01 91.956 196.045C91.956 196.045 90.5186 200.517 93.3934 204.989C93.3934 204.989 94.8308 202.593 96.9071 202.593C96.9071 202.593 96.7474 195.406 101.379 193.969C101.379 193.969 103.455 188.858 107.288 187.74Z" stroke="black" stroke-width="1.099" stroke-linecap="round"/>
<path d="M138.911 119.223C137.634 121.779 135.558 137.75 135.558 137.75C133.162 141.743 132.363 153.082 132.363 153.082L130.287 159.151C128.051 163.943 124.537 178.956 124.537 178.956L122.301 181.99L115.913 144.138L128.53 118.425L131.086 113.633L133.481 107.245L140.828 85.0448L143.863 71.7886L150.091 57.5742C150.091 57.5742 152.008 63.3239 151.209 70.3512C151.209 70.3512 149.133 75.3023 149.452 79.6146L147.057 87.7599C147.057 87.7599 143.543 96.5441 142.265 105.169C142.265 105.169 138.592 115.55 138.911 119.223Z" stroke="black" stroke-width="1.299" stroke-linecap="round"/>
<path d="M104.972 97.3353L114.232 134.152L121.008 120.374L129.817 93.9473L137.949 75.4262L148.338 52.6136C148.338 52.6136 143.821 55.324 140.433 52.3877C140.433 52.3877 132.979 54.8722 133.205 57.5826C133.205 57.5826 130.043 61.1965 123.041 60.5189C123.041 60.5189 117.395 55.324 113.555 57.5826C113.555 57.5826 114.458 60.9707 111.974 61.6483C111.974 61.6483 114.684 62.3259 114.007 64.3587C114.007 64.3587 116.039 65.9397 114.007 66.8432C114.007 66.8432 114.684 72.9416 111.522 74.7486L112.651 77.459C112.651 77.459 115.813 74.071 118.072 79.7177C118.072 79.7177 121.912 78.3625 123.493 80.1694L123.267 82.2022C123.267 82.2022 129.591 79.0401 126.881 86.2678L124.396 87.3972C124.396 87.3972 127.107 88.9782 122.138 91.0111C122.138 91.0111 125.978 94.3991 120.557 95.3025C120.557 95.3025 121.686 100.272 116.265 98.9164L114.684 97.1095C114.684 97.1095 112.426 100.272 110.393 96.4319L104.972 97.3353Z" stroke="black" stroke-width="1.299" stroke-linecap="round"/>
<path d="M77.6419 95.0766L85.0955 92.3662L82.1593 83.1056C82.1593 83.1056 78.5454 81.9763 79.4488 80.3952L79.223 77.6848C79.223 77.6848 76.7384 76.5555 77.4161 74.9744C77.4161 74.9744 75.8349 71.3605 75.6091 69.3277L70.4142 60.5189L65.8968 55.3239C65.8968 55.3239 60.476 50.129 58.4431 50.3548C58.4431 50.3548 57.088 54.8722 53.4741 52.8394C53.4741 52.8394 49.1826 57.8084 51.2154 64.1327C51.2154 64.1327 56.1845 64.5845 52.7965 69.5536L50.5377 68.6501C50.5377 68.6501 49.8602 73.3933 53.4741 78.3624C53.4741 78.3624 60.0242 77.4589 57.5397 81.9763C56.4104 81.7504 55.9586 81.9763 55.9586 81.9763C55.9586 81.9763 58.8949 88.5264 67.0261 90.7851C67.0261 90.7851 71.9952 86.9454 73.3504 91.6886C73.3504 91.6886 78.3195 89.6558 77.6419 95.0766Z" stroke="black" stroke-width="1.299" stroke-linecap="round"/>
<path d="M90.0646 105.467L93.6785 105.015C93.6785 105.015 95.0336 109.532 100.229 108.177C100.229 108.177 104.294 106.37 103.391 102.531L105.875 102.305" stroke="black" stroke-width="0.799571" stroke-linecap="round"/>
<path d="M110.619 93.9473L78.5453 102.079" stroke="black" stroke-width="0.799571" stroke-linecap="round"/>
<path d="M90.7422 101.401L104.746 97.7871" stroke="black" stroke-width="0.799571" stroke-linecap="round"/>
<path d="M97.0665 91.689L98.4216 95.9805L91.4198 97.7874L90.2904 93.7218L97.0665 91.689Z" fill="#FFEEAA" stroke="black" stroke-width="0.799571" stroke-linecap="round"/>
<path d="M110.167 88.3008L76.0607 98.0131" stroke="black" stroke-width="0.799571" stroke-linecap="round"/>
<path d="M87.3541 92.5921L100.003 89.2041" stroke="black" stroke-width="0.799571" stroke-linecap="round"/>
<path d="M77.416 74.7485C77.416 74.7485 94.3561 79.7176 99.3252 79.7176" stroke="black" stroke-width="0.799571" stroke-linecap="round"/>
<path d="M81.7075 83.3315C81.7075 83.3315 99.551 87.3972 102.939 88.5265" stroke="black" stroke-width="0.799571" stroke-linecap="round"/>
<path d="M79.4488 81.0728L101.81 86.7194" stroke="black" stroke-width="0.799571" stroke-linecap="round"/>
<path d="M100.229 81.5245L78.9971 77.9106" stroke="black" stroke-width="0.799571" stroke-linecap="round"/>
<path d="M70.8658 60.9706C70.8658 60.9706 86.6765 59.6154 90.5162 61.874" stroke="black" stroke-width="0.799571" stroke-linecap="round"/>
<path d="M71.9952 63.2293C71.9952 63.2293 89.1611 61.6482 92.775 64.5845" stroke="black" stroke-width="0.799571" stroke-linecap="round"/>
<path d="M74.028 66.8434C74.028 66.8434 91.194 65.0365 94.582 69.328" stroke="black" stroke-width="0.799571" stroke-linecap="round"/>
<path d="M75.6091 68.4243C75.6091 68.4243 93.4525 67.5209 96.163 72.0382" stroke="black" stroke-width="0.799571" stroke-linecap="round"/>
<path d="M65.445 54.4204C65.445 54.4204 79.9006 52.1617 83.9661 52.6134" stroke="black" stroke-width="0.799571" stroke-linecap="round"/>
<path d="M59.1207 49.6773C59.1207 49.6773 71.7693 46.5152 77.416 46.741" stroke="black" stroke-width="0.799571" stroke-linecap="round"/>
<path d="M61.6052 51.2584C61.6052 51.2584 76.2867 47.1927 81.0299 48.7738" stroke="black" stroke-width="0.799571" stroke-linecap="round"/>
<path d="M64.0898 53.5172C64.0898 53.5172 78.7712 50.3551 82.6109 51.0327" stroke="black" stroke-width="0.799571" stroke-linecap="round"/>
<path d="M60.7018 39.9648C60.7018 39.9648 59.1207 50.3548 56.4103 52.1617" stroke="black" stroke-width="0.799571" stroke-linecap="round"/>
<path d="M59.1207 39.5132L55.5069 48.0962C55.5069 48.0962 46.698 46.5151 48.0532 65.488" stroke="black" stroke-width="0.799571" stroke-linecap="round"/>
<path d="M47.8273 46.741C47.8273 46.741 58.2173 47.1927 55.0551 37.9321" stroke="black" stroke-width="0.799571" stroke-linecap="round"/>
<path d="M46.2463 42.2236C46.2463 42.2236 48.9567 47.8703 53.6999 41.0942" stroke="black" stroke-width="0.799571" stroke-linecap="round"/>
<path d="M48.2791 40.4168C48.2791 40.4168 50.7636 44.9342 52.3446 38.6099L50.3118 40.4168" stroke="black" stroke-width="0.799571" stroke-linecap="round"/>
<path d="M47.6015 51.0327C47.6015 51.0327 38.7927 58.9381 41.9548 74.7488" stroke="black" stroke-width="0.799571" stroke-linecap="round"/>
<path d="M44.6652 75.4263C44.6652 75.4263 46.698 79.4919 42.1807 79.7178C42.1807 79.7178 44.2134 93.7215 59.3466 100.723" stroke="black" stroke-width="0.799571" stroke-linecap="round"/>
<path d="M48.7307 66.3916C48.7307 66.3916 46.0204 74.297 53.0223 81.073C53.0223 81.073 53.9257 87.6232 67.7037 94.1733" stroke="black" stroke-width="0.799571" stroke-linecap="round"/>
<path d="M44.6652 64.5845C44.6652 64.5845 41.9548 67.2949 44.891 74.0709" stroke="black" stroke-width="0.799571" stroke-linecap="round"/>
<path d="M47.3755 74.9746C47.3755 74.9746 51.8929 83.5576 50.7636 87.3973C50.7636 87.3973 53.474 85.5904 54.3775 86.7197C54.3775 86.7197 52.3447 90.1077 55.0552 92.5923" stroke="black" stroke-width="0.799571" stroke-linecap="round"/>
<path d="M47.1497 79.9438C47.1497 79.9438 48.7308 85.1388 48.505 88.0751C48.505 88.0751 49.153 91.2736 51.5487 89.9959C51.5487 89.9959 52.8264 96.7038 62.2494 97.5024" stroke="black" stroke-width="0.799571" stroke-linecap="round"/>
<path d="M56.3401 91.4333C56.3401 91.4333 58.5761 88.7182 59.3746 92.3916C59.3746 92.3916 56.979 93.3499 61.9301 95.1067C61.9301 95.1067 62.5689 90.9542 67.8393 93.829C67.8393 93.829 63.6869 92.0722 64.8048 96.7038" stroke="black" stroke-width="0.799571" stroke-linecap="round"/>
<path d="M60.4926 101.655H62.5688C62.5688 101.655 59.8538 98.4607 63.5272 97.5024" stroke="black" stroke-width="0.799571" stroke-linecap="round"/>
<path d="M75.0264 98.4605C71.9919 96.0649 70.0753 99.898 70.0753 99.898C70.0753 99.898 69.2768 103.252 73.7487 103.252C77.4221 101.974 75.0264 98.4605 75.0264 98.4605Z" stroke="black" stroke-width="0.799571" stroke-linecap="round"/>
<path d="M100.74 108.363L105.691 132.799L115.753 142.382L106.33 102.933" stroke="black" stroke-width="0.799571" stroke-linecap="round"/>
<path d="M104.254 104.53L112.399 138.069" stroke="black" stroke-width="0.799571" stroke-linecap="round"/>
<path d="M103.934 131.521L99.9415 145.576L111.92 155.957L117.191 141.583" stroke="black" stroke-width="0.799571" stroke-linecap="round"/>
<path d="M105.851 137.59L111.92 143.18L109.844 150.527L104.094 145.256L105.851 137.59Z" stroke="black" stroke-width="0.799571" stroke-linecap="round"/>
<path d="M106.649 140.625L108.406 147.492" stroke="black" stroke-width="0.799571" stroke-linecap="round"/>
<path d="M106.011 144.777L110.163 143.659" stroke="black" stroke-width="0.799571" stroke-linecap="round"/>
<path d="M72.9502 148.451L78.3804 158.193" stroke="black" stroke-width="0.799571" stroke-linecap="round"/>
<path d="M70.0753 159.471L75.6653 165.22" stroke="black" stroke-width="0.799571" stroke-linecap="round"/>
<path d="M66.5617 186.462L72.3114 195.246" stroke="black" stroke-width="0.799571" stroke-linecap="round"/>
<path d="M62.0897 196.843L67.5199 204.19" stroke="black" stroke-width="0.799571" stroke-linecap="round"/>
<path d="M58.4163 210.1L64.0063 218.405" stroke="black" stroke-width="0.799571" stroke-linecap="round"/>
<path d="M48.035 235.334C48.035 235.334 49.153 238.049 54.2638 235.174" stroke="black" stroke-width="0.799571" stroke-linecap="round"/>
<path d="M50.4306 228.946C50.4306 228.946 51.8681 228.786 53.4652 230.064" stroke="black" stroke-width="0.799571" stroke-linecap="round"/>
<path d="M46.917 237.73C46.917 237.73 50.271 240.445 55.8609 237.25" stroke="black" stroke-width="0.799571" stroke-linecap="round"/>
<path d="M45.6393 239.966C45.6393 239.966 52.3472 242.362 56.6595 239.327" stroke="black" stroke-width="0.799571" stroke-linecap="round"/>
<path d="M51.5487 231.182C51.5487 231.182 53.1459 233.577 50.5904 234.376L49.4725 233.737L50.271 233.098" stroke="black" stroke-width="0.799571" stroke-linecap="round"/>
<path d="M53.9444 241.723L54.1041 247.792" stroke="black" stroke-width="0.799571" stroke-linecap="round"/>
<path d="M55.3817 241.563L55.7012 248.431" stroke="black" stroke-width="0.799571" stroke-linecap="round"/>
<path d="M48.035 242.361V248.91" stroke="black" stroke-width="0.799571" stroke-linecap="round"/>
<path d="M87.6437 212.016C97.3862 211.697 96.4279 202.753 96.4279 202.753C96.4279 202.753 93.7128 204.031 92.7545 208.662" stroke="black" stroke-width="0.799571" stroke-linecap="round"/>
<path d="M89.4006 180.872L94.5114 187.42" stroke="black" stroke-width="0.799571" stroke-linecap="round"/>
<path d="M97.2264 181.99L91.9559 174.483" stroke="black" stroke-width="0.799571" stroke-linecap="round"/>
<path d="M108.726 193.809L106.649 181.831" stroke="black" stroke-width="0.799571" stroke-linecap="round"/>
<path d="M103.455 164.262C103.455 162.346 99.4625 141.423 99.4625 141.423" stroke="black" stroke-width="0.799571" stroke-linecap="round"/>
<path d="M109.365 191.732L113.038 177.997L124.697 189.496L120.385 205.148L108.885 194.128L109.365 191.732Z" stroke="black" stroke-width="0.799571" stroke-linecap="round"/>
<path d="M113.198 192.851L114.955 185.504L120.864 191.413L118.628 198.6L113.198 192.851Z" stroke="black" stroke-width="0.799571" stroke-linecap="round"/>
<path d="M116.073 188.858L117.829 196.205" stroke="black" stroke-width="0.799571" stroke-linecap="round"/>
<path d="M118.788 191.253L115.114 192.371" stroke="black" stroke-width="0.799571" stroke-linecap="round"/>
<path d="M114.955 152.124L119.906 181.831" stroke="black" stroke-width="0.799571" stroke-linecap="round"/>
<path d="M132.363 168.734C132.363 168.734 131.884 177.997 125.016 186.462" stroke="black" stroke-width="0.799571" stroke-linecap="round"/>
<path d="M123.26 200.517C123.26 200.517 125.496 218.884 130.287 229.265" stroke="black" stroke-width="0.799571" stroke-linecap="round"/>
<path d="M120.864 235.973C120.864 235.973 119.107 230.543 124.537 231.821C124.537 231.821 122.461 229.105 125.655 227.828C125.655 227.828 128.53 227.349 128.37 231.182C128.37 231.182 131.245 230.543 132.044 232.619C132.044 232.619 132.683 230.383 133.322 230.383" stroke="black" stroke-width="0.799571" stroke-linecap="round"/>
<path d="M119.586 236.452C119.586 236.452 130.447 261.208 145.619 268.714C145.619 268.714 153.605 273.186 156.639 270.471C156.639 270.471 157.758 269.672 156.48 265.68C156.48 265.68 141.307 246.035 139.87 242.681" stroke="black" stroke-width="0.799571" stroke-linecap="round"/>
<path d="M132.204 235.015C132.204 235.015 138.113 250.028 148.973 261.207C148.973 261.207 156.799 268.235 151.529 269.672" stroke="black" stroke-width="0.799571" stroke-linecap="round"/>
<path d="M133.002 233.737C133.002 233.737 139.87 250.666 149.452 258.971L153.924 264.402C153.924 264.402 156.799 267.915 154.084 270.311" stroke="black" stroke-width="0.799571" stroke-linecap="round"/>
<path d="M132.683 151.325L140.029 161.068" stroke="black" stroke-width="0.799571" stroke-linecap="round"/>
<path d="M130.766 157.395L138.113 168.734" stroke="black" stroke-width="0.799571" stroke-linecap="round"/>
<path d="M143.703 128.327C143.703 128.327 138.113 146.534 139.391 154.839C139.391 154.839 138.592 162.984 134.759 170.331" stroke="black" stroke-width="0.799571" stroke-linecap="round"/>
<path d="M138.911 117.147L144.342 124.494" stroke="black" stroke-width="0.799571" stroke-linecap="round"/>
<path d="M145.939 115.23L142.106 107.724" stroke="black" stroke-width="0.799571" stroke-linecap="round"/>
<path d="M128.69 96.3843L132.683 106.925" stroke="black" stroke-width="0.799571" stroke-linecap="round"/>
<path d="M125.336 106.446L128.85 116.828" stroke="black" stroke-width="0.799571" stroke-linecap="round"/>
<path d="M137.793 76.4199L140.349 84.2458" stroke="black" stroke-width="0.799571" stroke-linecap="round"/>
<path d="M140.029 70.6704L143.383 74.5035" stroke="black" stroke-width="0.799571" stroke-linecap="round"/>
<path d="M147.216 87.2808L155.042 89.8362" stroke="black" stroke-width="0.799571" stroke-linecap="round"/>
<path d="M148.973 81.2114L155.202 83.128" stroke="black" stroke-width="0.799571" stroke-linecap="round"/>
<path d="M149.452 79.4546L155.522 81.0517" stroke="black" stroke-width="0.799571" stroke-linecap="round"/>
<path d="M149.612 78.3369L155.362 79.6146" stroke="black" stroke-width="0.799571" stroke-linecap="round"/>
<path d="M117.191 85.3639C113.198 83.1279 111.76 86.961 111.76 86.961C111.76 86.961 111.76 90.9539 115.753 91.2733C119.267 88.2387 117.191 85.3639 117.191 85.3639Z" stroke="black" stroke-width="0.799571" stroke-linecap="round"/>
<path d="M113.038 92.0718L110.163 96.2243" stroke="black" stroke-width="0.799571" stroke-linecap="round"/>
<path d="M105.531 64.2822C105.531 64.2822 110.003 66.9973 114.156 66.9973" stroke="black" stroke-width="0.799571" stroke-linecap="round"/>
<path d="M107.129 62.0459C107.129 62.0459 109.684 64.4416 113.677 64.2819" stroke="black" stroke-width="0.799571" stroke-linecap="round"/>
<path d="M109.844 67.1567L108.726 69.3927" stroke="black" stroke-width="0.799571" stroke-linecap="round"/>
<path d="M111.121 67.6357L109.524 72.2674" stroke="black" stroke-width="0.799571" stroke-linecap="round"/>
<path d="M112.559 68.2749C112.559 68.2749 112.399 71.3094 110.802 72.4274" stroke="black" stroke-width="0.799571" stroke-linecap="round"/>
<path d="M119.426 51.6646L118.788 56.4559" stroke="black" stroke-width="0.799571" stroke-linecap="round"/>
<path d="M122.142 51.8242L120.385 58.2127" stroke="black" stroke-width="0.799571" stroke-linecap="round"/>
<path d="M143.703 47.0332L142.106 52.4634" stroke="black" stroke-width="0.799571" stroke-linecap="round"/>
<path d="M145.3 46.8735L144.182 53.4217" stroke="black" stroke-width="0.799571" stroke-linecap="round"/>
<path d="M146.578 47.8315L146.258 52.7826" stroke="black" stroke-width="0.799571" stroke-linecap="round"/>
<path d="M155.681 59.4907C151.848 59.1713 150.251 55.8173 150.251 55.8173L148.654 54.2202" stroke="black" stroke-width="0.799571" stroke-linecap="round"/>
<path d="M155.521 42.721C155.521 42.721 148.494 44.3181 150.89 52.9426C150.89 52.9426 154.244 59.1714 159.993 55.9771C159.993 55.9771 163.986 54.0606 164.465 52.3038C164.465 52.3038 166.222 49.2692 163.827 45.4361C163.827 45.4361 161.431 40.8045 155.521 42.721Z" stroke="black" stroke-width="0.799571" stroke-linecap="round"/>
<path d="M156.32 48.7899C156.32 48.7899 157.758 46.8734 158.875 48.4705C157.758 52.623 156.32 48.7899 156.32 48.7899Z" stroke="black" stroke-width="0.799571" stroke-linecap="round"/>
<path d="M161.91 48.4704C160.313 44.4776 156.001 45.2761 156.001 45.2761C156.001 45.2761 151.05 47.5121 154.723 52.4632C154.723 52.4632 160.792 56.456 161.91 48.4704Z" stroke="black" stroke-width="0.799571" stroke-linecap="round"/>
<path d="M146.098 90.4746C146.098 90.4746 145.3 101.654 148.015 108.682" stroke="black" stroke-width="0.799571" stroke-linecap="round"/>
<path d="M145.619 93.0303L155.681 95.1065" stroke="black" stroke-width="0.799571" stroke-linecap="round"/>
<path d="M146.099 101.335L158.875 104.849" stroke="black" stroke-width="0.799571" stroke-linecap="round"/>
<path d="M153.445 123.535C153.445 123.535 160.952 128.806 168.139 129.125" stroke="black" stroke-width="0.799571" stroke-linecap="round"/>
<path d="M160.153 136.792C160.153 136.792 165.903 141.902 169.257 142.062" stroke="black" stroke-width="0.799571" stroke-linecap="round"/>
<path d="M158.396 133.757C158.396 133.757 166.063 139.986 169.736 139.986" stroke="black" stroke-width="0.799571" stroke-linecap="round"/>
<path d="M161.91 146.374C161.91 146.374 168.937 150.686 169.896 152.283" stroke="black" stroke-width="0.799571" stroke-linecap="round"/>
<path d="M162.229 149.249C162.229 149.249 166.222 151.485 169.257 154.36" stroke="black" stroke-width="0.799571" stroke-linecap="round"/>
<path d="M162.549 163.144L166.861 167.297" stroke="black" stroke-width="0.799571" stroke-linecap="round"/>
<path d="M162.07 165.54L166.701 169.053" stroke="black" stroke-width="0.799571" stroke-linecap="round"/>
<path d="M160.952 179.754C160.952 179.754 162.389 178.477 164.465 179.754" stroke="black" stroke-width="0.799571" stroke-linecap="round"/>
<path d="M160.632 184.705C160.632 184.705 162.07 187.58 165.743 184.545" stroke="black" stroke-width="0.799571" stroke-linecap="round"/>
<path d="M163.667 181.032C163.667 181.032 164.625 183.587 162.07 183.587" stroke="black" stroke-width="0.799571" stroke-linecap="round"/>
<path d="M158.716 188.858C158.716 188.858 161.431 191.413 168.458 188.219" stroke="black" stroke-width="0.799571" stroke-linecap="round"/>
<path d="M159.834 186.622C159.834 186.622 163.188 189.497 168.298 186.143" stroke="black" stroke-width="0.799571" stroke-linecap="round"/>
<path d="M159.834 190.934L160.313 197.802" stroke="black" stroke-width="0.799571" stroke-linecap="round"/>
<path d="M166.861 191.094L166.542 197.961" stroke="black" stroke-width="0.799571" stroke-linecap="round"/>
<path d="M164.465 190.774V193.17" stroke="black" stroke-width="0.799571" stroke-linecap="round"/>
<path d="M162.07 191.253L162.229 194.288" stroke="black" stroke-width="0.799571" stroke-linecap="round"/>
<path d="M98.0451 103.871C99.1498 103.871 100.045 102.976 100.045 101.871C100.045 100.766 99.1498 99.8706 98.0451 99.8706C96.9404 99.8706 96.0448 100.766 96.0448 101.871C96.0448 102.976 96.9404 103.871 98.0451 103.871Z" fill="#FF0000" stroke="black" stroke-width="0.981331" stroke-linecap="round" stroke-linejoin="round"/>
<path d="M94.3264 95.9949C94.9012 95.9949 95.3672 95.5288 95.3672 94.954C95.3672 94.3791 94.9012 93.9131 94.3264 93.9131C93.7515 93.9131 93.2855 94.3791 93.2855 94.954C93.2855 95.5288 93.7515 95.9949 94.3264 95.9949Z" fill="#FF0000" stroke="black" stroke-width="0.510653" stroke-linecap="round" stroke-linejoin="round"/>
<defs>
<linearGradient id="paint0_linear_2689_20474" x1="135.067" y1="148.459" x2="-384.797" y2="148.459" gradientUnits="userSpaceOnUse">
<stop stop-color="white"/>
<stop offset="1" stop-color="#CCCCCC"/>
</linearGradient>
</defs>
</svg>
