<svg width="208" height="319" viewBox="0 0 208 319" fill="none" xmlns="http://www.w3.org/2000/svg">
<path d="M192.5 0.5H15.5001C7.21579 0.5 0.500061 7.21573 0.500061 15.5V303.5C0.500061 311.784 7.21579 318.5 15.5001 318.5H192.5C200.784 318.5 207.5 311.784 207.5 303.5V15.5C207.5 7.21573 200.784 0.5 192.5 0.5Z" fill="url(#paint0_linear_2689_20833)" stroke="black" stroke-linecap="square"/>
<path d="M157.4 15H193V304H157.4M121.8 304H86.2001M50.6 304H15.0001V15H50.6M86.2001 15H121.8" stroke="black"/>
<path d="M29.3877 28.0482V29.563H26.9736V33.5157H25.151V29.563H18.5002V28.0482L25.9321 17.5156H26.9736V28.0482H29.3877ZM25.1273 28.0482V19.9298L19.4468 28.0482H25.1273Z" fill="black"/>
<path d="M176.612 286.983V285.468H179.026V281.515H180.849V285.468H187.499V286.983L180.068 297.515H179.026V286.983H176.612ZM180.872 286.983V295.101L186.553 286.983H180.872Z" fill="black"/>
<path d="M46.9568 61.3159L47.2551 65.2086L44.6658 69.2154L91.5102 131.211L85.3279 119.308L60.8696 78.5536L49.929 59.68L46.9568 61.3159Z" fill="#D5E5FF"/>
<path d="M49.7732 59.397L53.9699 57.6405L62.0603 59.2732L92.898 133.398L85.4694 119.23L49.7732 59.397Z" fill="#87AADE"/>
<path d="M59.6236 52.5005C57.7353 57.7811 55.8241 56.9889 55.8241 56.9889L48.0254 60.9122L46.6879 61.8327L47.2551 65.2087L44.3246 64.2399C44.3246 64.2399 40.5251 68.7283 36.7662 66.9245L33.0217 65.4817C33.0217 65.4817 29.8707 60.7616 35.4684 57.8652L38.1301 59.3508C38.1301 59.3508 35.9129 52.6416 39.6839 47.4313C39.6839 47.4313 43.5043 41.6406 50.1794 44.0522C50.1794 44.0522 54.0085 43.9733 55.1846 48.1206C55.1846 48.1206 61.1356 43.1856 63.2312 44.9828C63.2312 44.9828 67.4431 47.2749 64.6771 52.3009C61.8322 53.4979 60.1612 51.467 60.1612 51.467L59.6236 52.5005Z" fill="#FFD42A"/>
<path d="M42.5737 54.6924L52.106 48.893C52.106 48.893 47.4694 46.8346 44.9218 48.2367C44.9218 48.2367 40.3367 52.9731 42.5737 54.6924Z" fill="#FF0000"/>
<path d="M46.0067 55.5688L51.2435 52.6867L52.8793 55.6589L47.5152 58.9799L46.0067 55.5688Z" fill="#FF5555"/>
<path d="M39.075 46.6601C39.075 46.6601 35.0178 40.9636 35.9866 38.0331C35.9866 38.0331 39.4054 38.5488 42.5751 34.5914C42.5751 34.5914 45.8951 36.2679 47.4541 42.7862C47.4541 42.7862 42.146 43.8635 39.075 46.6601Z" fill="#FF0000"/>
<path d="M32.1489 32.4C32.1489 32.4 31.0176 36.7107 36.0503 37.8134C36.0503 37.8134 40.3467 38.5837 42.9855 33.9965C42.9855 33.9965 42.1561 29.474 40.0891 28.3988L38.6946 27.8754C38.6946 27.8754 38.7923 23.027 34.9775 23.4669C34.9775 23.4669 28.8838 24.7922 30.6688 29.7108L32.1489 32.4Z" fill="#FFD42A"/>
<path d="M39.3671 28.4275C37.3154 31.4007 32.715 32.0886 32.715 32.0886C32.715 32.0886 30.5064 31.0912 30.286 27.34C30.286 27.34 33.5051 22.8022 36.5771 23.6932C36.5771 23.6932 39.8905 27.033 39.3671 28.4275Z" fill="#FFD42A" stroke="black" stroke-width="0.571904"/>
<path d="M56.3221 47.0027L53.4608 52.2285" stroke="black" stroke-width="1.08662"/>
<path d="M65.5472 50.5311C62.5475 55.1326 60.0197 51.5448 60.0197 51.5448L59.2626 52.5147C58.6339 56.7333 55.2864 58.0224 55.2864 58.0224L62.0745 59.6342L93.3369 133.525L89.6692 128.536L56.483 84.6559L44.6515 68.8544L47.1629 64.7061L44.6713 63.8646C44.6713 63.8646 40.9431 70.1578 33.5384 65.7504C33.5384 65.7504 29.2552 61.6535 34.6971 58.474C34.6971 58.474 36.5865 56.881 38.5832 59.839C38.5832 59.839 35.6441 53.1583 39.4787 47.7285C39.4787 47.7285 34.9256 40.4609 35.7672 37.9692C35.7672 37.9692 31.0955 36.8523 32.2761 31.9611C32.2761 31.9611 27.4125 27.8149 32.3519 24.7276C32.3519 24.7276 37.8433 20.9677 38.914 27.9391C38.914 27.9391 42.5807 29.2404 42.7946 34.6548C42.7946 34.6548 44.5072 34.0811 48.063 43.5573C48.063 43.5573 52.3167 43.2447 55.5598 48.4672C55.5598 48.4672 60.654 41.9754 64.4984 45.945C64.4984 45.945 66.3745 47.6785 65.5472 50.5311Z" stroke="black" stroke-width="1.08662"/>
<path d="M39.4009 47.5869C39.4009 47.5869 42.3227 42.8439 47.9072 43.2741" stroke="black" stroke-width="1.02943" stroke-linecap="round"/>
<path d="M35.6257 38.0473C35.6257 38.0473 39.7806 38.8955 42.7661 33.9331" stroke="black" stroke-width="1.02943" stroke-linecap="round"/>
<path d="M32.071 32.2587C32.071 32.2587 37.2518 31.6203 39.2114 28.1445" stroke="black" stroke-width="1.02943" stroke-linecap="round"/>
<path d="M37.3787 54.9696C37.3787 54.9696 39.0725 63.0733 44.6713 63.8644" stroke="black" stroke-width="1.02943" stroke-linecap="round"/>
<path d="M56.4045 57.0381L51.6671 48.7654C51.6671 48.7654 45.8127 45.1645 43.2024 50.4736C43.2024 50.4736 38.3628 56.0877 47.5229 61.0042L46.972 65.3643" stroke="black" stroke-width="1.02943" stroke-linecap="round"/>
<path d="M47.7424 61.068L55.1658 56.7979L51.1931 49.5797L42.9347 54.678C42.9347 54.678 43.006 56.4829 43.9616 56.879" stroke="black" stroke-width="1.02943" stroke-linecap="round"/>
<path d="M45.8795 56.0078L51.3993 52.9699L52.8936 56.02L47.7347 59.0437L45.8795 56.0078Z" stroke="black" stroke-width="1.02943" stroke-linecap="round"/>
<path d="M50.4249 61.2515L88.1464 124.764" stroke="black" stroke-width="1.02943" stroke-linecap="round"/>
<path d="M159.454 61.3159L159.156 65.2086L161.745 69.2154L114.901 131.211L121.083 119.308L145.541 78.5536L156.482 59.68L159.454 61.3159Z" fill="#D5E5FF"/>
<path d="M156.638 59.397L152.441 57.6405L144.351 59.2732L113.513 133.398L120.941 119.23L156.638 59.397Z" fill="#87AADE"/>
<path d="M146.787 52.5005C148.676 57.7811 150.587 56.9889 150.587 56.9889L158.386 60.9122L159.723 61.8327L159.156 65.2087L162.086 64.2399C162.086 64.2399 165.886 68.7283 169.645 66.9245L173.389 65.4817C173.389 65.4817 176.54 60.7616 170.942 57.8652L168.281 59.3508C168.281 59.3508 170.498 52.6416 166.727 47.4313C166.727 47.4313 162.907 41.6406 156.231 44.0522C156.231 44.0522 152.402 43.9733 151.226 48.1206C151.226 48.1206 145.275 43.1856 143.18 44.9828C143.18 44.9828 138.968 47.2749 141.734 52.3009C144.579 53.4979 146.25 51.467 146.25 51.467L146.787 52.5005Z" fill="#FFD42A"/>
<path d="M163.837 54.6924L154.305 48.893C154.305 48.893 158.941 46.8346 161.489 48.2367C161.489 48.2367 166.074 52.9731 163.837 54.6924Z" fill="#FF0000"/>
<path d="M160.404 55.5688L155.167 52.6867L153.532 55.6589L158.896 58.9799L160.404 55.5688Z" fill="#FF5555"/>
<path d="M167.336 46.6601C167.336 46.6601 171.393 40.9636 170.424 38.0331C170.424 38.0331 167.006 38.5488 163.836 34.5914C163.836 34.5914 160.516 36.2679 158.957 42.7862C158.957 42.7862 164.265 43.8635 167.336 46.6601Z" fill="#FF0000"/>
<path d="M174.262 32.4C174.262 32.4 175.393 36.7107 170.361 37.8134C170.361 37.8134 166.064 38.5837 163.425 33.9965C163.425 33.9965 164.255 29.474 166.322 28.3988L167.716 27.8754C167.716 27.8754 167.619 23.027 171.433 23.4669C171.433 23.4669 177.527 24.7922 175.742 29.7108L174.262 32.4Z" fill="#FFD42A"/>
<path d="M167.044 28.4275C169.095 31.4007 173.696 32.0886 173.696 32.0886C173.696 32.0886 175.904 31.0912 176.125 27.34C176.125 27.34 172.906 22.8022 169.834 23.6932C169.834 23.6932 166.52 27.033 167.044 28.4275Z" fill="#FFD42A" stroke="black" stroke-width="0.571904"/>
<path d="M150.089 47.0027L152.95 52.2285" stroke="black" stroke-width="1.08662"/>
<path d="M140.864 50.5311C143.863 55.1326 146.391 51.5448 146.391 51.5448L147.148 52.5147C147.777 56.7333 151.124 58.0224 151.124 58.0224L144.336 59.6342L113.074 133.525L116.742 128.536L149.928 84.6559L161.759 68.8544L159.248 64.7061L161.74 63.8646C161.74 63.8646 165.468 70.1578 172.872 65.7504C172.872 65.7504 177.156 61.6535 171.714 58.474C171.714 58.474 169.824 56.881 167.828 59.839C167.828 59.839 170.767 53.1583 166.932 47.7285C166.932 47.7285 171.485 40.4609 170.644 37.9692C170.644 37.9692 175.315 36.8523 174.135 31.9611C174.135 31.9611 178.998 27.8149 174.059 24.7276C174.059 24.7276 168.568 20.9677 167.497 27.9391C167.497 27.9391 163.83 29.2404 163.616 34.6548C163.616 34.6548 161.904 34.0811 158.348 43.5573C158.348 43.5573 154.094 43.2447 150.851 48.4672C150.851 48.4672 145.757 41.9754 141.913 45.945C141.913 45.945 140.036 47.6785 140.864 50.5311Z" stroke="black" stroke-width="1.08662"/>
<path d="M167.01 47.5869C167.01 47.5869 164.088 42.8439 158.504 43.2741" stroke="black" stroke-width="1.02943" stroke-linecap="round"/>
<path d="M170.785 38.0473C170.785 38.0473 166.63 38.8955 163.645 33.9331" stroke="black" stroke-width="1.02943" stroke-linecap="round"/>
<path d="M174.34 32.2587C174.34 32.2587 169.159 31.6203 167.2 28.1445" stroke="black" stroke-width="1.02943" stroke-linecap="round"/>
<path d="M169.032 54.9696C169.032 54.9696 167.338 63.0733 161.74 63.8644" stroke="black" stroke-width="1.02943" stroke-linecap="round"/>
<path d="M150.006 57.0381L154.744 48.7654C154.744 48.7654 160.598 45.1645 163.208 50.4736C163.208 50.4736 168.048 56.0877 158.888 61.0042L159.439 65.3643" stroke="black" stroke-width="1.02943" stroke-linecap="round"/>
<path d="M158.669 61.068L151.245 56.7979L155.218 49.5797L163.476 54.678C163.476 54.678 163.405 56.4829 162.449 56.879" stroke="black" stroke-width="1.02943" stroke-linecap="round"/>
<path d="M160.531 56.0078L155.012 52.9699L153.517 56.02L158.676 59.0437L160.531 56.0078Z" stroke="black" stroke-width="1.02943" stroke-linecap="round"/>
<path d="M155.986 61.2515L118.265 124.764" stroke="black" stroke-width="1.02943" stroke-linecap="round"/>
<path d="M46.9568 257.907L47.2551 254.014L44.6658 250.007L91.5102 188.011L85.3279 199.915L60.8696 240.669L49.929 259.543L46.9568 257.907Z" fill="#D5E5FF"/>
<path d="M49.7732 259.826L53.9699 261.582L62.0603 259.949L92.898 185.825L85.4694 199.993L49.7732 259.826Z" fill="#87AADE"/>
<path d="M59.6236 266.722C57.7353 261.442 55.8241 262.234 55.8241 262.234L48.0254 258.31L46.6879 257.39L47.2551 254.014L44.3246 254.983C44.3246 254.983 40.5251 250.494 36.7662 252.298L33.0217 253.741C33.0217 253.741 29.8707 258.461 35.4684 261.357L38.1301 259.872C38.1301 259.872 35.9129 266.581 39.6839 271.791C39.6839 271.791 43.5043 277.582 50.1794 275.17C50.1794 275.17 54.0085 275.249 55.1846 271.102C55.1846 271.102 61.1356 276.037 63.2312 274.24C63.2312 274.24 67.4431 271.948 64.6771 266.922C61.8322 265.725 60.1612 267.756 60.1612 267.756L59.6236 266.722Z" fill="#FFD42A"/>
<path d="M42.5737 264.53L52.106 270.33C52.106 270.33 47.4694 272.388 44.9218 270.986C44.9218 270.986 40.3367 266.25 42.5737 264.53Z" fill="#FF0000"/>
<path d="M46.0067 263.654L51.2435 266.536L52.8793 263.564L47.5152 260.243L46.0067 263.654Z" fill="#FF5555"/>
<path d="M39.075 272.563C39.075 272.563 35.0178 278.259 35.9866 281.19C35.9866 281.19 39.4054 280.674 42.5751 284.631C42.5751 284.631 45.8951 282.955 47.4541 276.436C47.4541 276.436 42.146 275.359 39.075 272.563Z" fill="#FF0000"/>
<path d="M32.1489 286.823C32.1489 286.823 31.0176 282.512 36.0503 281.409C36.0503 281.409 40.3467 280.639 42.9855 285.226C42.9855 285.226 42.1561 289.749 40.0891 290.824L38.6946 291.347C38.6946 291.347 38.7923 296.196 34.9775 295.756C34.9775 295.756 28.8838 294.43 30.6688 289.512L32.1489 286.823Z" fill="#FFD42A"/>
<path d="M39.3671 290.795C37.3154 287.822 32.715 287.134 32.715 287.134C32.715 287.134 30.5064 288.131 30.286 291.883C30.286 291.883 33.5051 296.42 36.5771 295.529C36.5771 295.529 39.8905 292.19 39.3671 290.795Z" fill="#FFD42A" stroke="black" stroke-width="0.571904"/>
<path d="M56.3221 272.22L53.4608 266.994" stroke="black" stroke-width="1.08662"/>
<path d="M65.5472 268.692C62.5475 264.09 60.0197 267.678 60.0197 267.678L59.2626 266.708C58.6339 262.489 55.2864 261.2 55.2864 261.2L62.0745 259.588L93.3369 185.698L89.6692 190.686L56.483 234.567L44.6515 250.368L47.1629 254.517L44.6713 255.358C44.6713 255.358 40.9431 249.065 33.5384 253.472C33.5384 253.472 29.2552 257.569 34.6971 260.749C34.6971 260.749 36.5865 262.342 38.5832 259.384C38.5832 259.384 35.6441 266.064 39.4787 271.494C39.4787 271.494 34.9256 278.762 35.7672 281.253C35.7672 281.253 31.0955 282.37 32.2761 287.262C32.2761 287.262 27.4125 291.408 32.3519 294.495C32.3519 294.495 37.8433 298.255 38.914 291.284C38.914 291.284 42.5807 289.982 42.7946 284.568C42.7946 284.568 44.5072 285.142 48.063 275.665C48.063 275.665 52.3167 275.978 55.5598 270.755C55.5598 270.755 60.654 277.247 64.4984 273.278C64.4984 273.278 66.3745 271.544 65.5472 268.692Z" stroke="black" stroke-width="1.08662"/>
<path d="M39.4009 271.636C39.4009 271.636 42.3227 276.379 47.9072 275.949" stroke="black" stroke-width="1.02943" stroke-linecap="round"/>
<path d="M35.6257 281.175C35.6257 281.175 39.7806 280.327 42.7661 285.29" stroke="black" stroke-width="1.02943" stroke-linecap="round"/>
<path d="M32.071 286.964C32.071 286.964 37.2518 287.602 39.2114 291.078" stroke="black" stroke-width="1.02943" stroke-linecap="round"/>
<path d="M37.3787 264.253C37.3787 264.253 39.0725 256.149 44.6713 255.358" stroke="black" stroke-width="1.02943" stroke-linecap="round"/>
<path d="M56.4045 262.185L51.6671 270.457C51.6671 270.457 45.8127 274.058 43.2024 268.749C43.2024 268.749 38.3628 263.135 47.5229 258.218L46.972 253.858" stroke="black" stroke-width="1.02943" stroke-linecap="round"/>
<path d="M47.7424 258.155L55.1658 262.425L51.1931 269.643L42.9347 264.545C42.9347 264.545 43.006 262.74 43.9616 262.344" stroke="black" stroke-width="1.02943" stroke-linecap="round"/>
<path d="M45.8795 263.215L51.3993 266.253L52.8936 263.203L47.7347 260.179L45.8795 263.215Z" stroke="black" stroke-width="1.02943" stroke-linecap="round"/>
<path d="M50.4249 257.971L88.1464 194.458" stroke="black" stroke-width="1.02943" stroke-linecap="round"/>
<path d="M159.454 257.907L159.156 254.014L161.745 250.007L114.901 188.011L121.083 199.915L145.541 240.669L156.482 259.543L159.454 257.907Z" fill="#D5E5FF"/>
<path d="M156.638 259.826L152.441 261.582L144.351 259.949L113.513 185.825L120.941 199.993L156.638 259.826Z" fill="#87AADE"/>
<path d="M146.787 266.722C148.676 261.442 150.587 262.234 150.587 262.234L158.386 258.31L159.723 257.39L159.156 254.014L162.086 254.983C162.086 254.983 165.886 250.494 169.645 252.298L173.389 253.741C173.389 253.741 176.54 258.461 170.942 261.357L168.281 259.872C168.281 259.872 170.498 266.581 166.727 271.791C166.727 271.791 162.907 277.582 156.231 275.17C156.231 275.17 152.402 275.249 151.226 271.102C151.226 271.102 145.275 276.037 143.18 274.24C143.18 274.24 138.968 271.948 141.734 266.922C144.579 265.725 146.25 267.756 146.25 267.756L146.787 266.722Z" fill="#FFD42A"/>
<path d="M163.837 264.53L154.305 270.33C154.305 270.33 158.941 272.388 161.489 270.986C161.489 270.986 166.074 266.25 163.837 264.53Z" fill="#FF0000"/>
<path d="M160.404 263.654L155.167 266.536L153.532 263.564L158.896 260.243L160.404 263.654Z" fill="#FF5555"/>
<path d="M167.336 272.563C167.336 272.563 171.393 278.259 170.424 281.19C170.424 281.19 167.006 280.674 163.836 284.631C163.836 284.631 160.516 282.955 158.957 276.436C158.957 276.436 164.265 275.359 167.336 272.563Z" fill="#FF0000"/>
<path d="M174.262 286.823C174.262 286.823 175.393 282.512 170.361 281.409C170.361 281.409 166.064 280.639 163.425 285.226C163.425 285.226 164.255 289.749 166.322 290.824L167.716 291.347C167.716 291.347 167.619 296.196 171.433 295.756C171.433 295.756 177.527 294.43 175.742 289.512L174.262 286.823Z" fill="#FFD42A"/>
<path d="M167.044 290.795C169.095 287.822 173.696 287.134 173.696 287.134C173.696 287.134 175.904 288.131 176.125 291.883C176.125 291.883 172.906 296.42 169.834 295.529C169.834 295.529 166.52 292.19 167.044 290.795Z" fill="#FFD42A" stroke="black" stroke-width="0.571904"/>
<path d="M150.089 272.22L152.95 266.994" stroke="black" stroke-width="1.08662"/>
<path d="M140.864 268.692C143.863 264.09 146.391 267.678 146.391 267.678L147.148 266.708C147.777 262.489 151.124 261.2 151.124 261.2L144.336 259.588L113.074 185.698L116.742 190.686L149.928 234.567L161.759 250.368L159.248 254.517L161.74 255.358C161.74 255.358 165.468 249.065 172.872 253.472C172.872 253.472 177.156 257.569 171.714 260.749C171.714 260.749 169.824 262.342 167.828 259.384C167.828 259.384 170.767 266.064 166.932 271.494C166.932 271.494 171.485 278.762 170.644 281.253C170.644 281.253 175.315 282.37 174.135 287.262C174.135 287.262 178.998 291.408 174.059 294.495C174.059 294.495 168.568 298.255 167.497 291.284C167.497 291.284 163.83 289.982 163.616 284.568C163.616 284.568 161.904 285.142 158.348 275.665C158.348 275.665 154.094 275.978 150.851 270.755C150.851 270.755 145.757 277.247 141.913 273.278C141.913 273.278 140.036 271.544 140.864 268.692Z" stroke="black" stroke-width="1.08662"/>
<path d="M167.01 271.636C167.01 271.636 164.088 276.379 158.504 275.949" stroke="black" stroke-width="1.02943" stroke-linecap="round"/>
<path d="M170.785 281.175C170.785 281.175 166.63 280.327 163.645 285.29" stroke="black" stroke-width="1.02943" stroke-linecap="round"/>
<path d="M174.34 286.964C174.34 286.964 169.159 287.602 167.2 291.078" stroke="black" stroke-width="1.02943" stroke-linecap="round"/>
<path d="M169.032 264.253C169.032 264.253 167.338 256.149 161.74 255.358" stroke="black" stroke-width="1.02943" stroke-linecap="round"/>
<path d="M150.006 262.185L154.744 270.457C154.744 270.457 160.598 274.058 163.208 268.749C163.208 268.749 168.048 263.135 158.888 258.218L159.439 253.858" stroke="black" stroke-width="1.02943" stroke-linecap="round"/>
<path d="M158.669 258.155L151.245 262.425L155.218 269.643L163.476 264.545C163.476 264.545 163.405 262.74 162.449 262.344" stroke="black" stroke-width="1.02943" stroke-linecap="round"/>
<path d="M160.531 263.215L155.012 266.253L153.517 263.203L158.676 260.179L160.531 263.215Z" stroke="black" stroke-width="1.02943" stroke-linecap="round"/>
<path d="M155.986 257.971L118.265 194.458" stroke="black" stroke-width="1.02943" stroke-linecap="round"/>
<defs>
<linearGradient id="paint0_linear_2689_20833" x1="135.067" y1="148.459" x2="-384.797" y2="148.459" gradientUnits="userSpaceOnUse">
<stop stop-color="white"/>
<stop offset="1" stop-color="#CCCCCC"/>
</linearGradient>
</defs>
</svg>
