<svg width="208" height="319" viewBox="0 0 208 319" fill="none" xmlns="http://www.w3.org/2000/svg">
<path d="M192.5 0.5H15.5C7.21573 0.5 0.5 7.21573 0.5 15.5V303.5C0.5 311.784 7.21573 318.5 15.5 318.5H192.5C200.784 318.5 207.5 311.784 207.5 303.5V15.5C207.5 7.21573 200.784 0.5 192.5 0.5Z" fill="url(#paint0_linear_2689_21065)" stroke="black" stroke-linecap="square"/>
<path d="M157.4 15H193V304H157.4M121.8 304H86.2M50.6 304H15V15H50.6M86.2 15H121.8" stroke="black"/>
<path d="M182.252 283.412C183.796 283.412 185.041 284.023 185.989 285.246C186.921 286.484 187.387 288.111 187.387 290.128C187.387 290.755 187.325 291.397 187.203 292.054C187.081 292.726 186.814 293.483 186.401 294.323C185.989 295.179 185.454 295.943 184.796 296.616C184.139 297.288 183.223 297.884 182.046 298.403C180.854 298.938 179.486 299.275 177.943 299.412L177.897 299.045C179.7 298.755 181.205 298.021 182.412 296.845C183.619 295.683 184.376 294.239 184.682 292.512C183.963 292.94 183.421 293.215 183.054 293.338C182.687 293.475 182.252 293.544 181.748 293.544C180.433 293.544 179.386 293.108 178.607 292.237C177.828 291.382 177.438 290.22 177.438 288.753C177.438 287.179 177.889 285.895 178.79 284.902C179.677 283.909 180.831 283.412 182.252 283.412ZM182.618 292.489C183.658 292.489 184.361 292.26 184.727 291.802C185.079 291.343 185.255 290.663 185.255 289.762C185.255 287.989 184.964 286.591 184.384 285.567C183.803 284.558 183.008 284.054 182 284.054C181.19 284.054 180.571 284.39 180.143 285.063C179.715 285.75 179.501 286.721 179.501 287.974C179.501 289.41 179.776 290.518 180.326 291.297C180.861 292.092 181.625 292.489 182.618 292.489Z" fill="black"/>
<path d="M23.5216 35.4126C21.9782 35.4126 20.7327 34.8013 19.7853 33.5788C18.8531 32.341 18.387 30.7135 18.387 28.6963C18.387 28.0697 18.4487 27.4279 18.5705 26.7708C18.6927 26.0984 18.9601 25.3419 19.3727 24.5014C19.7852 23.6456 20.3202 22.8816 20.9773 22.2092C21.6343 21.5368 22.5512 20.9408 23.728 20.4212C24.92 19.8864 26.2877 19.5501 27.8311 19.4126L27.8773 19.7794C26.0741 20.0698 24.5688 20.8033 23.3616 21.9799C22.1543 23.1414 21.3979 24.5855 21.0922 26.3123C21.8105 25.8844 22.3529 25.6094 22.7198 25.4871C23.0866 25.3496 23.522 25.2808 24.0263 25.2808C25.3405 25.2808 26.3873 25.7164 27.1667 26.5874C27.9461 27.4432 28.3358 28.6046 28.3358 30.0716C28.3358 31.6457 27.885 32.9293 26.9834 33.9226C26.097 34.916 24.9429 35.4126 23.5216 35.4126ZM23.1554 26.3352C22.1162 26.3352 21.4132 26.5645 21.0465 27.0229C20.695 27.4814 20.5192 28.1615 20.5193 29.0631C20.5192 30.8358 20.8095 32.234 21.3902 33.2579C21.9709 34.2665 22.7656 34.7708 23.7742 34.7708C24.5842 34.7708 25.203 34.4345 25.6309 33.7621C26.0588 33.0745 26.2726 32.1041 26.2726 30.851C26.2726 29.4145 25.9977 28.3066 25.4476 27.5272C24.9127 26.7326 24.1486 26.3352 23.1554 26.3352Z" fill="black"/>
<path d="M100.026 254.437L98.4107 250.883L94.2103 248.621L105.358 171.721L105.681 185.13L103.904 232.627L103.419 254.437H100.026Z" fill="#D5E5FF"/>
<path d="M103.419 254.76L107.942 254.275L114.243 248.944L105.519 169.136L105.842 185.13L103.419 254.76Z" fill="#87AADE"/>
<path d="M115.374 256.052C111.174 252.337 109.881 253.952 109.881 253.952L101.157 254.275L99.5417 254.114L98.4108 250.883L96.3106 253.144C96.3106 253.144 90.8177 251.044 88.3944 254.437L85.8095 257.506C85.8095 257.506 85.3249 263.161 91.6255 262.999L93.241 260.414C93.241 260.414 94.5335 267.361 100.349 270.108C100.349 270.108 106.489 273.339 111.174 268.007C111.174 268.007 114.566 266.23 113.597 262.03C113.597 262.03 121.19 263.484 122.159 260.899C122.159 260.899 124.744 256.86 119.898 253.79C116.828 254.114 116.343 256.698 116.343 256.698L115.374 256.052Z" fill="#FFD42A"/>
<path d="M99.3801 262.353L110.527 262.838C110.527 262.838 107.458 266.876 104.55 266.876C104.55 266.876 98.2492 264.938 99.3801 262.353Z" fill="#FF0000"/>
<path d="M101.965 259.93H107.942V256.537L101.642 256.214L101.965 259.93Z" fill="#FF5555"/>
<path d="M100.188 271.077C100.188 271.077 99.3801 278.024 101.642 280.124C101.642 280.124 104.388 278.024 109.073 279.962C109.073 279.962 111.174 276.893 109.396 270.431C109.396 270.431 104.227 272.046 100.188 271.077Z" fill="#FF0000"/>
<path d="M100.996 286.909C100.996 286.909 97.9261 283.678 101.803 280.286C101.803 280.286 105.196 277.539 109.72 280.286C109.72 280.286 111.174 284.648 109.881 286.586L108.912 287.717C108.912 287.717 111.335 291.918 107.781 293.372C107.781 293.372 101.803 295.149 100.996 289.979V286.909Z" fill="#FFD42A"/>
<path d="M109.235 286.909C106.004 285.294 101.642 286.909 101.642 286.909C101.642 286.909 100.188 288.848 101.803 292.241C101.803 292.241 106.812 294.664 109.073 292.402C109.073 292.402 110.366 287.879 109.235 286.909Z" fill="#FFD42A" stroke="black" stroke-width="0.571904"/>
<path d="M115.132 262.461L110.106 259.262" stroke="black" stroke-width="1.08662"/>
<path d="M121.513 254.921C116.666 252.337 116.182 256.699 116.182 256.699L115.051 256.214C112.466 252.821 108.912 253.306 108.912 253.306L114.082 248.621L105.842 168.813L105.035 174.952L97.1184 229.396L94.3719 248.944L98.5724 251.367L96.7953 253.306C96.7953 253.306 90.4946 249.59 86.1326 257.022C86.1326 257.022 84.3555 262.676 90.6562 262.838C90.6562 262.838 93.0795 263.322 93.4026 259.768C93.4026 259.768 94.0488 267.038 100.026 269.946C100.026 269.946 99.5417 278.508 101.48 280.286C101.48 280.286 97.9261 283.517 101.319 287.232C101.319 287.232 99.057 293.21 104.873 293.533C104.873 293.533 111.497 294.179 109.073 287.556C109.073 287.556 111.658 284.648 109.235 279.801C109.235 279.801 111.012 279.478 109.558 269.461C109.558 269.461 113.435 267.684 113.758 261.545C113.758 261.545 121.352 264.776 122.806 259.445C122.806 259.445 123.613 257.022 121.513 254.921Z" stroke="black" stroke-width="1.08662"/>
<path d="M100.026 270.108C100.026 270.108 104.873 272.854 109.558 269.784" stroke="black" stroke-width="1.02943" stroke-linecap="round"/>
<path d="M101.319 280.286C101.319 280.286 104.55 277.539 109.558 280.447" stroke="black" stroke-width="1.02943" stroke-linecap="round"/>
<path d="M100.996 287.071C100.996 287.071 105.842 285.132 109.235 287.232" stroke="black" stroke-width="1.02943" stroke-linecap="round"/>
<path d="M94.6951 264.615C94.6951 264.615 92.2718 256.699 96.7953 253.306" stroke="black" stroke-width="1.02943" stroke-linecap="round"/>
<path d="M110.366 253.629L110.204 263.161C110.204 263.161 106.812 269.138 101.965 265.746C101.965 265.746 95.0181 263.161 100.673 254.437L98.0876 250.883" stroke="black" stroke-width="1.02943" stroke-linecap="round"/>
<path d="M100.834 254.275L109.397 254.437V262.676L99.7033 262.192C99.7033 262.192 98.8955 260.576 99.5417 259.768" stroke="black" stroke-width="1.02943" stroke-linecap="round"/>
<path d="M101.642 259.606H107.942L107.781 256.214L101.803 256.052L101.642 259.606Z" stroke="black" stroke-width="1.02943" stroke-linecap="round"/>
<path d="M103.096 252.821L105.519 178.991" stroke="black" stroke-width="1.02943" stroke-linecap="round"/>
<path d="M38.1011 62.4292L36.4856 65.9834L32.2852 68.2452L43.4324 145.145L43.7555 131.736L41.9784 84.2391L41.4938 62.4292H38.1011Z" fill="#D5E5FF"/>
<path d="M41.4938 62.1064L46.0173 62.5911L52.3179 67.9224L43.594 147.73L43.9171 131.737L41.4938 62.1064Z" fill="#87AADE"/>
<path d="M53.4489 60.8139C49.2484 64.5297 47.956 62.9142 47.956 62.9142L39.232 62.5911L37.6165 62.7526L36.4856 65.9837L34.3854 63.7219C34.3854 63.7219 28.8925 65.8221 26.4692 62.4295L23.8843 59.36C23.8843 59.36 23.3997 53.7055 29.7003 53.8671L31.3159 56.452C31.3159 56.452 32.6083 49.5051 38.4243 46.7587C38.4243 46.7587 44.5633 43.5276 49.2484 48.8589C49.2484 48.8589 52.6411 50.636 51.6718 54.8364C51.6718 54.8364 59.2648 53.3824 60.2342 55.9673C60.2342 55.9673 62.819 60.0062 57.9724 63.0757C54.9028 62.7526 54.4182 60.1677 54.4182 60.1677L53.4489 60.8139Z" fill="#FFD42A"/>
<path d="M37.455 54.5133L48.6022 54.0286C48.6022 54.0286 45.5327 49.9897 42.6247 49.9897C42.6247 49.9897 36.3241 51.9284 37.455 54.5133Z" fill="#FF0000"/>
<path d="M40.0398 56.9365H46.0173V60.3292L39.7167 60.6523L40.0398 56.9365Z" fill="#FF5555"/>
<path d="M38.2627 45.7892C38.2627 45.7892 37.4549 38.8424 39.7167 36.7422C39.7167 36.7422 42.4631 38.8424 47.1482 36.9037C47.1482 36.9037 49.2484 39.9733 47.4713 46.4355C47.4713 46.4355 42.3015 44.8199 38.2627 45.7892Z" fill="#FF0000"/>
<path d="M39.0704 29.9569C39.0704 29.9569 36.0009 33.188 39.8782 36.5806C39.8782 36.5806 43.2709 39.327 47.7944 36.5806C47.7944 36.5806 49.2484 32.2186 47.9559 30.28L46.9866 29.1491C46.9866 29.1491 49.4099 24.9487 45.8557 23.4947C45.8557 23.4947 39.8782 21.7176 39.0704 26.8873V29.9569Z" fill="#FFD42A"/>
<path d="M47.3098 29.9569C44.0787 31.5724 39.7167 29.9569 39.7167 29.9569C39.7167 29.9569 38.2627 28.0182 39.8783 24.6256C39.8783 24.6256 44.8865 22.2022 47.1482 24.464C47.1482 24.464 48.4407 28.9875 47.3098 29.9569Z" fill="#FFD42A" stroke="black" stroke-width="0.571904"/>
<path d="M53.2073 54.4053L48.1809 57.6039" stroke="black" stroke-width="1.08662"/>
<path d="M59.5879 61.9447C54.7413 64.5296 54.2566 60.1676 54.2566 60.1676L53.1258 60.6523C50.5409 64.0449 46.9867 63.5603 46.9867 63.5603L52.1564 68.2453L43.9171 148.053L43.1094 141.914L35.1932 87.4704L32.4468 67.9222L36.6472 65.4989L34.8701 63.5603C34.8701 63.5603 28.5694 67.276 24.2075 59.8445C24.2075 59.8445 22.4304 54.1901 28.731 54.0285C28.731 54.0285 31.1543 53.5439 31.4774 57.0981C31.4774 57.0981 32.1237 49.8281 38.1012 46.9201C38.1012 46.9201 37.6165 38.3577 39.5552 36.5806C39.5552 36.5806 36.001 33.3495 39.3936 29.6338C39.3936 29.6338 37.1318 23.6563 42.9478 23.3331C42.9478 23.3331 49.5716 22.6869 47.1482 29.3107C47.1482 29.3107 49.7331 32.2187 47.3098 37.0653C47.3098 37.0653 49.0869 37.3884 47.6329 47.4048C47.6329 47.4048 51.5102 49.1819 51.8333 55.321C51.8333 55.321 59.4264 52.0899 60.8804 57.4212C60.8804 57.4212 61.6882 59.8445 59.5879 61.9447Z" stroke="black" stroke-width="1.08662"/>
<path d="M38.1012 46.7587C38.1012 46.7587 42.9478 44.0122 47.6329 47.0818" stroke="black" stroke-width="1.02943" stroke-linecap="round"/>
<path d="M39.3936 36.5805C39.3936 36.5805 42.6246 39.3269 47.6328 36.4189" stroke="black" stroke-width="1.02943" stroke-linecap="round"/>
<path d="M39.0704 29.7953C39.0704 29.7953 43.9171 31.734 47.3097 29.6338" stroke="black" stroke-width="1.02943" stroke-linecap="round"/>
<path d="M32.7699 52.2515C32.7699 52.2515 30.3466 60.1676 34.8701 63.5603" stroke="black" stroke-width="1.02943" stroke-linecap="round"/>
<path d="M48.4406 63.2372L48.2791 53.7055C48.2791 53.7055 44.8864 47.728 40.0398 51.1207C40.0398 51.1207 33.0929 53.7055 38.7474 62.4295L36.1625 65.9837" stroke="black" stroke-width="1.02943" stroke-linecap="round"/>
<path d="M38.909 62.5908L47.4714 62.4292V54.1899L37.7781 54.6746C37.7781 54.6746 36.9703 56.2902 37.6165 57.0979" stroke="black" stroke-width="1.02943" stroke-linecap="round"/>
<path d="M39.7167 57.2598H46.0173L45.8558 60.6524L39.8782 60.814L39.7167 57.2598Z" stroke="black" stroke-width="1.02943" stroke-linecap="round"/>
<path d="M41.1707 64.0449L43.594 137.875" stroke="black" stroke-width="1.02943" stroke-linecap="round"/>
<path d="M162.731 62.4292L161.116 65.9834L156.915 68.2452L168.062 145.145L168.386 131.736L166.608 84.2391L166.124 62.4292H162.731Z" fill="#D5E5FF"/>
<path d="M166.124 62.1064L170.647 62.5911L176.948 67.9224L168.224 147.73L168.547 131.737L166.124 62.1064Z" fill="#87AADE"/>
<path d="M178.079 60.8139C173.878 64.5297 172.586 62.9142 172.586 62.9142L163.862 62.5911L162.247 62.7526L161.116 65.9837L159.015 63.7219C159.015 63.7219 153.523 65.8221 151.099 62.4295L148.514 59.36C148.514 59.36 148.03 53.7055 154.33 53.8671L155.946 56.452C155.946 56.452 157.238 49.5051 163.054 46.7587C163.054 46.7587 169.193 43.5276 173.878 48.8589C173.878 48.8589 177.271 50.636 176.302 54.8364C176.302 54.8364 183.895 53.3824 184.864 55.9673C184.864 55.9673 187.449 60.0062 182.602 63.0757C179.533 62.7526 179.048 60.1677 179.048 60.1677L178.079 60.8139Z" fill="#FFD42A"/>
<path d="M162.085 54.5133L173.232 54.0286C173.232 54.0286 170.163 49.9897 167.255 49.9897C167.255 49.9897 160.954 51.9284 162.085 54.5133Z" fill="#FF0000"/>
<path d="M164.67 56.9365H170.647V60.3292L164.347 60.6523L164.67 56.9365Z" fill="#FF5555"/>
<path d="M162.893 45.7892C162.893 45.7892 162.085 38.8424 164.347 36.7422C164.347 36.7422 167.093 38.8424 171.778 36.9037C171.778 36.9037 173.878 39.9733 172.101 46.4355C172.101 46.4355 166.932 44.8199 162.893 45.7892Z" fill="#FF0000"/>
<path d="M163.7 29.9569C163.7 29.9569 160.631 33.188 164.508 36.5806C164.508 36.5806 167.901 39.327 172.424 36.5806C172.424 36.5806 173.878 32.2186 172.586 30.28L171.617 29.1491C171.617 29.1491 174.04 24.9487 170.486 23.4947C170.486 23.4947 164.508 21.7176 163.7 26.8873V29.9569Z" fill="#FFD42A"/>
<path d="M171.94 29.9569C168.709 31.5724 164.347 29.9569 164.347 29.9569C164.347 29.9569 162.893 28.0182 164.508 24.6256C164.508 24.6256 169.516 22.2022 171.778 24.464C171.778 24.464 173.071 28.9875 171.94 29.9569Z" fill="#FFD42A" stroke="black" stroke-width="0.571904"/>
<path d="M177.837 54.4053L172.811 57.6039" stroke="black" stroke-width="1.08662"/>
<path d="M184.218 61.9447C179.371 64.5296 178.887 60.1676 178.887 60.1676L177.756 60.6523C175.171 64.0449 171.617 63.5603 171.617 63.5603L176.786 68.2453L168.547 148.053L167.739 141.914L159.823 87.4704L157.077 67.9222L161.277 65.4989L159.5 63.5603C159.5 63.5603 153.199 67.276 148.837 59.8445C148.837 59.8445 147.06 54.1901 153.361 54.0285C153.361 54.0285 155.784 53.5439 156.107 57.0981C156.107 57.0981 156.754 49.8281 162.731 46.9201C162.731 46.9201 162.247 38.3577 164.185 36.5806C164.185 36.5806 160.631 33.3495 164.024 29.6338C164.024 29.6338 161.762 23.6563 167.578 23.3331C167.578 23.3331 174.202 22.6869 171.778 29.3107C171.778 29.3107 174.363 32.2187 171.94 37.0653C171.94 37.0653 173.717 37.3884 172.263 47.4048C172.263 47.4048 176.14 49.1819 176.463 55.321C176.463 55.321 184.056 52.0899 185.51 57.4212C185.51 57.4212 186.318 59.8445 184.218 61.9447Z" stroke="black" stroke-width="1.08662"/>
<path d="M162.731 46.7587C162.731 46.7587 167.578 44.0122 172.263 47.0818" stroke="black" stroke-width="1.02943" stroke-linecap="round"/>
<path d="M164.024 36.5805C164.024 36.5805 167.255 39.3269 172.263 36.4189" stroke="black" stroke-width="1.02943" stroke-linecap="round"/>
<path d="M163.7 29.7953C163.7 29.7953 168.547 31.734 171.94 29.6338" stroke="black" stroke-width="1.02943" stroke-linecap="round"/>
<path d="M157.4 52.2515C157.4 52.2515 154.977 60.1676 159.5 63.5603" stroke="black" stroke-width="1.02943" stroke-linecap="round"/>
<path d="M173.071 63.2372L172.909 53.7055C172.909 53.7055 169.516 47.728 164.67 51.1207C164.67 51.1207 157.723 53.7055 163.377 62.4295L160.792 65.9837" stroke="black" stroke-width="1.02943" stroke-linecap="round"/>
<path d="M163.539 62.5908L172.101 62.4292V54.1899L162.408 54.6746C162.408 54.6746 161.6 56.2902 162.247 57.0979" stroke="black" stroke-width="1.02943" stroke-linecap="round"/>
<path d="M164.347 57.2598H170.647L170.486 60.6524L164.508 60.814L164.347 57.2598Z" stroke="black" stroke-width="1.02943" stroke-linecap="round"/>
<path d="M165.801 64.0449L168.224 137.875" stroke="black" stroke-width="1.02943" stroke-linecap="round"/>
<path d="M99.1814 62.4292L97.5659 65.9834L93.3655 68.2452L104.513 145.145L104.836 131.736L103.059 84.2391L102.574 62.4292H99.1814Z" fill="#D5E5FF"/>
<path d="M102.574 62.1064L107.098 62.5911L113.398 67.9224L104.674 147.73L104.997 131.737L102.574 62.1064Z" fill="#87AADE"/>
<path d="M114.529 60.8139C110.329 64.5297 109.036 62.9142 109.036 62.9142L100.312 62.5911L98.6968 62.7526L97.5659 65.9837L95.4657 63.7219C95.4657 63.7219 89.9729 65.8221 87.5495 62.4295L84.9647 59.36C84.9647 59.36 84.48 53.7055 90.7806 53.8671L92.3962 56.452C92.3962 56.452 93.6886 49.5051 99.5046 46.7587C99.5046 46.7587 105.644 43.5276 110.329 48.8589C110.329 48.8589 113.721 50.636 112.752 54.8364C112.752 54.8364 120.345 53.3824 121.314 55.9673C121.314 55.9673 123.899 60.0062 119.053 63.0757C115.983 62.7526 115.499 60.1677 115.499 60.1677L114.529 60.8139Z" fill="#FFD42A"/>
<path d="M98.5353 54.5133L109.683 54.0286C109.683 54.0286 106.613 49.9897 103.705 49.9897C103.705 49.9897 97.4044 51.9284 98.5353 54.5133Z" fill="#FF0000"/>
<path d="M101.12 56.9365H107.098V60.3292L100.797 60.6523L101.12 56.9365Z" fill="#FF5555"/>
<path d="M99.343 45.7892C99.343 45.7892 98.5352 38.8424 100.797 36.7422C100.797 36.7422 103.543 38.8424 108.229 36.9037C108.229 36.9037 110.329 39.9733 108.552 46.4355C108.552 46.4355 103.382 44.8199 99.343 45.7892Z" fill="#FF0000"/>
<path d="M100.151 29.9569C100.151 29.9569 97.0812 33.188 100.959 36.5806C100.959 36.5806 104.351 39.327 108.875 36.5806C108.875 36.5806 110.329 32.2186 109.036 30.28L108.067 29.1491C108.067 29.1491 110.49 24.9487 106.936 23.4947C106.936 23.4947 100.959 21.7176 100.151 26.8873V29.9569Z" fill="#FFD42A"/>
<path d="M108.39 29.9569C105.159 31.5724 100.797 29.9569 100.797 29.9569C100.797 29.9569 99.3431 28.0182 100.959 24.6256C100.959 24.6256 105.967 22.2022 108.229 24.464C108.229 24.464 109.521 28.9875 108.39 29.9569Z" fill="#FFD42A" stroke="black" stroke-width="0.571904"/>
<path d="M114.288 54.4053L109.261 57.6039" stroke="black" stroke-width="1.08662"/>
<path d="M120.668 61.9447C115.822 64.5296 115.337 60.1676 115.337 60.1676L114.206 60.6523C111.621 64.0449 108.067 63.5603 108.067 63.5603L113.237 68.2453L104.997 148.053L104.19 141.914L96.2735 87.4704L93.5271 67.9222L97.7275 65.4989L95.9504 63.5603C95.9504 63.5603 89.6498 67.276 85.2878 59.8445C85.2878 59.8445 83.5107 54.1901 89.8113 54.0285C89.8113 54.0285 92.2346 53.5439 92.5578 57.0981C92.5578 57.0981 93.204 49.8281 99.1815 46.9201C99.1815 46.9201 98.6968 38.3577 100.635 36.5806C100.635 36.5806 97.0813 33.3495 100.474 29.6338C100.474 29.6338 98.2122 23.6563 104.028 23.3331C104.028 23.3331 110.652 22.6869 108.229 29.3107C108.229 29.3107 110.813 32.2187 108.39 37.0653C108.39 37.0653 110.167 37.3884 108.713 47.4048C108.713 47.4048 112.591 49.1819 112.914 55.321C112.914 55.321 120.507 52.0899 121.961 57.4212C121.961 57.4212 122.768 59.8445 120.668 61.9447Z" stroke="black" stroke-width="1.08662"/>
<path d="M99.1815 46.7587C99.1815 46.7587 104.028 44.0122 108.713 47.0818" stroke="black" stroke-width="1.02943" stroke-linecap="round"/>
<path d="M100.474 36.5805C100.474 36.5805 103.705 39.3269 108.713 36.4189" stroke="black" stroke-width="1.02943" stroke-linecap="round"/>
<path d="M100.151 29.7953C100.151 29.7953 104.997 31.734 108.39 29.6338" stroke="black" stroke-width="1.02943" stroke-linecap="round"/>
<path d="M93.8502 52.2515C93.8502 52.2515 91.4269 60.1676 95.9504 63.5603" stroke="black" stroke-width="1.02943" stroke-linecap="round"/>
<path d="M109.521 63.2372L109.359 53.7055C109.359 53.7055 105.967 47.728 101.12 51.1207C101.12 51.1207 94.1733 53.7055 99.8277 62.4295L97.2428 65.9837" stroke="black" stroke-width="1.02943" stroke-linecap="round"/>
<path d="M99.9893 62.5908L108.552 62.4292V54.1899L98.8584 54.6746C98.8584 54.6746 98.0506 56.2902 98.6969 57.0979" stroke="black" stroke-width="1.02943" stroke-linecap="round"/>
<path d="M100.797 57.2598H107.098L106.936 60.6524L100.959 60.814L100.797 57.2598Z" stroke="black" stroke-width="1.02943" stroke-linecap="round"/>
<path d="M102.251 64.0449L104.674 137.875" stroke="black" stroke-width="1.02943" stroke-linecap="round"/>
<path d="M37.7114 254.437L36.0958 250.883L31.8954 248.621L43.0427 171.721L43.3658 185.13L41.5887 232.627L41.104 254.437H37.7114Z" fill="#D5E5FF"/>
<path d="M41.104 254.76L45.6275 254.275L51.9282 248.944L43.2042 169.136L43.5273 185.13L41.104 254.76Z" fill="#87AADE"/>
<path d="M53.0591 256.052C48.8587 252.337 47.5662 253.952 47.5662 253.952L38.8423 254.275L37.2267 254.114L36.0958 250.883L33.9956 253.144C33.9956 253.144 28.5028 251.044 26.0794 254.437L23.4946 257.506C23.4946 257.506 23.0099 263.161 29.3105 262.999L30.9261 260.414C30.9261 260.414 32.2185 267.361 38.0345 270.108C38.0345 270.108 44.1736 273.339 48.8587 268.007C48.8587 268.007 52.2513 266.23 51.282 262.03C51.282 262.03 58.8751 263.484 59.8444 260.899C59.8444 260.899 62.4293 256.86 57.5826 253.79C54.5131 254.114 54.0284 256.698 54.0284 256.698L53.0591 256.052Z" fill="#FFD42A"/>
<path d="M37.0652 262.353L48.2125 262.838C48.2125 262.838 45.1429 266.876 42.2349 266.876C42.2349 266.876 35.9343 264.938 37.0652 262.353Z" fill="#FF0000"/>
<path d="M39.65 259.93H45.6275V256.537L39.3269 256.214L39.65 259.93Z" fill="#FF5555"/>
<path d="M37.8729 271.077C37.8729 271.077 37.0651 278.024 39.3269 280.124C39.3269 280.124 42.0733 278.024 46.7584 279.962C46.7584 279.962 48.8586 276.893 47.0815 270.431C47.0815 270.431 41.9118 272.046 37.8729 271.077Z" fill="#FF0000"/>
<path d="M38.6807 286.909C38.6807 286.909 35.6111 283.678 39.4884 280.286C39.4884 280.286 42.8811 277.539 47.4046 280.286C47.4046 280.286 48.8586 284.648 47.5662 286.586L46.5968 287.717C46.5968 287.717 49.0202 291.918 45.466 293.372C45.466 293.372 39.4884 295.149 38.6807 289.979V286.909Z" fill="#FFD42A"/>
<path d="M46.92 286.909C43.6889 285.294 39.327 286.909 39.327 286.909C39.327 286.909 37.873 288.848 39.4885 292.241C39.4885 292.241 44.4967 294.664 46.7585 292.402C46.7585 292.402 48.0509 287.879 46.92 286.909Z" fill="#FFD42A" stroke="black" stroke-width="0.571904"/>
<path d="M52.8175 262.461L47.7911 259.262" stroke="black" stroke-width="1.08662"/>
<path d="M59.1982 254.921C54.3515 252.337 53.8669 256.699 53.8669 256.699L52.736 256.214C50.1511 252.821 46.5969 253.306 46.5969 253.306L51.7667 248.621L43.5274 168.813L42.7196 174.952L34.8034 229.396L32.057 248.944L36.2574 251.367L34.4803 253.306C34.4803 253.306 28.1797 249.59 23.8177 257.022C23.8177 257.022 22.0406 262.676 28.3412 262.838C28.3412 262.838 30.7646 263.322 31.0877 259.768C31.0877 259.768 31.7339 267.038 37.7114 269.946C37.7114 269.946 37.2267 278.508 39.1654 280.286C39.1654 280.286 35.6112 283.517 39.0038 287.232C39.0038 287.232 36.7421 293.21 42.558 293.533C42.558 293.533 49.1818 294.179 46.7585 287.556C46.7585 287.556 49.3433 284.648 46.92 279.801C46.92 279.801 48.6971 279.478 47.2431 269.461C47.2431 269.461 51.1204 267.684 51.4435 261.545C51.4435 261.545 59.0366 264.776 60.4906 259.445C60.4906 259.445 61.2984 257.022 59.1982 254.921Z" stroke="black" stroke-width="1.08662"/>
<path d="M37.7114 270.108C37.7114 270.108 42.5581 272.854 47.2432 269.784" stroke="black" stroke-width="1.02943" stroke-linecap="round"/>
<path d="M39.0038 280.286C39.0038 280.286 42.2349 277.539 47.2431 280.447" stroke="black" stroke-width="1.02943" stroke-linecap="round"/>
<path d="M38.6807 287.071C38.6807 287.071 43.5273 285.132 46.92 287.232" stroke="black" stroke-width="1.02943" stroke-linecap="round"/>
<path d="M32.3801 264.615C32.3801 264.615 29.9568 256.699 34.4804 253.306" stroke="black" stroke-width="1.02943" stroke-linecap="round"/>
<path d="M48.0509 253.629L47.8893 263.161C47.8893 263.161 44.4967 269.138 39.65 265.746C39.65 265.746 32.7032 263.161 38.3576 254.437L35.7727 250.883" stroke="black" stroke-width="1.02943" stroke-linecap="round"/>
<path d="M38.5192 254.275L47.0816 254.437V262.676L37.3883 262.192C37.3883 262.192 36.5806 260.576 37.2268 259.768" stroke="black" stroke-width="1.02943" stroke-linecap="round"/>
<path d="M39.3269 259.606H45.6275L45.466 256.214L39.4885 256.052L39.3269 259.606Z" stroke="black" stroke-width="1.02943" stroke-linecap="round"/>
<path d="M40.7809 252.821L43.2042 178.991" stroke="black" stroke-width="1.02943" stroke-linecap="round"/>
<path d="M162.341 254.437L160.726 250.883L156.525 248.621L167.673 171.721L167.996 185.13L166.219 232.627L165.734 254.437H162.341Z" fill="#D5E5FF"/>
<path d="M165.734 254.76L170.258 254.275L176.558 248.944L167.834 169.136L168.157 185.13L165.734 254.76Z" fill="#87AADE"/>
<path d="M177.689 256.052C173.489 252.337 172.196 253.952 172.196 253.952L163.472 254.275L161.857 254.114L160.726 250.883L158.626 253.144C158.626 253.144 153.133 251.044 150.709 254.437L148.125 257.506C148.125 257.506 147.64 263.161 153.941 262.999L155.556 260.414C155.556 260.414 156.849 267.361 162.665 270.108C162.665 270.108 168.804 273.339 173.489 268.007C173.489 268.007 176.881 266.23 175.912 262.03C175.912 262.03 183.505 263.484 184.474 260.899C184.474 260.899 187.059 256.86 182.213 253.79C179.143 254.114 178.658 256.698 178.658 256.698L177.689 256.052Z" fill="#FFD42A"/>
<path d="M161.695 262.353L172.842 262.838C172.842 262.838 169.773 266.876 166.865 266.876C166.865 266.876 160.564 264.938 161.695 262.353Z" fill="#FF0000"/>
<path d="M164.28 259.93H170.258V256.537L163.957 256.214L164.28 259.93Z" fill="#FF5555"/>
<path d="M162.503 271.077C162.503 271.077 161.695 278.024 163.957 280.124C163.957 280.124 166.703 278.024 171.388 279.962C171.388 279.962 173.489 276.893 171.712 270.431C171.712 270.431 166.542 272.046 162.503 271.077Z" fill="#FF0000"/>
<path d="M163.311 286.909C163.311 286.909 160.241 283.678 164.118 280.286C164.118 280.286 167.511 277.539 172.035 280.286C172.035 280.286 173.489 284.648 172.196 286.586L171.227 287.717C171.227 287.717 173.65 291.918 170.096 293.372C170.096 293.372 164.118 295.149 163.311 289.979V286.909Z" fill="#FFD42A"/>
<path d="M171.55 286.909C168.319 285.294 163.957 286.909 163.957 286.909C163.957 286.909 162.503 288.848 164.119 292.241C164.119 292.241 169.127 294.664 171.388 292.402C171.388 292.402 172.681 287.879 171.55 286.909Z" fill="#FFD42A" stroke="black" stroke-width="0.571904"/>
<path d="M177.448 262.461L172.421 259.262" stroke="black" stroke-width="1.08662"/>
<path d="M183.828 254.921C178.982 252.337 178.497 256.699 178.497 256.699L177.366 256.214C174.781 252.821 171.227 253.306 171.227 253.306L176.397 248.621L168.157 168.813L167.35 174.952L159.433 229.396L156.687 248.944L160.887 251.367L159.11 253.306C159.11 253.306 152.81 249.59 148.448 257.022C148.448 257.022 146.671 262.676 152.971 262.838C152.971 262.838 155.395 263.322 155.718 259.768C155.718 259.768 156.364 267.038 162.341 269.946C162.341 269.946 161.857 278.508 163.795 280.286C163.795 280.286 160.241 283.517 163.634 287.232C163.634 287.232 161.372 293.21 167.188 293.533C167.188 293.533 173.812 294.179 171.388 287.556C171.388 287.556 173.973 284.648 171.55 279.801C171.55 279.801 173.327 279.478 171.873 269.461C171.873 269.461 175.75 267.684 176.074 261.545C176.074 261.545 183.667 264.776 185.121 259.445C185.121 259.445 185.928 257.022 183.828 254.921Z" stroke="black" stroke-width="1.08662"/>
<path d="M162.341 270.108C162.341 270.108 167.188 272.854 171.873 269.784" stroke="black" stroke-width="1.02943" stroke-linecap="round"/>
<path d="M163.634 280.286C163.634 280.286 166.865 277.539 171.873 280.447" stroke="black" stroke-width="1.02943" stroke-linecap="round"/>
<path d="M163.311 287.071C163.311 287.071 168.157 285.132 171.55 287.232" stroke="black" stroke-width="1.02943" stroke-linecap="round"/>
<path d="M157.01 264.615C157.01 264.615 154.587 256.699 159.11 253.306" stroke="black" stroke-width="1.02943" stroke-linecap="round"/>
<path d="M172.681 253.629L172.519 263.161C172.519 263.161 169.127 269.138 164.28 265.746C164.28 265.746 157.333 263.161 162.988 254.437L160.403 250.883" stroke="black" stroke-width="1.02943" stroke-linecap="round"/>
<path d="M163.149 254.275L171.712 254.437V262.676L162.018 262.192C162.018 262.192 161.211 260.576 161.857 259.768" stroke="black" stroke-width="1.02943" stroke-linecap="round"/>
<path d="M163.957 259.606H170.258L170.096 256.214L164.118 256.052L163.957 259.606Z" stroke="black" stroke-width="1.02943" stroke-linecap="round"/>
<path d="M165.411 252.821L167.834 178.991" stroke="black" stroke-width="1.02943" stroke-linecap="round"/>
<defs>
<linearGradient id="paint0_linear_2689_21065" x1="135.067" y1="148.459" x2="-384.797" y2="148.459" gradientUnits="userSpaceOnUse">
<stop stop-color="white"/>
<stop offset="1" stop-color="#CCCCCC"/>
</linearGradient>
</defs>
</svg>
