<svg width="208" height="319" viewBox="0 0 208 319" fill="none" xmlns="http://www.w3.org/2000/svg">
<path d="M192.5 0.5H15.5001C7.21579 0.5 0.500061 7.21573 0.500061 15.5V303.5C0.500061 311.784 7.21579 318.5 15.5001 318.5H192.5C200.784 318.5 207.5 311.784 207.5 303.5V15.5C207.5 7.21573 200.784 0.5 192.5 0.5Z" fill="url(#paint0_linear_2689_20744)" stroke="black" stroke-linecap="square"/>
<path d="M157.4 15H193V304H157.4M121.8 304H86.2001M50.6001 304H15.0001V15H50.6001M86.2001 15H121.8" stroke="black"/>
<path d="M22.3811 31.3823C22.7367 31.3823 23.2624 31.5987 23.9579 32.0315C24.6691 32.4644 25.2876 32.6808 25.8131 32.6808C26.6634 32.6808 27.3821 32.3484 27.9696 31.6837C28.557 31.019 28.8507 30.1997 28.8507 29.2257C28.8507 28.6229 28.7429 28.0895 28.5262 27.6258C28.3253 27.162 28.0623 26.8064 27.7377 26.5591C27.413 26.2963 27.0266 26.0876 26.5783 25.933C26.13 25.7629 25.7049 25.6547 25.3031 25.6083C24.9165 25.5619 24.4991 25.5388 24.0508 25.5388V25.2373C24.5763 25.0518 25.0247 24.8741 25.3957 24.704C25.7821 24.5185 26.1841 24.2789 26.6015 23.9851C27.0188 23.676 27.3358 23.305 27.5523 22.8721C27.7841 22.4393 27.9 21.9445 27.9 21.388C27.9 20.6615 27.6604 20.0663 27.1812 19.6025C26.7174 19.1388 26.1068 18.9069 25.3493 18.9068C24.6228 18.9069 23.9812 19.1079 23.4246 19.5098C22.8836 19.8963 22.3734 20.5147 21.8942 21.3649L21.5465 21.2721C21.9484 20.1746 22.4895 19.2779 23.1696 18.5823C23.8653 17.8712 24.8469 17.5156 26.1145 17.5156C27.1812 17.5156 28.0469 17.8094 28.7116 18.3968C29.3919 18.9842 29.7319 19.7495 29.7319 20.6925C29.7319 21.3263 29.5696 21.8828 29.245 22.362C28.9203 22.8412 28.3561 23.3514 27.5523 23.8924C28.4799 24.2944 29.2064 24.8123 29.7319 25.4461C30.2576 26.0645 30.5203 26.9533 30.5203 28.1128C30.5203 29.7514 29.9098 31.0654 28.6885 32.0547C27.4826 33.0287 25.9599 33.5157 24.1203 33.5157C23.3164 33.5157 22.675 33.3997 22.1957 33.1678C21.732 32.9205 21.5001 32.5958 21.5001 32.1939C21.5001 31.9466 21.5768 31.7533 21.732 31.6142C21.902 31.4596 22.1183 31.3823 22.3811 31.3823Z" fill="black"/>
<path d="M189.619 283.648C189.264 283.648 188.738 283.432 188.042 282.999C187.331 282.566 186.713 282.35 186.187 282.35C185.337 282.35 184.618 282.682 184.031 283.347C183.443 284.012 183.15 284.831 183.15 285.805C183.15 286.408 183.257 286.941 183.474 287.405C183.675 287.869 183.938 288.224 184.263 288.472C184.587 288.734 184.974 288.943 185.422 289.098C185.87 289.268 186.295 289.376 186.697 289.422C187.084 289.469 187.501 289.492 187.949 289.492V289.793C187.424 289.979 186.976 290.157 186.605 290.327C186.218 290.512 185.816 290.752 185.399 291.046C184.981 291.355 184.664 291.726 184.448 292.159C184.216 292.591 184.1 293.086 184.1 293.643C184.1 294.369 184.34 294.964 184.819 295.428C185.283 295.892 185.893 296.124 186.651 296.124C187.377 296.124 188.019 295.923 188.576 295.521C189.117 295.134 189.627 294.516 190.106 293.666L190.454 293.759C190.052 294.856 189.511 295.753 188.831 296.448C188.135 297.16 187.153 297.515 185.886 297.515C184.819 297.515 183.953 297.221 183.289 296.634C182.608 296.047 182.268 295.281 182.268 294.338C182.268 293.704 182.431 293.148 182.755 292.669C183.08 292.19 183.644 291.679 184.448 291.138C183.52 290.736 182.794 290.218 182.268 289.585C181.743 288.966 181.48 288.077 181.48 286.918C181.48 285.279 182.09 283.965 183.312 282.976C184.518 282.002 186.04 281.515 187.88 281.515C188.684 281.515 189.325 281.631 189.804 281.863C190.268 282.11 190.5 282.435 190.5 282.837C190.5 283.084 190.423 283.277 190.268 283.417C190.098 283.571 189.882 283.648 189.619 283.648Z" fill="black"/>
<path d="M47.9712 90.5587L48.0651 86.8174" stroke="black" stroke-width="1.59886" stroke-linecap="round"/>
<path d="M68.9105 81.8544C68.9105 81.8544 73.8571 82.5053 76.07 79.251C76.07 79.251 76.3303 83.2863 74.7682 84.7182C74.7682 84.7182 76.4605 85.369 65.1356 86.8009L68.9105 81.8544Z" stroke="black" stroke-width="1.82469" stroke-linecap="round"/>
<path d="M68.6839 99.212C63.7135 101.421 64.4499 106.207 64.4499 106.207L66.1066 109.153L64.2658 111.178L47.5137 110.625C47.5137 110.625 45.4887 108.785 48.4341 107.312C48.4341 107.312 48.4341 99.396 44.3842 98.1074L68.6839 99.212Z" fill="#FFD42A"/>
<path d="M62.2408 44.5376C58.559 46.1944 51.0114 43.9854 51.0114 43.9854C51.0114 43.9854 48.0659 47.6671 49.5386 55.2148L61.5044 47.6671L62.2408 44.5376Z" fill="#FF0000"/>
<path d="M48.6182 62.0258L64.0817 51.5327L63.8976 56.5031L48.4341 67.9167L48.6182 62.0258Z" fill="#FF0000"/>
<path d="M48.9865 72.519L64.2658 61.4736L64.0817 68.2849L48.2501 77.3053L48.9865 72.519Z" fill="#FF0000"/>
<path d="M50.8272 80.803L63.7135 73.6235L63.3453 81.5394L50.8272 80.803Z" fill="#FF0000"/>
<path d="M48.8022 86.694V90.0076L56.1658 89.6394L60.3999 85.9576C60.3999 85.9576 53.2203 85.0372 48.8022 86.694Z" fill="#FF0000"/>
<path d="M47.3296 98.6597L51.5637 101.605L55.0613 98.6597H47.3296Z" fill="#FF2A2A"/>
<path d="M56.1658 99.2119H62.4248L58.9272 102.157L56.1658 99.2119Z" fill="#FF0000"/>
<path d="M53.0363 94.0573L57.0862 97.555L62.4248 94.0573L58.3749 90.7437L53.0363 94.0573Z" fill="#FF2A2A"/>
<path d="M75.8634 42.5122C86.5406 48.0349 88.7497 62.2097 88.7497 62.2097C90.5906 74.3596 85.6202 87.0618 85.6202 87.0618C76.7839 98.1071 67.5795 99.3958 67.5795 99.3958L44.016 97.3708C38.6774 95.8981 36.8365 102.157 36.8365 102.157C36.8365 102.157 40.5184 103.262 40.5184 105.655C40.5184 105.655 42.1751 109.521 36.2842 109.521C36.2842 109.521 28.0003 108.232 32.0502 98.2912C32.0502 98.2912 38.3092 90.1913 45.3046 90.7436L68.4999 89.639C68.4999 89.639 78.993 85.7732 75.4953 77.4891C75.4953 77.4891 70.8931 79.8823 69.2362 76.0164C69.2362 76.0164 71.0772 65.8915 78.993 71.2301L80.4656 69.7574L76.7839 63.4984C76.7839 63.4984 78.0725 61.1052 80.0976 61.2893L77.5203 57.2393L76.4157 54.8462L77.8884 52.8212C77.8884 52.8212 76.7839 46.194 69.0522 47.2985C69.0522 47.2985 70.8931 52.8212 63.5295 51.5326L48.2501 62.0257C48.2501 62.0257 46.4092 58.3439 49.7228 55.7666L61.3204 48.403L61.1363 43.8008C61.1363 43.8008 57.6386 46.5622 52.6682 44.5372C52.6682 44.5372 48.9865 43.4326 50.4591 40.3031C50.4591 40.3031 47.8819 32.5714 53.4045 29.0737C53.4045 29.0737 60.0318 26.6805 61.8727 32.5714L66.4749 30.7305L69.2362 33.3077L67.9476 36.2532L65.1863 36.6213C65.1863 36.6213 67.5794 41.0395 75.8634 42.5122Z" fill="#FFD42A"/>
<path d="M55.7977 90.5597L69.0521 75.6484C69.0521 75.6484 69.7885 78.5939 71.8134 77.6734L62.9772 90.0074L55.7977 90.5597Z" fill="#FFDD55"/>
<path d="M60.9521 85.4054C46.7773 83.5645 44.3841 90.5599 44.3841 90.5599L38.8614 92.769C38.8614 92.769 38.3092 84.8532 47.3296 81.3555L63.5294 81.7236L60.9521 85.4054Z" fill="#FFE680"/>
<path d="M67.9476 81.5391C67.9476 81.5391 73.1021 82.4596 76.2316 79.5142C76.2316 79.5142 76.4157 82.8278 74.5748 85.405L66.1066 86.5096L64.634 86.3255L67.9476 81.5391Z" fill="#FFDD55"/>
<path d="M48.4341 67.7329L64.0817 56.1353C64.0817 56.1353 65.1863 57.9761 64.2658 60.3693L59.6635 64.9715L47.6978 73.6237C47.6978 73.6237 45.6728 71.2306 48.4341 67.7329Z" fill="#FFD42A"/>
<path d="M47.5137 80.6187C47.5137 80.6187 46.5931 77.6732 50.8272 76.2005L64.4499 67.9165C64.4499 67.9165 67.3952 70.1256 63.3453 74.1755L53.7727 78.7778L48.9864 81.9073L47.5137 80.6187Z" fill="#FFDD55"/>
<path d="M55.9818 110.625L56.7181 288.824L63.3453 279.988L63.1612 110.81L55.9818 110.625Z" fill="#87AADE"/>
<path d="M47.3296 110.994C48.4341 110.994 55.9818 110.441 55.9818 110.441L56.7182 289.376L49.3545 281.46L47.3296 110.994Z" fill="#D5E5FF"/>
<path d="M50.8168 40.1996C50.8168 40.1996 57.6386 45.2739 61.6886 39.0148L61.8727 34.5967C61.8727 34.5967 61.6886 39.9353 65.5545 41.5921C65.5545 41.5921 59.2954 43.8011 62.4249 49.3238" stroke="black" stroke-width="1.23818" stroke-linecap="round"/>
<path d="M52.6682 35.5172C58.0556 41.9153 60.2833 33.2079 58.3749 32.5718C58.3749 32.5718 61.6885 36.9899 56.3499 40.1194" stroke="black" stroke-width="1.23818" stroke-linecap="round"/>
<path d="M50.6431 43.2485C50.6431 43.2485 54.3249 46.5621 60.584 44.7212" stroke="black" stroke-width="1.23818" stroke-linecap="round"/>
<path d="M63.8976 51.5326C69.6044 54.478 68.868 47.4826 68.868 47.4826C68.868 47.4826 61.6886 49.6917 67.5794 42.144" stroke="black" stroke-width="1.23818" stroke-linecap="round"/>
<path d="M77.8884 47.1148C69.4203 41.0398 69.6044 46.9307 69.6044 46.9307C69.6044 46.9307 76.968 46.9307 77.7044 52.8215C77.7044 52.8215 74.943 55.2147 77.7044 57.2397C77.7044 57.2397 76.968 59.6328 81.0179 61.6578C81.0179 61.6578 83.4111 65.1555 83.4111 69.2055" stroke="black" stroke-width="1.23818" stroke-linecap="round"/>
<path d="M79.3611 62.0258C79.3611 62.0258 76.9679 60.553 76.9679 64.4189C76.9679 64.4189 80.8338 67.5484 79.7293 72.1507C79.7293 72.1507 75.8634 67.3643 71.4452 71.0461C71.4452 71.0461 69.2362 72.887 69.4203 75.6484L63.5294 81.5392L64.0817 73.4393C64.0817 73.4393 67.0271 70.6779 64.0817 67.7325L64.2658 59.8167C64.2658 59.8167 65.5544 57.2394 63.8976 56.1349V52.6372" stroke="black" stroke-width="1.23818" stroke-linecap="round"/>
<path d="M69.9725 77.1211C69.9725 77.1211 72.5497 79.8824 75.1271 77.4893C75.1271 77.4893 79.5452 85.0369 69.0521 89.8232L62.0567 90.0073L70.5248 79.5142" stroke="black" stroke-width="1.23818" stroke-linecap="round"/>
<path d="M47.8818 81.3555L62.2408 81.9077" stroke="black" stroke-width="1.23818" stroke-linecap="round"/>
<path d="M44.2001 90.7436C44.2001 90.7436 44.2 84.4846 60.584 85.9573L56.1659 90.1913L44.2001 90.7436Z" stroke="black" stroke-width="1.23818" stroke-linecap="round"/>
<path d="M48.6182 77.4896L62.609 69.3896" stroke="black" stroke-width="1.23818" stroke-linecap="round"/>
<path d="M51.9318 79.8825L62.6089 73.9917" stroke="black" stroke-width="1.23818" stroke-linecap="round"/>
<path d="M48.8022 73.0712L62.9772 62.0259" stroke="black" stroke-width="1.23818" stroke-linecap="round"/>
<path d="M49.1704 67.3646L62.9772 57.4238" stroke="black" stroke-width="1.23818" stroke-linecap="round"/>
<path d="M48.4341 62.0258L62.0567 52.4531" stroke="black" stroke-width="1.23818" stroke-linecap="round"/>
<path d="M49.3545 56.1351L60.2158 48.7715" stroke="black" stroke-width="1.23818" stroke-linecap="round"/>
<path d="M78.6247 51.7168C78.6247 51.7168 81.7542 51.7168 83.411 55.2145" stroke="black" stroke-width="1.23818" stroke-linecap="round"/>
<path d="M81.9383 56.8716C81.9383 56.8716 89.4859 62.3943 85.2519 78.7782C85.2519 78.7782 84.6996 87.0622 77.152 92.2167" stroke="black" stroke-width="1.23818" stroke-linecap="round"/>
<path d="M77.152 73.0713C77.152 73.0713 80.4656 76.9372 78.9929 82.2758C78.9929 82.2758 81.202 79.6985 81.202 74.1758" stroke="black" stroke-width="1.23818" stroke-linecap="round"/>
<path d="M44.3842 97.7393C44.3842 97.7393 65.5544 99.5801 68.6839 99.212" stroke="black" stroke-width="1.23818" stroke-linecap="round"/>
<path d="M52.6682 93.8732L57.2704 97.555L62.6089 94.0573L58.0068 90.7437L52.6682 93.8732Z" fill="#FF0000" stroke="black" stroke-width="1.23818" stroke-linecap="round"/>
<path d="M47.6978 98.6597L51.9318 101.605L54.5091 99.0278" stroke="black" stroke-width="1.23818" stroke-linecap="round"/>
<path d="M56.5341 99.396L58.7431 102.341L62.0567 99.7642" stroke="black" stroke-width="1.23818" stroke-linecap="round"/>
<path d="M47.8818 107.312L64.2658 106.944" stroke="black" stroke-width="1.23818" stroke-linecap="round"/>
<path d="M63.7135 110.994L47.3296 110.81" stroke="black" stroke-width="1.23818" stroke-linecap="round"/>
<path d="M55.9818 112.834L56.5341 288.824" stroke="black" stroke-width="1.23818" stroke-linecap="round"/>
<path d="M48.3436 95.6525C49.2781 95.6525 50.0358 94.8949 50.0358 93.9603C50.0358 93.0257 49.2781 92.2681 48.3436 92.2681C47.409 92.2681 46.6514 93.0257 46.6514 93.9603C46.6514 94.8949 47.409 95.6525 48.3436 95.6525Z" fill="#FF5555" stroke="black" stroke-width="1.82469" stroke-linecap="round" stroke-linejoin="round"/>
<path d="M66.5898 95.7062C67.5244 95.7062 68.282 94.9486 68.282 94.014C68.282 93.0794 67.5244 92.3218 66.5898 92.3218C65.6552 92.3218 64.8976 93.0794 64.8976 94.014C64.8976 94.9486 65.6552 95.7062 66.5898 95.7062Z" fill="#FF5555" stroke="black" stroke-width="1.82469" stroke-linecap="round" stroke-linejoin="round"/>
<path d="M69.2362 33.6761C68.868 37.7261 65.1862 36.6216 65.1862 36.6216C66.1067 39.3829 74.3907 42.1442 74.3907 42.1442C84.5156 46.1942 87.0929 56.135 87.0929 56.135C90.9587 66.444 87.461 81.3552 87.461 81.3552C83.7793 95.1619 68.4999 99.2119 68.4999 99.2119C62.9772 102.157 64.2658 107.128 64.2658 107.128L65.7385 107.864C66.659 111.178 63.3454 111.178 63.3454 111.178V280.172L56.7182 288.824L49.3545 281.46L48.0659 111.546C44.5682 109.889 48.0659 106.944 48.0659 106.944C48.8023 102.525 43.8319 97.371 43.8319 97.371C37.3887 96.4506 36.1001 103.446 36.1001 103.446C36.4683 102.341 38.8615 102.71 38.8615 102.71C43.2796 105.103 40.1501 108.6 40.1501 108.6C32.2342 111.546 30.9456 103.998 30.9456 103.998C30.7616 94.9778 39.4138 92.0324 39.4138 92.0324C38.6774 84.3007 47.3296 81.1712 47.3296 81.1712C47.1455 78.2257 48.8023 77.6735 48.8023 77.6735V73.2553H47.6978C45.3046 69.9417 48.8023 67.5485 48.8023 67.5485L48.2501 62.21C46.2251 57.9759 49.7228 55.2146 49.7228 55.2146C48.8023 48.2192 50.8272 43.617 50.8272 43.617C48.8023 41.2238 50.8168 40.1995 50.8168 40.1995C47.172 33.9513 53.9409 28.7445 53.9409 28.7445C53.9409 28.7445 59.2954 26.6807 62.4249 32.7557C62.4249 32.7557 66.659 28.1535 69.2362 33.6761Z" stroke="black" stroke-width="1.17302"/>
<path d="M111.828 228.069L111.735 231.811" stroke="black" stroke-width="1.59886" stroke-linecap="round"/>
<path d="M90.8892 236.774C90.8892 236.774 85.9427 236.123 83.7298 239.377C83.7298 239.377 83.4695 235.342 85.0315 233.91C85.0315 233.91 83.3392 233.259 94.6641 231.827L90.8892 236.774Z" stroke="black" stroke-width="1.82469" stroke-linecap="round"/>
<path d="M91.1158 219.416C96.0862 217.207 95.3498 212.421 95.3498 212.421L93.6931 209.475L95.5339 207.45L112.286 208.002C112.286 208.002 114.311 209.843 111.366 211.316C111.366 211.316 111.366 219.232 115.416 220.521L91.1158 219.416Z" fill="#FFD42A"/>
<path d="M97.559 274.09C101.241 272.434 108.788 274.643 108.788 274.643C108.788 274.643 111.734 270.961 110.261 263.413L98.2953 270.961L97.559 274.09Z" fill="#FF0000"/>
<path d="M111.182 256.602L95.7181 267.095L95.9021 262.125L111.366 250.711L111.182 256.602Z" fill="#FF0000"/>
<path d="M110.813 246.109L95.5339 257.154L95.7181 250.343L111.55 241.323L110.813 246.109Z" fill="#FF0000"/>
<path d="M108.973 237.825L96.0863 245.004L96.4544 237.089L108.973 237.825Z" fill="#FF0000"/>
<path d="M110.997 231.934V228.62L103.634 228.989L99.3998 232.67C99.3998 232.67 106.579 233.591 110.997 231.934Z" fill="#FF0000"/>
<path d="M112.47 219.968L108.236 217.023L104.738 219.968H112.47Z" fill="#FF2A2A"/>
<path d="M103.634 219.416H97.3749L100.873 216.471L103.634 219.416Z" fill="#FF0000"/>
<path d="M106.763 224.571L102.713 221.073L97.3748 224.571L101.425 227.884L106.763 224.571Z" fill="#FF2A2A"/>
<path d="M83.9363 276.116C73.2591 270.593 71.0501 256.418 71.0501 256.418C69.2091 244.268 74.1796 231.566 74.1796 231.566C83.0158 220.521 92.2203 219.232 92.2203 219.232L115.784 221.257C121.122 222.73 122.963 216.471 122.963 216.471C122.963 216.471 119.281 215.366 119.281 212.973C119.281 212.973 117.625 209.107 123.516 209.107C123.516 209.107 131.799 210.396 127.75 220.337C127.75 220.337 121.491 228.437 114.495 227.884L91.2998 228.989C91.2998 228.989 80.8067 232.855 84.3045 241.139C84.3045 241.139 88.9067 238.746 90.5635 242.611C90.5635 242.611 88.7226 252.736 80.8067 247.398L79.3341 248.871L83.0158 255.13C83.0158 255.13 81.7272 257.523 79.7022 257.339L82.2795 261.389L83.384 263.782L81.9114 265.807C81.9114 265.807 83.0158 272.434 90.7476 271.329C90.7476 271.329 88.9067 265.807 96.2703 267.095L111.55 256.602C111.55 256.602 113.391 260.284 110.077 262.861L98.4793 270.225L98.6635 274.827C98.6635 274.827 102.161 272.066 107.132 274.091C107.132 274.091 110.813 275.195 109.341 278.325C109.341 278.325 111.918 286.057 106.395 289.554C106.395 289.554 99.768 291.947 97.9271 286.057L93.3248 287.897L90.5635 285.32L91.8521 282.375L94.6135 282.007C94.6135 282.007 92.2204 277.588 83.9363 276.116Z" fill="#FFD42A"/>
<path d="M104.002 228.068L90.7476 242.979C90.7476 242.979 90.0112 240.034 87.9862 240.955L96.8225 228.621L104.002 228.068Z" fill="#FFDD55"/>
<path d="M98.8476 233.222C113.022 235.063 115.416 228.068 115.416 228.068L120.938 225.859C120.938 225.859 121.491 233.775 112.47 237.272L96.2703 236.904L98.8476 233.222Z" fill="#FFE680"/>
<path d="M91.8522 237.089C91.8522 237.089 86.6977 236.168 83.5681 239.114C83.5681 239.114 83.384 235.8 85.2249 233.223L93.6931 232.118L95.1658 232.302L91.8522 237.089Z" fill="#FFDD55"/>
<path d="M111.366 250.895L95.7181 262.493C95.7181 262.493 94.6135 260.652 95.5339 258.259L100.136 253.656L112.102 245.004C112.102 245.004 114.127 247.397 111.366 250.895Z" fill="#FFD42A"/>
<path d="M112.286 238.009C112.286 238.009 113.207 240.955 108.972 242.427L95.3498 250.711C95.3498 250.711 92.4045 248.502 96.4544 244.452L106.027 239.85L110.813 236.721L112.286 238.009Z" fill="#FFDD55"/>
<path d="M103.818 208.002L103.082 29.8041L96.4544 38.6403L96.6385 207.818L103.818 208.002Z" fill="#87AADE"/>
<path d="M112.47 207.634C111.366 207.634 103.818 208.187 103.818 208.187L103.082 29.2518L110.445 37.1676L112.47 207.634Z" fill="#D5E5FF"/>
<path d="M108.983 278.428C108.983 278.428 102.161 273.354 98.1112 279.613L97.9271 284.031C97.9271 284.031 98.1111 278.693 94.2453 277.036C94.2453 277.036 100.504 274.827 97.3749 269.304" stroke="black" stroke-width="1.23818" stroke-linecap="round"/>
<path d="M107.132 283.111C101.744 276.713 99.5163 285.42 101.425 286.056C101.425 286.056 98.1112 281.638 103.45 278.508" stroke="black" stroke-width="1.23818" stroke-linecap="round"/>
<path d="M109.157 275.379C109.157 275.379 105.475 272.066 99.2157 273.907" stroke="black" stroke-width="1.23818" stroke-linecap="round"/>
<path d="M95.9022 267.095C90.1954 264.15 90.9318 271.145 90.9318 271.145C90.9318 271.145 98.1112 268.936 92.2203 276.484" stroke="black" stroke-width="1.23818" stroke-linecap="round"/>
<path d="M81.9114 271.513C90.3795 277.588 90.1954 271.697 90.1954 271.697C90.1954 271.697 82.8318 271.697 82.0954 265.806C82.0954 265.806 84.8567 263.413 82.0954 261.388C82.0954 261.388 82.8318 258.995 78.7818 256.97C78.7818 256.97 76.3887 253.472 76.3887 249.422" stroke="black" stroke-width="1.23818" stroke-linecap="round"/>
<path d="M80.4386 256.602C80.4386 256.602 82.8318 258.075 82.8318 254.209C82.8318 254.209 78.9659 251.079 80.0705 246.477C80.0705 246.477 83.9363 251.264 88.3545 247.582C88.3545 247.582 90.5636 245.741 90.3795 242.98L96.2703 237.089L95.7181 245.189C95.7181 245.189 92.7726 247.95 95.7181 250.895L95.5339 258.811C95.5339 258.811 94.2453 261.388 95.9022 262.493V265.991" stroke="black" stroke-width="1.23818" stroke-linecap="round"/>
<path d="M89.8272 241.507C89.8272 241.507 87.25 238.746 84.6727 241.139C84.6727 241.139 80.2545 233.591 90.7476 228.805L97.743 228.621L89.2749 239.114" stroke="black" stroke-width="1.23818" stroke-linecap="round"/>
<path d="M111.918 237.272L97.5589 236.72" stroke="black" stroke-width="1.23818" stroke-linecap="round"/>
<path d="M115.6 227.884C115.6 227.884 115.6 234.143 99.2157 232.671L103.634 228.437L115.6 227.884Z" stroke="black" stroke-width="1.23818" stroke-linecap="round"/>
<path d="M111.182 241.138L97.1908 249.238" stroke="black" stroke-width="1.23818" stroke-linecap="round"/>
<path d="M107.868 238.745L97.1908 244.636" stroke="black" stroke-width="1.23818" stroke-linecap="round"/>
<path d="M110.997 245.557L96.8225 256.602" stroke="black" stroke-width="1.23818" stroke-linecap="round"/>
<path d="M110.629 251.263L96.8225 261.204" stroke="black" stroke-width="1.23818" stroke-linecap="round"/>
<path d="M111.366 256.602L97.743 266.175" stroke="black" stroke-width="1.23818" stroke-linecap="round"/>
<path d="M110.445 262.493L99.5839 269.856" stroke="black" stroke-width="1.23818" stroke-linecap="round"/>
<path d="M81.175 266.911C81.175 266.911 78.0455 266.911 76.3887 263.413" stroke="black" stroke-width="1.23818" stroke-linecap="round"/>
<path d="M77.8614 261.756C77.8614 261.756 70.3137 256.234 74.5477 239.85C74.5477 239.85 75.1001 231.566 82.6477 226.411" stroke="black" stroke-width="1.23818" stroke-linecap="round"/>
<path d="M82.6477 245.557C82.6477 245.557 79.3341 241.691 80.8068 236.352C80.8068 236.352 78.5977 238.929 78.5977 244.452" stroke="black" stroke-width="1.23818" stroke-linecap="round"/>
<path d="M115.416 220.889C115.416 220.889 94.2453 219.048 91.1158 219.416" stroke="black" stroke-width="1.23818" stroke-linecap="round"/>
<path d="M107.132 224.755L102.529 221.073L97.1908 224.571L101.793 227.884L107.132 224.755Z" fill="#FF0000" stroke="black" stroke-width="1.23818" stroke-linecap="round"/>
<path d="M112.102 219.968L107.868 217.023L105.291 219.6" stroke="black" stroke-width="1.23818" stroke-linecap="round"/>
<path d="M103.266 219.232L101.057 216.287L97.743 218.864" stroke="black" stroke-width="1.23818" stroke-linecap="round"/>
<path d="M111.918 211.316L95.5339 211.684" stroke="black" stroke-width="1.23818" stroke-linecap="round"/>
<path d="M96.0862 207.634L112.47 207.818" stroke="black" stroke-width="1.23818" stroke-linecap="round"/>
<path d="M103.818 205.793L103.266 29.8042" stroke="black" stroke-width="1.23818" stroke-linecap="round"/>
<path d="M111.456 222.975C110.522 222.975 109.764 223.733 109.764 224.668C109.764 225.602 110.522 226.36 111.456 226.36C112.391 226.36 113.148 225.602 113.148 224.668C113.148 223.733 112.391 222.975 111.456 222.975Z" fill="#FF5555" stroke="black" stroke-width="1.82469" stroke-linecap="round" stroke-linejoin="round"/>
<path d="M93.2099 222.922C92.2753 222.922 91.5177 223.679 91.5177 224.614C91.5177 225.549 92.2753 226.306 93.2099 226.306C94.1445 226.306 94.9021 225.549 94.9021 224.614C94.9021 223.679 94.1445 222.922 93.2099 222.922Z" fill="#FF5555" stroke="black" stroke-width="1.82469" stroke-linecap="round" stroke-linejoin="round"/>
<path d="M90.5635 284.952C90.9317 280.902 94.6135 282.006 94.6135 282.006C93.6931 279.245 85.4091 276.484 85.4091 276.484C75.2842 272.434 72.7069 262.493 72.7069 262.493C68.841 252.184 72.3387 237.273 72.3387 237.273C76.0205 223.466 91.2998 219.416 91.2998 219.416C96.8225 216.471 95.5339 211.5 95.5339 211.5L94.0612 210.764C93.1408 207.45 96.4544 207.45 96.4544 207.45V38.4563L103.082 29.8041L110.445 37.1677L111.734 207.082C115.232 208.739 111.734 211.684 111.734 211.684C110.997 216.102 115.968 221.257 115.968 221.257C122.411 222.177 123.7 215.182 123.7 215.182C123.331 216.287 120.938 215.918 120.938 215.918C116.52 213.525 119.65 210.027 119.65 210.027C127.565 207.082 128.854 214.63 128.854 214.63C129.038 223.65 120.386 226.596 120.386 226.596C121.122 234.327 112.47 237.457 112.47 237.457C112.654 240.402 110.997 240.954 110.997 240.954V245.373H112.102C114.495 248.686 110.997 251.079 110.997 251.079L111.55 256.418C113.575 260.652 110.077 263.413 110.077 263.413C110.997 270.409 108.972 275.011 108.972 275.011C110.997 277.404 108.983 278.428 108.983 278.428C112.628 284.677 105.859 289.883 105.859 289.883C105.859 289.883 100.504 291.947 97.3749 285.872C97.3749 285.872 93.1408 290.474 90.5635 284.952Z" stroke="black" stroke-width="1.17302"/>
<path d="M143.435 90.5587L143.529 86.8174" stroke="black" stroke-width="1.59886" stroke-linecap="round"/>
<path d="M164.374 81.8544C164.374 81.8544 169.32 82.5053 171.533 79.251C171.533 79.251 171.794 83.2863 170.232 84.7182C170.232 84.7182 171.924 85.369 160.599 86.8009L164.374 81.8544Z" stroke="black" stroke-width="1.82469" stroke-linecap="round"/>
<path d="M164.147 99.212C159.177 101.421 159.913 106.207 159.913 106.207L161.57 109.153L159.729 111.178L142.977 110.625C142.977 110.625 140.952 108.785 143.898 107.312C143.898 107.312 143.898 99.396 139.848 98.1074L164.147 99.212Z" fill="#FFD42A"/>
<path d="M157.704 44.5376C154.022 46.1944 146.475 43.9854 146.475 43.9854C146.475 43.9854 143.529 47.6671 145.002 55.2148L156.968 47.6671L157.704 44.5376Z" fill="#FF0000"/>
<path d="M144.082 62.0258L159.545 51.5327L159.361 56.5031L143.898 67.9167L144.082 62.0258Z" fill="#FF0000"/>
<path d="M144.45 72.519L159.729 61.4736L159.545 68.2849L143.713 77.3053L144.45 72.519Z" fill="#FF0000"/>
<path d="M146.291 80.803L159.177 73.6235L158.809 81.5394L146.291 80.803Z" fill="#FF0000"/>
<path d="M144.266 86.694V90.0076L151.629 89.6394L155.863 85.9576C155.863 85.9576 148.684 85.0372 144.266 86.694Z" fill="#FF0000"/>
<path d="M142.793 98.6597L147.027 101.605L150.525 98.6597H142.793Z" fill="#FF2A2A"/>
<path d="M151.629 99.2119H157.888L154.391 102.157L151.629 99.2119Z" fill="#FF0000"/>
<path d="M148.5 94.0573L152.55 97.555L157.888 94.0573L153.838 90.7437L148.5 94.0573Z" fill="#FF2A2A"/>
<path d="M171.327 42.5122C182.004 48.0349 184.213 62.2097 184.213 62.2097C186.054 74.3596 181.084 87.0618 181.084 87.0618C172.247 98.1071 163.043 99.3958 163.043 99.3958L139.479 97.3708C134.141 95.8981 132.3 102.157 132.3 102.157C132.3 102.157 135.982 103.262 135.982 105.655C135.982 105.655 137.638 109.521 131.748 109.521C131.748 109.521 123.464 108.232 127.514 98.2912C127.514 98.2912 133.773 90.1913 140.768 90.7436L163.963 89.639C163.963 89.639 174.456 85.7732 170.959 77.4891C170.959 77.4891 166.356 79.8823 164.7 76.0164C164.7 76.0164 166.541 65.8915 174.456 71.2301L175.929 69.7574L172.247 63.4984C172.247 63.4984 173.536 61.1052 175.561 61.2893L172.984 57.2393L171.879 54.8462L173.352 52.8212C173.352 52.8212 172.247 46.194 164.516 47.2985C164.516 47.2985 166.356 52.8212 158.993 51.5326L143.713 62.0257C143.713 62.0257 141.873 58.3439 145.186 55.7666L156.784 48.403L156.6 43.8008C156.6 43.8008 153.102 46.5622 148.132 44.5372C148.132 44.5372 144.45 43.4326 145.922 40.3031C145.922 40.3031 143.345 32.5714 148.868 29.0737C148.868 29.0737 155.495 26.6805 157.336 32.5714L161.938 30.7305L164.7 33.3077L163.411 36.2532L160.65 36.6213C160.65 36.6213 163.043 41.0395 171.327 42.5122Z" fill="#FFD42A"/>
<path d="M151.261 90.5597L164.516 75.6484C164.516 75.6484 165.252 78.5939 167.277 77.6734L158.441 90.0074L151.261 90.5597Z" fill="#FFDD55"/>
<path d="M156.416 85.4054C142.241 83.5645 139.848 90.5599 139.848 90.5599L134.325 92.769C134.325 92.769 133.773 84.8532 142.793 81.3555L158.993 81.7236L156.416 85.4054Z" fill="#FFE680"/>
<path d="M163.411 81.5391C163.411 81.5391 168.565 82.4596 171.695 79.5142C171.695 79.5142 171.879 82.8278 170.038 85.405L161.57 86.5096L160.097 86.3255L163.411 81.5391Z" fill="#FFDD55"/>
<path d="M143.898 67.7329L159.545 56.1353C159.545 56.1353 160.65 57.9761 159.729 60.3693L155.127 64.9715L143.161 73.6237C143.161 73.6237 141.136 71.2306 143.898 67.7329Z" fill="#FFD42A"/>
<path d="M142.977 80.6187C142.977 80.6187 142.057 77.6732 146.291 76.2005L159.913 67.9165C159.913 67.9165 162.859 70.1256 158.809 74.1755L149.236 78.7778L144.45 81.9073L142.977 80.6187Z" fill="#FFDD55"/>
<path d="M151.445 110.625L152.182 288.824L158.809 279.988L158.625 110.81L151.445 110.625Z" fill="#87AADE"/>
<path d="M142.793 110.994C143.897 110.994 151.445 110.441 151.445 110.441L152.182 289.376L144.818 281.46L142.793 110.994Z" fill="#D5E5FF"/>
<path d="M146.28 40.1996C146.28 40.1996 153.102 45.2739 157.152 39.0148L157.336 34.5967C157.336 34.5967 157.152 39.9353 161.018 41.5921C161.018 41.5921 154.759 43.8011 157.888 49.3238" stroke="black" stroke-width="1.23818" stroke-linecap="round"/>
<path d="M148.132 35.5172C153.519 41.9153 155.747 33.2079 153.838 32.5718C153.838 32.5718 157.152 36.9899 151.813 40.1194" stroke="black" stroke-width="1.23818" stroke-linecap="round"/>
<path d="M146.107 43.2485C146.107 43.2485 149.788 46.5621 156.047 44.7212" stroke="black" stroke-width="1.23818" stroke-linecap="round"/>
<path d="M159.361 51.5326C165.068 54.478 164.331 47.4826 164.331 47.4826C164.331 47.4826 157.152 49.6917 163.043 42.144" stroke="black" stroke-width="1.23818" stroke-linecap="round"/>
<path d="M173.352 47.1148C164.884 41.0398 165.068 46.9307 165.068 46.9307C165.068 46.9307 172.431 46.9307 173.168 52.8215C173.168 52.8215 170.406 55.2147 173.168 57.2397C173.168 57.2397 172.431 59.6328 176.481 61.6578C176.481 61.6578 178.874 65.1555 178.874 69.2055" stroke="black" stroke-width="1.23818" stroke-linecap="round"/>
<path d="M174.824 62.0258C174.824 62.0258 172.431 60.553 172.431 64.4189C172.431 64.4189 176.297 67.5484 175.193 72.1507C175.193 72.1507 171.327 67.3643 166.909 71.0461C166.909 71.0461 164.7 72.887 164.884 75.6484L158.993 81.5392L159.545 73.4393C159.545 73.4393 162.49 70.6779 159.545 67.7325L159.729 59.8167C159.729 59.8167 161.018 57.2394 159.361 56.1349V52.6372" stroke="black" stroke-width="1.23818" stroke-linecap="round"/>
<path d="M165.436 77.1211C165.436 77.1211 168.013 79.8824 170.59 77.4893C170.59 77.4893 175.009 85.0369 164.515 89.8232L157.52 90.0073L165.988 79.5142" stroke="black" stroke-width="1.23818" stroke-linecap="round"/>
<path d="M143.345 81.3555L157.704 81.9077" stroke="black" stroke-width="1.23818" stroke-linecap="round"/>
<path d="M139.663 90.7436C139.663 90.7436 139.663 84.4846 156.047 85.9573L151.629 90.1913L139.663 90.7436Z" stroke="black" stroke-width="1.23818" stroke-linecap="round"/>
<path d="M144.082 77.4896L158.072 69.3896" stroke="black" stroke-width="1.23818" stroke-linecap="round"/>
<path d="M147.395 79.8825L158.072 73.9917" stroke="black" stroke-width="1.23818" stroke-linecap="round"/>
<path d="M144.266 73.0712L158.441 62.0259" stroke="black" stroke-width="1.23818" stroke-linecap="round"/>
<path d="M144.634 67.3646L158.441 57.4238" stroke="black" stroke-width="1.23818" stroke-linecap="round"/>
<path d="M143.898 62.0258L157.52 52.4531" stroke="black" stroke-width="1.23818" stroke-linecap="round"/>
<path d="M144.818 56.1351L155.679 48.7715" stroke="black" stroke-width="1.23818" stroke-linecap="round"/>
<path d="M174.088 51.7168C174.088 51.7168 177.218 51.7168 178.874 55.2145" stroke="black" stroke-width="1.23818" stroke-linecap="round"/>
<path d="M177.402 56.8716C177.402 56.8716 184.949 62.3943 180.715 78.7782C180.715 78.7782 180.163 87.0622 172.615 92.2167" stroke="black" stroke-width="1.23818" stroke-linecap="round"/>
<path d="M172.615 73.0713C172.615 73.0713 175.929 76.9372 174.456 82.2758C174.456 82.2758 176.665 79.6985 176.665 74.1758" stroke="black" stroke-width="1.23818" stroke-linecap="round"/>
<path d="M139.848 97.7393C139.848 97.7393 161.018 99.5801 164.147 99.212" stroke="black" stroke-width="1.23818" stroke-linecap="round"/>
<path d="M148.132 93.8732L152.734 97.555L158.072 94.0573L153.47 90.7437L148.132 93.8732Z" fill="#FF0000" stroke="black" stroke-width="1.23818" stroke-linecap="round"/>
<path d="M143.161 98.6597L147.395 101.605L149.972 99.0278" stroke="black" stroke-width="1.23818" stroke-linecap="round"/>
<path d="M151.997 99.396L154.207 102.341L157.52 99.7642" stroke="black" stroke-width="1.23818" stroke-linecap="round"/>
<path d="M143.345 107.312L159.729 106.944" stroke="black" stroke-width="1.23818" stroke-linecap="round"/>
<path d="M159.177 110.994L142.793 110.81" stroke="black" stroke-width="1.23818" stroke-linecap="round"/>
<path d="M151.445 112.834L151.998 288.824" stroke="black" stroke-width="1.23818" stroke-linecap="round"/>
<path d="M143.807 95.6525C144.742 95.6525 145.499 94.8949 145.499 93.9603C145.499 93.0257 144.742 92.2681 143.807 92.2681C142.872 92.2681 142.115 93.0257 142.115 93.9603C142.115 94.8949 142.872 95.6525 143.807 95.6525Z" fill="#FF0000" stroke="black" stroke-width="1.82469" stroke-linecap="round" stroke-linejoin="round"/>
<path d="M162.053 95.7062C162.988 95.7062 163.745 94.9486 163.745 94.014C163.745 93.0794 162.988 92.3218 162.053 92.3218C161.119 92.3218 160.361 93.0794 160.361 94.014C160.361 94.9486 161.119 95.7062 162.053 95.7062Z" fill="#FF0000" stroke="black" stroke-width="1.82469" stroke-linecap="round" stroke-linejoin="round"/>
<path d="M164.7 33.6761C164.331 37.7261 160.65 36.6216 160.65 36.6216C161.57 39.3829 169.854 42.1442 169.854 42.1442C179.979 46.1942 182.556 56.135 182.556 56.135C186.422 66.444 182.924 81.3552 182.924 81.3552C179.243 95.1619 163.963 99.2119 163.963 99.2119C158.441 102.157 159.729 107.128 159.729 107.128L161.202 107.864C162.122 111.178 158.809 111.178 158.809 111.178V280.172L152.182 288.824L144.818 281.46L143.529 111.546C140.032 109.889 143.529 106.944 143.529 106.944C144.266 102.525 139.295 97.371 139.295 97.371C132.852 96.4506 131.564 103.446 131.564 103.446C131.932 102.341 134.325 102.71 134.325 102.71C138.743 105.103 135.614 108.6 135.614 108.6C127.698 111.546 126.409 103.998 126.409 103.998C126.225 94.9778 134.877 92.0324 134.877 92.0324C134.141 84.3007 142.793 81.1712 142.793 81.1712C142.609 78.2257 144.266 77.6735 144.266 77.6735V73.2553H143.161C140.768 69.9417 144.266 67.5485 144.266 67.5485L143.713 62.21C141.689 57.9759 145.186 55.2146 145.186 55.2146C144.266 48.2192 146.291 43.617 146.291 43.617C144.266 41.2238 146.28 40.1995 146.28 40.1995C142.635 33.9513 149.404 28.7445 149.404 28.7445C149.404 28.7445 154.759 26.6807 157.888 32.7557C157.888 32.7557 162.122 28.1535 164.7 33.6761Z" stroke="black" stroke-width="1.17302"/>
<defs>
<linearGradient id="paint0_linear_2689_20744" x1="135.067" y1="148.459" x2="-384.797" y2="148.459" gradientUnits="userSpaceOnUse">
<stop stop-color="white"/>
<stop offset="1" stop-color="#CCCCCC"/>
</linearGradient>
</defs>
</svg>
