<svg width="208" height="319" viewBox="0 0 208 319" fill="none" xmlns="http://www.w3.org/2000/svg">
<path d="M192.5 0.5H15.5C7.21573 0.5 0.5 7.21573 0.5 15.5V303.5C0.5 311.784 7.21573 318.5 15.5 318.5H192.5C200.784 318.5 207.5 311.784 207.5 303.5V15.5C207.5 7.21573 200.784 0.5 192.5 0.5Z" fill="url(#paint0_linear_2689_21211)" stroke="black" stroke-linecap="square"/>
<path d="M157.4 15H193V304H157.4M121.8 304H86.2M50.6 304H15V15H50.6M86.2 15H121.8" stroke="black"/>
<path d="M29.7447 19.5005V19.8826L24.6821 35.5005H23.1298L27.8582 21.2676H22.6761C22.0233 21.2677 21.5218 21.3871 21.1716 21.6259C20.8374 21.8647 20.4155 22.3901 19.906 23.202L19.5 23.011L20.9089 19.5005H29.7447Z" fill="black"/>
<path d="M178.255 299.5V299.118L183.318 283.5H184.87L180.142 297.733H185.324C185.976 297.733 186.478 297.613 186.828 297.375C187.162 297.136 187.584 296.61 188.094 295.798L188.5 295.99L187.091 299.5H178.255Z" fill="black"/>
<path d="M126.777 154.373L123.223 152.758L120.961 148.557L44.061 159.704L57.47 160.028L104.967 158.25L126.777 157.766V154.373Z" fill="#D5E5FF"/>
<path d="M127.1 157.766L126.615 162.289L121.284 168.59L41.4761 159.866L57.47 160.189L127.1 157.766Z" fill="#87AADE"/>
<path d="M128.392 169.721C124.677 165.52 126.292 164.228 126.292 164.228L126.615 155.504L126.454 153.888L123.223 152.757L125.484 150.657C125.484 150.657 123.384 145.164 126.777 142.741L129.846 140.156C129.846 140.156 135.501 139.671 135.339 145.972L132.754 147.588C132.754 147.588 139.701 148.88 142.448 154.696C142.448 154.696 145.679 160.835 140.348 165.52C140.348 165.52 138.57 168.913 134.37 167.943C134.37 167.943 135.824 175.537 133.239 176.506C133.239 176.506 129.2 179.091 126.131 174.244C126.454 171.175 129.039 170.69 129.039 170.69L128.392 169.721Z" fill="#FFD42A"/>
<path d="M134.693 153.727L135.178 164.874C135.178 164.874 139.217 161.804 139.217 158.896C139.217 158.896 137.278 152.596 134.693 153.727Z" fill="#FF0000"/>
<path d="M132.27 156.311V162.289H128.877L128.554 155.988L132.27 156.311Z" fill="#FF5555"/>
<path d="M143.417 154.534C143.417 154.534 150.364 153.727 152.464 155.988C152.464 155.988 150.364 158.735 152.303 163.42C152.303 163.42 149.233 165.52 142.771 163.743C142.771 163.743 144.386 158.573 143.417 154.534Z" fill="#FF0000"/>
<path d="M159.249 155.342C159.249 155.342 156.018 152.272 152.626 156.15C152.626 156.15 149.879 159.542 152.626 164.066C152.626 164.066 156.988 165.52 158.926 164.228L160.057 163.258C160.057 163.258 164.258 165.682 165.712 162.127C165.712 162.127 167.489 156.15 162.319 155.342H159.249Z" fill="#FFD42A"/>
<path d="M159.249 163.582C157.634 160.351 159.249 155.989 159.249 155.989C159.249 155.989 161.188 154.535 164.581 156.15C164.581 156.15 167.004 161.158 164.742 163.42C164.742 163.42 160.219 164.713 159.249 163.582Z" fill="#FFD42A" stroke="black" stroke-width="0.571904"/>
<path d="M134.801 169.479L131.602 164.453" stroke="black" stroke-width="1.08662"/>
<path d="M127.262 175.86C124.677 171.013 129.039 170.528 129.039 170.528L128.554 169.397C125.161 166.813 125.646 163.258 125.646 163.258L120.961 168.428L41.1529 160.189L47.292 159.381L101.736 151.465L121.284 148.718L123.707 152.919L125.646 151.142C125.646 151.142 121.93 144.841 129.362 140.479C129.362 140.479 135.016 138.702 135.178 145.003C135.178 145.003 135.662 147.426 132.108 147.749C132.108 147.749 139.378 148.395 142.286 154.373C142.286 154.373 150.849 153.888 152.626 155.827C152.626 155.827 155.857 152.273 159.573 155.665C159.573 155.665 165.55 153.404 165.873 159.22C165.873 159.22 166.519 165.843 159.896 163.42C159.896 163.42 156.988 166.005 152.141 163.582C152.141 163.582 151.818 165.359 141.802 163.905C141.802 163.905 140.024 167.782 133.885 168.105C133.885 168.105 137.116 175.698 131.785 177.152C131.785 177.152 129.362 177.96 127.262 175.86Z" stroke="black" stroke-width="1.08662"/>
<path d="M142.448 154.373C142.448 154.373 145.194 159.22 142.125 163.905" stroke="black" stroke-width="1.02943" stroke-linecap="round"/>
<path d="M152.626 155.666C152.626 155.666 149.879 158.897 152.787 163.905" stroke="black" stroke-width="1.02943" stroke-linecap="round"/>
<path d="M159.411 155.342C159.411 155.342 157.472 160.189 159.573 163.582" stroke="black" stroke-width="1.02943" stroke-linecap="round"/>
<path d="M136.955 149.041C136.955 149.041 129.039 146.618 125.646 151.142" stroke="black" stroke-width="1.02943" stroke-linecap="round"/>
<path d="M125.969 164.712L135.501 164.551C135.501 164.551 141.478 161.158 138.086 156.311C138.086 156.311 135.501 149.365 126.777 155.019L123.223 152.434" stroke="black" stroke-width="1.02943" stroke-linecap="round"/>
<path d="M126.615 155.181L126.777 163.743H135.016L134.532 154.05C134.532 154.05 132.916 153.242 132.108 153.888" stroke="black" stroke-width="1.02943" stroke-linecap="round"/>
<path d="M131.947 155.988V162.289L128.554 162.127L128.392 156.15L131.947 155.988Z" stroke="black" stroke-width="1.02943" stroke-linecap="round"/>
<path d="M125.161 157.442L51.3309 159.866" stroke="black" stroke-width="1.02943" stroke-linecap="round"/>
<path d="M37.6441 62.9409L36.0285 66.4951L31.8281 68.7569L42.9754 145.657L43.2985 132.248L41.5214 84.7508L41.0367 62.9409H37.6441Z" fill="#D5E5FF"/>
<path d="M41.0367 62.6182L45.5603 63.1028L51.8609 68.4341L43.137 148.242L43.4601 132.248L41.0367 62.6182Z" fill="#87AADE"/>
<path d="M52.9918 61.3257C48.7914 65.0414 47.499 63.4259 47.499 63.4259L38.775 63.1028L37.1595 63.2643L36.0286 66.4954L33.9284 64.2336C33.9284 64.2336 28.4355 66.3339 26.0122 62.9412L23.4273 59.8717C23.4273 59.8717 22.9427 54.2173 29.2433 54.3788L30.8588 56.9637C30.8588 56.9637 32.1513 50.0168 37.9672 47.2704C37.9672 47.2704 44.1063 44.0393 48.7914 49.3706C48.7914 49.3706 52.184 51.1477 51.2147 55.3481C51.2147 55.3481 58.8078 53.8941 59.7771 56.479C59.7771 56.479 62.362 60.5179 57.5154 63.5874C54.4458 63.2643 53.9612 60.6795 53.9612 60.6795L52.9918 61.3257Z" fill="#FFD42A"/>
<path d="M36.9979 55.025L48.1452 54.5403C48.1452 54.5403 45.0757 50.5015 42.1677 50.5015C42.1677 50.5015 35.867 52.4401 36.9979 55.025Z" fill="#FF0000"/>
<path d="M39.5828 57.4482H45.5603V60.8409L39.2596 61.164L39.5828 57.4482Z" fill="#FF5555"/>
<path d="M37.8056 46.301C37.8056 46.301 36.9979 39.3541 39.2596 37.2539C39.2596 37.2539 42.0061 39.3541 46.6911 37.4155C46.6911 37.4155 48.7914 40.485 47.0143 46.9472C47.0143 46.9472 41.8445 45.3316 37.8056 46.301Z" fill="#FF0000"/>
<path d="M38.6134 30.4686C38.6134 30.4686 35.5439 33.6997 39.4212 37.0923C39.4212 37.0923 42.8138 39.8387 47.3374 37.0923C47.3374 37.0923 48.7913 32.7304 47.4989 30.7917L46.5296 29.6608C46.5296 29.6608 48.9529 25.4604 45.3987 24.0064C45.3987 24.0064 39.4212 22.2293 38.6134 27.399V30.4686Z" fill="#FFD42A"/>
<path d="M46.8528 30.4686C43.6217 32.0841 39.2597 30.4686 39.2597 30.4686C39.2597 30.4686 37.8057 28.5299 39.4213 25.1373C39.4213 25.1373 44.4294 22.714 46.6912 24.9757C46.6912 24.9757 47.9837 29.4993 46.8528 30.4686Z" fill="#FFD42A" stroke="black" stroke-width="0.571904"/>
<path d="M52.7503 54.917L47.7239 58.1156" stroke="black" stroke-width="1.08662"/>
<path d="M59.1309 62.4564C54.2843 65.0413 53.7996 60.6793 53.7996 60.6793L52.6687 61.164C50.0839 64.5566 46.5297 64.072 46.5297 64.072L51.6994 68.7571L43.4601 148.565L42.6523 142.426L34.7362 87.9821L31.9897 68.434L36.1902 66.0106L34.4131 64.072C34.4131 64.072 28.1124 67.7877 23.7504 60.3562C23.7504 60.3562 21.9733 54.7018 28.274 54.5403C28.274 54.5403 30.6973 54.0556 31.0204 57.6098C31.0204 57.6098 31.6666 50.3398 37.6441 47.4318C37.6441 47.4318 37.1595 38.8695 39.0981 37.0923C39.0981 37.0923 35.5439 33.8613 38.9366 30.1455C38.9366 30.1455 36.6748 24.168 42.4908 23.8449C42.4908 23.8449 49.1145 23.1986 46.6912 29.8224C46.6912 29.8224 49.2761 32.7304 46.8528 37.577C46.8528 37.577 48.6299 37.9001 47.1759 47.9165C47.1759 47.9165 51.0532 49.6936 51.3763 55.8327C51.3763 55.8327 58.9694 52.6016 60.4234 57.9329C60.4234 57.9329 61.2311 60.3562 59.1309 62.4564Z" stroke="black" stroke-width="1.08662"/>
<path d="M37.6442 47.2704C37.6442 47.2704 42.4908 44.524 47.1759 47.5935" stroke="black" stroke-width="1.02943" stroke-linecap="round"/>
<path d="M38.9365 37.0922C38.9365 37.0922 42.1676 39.8386 47.1758 36.9307" stroke="black" stroke-width="1.02943" stroke-linecap="round"/>
<path d="M38.6134 30.3071C38.6134 30.3071 43.46 32.2457 46.8527 30.1455" stroke="black" stroke-width="1.02943" stroke-linecap="round"/>
<path d="M32.3129 52.7632C32.3129 52.7632 29.8896 60.6794 34.4131 64.072" stroke="black" stroke-width="1.02943" stroke-linecap="round"/>
<path d="M47.9836 63.749L47.822 54.2172C47.822 54.2172 44.4294 48.2397 39.5828 51.6324C39.5828 51.6324 32.6359 54.2172 38.2903 62.9412L35.7054 66.4954" stroke="black" stroke-width="1.02943" stroke-linecap="round"/>
<path d="M38.4519 63.1025L47.0143 62.9409V54.7017L37.3211 55.1863C37.3211 55.1863 36.5133 56.8019 37.1595 57.6096" stroke="black" stroke-width="1.02943" stroke-linecap="round"/>
<path d="M39.2596 57.7715H45.5603L45.3987 61.1641L39.4212 61.3257L39.2596 57.7715Z" stroke="black" stroke-width="1.02943" stroke-linecap="round"/>
<path d="M40.7136 64.5566L43.1369 138.387" stroke="black" stroke-width="1.02943" stroke-linecap="round"/>
<path d="M162.274 62.9409L160.658 66.4951L156.458 68.7569L167.605 145.657L167.928 132.248L166.151 84.7508L165.667 62.9409H162.274Z" fill="#D5E5FF"/>
<path d="M165.667 62.6182L170.19 63.1028L176.491 68.4341L167.767 148.242L168.09 132.248L165.667 62.6182Z" fill="#87AADE"/>
<path d="M177.622 61.3257C173.421 65.0414 172.129 63.4259 172.129 63.4259L163.405 63.1028L161.789 63.2643L160.658 66.4954L158.558 64.2336C158.558 64.2336 153.065 66.3339 150.642 62.9412L148.057 59.8717C148.057 59.8717 147.573 54.2173 153.873 54.3788L155.489 56.9637C155.489 56.9637 156.781 50.0168 162.597 47.2704C162.597 47.2704 168.736 44.0393 173.421 49.3706C173.421 49.3706 176.814 51.1477 175.845 55.3481C175.845 55.3481 183.438 53.8941 184.407 56.479C184.407 56.479 186.992 60.5179 182.145 63.5874C179.076 63.2643 178.591 60.6795 178.591 60.6795L177.622 61.3257Z" fill="#FFD42A"/>
<path d="M161.628 55.025L172.775 54.5403C172.775 54.5403 169.706 50.5015 166.798 50.5015C166.798 50.5015 160.497 52.4401 161.628 55.025Z" fill="#FF0000"/>
<path d="M164.213 57.4482H170.19V60.8409L163.89 61.164L164.213 57.4482Z" fill="#FF5555"/>
<path d="M162.436 46.301C162.436 46.301 161.628 39.3541 163.89 37.2539C163.89 37.2539 166.636 39.3541 171.321 37.4155C171.321 37.4155 173.421 40.485 171.644 46.9472C171.644 46.9472 166.474 45.3316 162.436 46.301Z" fill="#FF0000"/>
<path d="M163.243 30.4686C163.243 30.4686 160.174 33.6997 164.051 37.0923C164.051 37.0923 167.444 39.8387 171.967 37.0923C171.967 37.0923 173.421 32.7304 172.129 30.7917L171.159 29.6608C171.159 29.6608 173.583 25.4604 170.029 24.0064C170.029 24.0064 164.051 22.2293 163.243 27.399V30.4686Z" fill="#FFD42A"/>
<path d="M171.483 30.4686C168.252 32.0841 163.89 30.4686 163.89 30.4686C163.89 30.4686 162.436 28.5299 164.051 25.1373C164.051 25.1373 169.059 22.714 171.321 24.9757C171.321 24.9757 172.614 29.4993 171.483 30.4686Z" fill="#FFD42A" stroke="black" stroke-width="0.571904"/>
<path d="M177.38 54.917L172.354 58.1156" stroke="black" stroke-width="1.08662"/>
<path d="M183.761 62.4564C178.914 65.0413 178.429 60.6793 178.429 60.6793L177.299 61.164C174.714 64.5566 171.16 64.072 171.16 64.072L176.329 68.7571L168.09 148.565L167.282 142.426L159.366 87.9821L156.62 68.434L160.82 66.0106L159.043 64.072C159.043 64.072 152.742 67.7877 148.38 60.3562C148.38 60.3562 146.603 54.7018 152.904 54.5403C152.904 54.5403 155.327 54.0556 155.65 57.6098C155.65 57.6098 156.297 50.3398 162.274 47.4318C162.274 47.4318 161.789 38.8695 163.728 37.0923C163.728 37.0923 160.174 33.8613 163.566 30.1455C163.566 30.1455 161.305 24.168 167.121 23.8449C167.121 23.8449 173.744 23.1986 171.321 29.8224C171.321 29.8224 173.906 32.7304 171.483 37.577C171.483 37.577 173.26 37.9001 171.806 47.9165C171.806 47.9165 175.683 49.6936 176.006 55.8327C176.006 55.8327 183.599 52.6016 185.053 57.9329C185.053 57.9329 185.861 60.3562 183.761 62.4564Z" stroke="black" stroke-width="1.08662"/>
<path d="M162.274 47.2704C162.274 47.2704 167.121 44.524 171.806 47.5935" stroke="black" stroke-width="1.02943" stroke-linecap="round"/>
<path d="M163.566 37.0922C163.566 37.0922 166.798 39.8386 171.806 36.9307" stroke="black" stroke-width="1.02943" stroke-linecap="round"/>
<path d="M163.243 30.3071C163.243 30.3071 168.09 32.2457 171.483 30.1455" stroke="black" stroke-width="1.02943" stroke-linecap="round"/>
<path d="M156.943 52.7632C156.943 52.7632 154.519 60.6794 159.043 64.072" stroke="black" stroke-width="1.02943" stroke-linecap="round"/>
<path d="M172.613 63.749L172.452 54.2172C172.452 54.2172 169.059 48.2397 164.213 51.6324C164.213 51.6324 157.266 54.2172 162.92 62.9412L160.335 66.4954" stroke="black" stroke-width="1.02943" stroke-linecap="round"/>
<path d="M163.082 63.1025L171.644 62.9409V54.7017L161.951 55.1863C161.951 55.1863 161.143 56.8019 161.789 57.6096" stroke="black" stroke-width="1.02943" stroke-linecap="round"/>
<path d="M163.89 57.7715H170.19L170.029 61.1641L164.051 61.3257L163.89 57.7715Z" stroke="black" stroke-width="1.02943" stroke-linecap="round"/>
<path d="M165.344 64.5566L167.767 138.387" stroke="black" stroke-width="1.02943" stroke-linecap="round"/>
<path d="M98.7244 62.9409L97.1089 66.4951L92.9084 68.7569L104.056 145.657L104.379 132.248L102.602 84.7508L102.117 62.9409H98.7244Z" fill="#D5E5FF"/>
<path d="M102.117 62.6182L106.641 63.1028L112.941 68.4341L104.217 148.242L104.54 132.248L102.117 62.6182Z" fill="#87AADE"/>
<path d="M114.072 61.3257C109.872 65.0414 108.579 63.4259 108.579 63.4259L99.8553 63.1028L98.2398 63.2643L97.1089 66.4954L95.0087 64.2336C95.0087 64.2336 89.5158 66.3339 87.0925 62.9412L84.5076 59.8717C84.5076 59.8717 84.023 54.2173 90.3236 54.3788L91.9392 56.9637C91.9392 56.9637 93.2316 50.0168 99.0476 47.2704C99.0476 47.2704 105.187 44.0393 109.872 49.3706C109.872 49.3706 113.264 51.1477 112.295 55.3481C112.295 55.3481 119.888 53.8941 120.857 56.479C120.857 56.479 123.442 60.5179 118.596 63.5874C115.526 63.2643 115.041 60.6795 115.041 60.6795L114.072 61.3257Z" fill="#FFD42A"/>
<path d="M98.0782 55.025L109.226 54.5403C109.226 54.5403 106.156 50.5015 103.248 50.5015C103.248 50.5015 96.9474 52.4401 98.0782 55.025Z" fill="#FF0000"/>
<path d="M100.663 57.4482H106.641V60.8409L100.34 61.164L100.663 57.4482Z" fill="#FF5555"/>
<path d="M98.886 46.301C98.886 46.301 98.0782 39.3541 100.34 37.2539C100.34 37.2539 103.086 39.3541 107.771 37.4155C107.771 37.4155 109.872 40.485 108.095 46.9472C108.095 46.9472 102.925 45.3316 98.886 46.301Z" fill="#FF0000"/>
<path d="M99.6937 30.4686C99.6937 30.4686 96.6242 33.6997 100.501 37.0923C100.501 37.0923 103.894 39.8387 108.418 37.0923C108.418 37.0923 109.872 32.7304 108.579 30.7917L107.61 29.6608C107.61 29.6608 110.033 25.4604 106.479 24.0064C106.479 24.0064 100.501 22.2293 99.6937 27.399V30.4686Z" fill="#FFD42A"/>
<path d="M107.933 30.4686C104.702 32.0841 100.34 30.4686 100.34 30.4686C100.34 30.4686 98.886 28.5299 100.502 25.1373C100.502 25.1373 105.51 22.714 107.772 24.9757C107.772 24.9757 109.064 29.4993 107.933 30.4686Z" fill="#FFD42A" stroke="black" stroke-width="0.571904"/>
<path d="M113.831 54.917L108.804 58.1156" stroke="black" stroke-width="1.08662"/>
<path d="M120.211 62.4564C115.365 65.0413 114.88 60.6793 114.88 60.6793L113.749 61.164C111.164 64.5566 107.61 64.072 107.61 64.072L112.78 68.7571L104.54 148.565L103.733 142.426L95.8165 87.9821L93.0701 68.434L97.2705 66.0106L95.4934 64.072C95.4934 64.072 89.1927 67.7877 84.8308 60.3562C84.8308 60.3562 83.0537 54.7018 89.3543 54.5403C89.3543 54.5403 91.7776 54.0556 92.1007 57.6098C92.1007 57.6098 92.7469 50.3398 98.7245 47.4318C98.7245 47.4318 98.2398 38.8695 100.178 37.0923C100.178 37.0923 96.6243 33.8613 100.017 30.1455C100.017 30.1455 97.7551 24.168 103.571 23.8449C103.571 23.8449 110.195 23.1986 107.772 29.8224C107.772 29.8224 110.356 32.7304 107.933 37.577C107.933 37.577 109.71 37.9001 108.256 47.9165C108.256 47.9165 112.134 49.6936 112.457 55.8327C112.457 55.8327 120.05 52.6016 121.504 57.9329C121.504 57.9329 122.311 60.3562 120.211 62.4564Z" stroke="black" stroke-width="1.08662"/>
<path d="M98.7245 47.2704C98.7245 47.2704 103.571 44.524 108.256 47.5935" stroke="black" stroke-width="1.02943" stroke-linecap="round"/>
<path d="M100.017 37.0922C100.017 37.0922 103.248 39.8386 108.256 36.9307" stroke="black" stroke-width="1.02943" stroke-linecap="round"/>
<path d="M99.6937 30.3071C99.6937 30.3071 104.54 32.2457 107.933 30.1455" stroke="black" stroke-width="1.02943" stroke-linecap="round"/>
<path d="M93.3932 52.7632C93.3932 52.7632 90.9699 60.6794 95.4934 64.072" stroke="black" stroke-width="1.02943" stroke-linecap="round"/>
<path d="M109.064 63.749L108.902 54.2172C108.902 54.2172 105.51 48.2397 100.663 51.6324C100.663 51.6324 93.7162 54.2172 99.3706 62.9412L96.7858 66.4954" stroke="black" stroke-width="1.02943" stroke-linecap="round"/>
<path d="M99.5323 63.1025L108.095 62.9409V54.7017L98.4014 55.1863C98.4014 55.1863 97.5936 56.8019 98.2398 57.6096" stroke="black" stroke-width="1.02943" stroke-linecap="round"/>
<path d="M100.34 57.7715H106.641L106.479 61.1641L100.502 61.3257L100.34 57.7715Z" stroke="black" stroke-width="1.02943" stroke-linecap="round"/>
<path d="M101.794 64.5566L104.217 138.387" stroke="black" stroke-width="1.02943" stroke-linecap="round"/>
<path d="M99.3665 255.816L97.7509 252.262L93.5505 250L104.698 173.1L105.021 186.509L103.244 234.006L102.759 255.816H99.3665Z" fill="#D5E5FF"/>
<path d="M102.759 256.139L107.283 255.654L113.583 250.323L104.859 170.515L105.182 186.509L102.759 256.139Z" fill="#87AADE"/>
<path d="M114.714 257.431C110.514 253.715 109.221 255.331 109.221 255.331L100.497 255.654L98.8819 255.493L97.751 252.261L95.6508 254.523C95.6508 254.523 90.1579 252.423 87.7346 255.816L85.1497 258.885C85.1497 258.885 84.6651 264.54 90.9657 264.378L92.5812 261.793C92.5812 261.793 93.8737 268.74 99.6896 271.486C99.6896 271.486 105.829 274.718 110.514 269.386C110.514 269.386 113.906 267.609 112.937 263.409C112.937 263.409 120.53 264.863 121.5 262.278C121.5 262.278 124.084 258.239 119.238 255.169C116.168 255.493 115.684 258.077 115.684 258.077L114.714 257.431Z" fill="#FFD42A"/>
<path d="M98.7203 263.732L109.868 264.216C109.868 264.216 106.798 268.255 103.89 268.255C103.89 268.255 97.5895 266.317 98.7203 263.732Z" fill="#FF0000"/>
<path d="M101.305 261.309H107.283V257.916L100.982 257.593L101.305 261.309Z" fill="#FF5555"/>
<path d="M99.528 272.456C99.528 272.456 98.7203 279.403 100.982 281.503C100.982 281.503 103.728 279.403 108.414 281.341C108.414 281.341 110.514 278.272 108.737 271.81C108.737 271.81 103.567 273.425 99.528 272.456Z" fill="#FF0000"/>
<path d="M100.336 288.288C100.336 288.288 97.2664 285.057 101.144 281.665C101.144 281.665 104.536 278.918 109.06 281.665C109.06 281.665 110.514 286.026 109.221 287.965L108.252 289.096C108.252 289.096 110.675 293.296 107.121 294.75C107.121 294.75 101.144 296.528 100.336 291.358V288.288Z" fill="#FFD42A"/>
<path d="M108.575 288.288C105.344 286.673 100.982 288.288 100.982 288.288C100.982 288.288 99.5281 290.227 101.144 293.62C101.144 293.62 106.152 296.043 108.414 293.781C108.414 293.781 109.706 289.258 108.575 288.288Z" fill="#FFD42A" stroke="black" stroke-width="0.571904"/>
<path d="M114.473 263.84L109.446 260.641" stroke="black" stroke-width="1.08662"/>
<path d="M120.853 256.3C116.007 253.716 115.522 258.078 115.522 258.078L114.391 257.593C111.806 254.2 108.252 254.685 108.252 254.685L113.422 250L105.183 170.192L104.375 176.331L96.4586 230.775L93.7121 250.323L97.9125 252.746L96.1354 254.685C96.1354 254.685 89.8348 250.969 85.4729 258.401C85.4729 258.401 83.6958 264.055 89.9964 264.217C89.9964 264.217 92.4197 264.701 92.7428 261.147C92.7428 261.147 93.389 268.417 99.3665 271.325C99.3665 271.325 98.8819 279.887 100.821 281.664C100.821 281.664 97.2663 284.896 100.659 288.611C100.659 288.611 98.3972 294.589 104.213 294.912C104.213 294.912 110.837 295.558 108.414 288.934C108.414 288.934 110.998 286.026 108.575 281.18C108.575 281.18 110.352 280.857 108.898 270.84C108.898 270.84 112.776 269.063 113.099 262.924C113.099 262.924 120.692 266.155 122.146 260.824C122.146 260.824 122.954 258.401 120.853 256.3Z" stroke="black" stroke-width="1.08662"/>
<path d="M99.3665 271.486C99.3665 271.486 104.213 274.233 108.898 271.163" stroke="black" stroke-width="1.02943" stroke-linecap="round"/>
<path d="M100.659 281.665C100.659 281.665 103.89 278.918 108.898 281.826" stroke="black" stroke-width="1.02943" stroke-linecap="round"/>
<path d="M100.336 288.45C100.336 288.45 105.182 286.511 108.575 288.611" stroke="black" stroke-width="1.02943" stroke-linecap="round"/>
<path d="M94.0353 265.994C94.0353 265.994 91.612 258.077 96.1355 254.685" stroke="black" stroke-width="1.02943" stroke-linecap="round"/>
<path d="M109.706 255.008L109.544 264.54C109.544 264.54 106.152 270.517 101.305 267.124C101.305 267.124 94.3583 264.54 100.013 255.816L97.4279 252.261" stroke="black" stroke-width="1.02943" stroke-linecap="round"/>
<path d="M100.174 255.654L108.737 255.816V264.055L99.0435 263.571C99.0435 263.571 98.2357 261.955 98.8819 261.147" stroke="black" stroke-width="1.02943" stroke-linecap="round"/>
<path d="M100.982 260.985H107.283L107.121 257.593L101.144 257.431L100.982 260.985Z" stroke="black" stroke-width="1.02943" stroke-linecap="round"/>
<path d="M102.436 254.2L104.859 180.37" stroke="black" stroke-width="1.02943" stroke-linecap="round"/>
<path d="M37.0514 255.816L35.4359 252.262L31.2355 250L42.3828 173.1L42.7059 186.509L40.9288 234.006L40.4441 255.816H37.0514Z" fill="#D5E5FF"/>
<path d="M40.4441 256.139L44.9676 255.654L51.2683 250.323L42.5443 170.515L42.8674 186.509L40.4441 256.139Z" fill="#87AADE"/>
<path d="M52.3992 257.431C48.1988 253.715 46.9063 255.331 46.9063 255.331L38.1824 255.654L36.5668 255.493L35.4359 252.261L33.3357 254.523C33.3357 254.523 27.8429 252.423 25.4195 255.816L22.8347 258.885C22.8347 258.885 22.35 264.54 28.6506 264.378L30.2662 261.793C30.2662 261.793 31.5586 268.74 37.3746 271.486C37.3746 271.486 43.5137 274.718 48.1987 269.386C48.1987 269.386 51.5914 267.609 50.6221 263.409C50.6221 263.409 58.2151 264.863 59.1845 262.278C59.1845 262.278 61.7693 258.239 56.9227 255.169C53.8532 255.493 53.3685 258.077 53.3685 258.077L52.3992 257.431Z" fill="#FFD42A"/>
<path d="M36.4053 263.732L47.5525 264.217C47.5525 264.217 44.483 268.255 41.575 268.255C41.575 268.255 35.2744 266.317 36.4053 263.732Z" fill="#FF0000"/>
<path d="M38.9901 261.309H44.9676V257.916L38.667 257.593L38.9901 261.309Z" fill="#FF5555"/>
<path d="M37.213 272.456C37.213 272.456 36.4052 279.403 38.667 281.503C38.667 281.503 41.4134 279.403 46.0985 281.341C46.0985 281.341 48.1987 278.272 46.4216 271.81C46.4216 271.81 41.2519 273.425 37.213 272.456Z" fill="#FF0000"/>
<path d="M38.0207 288.288C38.0207 288.288 34.9512 285.057 38.8285 281.665C38.8285 281.665 42.2212 278.918 46.7447 281.665C46.7447 281.665 48.1987 286.026 46.9063 287.965L45.9369 289.096C45.9369 289.096 48.3602 293.296 44.806 294.75C44.806 294.75 38.8285 296.528 38.0207 291.358V288.288Z" fill="#FFD42A"/>
<path d="M46.2601 288.288C43.029 286.673 38.667 288.288 38.667 288.288C38.667 288.288 37.2131 290.227 38.8286 293.62C38.8286 293.62 43.8368 296.043 46.0986 293.781C46.0986 293.781 47.391 289.258 46.2601 288.288Z" fill="#FFD42A" stroke="black" stroke-width="0.571904"/>
<path d="M52.1576 263.84L47.1312 260.641" stroke="black" stroke-width="1.08662"/>
<path d="M58.5383 256.3C53.6916 253.716 53.207 258.077 53.207 258.077L52.0761 257.593C49.4912 254.2 45.937 254.685 45.937 254.685L51.1067 250L42.8675 170.192L42.0597 176.331L34.1435 230.775L31.3971 250.323L35.5975 252.746L33.8204 254.685C33.8204 254.685 27.5198 250.969 23.1578 258.401C23.1578 258.401 21.3807 264.055 27.6813 264.217C27.6813 264.217 30.1046 264.701 30.4277 261.147C30.4277 261.147 31.074 268.417 37.0515 271.325C37.0515 271.325 36.5668 279.887 38.5055 281.664C38.5055 281.664 34.9513 284.896 38.3439 288.611C38.3439 288.611 36.0822 294.589 41.8981 294.912C41.8981 294.912 48.5219 295.558 46.0986 288.934C46.0986 288.934 48.6834 286.026 46.2601 281.18C46.2601 281.18 48.0372 280.857 46.5832 270.84C46.5832 270.84 50.4605 269.063 50.7836 262.924C50.7836 262.924 58.3767 266.155 59.8307 260.824C59.8307 260.824 60.6385 258.401 58.5383 256.3Z" stroke="black" stroke-width="1.08662"/>
<path d="M37.0515 271.486C37.0515 271.486 41.8982 274.233 46.5832 271.163" stroke="black" stroke-width="1.02943" stroke-linecap="round"/>
<path d="M38.3439 281.665C38.3439 281.665 41.575 278.918 46.5832 281.826" stroke="black" stroke-width="1.02943" stroke-linecap="round"/>
<path d="M38.0208 288.45C38.0208 288.45 42.8674 286.511 46.26 288.611" stroke="black" stroke-width="1.02943" stroke-linecap="round"/>
<path d="M31.7202 265.994C31.7202 265.994 29.2969 258.077 33.8204 254.685" stroke="black" stroke-width="1.02943" stroke-linecap="round"/>
<path d="M47.391 255.008L47.2294 264.54C47.2294 264.54 43.8367 270.517 38.9901 267.124C38.9901 267.124 32.0433 264.54 37.6977 255.816L35.1128 252.261" stroke="black" stroke-width="1.02943" stroke-linecap="round"/>
<path d="M37.8593 255.654L46.4217 255.816V264.055L36.7284 263.571C36.7284 263.571 35.9206 261.955 36.5669 261.147" stroke="black" stroke-width="1.02943" stroke-linecap="round"/>
<path d="M38.667 260.985H44.9676L44.8061 257.593L38.8285 257.431L38.667 260.985Z" stroke="black" stroke-width="1.02943" stroke-linecap="round"/>
<path d="M40.121 254.2L42.5443 180.37" stroke="black" stroke-width="1.02943" stroke-linecap="round"/>
<path d="M161.681 255.816L160.066 252.262L155.865 250L167.013 173.1L167.336 186.509L165.559 234.006L165.074 255.816H161.681Z" fill="#D5E5FF"/>
<path d="M165.074 256.139L169.598 255.654L175.898 250.323L167.174 170.515L167.497 186.509L165.074 256.139Z" fill="#87AADE"/>
<path d="M177.029 257.431C172.829 253.715 171.536 255.331 171.536 255.331L162.812 255.654L161.197 255.493L160.066 252.261L157.966 254.523C157.966 254.523 152.473 252.423 150.05 255.816L147.465 258.885C147.465 258.885 146.98 264.54 153.281 264.378L154.896 261.793C154.896 261.793 156.189 268.74 162.005 271.486C162.005 271.486 168.144 274.718 172.829 269.386C172.829 269.386 176.221 267.609 175.252 263.409C175.252 263.409 182.845 264.863 183.814 262.278C183.814 262.278 186.399 258.239 181.553 255.169C178.483 255.493 177.999 258.077 177.999 258.077L177.029 257.431Z" fill="#FFD42A"/>
<path d="M161.035 263.732L172.183 264.217C172.183 264.217 169.113 268.255 166.205 268.255C166.205 268.255 159.904 266.317 161.035 263.732Z" fill="#FF0000"/>
<path d="M163.62 261.309H169.598V257.916L163.297 257.593L163.62 261.309Z" fill="#FF5555"/>
<path d="M161.843 272.456C161.843 272.456 161.035 279.403 163.297 281.503C163.297 281.503 166.043 279.403 170.729 281.341C170.729 281.341 172.829 278.272 171.052 271.81C171.052 271.81 165.882 273.425 161.843 272.456Z" fill="#FF0000"/>
<path d="M162.651 288.288C162.651 288.288 159.581 285.057 163.459 281.665C163.459 281.665 166.851 278.918 171.375 281.665C171.375 281.665 172.829 286.026 171.536 287.965L170.567 289.096C170.567 289.096 172.99 293.296 169.436 294.75C169.436 294.75 163.459 296.528 162.651 291.358V288.288Z" fill="#FFD42A"/>
<path d="M170.89 288.288C167.659 286.673 163.297 288.288 163.297 288.288C163.297 288.288 161.843 290.227 163.459 293.62C163.459 293.62 168.467 296.043 170.729 293.781C170.729 293.781 172.021 289.258 170.89 288.288Z" fill="#FFD42A" stroke="black" stroke-width="0.571904"/>
<path d="M176.788 263.84L171.761 260.641" stroke="black" stroke-width="1.08662"/>
<path d="M183.168 256.3C178.322 253.716 177.837 258.077 177.837 258.077L176.706 257.593C174.121 254.2 170.567 254.685 170.567 254.685L175.737 250L167.497 170.192L166.69 176.331L158.774 230.775L156.027 250.323L160.228 252.746L158.45 254.685C158.45 254.685 152.15 250.969 147.788 258.401C147.788 258.401 146.011 264.055 152.311 264.217C152.311 264.217 154.735 264.701 155.058 261.147C155.058 261.147 155.704 268.417 161.681 271.325C161.681 271.325 161.197 279.887 163.135 281.664C163.135 281.664 159.581 284.896 162.974 288.611C162.974 288.611 160.712 294.589 166.528 294.912C166.528 294.912 173.152 295.558 170.729 288.934C170.729 288.934 173.313 286.026 170.89 281.18C170.89 281.18 172.667 280.857 171.213 270.84C171.213 270.84 175.091 269.063 175.414 262.924C175.414 262.924 183.007 266.155 184.461 260.824C184.461 260.824 185.268 258.401 183.168 256.3Z" stroke="black" stroke-width="1.08662"/>
<path d="M161.682 271.486C161.682 271.486 166.528 274.233 171.213 271.163" stroke="black" stroke-width="1.02943" stroke-linecap="round"/>
<path d="M162.974 281.665C162.974 281.665 166.205 278.918 171.213 281.826" stroke="black" stroke-width="1.02943" stroke-linecap="round"/>
<path d="M162.651 288.45C162.651 288.45 167.497 286.511 170.89 288.611" stroke="black" stroke-width="1.02943" stroke-linecap="round"/>
<path d="M156.35 265.994C156.35 265.994 153.927 258.077 158.45 254.685" stroke="black" stroke-width="1.02943" stroke-linecap="round"/>
<path d="M172.021 255.008L171.859 264.54C171.859 264.54 168.467 270.517 163.62 267.124C163.62 267.124 156.673 264.54 162.328 255.816L159.743 252.261" stroke="black" stroke-width="1.02943" stroke-linecap="round"/>
<path d="M162.489 255.654L171.052 255.816V264.055L161.358 263.571C161.358 263.571 160.551 261.955 161.197 261.147" stroke="black" stroke-width="1.02943" stroke-linecap="round"/>
<path d="M163.297 260.985H169.598L169.436 257.593L163.459 257.431L163.297 260.985Z" stroke="black" stroke-width="1.02943" stroke-linecap="round"/>
<path d="M164.751 254.2L167.174 180.37" stroke="black" stroke-width="1.02943" stroke-linecap="round"/>
<defs>
<linearGradient id="paint0_linear_2689_21211" x1="135.067" y1="148.459" x2="-384.797" y2="148.459" gradientUnits="userSpaceOnUse">
<stop stop-color="white"/>
<stop offset="1" stop-color="#CCCCCC"/>
</linearGradient>
</defs>
</svg>
