<svg width="208" height="319" viewBox="0 0 208 319" fill="none" xmlns="http://www.w3.org/2000/svg">
<path d="M192.5 0.5H15.5C7.21573 0.5 0.5 7.21573 0.5 15.5V303.5C0.5 311.784 7.21573 318.5 15.5 318.5H192.5C200.784 318.5 207.5 311.784 207.5 303.5V15.5C207.5 7.21573 200.784 0.5 192.5 0.5Z" fill="url(#paint0_linear_2689_26408)" stroke="black" stroke-linecap="square"/>
<path d="M65.8571 15H91.2857M116.714 15H142.143M167.571 15H193V304H167.571M142.143 304H116.714M91.2857 304H65.8571M40.4285 304H15V15H40.4285" stroke="black"/>
<path d="M181.092 288.241C181.092 289.046 181.274 289.76 181.639 290.383C181.988 291.006 182.421 291.485 182.938 291.819C183.439 292.169 184.009 292.45 184.647 292.662C185.27 292.89 185.817 293.035 186.288 293.095C186.744 293.171 187.147 293.209 187.496 293.209C187.678 293.209 187.77 293.27 187.77 293.392C187.77 293.437 187.758 293.475 187.747 293.506L185.263 298.907H180.499C180.256 298.907 180.066 298.945 179.93 299.021C179.778 299.097 179.618 299.257 179.451 299.5L179.246 299.34L180.112 297.312C180.173 297.175 180.347 297.107 180.636 297.107H185.103L186.061 295.17C183.842 294.774 182.194 294.129 181.115 293.232C180.036 292.351 179.497 291.052 179.497 289.335C179.497 288.438 179.641 287.641 179.93 286.942C180.203 286.243 180.56 285.68 181.001 285.255C181.426 284.83 181.928 284.48 182.505 284.207C183.067 283.933 183.614 283.751 184.146 283.66C184.663 283.553 185.187 283.5 185.719 283.5C186.57 283.5 187.246 283.622 187.747 283.865C188.249 284.123 188.5 284.472 188.5 284.913C188.5 285.475 188.173 285.756 187.519 285.756C187.094 285.756 186.547 285.521 185.878 285.05C185.195 284.579 184.655 284.343 184.26 284.343C183.364 284.343 182.612 284.716 182.004 285.46C181.396 286.22 181.092 287.147 181.092 288.241Z" fill="black"/>
<path d="M26.9078 30.7598C26.9078 29.9545 26.7255 29.2404 26.3609 28.6174C26.0114 27.9944 25.5784 27.5157 25.0618 27.1814C24.5603 26.832 23.9905 26.5509 23.3523 26.3382C22.7293 26.1103 22.1824 25.9659 21.7113 25.9052C21.2555 25.8292 20.8527 25.7911 20.5033 25.7911C20.321 25.7911 20.2298 25.7303 20.2298 25.6088C20.2298 25.5632 20.2415 25.5252 20.2521 25.4948L22.7364 20.0931H27.5C27.743 20.0931 27.9331 20.0551 28.0698 19.9791C28.2217 19.9032 28.3812 19.7436 28.5484 19.5005L28.7535 19.66L27.8875 21.6885C27.8262 21.8253 27.652 21.8936 27.3633 21.8936H22.896L21.9388 23.831C24.1572 24.226 25.8058 24.8718 26.8847 25.7683C27.9634 26.6496 28.5028 27.9487 28.5028 29.6657C28.5028 30.5622 28.3585 31.3599 28.0698 32.0589C27.7963 32.7578 27.4391 33.32 26.9985 33.7455C26.5731 34.1709 26.0716 34.5204 25.4942 34.7939C24.932 35.0674 24.385 35.2497 23.8532 35.3409C23.3366 35.4472 22.8123 35.5005 22.2806 35.5005C21.4296 35.5005 20.7534 35.3789 20.2521 35.1358C19.7506 34.8775 19.4999 34.528 19.4999 34.0874C19.4999 33.5252 19.8266 33.2441 20.48 33.2441C20.9054 33.2441 21.4525 33.4796 22.121 33.9506C22.8048 34.4216 23.3442 34.6572 23.7393 34.6572C24.6357 34.6572 25.3879 34.2849 25.9957 33.5403C26.6035 32.7806 26.9078 31.8539 26.9078 30.7598Z" fill="black"/>
<path d="M66.3848 91.9727C64.6129 94.8834 63.4524 100.617 63.4524 100.617C63.6136 104.141 66.4893 103.834 66.4893 103.834C66.4893 103.834 70.5727 102.624 70.582 98.3297L70.9075 95.8646L72.3915 93.6111L72.3894 91.8718L70.2441 90.3587L68.0429 90.3685L66.3848 91.9727Z" fill="#FFDD55" stroke="black" stroke-width="0.320521"/>
<path d="M78.0542 73.187C78.5358 77.5816 73.9529 80.6075 73.9529 80.6075C71.1816 80.6542 70.4729 76.4943 70.4729 76.4943L70.5946 75.6497L72.7655 71.4142C72.7655 71.4142 73.1603 66.6107 75.4252 65.5399C75.4252 65.5399 76.893 64.7406 78.0537 66.6915C78.0537 66.6915 78.6287 67.7553 77.5882 69.716L78.0542 73.187Z" fill="#FFDD55" stroke="black" stroke-width="0.320521"/>
<path d="M63.7366 62.1759C61.983 65.3717 59.3142 66.6667 59.3142 66.6667C59.3142 66.6667 56.8038 67.6874 55.8836 64.6861C55.8836 64.6861 55.837 61.9148 57.355 60.8701L58.3212 60.1472L58.9154 59.118L59.9291 58.7884C59.9291 58.7884 62.4614 55.0361 64.3641 55.8601C64.3641 55.8601 67.1114 56.8059 63.7366 62.1759Z" fill="#FFDD55" stroke="black" stroke-width="0.320521"/>
<path d="M90.483 31.6948C93.5485 36.2091 89.9233 40.4282 89.9233 40.4282C89.1813 41.555 86.8089 40.2768 86.8089 40.2768C83.9117 37.6893 86.7928 32.8576 86.7928 32.8576C85.1858 31.8382 86.8609 26.4017 86.8609 26.4017C86.8609 26.4017 86.6509 22.8042 87.5273 22.3953C87.5273 22.3953 88.1872 22.0445 88.9603 22.7653L89.6881 24.8322L89.9724 27.1919L90.2143 30.2589L90.483 31.6948Z" fill="#FFDD55" stroke="black" stroke-width="0.320521"/>
<path d="M80.998 55.4171C81.0119 58.5301 77.2065 64.2248 77.2065 64.2248L78.0643 66.6606C77.0661 66.0925 77.6543 65.4025 75.0748 65.4522C74.8545 65.6847 74.7795 66.0564 74.4948 66.2788C73.4734 67.077 73.227 68.8634 72.7847 71.2951C72.6335 72.1262 71.8288 73.1646 71.2099 74.3564C70.8624 75.0257 70.382 75.7468 70.4918 76.4997C70.7052 77.9648 70.8759 78.7793 71.5813 79.6844C72.5132 80.8798 74.0061 80.7481 74.0061 80.7481L71.26 88.8657L72.2893 91.7887L70.0726 90.2502C67.4078 89.4878 65.6671 93.3991 65.6671 93.3991L64.3746 96.5341L63.5563 99.296C63.036 103.782 66.3021 103.727 66.3021 103.727C63.8361 111.36 57.9561 114.822 57.9561 114.822C55.8343 120.066 48.0067 120.851 48.0067 120.851L43.6733 120.289L37.3993 118.608L36.1009 116.823C32.6489 114.959 30.8104 109.629 30.8104 109.629C28.5208 102.614 32.3013 93.1532 32.3013 93.1532L33.9669 90.4924C34.4121 87.2564 44.9857 78.3537 44.9857 78.3537C46.3793 74.3714 55.6355 64.8375 55.6355 64.8375C55.6355 64.8375 57.6611 68.7239 60.7601 65.5969C60.7601 65.5969 65.2817 61.3507 65.3648 58.2937C65.3648 58.2937 65.653 56.0019 63.7794 55.4377L72.7785 44.3323L78.0024 38.4215L82.1999 32.0475L86.5545 24.7292L87.1176 26.2187C87.1176 26.2187 85.3839 31.6864 86.8654 32.9299C86.8654 32.9299 83.2911 39.793 88.2067 40.6904L89.8192 40.5864L89.509 41.5717L87.7504 43.2733L85.8648 45.4189L84.5913 47.4005L83.0227 50.1174L80.998 55.4171Z" fill="#AAD400" stroke="black" stroke-width="0.320521"/>
<path d="M89.0915 41.8692C89.0915 41.8692 82.7975 47.3835 81.0898 55.7286C81.0898 55.7286 78.7809 62.2629 77.3761 64.3792C77.3761 64.3792 79.2702 67.1195 77.4693 69.9219C77.4693 69.9219 80.2702 76.479 74.0611 80.5786C74.0611 80.5786 71.2981 87.5826 71.2132 88.9972C71.2132 88.9972 73.7298 93.1946 71.5016 94.8356C71.5016 94.8356 70.4717 96.6195 70.8041 96.9944C70.8041 96.9944 71.1139 102.479 66.4892 103.834C66.4892 103.834 63.0924 111.936 58.2457 114.627C58.2457 114.627 54.0043 122.607 45.406 120.387C45.406 120.387 37.8417 119.862 35.9688 116.768C35.9688 116.768 28.3848 111.84 30.2836 100.312C30.2836 100.312 31.2203 92.9857 33.9025 90.8751C36.9766 85.7987 40.8486 82.8877 43.3626 77.9206C43.3626 77.9206 46.9098 72.0663 55.9126 64.7946C55.9126 64.7946 55.5123 62.0021 58.0149 60.5196C58.0149 60.5196 59.1241 58.5985 59.9686 58.7201C59.9686 58.7201 62.1445 55.5853 63.7756 55.6122L72.6105 44.4294C72.6105 44.4294 78.1392 38.6562 78.8947 36.7139C78.8947 36.7139 85.0261 27.9954 86.7322 24.4064C86.7322 24.4064 87.2692 20.7827 88.9894 22.8736C88.9894 22.8736 90.6692 27.4113 90.0587 29.8947L90.2405 31.0059C90.2405 31.0059 92.385 34.8971 91.2808 37.9188C91.2857 39.0194 89.0915 41.8692 89.0915 41.8692Z" fill="#ABC837" stroke="black"/>
<path d="M73.8817 72.333C72.7832 74.0772 73.1071 76.3683 73.1071 76.3683C74.2437 79.3116 75.488 75.7304 75.488 75.7304C75.488 75.7304 72.6346 76.5529 74.478 73.0431L75.0799 72.4759L75.5136 69.9818C75.5136 69.9818 74.9774 71.2274 75.2391 69.8234L73.8817 72.333Z" fill="black" stroke="black" stroke-width="0.320521"/>
<path d="M59.3439 64.3969C59.3439 64.3969 57.3457 65.1643 57.589 63.4752L58.2837 61.9551L60.7495 59.9025C60.7495 59.9025 60.4163 61.9057 58.7901 62.9793C58.7901 62.9793 57.6944 64.0849 59.3439 64.3969Z" fill="black" stroke="black" stroke-width="0.320521"/>
<path d="M88.2712 31.8816L89.0358 34.5186C89.0358 34.5186 88.0659 38.2583 89.4205 36.3874L89.9355 35.4955L90.0776 36.6753C90.0776 36.6753 89.4806 38.3432 88.6834 38.6147C88.6834 38.6147 86.8599 37.6535 88.3362 34.938C88.3362 34.938 87.247 32.388 88.2712 31.8816Z" fill="black" stroke="black" stroke-width="0.320521"/>
<path d="M33.6937 100.269C33.6937 100.269 35.8286 93.0849 38.3679 92.1725" stroke="black" stroke-width="0.544886" stroke-linecap="round"/>
<path d="M32.7233 97.5127C32.7233 97.5127 34.5001 95.7026 34.6169 93.7575C34.6169 93.7575 35.5181 89.9782 38.82 89.9634" stroke="black" stroke-width="0.544886" stroke-linecap="round"/>
<path d="M37.8545 88.3084C37.8545 88.3084 39.1242 87.8522 39.707 89.3779" stroke="black" stroke-width="0.544886" stroke-linecap="round"/>
<path d="M38.7549 86.9068C38.7549 86.9068 39.956 86.411 40.6393 87.4458" stroke="black" stroke-width="0.544886" stroke-linecap="round"/>
<path d="M41.2441 86.2399C41.2441 86.2399 41.9408 86.4592 42.8123 84.9497C42.8123 84.9497 42.987 83.221 45.1989 83.0343" stroke="black" stroke-width="0.544886" stroke-linecap="round"/>
<path d="M40.9174 84.5874L42.3377 83.3949C42.3377 83.3949 43.6817 81.7008 44.7427 81.7645" stroke="black" stroke-width="0.544886" stroke-linecap="round"/>
<path d="M45.7195 80.8649L46.3738 81.7915" stroke="black" stroke-width="0.544886" stroke-linecap="round"/>
<path d="M47.4801 80.5093L46.934 79.5537" stroke="black" stroke-width="0.544886" stroke-linecap="round"/>
<path d="M47.9554 79.686L47.7341 78.6434" stroke="black" stroke-width="0.544886" stroke-linecap="round"/>
<path d="M49.3574 78.2085L49.2655 76.7832" stroke="black" stroke-width="0.544886" stroke-linecap="round"/>
<path d="M53.0381 109.783C53.0381 109.783 53.3338 107.366 52.429 106.133" stroke="black" stroke-width="0.544886" stroke-linecap="round"/>
<path d="M44.7267 117.792C44.7267 117.792 47.5487 117.611 48.491 118.219C48.491 118.219 53.5211 116.789 54.2589 114.951" stroke="black" stroke-width="0.544886" stroke-linecap="round"/>
<path d="M51.1719 115.368C51.1719 115.368 54.5785 113.389 50.7808 112.684" stroke="black" stroke-width="0.544886" stroke-linecap="round"/>
<path d="M45.498 116.233C45.498 116.233 47.0955 116.379 47.2431 116.011C47.2431 116.011 48.3679 117.76 49.5744 115.222" stroke="black" stroke-width="0.544886" stroke-linecap="round"/>
<path d="M54.292 110.636C54.292 110.636 58.811 108.523 57.4511 106.509" stroke="black" stroke-width="0.544886" stroke-linecap="round"/>
<path d="M54.4705 112.68C54.4705 112.68 58.3999 110.356 58.652 109.919C58.652 109.919 61.9116 106.626 61.7576 103.756" stroke="black" stroke-width="0.544886" stroke-linecap="round"/>
<path d="M56.204 113.487C56.204 113.487 59.2821 111.965 60.5555 109.983C60.5555 109.983 63.11 105.895 63.3176 104.527" stroke="black" stroke-width="0.544886" stroke-linecap="round"/>
<path d="M66.4892 103.834C66.4892 103.834 62.9445 104.053 63.5488 99.4212L64.3036 96.8814C64.3036 96.8814 66.9086 86.0949 72.2127 91.8094" stroke="black" stroke-width="0.544886" stroke-linecap="round"/>
<path d="M70.376 98.5756L69.1146 97.8474C69.1146 97.8474 67.2374 102.779 66.2641 99.7594C66.2641 99.7594 66.1451 98.397 67.0189 97.2196C67.0189 97.2196 65.8961 95.0189 68.9707 92.7187" stroke="black" stroke-width="0.544886" stroke-linecap="round"/>
<path d="M70.8042 96.9941L69.6249 95.6192" stroke="black" stroke-width="0.544886" stroke-linecap="round"/>
<path d="M59.1978 101.243C59.1978 101.243 60.0116 101.066 60.4947 101.798" stroke="black" stroke-width="0.544886" stroke-linecap="round"/>
<path d="M58.8366 104.334C58.8366 104.334 59.8779 104.547 59.7414 105.567" stroke="black" stroke-width="0.544886" stroke-linecap="round"/>
<path d="M60.7604 99.8812C60.7604 99.8812 61.9343 99.9768 61.7957 101.449" stroke="black" stroke-width="0.544886" stroke-linecap="round"/>
<path d="M60.5203 97.6079C60.5203 97.6079 61.2281 96.27 60.6124 95.6558C60.6124 95.6558 61.8668 94.8275 61.0796 93.7262" stroke="black" stroke-width="0.544886" stroke-linecap="round"/>
<path d="M63.4548 95.5503L62.8856 95.4157C62.8856 95.4157 64.8359 89.6849 66.8946 89.2563C66.8946 89.2563 68.4811 88.7492 68.9738 88.9043C68.9738 88.9043 70.0982 86.0604 70.1282 85.5602C70.1282 85.5602 71.3387 82.1191 71.3332 81.7925" stroke="black" stroke-width="0.544886" stroke-linecap="round"/>
<path d="M63.559 90.8882C63.559 90.8882 64.943 87.4826 68.043 87.2671C68.043 87.2671 69.402 86.3699 67.4819 85.326C67.4819 85.326 70.6044 84.7353 68.1937 83.0847" stroke="black" stroke-width="0.544886" stroke-linecap="round"/>
<path d="M67.9551 82.0414C67.9551 82.0414 69.256 81.6928 70.1628 82.4751" stroke="black" stroke-width="0.544886" stroke-linecap="round"/>
<path d="M67.8511 80.4287C67.8511 80.4287 69.3836 79.567 70.2289 80.1197" stroke="black" stroke-width="0.544886" stroke-linecap="round"/>
<path d="M68.0327 78.6577L69.3137 76.551C69.3137 76.551 68.2154 73.5236 70.6742 70.6092" stroke="black" stroke-width="0.544886" stroke-linecap="round"/>
<path d="M77.873 75.283C77.0732 78.5731 74.0612 80.5786 74.0612 80.5786C70.7716 80.936 70.5251 76.0216 70.5251 76.0216L72.4674 72.0974L72.8595 71.4182C72.8595 71.4182 72.9376 66.3531 75.4425 65.5999C75.4425 65.5999 77.4211 64.4135 78.1518 67.2935" stroke="black" stroke-width="0.544886" stroke-linecap="round"/>
<path d="M75.6654 68.5747C74.644 70.1196 74.498 71.7171 74.498 71.7171C72.7859 73.8983 72.9179 75.4623 72.9179 75.4623C73.7375 80.2049 75.6763 75.5024 75.6763 75.5024C75.6763 75.5024 73.3095 76.4647 74.1388 74.356C74.1388 74.356 74.2419 73.0571 75.1137 72.3314C75.1137 72.3314 75.1197 70.9764 75.6669 69.8046" stroke="black" stroke-width="0.544886" stroke-linecap="round"/>
<path d="M71.0459 69.8535C71.0459 69.8535 72.4625 63.8146 75.7081 63.6831C75.7081 63.6831 75.8357 61.5574 76.3808 60.8372" stroke="black" stroke-width="0.544886" stroke-linecap="round"/>
<path d="M69.5139 69.0337L69.9771 68.0074" stroke="black" stroke-width="0.544886" stroke-linecap="round"/>
<path d="M70.3843 67.0781C70.3843 67.0781 71.5872 63.7621 73.2558 63.561" stroke="black" stroke-width="0.544886" stroke-linecap="round"/>
<path d="M73.2617 62.2061L74.5832 61.934C74.5832 61.934 74.7748 57.9047 76.2854 55.7365" stroke="black" stroke-width="0.544886" stroke-linecap="round"/>
<path d="M66.5398 55.026C66.5398 55.026 67.3305 56.9057 67.3825 57.7119" stroke="black" stroke-width="0.544886" stroke-linecap="round"/>
<path d="M67.8242 53.6979C67.8242 53.6979 68.6654 55.1539 68.753 55.7866" stroke="black" stroke-width="0.544886" stroke-linecap="round"/>
<path d="M55.9126 64.7946C55.9126 64.7946 57.0899 69.041 61.1427 65.4945C61.1427 65.4945 68.9129 57.5257 63.7756 55.6122" stroke="black" stroke-width="0.544886" stroke-linecap="round"/>
<path d="M69.6274 52.9277L69.1818 51.5708L71.4186 48.5929L71.9372 49.151" stroke="black" stroke-width="0.544886" stroke-linecap="round"/>
<path d="M61.311 58.9288C60.7507 59.8991 59.3488 61.095 59.3488 61.095C57.9898 61.9922 57.5881 63.2481 57.5881 63.2481C57.1614 65.9768 59.9189 64.141 59.9189 64.141C59.9189 64.141 57.7632 64.5135 58.4709 63.1756C58.4709 63.1756 60.2761 61.9538 60.9448 60.0112" stroke="black" stroke-width="0.544886" stroke-linecap="round"/>
<path d="M63.4837 57.8546C64.411 58.7134 62.9995 60.486 62.9995 60.486L62.5274 60.4074L61.2314 62.7642L61.1814 61.5062C61.1814 61.5062 62.6004 59.6086 62.7425 58.9144" stroke="black" stroke-width="0.544886" stroke-linecap="round"/>
<path d="M76.5959 59.3442L78.9938 54.5187L78.4062 53.856" stroke="black" stroke-width="0.544886" stroke-linecap="round"/>
<path d="M75.5897 54.3647L76.5701 52.6667L78.9909 52.0591L79.6066 52.6733" stroke="black" stroke-width="0.544886" stroke-linecap="round"/>
<path d="M80.1688 51.251C80.1688 51.251 84.6135 42.4322 86.9652 41.72" stroke="black" stroke-width="0.544886" stroke-linecap="round"/>
<path d="M78.3402 49.9365C78.3402 49.9365 79.352 48.9682 80.1843 49.3194" stroke="black" stroke-width="0.544886" stroke-linecap="round"/>
<path d="M80.1548 48.1382L83.5981 42.6225" stroke="black" stroke-width="0.544886" stroke-linecap="round"/>
<path d="M74.2334 46.854L73.9744 45.7341" stroke="black" stroke-width="0.544886" stroke-linecap="round"/>
<path d="M73.0891 47.9399L72.6975 46.9376" stroke="black" stroke-width="0.544886" stroke-linecap="round"/>
<path d="M75.3054 44.8857C75.3054 44.8857 77.8598 40.7975 78.7166 40.3218" stroke="black" stroke-width="0.544886" stroke-linecap="round"/>
<path d="M86.7322 24.4065L86.9926 26.2114C86.9926 26.2114 85.3989 31.4365 86.6713 32.818C86.6713 32.818 83.9073 38.7259 87.2343 40.5821C87.2343 40.5821 89.2665 41.4319 90.3009 40.0885" stroke="black" stroke-width="0.544886" stroke-linecap="round"/>
<path d="M88.0408 27.981C88.3559 29.0038 87.8272 30.7039 87.8272 30.7039C86.9084 32.6314 88.4978 34.5841 88.4978 34.5841L88.3503 34.9517C87.0823 37.26 87.9741 38.2923 87.9741 38.2923C89.2875 39.8268 90.0313 36.6338 90.0313 36.6338L89.9178 35.598L89.2175 36.8109C89.2175 36.8109 87.8736 37.458 89.1511 34.5732C89.1511 34.5732 87.8172 32.9621 88.2618 31.4076" stroke="black" stroke-width="0.544886" stroke-linecap="round"/>
<path d="M61.0913 74.4184C64.8842 69.4607 68.4587 64.357 71.5335 58.9723C71.9217 58.3634 73.3937 55.6601 72.3973 57.5864C69.7492 62.9045 64.5821 72.9292 64.5821 72.9292C62.4243 76.7437 61.6735 80.7472 59.6318 84.6208C58.3944 87.1956 57.1647 89.7637 55.5519 92.1445C53.145 96.616 52.2678 100.852 49.7133 105.247C47.7368 106.853 45.8781 112.434 41.9106 110.509C38.3016 107.123 41.6143 106.534 42.0953 104.786C43.6654 101.997 45.8725 97.4035 46.6592 95.923C47.8662 95.2569 56.5449 81.6637 61.0913 74.4184Z" fill="#FCE94F"/>
<path d="M161.183 78.6279C162.818 81.6178 167.203 85.4897 167.203 85.4897C170.335 87.1119 171.507 84.4682 171.507 84.4682C171.507 84.4682 172.501 80.3267 168.787 78.1716L166.815 76.6572L165.605 74.2452L164.098 73.3773L161.715 74.4787L160.623 76.39L161.183 78.6279Z" fill="#FFDD55" stroke="black" stroke-width="0.320521"/>
<path d="M150.749 59.1292C154.795 60.9094 155.124 66.3913 155.124 66.3913C153.779 68.8147 149.822 67.3485 149.822 67.3485L149.152 66.8208L146.569 62.823C146.569 62.823 142.607 60.0793 142.812 57.5824C142.812 57.5824 142.853 55.9117 145.123 55.8819C145.123 55.8819 146.332 55.9158 147.51 57.7973L150.749 59.1292Z" fill="#FFDD55" stroke="black" stroke-width="0.320521"/>
<path d="M134.054 66.0233C135.945 69.1398 135.732 72.0986 135.732 72.0986C135.732 72.0986 135.361 74.783 132.302 74.0792C132.302 74.0792 129.878 72.7339 129.733 70.897L129.59 69.6988L128.996 68.6696L129.217 67.627C129.217 67.627 127.233 63.5577 128.898 62.322C128.898 62.322 131.091 60.4156 134.054 66.0233Z" fill="#FFDD55" stroke="black" stroke-width="0.320521"/>
<path d="M121.03 27.6195C126.472 27.2219 128.313 32.471 128.313 32.471C128.918 33.677 126.625 35.0924 126.625 35.0924C122.936 36.3077 120.192 31.3967 120.192 31.3967C118.506 32.2788 114.635 28.1099 114.635 28.1099C114.635 28.1099 111.414 26.4929 111.498 25.5295C111.498 25.5295 111.525 24.7826 112.535 24.4735L114.689 24.8766L116.875 25.8102L119.652 27.1343L121.03 27.6195Z" fill="#FFDD55" stroke="black" stroke-width="0.320521"/>
<path d="M136.831 47.695C139.534 49.2394 142.563 55.3823 142.563 55.3823L145.102 55.8574C144.111 56.4378 143.807 55.5834 142.561 57.8421C142.652 58.1492 142.936 58.4 142.986 58.7577C143.167 60.0414 144.591 61.148 146.476 62.7469C147.12 63.2934 147.617 64.5095 148.339 65.6413C148.745 66.2769 149.129 67.0535 149.836 67.3349C151.212 67.8826 152.003 68.1421 153.139 67.9837C154.64 67.7744 155.273 66.4156 155.273 66.4156L160.93 72.8526L163.976 73.4227L161.535 74.5731C159.542 76.4998 162.059 79.9629 162.059 79.9629L164.128 82.6497L166.111 84.7393C169.736 87.4331 171.321 84.5771 171.321 84.5771C176.698 90.529 176.757 97.3522 176.757 97.3522C180.237 101.812 177.003 108.983 177.003 108.983L174.35 112.455L169.757 117.048L167.562 117.28C164.222 119.338 158.686 118.264 158.686 118.264C151.467 116.74 145.164 108.736 145.164 108.736L143.692 105.963C141.112 103.959 138.689 90.3508 138.689 90.3508C135.937 87.1528 132.309 74.3697 132.309 74.3697C132.309 74.3697 136.687 74.5587 135.529 70.3114C135.529 70.3114 134.112 64.2724 131.506 62.672C131.506 62.672 129.665 61.2765 128.24 62.617L123.122 49.2708L120.615 41.7914L117.194 34.9692L113.033 27.539L114.605 27.796C114.605 27.796 118.473 32.0313 120.291 31.37C120.291 31.37 124.447 37.897 127.682 34.0887L128.398 32.6403L129.097 33.4015L129.691 35.7752L130.606 38.4811L131.686 40.5748L133.254 43.2916L136.831 47.695Z" fill="#AAD400" stroke="black" stroke-width="0.320521"/>
<path d="M129.145 33.9114C129.145 33.9114 130.774 42.1193 137.147 47.7708C137.147 47.7708 141.651 53.0375 142.782 55.3122C142.782 55.3122 146.102 55.042 147.629 58.0028C147.629 58.0028 154.708 58.8557 155.153 66.2827C155.153 66.2827 159.838 72.1776 161.02 72.9585C161.02 72.9585 165.914 72.8777 166.221 75.6278C166.221 75.6278 167.251 77.4117 167.741 77.3113C167.741 77.3113 172.646 79.7854 171.507 84.468C171.507 84.468 176.825 91.4606 176.732 97.0033C176.732 97.0033 181.522 104.666 175.301 111.003C175.301 111.003 171.064 117.291 167.448 117.366C167.448 117.366 159.389 121.471 150.355 114.062C150.355 114.062 144.478 109.588 143.991 106.209C141.132 101.009 140.547 96.2003 137.502 91.5394C137.502 91.5394 134.206 85.5403 132.41 74.1078C132.41 74.1078 129.791 73.0582 129.759 70.1497C129.759 70.1497 128.65 68.2286 129.177 67.558C129.177 67.558 127.55 64.1062 128.389 62.7071L123.122 49.4644C123.122 49.4644 120.887 41.7899 119.582 40.1644C119.582 40.1644 115.098 30.4952 112.842 27.2232C112.842 27.2232 109.973 24.9463 112.644 24.502C112.644 24.502 117.413 25.3161 119.259 27.0865L120.312 27.4847C120.312 27.4847 124.754 27.573 126.819 30.0402C127.774 30.5862 129.145 33.9114 129.145 33.9114Z" fill="#FF0000" stroke="black"/>
<path d="M147.923 62.3154C148.884 64.1389 151.03 65.0039 151.03 65.0039C154.148 65.4912 151.668 62.623 151.668 62.623C151.668 62.623 150.954 65.5055 148.836 62.1541L148.646 61.3492L146.703 59.7266C146.703 59.7266 147.513 60.8138 146.428 59.885L147.923 62.3154Z" fill="black" stroke="black" stroke-width="0.320521"/>
<path d="M133.781 70.9375C133.781 70.9375 133.447 73.0517 132.106 71.9964L131.137 70.6348L130.592 67.473C130.592 67.473 132.16 68.7632 132.277 70.7083C132.277 70.7083 132.686 72.21 133.781 70.9375Z" fill="black" stroke="black" stroke-width="0.320521"/>
<path d="M120.086 29.6282L122.752 30.2845C122.752 30.2845 125.505 32.9943 124.562 30.8857L124.048 29.9938L125.14 30.4606C125.14 30.4606 126.286 31.8116 126.123 32.6378C126.123 32.6378 124.379 33.7363 122.765 31.1001C122.765 31.1001 120.012 30.7684 120.086 29.6282Z" fill="black" stroke="black" stroke-width="0.320521"/>
<path d="M152.022 111.087C152.022 111.087 146.868 105.647 147.347 102.991" stroke="black" stroke-width="0.544886" stroke-linecap="round"/>
<path d="M149.15 110.55C149.15 110.55 148.471 108.106 146.845 107.032C146.845 107.032 144.022 104.362 145.66 101.495" stroke="black" stroke-width="0.544886" stroke-linecap="round"/>
<path d="M143.744 101.504C143.744 101.504 143.984 100.176 145.597 100.434" stroke="black" stroke-width="0.544886" stroke-linecap="round"/>
<path d="M142.981 100.023C142.981 100.023 143.152 98.7349 144.39 98.6606" stroke="black" stroke-width="0.544886" stroke-linecap="round"/>
<path d="M143.648 97.534C143.648 97.534 144.186 97.0403 143.315 95.5308C143.315 95.5308 141.905 94.5151 142.849 92.5062" stroke="black" stroke-width="0.544886" stroke-linecap="round"/>
<path d="M142.054 96.9907L141.731 95.1644C141.731 95.1644 140.936 93.1535 141.522 92.2664" stroke="black" stroke-width="0.544886" stroke-linecap="round"/>
<path d="M141.231 90.9708L142.36 90.8675" stroke="black" stroke-width="0.544886" stroke-linecap="round"/>
<path d="M141.803 89.2683L140.702 89.2634" stroke="black" stroke-width="0.544886" stroke-linecap="round"/>
<path d="M141.328 88.445L140.314 88.1154" stroke="black" stroke-width="0.544886" stroke-linecap="round"/>
<path d="M140.749 86.4917L139.469 85.8586" stroke="black" stroke-width="0.544886" stroke-linecap="round"/>
<path d="M169.934 99.0916C169.934 99.0916 167.989 97.6272 166.468 97.7938" stroke="black" stroke-width="0.544886" stroke-linecap="round"/>
<path d="M172.715 110.294C172.715 110.294 173.968 107.76 174.966 107.248C174.966 107.248 176.243 102.177 175.02 100.619" stroke="black" stroke-width="0.544886" stroke-linecap="round"/>
<path d="M173.838 103.501C173.838 103.501 173.827 99.5609 171.318 102.497" stroke="black" stroke-width="0.544886" stroke-linecap="round"/>
<path d="M171.749 108.846C171.749 108.846 172.675 107.536 172.43 107.224C172.43 107.224 174.507 107.125 172.913 104.811" stroke="black" stroke-width="0.544886" stroke-linecap="round"/>
<path d="M171.3 98.4326C171.3 98.4326 171.729 93.4625 169.305 93.6331" stroke="black" stroke-width="0.544886" stroke-linecap="round"/>
<path d="M173.159 99.2998C173.159 99.2998 173.111 94.7348 172.859 94.2982C172.859 94.2982 171.637 89.8288 169.074 88.5269" stroke="black" stroke-width="0.544886" stroke-linecap="round"/>
<path d="M174.724 98.2017C174.724 98.2017 174.945 94.7751 173.866 92.6814C173.866 92.6814 171.603 88.4251 170.522 87.5613" stroke="black" stroke-width="0.544886" stroke-linecap="round"/>
<path d="M171.508 84.4683C171.508 84.4683 169.925 87.6476 166.215 84.8083L164.393 82.8847C164.393 82.8847 156.354 75.2354 163.955 73.4991" stroke="black" stroke-width="0.544886" stroke-linecap="round"/>
<path d="M168.897 78.4731L167.636 79.2013C167.636 79.2013 170.968 83.2931 167.866 82.626C167.866 82.626 166.627 82.0478 166.044 80.7024C166.044 80.7024 163.577 80.5744 163.122 76.7617" stroke="black" stroke-width="0.544886" stroke-linecap="round"/>
<path d="M167.742 77.3117L165.961 77.6456" stroke="black" stroke-width="0.544886" stroke-linecap="round"/>
<path d="M165.618 89.4873C165.618 89.4873 165.871 88.694 166.747 88.6415" stroke="black" stroke-width="0.544886" stroke-linecap="round"/>
<path d="M168.114 91.3455C168.114 91.3455 168.819 90.5502 169.635 91.1789" stroke="black" stroke-width="0.544886" stroke-linecap="round"/>
<path d="M165.22 87.4528C165.22 87.4528 165.889 86.484 167.095 87.3402" stroke="black" stroke-width="0.544886" stroke-linecap="round"/>
<path d="M163.131 86.5244C163.131 86.5244 162.326 85.2425 161.486 85.4686C161.486 85.4686 161.396 83.9682 160.049 84.0992" stroke="black" stroke-width="0.544886" stroke-linecap="round"/>
<path d="M162.816 82.9543L162.415 83.38C162.415 83.38 158.427 78.8256 159.085 76.8284C159.085 76.8284 159.439 75.2009 159.82 74.8518C159.82 74.8518 157.919 72.456 157.501 72.18C157.501 72.18 155.126 69.4111 154.841 69.2526" stroke="black" stroke-width="0.544886" stroke-linecap="round"/>
<path d="M158.831 80.5327C158.831 80.5327 156.574 77.6313 157.937 74.8388C157.937 74.8388 157.839 73.2133 155.975 74.3543C155.975 74.3543 157.025 71.3547 154.39 72.6172" stroke="black" stroke-width="0.544886" stroke-linecap="round"/>
<path d="M153.367 72.3022C153.367 72.3022 153.716 71.0013 154.847 70.6071" stroke="black" stroke-width="0.544886" stroke-linecap="round"/>
<path d="M151.919 71.5859C151.919 71.5859 151.939 69.8279 152.84 69.3722" stroke="black" stroke-width="0.544886" stroke-linecap="round"/>
<path d="M150.476 70.5435L149.292 68.3808C149.292 68.3808 146.121 67.8182 144.826 64.2315" stroke="black" stroke-width="0.544886" stroke-linecap="round"/>
<path d="M152.473 60.334C154.923 62.6717 155.153 66.2829 155.153 66.2829C153.818 69.3105 149.439 67.0667 149.439 67.0667L147.012 63.4226L146.619 62.7434C146.619 62.7434 142.272 60.1432 142.872 57.5973C142.872 57.5973 142.834 55.2906 145.693 56.0978" stroke="black" stroke-width="0.544886" stroke-linecap="round"/>
<path d="M145.56 58.8919C146.387 60.549 147.698 61.4742 147.698 61.4742C148.731 64.0475 150.151 64.7152 150.151 64.7152C154.668 66.3767 151.565 62.3464 151.565 62.3464C151.565 62.3464 151.215 64.8772 149.803 63.1047C149.803 63.1047 148.73 62.366 148.538 61.2481C148.538 61.2481 147.367 60.5654 146.626 59.5056" stroke="black" stroke-width="0.544886" stroke-linecap="round"/>
<path d="M144.358 63.5317C144.358 63.5317 139.836 59.2855 141.345 56.409C141.345 56.409 139.568 55.2356 139.217 54.4034" stroke="black" stroke-width="0.544886" stroke-linecap="round"/>
<path d="M142.882 64.4487L142.225 63.5344" stroke="black" stroke-width="0.544886" stroke-linecap="round"/>
<path d="M141.623 62.7168C141.623 62.7168 139.353 60.017 140.013 58.4714" stroke="black" stroke-width="0.544886" stroke-linecap="round"/>
<path d="M138.843 57.7891L139.268 56.5086C139.268 56.5086 135.874 54.328 134.752 51.9357" stroke="black" stroke-width="0.544886" stroke-linecap="round"/>
<path d="M129.264 60.0203C129.264 60.0203 131.287 60.2754 132.011 60.6335" stroke="black" stroke-width="0.544886" stroke-linecap="round"/>
<path d="M128.756 58.2437C128.756 58.2437 130.437 58.2432 131.029 58.4838" stroke="black" stroke-width="0.544886" stroke-linecap="round"/>
<path d="M132.41 74.108C132.41 74.108 136.676 75.2117 135.631 69.9285C135.631 69.9285 132.615 59.215 128.389 62.7072" stroke="black" stroke-width="0.544886" stroke-linecap="round"/>
<path d="M128.99 56.2972L127.592 56.0046L126.132 52.5785L126.874 52.4085" stroke="black" stroke-width="0.544886" stroke-linecap="round"/>
<path d="M130.029 66.4998C130.589 67.4701 130.924 69.2822 130.924 69.2822C131.022 70.9077 131.908 71.8835 131.908 71.8835C134.058 73.6174 133.847 70.3115 133.847 70.3115C133.847 70.3115 133.092 72.3647 132.287 71.0828C132.287 71.0828 132.131 68.9086 130.783 67.3581" stroke="black" stroke-width="0.544886" stroke-linecap="round"/>
<path d="M130.185 64.0811C131.392 63.7075 132.222 65.8161 132.222 65.8161L131.918 66.1858L133.311 68.4865L132.196 67.9008C132.196 67.9008 131.263 65.7231 130.732 65.253" stroke="black" stroke-width="0.544886" stroke-linecap="round"/>
<path d="M138.031 53.4707L135.051 48.9813L134.184 49.1589" stroke="black" stroke-width="0.544886" stroke-linecap="round"/>
<path d="M133.216 51.8521L132.235 50.154L132.92 47.7537L133.759 47.5276" stroke="black" stroke-width="0.544886" stroke-linecap="round"/>
<path d="M132.809 46.3301C132.809 46.3301 127.394 38.0715 127.953 35.6787" stroke="black" stroke-width="0.544886" stroke-linecap="round"/>
<path d="M130.756 47.2563C130.756 47.2563 130.424 45.8959 131.144 45.3507" stroke="black" stroke-width="0.544886" stroke-linecap="round"/>
<path d="M130.106 44.7856L127.051 39.0458" stroke="black" stroke-width="0.544886" stroke-linecap="round"/>
<path d="M126.033 49.2717L124.934 48.9361" stroke="black" stroke-width="0.544886" stroke-linecap="round"/>
<path d="M126.402 50.8054L125.338 50.6434" stroke="black" stroke-width="0.544886" stroke-linecap="round"/>
<path d="M124.865 47.3589C124.865 47.3589 122.601 43.1026 122.618 42.1227" stroke="black" stroke-width="0.544886" stroke-linecap="round"/>
<path d="M112.842 27.2232L114.536 27.9002C114.536 27.9002 118.264 31.8929 120.097 31.4817C120.097 31.4817 123.831 36.8294 127.102 34.8762C127.102 34.8762 128.854 33.5412 128.208 31.9737" stroke="black" stroke-width="0.544886" stroke-linecap="round"/>
<path d="M116.592 27.8774C117.636 28.116 118.844 29.4239 118.844 29.4239C120.054 31.1834 122.539 30.7832 122.539 30.7832L122.784 31.0948C124.149 33.347 125.489 33.0909 125.489 33.0909C127.475 32.7207 125.081 30.4801 125.081 30.4801L124.127 30.0605L124.828 31.2733C124.828 31.2733 124.716 32.7608 122.857 30.212C122.857 30.212 120.794 30.5617 119.67 29.3993" stroke="black" stroke-width="0.544886" stroke-linecap="round"/>
<path d="M143.334 74.4353C140.937 68.6717 138.304 63.0243 135.178 57.669C134.845 57.0283 133.24 54.402 134.41 56.228C137.691 61.1803 143.79 70.6675 143.79 70.6675C146.014 74.4435 149.106 77.0955 151.44 80.8004C153.051 83.1594 154.66 85.5085 155.915 88.0955C158.584 92.4158 161.814 95.2934 164.343 99.7033C164.746 102.218 168.65 106.618 164.999 109.092C160.262 110.524 161.408 107.361 160.135 106.07C158.505 103.316 155.63 99.1076 154.741 97.6861C154.768 96.3078 147.335 81.9952 143.334 74.4353Z" fill="#FCE94F"/>
<path d="M142.086 225.015C143.858 222.104 145.018 216.371 145.018 216.371C144.857 212.847 141.981 213.154 141.981 213.154C141.981 213.154 137.898 214.364 137.888 218.658L137.563 221.123L136.079 223.377L136.081 225.116L138.226 226.629L140.428 226.619L142.086 225.015Z" fill="#FFDD55" stroke="black" stroke-width="0.320521"/>
<path d="M130.416 243.801C129.935 239.406 134.518 236.38 134.518 236.38C137.289 236.334 137.998 240.494 137.998 240.494L137.876 241.338L135.705 245.574C135.705 245.574 135.31 250.377 133.045 251.448C133.045 251.448 131.577 252.247 130.417 250.296C130.417 250.296 129.842 249.232 130.882 247.272L130.416 243.801Z" fill="#FFDD55" stroke="black" stroke-width="0.320521"/>
<path d="M144.734 254.812C146.487 251.616 149.156 250.321 149.156 250.321C149.156 250.321 151.667 249.3 152.587 252.302C152.587 252.302 152.633 255.073 151.115 256.118L150.149 256.841L149.555 257.87L148.541 258.199C148.541 258.199 146.009 261.952 144.106 261.128C144.106 261.128 141.359 260.182 144.734 254.812Z" fill="#FFDD55" stroke="black" stroke-width="0.320521"/>
<path d="M117.987 285.293C114.922 280.779 118.547 276.56 118.547 276.56C119.289 275.433 121.661 276.711 121.661 276.711C124.559 279.299 121.678 284.13 121.678 284.13C123.285 285.15 121.609 290.586 121.609 290.586C121.609 290.586 121.819 294.184 120.943 294.592C120.943 294.592 120.283 294.943 119.51 294.222L118.782 292.156L118.498 289.796L118.256 286.729L117.987 285.293Z" fill="#FFDD55" stroke="black" stroke-width="0.320521"/>
<path d="M127.472 261.571C127.459 258.458 131.264 252.763 131.264 252.763L130.406 250.327C131.404 250.895 130.816 251.585 133.396 251.536C133.616 251.303 133.691 250.931 133.976 250.709C134.997 249.911 135.243 248.124 135.686 245.693C135.837 244.862 136.642 243.823 137.261 242.631C137.608 241.962 138.088 241.241 137.979 240.488C137.765 239.023 137.595 238.208 136.889 237.303C135.957 236.108 134.464 236.24 134.464 236.24L137.21 228.122L136.181 225.199L138.398 226.738C141.063 227.5 142.803 223.589 142.803 223.589L144.096 220.454L144.914 217.692C145.434 213.205 142.168 213.26 142.168 213.26C144.634 205.628 150.514 202.166 150.514 202.166C152.636 196.922 160.464 196.137 160.464 196.137L164.797 196.698L171.071 198.38L172.37 200.165C175.822 202.028 177.66 207.359 177.66 207.359C179.95 214.374 176.169 223.835 176.169 223.835L174.504 226.495C174.058 229.731 163.485 238.634 163.485 238.634C162.091 242.616 152.835 252.15 152.835 252.15C152.835 252.15 150.809 248.264 147.71 251.391C147.71 251.391 143.189 255.637 143.106 258.694C143.106 258.694 142.817 260.986 144.691 261.55L135.692 272.656L130.468 278.566L126.271 284.94L121.916 292.259L121.353 290.769C121.353 290.769 123.087 285.301 121.605 284.058C121.605 284.058 125.179 277.195 120.264 276.297L118.651 276.401L118.961 275.416L120.72 273.715L122.606 271.569L123.879 269.587L125.448 266.87L127.472 261.571Z" fill="#AAD400" stroke="black" stroke-width="0.320521"/>
<path d="M119.379 275.119C119.379 275.119 125.673 269.604 127.381 261.259C127.381 261.259 129.69 254.725 131.094 252.609C131.094 252.609 129.2 249.868 131.001 247.066C131.001 247.066 128.2 240.509 134.409 236.409C134.409 236.409 137.172 229.405 137.257 227.991C137.257 227.991 134.741 223.793 136.969 222.152C136.969 222.152 137.999 220.368 137.666 219.993C137.666 219.993 137.357 214.509 141.981 213.154C141.981 213.154 145.378 205.052 150.225 202.361C150.225 202.361 154.466 194.381 163.064 196.601C163.064 196.601 170.629 197.126 172.502 200.22C172.502 200.22 180.086 205.147 178.187 216.676C178.187 216.676 177.25 224.002 174.568 226.113C171.494 231.189 167.622 234.1 165.108 239.067C165.108 239.067 161.561 244.922 152.558 252.193C152.558 252.193 152.958 254.986 150.455 256.468C150.455 256.468 149.346 258.389 148.502 258.268C148.502 258.268 146.326 261.403 144.695 261.376L135.86 272.558C135.86 272.558 130.331 278.332 129.576 280.274C129.576 280.274 123.444 288.992 121.738 292.581C121.738 292.581 121.201 296.205 119.481 294.114C119.481 294.114 117.801 289.577 118.412 287.093L118.23 285.982C118.23 285.982 116.085 282.091 117.19 279.069C117.185 277.968 119.379 275.119 119.379 275.119Z" fill="#ABC837" stroke="black"/>
<path d="M134.589 244.655C135.687 242.911 135.363 240.619 135.363 240.619C134.227 237.676 132.982 241.257 132.982 241.257C132.982 241.257 135.836 240.435 133.992 243.945L133.391 244.512L132.957 247.006C132.957 247.006 133.493 245.76 133.231 247.164L134.589 244.655Z" fill="black" stroke="black" stroke-width="0.320521"/>
<path d="M149.126 252.591C149.126 252.591 151.125 251.824 150.881 253.513L150.187 255.033L147.721 257.085C147.721 257.085 148.054 255.082 149.68 254.008C149.68 254.008 150.776 252.903 149.126 252.591Z" fill="black" stroke="black" stroke-width="0.320521"/>
<path d="M120.199 285.106L119.435 282.469C119.435 282.469 120.404 278.73 119.05 280.6L118.535 281.492L118.393 280.313C118.393 280.313 118.99 278.645 119.787 278.373C119.787 278.373 121.61 279.334 120.134 282.05C120.134 282.05 121.223 284.6 120.199 285.106Z" fill="black" stroke="black" stroke-width="0.320521"/>
<path d="M174.777 216.719C174.777 216.719 172.642 223.903 170.102 224.815" stroke="black" stroke-width="0.544886" stroke-linecap="round"/>
<path d="M175.747 219.475C175.747 219.475 173.97 221.285 173.854 223.23C173.854 223.23 172.952 227.01 169.65 227.024" stroke="black" stroke-width="0.544886" stroke-linecap="round"/>
<path d="M170.616 228.679C170.616 228.679 169.346 229.136 168.763 227.61" stroke="black" stroke-width="0.544886" stroke-linecap="round"/>
<path d="M169.715 230.081C169.715 230.081 168.514 230.577 167.831 229.542" stroke="black" stroke-width="0.544886" stroke-linecap="round"/>
<path d="M167.226 230.748C167.226 230.748 166.53 230.529 165.658 232.038C165.658 232.038 165.483 233.767 163.272 233.953" stroke="black" stroke-width="0.544886" stroke-linecap="round"/>
<path d="M167.553 232.4L166.133 233.593C166.133 233.593 164.789 235.287 163.728 235.223" stroke="black" stroke-width="0.544886" stroke-linecap="round"/>
<path d="M162.751 236.123L162.097 235.196" stroke="black" stroke-width="0.544886" stroke-linecap="round"/>
<path d="M160.99 236.479L161.536 237.434" stroke="black" stroke-width="0.544886" stroke-linecap="round"/>
<path d="M160.515 237.302L160.736 238.344" stroke="black" stroke-width="0.544886" stroke-linecap="round"/>
<path d="M159.113 238.779L159.205 240.205" stroke="black" stroke-width="0.544886" stroke-linecap="round"/>
<path d="M155.432 207.205C155.432 207.205 155.137 209.621 156.041 210.855" stroke="black" stroke-width="0.544886" stroke-linecap="round"/>
<path d="M163.744 199.195C163.744 199.195 160.922 199.377 159.979 198.769C159.979 198.769 154.949 200.198 154.211 202.036" stroke="black" stroke-width="0.544886" stroke-linecap="round"/>
<path d="M157.299 201.62C157.299 201.62 153.892 203.599 157.69 204.304" stroke="black" stroke-width="0.544886" stroke-linecap="round"/>
<path d="M162.972 200.755C162.972 200.755 161.375 200.609 161.227 200.977C161.227 200.977 160.103 199.228 158.896 201.765" stroke="black" stroke-width="0.544886" stroke-linecap="round"/>
<path d="M154.178 206.352C154.178 206.352 149.659 208.465 151.019 210.479" stroke="black" stroke-width="0.544886" stroke-linecap="round"/>
<path d="M154 204.308C154 204.308 150.071 206.632 149.818 207.068C149.818 207.068 146.559 210.361 146.713 213.232" stroke="black" stroke-width="0.544886" stroke-linecap="round"/>
<path d="M152.266 203.501C152.266 203.501 149.188 205.023 147.915 207.004C147.915 207.004 145.36 211.093 145.153 212.461" stroke="black" stroke-width="0.544886" stroke-linecap="round"/>
<path d="M141.981 213.153C141.981 213.153 145.526 212.935 144.922 217.567L144.167 220.106C144.167 220.106 141.562 230.893 136.258 225.178" stroke="black" stroke-width="0.544886" stroke-linecap="round"/>
<path d="M138.094 218.412L139.356 219.14C139.356 219.14 141.233 214.208 142.206 217.228C142.206 217.228 142.325 218.591 141.451 219.768C141.451 219.768 142.574 221.969 139.5 224.269" stroke="black" stroke-width="0.544886" stroke-linecap="round"/>
<path d="M137.666 219.994L138.846 221.369" stroke="black" stroke-width="0.544886" stroke-linecap="round"/>
<path d="M149.273 215.745C149.273 215.745 148.459 215.922 147.976 215.19" stroke="black" stroke-width="0.544886" stroke-linecap="round"/>
<path d="M149.634 212.654C149.634 212.654 148.592 212.441 148.729 211.42" stroke="black" stroke-width="0.544886" stroke-linecap="round"/>
<path d="M147.71 217.107C147.71 217.107 146.536 217.011 146.675 215.539" stroke="black" stroke-width="0.544886" stroke-linecap="round"/>
<path d="M147.95 219.38C147.95 219.38 147.242 220.718 147.858 221.332C147.858 221.332 146.604 222.16 147.391 223.262" stroke="black" stroke-width="0.544886" stroke-linecap="round"/>
<path d="M145.016 221.438L145.585 221.572C145.585 221.572 143.634 227.303 141.576 227.731C141.576 227.731 139.989 228.239 139.497 228.084C139.497 228.084 138.372 230.927 138.342 231.428C138.342 231.428 137.132 234.869 137.137 235.195" stroke="black" stroke-width="0.544886" stroke-linecap="round"/>
<path d="M144.911 226.1C144.911 226.1 143.527 229.505 140.427 229.721C140.427 229.721 139.068 230.618 140.989 231.662C140.989 231.662 137.866 232.252 140.277 233.903" stroke="black" stroke-width="0.544886" stroke-linecap="round"/>
<path d="M140.515 234.946C140.515 234.946 139.214 235.295 138.308 234.513" stroke="black" stroke-width="0.544886" stroke-linecap="round"/>
<path d="M140.619 236.559C140.619 236.559 139.087 237.421 138.241 236.868" stroke="black" stroke-width="0.544886" stroke-linecap="round"/>
<path d="M140.438 238.33L139.157 240.437C139.157 240.437 140.255 243.464 137.796 246.379" stroke="black" stroke-width="0.544886" stroke-linecap="round"/>
<path d="M130.597 241.705C131.397 238.415 134.409 236.409 134.409 236.409C137.699 236.052 137.945 240.966 137.945 240.966L136.003 244.89L135.611 245.57C135.611 245.57 135.533 250.635 133.028 251.388C133.028 251.388 131.049 252.574 130.319 249.694" stroke="black" stroke-width="0.544886" stroke-linecap="round"/>
<path d="M132.805 248.413C133.826 246.868 133.972 245.271 133.972 245.271C135.685 243.089 135.553 241.525 135.553 241.525C134.733 236.783 132.794 241.485 132.794 241.485C132.794 241.485 135.161 240.523 134.332 242.632C134.332 242.632 134.229 243.931 133.357 244.656C133.357 244.656 133.351 246.011 132.804 247.183" stroke="black" stroke-width="0.544886" stroke-linecap="round"/>
<path d="M137.425 247.134C137.425 247.134 136.008 253.173 132.762 253.305C132.762 253.305 132.635 255.43 132.09 256.151" stroke="black" stroke-width="0.544886" stroke-linecap="round"/>
<path d="M138.957 247.954L138.493 248.98" stroke="black" stroke-width="0.544886" stroke-linecap="round"/>
<path d="M138.086 249.91C138.086 249.91 136.883 253.226 135.215 253.427" stroke="black" stroke-width="0.544886" stroke-linecap="round"/>
<path d="M135.209 254.782L133.887 255.054C133.887 255.054 133.695 259.083 132.185 261.251" stroke="black" stroke-width="0.544886" stroke-linecap="round"/>
<path d="M141.931 261.962C141.931 261.962 141.14 260.082 141.088 259.276" stroke="black" stroke-width="0.544886" stroke-linecap="round"/>
<path d="M140.646 263.29C140.646 263.29 139.805 261.834 139.717 261.201" stroke="black" stroke-width="0.544886" stroke-linecap="round"/>
<path d="M152.558 252.193C152.558 252.193 151.38 247.947 147.328 251.493C147.328 251.493 139.557 259.462 144.695 261.376" stroke="black" stroke-width="0.544886" stroke-linecap="round"/>
<path d="M138.843 264.06L139.289 265.417L137.052 268.395L136.533 267.837" stroke="black" stroke-width="0.544886" stroke-linecap="round"/>
<path d="M147.159 258.059C147.72 257.089 149.122 255.893 149.122 255.893C150.481 254.996 150.882 253.74 150.882 253.74C151.309 251.011 148.552 252.847 148.552 252.847C148.552 252.847 150.707 252.474 149.999 253.812C149.999 253.812 148.194 255.034 147.526 256.977" stroke="black" stroke-width="0.544886" stroke-linecap="round"/>
<path d="M144.987 259.133C144.059 258.274 145.471 256.502 145.471 256.502L145.943 256.58L147.239 254.224L147.289 255.482C147.289 255.482 145.87 257.379 145.728 258.073" stroke="black" stroke-width="0.544886" stroke-linecap="round"/>
<path d="M131.875 257.644L129.477 262.469L130.064 263.132" stroke="black" stroke-width="0.544886" stroke-linecap="round"/>
<path d="M132.881 262.623L131.9 264.321L129.48 264.929L128.864 264.314" stroke="black" stroke-width="0.544886" stroke-linecap="round"/>
<path d="M128.302 265.737C128.302 265.737 123.857 274.556 121.505 275.268" stroke="black" stroke-width="0.544886" stroke-linecap="round"/>
<path d="M130.13 267.051C130.13 267.051 129.118 268.02 128.286 267.668" stroke="black" stroke-width="0.544886" stroke-linecap="round"/>
<path d="M128.316 268.85L124.872 274.365" stroke="black" stroke-width="0.544886" stroke-linecap="round"/>
<path d="M134.237 270.134L134.496 271.254" stroke="black" stroke-width="0.544886" stroke-linecap="round"/>
<path d="M135.381 269.048L135.773 270.05" stroke="black" stroke-width="0.544886" stroke-linecap="round"/>
<path d="M133.165 272.102C133.165 272.102 130.611 276.19 129.754 276.666" stroke="black" stroke-width="0.544886" stroke-linecap="round"/>
<path d="M121.738 292.581L121.478 290.776C121.478 290.776 123.071 285.551 121.799 284.17C121.799 284.17 124.563 278.262 121.236 276.406C121.236 276.406 119.204 275.556 118.169 276.899" stroke="black" stroke-width="0.544886" stroke-linecap="round"/>
<path d="M120.43 289.007C120.114 287.984 120.643 286.284 120.643 286.284C121.562 284.356 119.972 282.404 119.972 282.404L120.12 282.036C121.388 279.728 120.496 278.695 120.496 278.695C119.183 277.161 118.439 280.354 118.439 280.354L118.553 281.39L119.253 280.177C119.253 280.177 120.597 279.53 119.319 282.415C119.319 282.415 120.653 284.026 120.209 285.58" stroke="black" stroke-width="0.544886" stroke-linecap="round"/>
<path d="M147.379 242.569C143.586 247.527 140.012 252.631 136.937 258.015C136.549 258.624 135.077 261.328 136.073 259.401C138.721 254.083 143.888 244.059 143.888 244.059C146.046 240.244 146.797 236.241 148.839 232.367C150.076 229.792 151.306 227.224 152.919 224.843C155.326 220.372 156.203 216.136 158.757 211.741C160.734 210.135 162.592 204.553 166.56 206.479C170.169 209.864 166.856 210.454 166.375 212.201C164.805 214.991 162.598 219.584 161.811 221.065C160.604 221.731 151.926 235.324 147.379 242.569Z" fill="#FCE94F"/>
<path d="M47.2874 238.36C45.6526 235.37 41.2674 231.498 41.2674 231.498C38.1353 229.876 36.9629 232.52 36.9629 232.52C36.9629 232.52 35.9692 236.661 39.6835 238.816L41.6556 240.331L42.8652 242.743L44.3725 243.61L46.7555 242.509L47.8476 240.598L47.2874 238.36Z" fill="#FFDD55" stroke="black" stroke-width="0.320521"/>
<path d="M57.7217 257.859C53.675 256.078 53.346 250.596 53.346 250.596C54.6912 248.173 58.6481 249.639 58.6481 249.639L59.3187 250.167L61.9013 254.165C61.9013 254.165 65.8638 256.908 65.6588 259.405C65.6588 259.405 65.6171 261.076 63.3472 261.106C63.3472 261.106 62.1384 261.072 60.9606 259.19L57.7217 257.859Z" fill="#FFDD55" stroke="black" stroke-width="0.320521"/>
<path d="M74.4162 250.964C72.5254 247.848 72.7382 244.889 72.7382 244.889C72.7382 244.889 73.1095 242.205 76.1688 242.909C76.1688 242.909 78.5921 244.254 78.7379 246.091L78.8808 247.289L79.475 248.318L79.2536 249.361C79.2536 249.361 81.237 253.43 79.572 254.666C79.572 254.666 77.3793 256.572 74.4162 250.964Z" fill="#FFDD55" stroke="black" stroke-width="0.320521"/>
<path d="M87.4405 289.368C81.9982 289.766 80.1569 284.517 80.1569 284.517C79.5521 283.311 81.8452 281.895 81.8452 281.895C85.5347 280.68 88.2786 285.591 88.2786 285.591C89.9648 284.709 93.8355 288.878 93.8355 288.878C93.8355 288.878 97.056 290.495 96.9719 291.458C96.9719 291.458 96.9457 292.205 95.9349 292.514L93.7811 292.111L91.5954 291.178L88.8184 289.853L87.4405 289.368Z" fill="#FFDD55" stroke="black" stroke-width="0.320521"/>
<path d="M71.639 269.293C68.9361 267.748 65.907 261.605 65.907 261.605L63.3686 261.13C64.3597 260.55 64.6632 261.404 65.9099 259.146C65.8187 258.839 65.5343 258.588 65.484 258.23C65.3034 256.946 63.8796 255.84 61.9948 254.241C61.3507 253.694 60.8537 252.478 60.1311 251.346C59.7252 250.711 59.3409 249.934 58.634 249.653C57.2585 249.105 56.4677 248.846 55.3312 249.004C53.83 249.213 53.1976 250.572 53.1976 250.572L47.5406 244.135L44.4946 243.565L46.9353 242.415C48.9279 240.488 46.4111 237.025 46.4111 237.025L44.3423 234.338L42.3596 232.248C38.7344 229.555 37.1489 232.411 37.1489 232.411C31.772 226.459 31.7139 219.636 31.7139 219.636C28.2336 215.176 31.4675 208.005 31.4675 208.005L34.1203 204.533L38.7137 199.94L40.9084 199.708C44.2484 197.65 49.7842 198.723 49.7842 198.723C57.0036 200.248 63.3069 208.252 63.3069 208.252L64.7784 211.025C67.3583 213.029 69.7814 226.637 69.7814 226.637C72.5334 229.835 76.1619 242.618 76.1619 242.618C76.1619 242.618 71.7834 242.429 72.9419 246.676C72.9419 246.676 74.3585 252.715 76.9644 254.316C76.9644 254.316 78.805 255.711 80.2305 254.371L85.3484 267.717L87.8554 275.196L91.2767 282.019L95.4372 289.449L93.8657 289.192C93.8657 289.192 89.9973 284.957 88.1798 285.618C88.1798 285.618 84.0232 279.091 80.7883 282.899L80.0721 284.348L79.3739 283.586L78.7796 281.213L77.8642 278.507L76.7849 276.413L75.2163 273.696L71.639 269.293Z" fill="#AAD400" stroke="black" stroke-width="0.320521"/>
<path d="M79.325 283.076C79.325 283.076 77.6965 274.869 71.3233 269.217C71.3233 269.217 66.8189 263.95 65.6885 261.676C65.6885 261.676 62.3683 261.946 60.8418 258.985C60.8418 258.985 53.7627 258.132 53.3169 250.705C53.3169 250.705 48.6328 244.81 47.4501 244.029C47.4501 244.029 42.5568 244.11 42.2497 241.36C42.2497 241.36 41.2198 239.576 40.7289 239.677C40.7289 239.677 35.8242 237.202 36.9629 232.52C36.9629 232.52 31.645 225.527 31.7382 219.984C31.7382 219.984 26.9479 212.321 33.1695 205.985C33.1695 205.985 37.4063 199.697 41.0223 199.621C41.0223 199.621 49.0816 195.517 58.1158 202.926C58.1158 202.926 63.9925 207.4 64.4792 210.778C67.3385 215.979 67.9234 220.788 70.9681 225.448C70.9681 225.448 74.2644 231.447 76.0605 242.88C76.0605 242.88 78.679 243.93 78.7117 246.838C78.7117 246.838 79.8208 248.759 79.2931 249.43C79.2931 249.43 80.9201 252.882 80.0812 254.281L85.3484 267.523C85.3484 267.523 87.5837 275.198 88.8881 276.823C88.8881 276.823 93.3728 286.493 95.6279 289.765C95.6279 289.765 98.4976 292.041 95.8267 292.486C95.8267 292.486 91.0571 291.672 89.2116 289.901L88.1584 289.503C88.1584 289.503 83.7163 289.415 81.6516 286.948C80.696 286.402 79.325 283.076 79.325 283.076Z" fill="#FF0000" stroke="black"/>
<path d="M60.5475 254.672C59.5861 252.849 57.4401 251.984 57.4401 251.984C54.3228 251.497 56.8021 254.365 56.8021 254.365C56.8021 254.365 57.5165 251.482 59.6343 254.834L59.8246 255.639L61.7677 257.261C61.7677 257.261 60.9571 256.174 62.0421 257.103L60.5475 254.672Z" fill="black" stroke="black" stroke-width="0.320521"/>
<path d="M74.6891 246.05C74.6891 246.05 75.0236 243.936 76.3647 244.991L77.3338 246.353L77.8785 249.515C77.8785 249.515 76.3103 248.225 76.1936 246.279C76.1936 246.279 75.784 244.778 74.6891 246.05Z" fill="black" stroke="black" stroke-width="0.320521"/>
<path d="M88.3847 287.36L85.7188 286.703C85.7188 286.703 82.965 283.994 83.908 286.102L84.4229 286.994L83.3301 286.527C83.3301 286.527 82.1842 285.176 82.3476 284.35C82.3476 284.35 84.0918 283.251 85.7053 285.888C85.7053 285.888 88.4583 286.219 88.3847 287.36Z" fill="black" stroke="black" stroke-width="0.320521"/>
<path d="M56.4487 205.9C56.4487 205.9 61.6025 211.341 61.123 213.996" stroke="black" stroke-width="0.544886" stroke-linecap="round"/>
<path d="M59.3205 206.438C59.3205 206.438 59.9996 208.882 61.6258 209.956C61.6258 209.956 64.4481 212.626 62.81 215.493" stroke="black" stroke-width="0.544886" stroke-linecap="round"/>
<path d="M64.7262 215.484C64.7262 215.484 64.4864 216.812 62.8737 216.554" stroke="black" stroke-width="0.544886" stroke-linecap="round"/>
<path d="M65.4894 216.965C65.4894 216.965 65.3183 218.253 64.0805 218.327" stroke="black" stroke-width="0.544886" stroke-linecap="round"/>
<path d="M64.8225 219.454C64.8225 219.454 64.2842 219.948 65.1557 221.457C65.1557 221.457 66.5654 222.473 65.6212 224.482" stroke="black" stroke-width="0.544886" stroke-linecap="round"/>
<path d="M66.4169 219.997L66.7395 221.823C66.7395 221.823 67.5345 223.834 66.9489 224.721" stroke="black" stroke-width="0.544886" stroke-linecap="round"/>
<path d="M67.2396 226.017L66.11 226.12" stroke="black" stroke-width="0.544886" stroke-linecap="round"/>
<path d="M66.6674 227.719L67.768 227.724" stroke="black" stroke-width="0.544886" stroke-linecap="round"/>
<path d="M67.1427 228.543L68.1564 228.872" stroke="black" stroke-width="0.544886" stroke-linecap="round"/>
<path d="M67.7214 230.496L69.0017 231.129" stroke="black" stroke-width="0.544886" stroke-linecap="round"/>
<path d="M38.5365 217.896C38.5365 217.896 40.4816 219.361 42.0026 219.194" stroke="black" stroke-width="0.544886" stroke-linecap="round"/>
<path d="M35.7559 206.693C35.7559 206.693 34.5025 209.228 33.5042 209.74C33.5042 209.74 32.2274 214.811 33.4503 216.369" stroke="black" stroke-width="0.544886" stroke-linecap="round"/>
<path d="M34.6326 213.487C34.6326 213.487 34.6433 217.427 37.1525 214.49" stroke="black" stroke-width="0.544886" stroke-linecap="round"/>
<path d="M36.7212 208.141C36.7212 208.141 35.796 209.452 36.0405 209.764C36.0405 209.764 33.9634 209.863 35.5579 212.177" stroke="black" stroke-width="0.544886" stroke-linecap="round"/>
<path d="M37.1706 218.555C37.1706 218.555 36.7411 223.525 39.1654 223.355" stroke="black" stroke-width="0.544886" stroke-linecap="round"/>
<path d="M35.3115 217.688C35.3115 217.688 35.3596 222.253 35.6117 222.69C35.6117 222.69 36.8337 227.159 39.3966 228.461" stroke="black" stroke-width="0.544886" stroke-linecap="round"/>
<path d="M33.746 218.786C33.746 218.786 33.525 222.213 34.6044 224.306C34.6044 224.306 36.8677 228.563 37.9486 229.427" stroke="black" stroke-width="0.544886" stroke-linecap="round"/>
<path d="M36.963 232.519C36.963 232.519 38.5458 229.34 42.2551 232.18L44.0772 234.103C44.0772 234.103 52.116 241.752 44.5151 243.489" stroke="black" stroke-width="0.544886" stroke-linecap="round"/>
<path d="M39.5734 238.515L40.8347 237.786C40.8347 237.786 37.502 233.695 40.6041 234.362C40.6041 234.362 41.8435 234.94 42.4262 236.285C42.4262 236.285 44.8935 236.413 45.3482 240.226" stroke="black" stroke-width="0.544886" stroke-linecap="round"/>
<path d="M40.7289 239.676L42.5093 239.342" stroke="black" stroke-width="0.544886" stroke-linecap="round"/>
<path d="M42.8527 227.501C42.8527 227.501 42.5991 228.294 41.7238 228.346" stroke="black" stroke-width="0.544886" stroke-linecap="round"/>
<path d="M40.3568 225.642C40.3568 225.642 39.6516 226.438 38.8358 225.809" stroke="black" stroke-width="0.544886" stroke-linecap="round"/>
<path d="M43.2508 229.535C43.2508 229.535 42.5811 230.504 41.3752 229.648" stroke="black" stroke-width="0.544886" stroke-linecap="round"/>
<path d="M45.3395 230.463C45.3395 230.463 46.1443 231.745 46.9841 231.519C46.9841 231.519 47.0742 233.02 48.4216 232.889" stroke="black" stroke-width="0.544886" stroke-linecap="round"/>
<path d="M45.6542 234.033L46.0553 233.608C46.0553 233.608 50.0432 238.162 49.385 240.159C49.385 240.159 49.0309 241.787 48.6503 242.136C48.6503 242.136 50.551 244.532 50.9692 244.808C50.9692 244.808 53.344 247.577 53.6296 247.735" stroke="black" stroke-width="0.544886" stroke-linecap="round"/>
<path d="M49.6396 236.455C49.6396 236.455 51.8969 239.356 50.5335 242.149C50.5335 242.149 50.6311 243.774 52.4951 242.634C52.4951 242.634 51.4454 245.633 54.0802 244.371" stroke="black" stroke-width="0.544886" stroke-linecap="round"/>
<path d="M55.103 244.686C55.103 244.686 54.7544 245.987 53.6236 246.381" stroke="black" stroke-width="0.544886" stroke-linecap="round"/>
<path d="M56.5515 245.402C56.5515 245.402 56.5315 247.16 55.6303 247.616" stroke="black" stroke-width="0.544886" stroke-linecap="round"/>
<path d="M57.9945 246.444L59.1785 248.607C59.1785 248.607 62.3495 249.17 63.644 252.756" stroke="black" stroke-width="0.544886" stroke-linecap="round"/>
<path d="M55.9971 256.654C53.5477 254.316 53.3169 250.705 53.3169 250.705C54.6522 247.677 59.0314 249.921 59.0314 249.921L61.4588 253.565L61.8509 254.244C61.8509 254.244 66.1984 256.845 65.5982 259.39C65.5982 259.39 65.6363 261.697 62.7769 260.89" stroke="black" stroke-width="0.544886" stroke-linecap="round"/>
<path d="M62.9104 258.096C62.0831 256.439 60.7726 255.514 60.7726 255.514C59.7397 252.94 58.3192 252.273 58.3192 252.273C53.8022 250.611 56.9053 254.641 56.9053 254.641C56.9053 254.641 57.2554 252.111 58.6669 253.883C58.6669 253.883 59.7403 254.622 59.9328 255.74C59.9328 255.74 61.1032 256.422 61.8445 257.482" stroke="black" stroke-width="0.544886" stroke-linecap="round"/>
<path d="M64.1127 253.456C64.1127 253.456 68.6342 257.702 67.1253 260.579C67.1253 260.579 68.9024 261.752 69.2535 262.584" stroke="black" stroke-width="0.544886" stroke-linecap="round"/>
<path d="M65.5886 252.539L66.2459 253.453" stroke="black" stroke-width="0.544886" stroke-linecap="round"/>
<path d="M66.847 254.271C66.847 254.271 69.1173 256.971 68.4572 258.516" stroke="black" stroke-width="0.544886" stroke-linecap="round"/>
<path d="M69.6276 259.199L69.2024 260.479C69.2024 260.479 72.5961 262.66 73.7185 265.052" stroke="black" stroke-width="0.544886" stroke-linecap="round"/>
<path d="M79.2067 256.967C79.2067 256.967 77.1835 256.712 76.4593 256.354" stroke="black" stroke-width="0.544886" stroke-linecap="round"/>
<path d="M79.7149 258.744C79.7149 258.744 78.0333 258.745 77.4416 258.504" stroke="black" stroke-width="0.544886" stroke-linecap="round"/>
<path d="M76.0605 242.88C76.0605 242.88 71.7943 241.776 72.8393 247.059C72.8393 247.059 75.8553 257.773 80.0812 254.281" stroke="black" stroke-width="0.544886" stroke-linecap="round"/>
<path d="M79.4803 260.691L80.8783 260.983L82.3388 264.409L81.5961 264.579" stroke="black" stroke-width="0.544886" stroke-linecap="round"/>
<path d="M78.4412 250.488C77.881 249.518 77.5464 247.706 77.5464 247.706C77.4488 246.08 76.562 245.104 76.562 245.104C74.4123 243.37 74.6234 246.676 74.6234 246.676C74.6234 246.676 75.3786 244.623 76.1834 245.905C76.1834 245.905 76.339 248.079 77.6869 249.63" stroke="black" stroke-width="0.544886" stroke-linecap="round"/>
<path d="M78.2852 252.907C77.0778 253.28 76.2485 251.172 76.2485 251.172L76.5526 250.802L75.1596 248.501L76.274 249.087C76.274 249.087 77.2078 251.265 77.738 251.735" stroke="black" stroke-width="0.544886" stroke-linecap="round"/>
<path d="M70.439 263.517L73.419 268.006L74.2868 267.829" stroke="black" stroke-width="0.544886" stroke-linecap="round"/>
<path d="M75.2545 265.136L76.2349 266.834L75.5507 269.234L74.7109 269.46" stroke="black" stroke-width="0.544886" stroke-linecap="round"/>
<path d="M75.6613 270.658C75.6613 270.658 81.0762 278.916 80.5171 281.309" stroke="black" stroke-width="0.544886" stroke-linecap="round"/>
<path d="M77.714 269.731C77.714 269.731 78.0467 271.092 77.3264 271.637" stroke="black" stroke-width="0.544886" stroke-linecap="round"/>
<path d="M78.3643 272.202L81.4194 277.942" stroke="black" stroke-width="0.544886" stroke-linecap="round"/>
<path d="M82.4369 267.716L83.5363 268.052" stroke="black" stroke-width="0.544886" stroke-linecap="round"/>
<path d="M82.0689 266.182L83.1327 266.344" stroke="black" stroke-width="0.544886" stroke-linecap="round"/>
<path d="M83.6058 269.629C83.6058 269.629 85.8692 273.885 85.8527 274.865" stroke="black" stroke-width="0.544886" stroke-linecap="round"/>
<path d="M95.628 289.765L93.9347 289.088C93.9347 289.088 90.2064 285.095 88.3738 285.506C88.3738 285.506 84.6395 280.158 81.3685 282.112C81.3685 282.112 79.6164 283.447 80.2627 285.014" stroke="black" stroke-width="0.544886" stroke-linecap="round"/>
<path d="M91.878 289.11C90.8347 288.872 89.6268 287.564 89.6268 287.564C88.4168 285.804 85.931 286.205 85.931 286.205L85.6865 285.893C84.3215 283.641 82.9815 283.897 82.9815 283.897C80.9959 284.267 83.3892 286.508 83.3892 286.508L84.343 286.927L83.6428 285.714C83.6428 285.714 83.7543 284.227 85.6139 286.776C85.6139 286.776 87.6761 286.426 88.8 287.588" stroke="black" stroke-width="0.544886" stroke-linecap="round"/>
<path d="M65.1366 242.553C67.5336 248.316 70.1663 253.964 73.2921 259.319C73.6253 259.959 75.2305 262.586 74.0605 260.76C70.7789 255.807 64.6809 246.32 64.6809 246.32C62.4563 242.544 59.3645 239.892 57.0308 236.187C55.4196 233.828 53.8104 231.479 52.555 228.892C49.8861 224.572 46.6561 221.694 44.127 217.284C43.7249 214.77 39.8203 210.37 43.4713 207.896C48.208 206.464 47.0622 209.627 48.3351 210.918C49.9658 213.672 52.8403 217.88 53.729 219.302C53.7024 220.68 61.1351 234.993 65.1366 242.553Z" fill="#FCE94F"/>
<path d="M87.2688 148.358C83.8621 148.437 78.3164 146.575 78.3164 146.575C75.3455 144.674 77.0488 142.337 77.0488 142.337C77.0488 142.337 80.1386 139.405 83.8621 141.544L86.1596 142.495L88.8533 142.337L90.3586 143.208L90.5962 145.823L89.4871 147.724L87.2688 148.358Z" fill="#FFDD55" stroke="black" stroke-width="0.320521"/>
<path d="M109.373 147.645C105.807 145.03 100.895 147.486 100.895 147.486C99.4694 149.863 102.718 152.557 102.718 152.557L103.51 152.874L108.263 153.111C108.263 153.111 112.621 155.171 114.681 153.745C114.681 153.745 116.107 152.874 114.998 150.893C114.998 150.893 114.364 149.863 112.145 149.784L109.373 147.645Z" fill="#FFDD55" stroke="black" stroke-width="0.320521"/>
<path d="M111.749 165.55C108.105 165.47 105.649 167.134 105.649 167.134C105.649 167.134 103.51 168.798 105.649 171.095C105.649 171.095 108.026 172.521 109.689 171.729L110.799 171.254L111.987 171.254L112.779 170.541C112.779 170.541 117.295 170.224 117.533 168.164C117.533 168.164 118.087 165.312 111.749 165.55Z" fill="#FFDD55" stroke="black" stroke-width="0.320521"/>
<path d="M151.52 157.627C149.144 152.715 143.677 153.745 143.677 153.745C142.33 153.824 142.251 156.518 142.251 156.518C143.043 160.321 148.668 160.241 148.668 160.241C148.747 162.143 154.293 163.41 154.293 163.41C154.293 163.41 157.304 165.391 158.096 164.836C158.096 164.836 158.73 164.44 158.492 163.41L157.066 161.747L155.165 160.321L152.629 158.578L151.52 157.627Z" fill="#FFDD55" stroke="black" stroke-width="0.320521"/>
<path d="M126.234 153.981C123.545 152.412 116.71 152.86 116.71 152.86L115.029 150.899C115.022 152.048 115.914 151.884 114.581 154.093C114.27 154.167 113.91 154.046 113.575 154.182C112.373 154.667 110.703 153.987 108.376 153.154C107.581 152.87 106.279 153.047 104.938 152.988C104.184 152.954 103.32 153.009 102.722 152.538C101.56 151.62 100.94 151.065 100.509 150.002C99.9398 148.597 100.8 147.37 100.8 147.37L92.3972 145.69L90.3805 143.337L90.6046 146.026C89.9323 148.715 85.6748 148.266 85.6748 148.266L82.3135 147.818L79.5125 147.146C75.367 145.353 77.0476 142.552 77.0476 142.552C69.2048 140.872 63.2666 144.233 63.2666 144.233C57.6645 143.449 53.0709 149.835 53.0709 149.835L51.3903 153.868L49.7096 160.143L50.606 162.16C50.4939 166.081 54.1913 170.338 54.1913 170.338C59.1211 175.829 69.2048 177.285 69.2048 177.285L72.3419 177.173C75.367 178.405 88.3638 173.7 88.3638 173.7C92.5093 174.484 105.394 171.235 105.394 171.235C105.394 171.235 103.041 167.537 107.299 166.417C107.299 166.417 113.237 164.624 115.926 166.081C115.926 166.081 118.055 166.977 117.606 168.882L131.724 166.641L139.454 165.073L147.073 164.624L155.588 164.512L154.58 163.28C154.58 163.28 148.978 162.047 148.642 160.143C148.642 160.143 140.911 159.807 142.592 155.101L143.488 153.756L142.48 153.532L140.127 154.205L137.326 154.765L134.973 154.877L131.836 154.877L126.234 153.981Z" fill="#AAD400" stroke="black" stroke-width="0.320521"/>
<path d="M142.013 153.745C142.013 153.745 134.091 156.439 126.01 153.745C126.01 153.745 119.196 152.478 116.661 152.636C116.661 152.636 115.235 149.626 111.908 149.784C111.908 149.784 107.63 144.08 100.975 147.407C100.975 147.407 93.5276 146.298 92.26 145.664C92.26 145.664 89.8832 141.386 87.348 142.495C87.348 142.495 85.2882 142.495 85.1297 142.02C85.1297 142.02 80.5347 139.009 77.0488 142.337C77.0488 142.337 68.3341 141.228 63.5806 144.08C63.5806 144.08 54.5489 143.763 52.1722 152.319C52.1722 152.319 48.8448 159.133 50.5877 162.302C50.5877 162.302 51.063 171.333 61.9961 175.453C61.9961 175.453 68.8094 178.305 71.9784 177.037C77.9117 176.913 82.3686 175.016 87.9274 175.322C87.9274 175.322 94.7709 175.177 105.57 171.016C105.57 171.016 107.788 172.759 110.323 171.333C110.323 171.333 112.542 171.333 112.858 170.541C112.858 170.541 116.661 170.224 117.454 168.798L131.556 166.738C131.556 166.738 139.32 164.837 141.379 165.154C141.379 165.154 151.996 164.203 155.957 164.52C155.957 164.52 159.363 165.867 158.413 163.332C158.413 163.332 155.323 159.608 152.867 158.895L151.996 158.182C151.996 158.182 149.698 154.379 146.529 153.825C145.578 153.27 142.013 153.745 142.013 153.745Z" fill="#FFCC00" stroke="black"/>
<path d="M108.026 151.685C105.966 151.764 104.144 150.338 104.144 150.338C102.163 147.882 105.887 148.595 105.887 148.595C105.887 148.595 103.748 150.655 107.709 150.814L108.501 150.576L110.878 151.447C110.878 151.447 109.531 151.289 110.878 151.764L108.026 151.685Z" fill="black" stroke="black" stroke-width="0.320521"/>
<path d="M107.63 168.243C107.63 168.243 105.966 169.59 107.55 170.224L109.214 170.382L112.225 169.273C112.225 169.273 110.323 168.56 108.58 169.432C108.58 169.432 107.075 169.828 107.63 168.243Z" fill="black" stroke="black" stroke-width="0.320521"/>
<path d="M150.253 159.449L148.351 157.469C148.351 157.469 144.628 156.439 146.925 156.201L147.955 156.201L147.004 155.488C147.004 155.488 145.261 155.171 144.628 155.726C144.628 155.726 144.548 157.785 147.638 157.865C147.638 157.865 149.302 160.083 150.253 159.449Z" fill="black" stroke="black" stroke-width="0.320521"/>
<path d="M63.739 172.521C63.739 172.521 71.0277 174.264 73.0876 172.521" stroke="black" stroke-width="0.544886" stroke-linecap="round"/>
<path d="M65.6404 174.74C65.6404 174.74 68.0964 174.106 69.8394 174.977C69.8394 174.977 73.563 176.087 75.2267 173.234" stroke="black" stroke-width="0.544886" stroke-linecap="round"/>
<path d="M76.1774 174.898C76.1774 174.898 77.2073 174.027 76.1774 172.759" stroke="black" stroke-width="0.544886" stroke-linecap="round"/>
<path d="M77.8411 174.819C77.8411 174.819 78.871 174.027 78.3164 172.917" stroke="black" stroke-width="0.544886" stroke-linecap="round"/>
<path d="M79.6633 172.997C79.6633 172.997 79.8218 172.284 81.5647 172.284C81.5647 172.284 83.1492 172.997 84.4168 171.175" stroke="black" stroke-width="0.544886" stroke-linecap="round"/>
<path d="M80.9309 174.106L82.6738 173.472C82.6738 173.472 84.8129 173.155 85.2883 172.205" stroke="black" stroke-width="0.544886" stroke-linecap="round"/>
<path d="M86.5558 171.809L86.0804 170.779" stroke="black" stroke-width="0.544886" stroke-linecap="round"/>
<path d="M87.7442 170.462L88.2988 171.412" stroke="black" stroke-width="0.544886" stroke-linecap="round"/>
<path d="M88.6949 170.462L89.4872 171.175" stroke="black" stroke-width="0.544886" stroke-linecap="round"/>
<path d="M90.6755 169.986L91.8639 170.779" stroke="black" stroke-width="0.544886" stroke-linecap="round"/>
<path d="M65.1713 151.011C65.1713 151.011 67.4121 151.963 68.0283 153.364" stroke="black" stroke-width="0.544886" stroke-linecap="round"/>
<path d="M54.0793 154.205C54.0793 154.205 55.6478 151.852 55.5918 150.731C55.5918 150.731 59.3452 147.09 61.3059 147.37" stroke="black" stroke-width="0.544886" stroke-linecap="round"/>
<path d="M59.4012 149.835C59.4012 149.835 62.8185 147.874 61.53 151.515" stroke="black" stroke-width="0.544886" stroke-linecap="round"/>
<path d="M55.8159 154.316C55.8159 154.316 56.4882 152.86 56.8803 152.916C56.8803 152.916 55.9279 151.067 58.729 151.291" stroke="black" stroke-width="0.544886" stroke-linecap="round"/>
<path d="M65.0593 149.499C65.0593 149.499 69.1488 146.642 70.2131 148.826" stroke="black" stroke-width="0.544886" stroke-linecap="round"/>
<path d="M63.3787 148.322C63.3787 148.322 67.3561 146.081 67.8603 146.081C67.8603 146.081 72.3419 144.905 74.7508 146.474" stroke="black" stroke-width="0.544886" stroke-linecap="round"/>
<path d="M63.5468 146.417C63.5468 146.417 66.4038 144.513 68.7566 144.401C68.7566 144.401 73.5744 144.233 74.8629 144.737" stroke="black" stroke-width="0.544886" stroke-linecap="round"/>
<path d="M77.0488 142.337C77.0488 142.337 75.0869 145.297 79.4005 147.09L81.9774 147.706C81.9774 147.706 92.6213 150.843 90.3244 143.392" stroke="black" stroke-width="0.544886" stroke-linecap="round"/>
<path d="M83.5461 141.6L83.5461 143.056C83.5461 143.056 78.3362 142.216 80.4649 144.569C80.4649 144.569 81.5854 145.353 83.0419 145.185C83.0419 145.185 84.3864 147.258 87.9157 145.745" stroke="black" stroke-width="0.544886" stroke-linecap="round"/>
<path d="M85.1298 142.02L85.7309 143.728" stroke="black" stroke-width="0.544886" stroke-linecap="round"/>
<path d="M75.6472 149.947C75.6472 149.947 76.2074 149.331 75.8152 148.546" stroke="black" stroke-width="0.544886" stroke-linecap="round"/>
<path d="M72.7901 148.715C72.7901 148.715 73.1263 147.706 72.1739 147.314" stroke="black" stroke-width="0.544886" stroke-linecap="round"/>
<path d="M77.6078 149.275C77.6078 149.275 78.112 148.21 76.7675 147.594" stroke="black" stroke-width="0.544886" stroke-linecap="round"/>
<path d="M79.4565 150.619C79.4565 150.619 80.9691 150.675 81.1932 151.515C81.1932 151.515 82.5376 150.843 83.0979 152.076" stroke="black" stroke-width="0.544886" stroke-linecap="round"/>
<path d="M82.7057 149.107L82.5377 149.667C82.5377 149.667 88.4758 150.843 89.8763 149.275C89.8763 149.275 91.1088 148.154 91.2208 147.65C91.2208 147.65 94.2459 148.098 94.6941 148.322C94.6941 148.322 98.2794 148.995 98.5595 149.163" stroke="black" stroke-width="0.544886" stroke-linecap="round"/>
<path d="M86.7952 151.347C86.7952 151.347 90.4365 151.851 92.1732 149.274C92.1732 149.274 93.6297 148.546 93.5736 150.731C93.5736 150.731 95.6464 148.322 95.8705 151.235" stroke="black" stroke-width="0.544886" stroke-linecap="round"/>
<path d="M96.6548 151.963C96.6548 151.963 97.6071 151.011 97.383 149.835" stroke="black" stroke-width="0.544886" stroke-linecap="round"/>
<path d="M97.9993 152.86C97.9993 152.86 99.5118 151.964 99.4558 150.955" stroke="black" stroke-width="0.544886" stroke-linecap="round"/>
<path d="M99.6239 153.588L102.089 153.532C102.089 153.532 104.162 155.997 107.915 155.325" stroke="black" stroke-width="0.544886" stroke-linecap="round"/>
<path d="M107.467 146.754C104.218 145.801 100.975 147.407 100.975 147.407C99.0204 150.077 103.153 152.748 103.153 152.748L107.523 153.028L108.307 153.028C108.307 153.028 112.733 155.493 114.637 153.7C114.637 153.7 116.654 152.58 114.525 150.507" stroke="black" stroke-width="0.544886" stroke-linecap="round"/>
<path d="M112.172 152.019C110.324 152.131 108.867 151.459 108.867 151.459C106.122 151.851 104.834 150.955 104.834 150.955C101.136 147.874 106.178 148.546 106.178 148.546C106.178 148.546 104.162 150.115 106.402 150.451C106.402 150.451 107.579 151.011 108.643 150.619C108.643 150.619 109.82 151.291 111.108 151.403" stroke="black" stroke-width="0.544886" stroke-linecap="round"/>
<path d="M108.755 155.381C108.755 155.381 114.693 157.174 116.43 154.428C116.43 154.428 118.335 155.381 119.231 155.269" stroke="black" stroke-width="0.544886" stroke-linecap="round"/>
<path d="M108.699 157.118L109.82 157.23" stroke="black" stroke-width="0.544886" stroke-linecap="round"/>
<path d="M110.828 157.341C110.828 157.341 114.301 157.958 115.31 156.613" stroke="black" stroke-width="0.544886" stroke-linecap="round"/>
<path d="M116.486 157.286L117.382 156.277C117.382 156.277 120.968 158.126 123.601 157.902" stroke="black" stroke-width="0.544886" stroke-linecap="round"/>
<path d="M119.343 166.697C119.343 166.697 118.111 165.072 117.438 164.624" stroke="black" stroke-width="0.544886" stroke-linecap="round"/>
<path d="M121.136 166.249C121.136 166.249 120.295 164.792 119.791 164.4" stroke="black" stroke-width="0.544886" stroke-linecap="round"/>
<path d="M105.57 171.016C105.57 171.016 102.481 167.873 107.579 166.137C107.579 166.137 118.365 163.392 117.454 168.798" stroke="black" stroke-width="0.544886" stroke-linecap="round"/>
<path d="M122.704 165.073L123.657 166.137L127.354 165.689L127.13 164.961" stroke="black" stroke-width="0.544886" stroke-linecap="round"/>
<path d="M113.349 169.274C112.228 169.274 110.492 169.89 110.492 169.89C109.035 170.618 107.747 170.338 107.747 170.338C105.17 169.343 108.139 167.873 108.139 167.873C108.139 167.873 106.738 169.554 108.251 169.61C108.251 169.61 110.212 168.657 112.228 169.05" stroke="black" stroke-width="0.544886" stroke-linecap="round"/>
<path d="M115.366 167.93C115.086 166.697 112.845 167.033 112.845 167.033L112.677 167.481L109.988 167.425L111.052 168.098C111.052 168.098 113.405 167.818 114.077 168.042" stroke="black" stroke-width="0.544886" stroke-linecap="round"/>
<path d="M120.632 155.829L126.01 156.165L126.29 157.006" stroke="black" stroke-width="0.544886" stroke-linecap="round"/>
<path d="M124.441 159.19L126.402 159.19L128.138 157.398L127.914 156.557" stroke="black" stroke-width="0.544886" stroke-linecap="round"/>
<path d="M129.427 156.781C129.427 156.781 139.286 157.341 141.079 155.661" stroke="black" stroke-width="0.544886" stroke-linecap="round"/>
<path d="M129.651 159.022C129.651 159.022 130.995 158.63 131.107 157.734" stroke="black" stroke-width="0.544886" stroke-linecap="round"/>
<path d="M132.116 158.35L138.614 158.126" stroke="black" stroke-width="0.544886" stroke-linecap="round"/>
<path d="M130.267 164.12L131.107 164.904" stroke="black" stroke-width="0.544886" stroke-linecap="round"/>
<path d="M128.755 164.568L129.427 165.408" stroke="black" stroke-width="0.544886" stroke-linecap="round"/>
<path d="M132.508 164.176C132.508 164.176 137.326 164.008 138.166 163.504" stroke="black" stroke-width="0.544886" stroke-linecap="round"/>
<path d="M155.957 164.52L154.524 163.392C154.524 163.392 149.202 162.16 148.642 160.367C148.642 160.367 142.143 159.807 142.199 155.997C142.199 155.997 142.48 153.812 144.16 153.588" stroke="black" stroke-width="0.544886" stroke-linecap="round"/>
<path d="M153.516 161.599C152.787 160.815 151.051 160.423 151.051 160.423C148.922 160.255 148.026 157.902 148.026 157.902L147.633 157.846C145 157.79 144.552 156.501 144.552 156.501C143.88 154.597 147.017 155.549 147.017 155.549L147.857 156.165L146.457 156.165C146.457 156.165 145.225 157.005 148.362 157.342C148.362 157.342 149.09 159.302 150.659 159.694" stroke="black" stroke-width="0.544886" stroke-linecap="round"/>
<path d="M99.8246 161.72C106.014 160.914 112.222 160.37 118.422 160.399C119.144 160.368 122.221 160.444 120.054 160.344C114.125 159.978 102.86 159.441 102.86 159.441C98.4773 159.402 94.6347 158.051 90.2593 157.882C87.4107 157.666 84.5718 157.447 81.7036 157.654C76.6277 157.502 72.5206 156.144 67.437 156.159C65.0583 157.068 59.2952 155.886 58.9786 160.285C60.1063 165.103 62.2732 162.529 64.0271 162.986C67.2278 163.021 72.3095 163.407 73.9849 163.466C75.1653 162.754 91.2767 162.034 99.8246 161.72Z" fill="#FCE94F"/>
<defs>
<linearGradient id="paint0_linear_2689_26408" x1="135.067" y1="148.459" x2="-384.797" y2="148.459" gradientUnits="userSpaceOnUse">
<stop stop-color="white"/>
<stop offset="1" stop-color="#CCCCCC"/>
</linearGradient>
</defs>
</svg>
