<svg width="208" height="319" viewBox="0 0 208 319" fill="none" xmlns="http://www.w3.org/2000/svg">
<path d="M192.5 0.5H15.5C7.21573 0.5 0.5 7.21573 0.5 15.5V303.5C0.5 311.784 7.21573 318.5 15.5 318.5H192.5C200.784 318.5 207.5 311.784 207.5 303.5V15.5C207.5 7.21573 200.784 0.5 192.5 0.5Z" fill="url(#paint0_linear_2689_27037)" stroke="black" stroke-linecap="square"/>
<path d="M65.8571 15H91.2857M116.714 15H142.143M167.571 15H193V304H167.571M142.143 304H116.714M91.2857 304H65.8571M40.4285 304H15V15H40.4285" stroke="black"/>
<path d="M19 23C19.0783 22.6371 19.1578 22.3215 19.2367 22.0532C19.315 21.785 19.4813 21.3985 19.7338 20.8935C20.002 20.3729 20.2939 19.9468 20.6094 19.6154C20.9408 19.2683 21.3905 18.9607 21.9586 18.6924C22.5423 18.4242 23.197 18.2901 23.9229 18.29C25.1536 18.2901 26.1872 18.6924 27.0235 19.4971C27.8754 20.3018 28.3013 21.2958 28.3013 22.4792C28.3013 24.2622 27.2915 26.2108 25.2719 28.3251L21.2957 32.4906H26.9523C27.4887 32.4906 27.8834 32.4039 28.1358 32.2303C28.404 32.041 28.7588 31.6071 29.2007 30.9286L29.5084 31.047L28.2068 34.2894H18.9764V34.0054L23.1892 29.5322C25.2404 27.3548 26.2659 25.3036 26.2659 23.3786C26.2659 22.3846 25.9584 21.5799 25.343 20.9645C24.7277 20.3492 23.9229 20.0415 22.9288 20.0415C22.1083 20.0415 21.4457 20.2703 20.9409 20.7279C20.4517 21.1697 19.9703 21.9665 19.497 23.1183L19 23Z" fill="black"/>
<path d="M187.952 293.579C187.874 293.942 187.794 294.258 187.716 294.526C187.637 294.794 187.471 295.181 187.218 295.686C186.95 296.206 186.658 296.632 186.343 296.964C186.011 297.311 185.562 297.618 184.994 297.887C184.41 298.155 183.755 298.289 183.029 298.289C181.799 298.289 180.765 297.887 179.929 297.082C179.077 296.277 178.651 295.283 178.651 294.1C178.651 292.317 179.661 290.368 181.68 288.254L185.657 284.088H180C179.464 284.088 179.069 284.175 178.816 284.349C178.548 284.538 178.193 284.972 177.752 285.65L177.444 285.532L178.746 282.29H187.976V282.574L183.763 287.047C181.712 289.224 180.686 291.276 180.686 293.201C180.686 294.195 180.994 294.999 181.609 295.615C182.225 296.23 183.029 296.538 184.023 296.538C184.844 296.538 185.507 296.309 186.011 295.851C186.501 295.409 186.982 294.613 187.455 293.461L187.952 293.579Z" fill="black"/>
<path d="M165.436 272.279C169.424 269.43 167.715 258.985 167.715 258.985L165.056 255.376C160.498 240.183 166.765 241.512 166.765 241.512L165.056 232.586C161.828 226.129 166.575 222.521 166.575 222.521L166.385 220.432C169.044 210.746 164.296 200.111 164.296 200.111L163.157 205.049L156.89 216.444L147.014 229.738L140.747 236.954L130.112 253.477L125.934 261.453C125.934 261.453 123.275 277.216 135.049 283.294C135.049 283.294 136.759 289.941 147.584 289.371C147.584 289.371 153.281 291.08 158.029 286.142L161.638 281.395L162.777 276.647L165.436 272.279Z" fill="#FF0000"/>
<path d="M143.471 40.1836C143.471 40.1836 148.037 50.9269 152.602 49.8526C155.825 49.584 154.751 44.4809 154.751 44.4809L144.545 29.4404L143.471 40.1836Z" fill="#FFEEAA"/>
<path d="M166.196 184.727C168.095 180.549 165.436 170.104 165.436 170.104L165.246 165.166C168.285 160.798 165.056 148.644 165.056 148.644C164.106 144.275 163.727 138.768 163.727 138.768V135.349L163.614 122.907C166.032 121.564 165.494 116.192 165.494 116.192C164.151 111.626 160.391 83.6938 160.391 83.6938L158.243 48.2411L154.751 45.2867C153.677 56.8357 145.351 44.481 145.351 44.481C145.351 44.481 146.694 76.4421 144.008 87.7225C144.008 87.7225 140.785 92.0198 142.934 96.5857L141.322 98.4657V101.42L139.711 102.494L141.054 105.717L138.905 115.923L139.979 117.804C139.979 117.804 139.797 121.486 138.278 122.245L135.429 133.64L132.201 140.097L132.96 147.314L137.518 147.884C137.518 147.884 133.91 159.849 135.619 174.282C135.619 174.282 132.391 194.223 132.391 199.351L131.821 201.25L127.073 208.847L126.883 214.924L128.972 216.443C128.972 216.443 123.844 240.563 124.794 250.438L128.592 246.83C128.592 246.83 139.987 230.877 142.456 229.737C142.456 229.737 158.219 210.366 160.498 201.25L161.258 199.351C161.258 199.351 166.006 189.285 166.196 184.727Z" fill="#FF0000"/>
<path d="M150.243 218.343C150.243 218.343 153.471 211.506 149.293 205.428L147.964 202.39L147.394 204.479C147.394 204.479 143.786 208.087 145.495 215.874C145.495 215.874 138.088 216.064 137.518 217.393C137.518 217.393 139.607 224.61 147.774 222.141L150.243 218.343Z" fill="#D4FF2A"/>
<path d="M123.275 110.66C121.565 109.141 120.806 101.544 120.806 101.544L128.402 104.583L127.453 103.064C125.174 97.5561 125.934 86.9209 125.934 86.9209L128.212 93.9477L129.922 89.5797L134.86 86.731C134.86 86.731 133.15 93.5679 130.302 95.657C130.302 95.657 131.061 109.521 138.658 116.548L139.987 118.067L138.848 122.435C138.848 122.435 130.871 114.079 130.871 113.509C130.871 113.509 122.135 116.927 120.806 117.877L123.275 110.66Z" fill="#DDFF55"/>
<path d="M169.804 173.713C169.804 173.713 170.564 168.965 172.463 168.205L173.602 163.837C173.602 163.837 177.211 169.914 176.261 173.902C176.261 173.902 178.54 174.852 179.11 175.991L179.49 176.941L182.718 177.321C182.718 177.321 180.629 183.208 173.602 183.778L170.754 183.018L169.804 173.713Z" fill="#DDFF55"/>
<path d="M125.174 250.438L132.011 242.082L141.317 231.067L149.483 220.432L156.51 209.986L160.688 200.491C160.688 200.491 169.424 185.487 166.006 171.054C166.006 171.054 172.083 173.143 170.564 182.828L165.816 198.022L164.107 200.681C164.107 200.681 159.549 216.254 148.913 227.269L145.305 231.447L136.379 244.171C136.379 244.171 126.883 258.985 126.123 261.833L123.275 259.174L123.465 254.237L125.174 250.438Z" fill="#FFCC00"/>
<path d="M136.379 243.601C136.379 243.601 133.72 250.628 136.949 254.426C136.949 254.426 139.228 257.845 139.228 259.364C139.228 259.364 140.557 253.856 142.266 253.856L147.584 256.135C147.584 256.135 150.053 249.678 144.165 245.88C144.165 245.88 138.848 243.601 139.038 239.613L136.379 243.601Z" fill="#D4FF2A"/>
<path d="M167.715 257.655C169.614 255.376 168.664 250.628 168.664 250.628L166.955 242.082C166.955 242.082 161.068 238.854 163.917 251.578C163.917 251.578 164.866 257.275 167.715 257.655Z" fill="#FFE680"/>
<path d="M169.044 229.737C169.994 227.648 166.955 222.331 166.955 222.331C166.955 222.331 161.828 226.129 165.056 232.396C167.715 233.725 169.044 229.737 169.044 229.737Z" fill="#FFE680"/>
<path d="M42.7506 96.607C39.7119 104.204 45.0296 114.079 45.0296 114.079L57.564 95.2776L64.0211 85.5919L71.6177 74.9566L76.5556 68.1197L83.9623 55.5853C83.9623 55.5853 84.532 41.9114 78.0749 39.0627L72.7572 32.2257L67.6295 29.377H64.7808L59.4631 29.5669L54.7153 31.466L49.7775 35.0744L45.9791 44.3803C45.9791 44.3803 41.0413 49.1282 42.7506 60.713L41.6111 62.0424L40.2817 70.5886L42.1809 75.5264L44.6497 82.3633V87.3012L41.0413 87.491L39.522 91.0994L42.7506 96.607Z" fill="#ABC837"/>
<path d="M78.4547 176.181C79.0244 168.395 72.1874 172.953 72.1874 172.953L73.8967 162.127L74.2765 152.062L76.7454 136.299V118.257L83.3925 109.901L83.5824 103.254L81.4933 100.215L82.8227 80.2739C86.2412 76.0958 83.9622 65.8403 83.9622 65.8403L79.974 70.9681L63.0715 95.847C63.0715 95.847 51.4867 111.99 50.727 115.218C50.727 115.218 41.801 130.032 42.9405 139.338C42.9405 139.338 45.0295 143.136 44.6497 147.504L44.4598 156.43L43.5102 158.519V160.228L45.2195 168.205C45.2195 168.205 44.8396 172.383 46.5489 174.282L47.6884 194.413C47.6884 194.413 43.3203 191.944 44.4598 198.401L47.1186 205.618L48.6379 216.633L51.1069 227.838L52.2463 236.384L53.5757 247.589L54.5253 267.53C54.5253 267.53 60.7926 262.783 65.9203 271.139L64.7807 248.539L67.0597 230.687L68.3891 225.939L70.0984 220.811V219.102L71.4278 217.203L70.6681 213.215L71.6177 201.44C71.6177 201.44 70.858 195.932 72.5673 195.553C72.5673 195.553 73.1371 185.107 76.9354 181.689C76.9354 181.689 78.4547 179.6 78.4547 176.181Z" fill="#ABC837"/>
<path d="M38.0027 136.679L40.4717 144.655L41.991 147.314C41.991 147.314 39.3321 151.112 37.8128 152.442C37.8128 152.442 35.3439 153.391 35.3439 156.62L33.6347 152.822C33.6347 152.822 31.1658 147.314 32.4952 144.086L25.6583 141.997L28.1271 139.338L31.9254 136.299C31.9254 136.299 37.2431 135.919 38.0027 136.679Z" fill="#DDFF55"/>
<path d="M53.9556 267.151L54.3354 271.709C54.3354 271.709 61.5522 278.925 61.932 280.825L65.1606 286.712L68.1992 289.371L68.579 283.863L67.8194 277.786L65.7304 271.139C65.7304 271.139 61.5522 265.441 57.564 266.011L53.9556 267.151Z" fill="#FFDD55"/>
<path d="M88.1404 236.954C86.6211 235.245 82.2531 222.901 82.2531 222.901L79.4043 213.215L76.7455 207.327L72.1875 201.25C70.8581 196.692 72.5674 195.553 72.5674 195.553C72.5674 195.553 82.6329 208.657 83.0127 211.506C83.0127 211.506 84.532 216.064 84.532 217.583L88.1404 236.954Z" fill="#C83737"/>
<path d="M80.7336 218.722L75.416 224.799L75.9858 233.346L80.9236 229.357L81.8732 221.381L80.7336 218.722Z" fill="#DDFF55"/>
<path d="M90.9891 218.153C90.2295 216.633 84.5319 214.734 84.5319 214.734L80.1639 205.618C80.1639 205.618 83.2025 198.591 86.621 197.832L92.1286 195.363L89.8496 205.048L88.9 206.758L90.9891 212.075C90.9891 212.075 92.6984 216.253 90.9891 218.153Z" fill="#D4FF2A"/>
<path d="M42.9405 138.008C42.1808 124.524 59.843 101.165 59.843 101.165L73.1371 80.8437L81.3034 69.4488L86.4311 62.8017C88.3303 58.8135 83.3925 55.585 83.3925 55.585L77.695 66.2202L71.9975 75.1462L68.1992 79.5143L63.0715 87.1109C63.0715 87.1109 45.4094 113.319 45.0296 114.649C45.0296 114.649 38.3826 130.412 38.3826 135.919C38.3826 135.919 38.9523 142.946 40.8514 145.605L44.2699 148.074V143.136L42.9405 138.008Z" fill="#FF2A2A"/>
<path d="M61.9421 40.416C55.9924 42.9977 59.1254 50.3474 58.5337 55.7835C58.4383 65.8653 57.8785 81.8045 57.7783 87.0738C57.9097 87.666 58.0334 89.6476 58.1531 92.195L66.5234 80.2009C66.7212 76.2569 66.8631 72.2079 66.8807 67.9096C65.8012 60.2284 67.3515 42.302 61.9421 40.416Z" fill="#FCE94F"/>
<path d="M65.2299 92.5933L57.7841 103.197C58.2841 121.113 58.647 151.929 58.8212 171.037C59.711 190.71 60.2784 210.386 60.1399 229.925C60.1668 232.206 60.0214 241.888 60.1806 235.08C60.7287 216.463 61.5749 181.063 61.5749 181.063C61.6947 167.258 63.4217 155.419 63.7015 141.661C64.0142 132.726 64.3314 123.823 64.1249 114.74C64.2589 106.817 64.7563 99.7061 65.2299 92.5933Z" fill="#FCE94F"/>
<path d="M152.243 74.1496C152.217 74.1069 152.133 79.9815 152.065 81.6906C151.663 101.226 150.552 120.878 149.119 140.519C148.481 157.859 147.416 185.063 146.48 203.319C146.44 204.102 146.4 204.869 146.36 205.617C145.886 214.583 145.452 220.974 145.134 222.241C145.13 222.534 145.136 223.424 145.134 223.781L153.147 213.237C152.958 208.011 152.801 202.708 152.863 196.942C153.321 187.869 153.251 178.959 153.185 170.019C153.286 156.259 151.886 144.376 152.148 130.572C152.148 130.572 152.281 95.1631 152.247 76.5384C152.254 74.8358 152.252 74.1639 152.243 74.1496Z" fill="#FCE94F"/>
<path d="M153.671 220.644L145.316 230.836C145.322 237.629 145.32 245.285 145.207 251.49C145.648 256.94 142.314 264.199 148.19 266.944C153.65 265.209 152.597 247.247 153.888 239.598C154.047 232.856 153.889 226.704 153.671 220.644Z" fill="#FCE94F"/>
<path d="M83.5772 65.9678L62.0908 97.3917C62.0908 97.3917 37.6499 129.89 44.0959 141.708C44.0959 141.708 45.1702 145.736 44.0959 148.153" stroke="black" stroke-width="1.00845" stroke-linecap="round"/>
<path d="M83.3086 56.0298C83.3086 56.0298 76.8626 68.9217 72.2968 74.0247C72.2968 74.0247 56.4505 95.2426 44.9016 114.849" stroke="black" stroke-width="1.00845" stroke-linecap="round"/>
<path d="M42.4844 90.9453L45.1702 93.094V96.5855" stroke="black" stroke-width="1.00845" stroke-linecap="round"/>
<path d="M74.4455 61.67C73.6397 58.447 69.3424 56.0298 69.3424 56.0298L65.3137 63.5501C65.3137 63.5501 59.4049 63.5501 57.2563 64.3558C57.2563 64.3558 62.0907 72.9504 68.5367 72.1447" stroke="black" stroke-width="1.00845" stroke-linecap="round"/>
<path d="M78.4741 47.7041V60.596" stroke="black" stroke-width="1.00845" stroke-linecap="round"/>
<path d="M70.6853 64.0874L70.9539 73.2191" stroke="black" stroke-width="1.00845" stroke-linecap="round"/>
<path d="M75.2511 63.2817C75.2511 63.2817 74.4454 68.6533 73.1025 69.7277" stroke="black" stroke-width="1.00845" stroke-linecap="round"/>
<path d="M65.3137 64.6245L68.5367 71.0705" stroke="black" stroke-width="1.00845" stroke-linecap="round"/>
<path d="M61.0164 66.2363C61.0164 66.2363 64.7766 67.8478 65.5823 68.9221" stroke="black" stroke-width="1.00845" stroke-linecap="round"/>
<path d="M62.0907 40.9896C62.0907 40.9896 60.7478 31.5892 68.8052 35.618C68.8052 35.618 73.6397 33.4693 73.3711 42.0639" stroke="black" stroke-width="1.00845" stroke-linecap="round"/>
<path d="M80.3543 48.7785C80.3543 48.7785 80.6229 42.8697 76.5942 42.064L75.5198 45.0184C75.5198 45.0184 71.4911 45.0184 74.4455 48.5099C74.4455 48.5099 76.057 50.6586 74.1769 51.4643C74.1769 51.4643 76.8627 53.0758 74.1769 54.6873" stroke="black" stroke-width="1.00845" stroke-linecap="round"/>
<path d="M44.9016 65.9678C44.9016 65.9678 47.8559 71.3394 45.7072 78.3225" stroke="black" stroke-width="1.00845" stroke-linecap="round"/>
<path d="M48.3932 73.2192C48.3932 73.2192 49.1988 78.8595 46.7816 81.2767" stroke="black" stroke-width="1.00845" stroke-linecap="round"/>
<path d="M78.7427 76.1733L76.8627 97.9284C76.8627 97.9284 77.3998 100.346 74.4454 100.346" stroke="black" stroke-width="1.00845" stroke-linecap="round"/>
<path d="M81.4286 72.4136C81.4286 72.4136 81.4285 75.9051 80.6228 78.0538L79.5485 92.2885" stroke="black" stroke-width="1.00845" stroke-linecap="round"/>
<path d="M79.2799 95.2427L78.4741 100.077" stroke="black" stroke-width="1.00845" stroke-linecap="round"/>
<path d="M65.5823 95.5112C65.5823 95.5112 72.8339 96.5855 73.3711 101.957C73.3711 101.957 68.2681 101.689 66.6566 104.643C66.6566 104.643 66.6566 114.58 62.6279 116.729C62.6279 116.729 57.7934 114.043 57.5248 107.866" stroke="black" stroke-width="1.00845" stroke-linecap="round"/>
<path d="M60.7479 103.3L65.0451 104.106" stroke="black" stroke-width="1.00845" stroke-linecap="round"/>
<path d="M62.3593 105.449L62.0908 112.969" stroke="black" stroke-width="1.00845" stroke-linecap="round"/>
<path d="M62.3593 100.883L68.8052 99.8086" stroke="black" stroke-width="1.00845" stroke-linecap="round"/>
<path d="M69.8796 113.506V125.861L68.2681 128.278" stroke="black" stroke-width="1.00845" stroke-linecap="round"/>
<path d="M78.2056 105.986L79.5485 111.089C79.5485 111.089 72.8339 113.506 73.3711 118.072L74.714 119.952" stroke="black" stroke-width="1.00845" stroke-linecap="round"/>
<path d="M64.7766 132.039C64.7766 132.039 65.3137 137.679 69.0739 137.947" stroke="black" stroke-width="1.00845" stroke-linecap="round"/>
<path d="M45.4387 168.565C45.4387 168.565 47.856 170.982 48.3932 155.942" stroke="black" stroke-width="1.00845" stroke-linecap="round"/>
<path d="M46.7816 172.863C46.7816 172.863 50.5417 173.668 50.5417 160.508" stroke="black" stroke-width="1.00845" stroke-linecap="round"/>
<path d="M38.187 136.336C38.187 136.336 39.5299 144.662 41.6786 146.542" stroke="black" stroke-width="1.00845" stroke-linecap="round"/>
<path d="M32.1153 144.086C32.1153 144.086 36.2934 142.376 37.0531 141.617" stroke="black" stroke-width="1.00845" stroke-linecap="round"/>
<path d="M33.0649 139.148C33.0649 139.148 35.3439 139.148 36.6733 139.338" stroke="black" stroke-width="1.00845" stroke-linecap="round"/>
<path d="M36.2935 143.706L35.5338 149.403" stroke="black" stroke-width="1.00845" stroke-linecap="round"/>
<path d="M64.4009 143.706L64.5909 151.682L65.5405 151.872L65.3506 156.43L66.49 157.19" stroke="black" stroke-width="1.00845" stroke-linecap="round"/>
<path d="M63.8312 158.139L66.3001 159.848L66.1102 172.003C66.1102 172.003 66.1102 173.712 67.4396 173.712" stroke="black" stroke-width="1.00845" stroke-linecap="round"/>
<path d="M64.0211 165.546L64.5908 175.421C64.5908 175.421 65.1606 176.751 66.8698 176.751" stroke="black" stroke-width="1.00845" stroke-linecap="round"/>
<path d="M71.048 159.089L70.0984 172.003" stroke="black" stroke-width="1.00845" stroke-linecap="round"/>
<path d="M68.5791 160.418L68.1992 170.484" stroke="black" stroke-width="1.00845" stroke-linecap="round"/>
<path d="M48.0682 194.413C48.0682 194.413 53.7657 204.289 47.1187 205.618" stroke="black" stroke-width="1.00845" stroke-linecap="round"/>
<path d="M72.1875 178.65L73.1371 182.449C73.1371 182.449 70.6682 185.867 70.6682 191.185" stroke="black" stroke-width="1.00845" stroke-linecap="round"/>
<path d="M74.4665 175.422L74.8463 179.79C74.8463 179.79 74.8463 181.499 78.0749 179.79" stroke="black" stroke-width="1.00845" stroke-linecap="round"/>
<path d="M72.1875 194.793C72.1875 194.793 70.0984 196.882 71.8076 201.06" stroke="black" stroke-width="1.00845" stroke-linecap="round"/>
<path d="M80.7336 206.568C80.7336 206.568 83.5824 211.506 84.1522 215.494" stroke="black" stroke-width="1.00845" stroke-linecap="round"/>
<path d="M87.9504 200.87C87.9504 200.87 85.4816 205.808 81.8732 206.378" stroke="black" stroke-width="1.00845" stroke-linecap="round"/>
<path d="M83.3925 208.277C83.3925 208.277 87.1908 207.138 88.9 207.328" stroke="black" stroke-width="1.00845" stroke-linecap="round"/>
<path d="M85.4816 209.606C85.4816 209.606 88.5202 211.696 88.7101 213.785" stroke="black" stroke-width="1.00845" stroke-linecap="round"/>
<path d="M69.9084 181.309L70.2883 183.398C70.2883 183.398 68.769 187.196 68.769 190.615" stroke="black" stroke-width="1.00845" stroke-linecap="round"/>
<path d="M69.5287 193.084L69.3387 197.452" stroke="black" stroke-width="1.00845" stroke-linecap="round"/>
<path d="M66.8698 199.351L66.49 205.049C66.49 205.049 63.2614 206.378 62.8816 207.707" stroke="black" stroke-width="1.00845" stroke-linecap="round"/>
<path d="M69.3387 200.111L68.0093 210.556" stroke="black" stroke-width="1.00845" stroke-linecap="round"/>
<path d="M70.6681 212.835C70.6681 212.835 65.5404 209.606 64.0211 217.773" stroke="black" stroke-width="1.00845" stroke-linecap="round"/>
<path d="M68.3891 216.253C68.3891 216.253 66.1101 218.912 66.6799 220.242C66.6799 220.242 68.769 223.66 65.1606 225.369" stroke="black" stroke-width="1.00845" stroke-linecap="round"/>
<path d="M53.0061 209.037C53.0061 207.138 51.6766 203.529 51.6766 203.529C51.6766 203.529 51.4867 210.366 49.5875 210.746" stroke="black" stroke-width="1.00845" stroke-linecap="round"/>
<path d="M50.1573 171.813L49.7775 176.941" stroke="black" stroke-width="1.00845" stroke-linecap="round"/>
<path d="M65.3506 227.269C65.3506 227.269 66.6799 232.016 62.8816 232.206C62.8816 232.206 64.9707 233.346 64.211 238.663L63.2615 245.5L62.8816 245.69L62.122 260.124" stroke="black" stroke-width="1.00845" stroke-linecap="round"/>
<path d="M60.4128 229.737L60.2228 235.055L62.122 235.625V239.423L61.1724 239.043L61.5522 242.652L60.9825 243.031L60.4128 256.705" stroke="black" stroke-width="1.00845" stroke-linecap="round"/>
<path d="M54.3354 267.151C54.3354 267.151 59.843 262.403 65.7304 271.139" stroke="black" stroke-width="1.00845" stroke-linecap="round"/>
<path d="M64.9707 275.127C64.9707 275.127 60.4127 267.721 59.0833 270.379C59.0833 270.379 58.1337 271.519 60.7925 273.988C60.7925 273.988 63.2615 276.647 63.8312 280.065" stroke="black" stroke-width="1.00845" stroke-linecap="round"/>
<path d="M66.1102 209.796C66.1102 209.796 62.5018 210.936 62.5018 216.064" stroke="black" stroke-width="1.00845" stroke-linecap="round"/>
<path d="M124.224 252.527C124.224 252.527 133.15 240.183 141.886 230.117C141.886 230.117 156.51 212.835 161.258 199.351C161.258 199.351 169.614 185.677 165.626 170.484" stroke="black" stroke-width="1.00845" stroke-linecap="round"/>
<path d="M169.234 172.763C169.234 172.763 171.323 179.79 170.564 183.398" stroke="black" stroke-width="1.00845" stroke-linecap="round"/>
<path d="M171.893 176.941C171.893 176.941 174.362 174.282 174.362 171.813" stroke="black" stroke-width="1.00845" stroke-linecap="round"/>
<path d="M172.463 180.55C172.463 180.55 175.691 180.55 177.021 178.84" stroke="black" stroke-width="1.00845" stroke-linecap="round"/>
<path d="M164.107 200.301C164.107 200.301 163.347 210.936 145.305 231.257C145.305 231.257 132.96 247.59 125.934 262.023" stroke="black" stroke-width="1.00845" stroke-linecap="round"/>
<path d="M139.797 243.411C139.797 243.411 137.708 253.477 147.584 255.756C147.584 255.756 150.053 248.539 143.026 245.69" stroke="black" stroke-width="1.00845" stroke-linecap="round"/>
<path d="M135.619 247.589C135.619 247.589 133.72 251.957 137.708 255.946C137.708 255.946 139.038 257.845 138.848 260.504C138.848 260.504 139.987 254.996 141.127 254.426" stroke="black" stroke-width="1.00845" stroke-linecap="round"/>
<path d="M163.347 217.773C163.347 217.773 162.207 222.901 163.537 225.37" stroke="black" stroke-width="1.00845" stroke-linecap="round"/>
<path d="M166.955 222.331C166.955 222.331 162.207 225.369 164.296 231.826" stroke="black" stroke-width="1.00845" stroke-linecap="round"/>
<path d="M165.436 241.702C165.436 241.702 160.688 241.322 165.246 255.756" stroke="black" stroke-width="1.00845" stroke-linecap="round"/>
<path d="M132.96 270.949C132.96 270.949 132.201 279.116 142.076 281.964" stroke="black" stroke-width="1.00845" stroke-linecap="round"/>
<path d="M147.014 277.406C147.014 277.406 150.053 280.445 147.204 282.344C147.204 282.344 149.103 285.003 144.165 285.003C144.165 285.003 140.557 286.332 137.518 283.104" stroke="black" stroke-width="1.00845" stroke-linecap="round"/>
<path d="M129.922 273.418C129.922 273.418 132.391 278.925 134.29 279.495" stroke="black" stroke-width="1.00845" stroke-linecap="round"/>
<path d="M130.871 257.845C130.871 257.845 132.011 272.088 129.542 270.759" stroke="black" stroke-width="1.00845" stroke-linecap="round"/>
<path d="M137.139 221.381C137.139 221.381 135.429 230.687 135.999 233.916" stroke="black" stroke-width="1.00845" stroke-linecap="round"/>
<path d="M134.1 216.823C134.1 216.823 132.201 231.257 133.53 237.144" stroke="black" stroke-width="1.00845" stroke-linecap="round"/>
<path d="M130.871 223.09C130.871 223.09 129.922 234.865 130.491 240.183" stroke="black" stroke-width="1.00845" stroke-linecap="round"/>
<path d="M147.774 219.672C144.165 213.215 137.518 217.013 137.518 217.013C137.518 217.013 137.898 222.331 145.685 222.711" stroke="black" stroke-width="1.00845" stroke-linecap="round"/>
<path d="M145.305 214.354C145.305 214.354 143.786 208.277 147.774 203.909L147.964 201.63C147.964 201.63 149.863 206.758 150.622 207.137C150.622 207.137 152.712 213.215 150.622 215.304" stroke="black" stroke-width="1.00845" stroke-linecap="round"/>
<path d="M134.1 201.63C134.1 201.63 139.038 200.111 138.848 202.58" stroke="black" stroke-width="1.00845" stroke-linecap="round"/>
<path d="M141.317 210.366L141.696 204.668H144.545C144.545 204.668 143.406 206.947 143.406 209.416" stroke="black" stroke-width="1.00845" stroke-linecap="round"/>
<path d="M136.379 179.22C136.379 179.22 138.468 179.03 138.468 183.208C138.468 183.208 136.569 192.134 137.139 197.642" stroke="black" stroke-width="1.00845" stroke-linecap="round"/>
<path d="M138.848 154.341C138.848 154.341 137.139 165.546 137.898 172.763" stroke="black" stroke-width="1.00845" stroke-linecap="round"/>
<path d="M141.127 156.05C141.127 156.05 139.418 171.054 140.177 176.181C140.177 176.181 141.317 177.701 140.747 182.638" stroke="black" stroke-width="1.00845" stroke-linecap="round"/>
<path d="M145.875 154.531L145.685 169.154" stroke="black" stroke-width="1.00845" stroke-linecap="round"/>
<path d="M139.038 116.548C139.038 116.548 141.127 119.017 138.088 122.815" stroke="black" stroke-width="1.00845" stroke-linecap="round"/>
<path d="M127.263 104.773C127.263 104.773 129.922 110.47 130.491 112.939" stroke="black" stroke-width="1.00845" stroke-linecap="round"/>
<path d="M124.224 106.482C124.414 107.622 126.313 110.661 126.313 110.661L128.023 110.281" stroke="black" stroke-width="1.00845" stroke-linecap="round"/>
<path d="M140.937 107.242C140.937 107.242 146.254 109.711 146.634 102.874" stroke="black" stroke-width="1.00845" stroke-linecap="round"/>
<path d="M159.169 108.191C159.169 108.191 160.498 124.714 163.537 122.625" stroke="black" stroke-width="1.00845" stroke-linecap="round"/>
<path d="M163.917 145.225C163.917 145.225 159.359 143.136 159.738 150.353" stroke="black" stroke-width="1.00845" stroke-linecap="round"/>
<path d="M164.676 147.694C164.676 147.694 160.308 146.175 162.397 156.81" stroke="black" stroke-width="1.00845" stroke-linecap="round"/>
<path d="M147.964 124.334L146.634 127.943L145.685 137.629L144.545 139.528" stroke="black" stroke-width="1.00845" stroke-linecap="round"/>
<path d="M145.685 109.711C145.685 109.711 144.925 120.536 143.216 124.144C143.216 124.144 140.177 131.171 141.886 133.26" stroke="black" stroke-width="1.00845" stroke-linecap="round"/>
<path d="M143.026 110.471C143.026 110.471 142.076 120.726 141.127 122.435C141.127 122.435 139.228 130.222 139.417 132.501" stroke="black" stroke-width="1.00845" stroke-linecap="round"/>
<path d="M145.495 43.8105C145.495 43.8105 150.433 52.1668 153.471 50.2677C153.471 50.2677 155.75 49.1282 154.991 44.5702" stroke="black" stroke-width="1.00845" stroke-linecap="round"/>
<path d="M147.394 38.6826C147.394 38.6826 154.041 45.5196 151.952 47.4187C151.952 47.4187 149.483 46.849 147.964 42.8607" stroke="black" stroke-width="1.00845" stroke-linecap="round"/>
<path d="M148.533 51.5967L152.142 54.0656C152.142 54.0656 149.483 54.6353 149.483 65.8403" stroke="black" stroke-width="1.00845" stroke-linecap="round"/>
<path d="M150.812 69.0688C150.812 69.0688 150.243 72.1075 151.192 75.1462C151.192 75.1462 148.913 76.8554 151.952 79.1344C151.952 79.1344 149.673 80.4638 150.812 83.5024C150.812 83.5024 149.483 86.731 150.243 88.0604C150.243 88.0604 149.293 91.4789 149.293 95.8469" stroke="black" stroke-width="1.00845" stroke-linecap="round"/>
<path d="M161.068 234.675C161.068 234.675 162.207 238.853 161.448 242.272" stroke="black" stroke-width="1.00845" stroke-linecap="round"/>
<path d="M144.355 29.5669L158.409 49.3181C158.409 49.3181 160.688 95.2776 164.866 113.509C164.866 113.509 167.525 120.726 162.967 123.385C162.967 123.385 164.486 136.299 163.347 138.198L164.486 146.935C164.486 146.935 168.717 158.091 165.226 165.074L165.763 170.714C165.763 170.714 168.986 171.789 169.523 174.206C169.523 174.206 170.329 169.103 172.478 167.491L173.283 163.731C173.283 163.731 177.849 169.103 176.506 173.669C176.506 173.669 179.192 175.28 179.461 176.892L183.221 177.429C183.221 177.429 178.386 185.755 170.866 183.338C170.866 183.338 166.837 196.229 164.42 199.99C164.42 199.99 167.643 212.881 166.569 219.865C166.569 219.865 167.643 224.699 168.986 226.579C168.986 226.579 170.866 234.099 164.42 232.219L168.18 246.991C168.18 246.991 170.329 253.706 167.643 258.272C167.643 258.272 168.986 267.941 165.763 271.969C165.763 271.969 162.809 275.729 162.809 277.609C162.809 277.609 158.243 292.113 147.231 289.427C147.231 289.427 137.562 290.233 135.145 283.518C135.145 283.518 124.402 278.684 126.013 261.763C126.013 261.763 121.447 260.689 124.67 252.094C124.67 252.094 125.476 227.922 129.236 216.642L127.087 215.299V208.584L132.19 201.332C132.19 201.332 132.996 184.412 135.682 175.012C135.682 175.012 133.533 157.554 137.562 147.885L132.996 147.616C132.996 147.616 133.265 143.05 132.459 139.29C132.459 139.29 134.876 134.993 135.951 133.919L138.368 122.638C138.368 122.638 130.579 113.775 130.579 112.164C130.579 112.164 131.116 115.655 120.91 117.535C120.91 117.535 121.716 113.507 123.864 111.089C123.864 111.089 120.373 105.718 120.91 102.226C120.91 102.226 126.55 103.3 127.893 105.718C127.893 105.718 124.67 94.7059 125.744 85.037L128.162 93.9001L129.773 89.6028L134.608 86.6485C134.608 86.6485 134.339 93.363 130.31 95.243C130.31 95.243 129.236 106.523 138.905 116.998C138.905 116.998 140.785 111.358 140.785 106.255L139.442 102.763L141.591 101.152C141.591 101.152 140.248 97.6603 142.397 96.8545C142.397 96.8545 141.054 90.9458 144.008 88.2599C144.008 88.2599 146.694 69.4593 145.888 49.0471L145.351 42.8698L144.008 40.7211C144.008 40.7211 144.703 33.7218 144.355 29.5669Z" stroke="black" stroke-width="1.077"/>
<path d="M54.8391 272.238C54.8391 272.238 62.8965 280.295 63.4337 284.055C63.4337 284.055 65.8509 288.352 68.2681 289.158C68.2681 289.158 69.8796 283.249 66.388 272.775C66.388 272.775 62.8965 251.557 67.1938 232.756L67.9996 227.116C67.9996 227.116 70.4167 223.893 69.8796 219.596C69.8796 219.596 72.834 217.716 70.6854 212.613L71.7597 201.064C71.7597 201.064 79.8171 208.315 80.6228 218.79L74.9826 225.236C74.9826 225.236 75.5198 231.413 76.0569 233.562C76.0569 233.562 80.0857 230.608 80.8914 228.996L81.4286 220.939L84.383 229.802C84.383 229.802 86.8002 236.516 90.2917 240.814C90.2917 240.814 86.5316 230.876 86.2631 227.922C86.2631 227.922 84.1144 215.298 83.8458 214.224C83.8458 214.224 91.0975 216.641 91.6346 220.133C91.6346 220.133 92.1718 210.195 88.6803 207.51L90.2917 204.824L91.6346 195.692L85.1887 198.646C85.1887 198.646 80.6228 201.332 80.6228 206.704C80.6228 206.704 75.5198 197.841 72.5654 195.692C72.5654 195.692 71.7597 187.903 77.937 180.383C77.937 180.383 81.16 170.983 74.9826 171.251L72.5654 172.594C72.5654 172.594 74.7141 158.359 74.4455 152.182C74.4455 152.182 77.9371 129.621 76.5941 121.564V118.072L83.3086 110.015V103.032L81.6972 100.077L82.7715 81.5452C82.7715 81.5452 85.4573 74.0249 84.1144 66.2361L86.5316 62.2073C86.5316 62.2073 87.6059 57.6415 84.1144 56.2986L83.5772 48.5097C83.5772 48.5097 81.6971 40.1837 77.3998 39.1094C77.3998 39.1094 72.2968 28.6348 65.8509 29.7091C65.8509 29.7091 50.0046 25.6804 46.5131 43.9439C46.5131 43.9439 40.8729 49.0469 42.7529 60.5959C42.7529 60.5959 37.9184 66.7732 43.2901 78.5908C43.2901 78.5908 45.1702 84.7681 44.633 87.7225C44.633 87.7225 35.7699 85.0367 42.4844 96.8543C42.4844 96.8543 41.1415 108.94 44.9016 114.581C44.9016 114.581 37.9185 131.77 38.187 136.873C38.187 136.873 32.5469 132.844 26.9067 140.902L24.758 142.244C24.758 142.244 30.9354 142.513 32.0097 144.125C32.0097 144.125 30.9354 151.913 34.4269 153.256L34.9641 156.479C34.9641 156.479 37.1127 151.645 38.4556 151.645C38.4556 151.645 41.6786 149.765 41.6786 147.079L44.633 148.422L44.0958 157.016C44.0958 157.016 41.6786 157.016 45.1702 168.834C45.1702 168.834 44.9016 172.594 47.0503 174.206L47.5874 194.081C47.5874 194.081 41.1415 192.738 47.0503 206.435C47.0503 206.435 48.9303 220.939 51.079 227.385C51.079 227.385 54.0333 251.288 53.7647 256.123C53.7647 256.123 54.0333 270.358 54.8391 272.238Z" stroke="black" stroke-width="1.077"/>
<path d="M74.4307 122.988C74.4307 122.988 74.132 136.13 73.5346 138.819" stroke="black" stroke-width="0.9" stroke-linecap="round"/>
<path d="M72.6386 142.104C72.6386 142.104 71.1451 154.052 71.4438 155.545" stroke="black" stroke-width="0.9" stroke-linecap="round"/>
<path d="M68.457 154.948L69.353 141.208L71.7425 138.221L70.5478 134.339L70.8464 129.56" stroke="black" stroke-width="0.9" stroke-linecap="round"/>
<path d="M74.4307 102.379V108.652C74.4307 108.652 71.7425 111.34 71.7425 112.535" stroke="black" stroke-width="0.9" stroke-linecap="round"/>
<path d="M79.807 102.379L81.3004 108.054" stroke="black" stroke-width="0.9" stroke-linecap="round"/>
<path d="M65.7688 180.037L67.2622 183.024C67.2622 183.024 64.5741 189.894 65.7688 195.569" stroke="black" stroke-width="0.9" stroke-linecap="round"/>
<path d="M72.3399 120.001L71.7425 127.767" stroke="black" stroke-width="0.9" stroke-linecap="round"/>
<path d="M75.6254 80.5752L74.4307 96.4055" stroke="black" stroke-width="0.9" stroke-linecap="round"/>
<path d="M81.3004 50.4077L81.0017 57.5762" stroke="black" stroke-width="0.9" stroke-linecap="round"/>
<path d="M74.7294 56.6802L77.1188 62.9526" stroke="black" stroke-width="0.9" stroke-linecap="round"/>
<path d="M63.678 219.763C63.678 219.763 62.1846 224.243 62.4833 227.529" stroke="black" stroke-width="0.9" stroke-linecap="round"/>
<path d="M134.168 204.828C134.168 204.828 136.557 209.906 131.181 215.282" stroke="black" stroke-width="0.9" stroke-linecap="round"/>
<path d="M139.245 205.724L136.856 214.386" stroke="black" stroke-width="0.9" stroke-linecap="round"/>
<path d="M140.44 197.062L141.037 185.414C141.037 185.414 144.024 183.622 144.024 180.635" stroke="black" stroke-width="0.9" stroke-linecap="round"/>
<path d="M143.128 162.415L142.83 176.155" stroke="black" stroke-width="0.9" stroke-linecap="round"/>
<path d="M138.349 135.533L140.141 143L139.245 145.688" stroke="black" stroke-width="0.9" stroke-linecap="round"/>
<path d="M141.336 136.728C141.336 136.728 144.323 146.883 139.843 150.766" stroke="black" stroke-width="0.9" stroke-linecap="round"/>
<path d="M145.816 140.91L142.83 152.26L143.128 157.337" stroke="black" stroke-width="0.9" stroke-linecap="round"/>
<path d="M143.128 189.296L142.232 199.75L140.141 200.348" stroke="black" stroke-width="0.9" stroke-linecap="round"/>
<path d="M139.544 224.243L138.947 229.918" stroke="black" stroke-width="0.9" stroke-linecap="round"/>
<path d="M132.077 253.812C132.077 253.812 134.765 261.877 133.57 267.552" stroke="black" stroke-width="0.9" stroke-linecap="round"/>
<path d="M128.493 260.085L128.791 266.059" stroke="black" stroke-width="0.9" stroke-linecap="round"/>
<path d="M147.907 111.638L146.115 124.183" stroke="black" stroke-width="0.9" stroke-linecap="round"/>
<path d="M147.907 79.9775L146.414 97.6L148.803 101.782" stroke="black" stroke-width="0.9" stroke-linecap="round"/>
<path d="M147.609 67.1343L147.31 76.9909" stroke="black" stroke-width="0.9" stroke-linecap="round"/>
<path d="M145.816 174.959C145.816 174.959 147.31 183.621 145.219 186.31" stroke="black" stroke-width="0.9" stroke-linecap="round"/>
<defs>
<linearGradient id="paint0_linear_2689_27037" x1="135.067" y1="148.459" x2="-384.797" y2="148.459" gradientUnits="userSpaceOnUse">
<stop stop-color="white"/>
<stop offset="1" stop-color="#CCCCCC"/>
</linearGradient>
</defs>
</svg>
