<svg width="208" height="319" viewBox="0 0 208 319" fill="none" xmlns="http://www.w3.org/2000/svg">
<path d="M192.5 0.5H15.5C7.21573 0.5 0.5 7.21573 0.5 15.5V303.5C0.5 311.784 7.21573 318.5 15.5 318.5H192.5C200.784 318.5 207.5 311.784 207.5 303.5V15.5C207.5 7.21573 200.784 0.5 192.5 0.5Z" fill="url(#paint0_linear_2689_26672)" stroke="black" stroke-linecap="square"/>
<path d="M65.8571 15H91.2857M116.714 15H142.143M167.571 15H193V304H167.571M142.143 304H116.714M91.2857 304H65.8571M40.4285 304H15V15H40.4285" stroke="black"/>
<path d="M31.3876 28.0482V29.563H28.9736V33.5157H27.151V29.563H20.5001V28.0482L27.932 17.5156H28.9736V28.0482H31.3876ZM27.1272 28.0482V19.9298L21.4468 28.0482H27.1272Z" fill="black"/>
<path d="M178.612 286.983V285.468H181.026V281.515H182.849V285.468H189.499V286.983L182.067 297.515H181.026V286.983H178.612ZM182.872 286.983V295.101L188.553 286.983H182.872Z" fill="black"/>
<path d="M66.634 53.1781C64.862 50.2675 63.7015 44.5338 63.7015 44.5338C63.8627 41.0102 66.7384 41.3168 66.7384 41.3168C66.7384 41.3168 70.8219 42.5269 70.8312 46.8212L71.1566 49.2862L72.6406 51.5398L72.6386 53.2791L70.4932 54.7922L68.292 54.7823L66.634 53.1781Z" fill="#FFDD55" stroke="black" stroke-width="0.320521"/>
<path d="M78.3034 71.9639C78.785 67.5692 74.2021 64.5434 74.2021 64.5434C71.4307 64.4967 70.722 68.6566 70.722 68.6566L70.8437 69.5012L73.0147 73.7366C73.0147 73.7366 73.4095 78.5401 75.6744 79.611C75.6744 79.611 77.1421 80.4103 78.3028 78.4594C78.3028 78.4594 78.8779 77.3956 77.8373 75.4348L78.3034 71.9639Z" fill="#FFDD55" stroke="black" stroke-width="0.320521"/>
<path d="M63.9857 82.9749C62.2321 79.7792 59.5633 78.4841 59.5633 78.4841C59.5633 78.4841 57.053 77.4635 56.1328 80.4648C56.1328 80.4648 56.0862 83.2361 57.6041 84.2808L58.5704 85.0037L59.1646 86.0328L60.1782 86.3625C60.1782 86.3625 62.7105 90.1148 64.6133 89.2907C64.6133 89.2907 67.3605 88.345 63.9857 82.9749Z" fill="#FFDD55" stroke="black" stroke-width="0.320521"/>
<path d="M90.7322 113.456C93.7977 108.942 90.1725 104.723 90.1725 104.723C89.4305 103.596 87.0581 104.874 87.0581 104.874C84.1609 107.462 87.042 112.293 87.042 112.293C85.435 113.313 87.1101 118.749 87.1101 118.749C87.1101 118.749 86.9001 122.347 87.7765 122.756C87.7765 122.756 88.4365 123.106 89.2095 122.386L89.9373 120.319L90.2216 117.959L90.4635 114.892L90.7322 113.456Z" fill="#FFDD55" stroke="black" stroke-width="0.320521"/>
<path d="M81.2471 89.7338C81.261 86.6208 77.4557 80.926 77.4557 80.926L78.3134 78.4902C77.3153 79.0584 77.9034 79.7484 75.324 79.6987C75.1036 79.4662 75.0286 79.0944 74.744 78.8721C73.7226 78.0738 73.4761 76.2875 73.0338 73.8557C72.8826 73.0247 72.0779 71.9862 71.4591 70.7945C71.1115 70.1252 70.6312 69.4041 70.7409 68.6512C70.9544 67.1861 71.125 66.3715 71.8305 65.4665C72.7623 64.2711 74.2552 64.4028 74.2552 64.4028L71.5092 56.2852L72.5384 53.3622L70.3218 54.9007C67.6569 55.663 65.9163 51.7518 65.9163 51.7518L64.6237 48.6168L63.8054 45.8549C63.2852 41.3685 66.5512 41.4234 66.5512 41.4234C64.0853 33.791 58.2053 30.329 58.2053 30.329C56.0834 25.0853 48.2559 24.3003 48.2559 24.3003L43.9225 24.8616L37.6485 26.5433L36.3501 28.3279C32.898 30.1916 31.0595 35.5223 31.0595 35.5223C28.7699 42.5367 32.5504 51.9977 32.5504 51.9977L34.216 54.6585C34.6612 57.8945 45.2349 66.7972 45.2349 66.7972C46.6284 70.7794 55.8846 80.3134 55.8846 80.3134C55.8846 80.3134 57.9102 76.427 61.0093 79.554C61.0093 79.554 65.5309 83.8002 65.614 86.8572C65.614 86.8572 65.9021 89.149 64.0285 89.7132L73.0277 100.819L78.2515 106.729L82.4491 113.103L86.8036 120.422L87.3668 118.932C87.3668 118.932 85.6331 113.464 87.1145 112.221C87.1145 112.221 83.5402 105.358 88.4558 104.46L90.0683 104.564L89.7582 103.579L87.9996 101.878L86.1139 99.732L84.8405 97.7504L83.2719 95.0335L81.2471 89.7338Z" fill="#AAD400" stroke="black" stroke-width="0.320521"/>
<path d="M89.3406 103.282C89.3406 103.282 83.0466 97.7674 81.3389 89.4223C81.3389 89.4223 79.03 82.888 77.6252 80.7716C77.6252 80.7716 79.5194 78.0314 77.7185 75.2289C77.7185 75.2289 80.5194 68.6719 74.3103 64.5723C74.3103 64.5723 71.5472 57.5683 71.4623 56.1536C71.4623 56.1536 73.9789 51.9562 71.7508 50.3153C71.7508 50.3153 70.7209 48.5314 71.0533 48.1565C71.0533 48.1565 71.363 42.6718 66.7384 41.3167C66.7384 41.3167 63.3416 33.2149 58.4948 30.5243C58.4948 30.5243 54.2535 22.5442 45.6551 24.764C45.6551 24.764 38.0909 25.2891 36.2179 28.383C36.2179 28.383 28.634 33.3105 30.5327 44.8386C30.5327 44.8386 31.4694 52.1652 34.1517 54.2758C37.2257 59.3522 41.0977 62.2631 43.6117 67.2303C43.6117 67.2303 47.159 73.0846 56.1618 80.3562C56.1618 80.3562 55.7615 83.1488 58.2641 84.6313C58.2641 84.6313 59.3732 86.5524 60.2178 86.4307C60.2178 86.4307 62.3936 89.5656 64.0247 89.5387L72.8596 100.722C72.8596 100.722 78.3883 106.495 79.1438 108.437C79.1438 108.437 85.2752 117.155 86.9814 120.744C86.9814 120.744 87.5183 124.368 89.2385 122.277C89.2385 122.277 90.9183 117.74 90.3078 115.256L90.4896 114.145C90.4896 114.145 92.6342 110.254 91.5299 107.232C91.5348 106.132 89.3406 103.282 89.3406 103.282Z" fill="#ABC837" stroke="black"/>
<path d="M74.1308 72.8179C73.0323 71.0736 73.3562 68.7826 73.3562 68.7826C74.4928 65.8393 75.7371 69.4205 75.7371 69.4205C75.7371 69.4205 72.8836 68.598 74.7271 72.1077L75.329 72.675L75.7627 75.1691C75.7627 75.1691 75.2265 73.9235 75.4882 75.3275L74.1308 72.8179Z" fill="black" stroke="black" stroke-width="0.320521"/>
<path d="M59.5931 80.754C59.5931 80.754 57.5948 79.9866 57.8382 81.6757L58.5328 83.1958L60.9986 85.2484C60.9986 85.2484 60.6654 83.2452 59.0392 82.1715C59.0392 82.1715 57.9436 81.066 59.5931 80.754Z" fill="black" stroke="black" stroke-width="0.320521"/>
<path d="M88.5203 113.269L89.2849 110.632C89.2849 110.632 88.3151 106.893 89.6697 108.764L90.1846 109.655L90.3268 108.476C90.3268 108.476 89.7298 106.808 88.9326 106.536C88.9326 106.536 87.1091 107.497 88.5853 110.213C88.5853 110.213 87.4961 112.763 88.5203 113.269Z" fill="black" stroke="black" stroke-width="0.320521"/>
<path d="M33.9428 44.8823C33.9428 44.8823 36.0777 52.066 38.6171 52.9784" stroke="black" stroke-width="0.544886" stroke-linecap="round"/>
<path d="M32.9724 47.6382C32.9724 47.6382 34.7493 49.4482 34.866 51.3934C34.866 51.3934 35.7673 55.1727 39.0691 55.1875" stroke="black" stroke-width="0.544886" stroke-linecap="round"/>
<path d="M38.1036 56.8425C38.1036 56.8425 39.3733 57.2987 39.9561 55.7729" stroke="black" stroke-width="0.544886" stroke-linecap="round"/>
<path d="M39.0041 58.2441C39.0041 58.2441 40.2052 58.7399 40.8884 57.7051" stroke="black" stroke-width="0.544886" stroke-linecap="round"/>
<path d="M41.4932 58.911C41.4932 58.911 42.1899 58.6917 43.0614 60.2012C43.0614 60.2012 43.2362 61.9299 45.448 62.1166" stroke="black" stroke-width="0.544886" stroke-linecap="round"/>
<path d="M41.1665 60.5635L42.5869 61.756C42.5869 61.756 43.9308 63.45 44.9918 63.3864" stroke="black" stroke-width="0.544886" stroke-linecap="round"/>
<path d="M45.9687 64.286L46.6229 63.3594" stroke="black" stroke-width="0.544886" stroke-linecap="round"/>
<path d="M47.7292 64.6416L47.1832 65.5972" stroke="black" stroke-width="0.544886" stroke-linecap="round"/>
<path d="M48.2046 65.4648L47.9832 66.5075" stroke="black" stroke-width="0.544886" stroke-linecap="round"/>
<path d="M49.6066 66.9424L49.5146 68.3677" stroke="black" stroke-width="0.544886" stroke-linecap="round"/>
<path d="M53.2873 35.3677C53.2873 35.3677 53.5829 37.7844 52.6782 39.0184" stroke="black" stroke-width="0.544886" stroke-linecap="round"/>
<path d="M44.9759 27.3584C44.9759 27.3584 47.7978 27.5404 48.7401 26.9316C48.7401 26.9316 53.7703 28.3615 54.5081 30.1996" stroke="black" stroke-width="0.544886" stroke-linecap="round"/>
<path d="M51.421 29.7827C51.421 29.7827 54.8277 31.7618 51.03 32.4666" stroke="black" stroke-width="0.544886" stroke-linecap="round"/>
<path d="M45.7471 28.9182C45.7471 28.9182 47.3447 28.7721 47.4922 29.1397C47.4922 29.1397 48.617 27.3906 49.8235 29.9285" stroke="black" stroke-width="0.544886" stroke-linecap="round"/>
<path d="M54.5411 34.5146C54.5411 34.5146 59.0601 36.6277 57.7002 38.6419" stroke="black" stroke-width="0.544886" stroke-linecap="round"/>
<path d="M54.7197 32.4707C54.7197 32.4707 58.649 34.7949 58.9011 35.2315C58.9011 35.2315 62.1607 38.5245 62.0067 41.395" stroke="black" stroke-width="0.544886" stroke-linecap="round"/>
<path d="M56.4532 31.6641C56.4532 31.6641 59.5312 33.186 60.8047 35.1676C60.8047 35.1676 63.3591 39.2558 63.5667 40.6238" stroke="black" stroke-width="0.544886" stroke-linecap="round"/>
<path d="M66.7384 41.3166C66.7384 41.3166 63.1936 41.0977 63.7979 45.7297L64.5527 48.2695C64.5527 48.2695 67.1578 59.056 72.4619 53.3415" stroke="black" stroke-width="0.544886" stroke-linecap="round"/>
<path d="M70.6251 46.5753L69.3638 47.3035C69.3638 47.3035 67.4865 42.3714 66.5133 45.3915C66.5133 45.3915 66.3943 46.7539 67.2681 47.9312C67.2681 47.9312 66.1452 50.132 69.2198 52.4322" stroke="black" stroke-width="0.544886" stroke-linecap="round"/>
<path d="M71.0533 48.1567L69.874 49.5316" stroke="black" stroke-width="0.544886" stroke-linecap="round"/>
<path d="M59.447 43.9077C59.447 43.9077 60.2607 44.0848 60.7439 43.353" stroke="black" stroke-width="0.544886" stroke-linecap="round"/>
<path d="M59.0858 40.8174C59.0858 40.8174 60.1271 40.6043 59.9905 39.5835" stroke="black" stroke-width="0.544886" stroke-linecap="round"/>
<path d="M61.0095 45.2697C61.0095 45.2697 62.1834 45.1741 62.0448 43.7017" stroke="black" stroke-width="0.544886" stroke-linecap="round"/>
<path d="M60.7695 47.543C60.7695 47.543 61.4772 48.8809 60.8615 49.4951C60.8615 49.4951 62.1159 50.3233 61.3287 51.4247" stroke="black" stroke-width="0.544886" stroke-linecap="round"/>
<path d="M63.704 49.6006L63.1348 49.7351C63.1348 49.7351 65.085 55.466 67.1437 55.8945C67.1437 55.8945 68.7303 56.4017 69.2229 56.2466C69.2229 56.2466 70.3473 59.0905 70.3773 59.5907C70.3773 59.5907 71.5878 63.0318 71.5823 63.3584" stroke="black" stroke-width="0.544886" stroke-linecap="round"/>
<path d="M63.8081 54.2627C63.8081 54.2627 65.1921 57.6683 68.2922 57.8838C68.2922 57.8838 69.6511 58.781 67.731 59.8249C67.731 59.8249 70.8536 60.4156 68.4428 62.0661" stroke="black" stroke-width="0.544886" stroke-linecap="round"/>
<path d="M68.2043 63.1095C68.2043 63.1095 69.5052 63.4581 70.412 62.6758" stroke="black" stroke-width="0.544886" stroke-linecap="round"/>
<path d="M68.1003 64.7222C68.1003 64.7222 69.6328 65.5839 70.4781 65.0312" stroke="black" stroke-width="0.544886" stroke-linecap="round"/>
<path d="M68.2819 66.4932L69.5628 68.5998C69.5628 68.5998 68.4645 71.6273 70.9234 74.5417" stroke="black" stroke-width="0.544886" stroke-linecap="round"/>
<path d="M78.1221 69.8678C77.3223 66.5778 74.3102 64.5723 74.3102 64.5723C71.0206 64.2149 70.7742 69.1292 70.7742 69.1292L72.7165 73.0535L73.1086 73.7327C73.1086 73.7327 73.1867 78.7978 75.6915 79.551C75.6915 79.551 77.6702 80.7374 78.4009 77.8574" stroke="black" stroke-width="0.544886" stroke-linecap="round"/>
<path d="M75.9146 76.5762C74.8932 75.0312 74.7471 73.4337 74.7471 73.4337C73.035 71.2526 73.167 69.6886 73.167 69.6886C73.9867 64.946 75.9254 69.6485 75.9254 69.6485C75.9254 69.6485 73.5586 68.6862 74.3879 70.7949C74.3879 70.7949 74.491 72.0938 75.3628 72.8195C75.3628 72.8195 75.3688 74.1745 75.9161 75.3463" stroke="black" stroke-width="0.544886" stroke-linecap="round"/>
<path d="M71.295 75.2974C71.295 75.2974 72.7117 81.3363 75.9572 81.4678C75.9572 81.4678 76.0848 83.5935 76.63 84.3137" stroke="black" stroke-width="0.544886" stroke-linecap="round"/>
<path d="M69.7631 76.1172L70.2262 77.1435" stroke="black" stroke-width="0.544886" stroke-linecap="round"/>
<path d="M70.6334 78.0728C70.6334 78.0728 71.8364 81.3888 73.5049 81.5899" stroke="black" stroke-width="0.544886" stroke-linecap="round"/>
<path d="M73.5109 82.9448L74.8324 83.2169C74.8324 83.2169 75.024 87.2462 76.5346 89.4144" stroke="black" stroke-width="0.544886" stroke-linecap="round"/>
<path d="M66.7889 90.1249C66.7889 90.1249 67.5796 88.2452 67.6317 87.439" stroke="black" stroke-width="0.544886" stroke-linecap="round"/>
<path d="M68.0734 91.4529C68.0734 91.4529 68.9146 89.997 69.0021 89.3643" stroke="black" stroke-width="0.544886" stroke-linecap="round"/>
<path d="M56.1617 80.3562C56.1617 80.3562 57.339 76.1098 61.3919 79.6564C61.3919 79.6564 69.1621 87.6251 64.0247 89.5387" stroke="black" stroke-width="0.544886" stroke-linecap="round"/>
<path d="M69.8764 92.2231L69.4308 93.5801L71.6677 96.558L72.1863 95.9998" stroke="black" stroke-width="0.544886" stroke-linecap="round"/>
<path d="M61.5601 86.2221C60.9999 85.2518 59.5979 84.0559 59.5979 84.0559C58.239 83.1586 57.8373 81.9028 57.8373 81.9028C57.4105 79.1741 60.168 81.0099 60.168 81.0099C60.168 81.0099 58.0123 80.6373 58.7201 81.9753C58.7201 81.9753 60.5252 83.1971 61.194 85.1397" stroke="black" stroke-width="0.544886" stroke-linecap="round"/>
<path d="M63.7329 87.2963C64.6602 86.4375 63.2487 84.6649 63.2487 84.6649L62.7765 84.7435L61.4805 82.3867L61.4305 83.6447C61.4305 83.6447 62.8495 85.5422 62.9916 86.2364" stroke="black" stroke-width="0.544886" stroke-linecap="round"/>
<path d="M76.8451 85.8066L79.243 90.6322L78.6553 91.2949" stroke="black" stroke-width="0.544886" stroke-linecap="round"/>
<path d="M75.8389 90.7861L76.8192 92.4842L79.24 93.0918L79.8557 92.4776" stroke="black" stroke-width="0.544886" stroke-linecap="round"/>
<path d="M80.418 93.8999C80.418 93.8999 84.8626 102.719 87.2144 103.431" stroke="black" stroke-width="0.544886" stroke-linecap="round"/>
<path d="M78.5894 95.2144C78.5894 95.2144 79.6012 96.1827 80.4335 95.8315" stroke="black" stroke-width="0.544886" stroke-linecap="round"/>
<path d="M80.404 97.0127L83.8473 102.528" stroke="black" stroke-width="0.544886" stroke-linecap="round"/>
<path d="M74.4826 98.2969L74.2236 99.4168" stroke="black" stroke-width="0.544886" stroke-linecap="round"/>
<path d="M73.3382 97.2109L72.9466 98.2132" stroke="black" stroke-width="0.544886" stroke-linecap="round"/>
<path d="M75.5545 100.265C75.5545 100.265 78.1089 104.353 78.9657 104.829" stroke="black" stroke-width="0.544886" stroke-linecap="round"/>
<path d="M86.9814 120.744L87.2417 118.939C87.2417 118.939 85.6481 113.714 86.9205 112.333C86.9205 112.333 84.1564 106.425 87.4835 104.569C87.4835 104.569 89.5156 103.719 90.55 105.062" stroke="black" stroke-width="0.544886" stroke-linecap="round"/>
<path d="M88.29 117.17C88.6051 116.147 88.0764 114.447 88.0764 114.447C87.1576 112.519 88.7471 110.567 88.7471 110.567L88.5995 110.199C87.3315 107.891 88.2233 106.859 88.2233 106.859C89.5367 105.324 90.2805 108.517 90.2805 108.517L90.167 109.553L89.4667 108.34C89.4667 108.34 88.1228 107.693 89.4003 110.578C89.4003 110.578 88.0664 112.189 88.511 113.743" stroke="black" stroke-width="0.544886" stroke-linecap="round"/>
<path d="M61.3404 70.7325C65.1333 75.6902 68.7078 80.7938 71.7827 86.1785C72.1709 86.7874 73.6428 89.4908 72.6464 87.5644C69.9984 82.2464 64.8313 72.2217 64.8313 72.2217C62.6734 68.4072 61.9226 64.4036 59.8809 60.5301C58.6436 57.9553 57.4138 55.3871 55.8011 53.0064C53.3941 48.5349 52.517 44.2989 49.9624 39.9037C47.9859 38.2981 46.1273 32.7165 42.1597 34.6416C38.5508 38.0274 41.8635 38.6169 42.3445 40.3644C43.9145 43.1539 46.1217 47.7474 46.9084 49.2279C48.1153 49.894 56.7941 63.4872 61.3404 70.7325Z" fill="#FCE94F"/>
<path d="M161.432 66.5229C163.067 63.533 167.452 59.6612 167.452 59.6612C170.584 58.039 171.757 60.6827 171.757 60.6827C171.757 60.6827 172.75 64.8242 169.036 66.9793L167.064 68.4937L165.854 70.9057L164.347 71.7735L161.964 70.6722L160.872 68.7609L161.432 66.5229Z" fill="#FFDD55" stroke="black" stroke-width="0.320521"/>
<path d="M150.998 86.0217C155.045 84.2414 155.374 78.7596 155.374 78.7596C154.028 76.3362 150.071 77.8024 150.071 77.8024L149.401 78.3301L146.818 82.3279C146.818 82.3279 142.856 85.0716 143.061 87.5685C143.061 87.5685 143.102 89.2392 145.372 89.269C145.372 89.269 146.581 89.235 147.759 87.3536L150.998 86.0217Z" fill="#FFDD55" stroke="black" stroke-width="0.320521"/>
<path d="M134.303 79.1275C136.194 76.0111 135.981 73.0523 135.981 73.0523C135.981 73.0523 135.61 70.3679 132.551 71.0716C132.551 71.0716 130.127 72.417 129.982 74.2539L129.839 75.4521L129.245 76.4813L129.466 77.5239C129.466 77.5239 127.483 81.5932 129.148 82.8289C129.148 82.8289 131.34 84.7352 134.303 79.1275Z" fill="#FFDD55" stroke="black" stroke-width="0.320521"/>
<path d="M121.279 117.531C126.721 117.929 128.563 112.68 128.563 112.68C129.167 111.474 126.874 110.058 126.874 110.058C123.185 108.843 120.441 113.754 120.441 113.754C118.755 112.872 114.884 117.041 114.884 117.041C114.884 117.041 111.663 118.658 111.748 119.621C111.748 119.621 111.774 120.368 112.785 120.677L114.938 120.274L117.124 119.341L119.901 118.017L121.279 117.531Z" fill="#FFDD55" stroke="black" stroke-width="0.320521"/>
<path d="M137.081 97.4559C139.783 95.9115 142.813 89.7686 142.813 89.7686L145.351 89.2935C144.36 88.7131 144.056 89.5675 142.81 87.3088C142.901 87.0017 143.185 86.7509 143.236 86.3932C143.416 85.1095 144.84 84.0029 146.725 82.404C147.369 81.8575 147.866 80.6414 148.588 79.5096C148.994 78.874 149.379 78.0974 150.086 77.816C151.461 77.2683 152.252 77.0088 153.388 77.1672C154.89 77.3765 155.522 78.7353 155.522 78.7353L161.179 72.2983L164.225 71.7282L161.784 70.5778C159.792 68.6511 162.308 65.188 162.308 65.188L164.377 62.5012L166.36 60.4115C169.985 57.7178 171.571 60.5737 171.571 60.5737C176.948 54.6219 177.006 47.7987 177.006 47.7987C180.486 43.3393 177.252 36.1679 177.252 36.1679L174.599 32.6957L170.006 28.1031L167.811 27.871C164.471 25.8132 158.935 26.8865 158.935 26.8865C151.716 28.4108 145.413 36.4153 145.413 36.4153L143.941 39.1881C141.361 41.1917 138.938 54.8001 138.938 54.8001C136.186 57.9981 132.558 70.7812 132.558 70.7812C132.558 70.7812 136.936 70.5922 135.778 74.8395C135.778 74.8395 134.361 80.8785 131.755 82.4789C131.755 82.4789 129.915 83.8744 128.489 82.5339L123.371 95.8801L120.864 103.359L117.443 110.182L113.282 117.612L114.854 117.355C114.854 117.355 118.722 113.12 120.54 113.781C120.54 113.781 124.696 107.254 127.931 111.062L128.647 112.511L129.346 111.749L129.94 109.376L130.855 106.67L131.935 104.576L133.503 101.859L137.081 97.4559Z" fill="#AAD400" stroke="black" stroke-width="0.320521"/>
<path d="M129.394 111.24C129.394 111.24 131.023 103.032 137.396 97.3801C137.396 97.3801 141.901 92.1134 143.031 89.8386C143.031 89.8386 146.351 90.1089 147.878 87.148C147.878 87.148 154.957 86.2952 155.403 78.8681C155.403 78.8681 160.087 72.9733 161.269 72.1924C161.269 72.1924 166.163 72.2731 166.47 69.523C166.47 69.523 167.5 67.7392 167.991 67.8396C167.991 67.8396 172.895 65.3655 171.757 60.6829C171.757 60.6829 177.075 53.6903 176.981 48.1476C176.981 48.1476 181.772 40.4844 175.55 34.1479C175.55 34.1479 171.313 27.8596 167.697 27.7846C167.697 27.7846 159.638 23.6804 150.604 31.0888C150.604 31.0888 144.727 35.5633 144.24 38.9415C141.381 44.1419 140.796 48.9506 137.751 53.6114C137.751 53.6114 134.455 59.6106 132.659 71.043C132.659 71.043 130.041 72.0927 130.008 75.0012C130.008 75.0012 128.899 76.9223 129.426 77.5929C129.426 77.5929 127.799 81.0447 128.638 82.4438L123.371 95.6865C123.371 95.6865 121.136 103.361 119.831 104.986C119.831 104.986 115.347 114.656 113.092 117.928C113.092 117.928 110.222 120.205 112.893 120.649C112.893 120.649 117.662 119.835 119.508 118.064L120.561 117.666C120.561 117.666 125.003 117.578 127.068 115.111C128.024 114.565 129.394 111.24 129.394 111.24Z" fill="#FF0000" stroke="black"/>
<path d="M148.172 82.8355C149.133 81.012 151.279 80.1469 151.279 80.1469C154.397 79.6597 151.917 82.5278 151.917 82.5278C151.917 82.5278 151.203 79.6454 149.085 82.9968L148.895 83.8017L146.952 85.4243C146.952 85.4243 147.762 84.3371 146.677 85.2658L148.172 82.8355Z" fill="black" stroke="black" stroke-width="0.320521"/>
<path d="M134.03 74.2134C134.03 74.2134 133.696 72.0992 132.355 73.1545L131.386 74.5161L130.841 77.6779C130.841 77.6779 132.409 76.3877 132.526 74.4425C132.526 74.4425 132.936 72.9409 134.03 74.2134Z" fill="black" stroke="black" stroke-width="0.320521"/>
<path d="M120.335 115.523L123.001 114.866C123.001 114.866 125.755 112.157 124.812 114.265L124.297 115.157L125.389 114.69C125.389 114.69 126.535 113.339 126.372 112.513C126.372 112.513 124.628 111.415 123.014 114.051C123.014 114.051 120.261 114.382 120.335 115.523Z" fill="black" stroke="black" stroke-width="0.320521"/>
<path d="M152.271 34.0635C152.271 34.0635 147.117 39.5042 147.597 42.1596" stroke="black" stroke-width="0.544886" stroke-linecap="round"/>
<path d="M149.399 34.6011C149.399 34.6011 148.72 37.0449 147.094 38.1186C147.094 38.1186 144.271 40.7888 145.91 43.6556" stroke="black" stroke-width="0.544886" stroke-linecap="round"/>
<path d="M143.993 43.6471C143.993 43.6471 144.233 44.9748 145.846 44.7166" stroke="black" stroke-width="0.544886" stroke-linecap="round"/>
<path d="M143.23 45.1279C143.23 45.1279 143.401 46.416 144.639 46.4903" stroke="black" stroke-width="0.544886" stroke-linecap="round"/>
<path d="M143.897 47.6169C143.897 47.6169 144.435 48.1106 143.564 49.6201C143.564 49.6201 142.154 50.6358 143.098 52.6446" stroke="black" stroke-width="0.544886" stroke-linecap="round"/>
<path d="M142.303 48.1602L141.98 49.9865C141.98 49.9865 141.185 51.9974 141.771 52.8844" stroke="black" stroke-width="0.544886" stroke-linecap="round"/>
<path d="M141.48 54.1801L142.61 54.2834" stroke="black" stroke-width="0.544886" stroke-linecap="round"/>
<path d="M142.052 55.8826L140.952 55.8875" stroke="black" stroke-width="0.544886" stroke-linecap="round"/>
<path d="M141.577 56.7058L140.563 57.0355" stroke="black" stroke-width="0.544886" stroke-linecap="round"/>
<path d="M140.998 58.6592L139.718 59.2922" stroke="black" stroke-width="0.544886" stroke-linecap="round"/>
<path d="M170.183 46.0592C170.183 46.0592 168.238 47.5237 166.717 47.3571" stroke="black" stroke-width="0.544886" stroke-linecap="round"/>
<path d="M172.964 34.8564C172.964 34.8564 174.217 37.3913 175.215 37.903C175.215 37.903 176.492 42.9742 175.269 44.5321" stroke="black" stroke-width="0.544886" stroke-linecap="round"/>
<path d="M174.087 41.6502C174.087 41.6502 174.076 45.59 171.567 42.6535" stroke="black" stroke-width="0.544886" stroke-linecap="round"/>
<path d="M171.998 36.3046C171.998 36.3046 172.924 37.615 172.679 37.9266C172.679 37.9266 174.756 38.0262 173.162 40.3399" stroke="black" stroke-width="0.544886" stroke-linecap="round"/>
<path d="M171.549 46.7183C171.549 46.7183 171.978 51.6884 169.554 51.5178" stroke="black" stroke-width="0.544886" stroke-linecap="round"/>
<path d="M173.408 45.8511C173.408 45.8511 173.36 50.4161 173.108 50.8527C173.108 50.8527 171.886 55.3221 169.323 56.624" stroke="black" stroke-width="0.544886" stroke-linecap="round"/>
<path d="M174.974 46.9492C174.974 46.9492 175.195 50.3758 174.115 52.4695C174.115 52.4695 171.852 56.7258 170.771 57.5896" stroke="black" stroke-width="0.544886" stroke-linecap="round"/>
<path d="M171.757 60.6826C171.757 60.6826 170.174 57.5033 166.464 60.3426L164.642 62.2662C164.642 62.2662 156.604 69.9155 164.204 71.6517" stroke="black" stroke-width="0.544886" stroke-linecap="round"/>
<path d="M169.146 66.6778L167.885 65.9495C167.885 65.9495 171.217 61.8578 168.115 62.5249C168.115 62.5249 166.876 63.1031 166.293 64.4485C166.293 64.4485 163.826 64.5765 163.371 68.3892" stroke="black" stroke-width="0.544886" stroke-linecap="round"/>
<path d="M167.991 67.8392L166.21 67.5053" stroke="black" stroke-width="0.544886" stroke-linecap="round"/>
<path d="M165.867 55.6636C165.867 55.6636 166.12 56.4569 166.996 56.5094" stroke="black" stroke-width="0.544886" stroke-linecap="round"/>
<path d="M168.363 53.8054C168.363 53.8054 169.068 54.6007 169.884 53.972" stroke="black" stroke-width="0.544886" stroke-linecap="round"/>
<path d="M165.469 57.6981C165.469 57.6981 166.138 58.6669 167.344 57.8106" stroke="black" stroke-width="0.544886" stroke-linecap="round"/>
<path d="M163.38 58.6265C163.38 58.6265 162.575 59.9083 161.735 59.6822C161.735 59.6822 161.645 61.1827 160.298 61.0517" stroke="black" stroke-width="0.544886" stroke-linecap="round"/>
<path d="M163.065 62.1966L162.664 61.7709C162.664 61.7709 158.676 66.3253 159.335 68.3225C159.335 68.3225 159.689 69.95 160.069 70.2991C160.069 70.2991 158.169 72.6948 157.75 72.9709C157.75 72.9709 155.376 75.7398 155.09 75.8983" stroke="black" stroke-width="0.544886" stroke-linecap="round"/>
<path d="M159.08 64.6182C159.08 64.6182 156.823 67.5196 158.186 70.312C158.186 70.312 158.088 71.9375 156.224 70.7966C156.224 70.7966 157.274 73.7961 154.639 72.5337" stroke="black" stroke-width="0.544886" stroke-linecap="round"/>
<path d="M153.617 72.8487C153.617 72.8487 153.965 74.1496 155.096 74.5438" stroke="black" stroke-width="0.544886" stroke-linecap="round"/>
<path d="M152.168 73.5649C152.168 73.5649 152.188 75.323 153.089 75.7787" stroke="black" stroke-width="0.544886" stroke-linecap="round"/>
<path d="M150.725 74.6074L149.541 76.7701C149.541 76.7701 146.37 77.3327 145.076 80.9193" stroke="black" stroke-width="0.544886" stroke-linecap="round"/>
<path d="M152.722 84.8169C155.172 82.4792 155.403 78.868 155.403 78.868C154.067 75.8404 149.688 78.0842 149.688 78.0842L147.261 81.7283L146.869 82.4075C146.869 82.4075 142.521 85.0077 143.121 87.5536C143.121 87.5536 143.083 89.8603 145.943 89.0531" stroke="black" stroke-width="0.544886" stroke-linecap="round"/>
<path d="M145.809 86.2589C146.636 84.6019 147.947 83.6767 147.947 83.6767C148.98 81.1033 150.4 80.4357 150.4 80.4357C154.917 78.7742 151.814 82.8045 151.814 82.8045C151.814 82.8045 151.464 80.2736 150.053 82.0462C150.053 82.0462 148.979 82.7849 148.787 83.9027C148.787 83.9027 147.616 84.5854 146.875 85.6453" stroke="black" stroke-width="0.544886" stroke-linecap="round"/>
<path d="M144.607 81.6191C144.607 81.6191 140.085 85.8654 141.594 88.7419C141.594 88.7419 139.817 89.9152 139.466 90.7475" stroke="black" stroke-width="0.544886" stroke-linecap="round"/>
<path d="M143.131 80.7021L142.474 81.6164" stroke="black" stroke-width="0.544886" stroke-linecap="round"/>
<path d="M141.872 82.4341C141.872 82.4341 139.602 85.1339 140.262 86.6794" stroke="black" stroke-width="0.544886" stroke-linecap="round"/>
<path d="M139.092 87.3618L139.517 88.6423C139.517 88.6423 136.123 90.8229 135.001 93.2152" stroke="black" stroke-width="0.544886" stroke-linecap="round"/>
<path d="M129.513 85.1306C129.513 85.1306 131.536 84.8755 132.26 84.5174" stroke="black" stroke-width="0.544886" stroke-linecap="round"/>
<path d="M129.005 86.9071C129.005 86.9071 130.686 86.9077 131.278 86.6671" stroke="black" stroke-width="0.544886" stroke-linecap="round"/>
<path d="M132.659 71.0429C132.659 71.0429 136.925 69.9392 135.88 75.2224C135.88 75.2224 132.864 85.9359 128.638 82.4436" stroke="black" stroke-width="0.544886" stroke-linecap="round"/>
<path d="M129.239 88.8537L127.841 89.1463L126.381 92.5723L127.123 92.7424" stroke="black" stroke-width="0.544886" stroke-linecap="round"/>
<path d="M130.278 78.651C130.839 77.6807 131.173 75.8687 131.173 75.8687C131.271 74.2431 132.158 73.2673 132.158 73.2673C134.307 71.5334 134.096 74.8394 134.096 74.8394C134.096 74.8394 133.341 72.7862 132.536 74.0681C132.536 74.0681 132.381 76.2423 131.033 77.7928" stroke="black" stroke-width="0.544886" stroke-linecap="round"/>
<path d="M130.434 81.0698C131.642 81.4434 132.471 79.3347 132.471 79.3347L132.167 78.9651L133.56 76.6644L132.446 77.2501C132.446 77.2501 131.512 79.4277 130.981 79.8979" stroke="black" stroke-width="0.544886" stroke-linecap="round"/>
<path d="M138.281 91.6802L135.3 96.1696L134.433 95.992" stroke="black" stroke-width="0.544886" stroke-linecap="round"/>
<path d="M133.465 93.2988L132.485 94.9969L133.169 97.3972L134.009 97.6233" stroke="black" stroke-width="0.544886" stroke-linecap="round"/>
<path d="M133.058 98.8208C133.058 98.8208 127.643 107.079 128.202 109.472" stroke="black" stroke-width="0.544886" stroke-linecap="round"/>
<path d="M131.006 97.8945C131.006 97.8945 130.673 99.255 131.393 99.8001" stroke="black" stroke-width="0.544886" stroke-linecap="round"/>
<path d="M130.355 100.365L127.3 106.105" stroke="black" stroke-width="0.544886" stroke-linecap="round"/>
<path d="M126.283 95.8791L125.183 96.2147" stroke="black" stroke-width="0.544886" stroke-linecap="round"/>
<path d="M126.651 94.3455L125.587 94.5075" stroke="black" stroke-width="0.544886" stroke-linecap="round"/>
<path d="M125.114 97.792C125.114 97.792 122.85 102.048 122.867 103.028" stroke="black" stroke-width="0.544886" stroke-linecap="round"/>
<path d="M113.092 117.928L114.785 117.251C114.785 117.251 118.513 113.258 120.346 113.669C120.346 113.669 124.08 108.321 127.351 110.275C127.351 110.275 129.103 111.61 128.457 113.177" stroke="black" stroke-width="0.544886" stroke-linecap="round"/>
<path d="M116.842 117.273C117.885 117.035 119.093 115.727 119.093 115.727C120.303 113.967 122.789 114.368 122.789 114.368L123.033 114.056C124.398 111.804 125.738 112.06 125.738 112.06C127.724 112.43 125.33 114.671 125.33 114.671L124.377 115.09L125.077 113.878C125.077 113.878 124.965 112.39 123.106 114.939C123.106 114.939 121.043 114.589 119.92 115.752" stroke="black" stroke-width="0.544886" stroke-linecap="round"/>
<path d="M143.583 70.7156C141.186 76.4792 138.553 82.1266 135.427 87.4819C135.094 88.1225 133.489 90.7489 134.659 88.9229C137.941 83.9705 144.039 74.4834 144.039 74.4834C146.263 70.7074 149.355 68.0554 151.689 64.3504C153.3 61.9915 154.909 59.6424 156.165 57.0554C158.833 52.7351 162.063 49.8574 164.593 45.4476C164.995 42.9331 168.899 38.5327 165.248 36.0592C160.512 34.6267 161.657 37.7903 160.384 39.0806C158.754 41.835 155.879 46.0432 154.99 47.4648C155.017 48.8431 147.584 63.1557 143.583 70.7156Z" fill="#FCE94F"/>
<path d="M142.335 264.543C144.107 267.454 145.267 273.187 145.267 273.187C145.106 276.711 142.23 276.404 142.23 276.404C142.23 276.404 138.147 275.194 138.137 270.9L137.812 268.435L136.328 266.181L136.33 264.442L138.475 262.929L140.677 262.939L142.335 264.543Z" fill="#FFDD55" stroke="black" stroke-width="0.320521"/>
<path d="M130.665 245.757C130.184 250.152 134.767 253.178 134.767 253.178C137.538 253.224 138.247 249.065 138.247 249.065L138.125 248.22L135.954 243.985C135.954 243.985 135.559 239.181 133.294 238.11C133.294 238.11 131.827 237.311 130.666 239.262C130.666 239.262 130.091 240.326 131.131 242.286L130.665 245.757Z" fill="#FFDD55" stroke="black" stroke-width="0.320521"/>
<path d="M144.983 234.746C146.736 237.942 149.405 239.237 149.405 239.237C149.405 239.237 151.916 240.258 152.836 237.256C152.836 237.256 152.882 234.485 151.364 233.44L150.398 232.718L149.804 231.688L148.79 231.359C148.79 231.359 146.258 227.606 144.355 228.43C144.355 228.43 141.608 229.376 144.983 234.746Z" fill="#FFDD55" stroke="black" stroke-width="0.320521"/>
<path d="M118.236 204.265C115.171 208.779 118.796 212.999 118.796 212.999C119.538 214.125 121.911 212.847 121.911 212.847C124.808 210.26 121.927 205.428 121.927 205.428C123.534 204.409 121.859 198.972 121.859 198.972C121.859 198.972 122.069 195.374 121.192 194.966C121.192 194.966 120.532 194.615 119.759 195.336L119.031 197.402L118.747 199.762L118.505 202.829L118.236 204.265Z" fill="#FFDD55" stroke="black" stroke-width="0.320521"/>
<path d="M127.722 227.987C127.708 231.1 131.513 236.795 131.513 236.795L130.655 239.231C131.653 238.663 131.065 237.973 133.645 238.023C133.865 238.255 133.94 238.627 134.225 238.849C135.246 239.647 135.492 241.434 135.935 243.865C136.086 244.697 136.891 245.735 137.51 246.927C137.857 247.596 138.337 248.317 138.228 249.07C138.014 250.535 137.844 251.35 137.138 252.255C136.206 253.45 134.713 253.318 134.713 253.318L137.459 261.436L136.43 264.359L138.647 262.82C141.312 262.058 143.052 265.969 143.052 265.969L144.345 269.104L145.163 271.866C145.683 276.353 142.417 276.298 142.417 276.298C144.883 283.93 150.763 287.392 150.763 287.392C152.885 292.636 160.713 293.421 160.713 293.421L165.046 292.86L171.32 291.178L172.619 289.393C176.071 287.53 177.909 282.199 177.909 282.199C180.199 275.185 176.418 265.724 176.418 265.724L174.753 263.063C174.307 259.827 163.734 250.924 163.734 250.924C162.34 246.942 153.084 237.408 153.084 237.408C153.084 237.408 151.058 241.294 147.959 238.167C147.959 238.167 143.438 233.921 143.355 230.864C143.355 230.864 143.067 228.572 144.94 228.008L135.941 216.903L130.717 210.992L126.52 204.618L122.165 197.3L121.602 198.789C121.602 198.789 123.336 204.257 121.854 205.5C121.854 205.5 125.428 212.363 120.513 213.261L118.9 213.157L119.21 214.142L120.969 215.844L122.855 217.989L124.128 219.971L125.697 222.688L127.722 227.987Z" fill="#AAD400" stroke="black" stroke-width="0.320521"/>
<path d="M119.628 214.44C119.628 214.44 125.922 219.954 127.63 228.299C127.63 228.299 129.939 234.833 131.343 236.95C131.343 236.95 129.449 239.69 131.25 242.492C131.25 242.492 128.449 249.049 134.658 253.149C134.658 253.149 137.421 260.153 137.506 261.568C137.506 261.568 134.99 265.765 137.218 267.406C137.218 267.406 138.248 269.19 137.915 269.565C137.915 269.565 137.606 275.049 142.23 276.405C142.23 276.405 145.627 284.506 150.474 287.197C150.474 287.197 154.715 295.177 163.313 292.957C163.313 292.957 170.878 292.432 172.751 289.338C172.751 289.338 180.335 284.411 178.436 272.883C178.436 272.883 177.499 265.556 174.817 263.445C171.743 258.369 167.871 255.458 165.357 250.491C165.357 250.491 161.81 244.637 152.807 237.365C152.807 237.365 153.207 234.572 150.705 233.09C150.705 233.09 149.595 231.169 148.751 231.29C148.751 231.29 146.575 228.156 144.944 228.182L136.109 217C136.109 217 130.58 211.227 129.825 209.284C129.825 209.284 123.693 200.566 121.987 196.977C121.987 196.977 121.45 193.353 119.73 195.444C119.73 195.444 118.05 199.982 118.661 202.465L118.479 203.576C118.479 203.576 116.334 207.467 117.439 210.489C117.434 211.59 119.628 214.44 119.628 214.44Z" fill="#ABC837" stroke="black"/>
<path d="M134.838 244.903C135.936 246.648 135.612 248.939 135.612 248.939C134.476 251.882 133.232 248.301 133.232 248.301C133.232 248.301 136.085 249.123 134.242 245.613L133.64 245.046L133.206 242.552C133.206 242.552 133.742 243.798 133.48 242.394L134.838 244.903Z" fill="black" stroke="black" stroke-width="0.320521"/>
<path d="M149.376 236.967C149.376 236.967 151.374 237.735 151.13 236.045L150.436 234.525L147.97 232.473C147.97 232.473 148.303 234.476 149.929 235.55C149.929 235.55 151.025 236.655 149.376 236.967Z" fill="black" stroke="black" stroke-width="0.320521"/>
<path d="M120.448 204.452L119.684 207.089C119.684 207.089 120.654 210.829 119.299 208.958L118.784 208.066L118.642 209.246C118.642 209.246 119.239 210.913 120.036 211.185C120.036 211.185 121.86 210.224 120.383 207.508C120.383 207.508 121.473 204.958 120.448 204.452Z" fill="black" stroke="black" stroke-width="0.320521"/>
<path d="M175.026 272.839C175.026 272.839 172.891 265.655 170.352 264.743" stroke="black" stroke-width="0.544886" stroke-linecap="round"/>
<path d="M175.996 270.083C175.996 270.083 174.219 268.273 174.103 266.328C174.103 266.328 173.201 262.548 169.9 262.534" stroke="black" stroke-width="0.544886" stroke-linecap="round"/>
<path d="M170.865 260.879C170.865 260.879 169.595 260.422 169.012 261.948" stroke="black" stroke-width="0.544886" stroke-linecap="round"/>
<path d="M169.965 259.477C169.965 259.477 168.763 258.981 168.08 260.016" stroke="black" stroke-width="0.544886" stroke-linecap="round"/>
<path d="M167.475 258.81C167.475 258.81 166.779 259.029 165.907 257.52C165.907 257.52 165.732 255.791 163.521 255.605" stroke="black" stroke-width="0.544886" stroke-linecap="round"/>
<path d="M167.802 257.158L166.382 255.965C166.382 255.965 165.038 254.271 163.977 254.335" stroke="black" stroke-width="0.544886" stroke-linecap="round"/>
<path d="M163 253.435L162.346 254.362" stroke="black" stroke-width="0.544886" stroke-linecap="round"/>
<path d="M161.239 253.08L161.785 252.124" stroke="black" stroke-width="0.544886" stroke-linecap="round"/>
<path d="M160.764 252.256L160.985 251.214" stroke="black" stroke-width="0.544886" stroke-linecap="round"/>
<path d="M159.362 250.779L159.454 249.354" stroke="black" stroke-width="0.544886" stroke-linecap="round"/>
<path d="M155.681 282.354C155.681 282.354 155.386 279.937 156.29 278.703" stroke="black" stroke-width="0.544886" stroke-linecap="round"/>
<path d="M163.993 290.363C163.993 290.363 161.171 290.181 160.229 290.79C160.229 290.79 155.198 289.36 154.461 287.522" stroke="black" stroke-width="0.544886" stroke-linecap="round"/>
<path d="M157.548 287.938C157.548 287.938 154.141 285.959 157.939 285.255" stroke="black" stroke-width="0.544886" stroke-linecap="round"/>
<path d="M163.221 288.803C163.221 288.803 161.624 288.949 161.476 288.581C161.476 288.581 160.352 290.331 159.145 287.793" stroke="black" stroke-width="0.544886" stroke-linecap="round"/>
<path d="M154.427 283.207C154.427 283.207 149.908 281.093 151.268 279.079" stroke="black" stroke-width="0.544886" stroke-linecap="round"/>
<path d="M154.249 285.25C154.249 285.25 150.32 282.926 150.068 282.49C150.068 282.49 146.808 279.197 146.962 276.326" stroke="black" stroke-width="0.544886" stroke-linecap="round"/>
<path d="M152.515 286.057C152.515 286.057 149.437 284.535 148.164 282.554C148.164 282.554 145.61 278.465 145.402 277.097" stroke="black" stroke-width="0.544886" stroke-linecap="round"/>
<path d="M142.23 276.405C142.23 276.405 145.775 276.623 145.171 271.991L144.416 269.452C144.416 269.452 141.811 258.665 136.507 264.38" stroke="black" stroke-width="0.544886" stroke-linecap="round"/>
<path d="M138.343 271.146L139.605 270.418C139.605 270.418 141.482 275.35 142.455 272.33C142.455 272.33 142.574 270.967 141.701 269.79C141.701 269.79 142.823 267.589 139.749 265.289" stroke="black" stroke-width="0.544886" stroke-linecap="round"/>
<path d="M137.915 269.564L139.095 268.19" stroke="black" stroke-width="0.544886" stroke-linecap="round"/>
<path d="M149.522 273.813C149.522 273.813 148.708 273.636 148.225 274.368" stroke="black" stroke-width="0.544886" stroke-linecap="round"/>
<path d="M149.883 276.904C149.883 276.904 148.842 277.117 148.978 278.138" stroke="black" stroke-width="0.544886" stroke-linecap="round"/>
<path d="M147.959 272.452C147.959 272.452 146.785 272.547 146.924 274.02" stroke="black" stroke-width="0.544886" stroke-linecap="round"/>
<path d="M148.199 270.178C148.199 270.178 147.491 268.84 148.107 268.226C148.107 268.226 146.853 267.398 147.64 266.296" stroke="black" stroke-width="0.544886" stroke-linecap="round"/>
<path d="M145.265 268.121L145.834 267.986C145.834 267.986 143.884 262.255 141.825 261.827C141.825 261.827 140.238 261.32 139.746 261.475C139.746 261.475 138.621 258.631 138.591 258.131C138.591 258.131 137.381 254.689 137.386 254.363" stroke="black" stroke-width="0.544886" stroke-linecap="round"/>
<path d="M145.161 263.458C145.161 263.458 143.776 260.053 140.676 259.837C140.676 259.837 139.318 258.94 141.238 257.896C141.238 257.896 138.115 257.306 140.526 255.655" stroke="black" stroke-width="0.544886" stroke-linecap="round"/>
<path d="M140.764 254.612C140.764 254.612 139.463 254.263 138.557 255.045" stroke="black" stroke-width="0.544886" stroke-linecap="round"/>
<path d="M140.868 252.999C140.868 252.999 139.336 252.137 138.491 252.69" stroke="black" stroke-width="0.544886" stroke-linecap="round"/>
<path d="M140.687 251.228L139.406 249.121C139.406 249.121 140.504 246.094 138.045 243.179" stroke="black" stroke-width="0.544886" stroke-linecap="round"/>
<path d="M130.847 247.853C131.646 251.143 134.658 253.149 134.658 253.149C137.948 253.506 138.194 248.592 138.194 248.592L136.252 244.668L135.86 243.989C135.86 243.989 135.782 238.923 133.277 238.17C133.277 238.17 131.298 236.984 130.568 239.864" stroke="black" stroke-width="0.544886" stroke-linecap="round"/>
<path d="M133.054 241.145C134.075 242.69 134.221 244.287 134.221 244.287C135.934 246.469 135.802 248.033 135.802 248.033C134.982 252.775 133.043 248.073 133.043 248.073C133.043 248.073 135.41 249.035 134.581 246.926C134.581 246.926 134.478 245.627 133.606 244.902C133.606 244.902 133.6 243.547 133.053 242.375" stroke="black" stroke-width="0.544886" stroke-linecap="round"/>
<path d="M137.674 242.424C137.674 242.424 136.257 236.385 133.011 236.253C133.011 236.253 132.884 234.128 132.339 233.408" stroke="black" stroke-width="0.544886" stroke-linecap="round"/>
<path d="M139.206 241.604L138.742 240.578" stroke="black" stroke-width="0.544886" stroke-linecap="round"/>
<path d="M138.335 239.648C138.335 239.648 137.132 236.332 135.464 236.131" stroke="black" stroke-width="0.544886" stroke-linecap="round"/>
<path d="M135.458 234.776L134.136 234.504C134.136 234.504 133.945 230.475 132.434 228.307" stroke="black" stroke-width="0.544886" stroke-linecap="round"/>
<path d="M142.18 227.596C142.18 227.596 141.389 229.476 141.337 230.282" stroke="black" stroke-width="0.544886" stroke-linecap="round"/>
<path d="M140.895 226.268C140.895 226.268 140.054 227.724 139.967 228.357" stroke="black" stroke-width="0.544886" stroke-linecap="round"/>
<path d="M152.807 237.365C152.807 237.365 151.63 241.611 147.577 238.065C147.577 238.065 139.807 230.096 144.944 228.182" stroke="black" stroke-width="0.544886" stroke-linecap="round"/>
<path d="M139.092 225.498L139.538 224.141L137.301 221.163L136.782 221.721" stroke="black" stroke-width="0.544886" stroke-linecap="round"/>
<path d="M147.409 231.499C147.969 232.469 149.371 233.665 149.371 233.665C150.73 234.563 151.131 235.818 151.131 235.818C151.558 238.547 148.801 236.711 148.801 236.711C148.801 236.711 150.956 237.084 150.249 235.746C150.249 235.746 148.443 234.524 147.775 232.581" stroke="black" stroke-width="0.544886" stroke-linecap="round"/>
<path d="M145.236 230.425C144.308 231.284 145.72 233.056 145.72 233.056L146.192 232.978L147.488 235.334L147.538 234.077C147.538 234.077 146.119 232.179 145.977 231.485" stroke="black" stroke-width="0.544886" stroke-linecap="round"/>
<path d="M132.124 231.915L129.726 227.089L130.313 226.426" stroke="black" stroke-width="0.544886" stroke-linecap="round"/>
<path d="M133.13 226.935L132.149 225.237L129.729 224.629L129.113 225.244" stroke="black" stroke-width="0.544886" stroke-linecap="round"/>
<path d="M128.551 223.821C128.551 223.821 124.106 215.002 121.754 214.29" stroke="black" stroke-width="0.544886" stroke-linecap="round"/>
<path d="M130.379 222.507C130.379 222.507 129.367 221.539 128.535 221.89" stroke="black" stroke-width="0.544886" stroke-linecap="round"/>
<path d="M128.565 220.708L125.121 215.193" stroke="black" stroke-width="0.544886" stroke-linecap="round"/>
<path d="M134.486 219.424L134.745 218.304" stroke="black" stroke-width="0.544886" stroke-linecap="round"/>
<path d="M135.63 220.51L136.022 219.508" stroke="black" stroke-width="0.544886" stroke-linecap="round"/>
<path d="M133.414 217.456C133.414 217.456 130.86 213.368 130.003 212.892" stroke="black" stroke-width="0.544886" stroke-linecap="round"/>
<path d="M121.987 196.977L121.727 198.782C121.727 198.782 123.321 204.007 122.048 205.388C122.048 205.388 124.812 211.296 121.485 213.152C121.485 213.152 119.453 214.002 118.419 212.659" stroke="black" stroke-width="0.544886" stroke-linecap="round"/>
<path d="M120.679 200.551C120.364 201.574 120.892 203.274 120.892 203.274C121.811 205.202 120.222 207.154 120.222 207.154L120.369 207.522C121.637 209.83 120.745 210.863 120.745 210.863C119.432 212.397 118.688 209.204 118.688 209.204L118.802 208.168L119.502 209.381C119.502 209.381 120.846 210.028 119.568 207.143C119.568 207.143 120.902 205.532 120.458 203.978" stroke="black" stroke-width="0.544886" stroke-linecap="round"/>
<path d="M147.628 246.989C143.835 242.031 140.261 236.927 137.186 231.543C136.798 230.934 135.326 228.23 136.322 230.157C138.97 235.475 144.137 245.499 144.137 245.499C146.295 249.314 147.046 253.318 149.088 257.191C150.325 259.766 151.555 262.334 153.168 264.715C155.575 269.186 156.452 273.422 159.006 277.818C160.983 279.423 162.841 285.005 166.809 283.08C170.418 279.694 167.105 279.104 166.624 277.357C165.054 274.567 162.847 269.974 162.06 268.493C160.853 267.827 152.175 254.234 147.628 246.989Z" fill="#FCE94F"/>
<path d="M47.5364 251.198C45.9017 254.188 41.5165 258.06 41.5165 258.06C38.3843 259.682 37.212 257.039 37.212 257.039C37.212 257.039 36.2183 252.897 39.9326 250.742L41.9046 249.228L43.1143 246.816L44.6216 245.948L47.0046 247.049L48.0967 248.96L47.5364 251.198Z" fill="#FFDD55" stroke="black" stroke-width="0.320521"/>
<path d="M57.9708 231.699C53.9241 233.48 53.5951 238.962 53.5951 238.962C54.9403 241.385 58.8972 239.919 58.8972 239.919L59.5678 239.391L62.1504 235.393C62.1504 235.393 66.1129 232.65 65.9079 230.153C65.9079 230.153 65.8662 228.482 63.5963 228.452C63.5963 228.452 62.3875 228.486 61.2097 230.368L57.9708 231.699Z" fill="#FFDD55" stroke="black" stroke-width="0.320521"/>
<path d="M74.6652 238.594C72.7744 241.71 72.9873 244.669 72.9873 244.669C72.9873 244.669 73.3586 247.353 76.4178 246.65C76.4178 246.65 78.8412 245.304 78.987 243.467L79.1299 242.269L79.724 241.24L79.5027 240.197C79.5027 240.197 81.4861 236.128 79.8211 234.892C79.8211 234.892 77.6284 232.986 74.6652 238.594Z" fill="#FFDD55" stroke="black" stroke-width="0.320521"/>
<path d="M87.6896 200.19C82.2474 199.792 80.406 205.041 80.406 205.041C79.8012 206.247 82.0944 207.663 82.0944 207.663C85.7838 208.878 88.5277 203.967 88.5277 203.967C90.214 204.849 94.0846 200.68 94.0846 200.68C94.0846 200.68 97.3052 199.063 97.221 198.1C97.221 198.1 97.1949 197.353 96.1841 197.044L94.0302 197.447L91.8445 198.381L89.0675 199.705L87.6896 200.19Z" fill="#FFDD55" stroke="black" stroke-width="0.320521"/>
<path d="M71.8881 220.265C69.1852 221.81 66.156 227.953 66.156 227.953L63.6177 228.428C64.6088 229.008 64.9123 228.154 66.159 230.412C66.0678 230.72 65.7834 230.97 65.7331 231.328C65.5525 232.612 64.1287 233.718 62.2439 235.317C61.5998 235.864 61.1028 237.08 60.3802 238.212C59.9743 238.847 59.59 239.624 58.883 239.905C57.5076 240.453 56.7168 240.712 55.5803 240.554C54.0791 240.345 53.4467 238.986 53.4467 238.986L47.7897 245.423L44.7436 245.993L47.1844 247.143C49.177 249.07 46.6601 252.533 46.6601 252.533L44.5914 255.22L42.6087 257.31C38.9835 260.003 37.398 257.147 37.398 257.147C32.0211 263.099 31.9629 269.922 31.9629 269.922C28.4827 274.382 31.7166 281.553 31.7166 281.553L34.3694 285.025L38.9628 289.618L41.1575 289.85C44.4975 291.908 50.0333 290.835 50.0333 290.835C57.2527 289.31 63.556 281.306 63.556 281.306L65.0275 278.533C67.6074 276.529 70.0305 262.921 70.0305 262.921C72.7825 259.723 76.4109 246.94 76.4109 246.94C76.4109 246.94 72.0325 247.129 73.191 242.882C73.191 242.882 74.6076 236.843 77.2135 235.242C77.2135 235.242 79.0541 233.847 80.4795 235.187L85.5975 221.841L88.1045 214.362L91.5258 207.54L95.6863 200.109L94.1148 200.366C94.1148 200.366 90.2464 204.602 88.4288 203.94C88.4288 203.94 84.2723 210.467 81.0374 206.659L80.3212 205.211L79.6229 205.972L79.0287 208.346L78.1133 211.051L77.0339 213.145L75.4653 215.862L71.8881 220.265Z" fill="#AAD400" stroke="black" stroke-width="0.320521"/>
<path d="M79.5741 206.482C79.5741 206.482 77.9456 214.69 71.5724 220.341C71.5724 220.341 67.068 225.608 65.9376 227.883C65.9376 227.883 62.6174 227.612 61.0908 230.573C61.0908 230.573 54.0118 231.426 53.566 238.853C53.566 238.853 48.8819 244.748 47.6992 245.529C47.6992 245.529 42.8059 245.448 42.4988 248.198C42.4988 248.198 41.4689 249.982 40.978 249.882C40.978 249.882 36.0733 252.356 37.212 257.038C37.212 257.038 31.8941 264.031 31.9873 269.574C31.9873 269.574 27.197 277.237 33.4186 283.573C33.4186 283.573 37.6554 289.862 41.2713 289.937C41.2713 289.937 49.3306 294.041 58.3649 286.632C58.3649 286.632 64.2416 282.158 64.7283 278.78C67.5875 273.579 68.1725 268.771 71.2172 264.11C71.2172 264.11 74.5135 258.111 76.3096 246.678C76.3096 246.678 78.9281 245.629 78.9607 242.72C78.9607 242.72 80.0699 240.799 79.5422 240.128C79.5422 240.128 81.1692 236.677 80.3303 235.277L85.5975 222.035C85.5975 222.035 87.8328 214.36 89.1372 212.735C89.1372 212.735 93.6219 203.066 95.877 199.793C95.877 199.793 98.7467 197.517 96.0758 197.072C96.0758 197.072 91.3062 197.886 89.4607 199.657L88.4075 200.055C88.4075 200.055 83.9654 200.143 81.9007 202.61C80.9451 203.157 79.5741 206.482 79.5741 206.482Z" fill="#FF0000" stroke="black"/>
<path d="M60.7965 234.886C59.8352 236.709 57.6892 237.574 57.6892 237.574C54.5719 238.062 57.0512 235.193 57.0512 235.193C57.0512 235.193 57.7655 238.076 59.8834 234.724L60.0737 233.92L62.0168 232.297C62.0168 232.297 61.2061 233.384 62.2912 232.455L60.7965 234.886Z" fill="black" stroke="black" stroke-width="0.320521"/>
<path d="M74.9381 243.508C74.9381 243.508 75.2727 245.622 76.6138 244.567L77.5829 243.205L78.1276 240.043C78.1276 240.043 76.5594 241.333 76.4427 243.279C76.4427 243.279 76.0331 244.78 74.9381 243.508Z" fill="black" stroke="black" stroke-width="0.320521"/>
<path d="M88.6338 202.199L85.9678 202.855C85.9678 202.855 83.2141 205.565 84.1571 203.456L84.672 202.564L83.5792 203.031C83.5792 203.031 82.4333 204.382 82.5966 205.208C82.5966 205.208 84.3409 206.307 85.9544 203.67C85.9544 203.67 88.7074 203.339 88.6338 202.199Z" fill="black" stroke="black" stroke-width="0.320521"/>
<path d="M56.6978 283.658C56.6978 283.658 61.8516 278.217 61.3721 275.562" stroke="black" stroke-width="0.544886" stroke-linecap="round"/>
<path d="M59.5696 283.12C59.5696 283.12 60.2487 280.676 61.8749 279.603C61.8749 279.603 64.6972 276.932 63.0591 274.066" stroke="black" stroke-width="0.544886" stroke-linecap="round"/>
<path d="M64.9753 274.074C64.9753 274.074 64.7355 272.746 63.1228 273.005" stroke="black" stroke-width="0.544886" stroke-linecap="round"/>
<path d="M65.7385 272.593C65.7385 272.593 65.5674 271.305 64.3296 271.231" stroke="black" stroke-width="0.544886" stroke-linecap="round"/>
<path d="M65.0716 270.104C65.0716 270.104 64.5333 269.611 65.4048 268.101C65.4048 268.101 66.8145 267.085 65.8703 265.077" stroke="black" stroke-width="0.544886" stroke-linecap="round"/>
<path d="M66.666 269.561L66.9885 267.735C66.9885 267.735 67.7836 265.724 67.198 264.837" stroke="black" stroke-width="0.544886" stroke-linecap="round"/>
<path d="M67.4887 263.541L66.3591 263.438" stroke="black" stroke-width="0.544886" stroke-linecap="round"/>
<path d="M66.9165 261.839L68.0171 261.834" stroke="black" stroke-width="0.544886" stroke-linecap="round"/>
<path d="M67.3919 261.015L68.4055 260.686" stroke="black" stroke-width="0.544886" stroke-linecap="round"/>
<path d="M67.9705 259.062L69.2508 258.429" stroke="black" stroke-width="0.544886" stroke-linecap="round"/>
<path d="M38.7856 271.662C38.7856 271.662 40.7307 270.198 42.2517 270.364" stroke="black" stroke-width="0.544886" stroke-linecap="round"/>
<path d="M36.0049 282.865C36.0049 282.865 34.7516 280.33 33.7533 279.818C33.7533 279.818 32.4765 274.747 33.6994 273.189" stroke="black" stroke-width="0.544886" stroke-linecap="round"/>
<path d="M34.8817 276.071C34.8817 276.071 34.8923 272.131 37.4016 275.068" stroke="black" stroke-width="0.544886" stroke-linecap="round"/>
<path d="M36.9703 281.417C36.9703 281.417 36.045 280.106 36.2896 279.795C36.2896 279.795 34.2125 279.695 35.807 277.381" stroke="black" stroke-width="0.544886" stroke-linecap="round"/>
<path d="M37.4197 271.003C37.4197 271.003 36.9902 266.033 39.4144 266.203" stroke="black" stroke-width="0.544886" stroke-linecap="round"/>
<path d="M35.5605 271.87C35.5605 271.87 35.6087 267.305 35.8608 266.868C35.8608 266.868 37.0828 262.399 39.6456 261.097" stroke="black" stroke-width="0.544886" stroke-linecap="round"/>
<path d="M33.9951 270.772C33.9951 270.772 33.7741 267.345 34.8534 265.252C34.8534 265.252 37.1168 260.995 38.1977 260.132" stroke="black" stroke-width="0.544886" stroke-linecap="round"/>
<path d="M37.212 257.039C37.212 257.039 38.7949 260.218 42.5042 257.379L44.3263 255.455C44.3263 255.455 52.3651 247.806 44.7641 246.069" stroke="black" stroke-width="0.544886" stroke-linecap="round"/>
<path d="M39.8224 251.043L41.0838 251.772C41.0838 251.772 37.7511 255.863 40.8532 255.196C40.8532 255.196 42.0926 254.618 42.6753 253.273C42.6753 253.273 45.1426 253.145 45.5973 249.332" stroke="black" stroke-width="0.544886" stroke-linecap="round"/>
<path d="M40.978 249.882L42.7584 250.216" stroke="black" stroke-width="0.544886" stroke-linecap="round"/>
<path d="M43.1017 262.058C43.1017 262.058 42.8482 261.264 41.9729 261.212" stroke="black" stroke-width="0.544886" stroke-linecap="round"/>
<path d="M40.6059 263.916C40.6059 263.916 39.9007 263.12 39.0849 263.749" stroke="black" stroke-width="0.544886" stroke-linecap="round"/>
<path d="M43.4999 260.023C43.4999 260.023 42.8302 259.054 41.6243 259.911" stroke="black" stroke-width="0.544886" stroke-linecap="round"/>
<path d="M45.5886 259.095C45.5886 259.095 46.3934 257.813 47.2332 258.039C47.2332 258.039 47.3233 256.538 48.6707 256.67" stroke="black" stroke-width="0.544886" stroke-linecap="round"/>
<path d="M45.9033 255.525L46.3044 255.95C46.3044 255.95 50.2923 251.396 49.6341 249.399C49.6341 249.399 49.28 247.771 48.8994 247.422C48.8994 247.422 50.8001 245.026 51.2182 244.75C51.2182 244.75 53.5931 241.981 53.8787 241.823" stroke="black" stroke-width="0.544886" stroke-linecap="round"/>
<path d="M49.8887 253.103C49.8887 253.103 52.146 250.202 50.7826 247.409C50.7826 247.409 50.8802 245.784 52.7442 246.925C52.7442 246.925 51.6945 243.925 54.3293 245.188" stroke="black" stroke-width="0.544886" stroke-linecap="round"/>
<path d="M55.3521 244.873C55.3521 244.873 55.0035 243.572 53.8727 243.177" stroke="black" stroke-width="0.544886" stroke-linecap="round"/>
<path d="M56.8006 244.156C56.8006 244.156 56.7806 242.398 55.8793 241.943" stroke="black" stroke-width="0.544886" stroke-linecap="round"/>
<path d="M58.2436 243.114L59.4275 240.951C59.4275 240.951 62.5986 240.388 63.8931 236.802" stroke="black" stroke-width="0.544886" stroke-linecap="round"/>
<path d="M56.2462 232.904C53.7968 235.242 53.566 238.853 53.566 238.853C54.9013 241.881 59.2805 239.637 59.2805 239.637L61.7078 235.993L62.1 235.314C62.1 235.314 66.4474 232.713 65.8473 230.168C65.8473 230.168 65.8854 227.861 63.026 228.668" stroke="black" stroke-width="0.544886" stroke-linecap="round"/>
<path d="M63.1594 231.462C62.3321 233.119 61.0217 234.045 61.0217 234.045C59.9888 236.618 58.5683 237.286 58.5683 237.286C54.0513 238.947 57.1544 234.917 57.1544 234.917C57.1544 234.917 57.5045 237.448 58.916 235.675C58.916 235.675 59.9893 234.936 60.1819 233.818C60.1819 233.818 61.3523 233.136 62.0936 232.076" stroke="black" stroke-width="0.544886" stroke-linecap="round"/>
<path d="M64.3618 236.102C64.3618 236.102 68.8833 231.856 67.3744 228.979C67.3744 228.979 69.1515 227.806 69.5026 226.974" stroke="black" stroke-width="0.544886" stroke-linecap="round"/>
<path d="M65.8377 237.019L66.495 236.105" stroke="black" stroke-width="0.544886" stroke-linecap="round"/>
<path d="M67.0961 235.287C67.0961 235.287 69.3664 232.587 68.7063 231.042" stroke="black" stroke-width="0.544886" stroke-linecap="round"/>
<path d="M69.8766 230.359L69.4515 229.079C69.4515 229.079 72.8452 226.898 73.9676 224.506" stroke="black" stroke-width="0.544886" stroke-linecap="round"/>
<path d="M79.4558 232.591C79.4558 232.591 77.4326 232.846 76.7083 233.204" stroke="black" stroke-width="0.544886" stroke-linecap="round"/>
<path d="M79.9639 230.814C79.9639 230.814 78.2824 230.814 77.6907 231.054" stroke="black" stroke-width="0.544886" stroke-linecap="round"/>
<path d="M76.3096 246.678C76.3096 246.678 72.0435 247.782 73.0884 242.499C73.0884 242.499 76.1045 231.785 80.3304 235.278" stroke="black" stroke-width="0.544886" stroke-linecap="round"/>
<path d="M79.7294 228.868L81.1274 228.575L82.5879 225.149L81.8452 224.979" stroke="black" stroke-width="0.544886" stroke-linecap="round"/>
<path d="M78.6903 239.07C78.1301 240.04 77.7955 241.853 77.7955 241.853C77.6979 243.478 76.8111 244.454 76.8111 244.454C74.6614 246.188 74.8725 242.882 74.8725 242.882C74.8725 242.882 75.6277 244.935 76.4325 243.653C76.4325 243.653 76.5881 241.479 77.9361 239.928" stroke="black" stroke-width="0.544886" stroke-linecap="round"/>
<path d="M78.5344 236.651C77.327 236.278 76.4976 238.386 76.4976 238.386L76.8017 238.756L75.4087 241.057L76.5231 240.471C76.5231 240.471 77.457 238.293 77.9871 237.823" stroke="black" stroke-width="0.544886" stroke-linecap="round"/>
<path d="M70.688 226.041L73.6681 221.552L74.5359 221.729" stroke="black" stroke-width="0.544886" stroke-linecap="round"/>
<path d="M75.5037 224.422L76.484 222.724L75.7998 220.324L74.9601 220.098" stroke="black" stroke-width="0.544886" stroke-linecap="round"/>
<path d="M75.9103 218.9C75.9103 218.9 81.3253 210.642 80.7662 208.249" stroke="black" stroke-width="0.544886" stroke-linecap="round"/>
<path d="M77.963 219.827C77.963 219.827 78.2957 218.466 77.5754 217.921" stroke="black" stroke-width="0.544886" stroke-linecap="round"/>
<path d="M78.6133 217.356L81.6685 211.616" stroke="black" stroke-width="0.544886" stroke-linecap="round"/>
<path d="M82.686 221.842L83.7854 221.506" stroke="black" stroke-width="0.544886" stroke-linecap="round"/>
<path d="M82.3179 223.376L83.3817 223.214" stroke="black" stroke-width="0.544886" stroke-linecap="round"/>
<path d="M83.8549 219.929C83.8549 219.929 86.1183 215.673 86.1018 214.693" stroke="black" stroke-width="0.544886" stroke-linecap="round"/>
<path d="M95.877 199.794L94.1837 200.471C94.1837 200.471 90.4555 204.463 88.6229 204.052C88.6229 204.052 84.8885 209.4 81.6175 207.446C81.6175 207.446 79.8654 206.112 80.5117 204.544" stroke="black" stroke-width="0.544886" stroke-linecap="round"/>
<path d="M92.1271 200.448C91.0838 200.686 89.8758 201.994 89.8758 201.994C88.6659 203.754 86.1801 203.354 86.1801 203.354L85.9355 203.665C84.5705 205.917 83.2306 205.661 83.2306 205.661C81.245 205.291 83.6383 203.05 83.6383 203.05L84.5921 202.631L83.8919 203.844C83.8919 203.844 84.0034 205.331 85.863 202.782C85.863 202.782 87.9252 203.132 89.0491 201.97" stroke="black" stroke-width="0.544886" stroke-linecap="round"/>
<path d="M65.3857 247.006C67.7827 241.242 70.4154 235.595 73.5412 230.239C73.8744 229.599 75.4796 226.972 74.3096 228.798C71.028 233.751 64.93 243.238 64.93 243.238C62.7054 247.014 59.6136 249.666 57.2799 253.371C55.6687 255.73 54.0595 258.079 52.8041 260.666C50.1351 264.986 46.9052 267.864 44.3761 272.274C43.9739 274.788 40.0694 279.189 43.7204 281.662C48.4571 283.095 47.3113 279.931 48.5841 278.641C50.2148 275.886 53.0894 271.678 53.9781 270.256C53.9515 268.878 61.3842 254.566 65.3857 247.006Z" fill="#FCE94F"/>
<defs>
<linearGradient id="paint0_linear_2689_26672" x1="135.067" y1="148.459" x2="-384.797" y2="148.459" gradientUnits="userSpaceOnUse">
<stop stop-color="white"/>
<stop offset="1" stop-color="#CCCCCC"/>
</linearGradient>
</defs>
</svg>
