<svg width="208" height="319" viewBox="0 0 208 319" fill="none" xmlns="http://www.w3.org/2000/svg">
<path d="M192.5 0.5H15.5C7.21573 0.5 0.5 7.21573 0.5 15.5V303.5C0.5 311.784 7.21573 318.5 15.5 318.5H192.5C200.784 318.5 207.5 311.784 207.5 303.5V15.5C207.5 7.21573 200.784 0.5 192.5 0.5Z" fill="url(#paint0_linear_2689_21849)" stroke="black" stroke-linecap="square"/>
<path d="M157.43 16.0752H193.03V305.075H157.43M121.83 305.075H86.23M50.63 305.075H15.03V16.0752H50.63M86.23 16.0752H121.83" stroke="black"/>
<path d="M23.1996 24.4999C22.9213 24.4999 22.3647 24.6699 21.53 25.01V24.6854L25.7038 22.5752L25.8895 22.6216V36.5347C25.8894 37.0912 26.0286 37.4545 26.3069 37.6245C26.5851 37.7946 27.1803 37.8874 28.0923 37.9028V38.2506H21.6922V37.9028C22.558 37.8719 23.1376 37.7482 23.4313 37.5318C23.7405 37.2999 23.8951 36.8207 23.8951 36.0941V25.5898C23.8951 24.8632 23.6633 24.4999 23.1996 24.4999Z" fill="black"/>
<path d="M40.1503 36.3492C39.1918 37.8332 37.9241 38.5752 36.3473 38.5752C34.7706 38.5752 33.5029 37.8177 32.5445 36.3028C31.586 34.7878 31.1067 32.8399 31.1067 30.4593C31.1067 28.2177 31.586 26.3472 32.5445 24.8477C33.5029 23.3327 34.8014 22.5752 36.4401 22.5752C37.9551 22.5752 39.1918 23.3173 40.1503 24.8013C41.1088 26.2854 41.5879 28.2177 41.5879 30.5984C41.5879 32.9482 41.1088 34.8651 40.1503 36.3492ZM36.3706 23.1781C34.3455 23.1781 33.3328 25.6747 33.3328 30.668C33.3328 35.5375 34.3377 37.9724 36.3473 37.9724C38.357 37.9724 39.3618 35.5298 39.3618 30.6448C39.3618 28.2178 39.1068 26.3704 38.5966 25.1028C38.0865 23.8197 37.3444 23.1781 36.3706 23.1781Z" fill="black"/>
<path d="M188.861 300.65C189.139 300.65 189.695 300.48 190.53 300.14V300.465L186.356 302.575L186.171 302.528V288.615C186.171 288.059 186.031 287.695 185.753 287.525C185.475 287.355 184.88 287.263 183.968 287.247V286.899H190.368V287.247C189.502 287.278 188.922 287.402 188.629 287.618C188.32 287.85 188.165 288.329 188.165 289.056V299.56C188.165 300.287 188.397 300.65 188.861 300.65Z" fill="black"/>
<path d="M171.91 288.801C172.868 287.317 174.136 286.575 175.713 286.575C177.289 286.575 178.557 287.332 179.516 288.847C180.474 290.362 180.953 292.31 180.953 294.691C180.953 296.932 180.474 298.803 179.516 300.302C178.557 301.817 177.259 302.575 175.62 302.575C174.105 302.575 172.868 301.833 171.91 300.349C170.951 298.865 170.472 296.932 170.472 294.551C170.472 292.202 170.951 290.285 171.91 288.801ZM175.689 301.972C177.715 301.972 178.727 299.475 178.727 294.482C178.727 289.612 177.722 287.178 175.713 287.178C173.703 287.178 172.698 289.62 172.698 294.505C172.698 296.932 172.953 298.779 173.463 300.047C173.974 301.33 174.716 301.972 175.689 301.972Z" fill="black"/>
<path d="M97.7766 73.9105C97.7766 73.9105 103.487 69.385 106.289 70.8935L106.504 67.661L104.026 65.3982L101.763 61.3037L101.117 57.4247L99.9316 54.8386L100.363 49.6666L100.255 44.7101L100.363 40.7233L101.44 39.6458L102.625 40.1845L105.642 39.3225C105.642 39.3225 108.444 41.3698 112.323 39.4303C112.323 39.4303 118.142 45.3566 120.404 45.7876C120.404 45.7876 119.111 49.3434 123.745 52.1449L124.714 53.3301L123.96 58.5022L122.99 62.5967L125.145 65.937L130.21 70.0315L132.796 74.2338V75.3113C132.796 75.3113 134.304 76.9275 136.459 76.281L137.537 74.6648L136.998 72.6175L137.429 70.0315L133.981 65.7215V62.1657L132.041 58.0712L129.455 57.1014L129.24 53.4379L130.641 49.3434L129.024 45.0333V42.2318L126.654 38.5683L124.176 36.8443L122.128 33.7195L117.711 30.918L114.37 30.5947L109.306 32.3187L107.151 32.4265L103.164 33.073L100.578 35.9823L99.1774 38.245L98.0999 40.1845C98.0999 40.1845 97.0224 44.2791 98.8542 50.3131L97.5612 53.0069L97.7766 56.1316L99.3929 59.0409L98.5309 62.5967L96.2681 65.506L94.4364 67.8765L94.3286 71.971L95.0829 73.695L97.7766 73.9105Z" fill="#FFDD55"/>
<path d="M94.2207 68.7383L92.1734 68.9538L89.9106 73.2638L94.0052 74.5568L95.1904 73.2638C95.1904 73.2638 94.0052 70.2468 94.2207 68.7383Z" fill="#FFEEAA"/>
<path d="M84.7388 76.0653L87.648 76.4963L89.9108 77.1428L91.9581 79.7288L94.3286 79.5133L94.2209 77.6816L94.4364 74.7723L93.0356 73.9103L89.8031 73.0483C89.8031 73.0483 86.1395 70.8933 84.7388 76.0653Z" fill="#FF5555"/>
<path d="M95.2984 80.0521C95.2984 80.0521 92.4969 77.4661 95.5139 74.1258C95.5139 74.1258 99.0697 73.0483 100.363 76.1731C100.363 76.1731 103.164 81.6684 95.2984 80.0521Z" fill="#FFEEAA"/>
<path d="M75.0411 96.6457C75.0411 96.6457 72.024 87.5946 78.9201 81.9916C78.9201 81.9916 82.9069 75.0955 87.4324 76.3885L89.6952 77.5738L91.958 79.6211L94.6517 79.7288L96.9145 80.5908C96.9145 80.5908 97.0222 83.7156 98.423 85.2241C98.423 85.2241 97.561 86.6249 98.7462 91.9047L98.3152 92.7667L97.992 95.5682L96.8067 98.2619L95.1905 99.1239C95.1905 99.1239 92.1735 99.1239 92.1735 102.356L87.8634 108.175C87.8634 108.175 85.7084 96.3224 74.0713 99.986L75.0411 96.6457Z" fill="#FFD42A"/>
<path d="M73.8557 99.7705C73.8557 99.7705 85.9238 96.107 88.0789 108.283L83.5533 117.118L79.4588 121.859L74.7177 127.031L69.5457 130.587L67.0674 133.281V134.251L65.7744 133.604V112.916L70.3 108.067L71.3775 103.111L73.317 101.171L73.8557 99.7705Z" fill="#5599FF"/>
<path d="M63.9427 35.4434L66.421 37.9216L65.8823 133.928L62.542 132.85L63.9427 35.4434Z" fill="#D5F6FF"/>
<path d="M63.7274 35.2279L62.8654 33.5039L58.7708 37.5984L57.6934 134.251L62.6499 133.066L63.7274 35.2279Z" fill="#80E5FF"/>
<path d="M50.3662 139.208C50.3662 139.208 48.4266 141.255 47.9956 141.147C47.5647 141.039 45.3019 139.962 45.3019 139.962L44.5476 137.484L45.3019 135.005L47.6724 134.574L49.9351 135.329C49.9351 135.329 52.8444 136.298 57.5854 134.467L62.8652 132.958L66.7443 133.928L71.7008 135.221L73.6403 135.329C73.6403 135.329 77.1961 132.312 78.9201 136.622L78.1659 138.022L76.4418 139.746L73.4248 138.884C73.4248 138.884 68.4683 138.346 65.8823 140.285L62.973 141.147C62.973 141.147 52.5212 138.669 50.3662 139.208Z" fill="#FFCC00"/>
<path d="M65.3437 140.608L67.8219 143.087V145.349L68.2529 147.289C68.2529 147.289 68.8994 150.952 67.3909 150.845L65.7746 150.521C65.7746 150.521 64.8049 156.232 58.7708 154.508C58.7708 154.508 55.8616 147.612 58.1244 139.962L62.7576 140.932L64.1584 141.039L65.3437 140.608Z" fill="#F4E3D7"/>
<path d="M54.9996 139.315L55.1073 144.918C55.1073 144.918 54.3531 147.612 55.7538 149.444C55.7538 149.444 54.3531 153.862 58.2321 154.616C58.2321 154.616 56.1848 142.871 58.1244 140.07L54.9996 139.315Z" fill="#FFCC00"/>
<path d="M58.1244 154.4C58.1244 154.4 62.7576 155.801 64.9127 153.538C64.9127 153.538 68.6839 156.986 64.8049 160.003C64.8049 160.003 65.7746 165.175 61.3569 164.96C61.3569 164.96 57.5856 163.559 59.2019 159.788C59.2019 159.788 57.5856 157.848 58.1244 154.4Z" fill="#FFCC00"/>
<path d="M58.0164 128.433L57.8009 134.79L55.1072 135.113C55.1072 135.113 55.5382 130.588 58.0164 128.433Z" fill="#D5F6FF"/>
<path d="M106.06 69.7226L106.67 67.2844C106.67 67.2844 99.8128 62.4082 100.346 52.7319V45.5699L100.27 40.4651L101.413 39.627L102.937 40.1603L105.68 39.3984C105.68 39.3984 108.346 41.3032 111.546 39.627L114.061 40.6175C114.061 40.6175 117.565 45.4175 120.537 45.6461C120.537 45.6461 118.784 48.8462 124.194 52.6557L124.423 55.6272L121.984 64.313L122.213 69.1892L124.499 71.2464L126.404 73.3036L127.013 75.5131L124.88 78.9417C124.88 78.9417 121.832 83.6656 120.004 83.7418L115.813 83.9703C115.813 83.9703 111.546 79.1703 101.032 78.0274C101.032 78.0274 100.956 74.675 97.6033 73.9131C97.6033 73.9131 103.165 69.4178 106.289 70.7892L106.06 69.7226Z" fill="#F4E3D7"/>
<path d="M96.699 80.3758L98.3152 84.7935C98.3152 84.7935 95.1904 92.9826 107.043 104.62C107.043 104.62 113.616 121.213 137.967 121.86L144.648 116.796C144.648 116.796 151.544 112.809 152.083 106.882C152.083 106.882 156.608 100.633 147.773 96.7539L146.911 96.5384C146.911 96.5384 146.695 87.1641 142.278 85.1168C142.278 85.1168 142.385 79.6215 136.674 76.4967L135.274 76.6045L132.58 75.527L130.64 69.6007L122.02 66.0449C122.02 66.0449 121.158 70.5704 125.576 72.4022C125.576 72.4022 131.071 75.3115 121.913 82.2075C121.913 82.2075 118.034 85.6556 113.831 82.5308C113.831 82.5308 106.828 78.0053 100.793 78.4363C100.793 78.4363 99.716 81.13 96.699 80.3758Z" fill="#FF2A2A"/>
<path d="M152.945 131.126C156.285 130.911 156.932 124.123 156.932 124.123C162.535 113.886 153.053 109.469 153.053 109.469L152.191 106.99C152.191 106.99 150.143 114.102 144.864 116.688C144.864 116.688 154.453 119.705 152.945 131.126Z" fill="#2A7FFF"/>
<path d="M149.82 132.527C147.988 122.075 140.661 119.704 140.661 119.704L144.971 116.58C144.971 116.58 155.531 120.89 152.298 131.341L149.82 132.527Z" fill="#FFE680"/>
<path d="M141.2 119.705L137.968 121.86L135.597 126.17L135.274 126.924L136.89 127.247L139.799 124.769L142.385 123.584L136.782 135.652L141.739 136.729L144.756 136.837H147.019L149.82 133.928L150.251 132.096C150.251 132.096 148.204 124.015 141.2 119.705Z" fill="#F4E3D7"/>
<path d="M87.0015 110.007L90.1262 104.081L92.2812 102.357C92.2812 102.357 91.7425 98.9089 95.6215 99.0167C95.6215 99.0167 99.8238 95.7841 98.7463 92.1206C98.7463 92.1206 102.302 101.495 107.151 103.865C107.151 103.865 113.616 121.752 137.86 122.183L135.597 126.17L128.701 125.308C128.701 125.308 122.99 129.079 119.111 125.416C119.111 125.416 115.555 128.433 112.538 125.739L107.905 127.463C107.905 127.463 104.026 125.308 97.4533 130.372L94.7595 127.032L91.4192 123.907L89.5875 121.106L88.1867 117.55L87.9712 114.748L88.4022 113.347L87.0015 110.007Z" fill="#2A7FFF"/>
<path d="M103.487 136.837C103.487 136.837 120.62 130.587 137.105 135.113L142.493 123.691L139.368 124.769L136.782 127.678L135.381 126.924L135.597 125.846L128.701 125.308C128.701 125.308 124.499 129.294 119.434 125.415C119.434 125.415 116.31 127.463 112.431 125.739L107.582 127.57C107.582 127.57 104.565 125.2 97.6687 130.372L95.6214 129.079L92.1734 130.695L89.2641 131.126L86.0316 134.79L82.5836 136.945L80.8596 138.992L82.4758 142.979C82.4758 142.979 75.903 146.858 76.334 152.245L78.7046 156.124L77.5193 158.387L77.3038 162.589L75.041 164.96L74.8255 168.3L73.9635 171.317L72.1318 174.765L71.9163 175.951L73.6403 176.274L74.61 178.213L78.2735 181.661L76.9805 185.756L77.4116 188.45L76.1185 192.76L75.1488 196.1C75.1488 196.1 79.7821 200.518 88.0789 199.117L88.8331 196.531L89.1564 192.76L90.5571 191.682L91.4192 191.143C91.4192 191.143 108.552 193.729 115.017 190.281C115.017 190.281 121.913 193.622 130.533 189.419C130.533 189.419 144.971 188.988 146.911 188.234C146.911 188.234 145.402 161.512 144.325 157.956C144.325 157.956 140.984 156.34 141.846 160.865C141.846 160.865 134.627 161.296 136.998 169.485C136.998 169.485 131.826 170.132 134.304 174.011L132.472 175.735L132.149 178.537C132.149 178.537 129.671 177.675 130.64 182.416C130.64 182.416 132.903 184.032 132.58 185.971C132.58 185.971 121.913 192.113 114.909 188.342H108.875C108.875 188.342 113.293 182.954 107.582 182.954C107.582 182.954 108.013 179.506 105.642 178.968V176.166L107.366 175.412L108.12 173.903C108.12 173.903 108.336 167.223 101.979 170.994C101.979 170.994 98.2074 171.317 97.6687 168.408C97.6687 168.408 100.578 167.115 98.854 164.098C98.854 164.098 95.9447 160.003 93.6819 163.667L92.3889 162.589L92.6044 158.387C92.6044 158.387 95.5137 163.775 100.147 159.357C100.147 159.357 105.103 162.051 107.582 156.771L108.12 155.37C108.12 155.37 112.431 151.922 112.107 147.72L110.922 145.242L109.521 143.733L108.013 143.302L103.487 136.837Z" fill="#FFD42A"/>
<path d="M103.394 136.618C103.394 136.618 121.222 130.523 137.223 135.247L137.375 136.618C137.375 136.618 143.775 143.628 144.385 158.257C144.385 158.257 141.185 156.58 142.099 160.695C142.099 160.695 135.089 161.152 136.918 169.381C136.918 169.381 131.28 170.295 134.48 174.104L132.194 175.628L132.042 178.828C132.042 178.828 129.603 177.152 130.823 182.333C130.823 182.333 132.804 184.619 132.651 185.838C132.651 185.838 121.527 192.695 114.975 188.581L109.032 188.428C109.032 188.428 111.165 185.076 109.337 183.247L107.508 183.095L107.051 180.504L105.679 178.523L105.527 175.933C105.527 175.933 108.27 175.933 108.27 173.342C108.27 173.342 107.813 168.619 103.394 169.99C103.394 169.99 100.956 174.104 97.6032 168.314L98.8222 167.552L99.5841 166.028L99.2031 164.428C99.2031 164.428 97.0698 160.542 93.565 163.514L92.2698 162.523L92.6507 158.333C92.6507 158.333 94.5555 163.209 100.194 159.476C100.194 159.476 105.451 162.447 107.889 156.58L108.118 155.133C108.118 155.133 112.384 153.228 112.156 148.047L110.327 144.542L108.041 142.942C108.041 142.942 103.47 138.142 103.394 136.618Z" fill="#2A7FFF"/>
<path d="M115.232 190.281C108.013 194.052 91.5269 191.035 91.5269 191.035L91.0959 191.79C91.0959 191.79 91.8502 192.652 92.0657 193.083C92.2812 193.514 92.1735 200.194 92.1735 200.194L93.8975 208.599L93.1432 196.638C93.1432 196.638 96.6989 190.928 115.232 195.345C115.232 195.345 118.465 196.207 125.037 195.13C125.037 195.13 137.752 191.79 139.153 194.16L140.554 189.204L130.533 189.742C130.533 189.742 122.882 193.621 115.232 190.281Z" fill="#2B0000"/>
<path d="M92.2812 202.781L94.7595 211.724C94.7595 211.724 91.6348 214.31 94.2208 221.529C94.2208 221.529 90.5573 236.83 94.2208 246.527L95.0828 255.686C95.0828 255.686 101.656 263.013 107.151 256.333L108.767 245.342L111.03 239.631L113.077 231.981C113.077 231.981 112.538 228.856 112.538 227.994C112.538 227.132 112.107 221.852 112.107 221.852L110.922 219.051L112.107 212.694L115.879 197.716L119.003 212.586L117.387 217.758C117.387 217.758 111.892 225.408 117.71 238.877L118.141 251.592C118.141 251.592 122.882 255.04 130.964 250.299V247.713L131.395 242.433L133.765 235.214L134.735 226.055C134.735 226.055 134.412 220.021 134.412 218.943C134.412 217.866 136.998 212.047 136.998 212.047L137.429 205.367L138.183 196.747L138.614 194.161C138.614 194.161 136.782 191.898 125.253 195.346C125.253 195.346 118.572 197.285 109.414 194.592C109.414 194.592 99.1773 192.113 93.5743 196.747L94.6518 211.293C94.6518 211.293 92.2812 205.905 92.2812 202.781Z" fill="#FF2A2A"/>
<path d="M118.573 251.591C118.573 251.591 111.784 254.177 117.603 260.427V266.03L116.31 269.262L115.125 271.956L116.956 275.404C116.956 275.404 129.886 277.775 131.395 278.637C131.395 278.637 134.627 279.068 139.368 274.758L133.334 270.771L128.917 265.922V258.595C128.917 258.595 134.627 257.41 130.964 250.622C130.964 250.622 121.159 255.039 117.603 250.945L118.573 251.591Z" fill="#FFD42A"/>
<path d="M94.8673 255.363C94.8673 255.363 101.871 262.474 107.582 256.117L109.629 259.565L109.306 262.798L106.397 265.276L105.966 275.943H104.78L103.918 277.99C103.918 277.99 93.4666 286.503 92.3891 288.011C92.3891 288.011 87.8635 285.641 86.0317 285.856L86.8938 282.3L94.2208 272.926L94.6518 271.31L95.4061 269.909C95.4061 269.909 96.2681 265.815 96.0526 264.953C96.0526 264.953 89.372 260.858 94.8673 255.363Z" fill="#FFD42A"/>
<path d="M105.75 275.404L106.72 280.253L105.642 283.162L101.979 284.994L97.8843 286.934L96.268 289.196L92.7123 291.351L88.7255 292.321H85.6007L82.2604 293.937L78.3814 293.399L77.0884 290.705L79.0279 288.873L80.4286 285.748L85.2774 282.731L87.1092 282.408L86.0317 285.641C86.0317 285.641 90.8805 286.826 91.8502 288.119C91.8502 288.119 100.794 279.93 103.703 278.206C103.703 278.206 104.565 275.404 105.75 275.404Z" fill="#FF2A2A"/>
<path d="M115.017 273.142L113.4 275.728L114.478 278.206L116.956 279.822L119.65 280.469C119.65 280.469 127.839 281.438 132.365 283.055L136.028 283.701L142.385 284.348L146.157 283.809C146.157 283.809 149.928 282.731 149.066 280.145L148.312 278.745L145.726 278.637L144.002 276.913L141.092 275.728L139.153 274.866L136.136 277.021C136.136 277.021 134.196 278.852 132.041 278.745C132.041 278.745 120.512 275.297 117.064 275.297L115.017 273.142Z" fill="#FF2A2A"/>
<path d="M88.7651 97.4563L91.2032 92.2753L94.9366 90.7515L93.5651 95.2468L88.7651 97.4563Z" fill="#FF8080" stroke="black" stroke-width="0.308248"/>
<path d="M85.1841 94.2559L88.6127 91.2083L89.0698 86.332L86.0984 88.4654L85.1841 94.2559Z" fill="#FF8080" stroke="black" stroke-width="0.308248"/>
<path d="M79.3936 91.1322L82.8222 87.6274L83.127 83.8179L81.8317 84.1226L79.4698 87.0179L79.3936 91.1322Z" fill="#FF8080" stroke="black" stroke-width="0.308248"/>
<path d="M140.727 189.343C140.727 189.343 137.832 195.133 137.68 203.209C137.68 203.209 138.56 208.814 135.435 215.333C135.435 215.333 134.089 221.798 134.843 226.162C134.843 226.162 134.52 234.674 132.903 238.661C132.903 238.661 130.748 245.396 130.425 250.244C130.425 250.244 134.951 255.201 129.401 258.38C129.401 258.38 128.378 261.989 128.863 265.545C128.863 265.545 129.455 267.161 133.388 270.178C133.388 270.178 137.483 274.003 140.392 275.243C140.392 275.243 142.278 276.105 142.924 276.158C142.924 276.158 145.618 277.775 145.995 278.852C145.995 278.852 149.335 277.882 149.12 280.792C149.12 280.792 148.473 283.755 144.217 283.97C144.217 283.97 136.351 284.455 133.119 283.27C133.119 283.27 129.94 281.223 118.896 280.415C118.896 280.415 110.814 279.068 115.071 272.98C115.071 272.98 115.178 269.855 116.741 269.262C116.741 269.262 116.471 266.569 117.549 265.976C117.549 265.976 116.956 262.528 117.872 260.157C117.872 260.157 115.017 258.918 115.286 255.524C115.286 255.524 114.801 251.914 118.303 251.645C118.303 251.645 117.064 246.473 117.764 239.092C117.764 239.092 112.269 225.354 117.603 217.273C117.603 217.273 118.842 214.848 118.734 212.154C118.734 212.154 115.933 201.218 116.417 197.123C116.417 197.123 115.825 196.477 115.555 197.231C115.555 197.231 115.555 204.558 111.892 212.37C111.892 212.37 112.592 217.057 110.76 219.212C110.76 219.212 116.256 231.55 109.198 243.241C109.198 243.241 106.774 251.052 107.151 255.901C107.151 255.901 113.185 261.019 106.235 265.006C106.235 265.006 106.72 270.448 105.696 272.172C105.696 272.172 106.774 274.327 105.804 275.943C105.804 275.943 108.336 281.869 103.972 284.132C103.972 284.132 100.255 285.156 97.8843 287.149C97.8843 287.149 94.6518 291.782 89.2643 292.267C89.2643 292.267 85.7085 291.998 82.6376 293.614C82.6376 293.614 74.2869 293.614 78.3814 289.142L79.4051 288.496C79.4051 288.496 80.0515 284.294 86.6244 282.677C86.6244 282.677 91.2038 275.35 94.8134 272.441C94.8134 272.441 93.7898 270.663 95.406 270.017C95.406 270.017 96.3758 268.346 95.8371 264.845C95.8371 264.845 89.1565 260.588 94.9212 255.578C94.9212 255.578 95.2444 254.554 94.5441 248.736C94.5441 248.736 90.5034 229.448 94.4363 221.529C94.4363 221.529 91.7425 215.603 94.6518 211.508C94.6518 211.508 90.8266 200.841 91.6887 192.813C91.6887 192.813 90.4495 190.658 89.2643 193.136C89.2643 193.136 88.9949 199.063 87.8635 199.171C87.8635 199.171 75.2566 199.709 75.4183 195.669C75.4183 195.669 77.1423 191.035 77.3039 187.21C77.3039 187.21 76.388 183.978 78.4892 182.254C78.4892 182.254 79.1357 180.853 74.1253 177.782C74.1253 177.782 74.0714 176.381 72.8322 176.166C72.8322 176.166 70.6773 175.681 73.7481 171.748C73.7481 171.748 74.9873 170.132 75.095 165.983C75.095 165.983 74.9334 163.882 77.3578 162.751C77.3578 162.751 76.7113 157.794 78.8124 155.909C78.8124 155.909 71.5392 149.282 82.5837 143.14C82.5837 143.14 79.5128 139.261 82.3682 137.375C82.3682 137.375 85.1697 135.113 86.5705 134.951C86.5705 134.951 88.4561 129.941 93.3588 130.426C93.3588 130.426 94.975 128.648 96.4835 129.294C96.4835 129.294 95.7293 126.547 92.4429 124.715C92.4429 124.715 87.2709 119.597 88.4561 114.478L87.217 109.899C87.217 109.899 82.9069 120.297 77.6272 123.583C77.6272 123.583 72.2935 129.025 70.0846 129.941C70.0846 129.941 65.9362 133.335 67.2831 134.305C68.63 135.274 73.4788 135.328 73.4788 135.328C73.4788 135.328 77.1423 131.341 79.0818 136.998C79.0818 136.998 77.4117 142.332 73.3171 138.615C73.3171 138.615 67.8219 138.291 65.4513 140.716C65.4513 140.716 68.0373 142.871 67.6602 144.002C67.6602 144.002 68.8993 145.241 68.3067 146.965C68.3067 146.965 70.1923 151.922 66.0439 150.198C66.0439 150.198 65.2358 153.376 64.5354 153.592C64.5354 153.592 68.5222 155.585 64.8587 159.841C64.8587 159.841 65.9362 163.99 61.9494 164.69C61.9494 164.69 57.7471 164.475 59.2557 159.572C59.2557 159.572 57.1006 158.064 58.3398 154.723C58.3398 154.723 55.1073 154.454 55.5921 149.821C55.5921 149.821 54.1914 147.342 55.1073 144.864L55.0534 139.423L50.6356 139.099C50.6356 139.099 46.2717 143.41 44.2783 137.968C44.2783 137.968 44.871 132.311 50.1507 135.544C50.1507 135.544 53.922 135.544 55.3228 134.897C55.3228 134.897 55.4844 130.91 57.801 128.755L58.7708 37.8138L62.6498 33.4499L66.0439 37.7599L65.7746 113.563C65.7746 113.563 68.3606 108.929 70.1385 108.175C70.1385 108.175 70.354 103.38 74.0714 99.986C74.0714 99.986 73.3171 97.3461 75.0412 96.6996C75.0412 96.6996 71.3237 88.3489 79.2973 81.6145C79.2973 81.6145 81.3446 77.6816 84.9004 76.2808C84.9004 76.2808 85.5468 71.4859 90.3418 73.1022C90.3418 73.1022 90.2879 68.6844 94.0591 68.6305C94.0591 68.6305 94.7057 65.4519 96.4835 64.8592C96.4835 64.8592 100.255 61.088 99.4467 58.6097C99.4467 58.6097 95.9448 55 98.5847 50.9055C98.5847 50.9055 98.6925 48.1579 97.9921 45.4641C97.9921 45.4641 96.7529 40.5076 99.2851 38.0832C99.2851 38.0832 99.4467 35.4972 101.009 35.3894C101.009 35.3894 101.763 32.534 106.828 32.6956C106.828 32.6956 107.312 31.8875 109.791 32.4263C109.791 32.4263 116.417 27.793 122.29 33.9348C122.29 33.9348 124.122 37.706 126.223 38.6219C126.223 38.6219 130.479 40.2921 128.916 45.1947C128.916 45.1947 131.664 49.1815 130.21 51.7675C130.21 51.7675 128.486 54.7845 129.617 56.9395C129.617 56.9395 136.19 60.8186 133.604 65.8829C133.604 65.8829 138.291 69.0076 137.213 73.156C137.213 73.156 138.399 74.5029 136.405 76.6041C136.405 76.6041 142.655 78.5436 142.116 84.847C142.116 84.847 147.881 90.1807 147.019 96.3224C147.019 96.3224 155.854 99.3395 152.029 106.72C152.029 106.72 152.568 109.145 155.369 110.977C155.369 110.977 162.319 116.041 157.147 124.176C157.147 124.176 156.662 130.695 152.837 130.964L150.413 132.365C150.413 132.365 149.443 136.783 146.21 136.944C146.21 136.944 143.84 137.106 142.655 136.513C142.655 136.513 139.53 137.052 138.506 135.759C138.506 135.759 135.759 134.736 137.644 136.891C137.644 136.891 143.14 144.379 143.247 150.09C143.247 150.09 147.665 178.428 146.803 187.911C146.803 187.911 143.326 189.859 140.727 189.343Z" stroke="black"/>
<path d="M106.899 39.7792C105.375 36.4268 108.88 33.9887 108.88 33.9887C109.946 33.1506 108.194 32.3125 108.194 32.3125C108.194 32.3125 106.137 32.9982 106.975 35.1316C106.975 35.1316 105.603 37.3411 106.899 39.7792Z" fill="black"/>
<path d="M99.6602 43.8934C98.2126 40.3886 101.489 39.2457 101.489 39.2457C103.165 40.3886 104.765 39.1695 104.765 39.1695C104.003 35.2838 105.832 35.9695 105.832 35.9695C105.832 35.9695 104.155 40.8458 110.632 39.9315C110.632 39.9315 108.879 41.9124 105.527 39.7791C105.527 39.7791 103.089 41.3029 101.26 40.541C101.26 40.541 100.194 40.6934 100.422 43.6648C100.419 43.6938 100.11 47.6797 102.445 45.6405C102.445 45.6405 106.136 46.0268 104.765 51.3601C104.765 51.3601 102.251 55.2459 105.07 56.3126L106.822 55.6269C106.822 55.6269 108.27 56.0078 108.27 56.3888C108.27 56.3888 108.727 57.1507 106.746 56.3126C106.746 56.3126 103.47 58.3697 103.165 54.484C103.165 54.484 103.317 52.3506 104.079 51.2078C104.079 51.2078 105.375 47.8553 102.556 46.4839C102.686 46.582 100.138 47.9282 99.6602 43.8934Z" fill="black"/>
<path d="M106.518 67.6655C113.07 69.6464 119.318 60.732 119.318 60.732L118.785 61.113C105.146 75.5893 101.87 59.4368 101.87 59.4368C101.87 58.0653 100.803 56.3129 100.803 56.3129V51.2843C100.795 50.2197 100.824 51.4707 100.727 48.9986C100.727 48.9986 99.9653 47.551 100.499 45.9509L99.8891 44.9604C99.8891 44.9604 99.3557 48.9224 99.8891 50.751C99.8891 50.751 98.1367 54.1796 100.041 57.3796C100.041 57.3796 101.794 60.9606 98.3652 63.6273C98.3652 63.6273 100.727 62.1797 101.261 60.3511C101.261 60.3511 102.175 63.9321 99.2033 66.7512L100.346 66.9797C100.346 66.9797 100.499 69.1131 102.784 67.6655C102.784 67.6655 100.346 68.275 100.956 66.1416L102.708 63.5511L103.013 64.6178C103.013 64.6178 102.784 66.294 101.946 66.9797C101.946 66.9797 102.632 66.9035 103.546 65.4559C103.546 65.4559 105.756 67.3607 102.327 69.0369L101.718 69.7988C101.718 69.7988 103.089 70.4083 105.222 67.1321L106.518 67.6655Z" fill="black"/>
<path d="M103.546 59.5127C103.546 59.5127 105.375 58.446 105.832 59.2841C105.832 59.2841 107.051 58.5984 107.965 59.4365C107.965 59.4365 109.184 58.7508 109.108 59.8937L108.727 60.7318C108.727 60.7318 106.746 59.1318 105.908 60.2746C105.908 60.2746 104.308 59.6651 103.851 59.9699L103.546 59.5127Z" fill="black"/>
<path d="M105.451 61.4175L106.365 61.9508L107.661 61.4175C107.661 61.4175 108.118 63.1699 106.289 63.0175C106.289 63.0175 105.299 63.0175 105.451 61.4175Z" fill="black"/>
<path d="M121.603 54.4844V55.7796C121.603 55.7796 120.156 56.6939 119.927 58.1416C119.927 58.1416 120.918 56.5415 121.756 56.5415C122.442 55.551 121.603 54.4844 121.603 54.4844Z" fill="black"/>
<path d="M101.794 34.2935C101.794 34.2935 102.708 34.7506 104.232 34.2173C104.232 34.2173 103.851 35.7411 101.26 35.6649L101.794 34.2935Z" fill="black"/>
<path d="M99.9652 37.0362C99.9652 37.0362 100.651 37.4172 102.022 36.7314C102.022 36.7314 100.803 38.4076 99.3557 38.56L99.9652 37.0362Z" fill="black"/>
<path d="M120.308 41.6081C118.861 41.3033 117.87 41.9129 117.87 41.9129C115.127 42.37 110.556 39.8557 110.556 39.8557C110.556 39.8557 112.232 38.2557 113.908 38.789C113.908 38.789 113.07 40.4652 116.346 40.8462C116.346 40.8462 119.927 40.4652 120.308 41.6081Z" fill="black"/>
<path d="M118.708 42.5986C118.708 42.5986 122.975 43.2082 124.346 48.2368C122.823 43.8939 117.87 42.9034 117.87 42.9034L118.708 42.5986Z" fill="black"/>
<path d="M115.279 37.8747C114.06 36.5032 112.918 36.5032 112.918 36.5032C108.879 37.9509 108.346 36.6556 108.346 36.6556C108.346 36.6556 107.279 36.2747 107.508 35.2842L106.898 36.4271C106.898 36.4271 107.813 37.7985 109.794 37.7223C109.794 37.7223 113.299 36.808 115.279 37.8747Z" fill="black"/>
<path d="M110.784 33.76C110.784 33.76 115.432 32.6171 116.956 35.5886C112.994 32.9219 109.946 34.7505 109.946 34.7505C109.946 34.7505 110.632 34.0648 110.784 33.76Z" fill="black"/>
<path d="M129.07 44.8842C126.556 44.5794 123.889 39.3984 123.889 39.3984C123.889 39.3984 125.565 44.6556 128.994 45.7985L129.07 44.8842Z" fill="black"/>
<path d="M123.127 35.5887C120.689 33.303 118.022 33.3792 118.022 33.3792C118.022 33.3792 121.756 34.8268 124.346 37.4935L123.127 35.5887Z" fill="black"/>
<path d="M132.118 72.0081C132.88 68.5033 127.546 66.5985 127.546 66.5985C125.261 64.6175 125.642 62.6366 125.642 62.6366C127.242 63.0937 127.013 62.5604 127.013 62.5604C123.508 60.3508 124.346 58.5984 124.346 58.5984C125.489 54.3317 124.346 50.9031 124.346 50.9031C122.594 50.065 120.461 46.0269 120.461 46.0269C120.461 46.0269 122.365 50.2936 124.042 51.5126C124.042 51.5126 122.67 51.7412 120.384 48.084C120.384 48.084 121.299 52.3507 123.584 52.7317C123.584 52.7317 125.184 59.9699 120.842 59.0556C120.842 59.0556 118.784 65.3032 122.518 70.6366C122.518 70.6366 126.861 72.6176 126.327 75.2843L128.689 75.2081C128.689 75.2081 129.07 73.6843 127.851 73.3795L127.013 73.6843C127.013 73.6843 127.013 72.389 123.813 69.9509C123.813 69.9509 122.137 68.5033 122.746 67.6652C122.746 67.6652 129.375 69.1128 130.518 71.7033L130.67 80.1605L131.508 72.9986L132.194 74.5986C132.194 74.5986 131.432 78.1034 132.88 80.4653C132.88 80.4653 132.27 76.351 132.956 75.97L133.489 74.8272C133.489 74.8272 131.966 73.6843 132.118 72.0081Z" fill="black"/>
<path d="M121.756 45.4937C121.756 45.4937 122.518 48.008 124.118 48.9223C121.756 48.6175 121.756 45.4937 121.756 45.4937Z" fill="black"/>
<path d="M119.851 42.0653C119.851 42.0653 122.975 41.4557 123.508 44.4272C122.823 42.8272 119.851 42.0653 119.851 42.0653Z" fill="black"/>
<path d="M109.641 35.8936C109.641 35.8936 112.232 33.6079 115.737 36.4269C113.375 34.7507 109.641 35.8936 109.641 35.8936Z" fill="black"/>
<path d="M107.432 38.2554C107.432 38.2554 110.327 39.0173 112.537 38.0269C108.499 40.5412 107.432 38.2554 107.432 38.2554Z" fill="black"/>
<path d="M125.565 57.3794C125.565 57.3794 128.689 59.9699 128.08 62.6366L129.451 64.1604L128.613 62.3318C128.613 62.3318 128.613 59.0556 125.565 57.3794Z" fill="black"/>
<path d="M133.185 66.1415C130.746 65.0749 131.356 62.332 131.356 62.332C131.356 59.8177 129.223 59.1319 129.223 59.1319C125.642 55.9319 127.623 51.97 127.623 51.97C128.08 50.5985 125.489 47.2461 125.489 47.2461C125.489 47.2461 129.756 50.6747 128.385 52.4271C128.385 52.4271 126.632 55.3224 129.375 58.5224C129.375 58.5224 132.423 59.2843 132.042 63.7796C132.042 63.7796 132.423 64.6177 133.642 65.151L133.185 66.1415Z" fill="black"/>
<path d="M129.908 64.9224C129.908 64.9224 134.937 67.2081 133.337 72.0082C133.489 66.9033 129.375 65.3033 129.375 65.3033L129.908 64.9224Z" fill="black"/>
<path d="M132.804 74.1417C137.909 73.2274 133.337 66.2178 133.337 66.2178L134.708 67.0559C134.708 67.0559 138.137 73.6083 133.185 75.1322L132.804 74.1417Z" fill="black"/>
<path d="M108.041 72.9986C105.603 69.3414 107.127 67.589 107.127 67.589L105.984 67.1318C105.984 67.1318 105.451 68.5795 105.984 70.1033C105.984 70.1033 103.47 69.3414 96.7651 74.0652L98.0604 73.989C98.0604 73.989 102.708 70.4081 105.832 71.0176L108.041 72.9986Z" fill="black"/>
<path d="M97.2222 64.313C97.2222 64.313 96.6127 65.8368 97.6032 68.0464C96.6127 66.8273 96.2317 65.2273 96.2317 65.2273L97.2222 64.313Z" fill="black"/>
<path d="M97.3745 73.9132C93.946 73.6847 94.7078 67.5894 94.7078 67.5894L93.8698 69.7227C93.8698 69.7227 90.8221 70.7894 92.3459 72.6942L93.2602 72.618C93.2602 72.618 91.2031 71.0942 94.2507 70.4084C94.2507 70.4084 93.184 71.3989 94.4793 73.3037L93.7936 74.0656L90.5173 72.3894L90.6697 73.4561C90.6697 73.4561 94.1745 74.4466 94.2507 75.5894C94.2507 75.5894 96.1555 73.9894 97.3745 73.9132Z" fill="black"/>
<path d="M101.337 78.5608C109.642 79.7037 114.289 83.0561 114.289 83.0561C121.451 86.8656 124.804 79.7037 124.804 79.7037L124.727 81.1513C123.585 89.6847 114.213 85.4942 114.213 85.4942C127.166 91.2085 125.718 78.7132 125.718 78.7132L126.708 77.4179L126.785 85.2656C124.804 87.018 124.042 89.6085 124.042 89.6085C124.194 88.618 127.851 85.3418 127.851 85.3418C128.537 84.3513 127.546 74.8274 127.546 74.8274L126.556 74.675C121.604 86.1037 116.194 83.2847 116.194 83.2847C110.175 79.3989 101.261 77.7989 101.261 77.7989C100.956 73.8369 97.2986 73.7607 97.2986 73.7607C97.2986 73.7607 101.337 75.3608 100.651 78.637L101.337 78.5608Z" fill="black"/>
<path d="M94.7842 79.094C93.7937 76.8083 95.2414 74.2939 95.2414 74.2939L94.6318 74.8273C93.108 76.7321 94.4033 79.094 94.4033 79.094C92.7271 80.2369 91.5842 78.6368 91.5842 78.6368C88.1556 74.9035 84.9555 75.8178 84.9555 75.8178L84.0413 76.8083C84.0413 76.8083 87.546 75.5892 90.5937 78.7892C90.5937 78.7892 92.3461 81.6845 95.1652 79.7797L94.7842 79.094Z" fill="black"/>
<path d="M101.225 78.1128C101.225 78.1128 99.6084 82.9616 94.3286 79.6213" stroke="black" stroke-width="0.684956" stroke-linecap="round" stroke-linejoin="round"/>
<path d="M100.578 78.9746C100.578 78.9746 118.034 90.6117 123.529 92.659C123.529 92.659 130.425 99.6627 135.92 98.9085" stroke="black" stroke-width="0.684956" stroke-linecap="round" stroke-linejoin="round"/>
<path d="M128.378 92.7671C128.378 92.7671 127.839 95.7841 132.472 97.1849" stroke="black" stroke-width="0.684956" stroke-linecap="round" stroke-linejoin="round"/>
<path d="M130.317 84.9009C130.317 84.9009 130.21 90.1807 125.792 90.3962" stroke="black" stroke-width="0.684956" stroke-linecap="round" stroke-linejoin="round"/>
<path d="M135.166 81.561C135.166 81.561 136.782 83.8238 136.136 87.5951C136.136 87.5951 136.675 97.5081 131.934 95.0299" stroke="black" stroke-width="0.684956" stroke-linecap="round" stroke-linejoin="round"/>
<path d="M136.567 76.4966C136.567 76.4966 141.631 82.2074 136.136 88.9957" stroke="black" stroke-width="0.684956" stroke-linecap="round" stroke-linejoin="round"/>
<path d="M100.039 79.729C100.039 79.729 106.72 87.5948 111.892 89.6421" stroke="black" stroke-width="0.684956" stroke-linecap="round" stroke-linejoin="round"/>
<path d="M99.0696 80.2676C99.0696 80.2676 105.104 88.8876 108.767 90.7194L115.232 98.8007C115.232 98.8007 126.977 103.757 132.365 110.438" stroke="black" stroke-width="0.684956" stroke-linecap="round" stroke-linejoin="round"/>
<path d="M96.8069 80.4834C96.8069 80.4834 97.5611 85.8709 102.41 89.4267L108.875 103.327C108.875 103.327 96.4836 95.6763 98.0999 85.5477" stroke="black" stroke-width="0.684956" stroke-linecap="round" stroke-linejoin="round"/>
<path d="M97.9919 80.5908C97.9919 80.5908 100.362 86.6249 104.457 88.8876L113.616 102.033C113.616 102.033 133.55 124.984 141.308 103.649C141.308 103.649 139.368 112.162 132.58 114.209" stroke="black" stroke-width="0.684956" stroke-linecap="round" stroke-linejoin="round"/>
<path d="M140.338 99.124C140.338 99.124 140.661 103.434 137.968 104.835" stroke="black" stroke-width="0.684956" stroke-linecap="round" stroke-linejoin="round"/>
<path d="M141.846 84.4702C141.846 84.4702 140.122 98.8011 137.752 100.956" stroke="black" stroke-width="0.684956" stroke-linecap="round" stroke-linejoin="round"/>
<path d="M105.642 91.9048C105.642 91.9048 113.4 113.239 120.081 114.856" stroke="black" stroke-width="0.684956" stroke-linecap="round" stroke-linejoin="round"/>
<path d="M74.7178 96.1071C74.7178 96.1071 86.3549 95.6761 89.5874 105.912" stroke="black" stroke-width="0.684956" stroke-linecap="round" stroke-linejoin="round"/>
<path d="M73.9636 99.7705C73.9636 99.7705 84.5232 95.6759 87.8635 107.852" stroke="black" stroke-width="0.684956" stroke-linecap="round" stroke-linejoin="round"/>
<path d="M87.0015 110.115C87.0015 110.115 88.941 104.835 92.389 102.357C92.389 102.357 92.0657 98.8011 95.6215 99.0166C95.6215 99.0166 99.1773 96.9694 98.3153 92.4438" stroke="black" stroke-width="0.684956" stroke-linecap="round" stroke-linejoin="round"/>
<path d="M88.7256 97.831L91.0961 92.5512L94.9751 90.5039L93.6821 95.2449L88.7256 97.831Z" fill="#FF0000" stroke="black" stroke-width="0.684956" stroke-linecap="round" stroke-linejoin="round"/>
<path d="M85.062 94.3834L88.7255 90.9354L89.0488 86.1943L85.924 88.7804L85.062 94.3834Z" fill="#FF0000" stroke="black" stroke-width="0.684956" stroke-linecap="round" stroke-linejoin="round"/>
<path d="M79.1357 91.2582L82.6915 87.4869L83.2303 83.2847L79.459 86.7327L79.1357 91.2582Z" fill="#FF0000" stroke="black" stroke-width="0.684956" stroke-linecap="round" stroke-linejoin="round"/>
<path d="M73.2093 100.74C73.2093 100.74 71.7008 104.404 73.6403 106.774" stroke="black" stroke-width="0.684956" stroke-linecap="round" stroke-linejoin="round"/>
<path d="M70.9467 104.727C70.9467 104.727 69.977 108.283 70.839 110.438" stroke="black" stroke-width="0.684956" stroke-linecap="round" stroke-linejoin="round"/>
<path d="M75.0411 113.67C75.0411 113.67 79.0279 120.782 74.9333 126.062" stroke="black" stroke-width="0.684956" stroke-linecap="round" stroke-linejoin="round"/>
<path d="M75.6875 110.977C75.6875 110.977 81.0751 118.196 77.627 123.691" stroke="black" stroke-width="0.684956" stroke-linecap="round" stroke-linejoin="round"/>
<path d="M78.4893 107.852C78.4893 107.852 84.3078 113.671 82.1528 119.058" stroke="black" stroke-width="0.684956" stroke-linecap="round" stroke-linejoin="round"/>
<path d="M65.8822 112.054L65.6667 133.82" stroke="black" stroke-width="0.684956" stroke-linecap="round" stroke-linejoin="round"/>
<path d="M69.1147 135.005L62.6496 132.85L54.5684 135.328" stroke="black" stroke-width="0.684956" stroke-linecap="round" stroke-linejoin="round"/>
<path d="M58.0164 125.631L57.9087 134.466" stroke="black" stroke-width="0.684956" stroke-linecap="round" stroke-linejoin="round"/>
<path d="M54.8916 139.207L63.1884 141.255L70.731 138.776" stroke="black" stroke-width="0.684956" stroke-linecap="round" stroke-linejoin="round"/>
<path d="M58.1241 139.962C58.1241 139.962 55.6459 148.151 58.6629 154.508" stroke="black" stroke-width="0.684956" stroke-linecap="round" stroke-linejoin="round"/>
<path d="M67.2831 143.625C67.2831 143.625 69.3304 146.427 61.7878 144.272" stroke="black" stroke-width="0.684956" stroke-linecap="round" stroke-linejoin="round"/>
<path d="M61.1414 148.151C61.1414 148.151 67.6064 149.767 66.6367 145.672" stroke="black" stroke-width="0.684956" stroke-linecap="round" stroke-linejoin="round"/>
<path d="M61.1414 152.245C61.1414 152.245 63.0809 150.09 66.5289 150.306" stroke="black" stroke-width="0.684956" stroke-linecap="round" stroke-linejoin="round"/>
<path d="M65.8823 148.474C65.8823 148.474 67.0676 149.121 66.6366 150.09" stroke="black" stroke-width="0.684956" stroke-linecap="round" stroke-linejoin="round"/>
<path d="M58.2319 154.4C58.2319 154.4 62.3265 155.909 64.8047 153.431" stroke="black" stroke-width="0.684956" stroke-linecap="round" stroke-linejoin="round"/>
<path d="M59.2017 159.465C59.2017 159.465 61.3567 161.62 65.0202 159.68" stroke="black" stroke-width="0.684956" stroke-linecap="round" stroke-linejoin="round"/>
<path d="M60.0638 156.125C60.0638 156.125 59.5251 159.465 62.8653 158.495" stroke="black" stroke-width="0.684956" stroke-linecap="round" stroke-linejoin="round"/>
<path d="M63.835 155.37C63.835 155.37 65.128 158.064 62.8652 158.495" stroke="black" stroke-width="0.684956" stroke-linecap="round" stroke-linejoin="round"/>
<path d="M145.187 94.5986C145.187 94.5986 147.019 106.559 138.614 112.27" stroke="black" stroke-width="0.684956" stroke-linecap="round" stroke-linejoin="round"/>
<path d="M147.126 95.9995L148.635 101.926" stroke="black" stroke-width="0.684956" stroke-linecap="round" stroke-linejoin="round"/>
<path d="M142.601 109.36C142.601 109.36 140.769 117.226 135.058 118.088" stroke="black" stroke-width="0.684956" stroke-linecap="round" stroke-linejoin="round"/>
<path d="M104.996 101.818L108.013 124.661L103.811 118.735L101.871 110.438L104.888 116.149" stroke="black" stroke-width="0.684956" stroke-linecap="round" stroke-linejoin="round"/>
<path d="M104.78 111.3C104.457 110.653 99.2852 95.2451 99.2852 95.2451" stroke="black" stroke-width="0.684956" stroke-linecap="round" stroke-linejoin="round"/>
<path d="M96.0525 99.6631L97.7765 110.977" stroke="black" stroke-width="0.684956" stroke-linecap="round" stroke-linejoin="round"/>
<path d="M92.7124 103.973L94.5442 121.321L100.039 126.17L103.487 124.23L104.134 123.692L97.8844 118.412L100.686 121.752" stroke="black" stroke-width="0.684956" stroke-linecap="round" stroke-linejoin="round"/>
<path d="M90.5571 104.835L93.2509 121.752" stroke="black" stroke-width="0.684956" stroke-linecap="round" stroke-linejoin="round"/>
<path d="M88.7256 113.886L90.5574 119.597" stroke="black" stroke-width="0.684956" stroke-linecap="round" stroke-linejoin="round"/>
<path d="M106.612 104.081C106.612 104.081 116.31 122.398 138.075 121.967L145.079 116.58C145.079 116.58 150.898 113.563 152.083 106.667" stroke="black" stroke-width="0.684956" stroke-linecap="round" stroke-linejoin="round"/>
<path d="M111.353 112.377C111.353 112.377 111.03 121.967 115.879 122.614C115.879 122.614 116.741 123.153 118.68 120.135C118.68 120.135 119.973 119.92 121.051 121.429L122.882 121.752" stroke="black" stroke-width="0.684956" stroke-linecap="round" stroke-linejoin="round"/>
<path d="M94.7595 126.385L97.561 130.372C97.561 130.372 99.5005 128.217 103.38 127.247C103.38 127.247 106.72 126.277 107.905 127.678L112.646 125.738C112.646 125.738 116.417 128.001 119.434 125.307C119.434 125.307 122.451 128.648 128.916 125.307L135.813 125.954L137.968 122.506" stroke="black" stroke-width="0.684956" stroke-linecap="round" stroke-linejoin="round"/>
<path d="M102.194 131.234C102.194 131.234 105.319 129.079 109.952 129.187" stroke="black" stroke-width="0.684956" stroke-linecap="round" stroke-linejoin="round"/>
<path d="M112.646 128.217C112.646 128.217 124.606 125.523 136.674 129.402" stroke="black" stroke-width="0.684956" stroke-linecap="round" stroke-linejoin="round"/>
<path d="M137.644 131.665C137.644 131.665 116.741 127.463 103.164 134.574" stroke="black" stroke-width="0.684956" stroke-linecap="round" stroke-linejoin="round"/>
<path d="M102.948 132.85C102.948 132.85 107.259 130.156 113.616 129.941" stroke="black" stroke-width="0.684956" stroke-linecap="round" stroke-linejoin="round"/>
<path d="M104.134 136.514C104.134 136.514 115.124 131.665 136.136 134.574" stroke="black" stroke-width="0.684956" stroke-linecap="round" stroke-linejoin="round"/>
<path d="M136.782 135.652L142.385 123.583L139.476 124.877L136.998 127.57L135.705 127.139" stroke="black" stroke-width="0.684956" stroke-linecap="round" stroke-linejoin="round"/>
<path d="M138.614 135.329L144.433 129.402" stroke="black" stroke-width="0.684956" stroke-linecap="round" stroke-linejoin="round"/>
<path d="M142.17 136.298L146.695 131.988" stroke="black" stroke-width="0.684956" stroke-linecap="round" stroke-linejoin="round"/>
<path d="M145.402 136.837L147.557 134.79" stroke="black" stroke-width="0.684956" stroke-linecap="round" stroke-linejoin="round"/>
<path d="M146.157 124.123C146.157 124.123 150.143 128.971 150.143 132.312" stroke="black" stroke-width="0.684956" stroke-linecap="round" stroke-linejoin="round"/>
<path d="M142.924 120.028C142.924 120.028 151.113 123.26 150.574 132.204" stroke="black" stroke-width="0.684956" stroke-linecap="round" stroke-linejoin="round"/>
<path d="M144.971 118.52C144.971 118.52 152.622 121.752 151.76 131.45" stroke="black" stroke-width="0.684956" stroke-linecap="round" stroke-linejoin="round"/>
<path d="M146.264 117.442C146.264 117.442 155.208 120.89 152.729 130.911" stroke="black" stroke-width="0.684956" stroke-linecap="round" stroke-linejoin="round"/>
<path d="M96.8067 135.221C96.8067 135.221 95.1904 128.756 102.086 131.342L103.595 136.514C103.595 136.514 101.763 140.069 98.6385 138.345C98.6385 138.345 97.3455 136.729 99.5005 136.083" stroke="black" stroke-width="0.684956" stroke-linecap="round" stroke-linejoin="round"/>
<path d="M94.4363 129.726C94.4363 129.726 91.2037 131.988 93.0355 134.682C93.0355 134.682 88.2945 138.777 95.5138 139.639L97.992 138.238" stroke="black" stroke-width="0.684956" stroke-linecap="round" stroke-linejoin="round"/>
<path d="M103.487 136.945C103.487 136.945 107.043 142.763 109.737 144.164C109.737 144.164 116.202 149.336 107.797 155.478" stroke="black" stroke-width="0.684956" stroke-linecap="round" stroke-linejoin="round"/>
<path d="M95.5137 140.608C95.5137 140.608 94.2207 148.69 97.2377 155.37" stroke="black" stroke-width="0.684956" stroke-linecap="round" stroke-linejoin="round"/>
<path d="M96.8069 141.147C96.8069 141.147 97.8844 153 103.272 155.262L104.888 154.939L101.44 150.521" stroke="black" stroke-width="0.684956" stroke-linecap="round" stroke-linejoin="round"/>
<path d="M98.854 139.531L103.811 149.875L105.642 149.767L105.75 148.259" stroke="black" stroke-width="0.684956" stroke-linecap="round" stroke-linejoin="round"/>
<path d="M100.255 146.319L97.9919 140.285" stroke="black" stroke-width="0.684956" stroke-linecap="round" stroke-linejoin="round"/>
<path d="M78.5969 155.693C78.5969 155.693 83.5535 163.236 92.82 158.172C92.82 158.172 94.3285 163.882 100.47 159.141C100.47 159.141 105.104 162.589 107.797 156.555C107.797 156.555 104.565 154.616 106.935 151.707" stroke="black" stroke-width="0.684956" stroke-linecap="round" stroke-linejoin="round"/>
<path d="M116.31 134.79L115.232 181.877" stroke="black" stroke-width="0.684956" stroke-linecap="round" stroke-linejoin="round"/>
<path d="M117.603 143.194L117.064 175.089" stroke="black" stroke-width="0.684956" stroke-linecap="round" stroke-linejoin="round"/>
<path d="M123.206 135.329L123.421 142.225" stroke="black" stroke-width="0.684956" stroke-linecap="round" stroke-linejoin="round"/>
<path d="M128.809 135.867L129.455 187.803C129.455 187.803 122.559 190.605 116.741 189.096" stroke="black" stroke-width="0.684956" stroke-linecap="round" stroke-linejoin="round"/>
<path d="M118.141 177.459V188.342" stroke="black" stroke-width="0.684956" stroke-linecap="round" stroke-linejoin="round"/>
<path d="M116.848 180.368L116.633 187.48" stroke="black" stroke-width="0.684956" stroke-linecap="round" stroke-linejoin="round"/>
<path d="M86.6782 187.372C86.6782 187.372 99.3928 188.881 113.4 188.234" stroke="black" stroke-width="0.684956" stroke-linecap="round" stroke-linejoin="round"/>
<path d="M77.0884 186.187C77.0884 186.187 91.958 192.436 113.616 189.096" stroke="black" stroke-width="0.684956" stroke-linecap="round" stroke-linejoin="round"/>
<path d="M85.062 199.009L85.8163 190.712L88.6178 191.143" stroke="black" stroke-width="0.684956" stroke-linecap="round" stroke-linejoin="round"/>
<path d="M84.0922 189.419L83.5535 196.962" stroke="black" stroke-width="0.684956" stroke-linecap="round" stroke-linejoin="round"/>
<path d="M82.3682 188.988L82.0449 197.285" stroke="black" stroke-width="0.684956" stroke-linecap="round" stroke-linejoin="round"/>
<path d="M80.8596 189.527L80.3208 197.069" stroke="black" stroke-width="0.684956" stroke-linecap="round" stroke-linejoin="round"/>
<path d="M79.2435 188.773L78.8125 196.531" stroke="black" stroke-width="0.684956" stroke-linecap="round" stroke-linejoin="round"/>
<path d="M90.3418 159.788C90.3418 159.788 91.2038 177.136 86.355 186.187" stroke="black" stroke-width="0.684956" stroke-linecap="round" stroke-linejoin="round"/>
<path d="M92.1736 160.435C92.1736 160.435 92.1736 173.58 88.1868 186.187" stroke="black" stroke-width="0.684956" stroke-linecap="round" stroke-linejoin="round"/>
<path d="M83.7689 160.758C83.7689 160.758 83.6611 171.533 79.3511 180.261" stroke="black" stroke-width="0.684956" stroke-linecap="round" stroke-linejoin="round"/>
<path d="M79.2434 168.3C79.2434 168.3 78.9201 174.55 77.4116 178.213" stroke="black" stroke-width="0.684956" stroke-linecap="round" stroke-linejoin="round"/>
<path d="M76.6575 166.038C76.6575 166.038 76.1187 173.796 75.1489 176.705" stroke="black" stroke-width="0.684956" stroke-linecap="round" stroke-linejoin="round"/>
<path d="M76.8728 164.744L79.3511 167.438" stroke="black" stroke-width="0.684956" stroke-linecap="round" stroke-linejoin="round"/>
<path d="M77.9504 163.451C77.9504 163.451 79.0279 166.468 81.0752 166.791" stroke="black" stroke-width="0.684956" stroke-linecap="round" stroke-linejoin="round"/>
<path d="M100.47 161.188L98.0999 186.618L92.4968 186.51" stroke="black" stroke-width="0.684956" stroke-linecap="round" stroke-linejoin="round"/>
<path d="M101.656 162.051L99.9316 186.941L101.979 187.264" stroke="black" stroke-width="0.684956" stroke-linecap="round" stroke-linejoin="round"/>
<path d="M102.194 171.102C102.194 171.102 107.366 166.145 108.444 174.227C108.444 174.227 105.427 178.968 103.487 173.58" stroke="black" stroke-width="0.684956" stroke-linecap="round" stroke-linejoin="round"/>
<path d="M105.534 177.244L105.427 178.752C105.427 178.752 107.582 180.261 107.366 182.847C107.366 182.847 111.784 182.416 109.737 186.618" stroke="black" stroke-width="0.684956" stroke-linecap="round" stroke-linejoin="round"/>
<path d="M96.1602 165.067C96.1602 165.067 90.7727 168.946 98.5307 172.933L97.0222 185.863" stroke="black" stroke-width="0.684956" stroke-linecap="round" stroke-linejoin="round"/>
<path d="M91.4192 175.304C91.4192 175.304 94.8672 172.072 97.2377 176.058" stroke="black" stroke-width="0.684956" stroke-linecap="round" stroke-linejoin="round"/>
<path d="M91.6348 178.105L93.1433 178.86C93.1433 178.86 94.9751 176.166 95.6215 179.829C95.6215 179.829 93.4666 183.601 90.665 181.877" stroke="black" stroke-width="0.684956" stroke-linecap="round" stroke-linejoin="round"/>
<path d="M89.9106 184.463C89.9106 184.463 92.2812 185.756 94.4362 183.924L96.0525 184.678" stroke="black" stroke-width="0.684956" stroke-linecap="round" stroke-linejoin="round"/>
<path d="M93.5742 163.451C93.5742 163.451 97.4532 159.895 99.5005 165.499" stroke="black" stroke-width="0.684956" stroke-linecap="round" stroke-linejoin="round"/>
<path d="M91.4192 191.143C91.4192 191.143 104.134 193.622 113.724 190.928" stroke="black" stroke-width="0.684956" stroke-linecap="round" stroke-linejoin="round"/>
<path d="M115.232 182.847L115.017 190.82" stroke="black" stroke-width="0.684956" stroke-linecap="round" stroke-linejoin="round"/>
<path d="M116.956 191.036C116.956 191.036 126.33 192.867 130.425 189.527L141.523 189.096" stroke="black" stroke-width="0.684956" stroke-linecap="round" stroke-linejoin="round"/>
<path d="M130.856 188.234C130.856 188.234 141.631 188.665 145.079 187.049" stroke="black" stroke-width="0.684956" stroke-linecap="round" stroke-linejoin="round"/>
<path d="M131.61 186.833C131.61 186.833 138.937 188.018 145.51 185.648" stroke="black" stroke-width="0.684956" stroke-linecap="round" stroke-linejoin="round"/>
<path d="M131.179 144.164C131.179 144.164 132.795 173.58 132.041 177.89" stroke="black" stroke-width="0.684956" stroke-linecap="round" stroke-linejoin="round"/>
<path d="M133.227 135.329C133.227 135.329 135.813 143.087 135.92 145.888" stroke="black" stroke-width="0.684956" stroke-linecap="round" stroke-linejoin="round"/>
<path d="M138.937 142.979C138.937 142.979 140.985 149.336 140.985 152.999" stroke="black" stroke-width="0.684956" stroke-linecap="round" stroke-linejoin="round"/>
<path d="M137.537 153.646L137.213 160.865" stroke="black" stroke-width="0.684956" stroke-linecap="round" stroke-linejoin="round"/>
<path d="M143.894 158.279C143.894 158.279 141.092 156.663 142.062 160.865C142.062 160.865 134.304 160.865 136.998 169.701C136.998 169.701 131.179 170.024 134.627 174.119" stroke="black" stroke-width="0.684956" stroke-linecap="round" stroke-linejoin="round"/>
<path d="M135.597 172.179C135.597 172.179 139.476 173.149 135.597 177.782" stroke="black" stroke-width="0.684956" stroke-linecap="round" stroke-linejoin="round"/>
<path d="M138.83 174.011C138.83 174.011 139.907 174.119 138.614 167.654C138.614 167.654 138.399 163.021 141.954 164.098C141.954 164.098 144.325 165.607 141.2 167.115" stroke="black" stroke-width="0.684956" stroke-linecap="round" stroke-linejoin="round"/>
<path d="M135.058 181.123C135.058 181.123 134.412 182.954 135.92 185.002" stroke="black" stroke-width="0.684956" stroke-linecap="round" stroke-linejoin="round"/>
<path d="M133.442 182.092C133.442 182.092 132.472 183.493 134.627 185.109" stroke="black" stroke-width="0.684956" stroke-linecap="round" stroke-linejoin="round"/>
<path d="M133.55 179.722C133.55 179.722 129.455 175.412 130.856 182.415C130.856 182.415 133.119 184.139 132.795 186.079" stroke="black" stroke-width="0.684956" stroke-linecap="round" stroke-linejoin="round"/>
<path d="M140.554 176.92C140.554 176.92 131.61 181.23 139.907 186.079C139.907 186.079 144.648 186.618 143.247 180.799C143.247 180.799 136.998 178.429 140.554 183.278L142.062 182.308" stroke="black" stroke-width="0.684956" stroke-linecap="round" stroke-linejoin="round"/>
<path d="M141.847 169.485C141.847 169.485 143.032 173.041 140.769 174.55" stroke="black" stroke-width="0.684956" stroke-linecap="round" stroke-linejoin="round"/>
<path d="M145.51 168.192L143.678 169.485C143.678 169.485 144.756 172.933 142.601 174.765" stroke="black" stroke-width="0.684956" stroke-linecap="round" stroke-linejoin="round"/>
<path d="M144.648 180.907C144.648 180.907 146.588 182.954 144.217 184.679" stroke="black" stroke-width="0.684956" stroke-linecap="round" stroke-linejoin="round"/>
<path d="M96.8068 204.073C96.8068 204.073 95.2983 206.875 97.561 210.215C97.561 210.215 94.2207 215.172 99.716 218.404" stroke="black" stroke-width="0.684956" stroke-linecap="round" stroke-linejoin="round"/>
<path d="M107.69 211.292C107.69 211.292 108.983 216.465 105.104 217.973C105.104 217.973 108.121 217.865 104.565 222.068" stroke="black" stroke-width="0.684956" stroke-linecap="round" stroke-linejoin="round"/>
<path d="M94.4364 209.246L93.3589 196.531C93.3589 196.531 97.7766 191.036 115.232 195.561L119.004 195.884L125.361 195.13C125.361 195.13 133.981 191.898 138.83 193.729" stroke="black" stroke-width="0.684956" stroke-linecap="round" stroke-linejoin="round"/>
<path d="M119.111 197.608C119.111 197.608 120.835 203.211 120.62 206.013C120.62 206.013 118.465 211.293 123.313 214.849" stroke="black" stroke-width="0.684956" stroke-linecap="round" stroke-linejoin="round"/>
<path d="M122.02 219.051C122.02 219.051 120.943 216.357 121.805 214.849" stroke="black" stroke-width="0.684956" stroke-linecap="round" stroke-linejoin="round"/>
<path d="M120.296 217.542C120.296 217.542 114.37 226.485 119.865 238.015C119.865 238.015 118.572 249.544 121.266 252.561" stroke="black" stroke-width="0.684956" stroke-linecap="round" stroke-linejoin="round"/>
<path d="M96.9146 225.085C96.9146 225.085 94.113 231.55 96.9146 248.359" stroke="black" stroke-width="0.684956" stroke-linecap="round" stroke-linejoin="round"/>
<path d="M109.09 225.3C109.09 225.3 110.922 233.597 107.366 240.816" stroke="black" stroke-width="0.684956" stroke-linecap="round" stroke-linejoin="round"/>
<path d="M118.141 251.484C118.141 251.484 123.098 255.039 130.533 250.298" stroke="black" stroke-width="0.684956" stroke-linecap="round" stroke-linejoin="round"/>
<path d="M95.0828 255.147C95.0828 255.147 101.117 263.013 107.474 256.225" stroke="black" stroke-width="0.684956" stroke-linecap="round" stroke-linejoin="round"/>
<path d="M92.4968 260.642C92.4968 260.642 103.595 266.676 109.414 259.565" stroke="black" stroke-width="0.684956" stroke-linecap="round" stroke-linejoin="round"/>
<path d="M115.555 255.363C115.555 255.363 119.003 259.35 125.792 258.057" stroke="black" stroke-width="0.684956" stroke-linecap="round" stroke-linejoin="round"/>
<path d="M117.064 259.673C117.064 259.673 123.745 261.936 129.886 258.057" stroke="black" stroke-width="0.684956" stroke-linecap="round" stroke-linejoin="round"/>
<path d="M126.977 260.535L126.761 262.905" stroke="black" stroke-width="0.684956" stroke-linecap="round" stroke-linejoin="round"/>
<path d="M119.327 268.185C119.327 268.185 116.741 265.491 118.034 260.535" stroke="black" stroke-width="0.684956" stroke-linecap="round" stroke-linejoin="round"/>
<path d="M95.0828 263.875C95.0828 263.875 101.332 267.539 107.69 263.875" stroke="black" stroke-width="0.684956" stroke-linecap="round" stroke-linejoin="round"/>
<path d="M95.1904 270.017C95.1904 270.017 103.056 274.542 105.858 273.357" stroke="black" stroke-width="0.684956" stroke-linecap="round" stroke-linejoin="round"/>
<path d="M94.4363 272.387C94.4363 272.387 104.134 277.128 106.073 275.512" stroke="black" stroke-width="0.684956" stroke-linecap="round" stroke-linejoin="round"/>
<path d="M87.7558 280.684L86.0317 285.533C86.0317 285.533 88.51 285.748 92.0658 288.011C92.0658 288.011 98.2075 281.977 103.056 278.852C103.056 278.852 104.242 277.883 104.242 277.128" stroke="black" stroke-width="0.684956" stroke-linecap="round" stroke-linejoin="round"/>
<path d="M87.9712 284.132C87.9712 284.132 91.4192 276.805 95.6215 274.219" stroke="black" stroke-width="0.684956" stroke-linecap="round" stroke-linejoin="round"/>
<path d="M82.907 288.873L84.7387 289.52" stroke="black" stroke-width="0.684956" stroke-linecap="round" stroke-linejoin="round"/>
<path d="M79.6743 290.382L82.4758 291.783" stroke="black" stroke-width="0.684956" stroke-linecap="round" stroke-linejoin="round"/>
<path d="M89.803 282.3C89.803 282.3 93.0355 280.899 98.854 281.223" stroke="black" stroke-width="0.684956" stroke-linecap="round" stroke-linejoin="round"/>
<path d="M89.1565 284.025C89.1565 284.025 91.6348 281.977 97.5611 282.408" stroke="black" stroke-width="0.684956" stroke-linecap="round" stroke-linejoin="round"/>
<path d="M93.682 277.344C93.682 277.344 92.3889 278.529 93.3587 280.576" stroke="black" stroke-width="0.684956" stroke-linecap="round" stroke-linejoin="round"/>
<path d="M91.7424 279.176C91.7424 279.176 91.7424 280.146 91.7424 280.792" stroke="black" stroke-width="0.684956" stroke-linecap="round" stroke-linejoin="round"/>
<path d="M89.3721 284.779L92.3891 286.287L95.7293 283.27" stroke="black" stroke-width="0.684956" stroke-linecap="round" stroke-linejoin="round"/>
<path d="M115.232 272.71L116.956 275.081C116.956 275.081 126.977 276.697 132.041 278.744C132.041 278.744 135.166 278.637 137.968 275.835" stroke="black" stroke-width="0.684956" stroke-linecap="round" stroke-linejoin="round"/>
<path d="M140.661 277.021C140.661 277.021 139.045 279.176 137.105 279.607" stroke="black" stroke-width="0.684956" stroke-linecap="round" stroke-linejoin="round"/>
<path d="M116.633 272.495C116.633 272.495 116.741 274.866 121.589 271.633C121.589 271.633 126.115 267.97 127.623 267.646" stroke="black" stroke-width="0.684956" stroke-linecap="round" stroke-linejoin="round"/>
<path d="M118.465 270.125C118.465 270.125 115.555 272.388 125.037 266.354L126.869 265.384" stroke="black" stroke-width="0.684956" stroke-linecap="round" stroke-linejoin="round"/>
<path d="M126.007 275.727L133.442 272.387" stroke="black" stroke-width="0.684956" stroke-linecap="round" stroke-linejoin="round"/>
<path d="M128.701 276.374L134.519 273.68" stroke="black" stroke-width="0.684956" stroke-linecap="round" stroke-linejoin="round"/>
<path d="M131.718 276.482L131.826 275.189" stroke="black" stroke-width="0.684956" stroke-linecap="round" stroke-linejoin="round"/>
<path d="M130.425 272.926V269.37" stroke="black" stroke-width="0.684956" stroke-linecap="round" stroke-linejoin="round"/>
<path d="M63.9266 35.2842L62.7075 132.809" stroke="black" stroke-width="0.560418" stroke-linecap="round"/>
<path d="M106.849 48.202L107.8 45.8788C107.8 45.8788 109.912 45.1396 114.558 46.7236" stroke="black" stroke-width="0.7" stroke-linecap="round"/>
<path d="M79.1921 181.156C80.6303 181.021 85.3905 162.049 83.9711 160.098C83.9711 160.098 87.1073 160.845 89.8702 159.426C89.8702 159.426 91.2889 178.393 85.0165 188.1L77.7734 186.159C77.8194 184.762 77.8333 183.345 79.0427 182.724L79.1921 181.156Z" fill="#FF0000"/>
<path d="M83.3001 143.138C83.3001 143.138 85.6233 139.653 89.2137 138.386L92.1706 133.792C92.1706 133.792 91.8538 131.786 92.7514 131.046C92.7514 131.046 88.9497 130.36 87.0489 135.429L85.7817 135.746C85.7817 135.746 82.4553 137.805 82.2969 138.174C82.2969 138.174 80.4489 139.125 83.3001 143.138Z" fill="#FF0000"/>
<path d="M96.5004 135.481C95.6028 132.419 97.2924 130.835 97.2924 130.835C97.2924 129.884 95.6557 129.779 95.6557 129.779C91.2205 131.257 93.3853 134.531 93.3853 134.531L93.5436 134.795C93.5436 134.795 90.0587 137.435 93.0684 138.649L95.2861 139.283L97.8205 137.91C97.8205 137.91 97.5565 135.956 99.4046 135.745C99.4046 135.745 100.091 135.692 99.827 136.379C99.827 136.379 98.4541 136.59 98.6125 137.593C98.6125 137.593 99.7742 139.283 101.939 137.857L103.259 136.432L101.781 131.574C101.781 131.574 97.8204 129.884 97.1868 132.577C97.1868 132.577 96.87 133.897 97.0812 134.689C97.0812 134.689 97.7148 136.273 96.5004 135.481Z" fill="#AAD400"/>
<path d="M108.463 49.2112L108.165 47.7178C108.165 47.7178 113.989 48.1658 114.736 49.6592L114.064 50.5553" stroke="black" stroke-width="0.6" stroke-linecap="round"/>
<path d="M111.152 49.5846C111.647 49.5846 112.048 49.2002 112.048 48.7259C112.048 48.2516 111.647 47.8672 111.152 47.8672C110.657 47.8672 110.256 48.2516 110.256 48.7259C110.256 49.2002 110.657 49.5846 111.152 49.5846Z" fill="black"/>
<path d="M101.071 48.8381C101.071 48.8381 102.49 47.3447 103.834 48.0914L104.58 48.7634" stroke="black" stroke-width="0.6" stroke-linecap="round" stroke-linejoin="bevel"/>
<path d="M102.527 49.3606C102.919 49.3606 103.236 49.0095 103.236 48.5765C103.236 48.1435 102.919 47.7925 102.527 47.7925C102.135 47.7925 101.818 48.1435 101.818 48.5765C101.818 49.0095 102.135 49.3606 102.527 49.3606Z" fill="black"/>
<path d="M92.0533 157.952C95.2213 156.896 94.4821 139.471 94.4821 139.471C94.4821 139.471 89.8968 139.681 90.9422 135.649L88.7019 138.337C88.7019 138.337 83.7736 141.623 83.0269 143.564C83.0269 143.564 75.1865 146.999 77.2774 153.047L79.5921 156.034C79.5921 156.034 84.3532 162.483 92.0533 157.952Z" fill="url(#paint1_radial_2689_21849)"/>
<path d="M92.2388 134.294L89.114 139.035C89.114 139.035 83.0802 140.975 80.8174 149.379L77.908 151.103L80.8174 147.224" stroke="black" stroke-width="0.684956" stroke-linecap="round" stroke-linejoin="round"/>
<path d="M94.0706 139.682C94.0706 139.682 88.8987 144.207 88.2522 152.827L86.7437 154.982" stroke="black" stroke-width="0.684956" stroke-linecap="round" stroke-linejoin="round"/>
<path d="M87.2822 150.457L85.2351 153.689" stroke="black" stroke-width="0.684956" stroke-linecap="round" stroke-linejoin="round"/>
<path d="M86.0972 149.487L83.4033 153.905" stroke="black" stroke-width="0.684956" stroke-linecap="round" stroke-linejoin="round"/>
<path d="M84.9119 149.595L82.5413 152.612" stroke="black" stroke-width="0.684956" stroke-linecap="round" stroke-linejoin="round"/>
<path d="M88.0366 140.975C88.0366 140.975 83.9421 142.806 81.4639 151.426" stroke="black" stroke-width="0.684956" stroke-linecap="round" stroke-linejoin="round"/>
<defs>
<linearGradient id="paint0_linear_2689_21849" x1="135.067" y1="148.459" x2="-384.797" y2="148.459" gradientUnits="userSpaceOnUse">
<stop stop-color="white"/>
<stop offset="1" stop-color="#CCCCCC"/>
</linearGradient>
<radialGradient id="paint1_radial_2689_21849" cx="0" cy="0" r="1" gradientUnits="userSpaceOnUse" gradientTransform="translate(85.9284 146.335) rotate(110.108) scale(20.4332 11.5493)">
<stop stop-color="#FF6600"/>
<stop offset="1" stop-color="#FF6600" stop-opacity="0"/>
</radialGradient>
</defs>
</svg>
