<svg width="208" height="319" viewBox="0 0 208 319" fill="none" xmlns="http://www.w3.org/2000/svg">
<path d="M192.5 0.5H15.5C7.21573 0.5 0.5 7.21573 0.5 15.5V303.5C0.5 311.784 7.21573 318.5 15.5 318.5H192.5C200.784 318.5 207.5 311.784 207.5 303.5V15.5C207.5 7.21573 200.784 0.5 192.5 0.5Z" fill="url(#paint0_linear_2689_20279)" stroke="black" stroke-linecap="square"/>
<path d="M133.667 14.9873H193V303.987H133.667M74.3333 303.987H15V14.9873H74.3333" stroke="black"/>
<path d="M20.7041 20.4665C20.4201 20.4665 19.8521 20.6401 19 20.9872V20.6558L23.2602 18.502L23.4497 18.5493V32.7505C23.4497 33.3185 23.5915 33.6893 23.8755 33.8629C24.1595 34.0365 24.7672 34.1312 25.6981 34.147V34.5019H19.1656V34.147C20.0493 34.1154 20.641 33.9892 20.9408 33.7682C21.2564 33.5316 21.4142 33.0425 21.4142 32.3008V21.5789C21.4142 20.8373 21.1775 20.4665 20.7041 20.4665Z" fill="black"/>
<path d="M186.294 296.537C186.578 296.537 187.146 296.364 187.999 296.017V296.348L183.738 298.502L183.549 298.455V284.253C183.549 283.685 183.407 283.315 183.123 283.141C182.839 282.967 182.231 282.873 181.3 282.857V282.502H187.833V282.857C186.949 282.889 186.358 283.015 186.058 283.236C185.742 283.472 185.584 283.961 185.584 284.703V295.425C185.584 296.167 185.821 296.537 186.294 296.537Z" fill="black"/>
<path d="M101.743 138.211C102.091 138.211 102.373 137.929 102.373 137.581C102.373 137.233 102.091 136.951 101.743 136.951C101.396 136.951 101.114 137.233 101.114 137.581C101.114 137.929 101.396 138.211 101.743 138.211Z" fill="#D5E5FF"/>
<path d="M171.101 130.513C172.64 127.853 166.202 126.313 166.202 126.313C172.78 124.914 170.121 117.495 170.121 117.495C167.461 112.596 163.262 115.675 163.262 115.675C159.483 114.696 159.063 120.435 159.063 120.435L155.004 118.335C154.304 116.095 151.364 114.836 151.364 114.836L152.484 112.456C152.344 110.916 148.705 111.336 148.705 111.336C151.224 108.817 148.985 106.577 148.985 106.577C146.325 103.218 140.026 101.678 140.026 101.678C138.907 101.398 136.527 99.1585 136.527 99.1585L140.166 97.7587C145.065 99.1585 143.246 93.4195 143.246 93.4195C142.266 89.3603 137.507 90.3401 137.507 90.3401C135.407 87.9605 129.248 89.9202 129.248 89.9202L120.57 77.4625C118.89 74.803 120.99 71.0237 120.99 71.0237C117.071 68.5041 116.091 73.9631 116.091 73.9631L107.272 69.064C108.952 66.2645 112.171 68.7841 112.171 68.7841C114.971 70.1838 115.671 66.6844 115.671 66.6844C115.531 63.885 111.052 62.9052 111.052 62.9052C114.551 61.0855 113.431 55.4865 113.431 55.4865C113.571 53.9468 119.03 53.3869 119.03 53.3869C118.05 50.5874 114.271 49.0477 114.271 49.0477L115.391 45.9683L110.352 45.6883L104.893 45.1284L103.633 40.5093L101.393 44.9884L97.3342 45.5484C95.6545 45.4084 91.5953 46.8081 91.5953 46.8081L93.4149 48.2079C88.9357 48.2079 88.3759 51.5672 88.3759 51.5672L94.3948 52.687L93.9748 55.3465C91.1753 58.286 93.6949 63.605 93.6949 63.605C91.4553 66.5445 93.4149 68.5041 93.4149 68.5041C95.0946 66.5445 98.594 67.8042 98.594 67.8042L91.7352 71.8635C91.5953 69.4839 89.2157 68.924 89.2157 68.924C89.3557 71.4436 87.1161 75.9227 87.1161 75.9227L76.0581 89.6402C71.9989 87.2607 68.0796 90.9 68.0796 90.9C64.1603 92.0198 64.1603 96.079 64.1603 96.079C64.3003 99.2984 70.7391 99.8583 70.7391 99.8583L67.6597 102.378L61.5008 104.617C58.7013 105.877 57.8615 109.097 57.8615 109.097C54.5021 109.097 56.0418 112.736 56.0418 112.736L51.5627 116.375L48.9032 116.515C48.3433 112.736 44.424 112.876 44.424 112.876L42.3762 112.299C33.6662 116.258 40.7925 124.374 40.7925 124.374L37.2294 125.76C33.8642 128.135 37.8232 129.719 37.8232 129.719C37.8232 129.719 70.6835 120.217 95.8236 121.009C95.8236 121.009 134.567 119.875 160.043 128.973L165.642 130.793C165.642 130.793 169.701 133.592 171.101 130.513Z" fill="url(#paint1_radial_2689_20279)"/>
<path d="M111.472 41.349C111.472 44.7084 109.932 45.5482 109.932 45.5482L104.753 45.2683L103.633 41.489L101.673 44.9883L97.1943 45.5482C97.1943 45.5482 94.2548 42.4688 95.6545 37.0098L97.6142 33.5104L102.093 29.4512L104.193 27.3516L105.873 29.8711L108.112 32.8106L109.932 36.4499L110.212 38.4095L111.472 41.349Z" fill="#88AA00"/>
<path d="M104.473 65.0046C111.472 60.5254 108.392 56.3262 108.392 56.3262L102.653 63.4649L98.0341 57.5859C98.0341 57.5859 95.2346 62.625 100.834 65.4245C100.834 65.4245 102.653 66.2643 104.473 65.0046Z" fill="#FF5555"/>
<path d="M116.091 110.636C121.55 105.877 117.77 98.8781 117.77 98.8781C117.77 96.9185 121.41 96.6385 121.41 96.6385C120.29 92.0194 114.971 91.0396 114.971 91.0396L116.371 87.6802C116.371 84.6008 115.531 85.0207 115.531 85.0207C114.551 84.6008 111.472 86.1405 111.472 86.1405V83.481C111.192 79.5617 104.893 77.4621 104.893 77.4621L103.073 75.0825L101.533 76.4823L99.1539 78.4419C94.3948 79.4217 95.0946 85.4406 95.0946 85.4406C94.2548 82.3612 89.7756 84.0409 89.7756 84.0409L91.4553 90.3397C83.6167 88.94 84.1767 97.6184 84.1767 97.6184C85.5764 94.9589 89.6356 96.4986 89.6356 96.4986C83.0569 106.717 90.6155 110.356 90.6155 110.356L95.7945 108.116C95.7945 108.116 90.1955 106.297 91.1754 101.958L94.8147 101.678C94.8147 101.678 93.8349 98.5982 94.2548 97.7583L95.5146 97.0585L93.6949 92.5793H96.4944L98.734 89.6398C98.734 89.6398 97.4742 87.1203 98.0341 86.0005L100.414 86.7004C100.414 86.7004 100.834 84.0409 103.073 81.1014C103.073 81.1014 106.293 83.9009 106.852 86.5604L109.372 86.4204C109.372 86.4204 109.512 89.4999 108.112 90.6197L109.372 92.4393C109.372 92.4393 112.032 92.5793 113.151 93.2792C113.151 93.2792 113.851 94.8189 111.892 96.0786L114.271 97.1984L111.892 99.578L114.411 100.838L113.151 102.657L116.791 103.497C116.791 103.497 113.291 107.976 111.612 108.256L116.091 110.636Z" fill="#5599FF"/>
<path d="M88.6558 118.055C89.3557 115.535 94.8147 112.596 94.8147 112.596C94.8147 112.596 92.0152 117.775 99.7138 117.495C100.134 117.635 110.912 117.915 110.912 117.915C110.912 117.915 113.991 115.675 113.571 114.135C113.571 114.135 117.77 115.395 118.61 118.615C118.61 118.615 92.5751 116.935 88.6558 118.055Z" fill="#FF5555"/>
<path d="M163.92 141.794C115.223 122.79 42.772 139.221 42.772 139.221C42.772 139.221 40.9905 145.159 46.7311 142.784L50.4922 148.326C50.4922 148.326 73.6528 139.023 89.2911 142.388C89.2911 142.388 89.885 145.951 94.042 146.743C94.042 146.743 94.042 151.692 98.3969 152.286C98.3969 152.286 102.356 155.453 102.752 158.224L107.701 153.869C107.701 153.869 112.848 152.286 112.65 147.931C112.65 147.931 117.598 148.722 118.39 142.982C118.39 142.982 141.155 141.596 156.793 149.712L160.95 145.159C160.95 145.159 168.67 146.743 163.92 141.794Z" fill="#FFD42A"/>
<path d="M107.899 140.012C109.68 135.657 106.117 135.063 106.117 135.063C106.117 135.063 102.356 132.886 99.5847 136.449C99.5847 136.449 97.6052 140.408 100.97 141.794C100.97 141.794 103.148 145.555 107.899 140.012Z" fill="#87AADE"/>
<path d="M165.899 130.907C107.305 108.736 39.8028 129.125 39.8028 129.125L41.1884 130.511C41.1884 130.511 37.8232 132.886 40.1987 137.043L42.7721 139.617C42.7721 139.617 113.639 123.186 163.92 141.794C167.285 140.012 167.879 136.449 167.879 136.449L166.295 133.48L165.899 130.907Z" fill="#FFDD55"/>
<path d="M45.7413 127.937L51.6799 131.5L52.8677 125.958L45.7413 127.937Z" fill="#5F8DD3"/>
<path d="M44.7516 131.698C44.7516 131.698 39.8028 136.449 48.1168 138.627L50.0963 137.835L50.8881 134.865L44.7516 131.698Z" fill="#87AADE"/>
<path d="M55.837 129.917L59.5981 132.886L58.8063 136.053L53.0656 137.439L55.837 129.917Z" fill="#5F8DD3"/>
<path d="M56.4308 124.968L59.994 129.125L62.5674 123.978L56.4308 124.968Z" fill="#87AADE"/>
<path d="M63.0406 135.831L66.12 126.873L71.0191 131.072L69.8993 134.852L63.0406 135.831Z" fill="#87AADE"/>
<path d="M67.6597 123.234L72.9787 128.273L75.3583 122.394L67.6597 123.234Z" fill="#5F8DD3"/>
<path d="M77.7378 125.193L83.6167 130.092L81.7971 133.732L73.8185 134.572L77.7378 125.193Z" fill="#87AADE"/>
<path d="M79.4175 121.974L84.5966 127.013L87.9559 121.414L79.4175 121.974Z" fill="#5F8DD3"/>
<path d="M90.8954 124.494L95.2346 129.113L93.135 132.472L85.5764 133.172L91.0354 125.054L90.8954 124.494Z" fill="#87AADE"/>
<path d="M92.1552 120.854L97.4742 126.033L101.114 120.714H91.3153L92.1552 120.854Z" fill="#87AADE"/>
<path d="M102.793 123.794L107.272 129.393L105.733 132.752L96.9143 132.892L102.793 123.794Z" fill="#87AADE"/>
<path d="M103.633 120.574L109.372 126.173L112.731 121.274L102.373 120.574H103.633Z" fill="#87AADE"/>
<path d="M114.131 124.773L119.31 130.232L117.49 132.612L108.532 132.472L114.131 124.773Z" fill="#87AADE"/>
<path d="M116.231 121.274L120.99 127.433L125.889 121.834L116.231 121.274Z" fill="#87AADE"/>
<path d="M121.13 133.032L127.009 125.613L130.788 130.652L127.709 133.872L121.13 133.032Z" fill="#87AADE"/>
<path d="M128.548 122.254L133.168 128.553L137.507 123.794L128.548 122.254Z" fill="#87AADE"/>
<path d="M132.888 134.152L139.606 127.853L142.686 133.312L139.606 135.832L132.888 134.152Z" fill="#87AADE"/>
<path d="M142.546 124.634L145.485 130.233L149.965 126.453L142.546 124.634Z" fill="#87AADE"/>
<path d="M144.925 136.531L152.064 129.953L154.584 135.412L151.364 138.071L144.925 136.531Z" fill="#87AADE"/>
<path d="M154.584 127.293L157.383 133.312L162.282 129.813L154.584 127.293Z" fill="#87AADE"/>
<path d="M155.144 138.911L163.122 133.032C163.122 133.032 165.782 136.952 161.302 139.471C160.183 139.611 158.923 139.751 158.923 139.751L155.144 138.911Z" fill="#87AADE"/>
<path d="M108.295 153.869C112.056 153.275 112.452 147.93 112.452 147.93C117.796 148.524 118.588 142.586 118.588 142.586C140.363 141.596 156.595 149.91 156.595 149.91C149.073 157.432 146.5 173.268 146.5 173.268C106.117 160.797 60.192 171.091 60.192 171.091C59.0042 161.391 50.4922 147.93 50.4922 147.93C50.4922 147.93 73.6528 140.012 88.6973 141.794C88.6973 141.794 89.2911 146.149 93.6461 146.743C93.6461 146.743 93.844 152.285 98.199 152.483C98.199 152.483 102.95 155.453 102.95 158.422C102.95 158.422 106.909 153.869 108.295 153.869Z" fill="url(#paint2_linear_2689_20279)"/>
<path d="M146.5 173.268C111.066 161.193 60.1919 171.091 60.1919 171.091C60.1919 171.091 56.4618 176.144 61.6408 175.724L61.9207 177.964L60.381 181.183L64.8602 183.983C64.8602 183.983 60.521 186.922 67.0998 188.042C67.0998 188.042 106.293 177.544 141.006 189.722C141.006 189.722 144.645 190.561 143.526 185.802L141.426 186.082L142.686 183.983L144.785 182.723L143.526 179.783L144.506 177.264L147.025 177.404L149.125 175.864C149.125 175.864 148.354 173.332 146.5 173.268Z" fill="#FFDD55"/>
<path d="M61.7808 176.704L69.1994 179.224L65.1401 184.403L60.661 181.183L61.7808 176.704Z" fill="#8787DE"/>
<path d="M76.4781 177.404L82.4969 180.063L87.396 175.724L80.8173 173.765L76.4781 177.404Z" fill="#5F5FD3"/>
<path d="M96.6343 176.284L101.953 179.224L108.112 175.584L101.533 172.505L96.6343 176.284Z" fill="#5F5FD3"/>
<path d="M116.651 177.264L121.41 180.343L127.009 178.803L122.25 173.904L116.651 177.264Z" fill="#5F5FD3"/>
<path d="M135.967 180.763L139.187 184.122L144.785 183.283L143.526 180.483L140.166 178.104L135.967 180.763Z" fill="#5F5FD3"/>
<path d="M141.006 189.722C112.451 178.384 67.0998 187.762 67.0998 187.762L70.1792 196.72L70.5992 197.7L76.898 199.24L75.7782 194.901L79.5575 196.021L83.0569 197.42L83.1968 193.081L88.6558 195.461L91.0354 196.86L92.0152 192.381L95.5146 194.481L98.1741 197L101.813 190.842L105.033 195.321L106.013 196.58V197.14L110.212 194.341L112.731 192.801L113.851 194.341L113.991 196.441L114.271 197.84L117.211 196.021L119.87 195.041L121.69 195.181L122.39 196.021L122.25 199.66C122.25 199.66 125.609 196.72 128.408 196.86L128.269 199.52L128.129 200.36C128.129 200.36 132.468 197.7 134.567 197.98V200.08C134.567 200.08 140.726 189.162 141.006 189.722Z" fill="url(#paint3_linear_2689_20279)"/>
<path d="M114.271 198.4C117.351 194.901 121.97 195.041 121.97 195.041L122.53 199.94C124.069 197.42 128.269 197 128.269 197C128.688 198.26 128.129 200.78 128.129 200.78C129.388 198.68 134.847 197.56 134.847 197.56L134.567 199.52C130.788 207.639 120.43 212.398 120.43 212.398L120.57 213.098C120.85 215.197 118.61 215.757 118.61 215.757L113.851 215.897L113.291 218.696C106.013 216.317 89.9156 217.857 89.9156 217.857L90.3355 215.197C81.6571 215.757 85.1565 212.398 85.1565 212.398C75.9182 208.198 70.5992 197.98 70.5992 197.98L77.0379 199.52L75.3583 194.901L80.8173 196.581L83.3368 197.7L83.1968 193.221L90.6154 196.861L92.0152 192.101L97.4742 196.581L97.7541 196.861L101.533 191.122L104.473 194.481L106.433 197.28C106.433 197.28 111.472 192.941 112.731 192.941C112.731 192.941 115.111 196.581 114.271 198.4Z" fill="url(#paint4_radial_2689_20279)"/>
<path d="M88.2359 245.851H116.651L116.791 240.812L111.752 240.672C111.752 240.672 103.353 228.214 112.451 218.416C112.451 218.416 103.773 215.757 90.4755 217.996C90.4755 217.996 95.7945 218.136 97.0543 229.054C97.0543 229.054 97.7541 237.313 92.8551 240.392H87.816L88.2359 245.851Z" fill="url(#paint5_linear_2689_20279)"/>
<path d="M52.5425 271.327L153.464 272.167L152.624 282.665L51.8426 280.985L52.5425 271.327Z" fill="url(#paint6_linear_2689_20279)"/>
<path d="M60.2411 270.907L135.827 271.886L135.547 263.768L128.269 263.628C128.269 263.628 123.929 253.83 119.31 253.83C119.31 253.83 124.769 249.771 117.91 246.411L116.371 245.711L88.2359 245.571C88.2359 245.571 80.2574 248.371 86.2763 252.57C86.2763 252.57 80.8173 252.57 74.9384 262.788L68.3596 262.228V271.047L60.2411 270.907Z" fill="#FFD42A"/>
<path d="M103.148 55.486C101.267 50.5372 95.9225 53.6055 95.9225 53.6055L88.2024 50.7351C88.2024 50.7351 89.588 48.5576 93.1512 48.4587L91.3696 47.3699C91.3696 47.3699 95.3287 45.1924 97.1103 45.3904L98.9908 44.4996L101.663 44.7965L103.544 40.5405L105.325 45.4894L109.977 45.2914L110.571 46.0832C110.571 46.0832 113.936 45.3904 115.619 45.9842L114.035 49.1515C114.035 49.1515 118.093 50.0423 118.885 53.3085L114.53 54.5952L112.947 55.486C112.947 55.486 107.899 49.0525 103.148 55.486Z" fill="#89A02C"/>
<path d="M103.459 140.871C104.715 140.871 105.733 139.853 105.733 138.597C105.733 137.342 104.715 136.324 103.459 136.324C102.203 136.324 101.186 137.342 101.186 138.597C101.186 139.853 102.203 140.871 103.459 140.871Z" fill="#D5E5FF"/>
<path d="M100.134 175.864L101.813 174.744L103.633 175.724L101.813 176.844L100.134 175.864Z" fill="#AAAAFF" stroke="black" stroke-width="0.400431"/>
<path d="M80.5373 177.124L81.9371 175.864L84.0367 176.564L81.9371 177.684L80.5373 177.124Z" fill="#8787DE" stroke="black" stroke-width="0.400431"/>
<path d="M63.1805 179.503L62.7606 180.763L64.7202 181.323L65.5601 180.063L63.1805 179.503Z" fill="#AFAFE9" stroke="black" stroke-width="0.400431"/>
<path d="M120.29 177.124L122.25 175.864L123.509 177.404L121.97 178.244L120.29 177.124Z" fill="#AFAFE9" stroke="black" stroke-width="0.400431"/>
<path d="M138.767 180.763L139.886 182.303L142.126 182.023L141.006 180.623L138.767 180.763Z" fill="#AFAFE9" stroke="black" stroke-width="0.400431"/>
<path d="M72.861 180.593C74.0636 180.593 75.0385 179.618 75.0385 178.415C75.0385 177.213 74.0636 176.238 72.861 176.238C71.6584 176.238 70.6835 177.213 70.6835 178.415C70.6835 179.618 71.6584 180.593 72.861 180.593Z" fill="#5F5FD3" stroke="black" stroke-width="1.32142" stroke-linecap="round" stroke-linejoin="round"/>
<path d="M91.8645 178.217C93.0671 178.217 94.042 177.242 94.042 176.04C94.042 174.837 93.0671 173.862 91.8645 173.862C90.6619 173.862 89.687 174.837 89.687 176.04C89.687 177.242 90.6619 178.217 91.8645 178.217Z" fill="#5F5FD3" stroke="black" stroke-width="1.32142" stroke-linecap="round" stroke-linejoin="round"/>
<path d="M112.65 178.019C113.852 178.019 114.827 177.044 114.827 175.842C114.827 174.639 113.852 173.664 112.65 173.664C111.447 173.664 110.472 174.639 110.472 175.842C110.472 177.044 111.447 178.019 112.65 178.019Z" fill="#5F5FD3" stroke="black" stroke-width="1.32142" stroke-linecap="round" stroke-linejoin="round"/>
<path d="M131.851 180.791C133.054 180.791 134.029 179.816 134.029 178.613C134.029 177.41 133.054 176.436 131.851 176.436C130.648 176.436 129.674 177.41 129.674 178.613C129.674 179.816 130.648 180.791 131.851 180.791Z" fill="#5F5FD3" stroke="black" stroke-width="1.32142" stroke-linecap="round" stroke-linejoin="round"/>
<path d="M140.306 144.79L132.608 169.705" stroke="black" stroke-width="0.400431"/>
<path d="M139.047 144.65L131.488 169.145" stroke="black" stroke-width="0.400431"/>
<path d="M141.846 144.93L134.147 169.705" stroke="black" stroke-width="0.400431"/>
<path d="M143.526 145.63L135.547 170.405" stroke="black" stroke-width="0.400431"/>
<path d="M144.925 145.63L137.227 170.545" stroke="black" stroke-width="0.400431"/>
<path d="M146.745 146.189L138.767 171.105" stroke="black" stroke-width="0.400431"/>
<path d="M148.285 146.609L140.166 171.945" stroke="black" stroke-width="0.400431"/>
<path d="M149.685 147.169L141.566 172.225" stroke="black" stroke-width="0.400431"/>
<path d="M151.364 147.31L142.966 172.505" stroke="black" stroke-width="0.400431"/>
<path d="M137.227 144.23L129.808 169.005" stroke="black" stroke-width="0.400431"/>
<path d="M135.687 143.95L128.408 168.726" stroke="black" stroke-width="0.400431"/>
<path d="M134.147 143.67L127.009 168.445" stroke="black" stroke-width="0.400431"/>
<path d="M123.089 185.662L120.15 195.18" stroke="black" stroke-width="0.400431"/>
<path d="M124.209 185.802L121.27 195.181" stroke="black" stroke-width="0.400431"/>
<path d="M125.469 186.083L122.11 196.441" stroke="black" stroke-width="0.400431"/>
<path d="M127.009 186.222L122.67 198.4" stroke="black" stroke-width="0.400431"/>
<path d="M128.688 186.642L124.769 197.84" stroke="black" stroke-width="0.400431"/>
<path d="M130.228 186.922L126.729 196.86" stroke="black" stroke-width="0.400431"/>
<path d="M131.908 187.202L128.129 197.28" stroke="black" stroke-width="0.400431"/>
<path d="M133.448 187.622L128.688 199.66" stroke="black" stroke-width="0.400431"/>
<path d="M134.707 187.902L130.368 198.96" stroke="black" stroke-width="0.400431"/>
<path d="M136.247 188.182L132.048 198.26" stroke="black" stroke-width="0.400431"/>
<path d="M137.647 188.602L133.867 197.7" stroke="black" stroke-width="0.400431"/>
<path d="M138.627 188.882L135.687 196.44" stroke="black" stroke-width="0.400431"/>
<path d="M152.484 147.869L144.785 171.385" stroke="black" stroke-width="0.400431"/>
<path d="M153.884 148.569L152.344 153.328" stroke="black" stroke-width="0.400431"/>
<path d="M72.663 179.009C72.991 179.009 73.2569 178.743 73.2569 178.415C73.2569 178.087 72.991 177.821 72.663 177.821C72.335 177.821 72.0692 178.087 72.0692 178.415C72.0692 178.743 72.335 179.009 72.663 179.009Z" fill="#D5D5FF"/>
<path d="M91.6665 176.436C91.9945 176.436 92.2604 176.17 92.2604 175.842C92.2604 175.514 91.9945 175.248 91.6665 175.248C91.3386 175.248 91.0727 175.514 91.0727 175.842C91.0727 176.17 91.3386 176.436 91.6665 176.436Z" fill="#D5D5FF"/>
<path d="M112.65 176.238C112.978 176.238 113.243 175.972 113.243 175.644C113.243 175.316 112.978 175.05 112.65 175.05C112.322 175.05 112.056 175.316 112.056 175.644C112.056 175.972 112.322 176.238 112.65 176.238Z" fill="#D5D5FF"/>
<path d="M131.851 179.009C132.179 179.009 132.445 178.743 132.445 178.415C132.445 178.087 132.179 177.821 131.851 177.821C131.523 177.821 131.257 178.087 131.257 178.415C131.257 178.743 131.523 179.009 131.851 179.009Z" fill="#D5D5FF"/>
<path d="M53.1024 145.687C53.7526 145.687 54.2798 145.16 54.2798 144.51C54.2798 143.86 53.7526 143.333 53.1024 143.333C52.4521 143.333 51.925 143.86 51.925 144.51C51.925 145.16 52.4521 145.687 53.1024 145.687Z" fill="#D5D5FF" stroke="black" stroke-width="1.28659" stroke-linecap="round" stroke-linejoin="round"/>
<path d="M58.0015 144.148C58.6517 144.148 59.1789 143.621 59.1789 142.97C59.1789 142.32 58.6517 141.793 58.0015 141.793C57.3512 141.793 56.8241 142.32 56.8241 142.97C56.8241 143.621 57.3512 144.148 58.0015 144.148Z" fill="#D5D5FF" stroke="black" stroke-width="1.28659" stroke-linecap="round" stroke-linejoin="round"/>
<path d="M63.6004 142.748C64.2507 142.748 64.7778 142.221 64.7778 141.57C64.7778 140.92 64.2507 140.393 63.6004 140.393C62.9502 140.393 62.423 140.92 62.423 141.57C62.423 142.221 62.9502 142.748 63.6004 142.748Z" fill="#D5D5FF" stroke="black" stroke-width="1.28659" stroke-linecap="round" stroke-linejoin="round"/>
<path d="M69.4794 141.628C70.1296 141.628 70.6568 141.101 70.6568 140.451C70.6568 139.801 70.1296 139.273 69.4794 139.273C68.8291 139.273 68.302 139.801 68.302 140.451C68.302 141.101 68.8291 141.628 69.4794 141.628Z" fill="#D5D5FF" stroke="black" stroke-width="1.28659" stroke-linecap="round" stroke-linejoin="round"/>
<path d="M74.7984 140.788C75.4486 140.788 75.9758 140.261 75.9758 139.611C75.9758 138.961 75.4486 138.434 74.7984 138.434C74.1481 138.434 73.621 138.961 73.621 139.611C73.621 140.261 74.1481 140.788 74.7984 140.788Z" fill="#D5D5FF" stroke="black" stroke-width="1.28659" stroke-linecap="round" stroke-linejoin="round"/>
<path d="M80.1174 140.228C80.7677 140.228 81.2948 139.701 81.2948 139.051C81.2948 138.401 80.7677 137.874 80.1174 137.874C79.4671 137.874 78.94 138.401 78.94 139.051C78.94 139.701 79.4671 140.228 80.1174 140.228Z" fill="#D5D5FF" stroke="black" stroke-width="1.28659" stroke-linecap="round" stroke-linejoin="round"/>
<path d="M85.4364 139.949C86.0867 139.949 86.6138 139.421 86.6138 138.771C86.6138 138.121 86.0867 137.594 85.4364 137.594C84.7862 137.594 84.259 138.121 84.259 138.771C84.259 139.421 84.7862 139.949 85.4364 139.949Z" fill="#D5D5FF" stroke="black" stroke-width="1.28659" stroke-linecap="round" stroke-linejoin="round"/>
<path d="M90.7554 140.228C91.4057 140.228 91.9328 139.701 91.9328 139.051C91.9328 138.401 91.4057 137.874 90.7554 137.874C90.1052 137.874 89.578 138.401 89.578 139.051C89.578 139.701 90.1052 140.228 90.7554 140.228Z" fill="#D5D5FF" stroke="black" stroke-width="1.28659" stroke-linecap="round" stroke-linejoin="round"/>
<path d="M92.995 144.148C93.6453 144.148 94.1724 143.621 94.1724 142.97C94.1724 142.32 93.6453 141.793 92.995 141.793C92.3448 141.793 91.8176 142.32 91.8176 142.97C91.8176 143.621 92.3448 144.148 92.995 144.148Z" fill="#D5D5FF" stroke="black" stroke-width="1.28659" stroke-linecap="round" stroke-linejoin="round"/>
<path d="M96.3544 147.227C97.0047 147.227 97.5318 146.7 97.5318 146.049C97.5318 145.399 97.0047 144.872 96.3544 144.872C95.7041 144.872 95.177 145.399 95.177 146.049C95.177 146.7 95.7041 147.227 96.3544 147.227Z" fill="#D5D5FF" stroke="black" stroke-width="1.28659" stroke-linecap="round" stroke-linejoin="round"/>
<path d="M98.314 150.867C98.9643 150.867 99.4914 150.339 99.4914 149.689C99.4914 149.039 98.9643 148.512 98.314 148.512C97.6638 148.512 97.1366 149.039 97.1366 149.689C97.1366 150.339 97.6638 150.867 98.314 150.867Z" fill="#D5D5FF" stroke="black" stroke-width="1.28659" stroke-linecap="round" stroke-linejoin="round"/>
<path d="M103.633 153.946C104.283 153.946 104.81 153.418 104.81 152.768C104.81 152.118 104.283 151.591 103.633 151.591C102.983 151.591 102.456 152.118 102.456 152.768C102.456 153.418 102.983 153.946 103.633 153.946Z" fill="#D5D5FF" stroke="black" stroke-width="1.28659" stroke-linecap="round" stroke-linejoin="round"/>
<path d="M154.934 146.947C154.283 146.947 153.756 146.42 153.756 145.77C153.756 145.119 154.283 144.592 154.934 144.592C155.584 144.592 156.111 145.119 156.111 145.77C156.111 146.42 155.584 146.947 154.934 146.947Z" fill="#D5D5FF" stroke="black" stroke-width="1.28659" stroke-linecap="round" stroke-linejoin="round"/>
<path d="M148.915 145.127C148.264 145.127 147.737 144.6 147.737 143.95C147.737 143.3 148.264 142.772 148.915 142.772C149.565 142.772 150.092 143.3 150.092 143.95C150.092 144.6 149.565 145.127 148.915 145.127Z" fill="#D5D5FF" stroke="black" stroke-width="1.28659" stroke-linecap="round" stroke-linejoin="round"/>
<path d="M143.036 143.448C142.386 143.448 141.858 142.92 141.858 142.27C141.858 141.62 142.386 141.093 143.036 141.093C143.686 141.093 144.213 141.62 144.213 142.27C144.213 142.92 143.686 143.448 143.036 143.448Z" fill="#D5D5FF" stroke="black" stroke-width="1.28659" stroke-linecap="round" stroke-linejoin="round"/>
<path d="M137.157 142.328C136.507 142.328 135.979 141.801 135.979 141.151C135.979 140.5 136.507 139.973 137.157 139.973C137.807 139.973 138.334 140.5 138.334 141.151C138.334 141.801 137.807 142.328 137.157 142.328Z" fill="#D5D5FF" stroke="black" stroke-width="1.28659" stroke-linecap="round" stroke-linejoin="round"/>
<path d="M131.838 141.488C131.188 141.488 130.66 140.961 130.66 140.311C130.66 139.66 131.188 139.133 131.838 139.133C132.488 139.133 133.015 139.66 133.015 140.311C133.015 140.961 132.488 141.488 131.838 141.488Z" fill="#D5D5FF" stroke="black" stroke-width="1.28659" stroke-linecap="round" stroke-linejoin="round"/>
<path d="M126.519 140.928C125.869 140.928 125.341 140.401 125.341 139.751C125.341 139.1 125.869 138.573 126.519 138.573C127.169 138.573 127.696 139.1 127.696 139.751C127.696 140.401 127.169 140.928 126.519 140.928Z" fill="#D5D5FF" stroke="black" stroke-width="1.28659" stroke-linecap="round" stroke-linejoin="round"/>
<path d="M121.2 140.648C120.55 140.648 120.022 140.121 120.022 139.471C120.022 138.821 120.55 138.293 121.2 138.293C121.85 138.293 122.377 138.821 122.377 139.471C122.377 140.121 121.85 140.648 121.2 140.648Z" fill="#D5D5FF" stroke="black" stroke-width="1.28659" stroke-linecap="round" stroke-linejoin="round"/>
<path d="M115.881 140.928C115.231 140.928 114.703 140.401 114.703 139.751C114.703 139.1 115.231 138.573 115.881 138.573C116.531 138.573 117.058 139.1 117.058 139.751C117.058 140.401 116.531 140.928 115.881 140.928Z" fill="#D5D5FF" stroke="black" stroke-width="1.28659" stroke-linecap="round" stroke-linejoin="round"/>
<path d="M113.921 145.127C113.271 145.127 112.744 144.6 112.744 143.95C112.744 143.3 113.271 142.772 113.921 142.772C114.571 142.772 115.099 143.3 115.099 143.95C115.099 144.6 114.571 145.127 113.921 145.127Z" fill="#D5D5FF" stroke="black" stroke-width="1.28659" stroke-linecap="round" stroke-linejoin="round"/>
<path d="M110.282 147.927C109.632 147.927 109.104 147.4 109.104 146.75C109.104 146.099 109.632 145.572 110.282 145.572C110.932 145.572 111.459 146.099 111.459 146.75C111.459 147.4 110.932 147.927 110.282 147.927Z" fill="#D5D5FF" stroke="black" stroke-width="1.28659" stroke-linecap="round" stroke-linejoin="round"/>
<path d="M107.202 151.566C106.552 151.566 106.025 151.039 106.025 150.389C106.025 149.739 106.552 149.211 107.202 149.211C107.853 149.211 108.38 149.739 108.38 150.389C108.38 151.039 107.853 151.566 107.202 151.566Z" fill="#D5D5FF" stroke="black" stroke-width="1.28659" stroke-linecap="round" stroke-linejoin="round"/>
<path d="M78.0078 96.8585C78.0078 96.8585 87.7075 76.2714 101.762 71.5205" stroke="black" stroke-width="0.800863" stroke-linecap="round"/>
<path d="M99.9806 69.145C99.9806 69.145 120.37 78.6468 126.506 93.8892" stroke="black" stroke-width="0.800863" stroke-linecap="round"/>
<path d="M98.5949 57.2676C98.5949 57.2676 92.6563 62.2164 106.117 68.353" stroke="black" stroke-width="0.800863" stroke-linecap="round"/>
<path d="M104.336 64.988C104.336 64.988 110.868 61.6228 108.295 56.0801" stroke="black" stroke-width="0.800863" stroke-linecap="round"/>
<path d="M106.117 58.6535L102.554 63.2064L99.7826 59.8412C99.7826 59.8412 102.752 59.8412 103.346 57.0698" stroke="black" stroke-width="0.800863" stroke-linecap="round"/>
<path d="M95.6256 53.9024C95.6256 53.9024 100.97 50.7351 102.95 55.486" stroke="black" stroke-width="0.800863" stroke-linecap="round"/>
<path d="M104.336 54.2984C104.336 54.2984 107.305 50.9332 111.66 54.2984" stroke="black" stroke-width="0.800863" stroke-linecap="round"/>
<path d="M102.95 45.3906L103.544 53.1108" stroke="black" stroke-width="0.800863" stroke-linecap="round"/>
<path d="M108.691 47.9639L106.513 51.527" stroke="black" stroke-width="0.800863" stroke-linecap="round"/>
<path d="M98.5949 47.1719L100.97 51.9228" stroke="black" stroke-width="0.800863" stroke-linecap="round"/>
<path d="M93.0522 50.3396C93.0522 50.3396 96.2195 49.5477 98.7929 51.1314" stroke="black" stroke-width="0.800863" stroke-linecap="round"/>
<path d="M109.284 50.9333C109.284 50.9333 110.868 49.5477 114.827 51.3292" stroke="black" stroke-width="0.800863" stroke-linecap="round"/>
<path d="M98.9908 44.5985L101.762 44.9944L103.544 40.8374L104.929 45.1924H108.295" stroke="black" stroke-width="0.800863" stroke-linecap="round"/>
<path d="M90.4788 109.923C90.4788 109.923 83.1545 105.766 89.885 96.6606C89.885 96.6606 85.9259 94.879 83.9464 97.4524C83.9464 97.4524 84.7382 88.7425 91.6665 90.1282L89.885 83.9916C89.885 83.9916 93.0522 82.8039 95.0318 85.3773C95.0318 85.3773 94.4379 79.2407 99.5847 78.4489C99.5847 78.4489 102.95 75.8755 103.148 74.8857C103.148 74.8857 103.742 76.2714 105.523 77.855C105.523 77.855 113.639 80.0325 111.462 85.9711C111.462 85.9711 115.421 83.9916 116.411 85.3773C116.411 85.3773 116.411 89.9302 115.025 90.92C115.025 90.92 120.766 91.7118 121.36 96.8586C121.36 96.8586 117.4 96.6606 117.598 98.6402C117.598 98.6402 121.36 104.183 116.807 110.121" stroke="black" stroke-width="0.800863" stroke-linecap="round"/>
<path d="M95.6256 107.944C95.6256 107.944 89.687 106.162 91.2706 102.005C91.2706 102.005 94.042 101.609 95.0318 101.807L94.6359 99.8275C94.6359 99.8275 93.2502 96.8582 95.4277 97.0562L93.844 92.5033L96.4174 92.3053L98.5949 89.9299C98.5949 89.9299 97.2093 87.1585 98.199 86.1688L100.377 87.1585C100.377 87.1585 99.9806 84.5851 103.346 81.022C103.346 81.022 106.315 83.9913 106.513 85.7729L106.909 86.9606L109.482 86.5647C109.482 86.5647 109.878 89.534 108.097 90.9196C108.097 90.9196 109.284 91.1176 109.284 92.5033C109.284 92.5033 112.254 92.3053 113.639 93.493C113.639 93.493 113.046 95.2746 111.858 96.0664L114.233 97.0562C114.233 97.0562 112.254 99.4316 111.462 99.6296C111.462 99.6296 114.431 100.619 114.431 101.411L112.452 102.995C112.452 102.995 115.619 102.401 116.807 103.787C116.807 103.787 114.233 107.548 112.452 107.944" stroke="black" stroke-width="0.800863" stroke-linecap="round"/>
<path d="M103.346 85.1792V97.6503" stroke="black" stroke-width="0.800863" stroke-linecap="round"/>
<path d="M99.5847 92.5034L102.356 96.0666" stroke="black" stroke-width="0.800863" stroke-linecap="round"/>
<path d="M107.107 93.4932L104.336 96.2645" stroke="black" stroke-width="0.800863" stroke-linecap="round"/>
<path d="M97.0113 94.4829C97.0113 94.4829 101.564 99.0358 101.762 101.807" stroke="black" stroke-width="0.800863" stroke-linecap="round"/>
<path d="M109.284 94.8789C109.284 94.8789 105.325 97.4523 103.346 102.005" stroke="black" stroke-width="0.800863" stroke-linecap="round"/>
<path d="M105.919 102.995C105.919 102.995 103.148 105.569 107.899 108.142" stroke="black" stroke-width="0.800863" stroke-linecap="round"/>
<path d="M101.96 102.401C101.96 102.401 102.158 107.746 100.772 107.746" stroke="black" stroke-width="0.800863" stroke-linecap="round"/>
<path d="M96.6154 100.619C96.6154 100.619 98.397 100.421 99.7826 102.203" stroke="black" stroke-width="0.800863" stroke-linecap="round"/>
<path d="M106.711 102.005C106.711 102.005 108.691 100.026 110.472 100.619" stroke="black" stroke-width="0.800863" stroke-linecap="round"/>
<path d="M129.476 91.1177C129.476 91.1177 124.131 97.4522 131.059 101.411C131.059 101.411 129.278 104.974 134.82 105.37" stroke="black" stroke-width="0.800863" stroke-linecap="round"/>
<path d="M131.059 97.65C131.059 97.65 131.059 92.3053 134.622 97.4521" stroke="black" stroke-width="0.800863" stroke-linecap="round"/>
<path d="M138.582 91.5137C138.582 91.5137 140.165 93.8891 140.165 96.2646" stroke="black" stroke-width="0.800863" stroke-linecap="round"/>
<path d="M68.506 93.0972C68.506 93.0972 67.9121 94.2849 68.506 96.2644" stroke="black" stroke-width="0.800863" stroke-linecap="round"/>
<path d="M74.0487 94.6807C74.0487 94.6807 74.6425 97.8479 72.0692 99.2336" stroke="black" stroke-width="0.800863" stroke-linecap="round"/>
<path d="M76.82 92.5034C76.82 92.5034 77.4139 99.0359 74.4446 100.619C74.4446 100.619 77.4139 97.2543 81.9668 98.0461C81.9668 98.0461 81.5709 103.589 78.2057 104.974C78.2057 104.974 87.5095 105.568 85.9259 111.903C85.9259 111.903 83.1545 116.654 80.1852 112.101" stroke="black" stroke-width="0.800863" stroke-linecap="round"/>
<path d="M126.11 98.838L123.339 97.2544C123.339 97.2544 122.745 102.401 125.913 104.579C125.913 104.579 122.349 105.766 122.745 109.132C122.745 109.132 130.267 104.975 131.059 114.278C131.059 114.278 130.861 117.05 128.288 118.039" stroke="black" stroke-width="0.800863" stroke-linecap="round"/>
<path d="M139.967 109.132L140.957 107.944C140.957 107.944 141.947 109.725 145.906 110.913" stroke="black" stroke-width="0.800863" stroke-linecap="round"/>
<path d="M59.5981 109.924C59.5981 109.924 59.994 114.279 68.3081 107.746H70.2876" stroke="black" stroke-width="0.800863" stroke-linecap="round"/>
<path d="M71.4753 104.974C71.4753 104.974 73.0589 103.391 74.8405 103.391L76.8201 102.005L74.8405 100.817" stroke="black" stroke-width="0.800863" stroke-linecap="round"/>
<path d="M82.9566 108.34C82.9566 108.34 70.0896 109.528 78.7996 117.248" stroke="black" stroke-width="0.800863" stroke-linecap="round"/>
<path d="M43.7618 114.674C43.7618 114.674 38.2191 118.04 44.3557 122.394" stroke="black" stroke-width="0.800863" stroke-linecap="round"/>
<path d="M47.9188 117.445C47.9188 117.445 46.1373 118.435 49.3045 120.415" stroke="black" stroke-width="0.800863" stroke-linecap="round"/>
<path d="M165.107 117.841C165.107 117.841 169.264 120.613 163.722 125.364" stroke="black" stroke-width="0.800863" stroke-linecap="round"/>
<path d="M87.9054 112.101C87.9054 112.101 96.4174 105.172 102.158 109.329C102.158 109.329 106.117 112.101 101.366 115.862" stroke="black" stroke-width="0.800863" stroke-linecap="round"/>
<path d="M104.929 111.111C104.929 111.111 108.889 104.777 116.807 111.507C116.807 111.507 119.974 114.872 124.923 114.674C124.923 114.674 127.298 114.872 127.298 112.497" stroke="black" stroke-width="0.800863" stroke-linecap="round"/>
<path d="M90.4788 115.664C90.4788 115.664 95.8236 109.923 100.574 112.497" stroke="black" stroke-width="0.800863" stroke-linecap="round"/>
<path d="M94.8338 113.685C94.8338 113.685 93.844 118.831 100.179 116.852" stroke="black" stroke-width="0.800863" stroke-linecap="round"/>
<path d="M105.523 116.852C105.523 116.852 112.65 120.415 113.243 114.278C113.243 114.278 115.025 113.487 117.4 116.654" stroke="black" stroke-width="0.800863" stroke-linecap="round"/>
<path d="M107.701 114.08C107.701 114.08 106.909 110.715 111.462 112.497" stroke="black" stroke-width="0.800863" stroke-linecap="round"/>
<path d="M44.3557 123.78C44.3557 123.78 101.564 109.528 161.544 125.562" stroke="black" stroke-width="0.800863" stroke-linecap="round"/>
<path d="M42.7721 128.729C42.7721 128.729 99.9806 110.517 161.94 129.719" stroke="black" stroke-width="0.800863" stroke-linecap="round"/>
<path d="M45.7413 139.023C45.7413 139.023 109.68 123.384 160.554 141.002" stroke="black" stroke-width="0.800863" stroke-linecap="round"/>
<path d="M49.8984 142.354C49.8984 142.354 76.6221 134.272 95.8236 136.449C95.8236 136.449 91.6665 140.408 98.5949 143.773C98.5949 143.773 99.3867 148.92 102.95 150.108C102.95 150.108 108.295 148.128 108.295 143.971C108.295 143.971 113.639 142.19 112.848 136.845C112.848 136.845 133.831 135.261 158.179 143.971" stroke="black" stroke-width="0.800863" stroke-linecap="round"/>
<path d="M112.152 135.077C112.152 135.077 138.723 134.339 160.554 142.783" stroke="black" stroke-width="0.800863" stroke-linecap="round"/>
<path d="M42.7721 130.906L50.0963 134.865" stroke="black" stroke-width="0.800863" stroke-linecap="round"/>
<path d="M46.7311 128.927L49.8984 130.708" stroke="black" stroke-width="0.800863" stroke-linecap="round"/>
<path d="M52.8677 127.541L50.4922 136.845" stroke="black" stroke-width="0.800863" stroke-linecap="round"/>
<path d="M54.4513 134.667L56.4308 126.947" stroke="black" stroke-width="0.800863" stroke-linecap="round"/>
<path d="M61.9735 125.166L58.8063 134.865" stroke="black" stroke-width="0.800863" stroke-linecap="round"/>
<path d="M67.1203 124.77L63.7551 133.678" stroke="black" stroke-width="0.800863" stroke-linecap="round"/>
<path d="M74.6425 123.582L70.6835 133.084" stroke="black" stroke-width="0.800863" stroke-linecap="round"/>
<path d="M78.9975 123.384L75.0385 132.094" stroke="black" stroke-width="0.800863" stroke-linecap="round"/>
<path d="M86.9157 122.592L82.9566 131.104" stroke="black" stroke-width="0.800863" stroke-linecap="round"/>
<path d="M91.8645 122.592L87.3116 131.104" stroke="black" stroke-width="0.800863" stroke-linecap="round"/>
<path d="M99.5847 122.988L93.844 130.906" stroke="black" stroke-width="0.800863" stroke-linecap="round"/>
<path d="M103.346 123.186L98.199 130.906" stroke="black" stroke-width="0.800863" stroke-linecap="round"/>
<path d="M111.264 123.582L106.315 131.104" stroke="black" stroke-width="0.800863" stroke-linecap="round"/>
<path d="M115.025 123.978L110.274 130.906" stroke="black" stroke-width="0.800863" stroke-linecap="round"/>
<path d="M123.933 123.978L117.994 131.302" stroke="black" stroke-width="0.800863" stroke-linecap="round"/>
<path d="M127.496 124.77L122.349 131.105" stroke="black" stroke-width="0.800863" stroke-linecap="round"/>
<path d="M136.206 124.968L129.08 132.49" stroke="black" stroke-width="0.800863" stroke-linecap="round"/>
<path d="M140.759 126.551L134.029 133.084" stroke="black" stroke-width="0.800863" stroke-linecap="round"/>
<path d="M148.281 127.937L141.947 133.678" stroke="black" stroke-width="0.800863" stroke-linecap="round"/>
<path d="M152.636 129.521L145.708 135.261" stroke="black" stroke-width="0.800863" stroke-linecap="round"/>
<path d="M160.554 131.104L153.23 136.647" stroke="black" stroke-width="0.800863" stroke-linecap="round"/>
<path d="M163.326 133.084L156.793 137.637" stroke="black" stroke-width="0.800863" stroke-linecap="round"/>
<path d="M58.0145 127.146L60.192 128.927" stroke="black" stroke-width="0.800863" stroke-linecap="round"/>
<path d="M57.2227 130.708L58.6083 132.292" stroke="black" stroke-width="0.800863" stroke-linecap="round"/>
<path d="M67.1203 127.937L70.4856 130.906" stroke="black" stroke-width="0.800863" stroke-linecap="round"/>
<path d="M69.0999 124.77L72.0691 127.739" stroke="black" stroke-width="0.800863" stroke-linecap="round"/>
<path d="M78.9975 126.155L82.1648 129.52" stroke="black" stroke-width="0.800863" stroke-linecap="round"/>
<path d="M80.7791 123.78L83.9464 126.354" stroke="black" stroke-width="0.800863" stroke-linecap="round"/>
<path d="M91.5953 125.333L94.1148 127.853" stroke="black" stroke-width="0.800863" stroke-linecap="round"/>
<path d="M94.1148 122.814L96.4944 124.914" stroke="black" stroke-width="0.800863" stroke-linecap="round"/>
<path d="M103.913 125.333L106.153 128.273" stroke="black" stroke-width="0.800863" stroke-linecap="round"/>
<path d="M105.033 122.114L108.392 125.334" stroke="black" stroke-width="0.800863" stroke-linecap="round"/>
<path d="M114.551 125.613L117.63 129.113" stroke="black" stroke-width="0.800863" stroke-linecap="round"/>
<path d="M117.491 123.094L119.87 126.453" stroke="black" stroke-width="0.800863" stroke-linecap="round"/>
<path d="M127.429 127.153L129.808 130.233" stroke="black" stroke-width="0.800863" stroke-linecap="round"/>
<path d="M129.948 124.354L132.188 127.573" stroke="black" stroke-width="0.800863" stroke-linecap="round"/>
<path d="M139.886 128.973L141.846 131.912" stroke="black" stroke-width="0.800863" stroke-linecap="round"/>
<path d="M143.106 126.593C143.806 127.433 145.065 129.533 145.065 129.533" stroke="black" stroke-width="0.800863" stroke-linecap="round"/>
<path d="M155.423 128.833L157.103 132.752" stroke="black" stroke-width="0.800863" stroke-linecap="round"/>
<path d="M152.624 131.072L154.304 134.712" stroke="black" stroke-width="0.800863" stroke-linecap="round"/>
<path d="M163.822 135.132C163.822 135.132 164.102 138.771 160.882 139.331" stroke="black" stroke-width="0.800863" stroke-linecap="round"/>
<path d="M44.0041 133.452C44.0041 133.452 41.7645 136.112 46.8035 137.791" stroke="black" stroke-width="0.800863" stroke-linecap="round"/>
<path d="M59.4012 113.156C59.4012 113.156 62.6206 114.416 66.6799 111.196" stroke="black" stroke-width="0.800863" stroke-linecap="round"/>
<path d="M52.8224 147.449C68.8397 142.095 78.8701 141.979 89.0757 141.71C89.0757 141.71 89.0757 146.47 93.8349 147.029C93.8349 147.029 94.1148 152.069 98.454 152.488C98.454 152.488 102.793 155.428 103.073 158.227C103.073 158.227 106.852 153.468 109.092 153.468C109.092 153.468 112.871 151.369 112.171 148.009C112.171 148.009 117.211 148.709 118.19 142.55C118.19 142.55 139.746 143.11 155.004 148.849" stroke="black" stroke-width="0.800863" stroke-linecap="round"/>
<path d="M101.953 134.432C101.953 134.432 97.7542 136.112 99.7138 140.591C99.7138 140.591 101.393 143.95 104.893 142.55C105.593 142.41 107.972 141.431 108.112 137.791C106.013 132.752 101.953 134.432 101.953 134.432Z" stroke="black" stroke-width="0.800863" stroke-linecap="round"/>
<path d="M62.6206 170.265C62.6206 170.265 115.531 161.727 143.106 172.645" stroke="black" stroke-width="0.800863" stroke-linecap="round"/>
<path d="M63.3205 175.024C63.3205 175.024 104.753 166.066 142.686 176.564" stroke="black" stroke-width="0.800863" stroke-linecap="round"/>
<path d="M106.573 169.285C106.573 169.285 129.808 168.865 146.185 175.444" stroke="black" stroke-width="0.800863" stroke-linecap="round"/>
<path d="M66.8199 183.843C66.8199 183.843 109.092 173.904 139.326 185.522" stroke="black" stroke-width="0.800863" stroke-linecap="round"/>
<path d="M69.6193 187.062C69.6193 187.062 105.173 179.364 138.627 188.882" stroke="black" stroke-width="0.800863" stroke-linecap="round"/>
<path d="M105.313 182.023C105.313 182.023 132.328 183.703 140.586 187.342" stroke="black" stroke-width="0.800863" stroke-linecap="round"/>
<path d="M63.8804 177.404L69.0594 178.944L65.5601 183.703" stroke="black" stroke-width="0.800863" stroke-linecap="round"/>
<path d="M77.038 177.264L81.0972 173.765L87.536 175.724L82.7769 180.483L77.038 177.264Z" stroke="black" stroke-width="0.800863" stroke-linecap="round"/>
<path d="M96.3544 176.284L101.673 172.505L108.112 175.584L102.093 179.504L96.3544 176.284Z" stroke="black" stroke-width="0.800863" stroke-linecap="round"/>
<path d="M116.931 177.264L121.27 180.203L127.009 178.803L121.97 173.904L116.931 177.264Z" stroke="black" stroke-width="0.800863" stroke-linecap="round"/>
<path d="M143.666 180.483L140.446 178.104L135.687 180.763L139.047 184.122L143.666 183.283" stroke="black" stroke-width="0.800863" stroke-linecap="round"/>
<path d="M127.1 163.668L130.663 151.989C130.663 151.989 129.773 148.92 127.298 151.989L124.428 162.876C124.428 162.876 124.131 165.746 127.1 163.668Z" fill="#FFD42A" stroke="black" stroke-width="0.800863" stroke-linecap="round"/>
<path d="M139.68 167.017L143.697 155.486C143.697 155.486 142.926 152.385 140.334 155.354L137.041 166.121C137.041 166.121 136.632 168.978 139.68 167.017Z" fill="#FFD42A" stroke="black" stroke-width="0.800863" stroke-linecap="round"/>
<path d="M114.245 161.907L116.744 149.955C116.744 149.955 115.581 146.979 113.392 150.257L111.512 161.359C111.512 161.359 111.475 164.244 114.245 161.907Z" fill="#FFD42A" stroke="black" stroke-width="0.800863" stroke-linecap="round"/>
<path d="M78.516 163.085L74.9528 151.406C74.9528 151.406 75.8436 148.337 78.318 151.406L81.1883 162.293C81.1883 162.293 81.4853 165.163 78.516 163.085Z" fill="#FFD42A" stroke="black" stroke-width="0.800863" stroke-linecap="round"/>
<path d="M65.9359 166.434L61.9194 154.903C61.9194 154.903 62.6897 151.803 65.2821 154.772L68.5753 165.539C68.5753 165.539 68.9841 168.395 65.9359 166.434Z" fill="#FFD42A" stroke="black" stroke-width="0.800863" stroke-linecap="round"/>
<path d="M91.3711 161.324L88.8726 149.372C88.8726 149.372 90.0357 146.396 92.2241 149.675L94.1038 160.776C94.1038 160.776 94.1414 163.661 91.3711 161.324Z" fill="#FFD42A" stroke="black" stroke-width="0.800863" stroke-linecap="round"/>
<path d="M87.3116 211.968C87.3116 211.968 103.94 209.692 117.796 212.562" stroke="black" stroke-width="0.800863" stroke-linecap="round"/>
<path d="M92.0624 214.64C92.0624 214.64 103.247 213.354 112.551 214.838" stroke="black" stroke-width="0.800863" stroke-linecap="round"/>
<path d="M93.943 217.808C93.943 217.808 102.653 216.719 109.977 217.709" stroke="black" stroke-width="0.800863" stroke-linecap="round"/>
<path d="M108.394 219.985C108.394 219.985 103.148 229.388 108.592 239.088" stroke="black" stroke-width="0.800863" stroke-linecap="round"/>
<path d="M105.424 219.788C105.424 219.788 101.96 230.873 106.216 238.791" stroke="black" stroke-width="0.800863" stroke-linecap="round"/>
<path d="M95.2297 240.474L109.284 240.672" stroke="black" stroke-width="0.800863" stroke-linecap="round"/>
<path d="M89.9839 245.719L114.233 245.521" stroke="black" stroke-width="0.800863" stroke-linecap="round"/>
<path d="M71.0794 197.617L77.018 199.398C77.018 199.398 75.7313 196.924 75.7313 194.845C75.7313 194.845 82.2638 196.825 83.4515 197.914L83.2535 193.361C83.2535 193.361 89.588 195.439 90.9737 197.518C90.9737 197.518 91.6666 193.361 91.8645 192.47C91.8645 192.47 96.1205 194.548 97.9021 197.32C97.9021 197.32 100.772 191.876 101.663 190.886C101.663 190.886 104.632 194.053 106.018 197.419C106.018 197.419 109.878 193.757 112.749 192.866C112.749 192.866 114.53 195.34 114.431 198.211C114.431 198.211 119.083 194.251 121.854 195.142C121.854 195.142 122.745 198.112 122.349 199.893C122.349 199.893 125.22 196.627 128.09 197.023C128.09 197.023 128.882 199.299 127.892 200.586C127.892 200.586 131.851 197.518 134.82 197.815C134.82 197.815 134.82 199.893 133.336 201.774" stroke="black" stroke-width="0.800863" stroke-linecap="round"/>
<path d="M102.257 195.538L102.356 209.791" stroke="black" stroke-width="0.800863" stroke-linecap="round"/>
<path d="M98.001 199.398C98.001 199.398 98.1 208.108 99.9806 209.89" stroke="black" stroke-width="0.800863" stroke-linecap="round"/>
<path d="M106.414 198.903C106.414 198.903 106.909 207.019 105.127 209.593" stroke="black" stroke-width="0.800863" stroke-linecap="round"/>
<path d="M93.3492 196.726C93.3492 196.726 94.7348 205.238 97.2092 208.504" stroke="black" stroke-width="0.800863" stroke-linecap="round"/>
<path d="M90.9737 197.419C90.9737 197.419 91.2706 203.753 95.8236 208.999" stroke="black" stroke-width="0.800863" stroke-linecap="round"/>
<path d="M86.8167 198.21C86.8167 198.21 89.1921 205.139 94.141 208.999" stroke="black" stroke-width="0.800863" stroke-linecap="round"/>
<path d="M83.9464 199.002C83.9464 199.002 87.6085 206.624 92.0624 209.395" stroke="black" stroke-width="0.800863" stroke-linecap="round"/>
<path d="M78.8986 198.111C78.8986 198.111 81.373 205.436 89.786 209.494" stroke="black" stroke-width="0.800863" stroke-linecap="round"/>
<path d="M77.8098 200.388C77.8098 200.388 82.4617 207.218 87.9054 210.583" stroke="black" stroke-width="0.800863" stroke-linecap="round"/>
<path d="M75.3354 200.784C75.3354 200.784 80.3832 208.108 86.5198 211.375" stroke="black" stroke-width="0.800863" stroke-linecap="round"/>
<path d="M112.056 196.528C112.056 196.528 110.967 204.248 106.909 209.593" stroke="black" stroke-width="0.800863" stroke-linecap="round"/>
<path d="M114.035 199.596C114.035 199.596 112.749 204.743 109.284 209.494" stroke="black" stroke-width="0.800863" stroke-linecap="round"/>
<path d="M120.469 197.122C120.469 197.122 117.895 203.555 111.858 209.692" stroke="black" stroke-width="0.800863" stroke-linecap="round"/>
<path d="M122.052 200.19C122.052 200.19 118.984 205.733 113.936 209.989" stroke="black" stroke-width="0.800863" stroke-linecap="round"/>
<path d="M126.704 198.409C126.704 198.409 123.339 206.129 116.51 209.89" stroke="black" stroke-width="0.800863" stroke-linecap="round"/>
<path d="M127.694 201.18C127.694 201.18 123.735 207.514 118.786 210.484" stroke="black" stroke-width="0.800863" stroke-linecap="round"/>
<path d="M132.148 199.992C132.148 199.992 128.387 207.119 120.766 210.88" stroke="black" stroke-width="0.800863" stroke-linecap="round"/>
<path d="M76.5231 262.842L126.11 263.238" stroke="black" stroke-width="0.800863" stroke-linecap="round"/>
<path d="M89.2911 252.549L117.4 253.242" stroke="black" stroke-width="0.800863" stroke-linecap="round"/>
<path d="M98.397 247.006C98.397 247.006 95.7246 247.6 97.7041 251.262" stroke="black" stroke-width="0.800863" stroke-linecap="round"/>
<path d="M94.5369 247.006C94.5369 247.006 92.7553 250.173 95.0317 250.767" stroke="black" stroke-width="0.800863" stroke-linecap="round"/>
<path d="M89.4891 246.412C89.4891 246.412 85.9259 249.282 88.4993 250.668" stroke="black" stroke-width="0.800863" stroke-linecap="round"/>
<path d="M92.2604 247.105C92.2604 247.105 89.3901 250.074 91.6666 251.856" stroke="black" stroke-width="0.800863" stroke-linecap="round"/>
<path d="M107.206 247.006C107.206 247.006 108.592 250.173 107.107 251.559" stroke="black" stroke-width="0.800863" stroke-linecap="round"/>
<path d="M110.472 246.412C110.472 246.412 113.144 250.074 110.67 250.47" stroke="black" stroke-width="0.800863" stroke-linecap="round"/>
<path d="M112.947 247.006C112.947 247.006 116.312 249.579 113.441 251.262" stroke="black" stroke-width="0.800863" stroke-linecap="round"/>
<path d="M115.52 247.303C115.52 247.303 118.786 249.481 116.114 251.46" stroke="black" stroke-width="0.800863" stroke-linecap="round"/>
<path d="M104.731 247.105C104.731 247.105 105.721 250.569 103.841 250.767C103.841 250.767 100.179 251.757 100.574 248.689C100.574 248.689 100.772 246.511 101.96 246.511C101.96 246.511 103.544 246.313 104.731 247.105Z" stroke="black" stroke-width="0.800863" stroke-linecap="round"/>
<path d="M102.158 253.638L102.257 261.16" stroke="black" stroke-width="0.800863" stroke-linecap="round"/>
<path d="M99.9806 253.835C99.9806 253.835 97.1103 257.399 100.278 262.149" stroke="black" stroke-width="0.800863" stroke-linecap="round"/>
<path d="M105.226 253.736C105.226 253.736 107.899 258.784 104.731 261.951" stroke="black" stroke-width="0.800863" stroke-linecap="round"/>
<path d="M97.3082 253.539L94.9328 260.566" stroke="black" stroke-width="0.800863" stroke-linecap="round"/>
<path d="M93.5471 253.34L89.687 259.675" stroke="black" stroke-width="0.800863" stroke-linecap="round"/>
<path d="M88.7962 253.34L84.6392 260.269" stroke="black" stroke-width="0.800863" stroke-linecap="round"/>
<path d="M84.9361 254.231L80.1852 259.477" stroke="black" stroke-width="0.800863" stroke-linecap="round"/>
<path d="M107.602 254.033L110.175 260.665" stroke="black" stroke-width="0.800863" stroke-linecap="round"/>
<path d="M111.759 254.231L115.421 260.665" stroke="black" stroke-width="0.800863" stroke-linecap="round"/>
<path d="M116.411 254.528L119.578 260.17" stroke="black" stroke-width="0.800863" stroke-linecap="round"/>
<path d="M120.667 255.419L124.131 260.17" stroke="black" stroke-width="0.800863" stroke-linecap="round"/>
<path d="M86.8167 253.935C86.8167 253.935 82.4617 257.399 83.0556 261.457" stroke="black" stroke-width="0.800863" stroke-linecap="round"/>
<path d="M91.0727 253.539C91.0727 253.539 87.5095 258.19 88.3013 262.051" stroke="black" stroke-width="0.800863" stroke-linecap="round"/>
<path d="M95.0318 253.935C95.0318 253.935 92.6563 256.805 93.1512 261.457" stroke="black" stroke-width="0.800863" stroke-linecap="round"/>
<path d="M109.482 254.132C109.482 254.132 112.452 257.102 112.056 261.853" stroke="black" stroke-width="0.800863" stroke-linecap="round"/>
<path d="M114.233 254.231C114.233 254.231 117.203 257.003 116.906 261.259" stroke="black" stroke-width="0.800863" stroke-linecap="round"/>
<path d="M118.39 254.627C118.39 254.627 120.667 255.815 122.052 260.962" stroke="black" stroke-width="0.800863" stroke-linecap="round"/>
<path d="M107.305 259.675L108.691 261.358" stroke="black" stroke-width="0.800863" stroke-linecap="round"/>
<path d="M98.199 259.774C97.6051 260.269 96.2195 261.951 96.2195 261.951" stroke="black" stroke-width="0.800863" stroke-linecap="round"/>
<path d="M91.4686 259.675L89.786 261.655" stroke="black" stroke-width="0.800863" stroke-linecap="round"/>
<path d="M86.7177 260.071L84.9362 261.753" stroke="black" stroke-width="0.800863" stroke-linecap="round"/>
<path d="M81.7689 260.269L79.6904 262.051" stroke="black" stroke-width="0.800863" stroke-linecap="round"/>
<path d="M113.046 260.764L114.233 262.05" stroke="black" stroke-width="0.800863" stroke-linecap="round"/>
<path d="M117.994 260.467L119.776 262.347" stroke="black" stroke-width="0.800863" stroke-linecap="round"/>
<path d="M70.8814 270.662L132.742 271.354" stroke="black" stroke-width="0.800863" stroke-linecap="round"/>
<path d="M134.959 272.405V281.884" stroke="black" stroke-width="0.879575" stroke-linecap="round"/>
<path d="M136.633 272.405C136.633 272.885 136.929 281.764 136.929 281.764" stroke="black" stroke-width="0.879575" stroke-linecap="round"/>
<path d="M138.899 272.285V281.763" stroke="black" stroke-width="0.879575" stroke-linecap="round"/>
<path d="M140.474 273.005L140.573 281.764" stroke="black" stroke-width="0.879575" stroke-linecap="round"/>
<path d="M142.937 272.645L142.641 281.643" stroke="black" stroke-width="0.879575" stroke-linecap="round"/>
<path d="M144.811 272.548L144.724 281.641" stroke="black" stroke-width="0.812528" stroke-linecap="round"/>
<path d="M146.482 273.005V281.644" stroke="black" stroke-width="0.879575" stroke-linecap="round"/>
<path d="M148.643 272.418L148.262 281.877" stroke="black" stroke-width="0.892505" stroke-linecap="round"/>
<path d="M151.007 272.339L150.822 281.998Z" fill="black"/>
<path d="M151.007 272.339L150.822 281.998" stroke="black" stroke-width="0.890523" stroke-linecap="round"/>
<path d="M74.8405 268.385H72.861V270.562H74.8405V268.385Z" fill="black"/>
<path d="M79.4924 262.743H77.5128V264.921H79.4924V262.743Z" fill="black"/>
<path d="M82.7587 268.484H80.7791V270.661H82.7587V268.484Z" fill="black"/>
<path d="M87.5095 263.04H85.53V265.218H87.5095V263.04Z" fill="black"/>
<path d="M91.1717 268.385H89.1921V270.563H91.1717V268.385Z" fill="black"/>
<path d="M95.4277 263.139H93.4481V265.317H95.4277V263.139Z" fill="black"/>
<path d="M99.2877 268.583H97.3082V270.761H99.2877V268.583Z" fill="black"/>
<path d="M103.445 263.04H101.465V265.218H103.445V263.04Z" fill="black"/>
<path d="M107.899 268.484H105.919V270.661H107.899V268.484Z" fill="black"/>
<path d="M112.056 263.139H110.076V265.317H112.056V263.139Z" fill="black"/>
<path d="M116.411 268.682H114.431V270.86H116.411V268.682Z" fill="black"/>
<path d="M120.766 263.337H118.786V265.515H120.766V263.337Z" fill="black"/>
<path d="M124.329 268.682H122.349V270.86H124.329V268.682Z" fill="black"/>
<path d="M128.189 263.832H126.209V266.01H128.189V263.832Z" fill="black"/>
<path d="M131.158 269.078H129.179V271.255H131.158V269.078Z" fill="black"/>
<path d="M97.3342 33.6504C102.933 35.3301 103.633 40.7891 103.633 40.7891C103.633 40.7891 104.053 35.75 109.092 34.4902" stroke="black" stroke-width="0.800863"/>
<path d="M104.893 44.9885C104.893 44.9885 106.712 38.9696 110.492 37.9897" stroke="black" stroke-width="0.800863"/>
<path d="M101.673 44.9885C101.673 44.9885 100.274 38.9696 95.2346 37.9897" stroke="black" stroke-width="0.800863"/>
<path d="M100.438 30.605C100.438 30.605 109.778 35.5861 109.638 45.5242" stroke="black" stroke-width="0.800863"/>
<path d="M96.8944 44.9404C96.8944 44.9404 98.594 34.9103 106.573 30.8511" stroke="black" stroke-width="0.800863"/>
<path d="M119.87 253.55C124.069 254.11 127.709 263.628 127.709 263.628L135.547 263.908L135.267 272.026H153.184L152.624 282.664L51.8426 280.985L52.4025 271.186L68.6395 270.347V262.228L74.7983 262.508C74.7983 262.508 81.2372 252.71 85.9963 252.43C85.9963 252.43 80.3973 249.07 88.2359 245.711V240.392H93.2749C93.2749 240.392 102.233 231.714 92.4351 218.556L89.9156 217.716L90.1955 214.917H85.4364C85.4364 214.917 83.7567 214.077 85.1565 212.397C85.1565 212.397 69.2978 204.545 67.5162 187.917C66.5264 187.719 64.9428 187.719 64.9428 187.719C64.9428 187.719 62.1715 185.937 64.5469 183.958L60.3899 181.384L62.1715 177.425L61.5776 175.644C61.5776 175.644 56.0349 176.435 60.3899 171.091C60.3899 171.091 54.8472 151.295 46.9291 142.981C46.9291 142.981 41.7823 145.555 42.97 139.418L39.6048 136.251C39.6048 136.251 38.813 131.698 40.9905 130.312L40.0007 129.125L37.2294 129.916C37.2294 129.916 32.0826 127.541 41.1884 124.374C41.1884 124.374 33.0723 116.258 43.168 112.299L44.1577 113.09C44.1577 113.09 47.7209 111.507 49.1066 116.654L51.6799 116.456L56.0349 112.694C56.0349 112.694 54.2533 108.933 57.8165 108.933C57.8165 108.933 59.5981 104.38 65.5367 103.193C65.5367 103.193 69.4958 101.411 70.4855 100.025C70.4855 100.025 60.7858 98.6398 65.5367 92.8991C65.5367 92.8991 67.1203 91.1175 68.308 91.3155C68.308 91.3155 72.2671 86.5646 76.2262 90.1278L84.7382 78.6465C84.7382 78.6465 89.687 73.4997 88.8952 68.7488C88.8952 68.7488 91.8645 69.1447 91.8645 72.114L98.5949 67.957C98.5949 67.957 94.6358 67.1652 93.0522 68.7488C93.0522 68.7488 90.8747 65.3836 94.2399 63.4041C94.2399 63.4041 90.6768 58.2573 93.844 55.09L94.042 53.1105C94.042 53.1105 89.687 51.3289 88.1034 51.3289C88.1034 51.3289 88.6972 48.3596 93.844 48.1617C93.844 48.1617 92.8542 47.7657 91.6665 47.1719C91.6665 47.1719 94.8338 45.1924 97.2092 45.3903C97.2092 45.3903 91.4686 38.264 100.376 30.9397L103.94 27.7725L106.513 30.7418C110.929 34.5814 113.028 43.17 109.482 45.9842C109.482 45.9842 114.233 45.3903 115.817 45.9842L114.035 48.9535C114.035 48.9535 118.786 50.5371 119.182 53.5064C119.182 53.5064 113.441 54.1003 113.045 55.6839C113.045 55.6839 115.025 60.2368 110.868 63.2061C110.868 63.2061 116.015 63.9979 115.619 67.1652C115.619 67.1652 115.817 69.3427 112.65 68.9468C112.65 68.9468 109.086 66.1754 107.107 68.9468L116.015 73.8956C116.015 73.8956 117.203 68.155 120.964 70.9263C120.964 70.9263 117.796 74.0935 122.151 79.6362L129.476 89.9298C129.476 89.9298 134.227 87.7523 137.79 90.5237C137.79 90.5237 142.936 88.5441 143.53 95.2746C143.53 95.2746 143.926 99.0357 139.967 97.848C139.967 97.848 138.384 98.6398 136.602 98.8377C136.602 98.8377 137.79 101.213 142.343 102.203C142.343 102.203 149.271 104.974 149.865 107.35C149.865 107.35 150.261 110.121 148.875 110.913C148.875 110.913 154.616 111.111 151.646 114.674C151.646 114.674 154.418 115.862 154.814 118.237L159.169 120.613C159.169 120.613 158.773 115.07 163.326 115.466C163.326 115.466 166.295 112.694 169.66 116.851C169.66 116.851 173.421 123.78 165.899 126.155C165.899 126.155 172.431 128.135 171.244 130.312C171.244 130.312 172.036 133.084 166.691 131.5L165.503 130.708L165.701 131.896L167.681 136.647C167.681 136.647 167.483 140.804 163.128 141.2C163.128 141.2 165.899 142.783 165.503 143.971C165.503 143.971 163.92 147.138 160.95 145.159C160.95 145.159 149.073 154.463 146.302 172.872C146.302 172.872 152.24 176.237 145.708 177.821L144.52 177.623L143.53 180.395L145.114 182.77L142.739 183.76L142.343 184.552L141.749 185.739C141.749 185.739 144.52 185.541 143.53 188.907C143.53 188.907 142.343 190.094 140.363 189.896C140.363 189.896 134.029 206.128 120.172 212.661C120.172 212.661 121.162 215.036 118.786 215.828H113.837L113.639 218.6H111.858C111.858 218.6 103.346 228.101 111.66 240.374L116.609 240.572V245.917C116.609 245.917 124.319 248.315 119.87 253.55Z" stroke="black" stroke-width="0.840906"/>
<defs>
<linearGradient id="paint0_linear_2689_20279" x1="135.067" y1="148.459" x2="-384.797" y2="148.459" gradientUnits="userSpaceOnUse">
<stop stop-color="white"/>
<stop offset="1" stop-color="#CCCCCC"/>
</linearGradient>
<radialGradient id="paint1_radial_2689_20279" cx="0" cy="0" r="1" gradientUnits="userSpaceOnUse" gradientTransform="translate(102.95 101.807) rotate(2.2026) scale(61.8071 45.7243)">
<stop stop-color="#FFF6D5"/>
<stop offset="1" stop-color="#FFCC00"/>
</radialGradient>
<linearGradient id="paint2_linear_2689_20279" x1="69.6937" y1="162.777" x2="138.582" y2="164.361" gradientUnits="userSpaceOnUse">
<stop stop-color="#FF0000"/>
<stop offset="1" stop-color="#D40000"/>
</linearGradient>
<linearGradient id="paint3_linear_2689_20279" x1="82.7586" y1="189.699" x2="122.349" y2="190.886" gradientUnits="userSpaceOnUse">
<stop stop-color="#FF0000"/>
<stop offset="1" stop-color="#AA0000"/>
</linearGradient>
<radialGradient id="paint4_radial_2689_20279" cx="0" cy="0" r="1" gradientUnits="userSpaceOnUse" gradientTransform="translate(101.762 203.556) rotate(4.08561) scale(38.8977 13.7874)">
<stop stop-color="#FFD42A"/>
<stop offset="1" stop-color="#FFCC00"/>
</radialGradient>
<linearGradient id="paint5_linear_2689_20279" x1="99.7826" y1="231.269" x2="106.513" y2="231.269" gradientUnits="userSpaceOnUse">
<stop stop-color="#D5F6FF"/>
<stop offset="1" stop-color="#5599FF"/>
</linearGradient>
<linearGradient id="paint6_linear_2689_20279" x1="57.8165" y1="277.194" x2="145.708" y2="278.382" gradientUnits="userSpaceOnUse">
<stop stop-color="#AAEEFF"/>
<stop offset="1" stop-color="#5599FF"/>
</linearGradient>
</defs>
</svg>
