<svg width="208" height="319" viewBox="0 0 208 319" fill="none" xmlns="http://www.w3.org/2000/svg">
<path d="M192.5 0.5H15.5001C7.21579 0.5 0.500061 7.21573 0.500061 15.5V303.5C0.500061 311.784 7.21579 318.5 15.5001 318.5H192.5C200.784 318.5 207.5 311.784 207.5 303.5V15.5C207.5 7.21573 200.784 0.5 192.5 0.5Z" fill="url(#paint0_linear_2689_20939)" stroke="black" stroke-linecap="square"/>
<path d="M157.4 15H193V304H157.4M121.8 304H86.2001M50.6 304H15.0001V15H50.6M86.2001 15H121.8" stroke="black"/>
<path d="M181.092 288.241C181.092 289.046 181.274 289.76 181.639 290.383C181.988 291.006 182.421 291.485 182.938 291.819C183.439 292.169 184.009 292.45 184.647 292.662C185.27 292.89 185.817 293.035 186.288 293.095C186.744 293.171 187.147 293.209 187.496 293.209C187.678 293.209 187.77 293.27 187.77 293.392C187.77 293.437 187.758 293.475 187.747 293.506L185.263 298.907H180.499C180.256 298.907 180.066 298.945 179.93 299.021C179.778 299.097 179.618 299.257 179.451 299.5L179.246 299.34L180.112 297.312C180.173 297.175 180.347 297.107 180.636 297.107H185.103L186.061 295.17C183.842 294.774 182.194 294.129 181.115 293.232C180.036 292.351 179.497 291.052 179.497 289.335C179.497 288.438 179.641 287.641 179.93 286.942C180.203 286.243 180.56 285.68 181.001 285.255C181.426 284.83 181.928 284.48 182.505 284.207C183.067 283.933 183.614 283.751 184.146 283.66C184.663 283.553 185.187 283.5 185.719 283.5C186.57 283.5 187.246 283.622 187.747 283.865C188.249 284.123 188.5 284.472 188.5 284.913C188.5 285.475 188.173 285.756 187.519 285.756C187.094 285.756 186.547 285.521 185.878 285.05C185.195 284.579 184.655 284.343 184.26 284.343C183.364 284.343 182.612 284.716 182.004 285.46C181.396 286.22 181.092 287.147 181.092 288.241Z" fill="black"/>
<path d="M26.9079 30.7598C26.9079 29.9545 26.7256 29.2404 26.361 28.6174C26.0114 27.9944 25.5784 27.5157 25.0619 27.1814C24.5604 26.832 23.9906 26.5509 23.3524 26.3382C22.7294 26.1103 22.1824 25.9659 21.7114 25.9052C21.2556 25.8292 20.8528 25.7911 20.5034 25.7911C20.321 25.7911 20.2298 25.7303 20.2298 25.6088C20.2298 25.5632 20.2415 25.5252 20.2521 25.4948L22.7365 20.0931H27.5C27.7431 20.0931 27.9331 20.0551 28.0699 19.9791C28.2218 19.9032 28.3813 19.7436 28.5485 19.5005L28.7535 19.66L27.8875 21.6885C27.8263 21.8253 27.652 21.8936 27.3633 21.8936H22.8961L21.9389 23.831C24.1573 24.226 25.8059 24.8718 26.8847 25.7683C27.9635 26.6496 28.5028 27.9487 28.5028 29.6657C28.5028 30.5622 28.3586 31.3599 28.0699 32.0589C27.7964 32.7578 27.4392 33.32 26.9986 33.7455C26.5731 34.1709 26.0716 34.5204 25.4943 34.7939C24.9321 35.0674 24.385 35.2497 23.8533 35.3409C23.3366 35.4472 22.8124 35.5005 22.2806 35.5005C21.4297 35.5005 20.7535 35.3789 20.2521 35.1358C19.7507 34.8775 19.5 34.528 19.5 34.0874C19.5 33.5252 19.8267 33.2441 20.4801 33.2441C20.9055 33.2441 21.4526 33.4796 22.1211 33.9506C22.8049 34.4216 23.3443 34.6572 23.7393 34.6572C24.6358 34.6572 25.388 34.2849 25.9957 33.5403C26.6035 32.7806 26.9079 31.8539 26.9079 30.7598Z" fill="black"/>
<path d="M36.6818 64.3325L35.0662 67.8867L30.8658 70.1485L42.0131 147.049L42.3362 133.639L40.5591 86.1424L40.0744 64.3325H36.6818Z" fill="#D5E5FF"/>
<path d="M40.0744 64.0098L44.5979 64.4944L50.8986 69.8257L42.1746 149.634L42.4977 133.64L40.0744 64.0098Z" fill="#87AADE"/>
<path d="M52.0294 62.7173C47.829 66.433 46.5366 64.8175 46.5366 64.8175L37.8126 64.4944L36.1971 64.6559L35.0662 67.887L32.966 65.6252C32.966 65.6252 27.4731 67.7255 25.0498 64.3328L22.4649 61.2633C22.4649 61.2633 21.9802 55.6089 28.2809 55.7704L29.8964 58.3553C29.8964 58.3553 31.1889 51.4084 37.0048 48.662C37.0048 48.662 43.1439 45.4309 47.829 50.7622C47.829 50.7622 51.2216 52.5393 50.2523 56.7397C50.2523 56.7397 57.8454 55.2858 58.8147 57.8706C58.8147 57.8706 61.3996 61.9095 56.5529 64.979C53.4834 64.6559 52.9988 62.0711 52.9988 62.0711L52.0294 62.7173Z" fill="#FFD42A"/>
<path d="M36.0355 56.4166L47.1828 55.9319C47.1828 55.9319 44.1133 51.8931 41.2053 51.8931C41.2053 51.8931 34.9046 53.8317 36.0355 56.4166Z" fill="#FF0000"/>
<path d="M38.6203 58.8398H44.5979V62.2325L38.2972 62.5556L38.6203 58.8398Z" fill="#FF5555"/>
<path d="M36.8433 47.6926C36.8433 47.6926 36.0355 40.7457 38.2973 38.6455C38.2973 38.6455 41.0437 40.7457 45.7288 38.8071C45.7288 38.8071 47.829 41.8766 46.0519 48.3388C46.0519 48.3388 40.8822 46.7232 36.8433 47.6926Z" fill="#FF0000"/>
<path d="M37.6511 31.8602C37.6511 31.8602 34.5815 35.0913 38.4588 38.4839C38.4588 38.4839 41.8515 41.2304 46.375 38.4839C46.375 38.4839 47.829 34.122 46.5366 32.1833L45.5672 31.0524C45.5672 31.0524 47.9906 26.852 44.4364 25.398C44.4364 25.398 38.4588 23.6209 37.6511 28.7906V31.8602Z" fill="#FFD42A"/>
<path d="M45.8904 31.8602C42.6593 33.4757 38.2973 31.8602 38.2973 31.8602C38.2973 31.8602 36.8433 29.9215 38.4589 26.5289C38.4589 26.5289 43.467 24.1056 45.7288 26.3673C45.7288 26.3673 47.0212 30.8909 45.8904 31.8602Z" fill="#FFD42A" stroke="black" stroke-width="0.571904"/>
<path d="M51.7879 56.3086L46.7615 59.5072" stroke="black" stroke-width="1.08662"/>
<path d="M58.1685 63.848C53.3219 66.4329 52.8372 62.0709 52.8372 62.0709L51.7063 62.5556C49.1215 65.9483 45.5672 65.4636 45.5672 65.4636L50.737 70.1487L42.4977 149.957L41.6899 143.818L33.7738 89.3737L31.0273 69.8256L35.2277 67.4022L33.4506 65.4636C33.4506 65.4636 27.15 69.1793 22.788 61.7478C22.788 61.7478 21.0109 56.0934 27.3116 55.9319C27.3116 55.9319 29.7349 55.4472 30.058 59.0014C30.058 59.0014 30.7042 51.7314 36.6817 48.8234C36.6817 48.8234 36.1971 40.2611 38.1357 38.4839C38.1357 38.4839 34.5815 35.2529 37.9742 31.5371C37.9742 31.5371 35.7124 25.5596 41.5284 25.2365C41.5284 25.2365 48.1521 24.5902 45.7288 31.214C45.7288 31.214 48.3137 34.122 45.8904 38.9686C45.8904 38.9686 47.6675 39.2917 46.2135 49.3081C46.2135 49.3081 50.0908 51.0852 50.4139 57.2243C50.4139 57.2243 58.007 53.9932 59.4609 59.3245C59.4609 59.3245 60.2687 61.7478 58.1685 63.848Z" stroke="black" stroke-width="1.08662"/>
<path d="M36.6817 48.662C36.6817 48.662 41.5283 45.9156 46.2134 48.9851" stroke="black" stroke-width="1.02943" stroke-linecap="round"/>
<path d="M37.9742 38.4838C37.9742 38.4838 41.2053 41.2302 46.2135 38.3223" stroke="black" stroke-width="1.02943" stroke-linecap="round"/>
<path d="M37.6511 31.6987C37.6511 31.6987 42.4977 33.6373 45.8904 31.5371" stroke="black" stroke-width="1.02943" stroke-linecap="round"/>
<path d="M31.3504 54.1548C31.3504 54.1548 28.9271 62.071 33.4506 65.4636" stroke="black" stroke-width="1.02943" stroke-linecap="round"/>
<path d="M47.0212 65.1406L46.8596 55.6088C46.8596 55.6088 43.467 49.6313 38.6204 53.024C38.6204 53.024 31.6735 55.6088 37.3279 64.3328L34.743 67.887" stroke="black" stroke-width="1.02943" stroke-linecap="round"/>
<path d="M37.4895 64.4941L46.0519 64.3325V56.0933L36.3586 56.5779C36.3586 56.5779 35.5508 58.1935 36.197 59.0012" stroke="black" stroke-width="1.02943" stroke-linecap="round"/>
<path d="M38.2972 59.1631H44.5979L44.4363 62.5557L38.4588 62.7173L38.2972 59.1631Z" stroke="black" stroke-width="1.02943" stroke-linecap="round"/>
<path d="M39.7513 65.9482L42.1746 139.779" stroke="black" stroke-width="1.02943" stroke-linecap="round"/>
<path d="M161.312 64.3325L159.696 67.8867L155.496 70.1485L166.643 147.049L166.966 133.639L165.189 86.1424L164.704 64.3325H161.312Z" fill="#D5E5FF"/>
<path d="M164.704 64.0098L169.228 64.4944L175.529 69.8257L166.805 149.634L167.128 133.64L164.704 64.0098Z" fill="#87AADE"/>
<path d="M176.659 62.7173C172.459 66.433 171.167 64.8175 171.167 64.8175L162.443 64.4944L160.827 64.6559L159.696 67.887L157.596 65.6252C157.596 65.6252 152.103 67.7255 149.68 64.3328L147.095 61.2633C147.095 61.2633 146.61 55.6089 152.911 55.7704L154.526 58.3553C154.526 58.3553 155.819 51.4084 161.635 48.662C161.635 48.662 167.774 45.4309 172.459 50.7622C172.459 50.7622 175.852 52.5393 174.882 56.7397C174.882 56.7397 182.475 55.2858 183.445 57.8706C183.445 57.8706 186.03 61.9095 181.183 64.979C178.113 64.6559 177.629 62.0711 177.629 62.0711L176.659 62.7173Z" fill="#FFD42A"/>
<path d="M160.666 56.4166L171.813 55.9319C171.813 55.9319 168.743 51.8931 165.835 51.8931C165.835 51.8931 159.535 53.8317 160.666 56.4166Z" fill="#FF0000"/>
<path d="M163.25 58.8398H169.228V62.2325L162.927 62.5556L163.25 58.8398Z" fill="#FF5555"/>
<path d="M161.473 47.6926C161.473 47.6926 160.665 40.7457 162.927 38.6455C162.927 38.6455 165.674 40.7457 170.359 38.8071C170.359 38.8071 172.459 41.8766 170.682 48.3388C170.682 48.3388 165.512 46.7232 161.473 47.6926Z" fill="#FF0000"/>
<path d="M162.281 31.8602C162.281 31.8602 159.211 35.0913 163.089 38.4839C163.089 38.4839 166.481 41.2304 171.005 38.4839C171.005 38.4839 172.459 34.122 171.167 32.1833L170.197 31.0524C170.197 31.0524 172.62 26.852 169.066 25.398C169.066 25.398 163.089 23.6209 162.281 28.7906V31.8602Z" fill="#FFD42A"/>
<path d="M170.52 31.8602C167.289 33.4757 162.927 31.8602 162.927 31.8602C162.927 31.8602 161.473 29.9215 163.089 26.5289C163.089 26.5289 168.097 24.1056 170.359 26.3673C170.359 26.3673 171.651 30.8909 170.52 31.8602Z" fill="#FFD42A" stroke="black" stroke-width="0.571904"/>
<path d="M176.418 56.3086L171.391 59.5072" stroke="black" stroke-width="1.08662"/>
<path d="M182.799 63.848C177.952 66.4329 177.467 62.0709 177.467 62.0709L176.336 62.5556C173.751 65.9483 170.197 65.4636 170.197 65.4636L175.367 70.1487L167.128 149.957L166.32 143.818L158.404 89.3737L155.657 69.8256L159.858 67.4022L158.081 65.4636C158.081 65.4636 151.78 69.1793 147.418 61.7478C147.418 61.7478 145.641 56.0934 151.942 55.9319C151.942 55.9319 154.365 55.4472 154.688 59.0014C154.688 59.0014 155.334 51.7314 161.312 48.8234C161.312 48.8234 160.827 40.2611 162.766 38.4839C162.766 38.4839 159.212 35.2529 162.604 31.5371C162.604 31.5371 160.342 25.5596 166.158 25.2365C166.158 25.2365 172.782 24.5902 170.359 31.214C170.359 31.214 172.944 34.122 170.52 38.9686C170.52 38.9686 172.297 39.2917 170.843 49.3081C170.843 49.3081 174.721 51.0852 175.044 57.2243C175.044 57.2243 182.637 53.9932 184.091 59.3245C184.091 59.3245 184.899 61.7478 182.799 63.848Z" stroke="black" stroke-width="1.08662"/>
<path d="M161.312 48.662C161.312 48.662 166.158 45.9156 170.843 48.9851" stroke="black" stroke-width="1.02943" stroke-linecap="round"/>
<path d="M162.604 38.4838C162.604 38.4838 165.835 41.2302 170.843 38.3223" stroke="black" stroke-width="1.02943" stroke-linecap="round"/>
<path d="M162.281 31.6987C162.281 31.6987 167.128 33.6373 170.52 31.5371" stroke="black" stroke-width="1.02943" stroke-linecap="round"/>
<path d="M155.98 54.1548C155.98 54.1548 153.557 62.071 158.081 65.4636" stroke="black" stroke-width="1.02943" stroke-linecap="round"/>
<path d="M171.651 65.1406L171.49 55.6088C171.49 55.6088 168.097 49.6313 163.25 53.024C163.25 53.024 156.304 55.6088 161.958 64.3328L159.373 67.887" stroke="black" stroke-width="1.02943" stroke-linecap="round"/>
<path d="M162.12 64.4941L170.682 64.3325V56.0933L160.989 56.5779C160.989 56.5779 160.181 58.1935 160.827 59.0012" stroke="black" stroke-width="1.02943" stroke-linecap="round"/>
<path d="M162.927 59.1631H169.228L169.066 62.5557L163.089 62.7173L162.927 59.1631Z" stroke="black" stroke-width="1.02943" stroke-linecap="round"/>
<path d="M164.381 65.9482L166.805 139.779" stroke="black" stroke-width="1.02943" stroke-linecap="round"/>
<path d="M127.013 155.617L123.458 154.001L121.197 149.801L44.2967 160.948L57.7057 161.271L105.203 159.494L127.013 159.009V155.617Z" fill="#D5E5FF"/>
<path d="M127.336 159.009L126.851 163.533L121.52 169.833L41.7118 161.109L57.7058 161.433L127.336 159.009Z" fill="#87AADE"/>
<path d="M128.628 170.964C124.912 166.764 126.528 165.471 126.528 165.471L126.851 156.747L126.69 155.132L123.458 154.001L125.72 151.901C125.72 151.901 123.62 146.408 127.013 143.985L130.082 141.4C130.082 141.4 135.737 140.915 135.575 147.216L132.99 148.831C132.99 148.831 139.937 150.124 142.683 155.94C142.683 155.94 145.915 162.079 140.583 166.764C140.583 166.764 138.806 170.156 134.606 169.187C134.606 169.187 136.06 176.78 133.475 177.75C133.475 177.75 129.436 180.334 126.366 175.488C126.69 172.418 129.274 171.934 129.274 171.934L128.628 170.964Z" fill="#FFD42A"/>
<path d="M134.929 154.97L135.414 166.118C135.414 166.118 139.452 163.048 139.452 160.14C139.452 160.14 137.514 153.839 134.929 154.97Z" fill="#FF0000"/>
<path d="M132.505 157.555V163.533H129.113L128.79 157.232L132.505 157.555Z" fill="#FF5555"/>
<path d="M143.653 155.778C143.653 155.778 150.6 154.97 152.7 157.232C152.7 157.232 150.6 159.978 152.538 164.663C152.538 164.663 149.469 166.764 143.007 164.987C143.007 164.987 144.622 159.817 143.653 155.778Z" fill="#FF0000"/>
<path d="M159.485 156.586C159.485 156.586 156.254 153.516 152.861 157.393C152.861 157.393 150.115 160.786 152.861 165.31C152.861 165.31 157.223 166.764 159.162 165.471L160.293 164.502C160.293 164.502 164.493 166.925 165.947 163.371C165.947 163.371 167.724 157.393 162.555 156.586H159.485Z" fill="#FFD42A"/>
<path d="M159.485 164.825C157.87 161.594 159.485 157.232 159.485 157.232C159.485 157.232 161.424 155.778 164.816 157.394C164.816 157.394 167.24 162.402 164.978 164.664C164.978 164.664 160.454 165.956 159.485 164.825Z" fill="#FFD42A" stroke="black" stroke-width="0.571904"/>
<path d="M135.037 170.723L131.838 165.696" stroke="black" stroke-width="1.08662"/>
<path d="M127.497 177.103C124.912 172.257 129.274 171.772 129.274 171.772L128.79 170.641C125.397 168.056 125.882 164.502 125.882 164.502L121.197 169.672L41.3887 161.433L47.5277 160.625L101.972 152.709L121.52 149.962L123.943 154.163L125.882 152.385C125.882 152.385 122.166 146.085 129.598 141.723C129.598 141.723 135.252 139.946 135.413 146.246C135.413 146.246 135.898 148.67 132.344 148.993C132.344 148.993 139.614 149.639 142.522 155.617C142.522 155.617 151.084 155.132 152.861 157.071C152.861 157.071 156.092 153.516 159.808 156.909C159.808 156.909 165.786 154.647 166.109 160.463C166.109 160.463 166.755 167.087 160.131 164.664C160.131 164.664 157.223 167.248 152.377 164.825C152.377 164.825 152.054 166.602 142.037 165.148C142.037 165.148 140.26 169.026 134.121 169.349C134.121 169.349 137.352 176.942 132.021 178.396C132.021 178.396 129.598 179.204 127.497 177.103Z" stroke="black" stroke-width="1.08662"/>
<path d="M142.683 155.617C142.683 155.617 145.43 160.463 142.36 165.148" stroke="black" stroke-width="1.02943" stroke-linecap="round"/>
<path d="M152.861 156.909C152.861 156.909 150.115 160.14 153.023 165.148" stroke="black" stroke-width="1.02943" stroke-linecap="round"/>
<path d="M159.647 156.586C159.647 156.586 157.708 161.433 159.808 164.825" stroke="black" stroke-width="1.02943" stroke-linecap="round"/>
<path d="M137.191 150.285C137.191 150.285 129.274 147.862 125.882 152.385" stroke="black" stroke-width="1.02943" stroke-linecap="round"/>
<path d="M126.205 165.956L135.737 165.794C135.737 165.794 141.714 162.402 138.321 157.555C138.321 157.555 135.737 150.608 127.013 156.263L123.458 153.678" stroke="black" stroke-width="1.02943" stroke-linecap="round"/>
<path d="M126.851 156.424L127.013 164.987H135.252L134.767 155.293C134.767 155.293 133.152 154.486 132.344 155.132" stroke="black" stroke-width="1.02943" stroke-linecap="round"/>
<path d="M132.182 157.232V163.533L128.79 163.371L128.628 157.393L132.182 157.232Z" stroke="black" stroke-width="1.02943" stroke-linecap="round"/>
<path d="M125.397 158.686L51.5666 161.109" stroke="black" stroke-width="1.02943" stroke-linecap="round"/>
<path d="M36.6818 255.282L35.0662 251.728L30.8658 249.466L42.0131 172.566L42.3362 185.975L40.5591 233.472L40.0744 255.282H36.6818Z" fill="#D5E5FF"/>
<path d="M40.0744 255.604L44.5979 255.12L50.8986 249.789L42.1746 169.981L42.4977 185.974L40.0744 255.604Z" fill="#87AADE"/>
<path d="M52.0294 256.897C47.829 253.181 46.5366 254.797 46.5366 254.797L37.8126 255.12L36.1971 254.958L35.0662 251.727L32.966 253.989C32.966 253.989 27.4731 251.889 25.0498 255.281L22.4649 258.351C22.4649 258.351 21.9802 264.005 28.2809 263.844L29.8964 261.259C29.8964 261.259 31.1889 268.206 37.0048 270.952C37.0048 270.952 43.1439 274.183 47.829 268.852C47.829 268.852 51.2216 267.075 50.2523 262.875C50.2523 262.875 57.8454 264.329 58.8147 261.744C58.8147 261.744 61.3996 257.705 56.5529 254.635C53.4834 254.958 52.9988 257.543 52.9988 257.543L52.0294 256.897Z" fill="#FFD42A"/>
<path d="M36.0355 263.198L47.1828 263.682C47.1828 263.682 44.1133 267.721 41.2053 267.721C41.2053 267.721 34.9046 265.783 36.0355 263.198Z" fill="#FF0000"/>
<path d="M38.6203 260.774H44.5979V257.382L38.2972 257.059L38.6203 260.774Z" fill="#FF5555"/>
<path d="M36.8433 271.922C36.8433 271.922 36.0355 278.869 38.2973 280.969C38.2973 280.969 41.0437 278.869 45.7288 280.807C45.7288 280.807 47.829 277.738 46.0519 271.275C46.0519 271.275 40.8822 272.891 36.8433 271.922Z" fill="#FF0000"/>
<path d="M37.6511 287.754C37.6511 287.754 34.5815 284.523 38.4588 281.13C38.4588 281.13 41.8515 278.384 46.375 281.13C46.375 281.13 47.829 285.492 46.5366 287.431L45.5672 288.562C45.5672 288.562 47.9906 292.762 44.4364 294.216C44.4364 294.216 38.4588 295.993 37.6511 290.824V287.754Z" fill="#FFD42A"/>
<path d="M45.8904 287.754C42.6593 286.139 38.2973 287.754 38.2973 287.754C38.2973 287.754 36.8433 289.693 38.4589 293.085C38.4589 293.085 43.467 295.509 45.7288 293.247C45.7288 293.247 47.0212 288.723 45.8904 287.754Z" fill="#FFD42A" stroke="black" stroke-width="0.571904"/>
<path d="M51.7879 263.306L46.7615 260.107" stroke="black" stroke-width="1.08662"/>
<path d="M58.1685 255.766C53.3219 253.181 52.8372 257.543 52.8372 257.543L51.7063 257.059C49.1215 253.666 45.5672 254.151 45.5672 254.151L50.737 249.466L42.4977 169.658L41.6899 175.797L33.7738 230.241L31.0273 249.789L35.2277 252.212L33.4506 254.151C33.4506 254.151 27.15 250.435 22.788 257.866C22.788 257.866 21.0109 263.521 27.3116 263.682C27.3116 263.682 29.7349 264.167 30.058 260.613C30.058 260.613 30.7042 267.883 36.6817 270.791C36.6817 270.791 36.1971 279.353 38.1357 281.13C38.1357 281.13 34.5815 284.361 37.9742 288.077C37.9742 288.077 35.7124 294.055 41.5284 294.378C41.5284 294.378 48.1521 295.024 45.7288 288.4C45.7288 288.4 48.3137 285.492 45.8904 280.646C45.8904 280.646 47.6675 280.323 46.2135 270.306C46.2135 270.306 50.0908 268.529 50.4139 262.39C50.4139 262.39 58.007 265.621 59.4609 260.29C59.4609 260.29 60.2687 257.866 58.1685 255.766Z" stroke="black" stroke-width="1.08662"/>
<path d="M36.6817 270.952C36.6817 270.952 41.5283 273.699 46.2134 270.629" stroke="black" stroke-width="1.02943" stroke-linecap="round"/>
<path d="M37.9742 281.13C37.9742 281.13 41.2053 278.384 46.2135 281.292" stroke="black" stroke-width="1.02943" stroke-linecap="round"/>
<path d="M37.6511 287.916C37.6511 287.916 42.4977 285.977 45.8904 288.077" stroke="black" stroke-width="1.02943" stroke-linecap="round"/>
<path d="M31.3504 265.459C31.3504 265.459 28.9271 257.543 33.4506 254.151" stroke="black" stroke-width="1.02943" stroke-linecap="round"/>
<path d="M47.0212 254.474L46.8596 264.005C46.8596 264.005 43.467 269.983 38.6204 266.59C38.6204 266.59 31.6735 264.005 37.3279 255.281L34.743 251.727" stroke="black" stroke-width="1.02943" stroke-linecap="round"/>
<path d="M37.4895 255.12L46.0519 255.282V263.521L36.3586 263.036C36.3586 263.036 35.5508 261.421 36.197 260.613" stroke="black" stroke-width="1.02943" stroke-linecap="round"/>
<path d="M38.2972 260.451H44.5979L44.4363 257.059L38.4588 256.897L38.2972 260.451Z" stroke="black" stroke-width="1.02943" stroke-linecap="round"/>
<path d="M39.7513 253.666L42.1746 179.836" stroke="black" stroke-width="1.02943" stroke-linecap="round"/>
<path d="M161.312 255.282L159.696 251.728L155.496 249.466L166.643 172.566L166.966 185.975L165.189 233.472L164.704 255.282H161.312Z" fill="#D5E5FF"/>
<path d="M164.704 255.604L169.228 255.12L175.528 249.789L166.804 169.981L167.128 185.974L164.704 255.604Z" fill="#87AADE"/>
<path d="M176.659 256.897C172.459 253.181 171.166 254.797 171.166 254.797L162.442 255.12L160.827 254.958L159.696 251.727L157.596 253.989C157.596 253.989 152.103 251.889 149.68 255.281L147.095 258.351C147.095 258.351 146.61 264.005 152.911 263.844L154.526 261.259C154.526 261.259 155.819 268.206 161.635 270.952C161.635 270.952 167.774 274.183 172.459 268.852C172.459 268.852 175.852 267.075 174.882 262.875C174.882 262.875 182.475 264.329 183.445 261.744C183.445 261.744 186.029 257.705 181.183 254.635C178.113 254.958 177.629 257.543 177.629 257.543L176.659 256.897Z" fill="#FFD42A"/>
<path d="M160.665 263.198L171.813 263.682C171.813 263.682 168.743 267.721 165.835 267.721C165.835 267.721 159.535 265.783 160.665 263.198Z" fill="#FF0000"/>
<path d="M163.25 260.774H169.228V257.382L162.927 257.059L163.25 260.774Z" fill="#FF5555"/>
<path d="M161.473 271.922C161.473 271.922 160.665 278.869 162.927 280.969C162.927 280.969 165.674 278.869 170.359 280.807C170.359 280.807 172.459 277.738 170.682 271.275C170.682 271.275 165.512 272.891 161.473 271.922Z" fill="#FF0000"/>
<path d="M162.281 287.754C162.281 287.754 159.211 284.523 163.089 281.13C163.089 281.13 166.481 278.384 171.005 281.13C171.005 281.13 172.459 285.492 171.166 287.431L170.197 288.562C170.197 288.562 172.62 292.762 169.066 294.216C169.066 294.216 163.089 295.993 162.281 290.824V287.754Z" fill="#FFD42A"/>
<path d="M170.52 287.754C167.289 286.139 162.927 287.754 162.927 287.754C162.927 287.754 161.473 289.693 163.089 293.085C163.089 293.085 168.097 295.509 170.359 293.247C170.359 293.247 171.651 288.723 170.52 287.754Z" fill="#FFD42A" stroke="black" stroke-width="0.571904"/>
<path d="M176.418 263.306L171.391 260.107" stroke="black" stroke-width="1.08662"/>
<path d="M182.798 255.766C177.952 253.181 177.467 257.543 177.467 257.543L176.336 257.059C173.751 253.666 170.197 254.151 170.197 254.151L175.367 249.466L167.128 169.658L166.32 175.797L158.404 230.241L155.657 249.789L159.858 252.212L158.081 254.151C158.081 254.151 151.78 250.435 147.418 257.866C147.418 257.866 145.641 263.521 151.941 263.682C151.941 263.682 154.365 264.167 154.688 260.613C154.688 260.613 155.334 267.883 161.312 270.791C161.312 270.791 160.827 279.353 162.766 281.13C162.766 281.13 159.211 284.361 162.604 288.077C162.604 288.077 160.342 294.055 166.158 294.378C166.158 294.378 172.782 295.024 170.359 288.4C170.359 288.4 172.944 285.492 170.52 280.646C170.52 280.646 172.297 280.323 170.843 270.306C170.843 270.306 174.721 268.529 175.044 262.39C175.044 262.39 182.637 265.621 184.091 260.29C184.091 260.29 184.899 257.866 182.798 255.766Z" stroke="black" stroke-width="1.08662"/>
<path d="M161.312 270.952C161.312 270.952 166.158 273.699 170.843 270.629" stroke="black" stroke-width="1.02943" stroke-linecap="round"/>
<path d="M162.604 281.13C162.604 281.13 165.835 278.384 170.843 281.292" stroke="black" stroke-width="1.02943" stroke-linecap="round"/>
<path d="M162.281 287.916C162.281 287.916 167.128 285.977 170.52 288.077" stroke="black" stroke-width="1.02943" stroke-linecap="round"/>
<path d="M155.98 265.459C155.98 265.459 153.557 257.543 158.081 254.151" stroke="black" stroke-width="1.02943" stroke-linecap="round"/>
<path d="M171.651 254.474L171.49 264.005C171.49 264.005 168.097 269.983 163.25 266.59C163.25 266.59 156.303 264.005 161.958 255.281L159.373 251.727" stroke="black" stroke-width="1.02943" stroke-linecap="round"/>
<path d="M162.119 255.12L170.682 255.282V263.521L160.989 263.036C160.989 263.036 160.181 261.421 160.827 260.613" stroke="black" stroke-width="1.02943" stroke-linecap="round"/>
<path d="M162.927 260.451H169.228L169.066 257.059L163.089 256.897L162.927 260.451Z" stroke="black" stroke-width="1.02943" stroke-linecap="round"/>
<path d="M164.381 253.666L166.804 179.836" stroke="black" stroke-width="1.02943" stroke-linecap="round"/>
<defs>
<linearGradient id="paint0_linear_2689_20939" x1="135.067" y1="148.459" x2="-384.797" y2="148.459" gradientUnits="userSpaceOnUse">
<stop stop-color="white"/>
<stop offset="1" stop-color="#CCCCCC"/>
</linearGradient>
</defs>
</svg>
