<svg width="208" height="319" viewBox="0 0 208 319" fill="none" xmlns="http://www.w3.org/2000/svg">
<path d="M192.5 0.5H15.5C7.21573 0.5 0.5 7.21573 0.5 15.5V303.5C0.5 311.784 7.21573 318.5 15.5 318.5H192.5C200.784 318.5 207.5 311.784 207.5 303.5V15.5C207.5 7.21573 200.784 0.5 192.5 0.5Z" fill="url(#paint0_linear_2689_21376)" stroke="black" stroke-linecap="square"/>
<path d="M157.4 15H193V304H157.4M121.8 304H86.2M50.6 304H15V15H50.6M86.2 15H121.8" stroke="black"/>
<path d="M24.9261 26.573C26.3174 27.6088 27.2603 28.4822 27.755 29.1933C28.2651 29.889 28.5203 30.685 28.5203 31.5817C28.5203 32.772 28.1028 33.7228 27.268 34.4339C26.4487 35.145 25.3434 35.5005 23.9521 35.5005C22.6381 35.5005 21.5638 35.145 20.729 34.4339C19.9098 33.7228 19.5 32.803 19.5 31.6745C19.5 30.8861 19.6854 30.229 20.0565 29.7034C20.443 29.1624 21.2623 28.4203 22.5145 27.4773C21.2932 26.4106 20.5049 25.6146 20.1493 25.089C19.8093 24.5634 19.6392 23.9218 19.6392 23.1643C19.6392 22.1131 20.0565 21.2397 20.8914 20.544C21.7261 19.8484 22.7773 19.5005 24.0449 19.5005C25.2044 19.5005 26.1551 19.8097 26.8971 20.4281C27.6545 21.0464 28.0333 21.8348 28.0334 22.7933C28.0333 23.5817 27.8015 24.2541 27.3377 24.8107C26.874 25.3672 26.07 25.9547 24.9261 26.573ZM23.1174 27.9411C22.4372 28.4822 21.958 29.0232 21.6797 29.5643C21.4014 30.1053 21.2623 30.7469 21.2623 31.4889C21.2623 32.4937 21.5329 33.3054 22.074 33.9237C22.615 34.5421 23.3261 34.8512 24.2073 34.8512C24.9648 34.8512 25.5753 34.6193 26.039 34.1556C26.5183 33.6763 26.758 33.058 26.758 32.3005C26.758 32.0532 26.7268 31.8213 26.6656 31.6049C26.6188 31.3884 26.5649 31.2029 26.5033 31.0483C26.4565 30.8783 26.3486 30.6928 26.1787 30.4918C26.024 30.2908 25.8926 30.1363 25.7844 30.0281C25.6921 29.9044 25.5139 29.7344 25.2511 29.5179C24.9882 29.3015 24.7872 29.1469 24.6481 29.0542C24.5245 28.9615 24.2772 28.7836 23.9062 28.5208C23.5506 28.258 23.2874 28.0648 23.1174 27.9411ZM24.254 26.1556C24.2696 26.1401 24.3703 26.0706 24.5554 25.9469C24.7564 25.8078 24.8956 25.6996 24.9728 25.6223C25.0652 25.5451 25.197 25.429 25.3671 25.2744C25.5526 25.1044 25.6916 24.9498 25.7844 24.8107C25.8768 24.6561 25.9777 24.4783 26.0859 24.2773C26.2095 24.0609 26.2945 23.829 26.3409 23.5816C26.4033 23.3188 26.4333 23.0484 26.4333 22.7701C26.4333 21.9662 26.2015 21.3324 25.7377 20.8687C25.274 20.3894 24.6477 20.1498 23.8593 20.1498C23.1328 20.1498 22.5299 20.3662 22.0507 20.799C21.5869 21.2319 21.3552 21.7807 21.3552 22.4454C21.3552 23.0947 21.5793 23.7054 22.0276 24.2773C22.4759 24.8493 23.2183 25.4754 24.254 26.1556Z" fill="black"/>
<path d="M183.074 292.427C181.683 291.392 180.74 290.518 180.245 289.807C179.735 289.112 179.48 288.315 179.48 287.419C179.48 286.228 179.898 285.278 180.732 284.567C181.552 283.856 182.657 283.5 184.048 283.5C185.362 283.5 186.437 283.856 187.271 284.567C188.091 285.278 188.5 286.198 188.5 287.326C188.5 288.114 188.315 288.771 187.944 289.297C187.557 289.838 186.738 290.58 185.486 291.523C186.707 292.59 187.495 293.386 187.851 293.912C188.191 294.437 188.361 295.079 188.361 295.836C188.361 296.887 187.944 297.761 187.109 298.456C186.274 299.152 185.223 299.5 183.955 299.5C182.796 299.5 181.845 299.191 181.103 298.572C180.346 297.954 179.967 297.166 179.967 296.207C179.967 295.419 180.199 294.746 180.663 294.19C181.126 293.633 181.93 293.046 183.074 292.427ZM184.883 291.059C185.563 290.518 186.042 289.977 186.321 289.436C186.599 288.895 186.738 288.254 186.738 287.512C186.738 286.507 186.468 285.695 185.926 285.077C185.385 284.458 184.674 284.149 183.793 284.149C183.036 284.149 182.425 284.381 181.961 284.845C181.482 285.324 181.242 285.942 181.242 286.7C181.242 286.947 181.274 287.179 181.335 287.396C181.382 287.612 181.435 287.798 181.497 287.952C181.544 288.122 181.652 288.308 181.822 288.509C181.976 288.71 182.108 288.864 182.216 288.972C182.308 289.096 182.486 289.266 182.749 289.483C183.012 289.699 183.213 289.854 183.352 289.946C183.476 290.039 183.723 290.217 184.094 290.48C184.45 290.742 184.713 290.936 184.883 291.059ZM183.746 292.845C183.731 292.86 183.63 292.93 183.445 293.054C183.244 293.193 183.105 293.301 183.028 293.378C182.935 293.455 182.803 293.571 182.633 293.726C182.448 293.896 182.309 294.051 182.216 294.19C182.124 294.344 182.023 294.522 181.914 294.723C181.791 294.94 181.706 295.171 181.659 295.419C181.597 295.682 181.567 295.952 181.567 296.23C181.567 297.034 181.799 297.668 182.263 298.132C182.726 298.611 183.353 298.851 184.141 298.851C184.868 298.851 185.47 298.634 185.95 298.201C186.413 297.769 186.645 297.22 186.645 296.555C186.645 295.906 186.421 295.295 185.973 294.723C185.525 294.151 184.782 293.525 183.746 292.845Z" fill="black"/>
<path d="M35.9646 58.0269L34.3491 61.5811L30.1487 63.8428L41.296 140.743L41.6191 127.334L39.842 79.8367L39.3573 58.0269H35.9646Z" fill="#D5E5FF"/>
<path d="M39.3573 57.7041L43.8808 58.1888L50.1815 63.5201L41.4575 143.328L41.7806 127.334L39.3573 57.7041Z" fill="#87AADE"/>
<path d="M51.3124 56.4116C47.112 60.1274 45.8195 58.5118 45.8195 58.5118L37.0956 58.1887L35.48 58.3503L34.3491 61.5814L32.2489 59.3196C32.2489 59.3196 26.7561 61.4198 24.3327 58.0271L21.7479 54.9576C21.7479 54.9576 21.2632 49.3032 27.5638 49.4648L29.1794 52.0496C29.1794 52.0496 30.4718 45.1028 36.2878 42.3563C36.2878 42.3563 42.4269 39.1253 47.112 44.4566C47.112 44.4566 50.5046 46.2337 49.5353 50.4341C49.5353 50.4341 57.1283 48.9801 58.0977 51.565C58.0977 51.565 60.6825 55.6038 55.8359 58.6734C52.7664 58.3503 52.2817 55.7654 52.2817 55.7654L51.3124 56.4116Z" fill="#FFD42A"/>
<path d="M35.3185 50.1109L46.4658 49.6263C46.4658 49.6263 43.3962 45.5874 40.4882 45.5874C40.4882 45.5874 34.1876 47.526 35.3185 50.1109Z" fill="#FF0000"/>
<path d="M37.9033 52.5342H43.8808V55.9268L37.5802 56.2499L37.9033 52.5342Z" fill="#FF5555"/>
<path d="M36.1262 41.3869C36.1262 41.3869 35.3184 34.4401 37.5802 32.3398C37.5802 32.3398 40.3266 34.4401 45.0117 32.5014C45.0117 32.5014 47.1119 35.5709 45.3348 42.0331C45.3348 42.0331 40.1651 40.4176 36.1262 41.3869Z" fill="#FF0000"/>
<path d="M36.934 25.5545C36.934 25.5545 33.8644 28.7856 37.7417 32.1783C37.7417 32.1783 41.1344 34.9247 45.6579 32.1783C45.6579 32.1783 47.1119 27.8163 45.8195 25.8776L44.8501 24.7467C44.8501 24.7467 47.2735 20.5463 43.7193 19.0923C43.7193 19.0923 37.7417 17.3152 36.934 22.485V25.5545Z" fill="#FFD42A"/>
<path d="M45.1733 25.5545C41.9422 27.1701 37.5803 25.5545 37.5803 25.5545C37.5803 25.5545 36.1263 23.6159 37.7418 20.2232C37.7418 20.2232 42.75 17.7999 45.0118 20.0617C45.0118 20.0617 46.3042 24.5852 45.1733 25.5545Z" fill="#FFD42A" stroke="black" stroke-width="0.571904"/>
<path d="M51.0708 50.0029L46.0444 53.2015" stroke="black" stroke-width="1.08662"/>
<path d="M57.4515 57.5424C52.6048 60.1272 52.1202 55.7653 52.1202 55.7653L50.9893 56.2499C48.4044 59.6426 44.8502 59.1579 44.8502 59.1579L50.02 63.843L41.7807 143.651L40.9729 137.512L33.0567 83.068L30.3103 63.5199L34.5107 61.0966L32.7336 59.1579C32.7336 59.1579 26.433 62.8737 22.071 55.4422C22.071 55.4422 20.2939 49.7877 26.5945 49.6262C26.5945 49.6262 29.0178 49.1415 29.341 52.6957C29.341 52.6957 29.9872 45.4258 35.9647 42.5178C35.9647 42.5178 35.48 33.9554 37.4187 32.1783C37.4187 32.1783 33.8645 28.9472 37.2571 25.2314C37.2571 25.2314 34.9954 19.2539 40.8113 18.9308C40.8113 18.9308 47.4351 18.2846 45.0118 24.9083C45.0118 24.9083 47.5966 27.8163 45.1733 32.663C45.1733 32.663 46.9504 32.9861 45.4964 43.0024C45.4964 43.0024 49.3737 44.7795 49.6968 50.9186C49.6968 50.9186 57.2899 47.6875 58.7439 53.0188C58.7439 53.0188 59.5517 55.4422 57.4515 57.5424Z" stroke="black" stroke-width="1.08662"/>
<path d="M35.9647 42.3563C35.9647 42.3563 40.8114 39.6099 45.4964 42.6794" stroke="black" stroke-width="1.02943" stroke-linecap="round"/>
<path d="M37.2571 32.1782C37.2571 32.1782 40.4882 34.9246 45.4964 32.0166" stroke="black" stroke-width="1.02943" stroke-linecap="round"/>
<path d="M36.934 25.393C36.934 25.393 41.7806 27.3317 45.1732 25.2314" stroke="black" stroke-width="1.02943" stroke-linecap="round"/>
<path d="M30.6334 47.8491C30.6334 47.8491 28.2101 55.7653 32.7337 59.1579" stroke="black" stroke-width="1.02943" stroke-linecap="round"/>
<path d="M46.3042 58.8349L46.1426 49.3032C46.1426 49.3032 42.75 43.3257 37.9033 46.7183C37.9033 46.7183 30.9565 49.3032 36.6109 58.0271L34.026 61.5813" stroke="black" stroke-width="1.02943" stroke-linecap="round"/>
<path d="M36.7725 58.1884L45.3349 58.0269V49.7876L35.6416 50.2723C35.6416 50.2723 34.8338 51.8878 35.4801 52.6956" stroke="black" stroke-width="1.02943" stroke-linecap="round"/>
<path d="M37.5802 52.8574H43.8808L43.7193 56.2501L37.7418 56.4116L37.5802 52.8574Z" stroke="black" stroke-width="1.02943" stroke-linecap="round"/>
<path d="M39.0342 59.6426L41.4575 133.473" stroke="black" stroke-width="1.02943" stroke-linecap="round"/>
<path d="M78.5621 58.0269L76.9465 61.5811L72.7461 63.8428L83.8934 140.743L84.2165 127.334L82.4394 79.8367L81.9547 58.0269H78.5621Z" fill="#D5E5FF"/>
<path d="M81.9547 57.7041L86.4782 58.1888L92.7789 63.5201L84.0549 143.328L84.378 127.334L81.9547 57.7041Z" fill="#87AADE"/>
<path d="M93.9098 56.4116C89.7094 60.1274 88.4169 58.5118 88.4169 58.5118L79.693 58.1887L78.0774 58.3503L76.9465 61.5814L74.8463 59.3196C74.8463 59.3196 69.3535 61.4198 66.9302 58.0271L64.3453 54.9576C64.3453 54.9576 63.8606 49.3032 70.1613 49.4648L71.7768 52.0496C71.7768 52.0496 73.0692 45.1028 78.8852 42.3563C78.8852 42.3563 85.0243 39.1253 89.7094 44.4566C89.7094 44.4566 93.102 46.2337 92.1327 50.4341C92.1327 50.4341 99.7258 48.9801 100.695 51.565C100.695 51.565 103.28 55.6038 98.4333 58.6734C95.3638 58.3503 94.8791 55.7654 94.8791 55.7654L93.9098 56.4116Z" fill="#FFD42A"/>
<path d="M77.9159 50.1109L89.0632 49.6263C89.0632 49.6263 85.9936 45.5874 83.0856 45.5874C83.0856 45.5874 76.785 47.526 77.9159 50.1109Z" fill="#FF0000"/>
<path d="M80.5007 52.5342H86.4782V55.9268L80.1776 56.2499L80.5007 52.5342Z" fill="#FF5555"/>
<path d="M78.7236 41.3869C78.7236 41.3869 77.9158 34.4401 80.1776 32.3398C80.1776 32.3398 82.924 34.4401 87.6091 32.5014C87.6091 32.5014 89.7093 35.5709 87.9322 42.0331C87.9322 42.0331 82.7625 40.4176 78.7236 41.3869Z" fill="#FF0000"/>
<path d="M79.5314 25.5545C79.5314 25.5545 76.4618 28.7856 80.3391 32.1783C80.3391 32.1783 83.7318 34.9247 88.2553 32.1783C88.2553 32.1783 89.7093 27.8163 88.4169 25.8776L87.4475 24.7467C87.4475 24.7467 89.8709 20.5463 86.3167 19.0923C86.3167 19.0923 80.3391 17.3152 79.5314 22.485V25.5545Z" fill="#FFD42A"/>
<path d="M87.7707 25.5545C84.5396 27.1701 80.1777 25.5545 80.1777 25.5545C80.1777 25.5545 78.7237 23.6159 80.3392 20.2232C80.3392 20.2232 85.3474 17.7999 87.6092 20.0617C87.6092 20.0617 88.9016 24.5852 87.7707 25.5545Z" fill="#FFD42A" stroke="black" stroke-width="0.571904"/>
<path d="M93.6682 50.0029L88.6418 53.2015" stroke="black" stroke-width="1.08662"/>
<path d="M100.049 57.5424C95.2022 60.1272 94.7176 55.7653 94.7176 55.7653L93.5867 56.2499C91.0018 59.6426 87.4476 59.1579 87.4476 59.1579L92.6174 63.843L84.3781 143.651L83.5703 137.512L75.6541 83.068L72.9077 63.5199L77.1081 61.0966L75.331 59.1579C75.331 59.1579 69.0304 62.8737 64.6684 55.4422C64.6684 55.4422 62.8913 49.7877 69.1919 49.6262C69.1919 49.6262 71.6153 49.1415 71.9384 52.6957C71.9384 52.6957 72.5846 45.4258 78.5621 42.5178C78.5621 42.5178 78.0774 33.9554 80.0161 32.1783C80.0161 32.1783 76.4619 28.9472 79.8545 25.2314C79.8545 25.2314 77.5928 19.2539 83.4088 18.9308C83.4088 18.9308 90.0325 18.2846 87.6092 24.9083C87.6092 24.9083 90.1941 27.8163 87.7707 32.663C87.7707 32.663 89.5478 32.9861 88.0938 43.0024C88.0938 43.0024 91.9711 44.7795 92.2943 50.9186C92.2943 50.9186 99.8873 47.6875 101.341 53.0188C101.341 53.0188 102.149 55.4422 100.049 57.5424Z" stroke="black" stroke-width="1.08662"/>
<path d="M78.5621 42.3563C78.5621 42.3563 83.4088 39.6099 88.0939 42.6794" stroke="black" stroke-width="1.02943" stroke-linecap="round"/>
<path d="M79.8545 32.1782C79.8545 32.1782 83.0856 34.9246 88.0938 32.0166" stroke="black" stroke-width="1.02943" stroke-linecap="round"/>
<path d="M79.5314 25.393C79.5314 25.393 84.378 27.3317 87.7707 25.2314" stroke="black" stroke-width="1.02943" stroke-linecap="round"/>
<path d="M73.2309 47.8491C73.2309 47.8491 70.8075 55.7653 75.3311 59.1579" stroke="black" stroke-width="1.02943" stroke-linecap="round"/>
<path d="M88.9016 58.8349L88.74 49.3032C88.74 49.3032 85.3474 43.3257 80.5007 46.7183C80.5007 46.7183 73.5539 49.3032 79.2083 58.0271L76.6234 61.5813" stroke="black" stroke-width="1.02943" stroke-linecap="round"/>
<path d="M79.3699 58.1884L87.9323 58.0269V49.7876L78.239 50.2723C78.239 50.2723 77.4313 51.8878 78.0775 52.6956" stroke="black" stroke-width="1.02943" stroke-linecap="round"/>
<path d="M80.1776 52.8574H86.4782L86.3167 56.2501L80.3392 56.4116L80.1776 52.8574Z" stroke="black" stroke-width="1.02943" stroke-linecap="round"/>
<path d="M81.6316 59.6426L84.0549 133.473" stroke="black" stroke-width="1.02943" stroke-linecap="round"/>
<path d="M121.159 58.0269L119.544 61.5811L115.343 63.8428L126.491 140.743L126.814 127.334L125.037 79.8367L124.552 58.0269H121.159Z" fill="#D5E5FF"/>
<path d="M124.552 57.7041L129.076 58.1888L135.376 63.5201L126.652 143.328L126.975 127.334L124.552 57.7041Z" fill="#87AADE"/>
<path d="M136.507 56.4116C132.307 60.1274 131.014 58.5118 131.014 58.5118L122.29 58.1887L120.675 58.3503L119.544 61.5814L117.444 59.3196C117.444 59.3196 111.951 61.4198 109.527 58.0271L106.943 54.9576C106.943 54.9576 106.458 49.3032 112.759 49.4648L114.374 52.0496C114.374 52.0496 115.667 45.1028 121.482 42.3563C121.482 42.3563 127.622 39.1253 132.307 44.4566C132.307 44.4566 135.699 46.2337 134.73 50.4341C134.73 50.4341 142.323 48.9801 143.292 51.565C143.292 51.565 145.877 55.6038 141.031 58.6734C137.961 58.3503 137.476 55.7654 137.476 55.7654L136.507 56.4116Z" fill="#FFD42A"/>
<path d="M120.513 50.1109L131.66 49.6263C131.66 49.6263 128.591 45.5874 125.683 45.5874C125.683 45.5874 119.382 47.526 120.513 50.1109Z" fill="#FF0000"/>
<path d="M123.098 52.5342H129.076V55.9268L122.775 56.2499L123.098 52.5342Z" fill="#FF5555"/>
<path d="M121.321 41.3869C121.321 41.3869 120.513 34.4401 122.775 32.3398C122.775 32.3398 125.521 34.4401 130.206 32.5014C130.206 32.5014 132.307 35.5709 130.53 42.0331C130.53 42.0331 125.36 40.4176 121.321 41.3869Z" fill="#FF0000"/>
<path d="M122.129 25.5545C122.129 25.5545 119.059 28.7856 122.936 32.1783C122.936 32.1783 126.329 34.9247 130.853 32.1783C130.853 32.1783 132.307 27.8163 131.014 25.8776L130.045 24.7467C130.045 24.7467 132.468 20.5463 128.914 19.0923C128.914 19.0923 122.936 17.3152 122.129 22.485V25.5545Z" fill="#FFD42A"/>
<path d="M130.368 25.5545C127.137 27.1701 122.775 25.5545 122.775 25.5545C122.775 25.5545 121.321 23.6159 122.937 20.2232C122.937 20.2232 127.945 17.7999 130.206 20.0617C130.206 20.0617 131.499 24.5852 130.368 25.5545Z" fill="#FFD42A" stroke="black" stroke-width="0.571904"/>
<path d="M136.266 50.0029L131.239 53.2015" stroke="black" stroke-width="1.08662"/>
<path d="M142.646 57.5424C137.8 60.1272 137.315 55.7653 137.315 55.7653L136.184 56.2499C133.599 59.6426 130.045 59.1579 130.045 59.1579L135.215 63.843L126.975 143.651L126.168 137.512L118.251 83.068L115.505 63.5199L119.705 61.0966L117.928 59.1579C117.928 59.1579 111.628 62.8737 107.266 55.4422C107.266 55.4422 105.489 49.7877 111.789 49.6262C111.789 49.6262 114.213 49.1415 114.536 52.6957C114.536 52.6957 115.182 45.4258 121.159 42.5178C121.159 42.5178 120.675 33.9554 122.613 32.1783C122.613 32.1783 119.059 28.9472 122.452 25.2314C122.452 25.2314 120.19 19.2539 126.006 18.9308C126.006 18.9308 132.63 18.2846 130.206 24.9083C130.206 24.9083 132.791 27.8163 130.368 32.663C130.368 32.663 132.145 32.9861 130.691 43.0024C130.691 43.0024 134.568 44.7795 134.892 50.9186C134.892 50.9186 142.485 47.6875 143.939 53.0188C143.939 53.0188 144.746 55.4422 142.646 57.5424Z" stroke="black" stroke-width="1.08662"/>
<path d="M121.159 42.3563C121.159 42.3563 126.006 39.6099 130.691 42.6794" stroke="black" stroke-width="1.02943" stroke-linecap="round"/>
<path d="M122.452 32.1782C122.452 32.1782 125.683 34.9246 130.691 32.0166" stroke="black" stroke-width="1.02943" stroke-linecap="round"/>
<path d="M122.129 25.393C122.129 25.393 126.975 27.3317 130.368 25.2314" stroke="black" stroke-width="1.02943" stroke-linecap="round"/>
<path d="M115.828 47.8491C115.828 47.8491 113.405 55.7653 117.928 59.1579" stroke="black" stroke-width="1.02943" stroke-linecap="round"/>
<path d="M131.499 58.8349L131.337 49.3032C131.337 49.3032 127.945 43.3257 123.098 46.7183C123.098 46.7183 116.151 49.3032 121.806 58.0271L119.221 61.5813" stroke="black" stroke-width="1.02943" stroke-linecap="round"/>
<path d="M121.967 58.1884L130.53 58.0269V49.7876L120.836 50.2723C120.836 50.2723 120.029 51.8878 120.675 52.6956" stroke="black" stroke-width="1.02943" stroke-linecap="round"/>
<path d="M122.775 52.8574H129.076L128.914 56.2501L122.936 56.4116L122.775 52.8574Z" stroke="black" stroke-width="1.02943" stroke-linecap="round"/>
<path d="M124.229 59.6426L126.652 133.473" stroke="black" stroke-width="1.02943" stroke-linecap="round"/>
<path d="M163.757 58.0269L162.141 61.5811L157.941 63.8428L169.088 140.743L169.411 127.334L167.634 79.8367L167.149 58.0269H163.757Z" fill="#D5E5FF"/>
<path d="M167.149 57.7041L171.673 58.1888L177.974 63.5201L169.25 143.328L169.573 127.334L167.149 57.7041Z" fill="#87AADE"/>
<path d="M179.104 56.4116C174.904 60.1274 173.612 58.5118 173.612 58.5118L164.888 58.1887L163.272 58.3503L162.141 61.5814L160.041 59.3196C160.041 59.3196 154.548 61.4198 152.125 58.0271L149.54 54.9576C149.54 54.9576 149.055 49.3032 155.356 49.4648L156.972 52.0496C156.972 52.0496 158.264 45.1028 164.08 42.3563C164.08 42.3563 170.219 39.1253 174.904 44.4566C174.904 44.4566 178.297 46.2337 177.327 50.4341C177.327 50.4341 184.92 48.9801 185.89 51.565C185.89 51.565 188.475 55.6038 183.628 58.6734C180.558 58.3503 180.074 55.7654 180.074 55.7654L179.104 56.4116Z" fill="#FFD42A"/>
<path d="M163.111 50.1109L174.258 49.6263C174.258 49.6263 171.188 45.5874 168.28 45.5874C168.28 45.5874 161.98 47.526 163.111 50.1109Z" fill="#FF0000"/>
<path d="M165.695 52.5342H171.673V55.9268L165.372 56.2499L165.695 52.5342Z" fill="#FF5555"/>
<path d="M163.918 41.3869C163.918 41.3869 163.111 34.4401 165.372 32.3398C165.372 32.3398 168.119 34.4401 172.804 32.5014C172.804 32.5014 174.904 35.5709 173.127 42.0331C173.127 42.0331 167.957 40.4176 163.918 41.3869Z" fill="#FF0000"/>
<path d="M164.726 25.5545C164.726 25.5545 161.657 28.7856 165.534 32.1783C165.534 32.1783 168.926 34.9247 173.45 32.1783C173.45 32.1783 174.904 27.8163 173.612 25.8776L172.642 24.7467C172.642 24.7467 175.066 20.5463 171.511 19.0923C171.511 19.0923 165.534 17.3152 164.726 22.485V25.5545Z" fill="#FFD42A"/>
<path d="M172.965 25.5545C169.734 27.1701 165.372 25.5545 165.372 25.5545C165.372 25.5545 163.918 23.6159 165.534 20.2232C165.534 20.2232 170.542 17.7999 172.804 20.0617C172.804 20.0617 174.096 24.5852 172.965 25.5545Z" fill="#FFD42A" stroke="black" stroke-width="0.571904"/>
<path d="M178.863 50.0029L173.837 53.2015" stroke="black" stroke-width="1.08662"/>
<path d="M185.244 57.5424C180.397 60.1272 179.912 55.7653 179.912 55.7653L178.781 56.2499C176.197 59.6426 172.642 59.1579 172.642 59.1579L177.812 63.843L169.573 143.651L168.765 137.512L160.849 83.068L158.102 63.5199L162.303 61.0966L160.526 59.1579C160.526 59.1579 154.225 62.8737 149.863 55.4422C149.863 55.4422 148.086 49.7877 154.387 49.6262C154.387 49.6262 156.81 49.1415 157.133 52.6957C157.133 52.6957 157.779 45.4258 163.757 42.5178C163.757 42.5178 163.272 33.9554 165.211 32.1783C165.211 32.1783 161.657 28.9472 165.049 25.2314C165.049 25.2314 162.787 19.2539 168.603 18.9308C168.603 18.9308 175.227 18.2846 172.804 24.9083C172.804 24.9083 175.389 27.8163 172.965 32.663C172.965 32.663 174.743 32.9861 173.289 43.0024C173.289 43.0024 177.166 44.7795 177.489 50.9186C177.489 50.9186 185.082 47.6875 186.536 53.0188C186.536 53.0188 187.344 55.4422 185.244 57.5424Z" stroke="black" stroke-width="1.08662"/>
<path d="M163.757 42.3563C163.757 42.3563 168.603 39.6099 173.289 42.6794" stroke="black" stroke-width="1.02943" stroke-linecap="round"/>
<path d="M165.049 32.1782C165.049 32.1782 168.28 34.9246 173.288 32.0166" stroke="black" stroke-width="1.02943" stroke-linecap="round"/>
<path d="M164.726 25.393C164.726 25.393 169.573 27.3317 172.965 25.2314" stroke="black" stroke-width="1.02943" stroke-linecap="round"/>
<path d="M158.426 47.8491C158.426 47.8491 156.002 55.7653 160.526 59.1579" stroke="black" stroke-width="1.02943" stroke-linecap="round"/>
<path d="M174.096 58.8349L173.935 49.3032C173.935 49.3032 170.542 43.3257 165.695 46.7183C165.695 46.7183 158.749 49.3032 164.403 58.0271L161.818 61.5813" stroke="black" stroke-width="1.02943" stroke-linecap="round"/>
<path d="M164.565 58.1884L173.127 58.0269V49.7876L163.434 50.2723C163.434 50.2723 162.626 51.8878 163.272 52.6956" stroke="black" stroke-width="1.02943" stroke-linecap="round"/>
<path d="M165.372 52.8574H171.673L171.511 56.2501L165.534 56.4116L165.372 52.8574Z" stroke="black" stroke-width="1.02943" stroke-linecap="round"/>
<path d="M166.826 59.6426L169.25 133.473" stroke="black" stroke-width="1.02943" stroke-linecap="round"/>
<path d="M33.1208 256.971L31.5052 253.417L27.3048 251.155L38.4521 174.255L38.7752 187.664L36.9981 235.161L36.5134 256.971H33.1208Z" fill="#D5E5FF"/>
<path d="M36.5134 257.294L41.037 256.809L47.3376 251.478L38.6136 171.67L38.9367 187.664L36.5134 257.294Z" fill="#87AADE"/>
<path d="M48.4685 258.586C44.2681 254.871 42.9756 256.486 42.9756 256.486L34.2517 256.809L32.6362 256.648L31.5053 253.417L29.4051 255.678C29.4051 255.678 23.9122 253.578 21.4889 256.971L18.904 260.04C18.904 260.04 18.4193 265.695 24.72 265.533L26.3355 262.948C26.3355 262.948 27.628 269.895 33.4439 272.642C33.4439 272.642 39.583 275.873 44.2681 270.541C44.2681 270.541 47.6607 268.764 46.6914 264.564C46.6914 264.564 54.2845 266.018 55.2538 263.433C55.2538 263.433 57.8387 259.394 52.992 256.325C49.9225 256.648 49.4378 259.233 49.4378 259.233L48.4685 258.586Z" fill="#FFD42A"/>
<path d="M32.4746 264.887L43.6219 265.372C43.6219 265.372 40.5523 269.411 37.6444 269.411C37.6444 269.411 31.3437 267.472 32.4746 264.887Z" fill="#FF0000"/>
<path d="M35.0594 262.464H41.037V259.071L34.7363 258.748L35.0594 262.464Z" fill="#FF5555"/>
<path d="M33.2823 273.611C33.2823 273.611 32.4746 280.558 34.7363 282.658C34.7363 282.658 37.4827 280.558 42.1678 282.497C42.1678 282.497 44.268 279.427 42.4909 272.965C42.4909 272.965 37.3212 274.58 33.2823 273.611Z" fill="#FF0000"/>
<path d="M34.0901 289.444C34.0901 289.444 31.0205 286.212 34.8979 282.82C34.8979 282.82 38.2905 280.073 42.814 282.82C42.814 282.82 44.268 287.182 42.9756 289.12L42.0063 290.251C42.0063 290.251 44.4296 294.452 40.8754 295.906C40.8754 295.906 34.8979 297.683 34.0901 292.513V289.444Z" fill="#FFD42A"/>
<path d="M42.3295 289.444C39.0984 287.828 34.7364 289.444 34.7364 289.444C34.7364 289.444 33.2824 291.382 34.8979 294.775C34.8979 294.775 39.9061 297.198 42.1679 294.936C42.1679 294.936 43.4603 290.413 42.3295 289.444Z" fill="#FFD42A" stroke="black" stroke-width="0.571904"/>
<path d="M48.227 264.995L43.2006 261.797" stroke="black" stroke-width="1.08662"/>
<path d="M54.6076 257.456C49.761 254.871 49.2763 259.233 49.2763 259.233L48.1454 258.748C45.5605 255.355 42.0063 255.84 42.0063 255.84L47.1761 251.155L38.9368 171.347L38.129 177.486L30.2128 231.93L27.4664 251.478L31.6668 253.901L29.8897 255.84C29.8897 255.84 23.5891 252.124 19.2271 259.556C19.2271 259.556 17.45 265.21 23.7507 265.372C23.7507 265.372 26.174 265.857 26.4971 262.302C26.4971 262.302 27.1433 269.572 33.1208 272.48C33.1208 272.48 32.6362 281.043 34.5748 282.82C34.5748 282.82 31.0206 286.051 34.4133 289.767C34.4133 289.767 32.1515 295.744 37.9675 296.067C37.9675 296.067 44.5912 296.713 42.1679 290.09C42.1679 290.09 44.7528 287.182 42.3294 282.335C42.3294 282.335 44.1065 282.012 42.6526 271.996C42.6526 271.996 46.5299 270.219 46.853 264.079C46.853 264.079 54.446 267.311 55.9 261.979C55.9 261.979 56.7078 259.556 54.6076 257.456Z" stroke="black" stroke-width="1.08662"/>
<path d="M33.1208 272.642C33.1208 272.642 37.9675 275.388 42.6526 272.319" stroke="black" stroke-width="1.02943" stroke-linecap="round"/>
<path d="M34.4132 282.82C34.4132 282.82 37.6443 280.073 42.6525 282.981" stroke="black" stroke-width="1.02943" stroke-linecap="round"/>
<path d="M34.0901 289.605C34.0901 289.605 38.9367 287.666 42.3294 289.767" stroke="black" stroke-width="1.02943" stroke-linecap="round"/>
<path d="M27.7896 267.149C27.7896 267.149 25.3662 259.233 29.8898 255.84" stroke="black" stroke-width="1.02943" stroke-linecap="round"/>
<path d="M43.4603 256.163L43.2987 265.695C43.2987 265.695 39.9061 271.672 35.0594 268.28C35.0594 268.28 28.1126 265.695 33.767 256.971L31.1821 253.417" stroke="black" stroke-width="1.02943" stroke-linecap="round"/>
<path d="M33.9286 256.81L42.491 256.971V265.21L32.7977 264.726C32.7977 264.726 31.99 263.11 32.6362 262.302" stroke="black" stroke-width="1.02943" stroke-linecap="round"/>
<path d="M34.7363 262.141H41.037L40.8754 258.748L34.8979 258.586L34.7363 262.141Z" stroke="black" stroke-width="1.02943" stroke-linecap="round"/>
<path d="M36.1903 255.355L38.6136 181.525" stroke="black" stroke-width="1.02943" stroke-linecap="round"/>
<path d="M75.7181 256.971L74.1025 253.417L69.9021 251.155L81.0494 174.255L81.3725 187.664L79.5954 235.161L79.1107 256.971H75.7181Z" fill="#D5E5FF"/>
<path d="M79.1107 257.294L83.6342 256.809L89.9349 251.478L81.2109 171.67L81.534 187.664L79.1107 257.294Z" fill="#87AADE"/>
<path d="M91.0658 258.586C86.8654 254.871 85.5729 256.486 85.5729 256.486L76.849 256.809L75.2334 256.648L74.1026 253.417L72.0023 255.678C72.0023 255.678 66.5095 253.578 64.0862 256.971L61.5013 260.04C61.5013 260.04 61.0166 265.695 67.3173 265.533L68.9328 262.948C68.9328 262.948 70.2252 269.895 76.0412 272.642C76.0412 272.642 82.1803 275.873 86.8654 270.541C86.8654 270.541 90.258 268.764 89.2887 264.564C89.2887 264.564 96.8818 266.018 97.8511 263.433C97.8511 263.433 100.436 259.394 95.5893 256.325C92.5198 256.648 92.0351 259.233 92.0351 259.233L91.0658 258.586Z" fill="#FFD42A"/>
<path d="M75.0719 264.887L86.2192 265.372C86.2192 265.372 83.1496 269.411 80.2416 269.411C80.2416 269.411 73.941 267.472 75.0719 264.887Z" fill="#FF0000"/>
<path d="M77.6567 262.464H83.6343V259.071L77.3336 258.748L77.6567 262.464Z" fill="#FF5555"/>
<path d="M75.8796 273.611C75.8796 273.611 75.0718 280.558 77.3336 282.658C77.3336 282.658 80.08 280.558 84.7651 282.497C84.7651 282.497 86.8653 279.427 85.0882 272.965C85.0882 272.965 79.9185 274.58 75.8796 273.611Z" fill="#FF0000"/>
<path d="M76.6874 289.444C76.6874 289.444 73.6178 286.212 77.4951 282.82C77.4951 282.82 80.8878 280.073 85.4113 282.82C85.4113 282.82 86.8653 287.182 85.5729 289.12L84.6036 290.251C84.6036 290.251 87.0269 294.452 83.4727 295.906C83.4727 295.906 77.4951 297.683 76.6874 292.513V289.444Z" fill="#FFD42A"/>
<path d="M84.9267 289.444C81.6956 287.828 77.3337 289.444 77.3337 289.444C77.3337 289.444 75.8797 291.382 77.4952 294.775C77.4952 294.775 82.5034 297.198 84.7652 294.936C84.7652 294.936 86.0576 290.413 84.9267 289.444Z" fill="#FFD42A" stroke="black" stroke-width="0.571904"/>
<path d="M90.8243 264.995L85.7979 261.797" stroke="black" stroke-width="1.08662"/>
<path d="M97.2049 257.456C92.3583 254.871 91.8736 259.233 91.8736 259.233L90.7427 258.748C88.1578 255.355 84.6036 255.84 84.6036 255.84L89.7734 251.155L81.5341 171.347L80.7263 177.486L72.8101 231.93L70.0637 251.478L74.2641 253.901L72.487 255.84C72.487 255.84 66.1864 252.124 61.8244 259.556C61.8244 259.556 60.0473 265.21 66.3479 265.372C66.3479 265.372 68.7713 265.857 69.0944 262.302C69.0944 262.302 69.7406 269.572 75.7181 272.48C75.7181 272.48 75.2335 281.043 77.1721 282.82C77.1721 282.82 73.6179 286.051 77.0106 289.767C77.0106 289.767 74.7488 295.744 80.5648 296.067C80.5648 296.067 87.1885 296.713 84.7652 290.09C84.7652 290.09 87.3501 287.182 84.9267 282.335C84.9267 282.335 86.7038 282.012 85.2498 271.996C85.2498 271.996 89.1272 270.219 89.4503 264.079C89.4503 264.079 97.0433 267.311 98.4973 261.979C98.4973 261.979 99.3051 259.556 97.2049 257.456Z" stroke="black" stroke-width="1.08662"/>
<path d="M75.7181 272.642C75.7181 272.642 80.5648 275.388 85.2499 272.319" stroke="black" stroke-width="1.02943" stroke-linecap="round"/>
<path d="M77.0105 282.82C77.0105 282.82 80.2416 280.073 85.2498 282.981" stroke="black" stroke-width="1.02943" stroke-linecap="round"/>
<path d="M76.6874 289.605C76.6874 289.605 81.534 287.666 84.9267 289.767" stroke="black" stroke-width="1.02943" stroke-linecap="round"/>
<path d="M70.3869 267.149C70.3869 267.149 67.9635 259.233 72.4871 255.84" stroke="black" stroke-width="1.02943" stroke-linecap="round"/>
<path d="M86.0576 256.163L85.896 265.695C85.896 265.695 82.5034 271.672 77.6567 268.28C77.6567 268.28 70.7099 265.695 76.3643 256.971L73.7794 253.417" stroke="black" stroke-width="1.02943" stroke-linecap="round"/>
<path d="M76.5259 256.81L85.0883 256.971V265.21L75.395 264.726C75.395 264.726 74.5873 263.11 75.2335 262.302" stroke="black" stroke-width="1.02943" stroke-linecap="round"/>
<path d="M77.3336 262.141H83.6343L83.4727 258.748L77.4952 258.586L77.3336 262.141Z" stroke="black" stroke-width="1.02943" stroke-linecap="round"/>
<path d="M78.7876 255.355L81.2109 181.525" stroke="black" stroke-width="1.02943" stroke-linecap="round"/>
<path d="M118.315 256.971L116.7 253.417L112.5 251.155L123.647 174.255L123.97 187.664L122.193 235.161L121.708 256.971H118.315Z" fill="#D5E5FF"/>
<path d="M121.708 257.294L126.232 256.809L132.532 251.478L123.808 171.67L124.131 187.664L121.708 257.294Z" fill="#87AADE"/>
<path d="M133.663 258.586C129.463 254.871 128.17 256.486 128.17 256.486L119.446 256.809L117.831 256.648L116.7 253.417L114.6 255.678C114.6 255.678 109.107 253.578 106.684 256.971L104.099 260.04C104.099 260.04 103.614 265.695 109.915 265.533L111.53 262.948C111.53 262.948 112.823 269.895 118.639 272.642C118.639 272.642 124.778 275.873 129.463 270.541C129.463 270.541 132.855 268.764 131.886 264.564C131.886 264.564 139.479 266.018 140.449 263.433C140.449 263.433 143.033 259.394 138.187 256.325C135.117 256.648 134.633 259.233 134.633 259.233L133.663 258.586Z" fill="#FFD42A"/>
<path d="M117.669 264.887L128.817 265.372C128.817 265.372 125.747 269.411 122.839 269.411C122.839 269.411 116.538 267.472 117.669 264.887Z" fill="#FF0000"/>
<path d="M120.254 262.464H126.232V259.071L119.931 258.748L120.254 262.464Z" fill="#FF5555"/>
<path d="M118.477 273.611C118.477 273.611 117.669 280.558 119.931 282.658C119.931 282.658 122.677 280.558 127.363 282.497C127.363 282.497 129.463 279.427 127.686 272.965C127.686 272.965 122.516 274.58 118.477 273.611Z" fill="#FF0000"/>
<path d="M119.285 289.444C119.285 289.444 116.215 286.212 120.093 282.82C120.093 282.82 123.485 280.073 128.009 282.82C128.009 282.82 129.463 287.182 128.17 289.12L127.201 290.251C127.201 290.251 129.624 294.452 126.07 295.906C126.07 295.906 120.093 297.683 119.285 292.513V289.444Z" fill="#FFD42A"/>
<path d="M127.524 289.444C124.293 287.828 119.931 289.444 119.931 289.444C119.931 289.444 118.477 291.382 120.093 294.775C120.093 294.775 125.101 297.198 127.363 294.936C127.363 294.936 128.655 290.413 127.524 289.444Z" fill="#FFD42A" stroke="black" stroke-width="0.571904"/>
<path d="M133.422 264.995L128.395 261.797" stroke="black" stroke-width="1.08662"/>
<path d="M139.802 257.456C134.956 254.871 134.471 259.233 134.471 259.233L133.34 258.748C130.755 255.355 127.201 255.84 127.201 255.84L132.371 251.155L124.131 171.347L123.324 177.486L115.408 231.93L112.661 251.478L116.862 253.901L115.084 255.84C115.084 255.84 108.784 252.124 104.422 259.556C104.422 259.556 102.645 265.21 108.945 265.372C108.945 265.372 111.369 265.857 111.692 262.302C111.692 262.302 112.338 269.572 118.316 272.48C118.316 272.48 117.831 281.043 119.77 282.82C119.77 282.82 116.215 286.051 119.608 289.767C119.608 289.767 117.346 295.744 123.162 296.067C123.162 296.067 129.786 296.713 127.363 290.09C127.363 290.09 129.947 287.182 127.524 282.335C127.524 282.335 129.301 282.012 127.847 271.996C127.847 271.996 131.725 270.219 132.048 264.079C132.048 264.079 139.641 267.311 141.095 261.979C141.095 261.979 141.903 259.556 139.802 257.456Z" stroke="black" stroke-width="1.08662"/>
<path d="M118.316 272.642C118.316 272.642 123.162 275.388 127.847 272.319" stroke="black" stroke-width="1.02943" stroke-linecap="round"/>
<path d="M119.608 282.82C119.608 282.82 122.839 280.073 127.847 282.981" stroke="black" stroke-width="1.02943" stroke-linecap="round"/>
<path d="M119.285 289.605C119.285 289.605 124.131 287.666 127.524 289.767" stroke="black" stroke-width="1.02943" stroke-linecap="round"/>
<path d="M112.984 267.149C112.984 267.149 110.561 259.233 115.084 255.84" stroke="black" stroke-width="1.02943" stroke-linecap="round"/>
<path d="M128.655 256.163L128.493 265.695C128.493 265.695 125.101 271.672 120.254 268.28C120.254 268.28 113.307 265.695 118.962 256.971L116.377 253.417" stroke="black" stroke-width="1.02943" stroke-linecap="round"/>
<path d="M119.123 256.81L127.686 256.971V265.21L117.992 264.726C117.992 264.726 117.185 263.11 117.831 262.302" stroke="black" stroke-width="1.02943" stroke-linecap="round"/>
<path d="M119.931 262.141H126.232L126.07 258.748L120.093 258.586L119.931 262.141Z" stroke="black" stroke-width="1.02943" stroke-linecap="round"/>
<path d="M121.385 255.355L123.808 181.525" stroke="black" stroke-width="1.02943" stroke-linecap="round"/>
<path d="M160.913 256.971L159.297 253.417L155.097 251.155L166.244 174.255L166.567 187.664L164.79 235.161L164.306 256.971H160.913Z" fill="#D5E5FF"/>
<path d="M164.306 257.294L168.829 256.809L175.13 251.478L166.406 171.67L166.729 187.664L164.306 257.294Z" fill="#87AADE"/>
<path d="M176.261 258.586C172.06 254.871 170.768 256.486 170.768 256.486L162.044 256.809L160.428 256.648L159.297 253.417L157.197 255.678C157.197 255.678 151.704 253.578 149.281 256.971L146.696 260.04C146.696 260.04 146.211 265.695 152.512 265.533L154.128 262.948C154.128 262.948 155.42 269.895 161.236 272.642C161.236 272.642 167.375 275.873 172.06 270.541C172.06 270.541 175.453 268.764 174.484 264.564C174.484 264.564 182.077 266.018 183.046 263.433C183.046 263.433 185.631 259.394 180.784 256.325C177.715 256.648 177.23 259.233 177.23 259.233L176.261 258.586Z" fill="#FFD42A"/>
<path d="M160.267 264.887L171.414 265.372C171.414 265.372 168.344 269.411 165.436 269.411C165.436 269.411 159.136 267.472 160.267 264.887Z" fill="#FF0000"/>
<path d="M162.852 262.464H168.829V259.071L162.528 258.748L162.852 262.464Z" fill="#FF5555"/>
<path d="M161.074 273.611C161.074 273.611 160.267 280.558 162.528 282.658C162.528 282.658 165.275 280.558 169.96 282.497C169.96 282.497 172.06 279.427 170.283 272.965C170.283 272.965 165.113 274.58 161.074 273.611Z" fill="#FF0000"/>
<path d="M161.882 289.444C161.882 289.444 158.813 286.212 162.69 282.82C162.69 282.82 166.083 280.073 170.606 282.82C170.606 282.82 172.06 287.182 170.768 289.12L169.798 290.251C169.798 290.251 172.222 294.452 168.667 295.906C168.667 295.906 162.69 297.683 161.882 292.513V289.444Z" fill="#FFD42A"/>
<path d="M170.122 289.444C166.89 287.828 162.528 289.444 162.528 289.444C162.528 289.444 161.075 291.382 162.69 294.775C162.69 294.775 167.698 297.198 169.96 294.936C169.96 294.936 171.252 290.413 170.122 289.444Z" fill="#FFD42A" stroke="black" stroke-width="0.571904"/>
<path d="M176.019 264.995L170.993 261.797" stroke="black" stroke-width="1.08662"/>
<path d="M182.4 257.456C177.553 254.871 177.068 259.233 177.068 259.233L175.938 258.748C173.353 255.355 169.798 255.84 169.798 255.84L174.968 251.155L166.729 171.347L165.921 177.486L158.005 231.93L155.259 251.478L159.459 253.901L157.682 255.84C157.682 255.84 151.381 252.124 147.019 259.556C147.019 259.556 145.242 265.21 151.543 265.372C151.543 265.372 153.966 265.857 154.289 262.302C154.289 262.302 154.935 269.572 160.913 272.48C160.913 272.48 160.428 281.043 162.367 282.82C162.367 282.82 158.813 286.051 162.205 289.767C162.205 289.767 159.944 295.744 165.76 296.067C165.76 296.067 172.383 296.713 169.96 290.09C169.96 290.09 172.545 287.182 170.122 282.335C170.122 282.335 171.899 282.012 170.445 271.996C170.445 271.996 174.322 270.219 174.645 264.079C174.645 264.079 182.238 267.311 183.692 261.979C183.692 261.979 184.5 259.556 182.4 257.456Z" stroke="black" stroke-width="1.08662"/>
<path d="M160.913 272.642C160.913 272.642 165.76 275.388 170.445 272.319" stroke="black" stroke-width="1.02943" stroke-linecap="round"/>
<path d="M162.205 282.82C162.205 282.82 165.436 280.073 170.445 282.981" stroke="black" stroke-width="1.02943" stroke-linecap="round"/>
<path d="M161.882 289.605C161.882 289.605 166.729 287.666 170.121 289.767" stroke="black" stroke-width="1.02943" stroke-linecap="round"/>
<path d="M155.582 267.149C155.582 267.149 153.158 259.233 157.682 255.84" stroke="black" stroke-width="1.02943" stroke-linecap="round"/>
<path d="M171.252 256.163L171.091 265.695C171.091 265.695 167.698 271.672 162.852 268.28C162.852 268.28 155.905 265.695 161.559 256.971L158.974 253.417" stroke="black" stroke-width="1.02943" stroke-linecap="round"/>
<path d="M161.721 256.81L170.283 256.971V265.21L160.59 264.726C160.59 264.726 159.782 263.11 160.428 262.302" stroke="black" stroke-width="1.02943" stroke-linecap="round"/>
<path d="M162.528 262.141H168.829L168.668 258.748L162.69 258.586L162.528 262.141Z" stroke="black" stroke-width="1.02943" stroke-linecap="round"/>
<path d="M163.982 255.355L166.406 181.525" stroke="black" stroke-width="1.02943" stroke-linecap="round"/>
<defs>
<linearGradient id="paint0_linear_2689_21376" x1="135.067" y1="148.459" x2="-384.797" y2="148.459" gradientUnits="userSpaceOnUse">
<stop stop-color="white"/>
<stop offset="1" stop-color="#CCCCCC"/>
</linearGradient>
</defs>
</svg>
