<svg width="208" height="319" viewBox="0 0 208 319" fill="none" xmlns="http://www.w3.org/2000/svg">
<path d="M141.409 157.519C141.875 156.868 142.202 156.09 142.137 155.788C142.071 155.487 141.021 155.211 140.272 155.211H138.423C137.673 155.211 136.514 155.519 135.846 155.894C135.846 155.894 133.41 157.263 133.41 159.792C133.41 162.1 135.392 163.508 135.392 163.508C136.023 163.955 136.92 163.79 137.385 163.14L141.409 157.519Z" fill="#CC0000" stroke="black" stroke-width="0.495384"/>
<path d="M141.409 157.519C141.875 156.868 142.202 156.09 142.137 155.788C142.071 155.487 141.021 155.211 140.272 155.211H138.423C137.673 155.211 136.514 155.519 135.846 155.894C135.846 155.894 133.41 157.263 133.41 159.792C133.41 162.1 135.392 163.508 135.392 163.508C136.023 163.955 136.92 163.79 137.385 163.14L141.409 157.519Z" fill="#CC0000" stroke="black" stroke-width="0.495384"/>
<path d="M148.773 163.626L152.979 157.755C153.144 157.547 153.054 156.742 152.935 156.518C152.594 155.964 152.312 155.749 151.835 155.483C150.644 155.217 150.219 156.09 150.124 156.154L145.142 163.104C144.994 163.739 145.213 164.205 145.974 164.225H147.263C147.614 164.225 148.111 164.361 148.773 163.626Z" fill="#EDD400" stroke="black" stroke-width="0.495384"/>
<path d="M153.917 159.644C153.917 159.162 153.855 158.699 153.744 158.264C153.593 157.79 153.143 157.552 152.789 158.023L149.621 162.445C148.961 163.362 149.07 164.22 150.204 164.226H150.266C152.282 164.225 153.917 162.174 153.917 159.644Z" fill="#CC0000" stroke="black" stroke-width="0.495384"/>
<path d="M149.031 157.654C149.496 157.003 149.921 156.215 149.975 155.902C150.029 155.589 149.06 155.062 148.311 155.062H148.13C147.381 155.062 146.39 155.596 145.927 156.249L141.113 163.038C140.65 163.691 140.884 164.225 141.634 164.225H142.977C143.726 164.225 144.719 163.693 145.184 163.042L149.031 157.654Z" fill="#CC0000" stroke="black" stroke-width="0.495384"/>
<path d="M149.031 157.654C149.496 157.003 149.921 156.215 149.975 155.902C150.029 155.589 149.06 155.062 148.311 155.062H148.13C147.381 155.062 146.39 155.596 145.927 156.249L141.113 163.038C140.65 163.691 140.884 164.225 141.634 164.225H142.977C143.726 164.225 144.719 163.693 145.184 163.042L149.031 157.654Z" fill="#CC0000" stroke="black" stroke-width="0.495384"/>
<path d="M153.75 159.461C153.75 158.239 154.747 157.245 155.972 157.245C157.198 157.245 158.194 158.239 158.194 159.461C158.194 160.684 157.198 161.678 155.972 161.678C154.747 161.678 153.75 160.684 153.75 159.461Z" fill="#EDD400" stroke="black" stroke-width="0.17609"/>
<path d="M157.889 159.461C157.889 160.515 157.029 161.373 155.972 161.373C154.916 161.373 154.056 160.515 154.056 159.461C154.056 158.407 154.916 157.549 155.972 157.549C157.029 157.549 157.889 158.407 157.889 159.461Z" fill="#EDD400" stroke="black" stroke-width="0.17609"/>
<path d="M158.5 159.461C158.5 158.07 157.366 156.938 155.972 156.938C154.578 156.938 153.445 158.07 153.445 159.461C153.445 160.852 154.578 161.984 155.972 161.984C157.366 161.984 158.5 160.852 158.5 159.461Z" fill="#EDD400" stroke="black" stroke-width="0.495384"/>
<path d="M145.137 157.363C145.6 156.71 146 155.926 146.026 155.619C146.052 155.313 144.947 155.062 144.202 155.062C143.456 155.062 142.465 155.594 142 156.245L137.171 162.991C136.705 163.641 136.401 164.185 136.496 164.199C136.591 164.213 137.458 164.225 138.208 164.225H138.909C139.658 164.225 140.65 163.691 141.112 163.038L145.137 157.363Z" fill="#EDD400" stroke="black" stroke-width="0.495384"/>
<path d="M145.137 157.363C145.6 156.71 146 155.926 146.026 155.619C146.052 155.313 144.947 155.062 144.202 155.062C143.456 155.062 142.465 155.594 142 156.245L137.171 162.991C136.705 163.641 136.401 164.185 136.496 164.199C136.591 164.213 137.458 164.225 138.208 164.225H138.909C139.658 164.225 140.65 163.691 141.112 163.038L145.137 157.363Z" fill="#EDD400" stroke="black" stroke-width="0.495384"/>
<path d="M49.5 159.678C50.3838 159.012 55.6922 154.943 59.418 154.942C63.6262 154.942 132.274 154.977 132.967 154.978C133.17 154.978 133.335 155.16 133.335 155.385V159.763" fill="#729FCF"/>
<path d="M49.5 159.678C50.3838 159.012 55.6922 154.943 59.418 154.942C63.6262 154.942 132.274 154.977 132.967 154.978C133.17 154.978 133.335 155.16 133.335 155.385V159.763" stroke="black" stroke-width="0.495384" stroke-linecap="round"/>
<path d="M49.5055 159.67C50.3893 160.336 55.6976 164.405 59.4235 164.405C63.6317 164.405 132.279 164.37 132.972 164.37C133.176 164.37 133.34 164.187 133.34 163.963V159.584" fill="#00CCFF"/>
<path d="M49.5055 159.67C50.3893 160.336 55.6976 164.405 59.4235 164.405C63.6317 164.405 132.279 164.37 132.972 164.37C133.176 164.37 133.34 164.187 133.34 163.963V159.584" stroke="black" stroke-width="0.495384" stroke-linecap="round"/>
<path d="M126.516 169.882C126.516 168.714 127.433 167.764 128.559 167.764H131.795L131.793 167.675C131.781 167.192 131.772 166.772 131.768 166.671C131.69 164.08 128.486 160.065 128.329 159.87C128.241 159.771 128.193 159.643 128.193 159.506C128.193 159.375 128.239 159.244 128.322 159.139C128.358 159.096 131.688 154.973 131.768 152.331C131.772 152.222 131.783 151.755 131.795 151.236H128.559C127.433 151.236 126.516 150.287 126.516 149.119C126.516 147.952 127.433 147.001 128.559 147.001H131.698V144.895C131.698 143.858 132.542 143.014 133.58 143.014C134.617 143.014 135.461 143.858 135.461 144.895V147.001H138.797C139.967 147.001 140.917 147.951 140.917 149.119C140.917 150.287 139.966 151.236 138.797 151.236H135.401C135.401 151.357 135.401 151.493 135.401 151.646C135.401 154.264 139.894 159.058 139.939 159.106L139.961 159.13C140.051 159.228 140.101 159.356 140.101 159.491C140.101 159.637 140.042 159.783 139.939 159.893C138.369 161.561 135.401 165.267 135.401 167.355C135.401 167.508 135.401 167.643 135.401 167.764H138.797C139.967 167.764 140.917 168.714 140.917 169.882C140.917 171.05 139.966 172 138.797 172H135.461V174.106C135.461 175.143 134.617 175.986 133.58 175.986C132.542 175.986 131.698 175.143 131.698 174.106V172H128.559C127.432 172 126.516 171.049 126.516 169.882Z" fill="#FCEF3C"/>
<path d="M140.611 169.882C140.611 170.881 139.797 171.695 138.797 171.695H135.155V174.106C135.155 174.974 134.448 175.68 133.579 175.68C132.71 175.68 132.003 174.974 132.003 174.106V171.695H128.559C127.6 171.694 126.82 170.881 126.82 169.882C126.82 168.882 127.6 168.069 128.559 168.069H132.107C132.092 167.436 132.077 166.791 132.073 166.662C131.991 163.922 128.701 159.843 128.56 159.67C128.518 159.625 128.497 159.566 128.497 159.506C128.497 159.444 128.519 159.381 128.56 159.33C128.7 159.157 131.99 155.079 132.073 152.34C132.077 152.209 132.092 151.565 132.107 150.931H128.559C127.6 150.931 126.82 150.119 126.82 149.119C126.82 148.12 127.6 147.307 128.559 147.307H132.003V144.895C132.003 144.027 132.71 143.32 133.579 143.32C134.448 143.32 135.155 144.027 135.155 144.895V147.307H138.797C139.797 147.307 140.611 148.12 140.611 149.119C140.611 150.119 139.797 150.931 138.797 150.931H135.097C135.096 151.114 135.095 151.348 135.095 151.647C135.095 154.371 139.528 159.116 139.716 159.316L139.736 159.337C139.777 159.381 139.795 159.436 139.795 159.492C139.795 159.56 139.767 159.631 139.716 159.685C139.527 159.885 135.095 164.63 135.095 167.354C135.095 167.653 135.096 167.887 135.097 168.07H138.796C139.798 168.07 140.611 168.883 140.611 169.882Z" fill="#313131"/>
<path d="M141.222 169.882C141.222 168.546 140.134 167.458 138.797 167.458H135.707C135.707 167.425 135.707 167.39 135.707 167.354C135.707 165.367 138.621 161.742 140.162 160.103C140.32 159.934 140.406 159.717 140.406 159.491C140.406 159.277 140.327 159.074 140.182 158.92L140.165 158.901C138.621 157.258 135.707 153.633 135.707 151.646C135.707 151.61 135.707 151.576 135.707 151.542H138.797C140.134 151.542 141.222 150.455 141.222 149.119C141.222 147.783 140.134 146.695 138.797 146.695H135.767V144.895C135.767 143.689 134.786 142.708 133.579 142.708C132.374 142.708 131.393 143.689 131.393 144.895V146.695H128.56C127.264 146.695 126.21 147.782 126.21 149.119C126.21 150.455 127.264 151.542 128.56 151.542H131.482C131.473 151.924 131.466 152.234 131.463 152.32C131.387 154.866 128.12 158.903 128.088 158.943C127.958 159.105 127.887 159.304 127.887 159.506C127.887 159.715 127.961 159.913 128.096 160.067C129.24 161.475 131.402 164.653 131.463 166.679C131.466 166.766 131.474 167.076 131.483 167.458H128.56C127.264 167.458 126.21 168.545 126.21 169.881C126.21 171.217 127.264 172.305 128.56 172.305H131.393V174.106C131.393 175.311 132.374 176.291 133.58 176.291C134.786 176.291 135.767 175.311 135.767 174.106V172.305H138.797C140.134 172.306 141.222 171.218 141.222 169.882Z" fill="#EDD400" stroke="black" stroke-width="0.495384"/>
<path d="M130.952 159.529C130.952 157.973 132.222 156.707 133.781 156.707C135.341 156.707 136.609 157.973 136.609 159.529C136.609 161.084 135.341 162.35 133.781 162.35C132.222 162.35 130.952 161.085 130.952 159.529Z" fill="#CC0000" stroke="black" stroke-width="0.495384"/>
<path d="M136.305 159.529C136.305 160.916 135.173 162.045 133.782 162.045C132.39 162.045 131.258 160.916 131.258 159.529C131.258 158.141 132.39 157.012 133.782 157.012C135.173 157.012 136.305 158.141 136.305 159.529Z" fill="#CC0000" stroke="black" stroke-width="0.495384"/>
<path d="M136.915 159.529C136.915 157.804 135.51 156.401 133.781 156.401C132.053 156.401 130.647 157.804 130.647 159.529C130.647 161.254 132.053 162.656 133.781 162.656C135.51 162.656 136.915 161.254 136.915 159.529Z" fill="#CC0000" stroke="black" stroke-width="0.495384"/>
<path d="M192.5 0.5H15.5C7.21573 0.5 0.5 7.21573 0.5 15.5V303.5C0.5 311.784 7.21573 318.5 15.5 318.5H192.5C200.784 318.5 207.5 311.784 207.5 303.5V15.5C207.5 7.21573 200.784 0.5 192.5 0.5Z" fill="url(#paint0_linear_2689_21598)" stroke="black" stroke-linecap="square"/>
<path d="M157.4 15H193V304H157.4M121.8 304H86.2M50.6 304H15V15H50.6M86.2 15H121.8" stroke="black"/>
<path d="M20.6221 34.6563L20.5534 34.1979C22.2954 33.8922 23.7702 33.151 24.9775 31.9743C26.2 30.7976 27.0481 29.2771 27.5218 27.4127C26.3909 28.2838 25.2449 28.7193 24.0834 28.7193C22.8457 28.7193 21.8447 28.2914 21.0806 27.4356C20.3318 26.5799 19.9573 25.4567 19.9573 24.066C19.9573 22.5226 20.4082 21.2389 21.3098 20.215C22.2267 19.1759 23.3652 18.6563 24.7252 18.6562C26.2077 18.6563 27.4225 19.2599 28.37 20.4671C29.3175 21.6744 29.7912 23.2255 29.7912 25.1205C29.7912 25.7318 29.7379 26.3583 29.6307 27.0001C29.524 27.6419 29.2717 28.4061 28.8744 29.2924C28.4923 30.1635 27.9879 30.9505 27.3615 31.6535C26.7349 32.3411 25.8409 32.9677 24.6795 33.5331C23.518 34.0985 22.1656 34.4729 20.6221 34.6563ZM24.9086 27.7336C25.1989 27.7336 25.5275 27.6955 25.8943 27.619C26.2611 27.5274 26.6278 27.3439 26.9946 27.0689C27.3766 26.7785 27.5677 26.427 27.5677 26.0144V25.1204C27.5677 21.2388 26.5591 19.2981 24.5419 19.2981C24.0682 19.2981 23.6633 19.428 23.3271 19.6877C22.9909 19.9323 22.731 20.2608 22.5476 20.6734C22.3795 21.0861 22.2572 21.5063 22.1808 21.9342C22.1049 22.3621 22.0659 22.8129 22.0659 23.2867C22.0659 24.6467 22.3179 25.7317 22.8222 26.5416C23.3418 27.3363 24.0376 27.7336 24.9086 27.7336Z" fill="black"/>
<path d="M188.293 282.656L188.361 283.114C186.619 283.42 185.144 284.161 183.937 285.338C182.715 286.514 181.867 288.035 181.393 289.899C182.524 289.028 183.67 288.593 184.831 288.593C186.069 288.593 187.07 289.021 187.834 289.876C188.583 290.732 188.957 291.855 188.957 293.246C188.957 294.789 188.506 296.073 187.605 297.097C186.688 298.136 185.549 298.656 184.189 298.656C182.707 298.656 181.492 298.052 180.545 296.845C179.597 295.638 179.123 294.086 179.123 292.192C179.123 291.58 179.177 290.954 179.284 290.312C179.391 289.67 179.643 288.906 180.04 288.02C180.422 287.149 180.927 286.362 181.553 285.659C182.18 284.971 183.074 284.344 184.235 283.779C185.397 283.214 186.749 282.839 188.293 282.656ZM184.006 289.578C183.716 289.578 183.387 289.617 183.02 289.693C182.654 289.785 182.287 289.968 181.92 290.243C181.538 290.533 181.347 290.885 181.347 291.298V292.192C181.347 296.073 182.356 298.014 184.373 298.014C184.846 298.014 185.251 297.884 185.588 297.624C185.924 297.38 186.184 297.051 186.367 296.639C186.535 296.226 186.657 295.806 186.734 295.378C186.81 294.95 186.849 294.499 186.849 294.025C186.849 292.665 186.597 291.58 186.093 290.77C185.573 289.976 184.877 289.578 184.006 289.578Z" fill="black"/>
<path d="M36.2858 58.2705L34.837 61.458L31.0699 63.4864L41.067 132.452L41.3568 120.426L39.763 77.83L39.3284 58.2705H36.2858Z" fill="#D5E5FF"/>
<path d="M39.3284 57.981L43.3851 58.4156L49.0357 63.1968L41.2119 134.77L41.5016 120.426L39.3284 57.981Z" fill="#87AADE"/>
<path d="M50.0499 56.8217C46.2829 60.154 45.1238 58.7052 45.1238 58.7052L37.3 58.4154L35.8511 58.5603L34.8369 61.458L32.9534 59.4296C32.9534 59.4296 28.0274 61.3131 25.8541 58.2705L23.5359 55.5177C23.5359 55.5177 23.1013 50.4468 28.7518 50.5916L30.2006 52.9098C30.2006 52.9098 31.3597 46.6797 36.5756 44.2167C36.5756 44.2167 42.0812 41.319 46.2829 46.1002C46.2829 46.1002 49.3254 47.6939 48.4561 51.4609C48.4561 51.4609 55.2657 50.157 56.135 52.4751C56.135 52.4751 58.4532 56.0973 54.1066 58.8501C51.3538 58.5603 50.9192 56.2421 50.9192 56.2421L50.0499 56.8217Z" fill="#FFD42A"/>
<path d="M35.7063 51.1715L45.7034 50.7369C45.7034 50.7369 42.9506 47.1147 40.3426 47.1147C40.3426 47.1147 34.6921 48.8534 35.7063 51.1715Z" fill="#FF0000"/>
<path d="M38.0245 53.3447H43.3853V56.3873L37.7347 56.6771L38.0245 53.3447Z" fill="#FF5555"/>
<path d="M36.4307 43.3474C36.4307 43.3474 35.7063 37.1174 37.7347 35.2339C37.7347 35.2339 40.1977 37.1174 44.3994 35.3788C44.3994 35.3788 46.2829 38.1316 44.6891 43.927C44.6891 43.927 40.0528 42.4781 36.4307 43.3474Z" fill="#FF0000"/>
<path d="M37.1551 29.1488C37.1551 29.1488 34.4023 32.0465 37.8795 35.0891C37.8795 35.0891 40.9221 37.5521 44.9789 35.0891C44.9789 35.0891 46.2828 31.1772 45.1237 29.4386L44.2544 28.4244C44.2544 28.4244 46.4277 24.6574 43.2402 23.3534C43.2402 23.3534 37.8795 21.7597 37.1551 26.396V29.1488Z" fill="#FFD42A"/>
<path d="M44.5443 29.1489C41.6466 30.5978 37.7347 29.1489 37.7347 29.1489C37.7347 29.1489 36.4307 27.4103 37.8796 24.3677C37.8796 24.3677 42.371 22.1945 44.3994 24.2228C44.3994 24.2228 45.5585 28.2796 44.5443 29.1489Z" fill="#FFD42A" stroke="black" stroke-width="0.512893"/>
<path d="M49.8333 51.0747L45.3256 53.9433" stroke="black" stroke-width="0.974496"/>
<path d="M55.5555 57.8358C51.209 60.154 50.7743 56.2421 50.7743 56.2421L49.7601 56.6767C47.442 59.7193 44.2545 59.2847 44.2545 59.2847L48.8908 63.4863L41.5017 135.059L40.7772 129.554L33.6779 80.7276L31.2148 63.1966L34.9818 61.0233L33.3881 59.2847C33.3881 59.2847 27.7376 62.617 23.8257 55.9523C23.8257 55.9523 22.232 50.8813 27.8825 50.7365C27.8825 50.7365 30.0558 50.3018 30.3455 53.4893C30.3455 53.4893 30.9251 46.9694 36.2858 44.3615C36.2858 44.3615 35.8512 36.6826 37.5898 35.0889C37.5898 35.0889 34.4023 32.1912 37.4449 28.8588C37.4449 28.8588 35.4165 23.4981 40.6324 23.2083C40.6324 23.2083 46.5726 22.6288 44.3994 28.5691C44.3994 28.5691 46.7175 31.177 44.5443 35.5235C44.5443 35.5235 46.138 35.8133 44.834 44.7962C44.834 44.7962 48.3113 46.3899 48.601 51.8955C48.601 51.8955 55.4106 48.9978 56.7146 53.779C56.7146 53.779 57.439 55.9523 55.5555 57.8358Z" stroke="black" stroke-width="0.974496"/>
<path d="M36.2858 44.2168C36.2858 44.2168 40.6323 41.7537 44.834 44.5065" stroke="black" stroke-width="0.923207" stroke-linecap="round"/>
<path d="M37.4449 35.0892C37.4449 35.0892 40.3426 37.5523 44.8341 34.9443" stroke="black" stroke-width="0.923207" stroke-linecap="round"/>
<path d="M37.1552 29.0038C37.1552 29.0038 41.5017 30.7424 44.5443 28.8589" stroke="black" stroke-width="0.923207" stroke-linecap="round"/>
<path d="M31.5047 49.1431C31.5047 49.1431 29.3314 56.2424 33.3882 59.285" stroke="black" stroke-width="0.923207" stroke-linecap="round"/>
<path d="M45.5585 58.9952L45.4136 50.447C45.4136 50.447 42.371 45.0863 38.0245 48.1289C38.0245 48.1289 31.7944 50.447 36.8654 58.2708L34.5472 61.4583" stroke="black" stroke-width="0.923207" stroke-linecap="round"/>
<path d="M37.0103 58.4154L44.6892 58.2705V50.8813L35.9961 51.316C35.9961 51.316 35.2716 52.7649 35.8512 53.4893" stroke="black" stroke-width="0.923207" stroke-linecap="round"/>
<path d="M37.7347 53.6343H43.3853L43.2404 56.6769L37.8796 56.8217L37.7347 53.6343Z" stroke="black" stroke-width="0.923207" stroke-linecap="round"/>
<path d="M39.0386 59.7197L41.2118 125.932" stroke="black" stroke-width="0.923207" stroke-linecap="round"/>
<path d="M79.0274 58.2705L77.5785 61.458L73.8115 63.4864L83.8086 132.452L84.0984 120.426L82.5046 77.83L82.07 58.2705H79.0274Z" fill="#D5E5FF"/>
<path d="M82.0699 57.981L86.1267 58.4156L91.7772 63.1968L83.9534 134.77L84.2432 120.426L82.0699 57.981Z" fill="#87AADE"/>
<path d="M92.7914 56.8217C89.0244 60.154 87.8654 58.7052 87.8654 58.7052L80.0416 58.4154L78.5927 58.5603L77.5785 61.458L75.695 59.4296C75.695 59.4296 70.7689 61.3131 68.5957 58.2705L66.2775 55.5177C66.2775 55.5177 65.8428 50.4468 71.4934 50.5916L72.9422 52.9098C72.9422 52.9098 74.1013 46.6797 79.3171 44.2167C79.3171 44.2167 84.8228 41.319 89.0244 46.1002C89.0244 46.1002 92.067 47.6939 91.1977 51.4609C91.1977 51.4609 98.0073 50.157 98.8766 52.4751C98.8766 52.4751 101.195 56.0973 96.8482 58.8501C94.0954 58.5603 93.6608 56.2421 93.6608 56.2421L92.7914 56.8217Z" fill="#FFD42A"/>
<path d="M78.4479 51.1715L88.445 50.7369C88.445 50.7369 85.6921 47.1147 83.0842 47.1147C83.0842 47.1147 77.4337 48.8534 78.4479 51.1715Z" fill="#FF0000"/>
<path d="M80.766 53.3447H86.1267V56.3873L80.4762 56.6771L80.766 53.3447Z" fill="#FF5555"/>
<path d="M79.1723 43.3474C79.1723 43.3474 78.4479 37.1174 80.4762 35.2339C80.4762 35.2339 82.9393 37.1174 87.1409 35.3788C87.1409 35.3788 89.0245 38.1316 87.4307 43.927C87.4307 43.927 82.7944 42.4781 79.1723 43.3474Z" fill="#FF0000"/>
<path d="M79.8966 29.1488C79.8966 29.1488 77.1438 32.0465 80.6211 35.0891C80.6211 35.0891 83.6637 37.5521 87.7204 35.0891C87.7204 35.0891 89.0244 31.1772 87.8653 29.4386L86.996 28.4244C86.996 28.4244 89.1693 24.6574 85.9818 23.3534C85.9818 23.3534 80.6211 21.7597 79.8966 26.396V29.1488Z" fill="#FFD42A"/>
<path d="M87.2859 29.1489C84.3882 30.5978 80.4763 29.1489 80.4763 29.1489C80.4763 29.1489 79.1723 27.4103 80.6211 24.3677C80.6211 24.3677 85.1126 22.1945 87.141 24.2228C87.141 24.2228 88.3 28.2796 87.2859 29.1489Z" fill="#FFD42A" stroke="black" stroke-width="0.512893"/>
<path d="M92.5749 51.0747L88.0671 53.9433" stroke="black" stroke-width="0.974496"/>
<path d="M98.2971 57.8358C93.9505 60.154 93.5159 56.2421 93.5159 56.2421L92.5017 56.6767C90.1835 59.7193 86.9961 59.2847 86.9961 59.2847L91.6324 63.4863L84.2432 135.059L83.5188 129.554L76.4195 80.7276L73.9564 63.1966L77.7234 61.0233L76.1297 59.2847C76.1297 59.2847 70.4792 62.617 66.5673 55.9523C66.5673 55.9523 64.9735 50.8813 70.6241 50.7365C70.6241 50.7365 72.7973 50.3018 73.0871 53.4893C73.0871 53.4893 73.6667 46.9694 79.0274 44.3615C79.0274 44.3615 78.5927 36.6826 80.3314 35.0889C80.3314 35.0889 77.1439 32.1912 80.1865 28.8588C80.1865 28.8588 78.1581 23.4981 83.3739 23.2083C83.3739 23.2083 89.3142 22.6288 87.1409 28.5691C87.1409 28.5691 89.4591 31.177 87.2858 35.5235C87.2858 35.5235 88.8796 35.8133 87.5756 44.7962C87.5756 44.7962 91.0528 46.3899 91.3426 51.8955C91.3426 51.8955 98.1522 48.9978 99.4562 53.779C99.4562 53.779 100.181 55.9523 98.2971 57.8358Z" stroke="black" stroke-width="0.974496"/>
<path d="M79.0273 44.2168C79.0273 44.2168 83.3739 41.7537 87.5756 44.5065" stroke="black" stroke-width="0.923207" stroke-linecap="round"/>
<path d="M80.1865 35.0892C80.1865 35.0892 83.0842 37.5523 87.5757 34.9443" stroke="black" stroke-width="0.923207" stroke-linecap="round"/>
<path d="M79.8967 29.0038C79.8967 29.0038 84.2433 30.7424 87.2859 28.8589" stroke="black" stroke-width="0.923207" stroke-linecap="round"/>
<path d="M74.2462 49.1431C74.2462 49.1431 72.073 56.2424 76.1297 59.285" stroke="black" stroke-width="0.923207" stroke-linecap="round"/>
<path d="M88.3001 58.9952L88.1552 50.447C88.1552 50.447 85.1126 45.0863 80.7661 48.1289C80.7661 48.1289 74.536 50.447 79.607 58.2708L77.2888 61.4583" stroke="black" stroke-width="0.923207" stroke-linecap="round"/>
<path d="M79.7518 58.4154L87.4307 58.2705V50.8813L78.7376 51.316C78.7376 51.316 78.0132 52.7649 78.5928 53.4893" stroke="black" stroke-width="0.923207" stroke-linecap="round"/>
<path d="M80.4762 53.6343H86.1267L85.9818 56.6769L80.6211 56.8217L80.4762 53.6343Z" stroke="black" stroke-width="0.923207" stroke-linecap="round"/>
<path d="M81.7802 59.7197L83.9534 125.932" stroke="black" stroke-width="0.923207" stroke-linecap="round"/>
<path d="M121.769 58.2705L120.32 61.458L116.553 63.4864L126.55 132.452L126.84 120.426L125.246 77.83L124.811 58.2705H121.769Z" fill="#D5E5FF"/>
<path d="M124.811 57.981L128.868 58.4156L134.518 63.1968L126.695 134.77L126.984 120.426L124.811 57.981Z" fill="#87AADE"/>
<path d="M135.533 56.8217C131.766 60.154 130.607 58.7052 130.607 58.7052L122.783 58.4154L121.334 58.5603L120.32 61.458L118.436 59.4296C118.436 59.4296 113.51 61.3131 111.337 58.2705L109.019 55.5177C109.019 55.5177 108.584 50.4468 114.235 50.5916L115.683 52.9098C115.683 52.9098 116.842 46.6797 122.058 44.2167C122.058 44.2167 127.564 41.319 131.766 46.1002C131.766 46.1002 134.808 47.6939 133.939 51.4609C133.939 51.4609 140.749 50.157 141.618 52.4751C141.618 52.4751 143.936 56.0973 139.589 58.8501C136.837 58.5603 136.402 56.2421 136.402 56.2421L135.533 56.8217Z" fill="#FFD42A"/>
<path d="M121.189 51.1715L131.186 50.7369C131.186 50.7369 128.433 47.1147 125.825 47.1147C125.825 47.1147 120.175 48.8534 121.189 51.1715Z" fill="#FF0000"/>
<path d="M123.507 53.3447H128.868V56.3873L123.218 56.6771L123.507 53.3447Z" fill="#FF5555"/>
<path d="M121.913 43.3474C121.913 43.3474 121.189 37.1174 123.217 35.2339C123.217 35.2339 125.68 37.1174 129.882 35.3788C129.882 35.3788 131.766 38.1316 130.172 43.927C130.172 43.927 125.536 42.4781 121.913 43.3474Z" fill="#FF0000"/>
<path d="M122.638 29.1488C122.638 29.1488 119.885 32.0465 123.362 35.0891C123.362 35.0891 126.405 37.5521 130.462 35.0891C130.462 35.0891 131.766 31.1772 130.607 29.4386L129.737 28.4244C129.737 28.4244 131.91 24.6574 128.723 23.3534C128.723 23.3534 123.362 21.7597 122.638 26.396V29.1488Z" fill="#FFD42A"/>
<path d="M130.027 29.1489C127.129 30.5978 123.217 29.1489 123.217 29.1489C123.217 29.1489 121.914 27.4103 123.362 24.3677C123.362 24.3677 127.854 22.1945 129.882 24.2228C129.882 24.2228 131.041 28.2796 130.027 29.1489Z" fill="#FFD42A" stroke="black" stroke-width="0.512893"/>
<path d="M135.316 51.0747L130.808 53.9433" stroke="black" stroke-width="0.974496"/>
<path d="M141.038 57.8358C136.692 60.154 136.257 56.2421 136.257 56.2421L135.243 56.6767C132.925 59.7193 129.737 59.2847 129.737 59.2847L134.374 63.4863L126.984 135.059L126.26 129.554L119.161 80.7276L116.698 63.1966L120.465 61.0233L118.871 59.2847C118.871 59.2847 113.22 62.617 109.308 55.9523C109.308 55.9523 107.715 50.8813 113.365 50.7365C113.365 50.7365 115.539 50.3018 115.828 53.4893C115.828 53.4893 116.408 46.9694 121.769 44.3615C121.769 44.3615 121.334 36.6826 123.073 35.0889C123.073 35.0889 119.885 32.1912 122.928 28.8588C122.928 28.8588 120.899 23.4981 126.115 23.2083C126.115 23.2083 132.055 22.6288 129.882 28.5691C129.882 28.5691 132.2 31.177 130.027 35.5235C130.027 35.5235 131.621 35.8133 130.317 44.7962C130.317 44.7962 133.794 46.3899 134.084 51.8955C134.084 51.8955 140.893 48.9978 142.197 53.779C142.197 53.779 142.922 55.9523 141.038 57.8358Z" stroke="black" stroke-width="0.974496"/>
<path d="M121.769 44.2168C121.769 44.2168 126.115 41.7537 130.317 44.5065" stroke="black" stroke-width="0.923207" stroke-linecap="round"/>
<path d="M122.928 35.0892C122.928 35.0892 125.825 37.5523 130.317 34.9443" stroke="black" stroke-width="0.923207" stroke-linecap="round"/>
<path d="M122.638 29.0038C122.638 29.0038 126.984 30.7424 130.027 28.8589" stroke="black" stroke-width="0.923207" stroke-linecap="round"/>
<path d="M116.987 49.1431C116.987 49.1431 114.814 56.2424 118.871 59.285" stroke="black" stroke-width="0.923207" stroke-linecap="round"/>
<path d="M131.041 58.9952L130.896 50.447C130.896 50.447 127.854 45.0863 123.507 48.1289C123.507 48.1289 117.277 50.447 122.348 58.2708L120.03 61.4583" stroke="black" stroke-width="0.923207" stroke-linecap="round"/>
<path d="M122.493 58.4154L130.172 58.2705V50.8813L121.479 51.316C121.479 51.316 120.754 52.7649 121.334 53.4893" stroke="black" stroke-width="0.923207" stroke-linecap="round"/>
<path d="M123.218 53.6343H128.868L128.723 56.6769L123.362 56.8217L123.218 53.6343Z" stroke="black" stroke-width="0.923207" stroke-linecap="round"/>
<path d="M124.521 59.7197L126.695 125.932" stroke="black" stroke-width="0.923207" stroke-linecap="round"/>
<path d="M164.51 58.2705L163.061 61.458L159.294 63.4864L169.291 132.452L169.581 120.426L167.987 77.83L167.553 58.2705H164.51Z" fill="#D5E5FF"/>
<path d="M167.553 57.981L171.609 58.4156L177.26 63.1968L169.436 134.77L169.726 120.426L167.553 57.981Z" fill="#87AADE"/>
<path d="M178.274 56.8217C174.507 60.154 173.348 58.7052 173.348 58.7052L165.524 58.4154L164.075 58.5603L163.061 61.458L161.178 59.4296C161.178 59.4296 156.252 61.3131 154.078 58.2705L151.76 55.5177C151.76 55.5177 151.326 50.4468 156.976 50.5916L158.425 52.9098C158.425 52.9098 159.584 46.6797 164.8 44.2167C164.8 44.2167 170.305 41.319 174.507 46.1002C174.507 46.1002 177.55 47.6939 176.68 51.4609C176.68 51.4609 183.49 50.157 184.359 52.4751C184.359 52.4751 186.677 56.0973 182.331 58.8501C179.578 58.5603 179.143 56.2421 179.143 56.2421L178.274 56.8217Z" fill="#FFD42A"/>
<path d="M163.931 51.1715L173.928 50.7369C173.928 50.7369 171.175 47.1147 168.567 47.1147C168.567 47.1147 162.916 48.8534 163.931 51.1715Z" fill="#FF0000"/>
<path d="M166.249 53.3447H171.609V56.3873L165.959 56.6771L166.249 53.3447Z" fill="#FF5555"/>
<path d="M164.655 43.3474C164.655 43.3474 163.931 37.1174 165.959 35.2339C165.959 35.2339 168.422 37.1174 172.624 35.3788C172.624 35.3788 174.507 38.1316 172.913 43.927C172.913 43.927 168.277 42.4781 164.655 43.3474Z" fill="#FF0000"/>
<path d="M165.379 29.1488C165.379 29.1488 162.626 32.0465 166.104 35.0891C166.104 35.0891 169.146 37.5521 173.203 35.0891C173.203 35.0891 174.507 31.1772 173.348 29.4386L172.479 28.4244C172.479 28.4244 174.652 24.6574 171.464 23.3534C171.464 23.3534 166.104 21.7597 165.379 26.396V29.1488Z" fill="#FFD42A"/>
<path d="M172.769 29.1489C169.871 30.5978 165.959 29.1489 165.959 29.1489C165.959 29.1489 164.655 27.4103 166.104 24.3677C166.104 24.3677 170.595 22.1945 172.624 24.2228C172.624 24.2228 173.783 28.2796 172.769 29.1489Z" fill="#FFD42A" stroke="black" stroke-width="0.512893"/>
<path d="M178.058 51.0747L173.55 53.9433" stroke="black" stroke-width="0.974496"/>
<path d="M183.78 57.8358C179.433 60.154 178.999 56.2421 178.999 56.2421L177.984 56.6767C175.666 59.7193 172.479 59.2847 172.479 59.2847L177.115 63.4863L169.726 135.059L169.001 129.554L161.902 80.7276L159.439 63.1966L163.206 61.0233L161.612 59.2847C161.612 59.2847 155.962 62.617 152.05 55.9523C152.05 55.9523 150.456 50.8813 156.107 50.7365C156.107 50.7365 158.28 50.3018 158.57 53.4893C158.57 53.4893 159.149 46.9694 164.51 44.3615C164.51 44.3615 164.075 36.6826 165.814 35.0889C165.814 35.0889 162.627 32.1912 165.669 28.8588C165.669 28.8588 163.641 23.4981 168.857 23.2083C168.857 23.2083 174.797 22.6288 172.624 28.5691C172.624 28.5691 174.942 31.177 172.768 35.5235C172.768 35.5235 174.362 35.8133 173.058 44.7962C173.058 44.7962 176.536 46.3899 176.825 51.8955C176.825 51.8955 183.635 48.9978 184.939 53.779C184.939 53.779 185.663 55.9523 183.78 57.8358Z" stroke="black" stroke-width="0.974496"/>
<path d="M164.51 44.2168C164.51 44.2168 168.857 41.7537 173.058 44.5065" stroke="black" stroke-width="0.923207" stroke-linecap="round"/>
<path d="M165.669 35.0892C165.669 35.0892 168.567 37.5523 173.058 34.9443" stroke="black" stroke-width="0.923207" stroke-linecap="round"/>
<path d="M165.379 29.0038C165.379 29.0038 169.726 30.7424 172.769 28.8589" stroke="black" stroke-width="0.923207" stroke-linecap="round"/>
<path d="M159.729 49.1431C159.729 49.1431 157.556 56.2424 161.612 59.285" stroke="black" stroke-width="0.923207" stroke-linecap="round"/>
<path d="M173.783 58.9952L173.638 50.447C173.638 50.447 170.595 45.0863 166.249 48.1289C166.249 48.1289 160.019 50.447 165.09 58.2708L162.771 61.4583" stroke="black" stroke-width="0.923207" stroke-linecap="round"/>
<path d="M165.235 58.4154L172.913 58.2705V50.8813L164.22 51.316C164.22 51.316 163.496 52.7649 164.075 53.4893" stroke="black" stroke-width="0.923207" stroke-linecap="round"/>
<path d="M165.959 53.6343H171.609L171.465 56.6769L166.104 56.8217L165.959 53.6343Z" stroke="black" stroke-width="0.923207" stroke-linecap="round"/>
<path d="M167.263 59.7197L169.436 125.932" stroke="black" stroke-width="0.923207" stroke-linecap="round"/>
<path d="M124.897 152.489L121.71 151.04L119.681 147.273L50.7162 157.271L62.7417 157.56L105.338 155.967L124.897 155.532V152.489Z" fill="#D5E5FF"/>
<path d="M125.187 155.532L124.752 159.589L119.971 165.24L48.3981 157.416L62.7417 157.705L125.187 155.532Z" fill="#87AADE"/>
<path d="M126.346 166.254C123.014 162.487 124.463 161.328 124.463 161.328L124.752 153.504L124.608 152.055L121.71 151.041L123.738 149.157C123.738 149.157 121.855 144.231 124.897 142.058L127.65 139.74C127.65 139.74 132.721 139.305 132.576 144.956L130.258 146.404C130.258 146.404 136.488 147.563 138.951 152.779C138.951 152.779 141.849 158.285 137.068 162.487C137.068 162.487 135.474 165.529 131.707 164.66C131.707 164.66 133.011 171.469 130.693 172.339C130.693 172.339 127.071 174.657 124.318 170.31C124.608 167.558 126.926 167.123 126.926 167.123L126.346 166.254Z" fill="#FFD42A"/>
<path d="M131.997 151.91L132.431 161.907C132.431 161.907 136.053 159.154 136.053 156.546C136.053 156.546 134.315 150.896 131.997 151.91Z" fill="#FF0000"/>
<path d="M129.823 154.228V159.589H126.781L126.491 153.938L129.823 154.228Z" fill="#FF5555"/>
<path d="M139.821 152.635C139.821 152.635 146.051 151.91 147.934 153.939C147.934 153.939 146.051 156.402 147.789 160.603C147.789 160.603 145.036 162.487 139.241 160.893C139.241 160.893 140.69 156.257 139.821 152.635Z" fill="#FF0000"/>
<path d="M154.019 153.359C154.019 153.359 151.121 150.606 148.079 154.083C148.079 154.083 145.616 157.126 148.079 161.183C148.079 161.183 151.991 162.487 153.729 161.327L154.744 160.458C154.744 160.458 158.511 162.631 159.815 159.444C159.815 159.444 161.408 154.083 156.772 153.359H154.019Z" fill="#FFD42A"/>
<path d="M154.019 160.748C152.57 157.85 154.019 153.938 154.019 153.938C154.019 153.938 155.758 152.634 158.8 154.083C158.8 154.083 160.974 158.575 158.945 160.603C158.945 160.603 154.888 161.762 154.019 160.748Z" fill="#FFD42A" stroke="black" stroke-width="0.512893"/>
<path d="M132.093 166.037L129.225 161.529" stroke="black" stroke-width="0.974496"/>
<path d="M125.332 171.759C123.014 167.413 126.926 166.978 126.926 166.978L126.491 165.964C123.448 163.646 123.883 160.458 123.883 160.458L119.681 165.095L48.1082 157.706L53.6139 156.981L102.44 149.882L119.971 147.419L122.144 151.186L123.883 149.592C123.883 149.592 120.551 143.941 127.215 140.03C127.215 140.03 132.286 138.436 132.431 144.086C132.431 144.086 132.866 146.26 129.678 146.549C129.678 146.549 136.198 147.129 138.806 152.49C138.806 152.49 146.485 152.055 148.079 153.794C148.079 153.794 150.977 150.606 154.309 153.649C154.309 153.649 159.67 151.62 159.959 156.836C159.959 156.836 160.539 162.777 154.599 160.603C154.599 160.603 151.991 162.921 147.644 160.748C147.644 160.748 147.354 162.342 138.372 161.038C138.372 161.038 136.778 164.515 131.272 164.805C131.272 164.805 134.17 171.614 129.389 172.918C129.389 172.918 127.215 173.643 125.332 171.759Z" stroke="black" stroke-width="0.974496"/>
<path d="M138.951 152.49C138.951 152.49 141.414 156.836 138.661 161.038" stroke="black" stroke-width="0.923207" stroke-linecap="round"/>
<path d="M148.079 153.648C148.079 153.648 145.616 156.546 148.224 161.038" stroke="black" stroke-width="0.923207" stroke-linecap="round"/>
<path d="M154.164 153.359C154.164 153.359 152.425 157.705 154.309 160.748" stroke="black" stroke-width="0.923207" stroke-linecap="round"/>
<path d="M134.025 147.708C134.025 147.708 126.926 145.535 123.883 149.592" stroke="black" stroke-width="0.923207" stroke-linecap="round"/>
<path d="M124.173 161.762L132.721 161.617C132.721 161.617 138.082 158.575 135.039 154.228C135.039 154.228 132.721 147.998 124.897 153.069L121.71 150.751" stroke="black" stroke-width="0.923207" stroke-linecap="round"/>
<path d="M124.752 153.214L124.897 160.893H132.286L131.852 152.2C131.852 152.2 130.403 151.475 129.678 152.055" stroke="black" stroke-width="0.923207" stroke-linecap="round"/>
<path d="M129.534 153.938V159.589L126.491 159.444L126.346 154.083L129.534 153.938Z" stroke="black" stroke-width="0.923207" stroke-linecap="round"/>
<path d="M123.448 155.242L57.2361 157.415" stroke="black" stroke-width="0.923207" stroke-linecap="round"/>
<path d="M36.2858 256.43L34.837 253.242L31.0699 251.214L41.067 182.249L41.3568 194.274L39.763 236.87L39.3284 256.43H36.2858Z" fill="#D5E5FF"/>
<path d="M39.3284 256.719L43.3851 256.285L49.0357 251.503L41.2119 179.93L41.5016 194.274L39.3284 256.719Z" fill="#87AADE"/>
<path d="M50.0499 257.879C46.2829 254.546 45.1238 255.995 45.1238 255.995L37.3 256.285L35.8511 256.14L34.8369 253.242L32.9534 255.271C32.9534 255.271 28.0274 253.387 25.8541 256.43L23.5359 259.182C23.5359 259.182 23.1013 264.253 28.7518 264.109L30.2006 261.79C30.2006 261.79 31.3597 268.02 36.5756 270.484C36.5756 270.484 42.0812 273.381 46.2829 268.6C46.2829 268.6 49.3254 267.006 48.4561 263.239C48.4561 263.239 55.2657 264.543 56.135 262.225C56.135 262.225 58.4532 258.603 54.1066 255.85C51.3538 256.14 50.9192 258.458 50.9192 258.458L50.0499 257.879Z" fill="#FFD42A"/>
<path d="M35.7063 263.529L45.7034 263.963C45.7034 263.963 42.9506 267.585 40.3426 267.585C40.3426 267.585 34.6921 265.847 35.7063 263.529Z" fill="#FF0000"/>
<path d="M38.0245 261.355H43.3853V258.313L37.7347 258.023L38.0245 261.355Z" fill="#FF5555"/>
<path d="M36.4307 271.353C36.4307 271.353 35.7063 277.583 37.7347 279.466C37.7347 279.466 40.1977 277.583 44.3994 279.321C44.3994 279.321 46.2829 276.569 44.6891 270.773C44.6891 270.773 40.0528 272.222 36.4307 271.353Z" fill="#FF0000"/>
<path d="M37.1551 285.551C37.1551 285.551 34.4023 282.654 37.8795 279.611C37.8795 279.611 40.9221 277.148 44.9789 279.611C44.9789 279.611 46.2828 283.523 45.1237 285.262L44.2544 286.276C44.2544 286.276 46.4277 290.043 43.2402 291.347C43.2402 291.347 37.8795 292.941 37.1551 288.304V285.551Z" fill="#FFD42A"/>
<path d="M44.5443 285.551C41.6466 284.102 37.7347 285.551 37.7347 285.551C37.7347 285.551 36.4307 287.29 37.8796 290.332C37.8796 290.332 42.371 292.506 44.3994 290.477C44.3994 290.477 45.5585 286.421 44.5443 285.551Z" fill="#FFD42A" stroke="black" stroke-width="0.512893"/>
<path d="M49.8333 263.625L45.3256 260.757" stroke="black" stroke-width="0.974496"/>
<path d="M55.5555 256.864C51.209 254.546 50.7743 258.458 50.7743 258.458L49.7601 258.023C47.442 254.981 44.2545 255.416 44.2545 255.416L48.8908 251.214L41.5017 179.641L40.7772 185.146L33.6779 233.973L31.2148 251.504L34.9818 253.677L33.3881 255.416C33.3881 255.416 27.7376 252.083 23.8257 258.748C23.8257 258.748 22.232 263.819 27.8825 263.964C27.8825 263.964 30.0558 264.398 30.3455 261.211C30.3455 261.211 30.9251 267.731 36.2858 270.339C36.2858 270.339 35.8512 278.018 37.5898 279.611C37.5898 279.611 34.4023 282.509 37.4449 285.841C37.4449 285.841 35.4165 291.202 40.6324 291.492C40.6324 291.492 46.5726 292.071 44.3994 286.131C44.3994 286.131 46.7175 283.523 44.5443 279.177C44.5443 279.177 46.138 278.887 44.834 269.904C44.834 269.904 48.3113 268.31 48.601 262.805C48.601 262.805 55.4106 265.702 56.7146 260.921C56.7146 260.921 57.439 258.748 55.5555 256.864Z" stroke="black" stroke-width="0.974496"/>
<path d="M36.2858 270.483C36.2858 270.483 40.6323 272.946 44.834 270.194" stroke="black" stroke-width="0.923207" stroke-linecap="round"/>
<path d="M37.4449 279.611C37.4449 279.611 40.3426 277.148 44.8341 279.756" stroke="black" stroke-width="0.923207" stroke-linecap="round"/>
<path d="M37.1552 285.696C37.1552 285.696 41.5017 283.958 44.5443 285.841" stroke="black" stroke-width="0.923207" stroke-linecap="round"/>
<path d="M31.5047 265.557C31.5047 265.557 29.3314 258.458 33.3882 255.415" stroke="black" stroke-width="0.923207" stroke-linecap="round"/>
<path d="M45.5585 255.705L45.4136 264.253C45.4136 264.253 42.371 269.614 38.0245 266.571C38.0245 266.571 31.7944 264.253 36.8654 256.429L34.5472 253.242" stroke="black" stroke-width="0.923207" stroke-linecap="round"/>
<path d="M37.0103 256.285L44.6892 256.43V263.819L35.9961 263.384C35.9961 263.384 35.2716 261.935 35.8512 261.211" stroke="black" stroke-width="0.923207" stroke-linecap="round"/>
<path d="M37.7347 261.066H43.3853L43.2404 258.023L37.8796 257.878L37.7347 261.066Z" stroke="black" stroke-width="0.923207" stroke-linecap="round"/>
<path d="M39.0386 254.98L41.2118 188.768" stroke="black" stroke-width="0.923207" stroke-linecap="round"/>
<path d="M79.0274 256.43L77.5785 253.242L73.8115 251.214L83.8086 182.249L84.0984 194.274L82.5046 236.87L82.07 256.43H79.0274Z" fill="#D5E5FF"/>
<path d="M82.0699 256.719L86.1267 256.285L91.7772 251.503L83.9534 179.93L84.2432 194.274L82.0699 256.719Z" fill="#87AADE"/>
<path d="M92.7914 257.879C89.0244 254.546 87.8654 255.995 87.8654 255.995L80.0416 256.285L78.5927 256.14L77.5785 253.242L75.695 255.271C75.695 255.271 70.7689 253.387 68.5957 256.43L66.2775 259.182C66.2775 259.182 65.8428 264.253 71.4934 264.109L72.9422 261.79C72.9422 261.79 74.1013 268.02 79.3171 270.484C79.3171 270.484 84.8228 273.381 89.0244 268.6C89.0244 268.6 92.067 267.006 91.1977 263.239C91.1977 263.239 98.0073 264.543 98.8766 262.225C98.8766 262.225 101.195 258.603 96.8482 255.85C94.0954 256.14 93.6608 258.458 93.6608 258.458L92.7914 257.879Z" fill="#FFD42A"/>
<path d="M78.4479 263.529L88.445 263.963C88.445 263.963 85.6921 267.585 83.0842 267.585C83.0842 267.585 77.4337 265.847 78.4479 263.529Z" fill="#FF0000"/>
<path d="M80.766 261.355H86.1267V258.313L80.4762 258.023L80.766 261.355Z" fill="#FF5555"/>
<path d="M79.1723 271.353C79.1723 271.353 78.4479 277.583 80.4762 279.466C80.4762 279.466 82.9393 277.583 87.1409 279.321C87.1409 279.321 89.0245 276.569 87.4307 270.773C87.4307 270.773 82.7944 272.222 79.1723 271.353Z" fill="#FF0000"/>
<path d="M79.8966 285.551C79.8966 285.551 77.1438 282.654 80.6211 279.611C80.6211 279.611 83.6637 277.148 87.7204 279.611C87.7204 279.611 89.0244 283.523 87.8653 285.262L86.996 286.276C86.996 286.276 89.1693 290.043 85.9818 291.347C85.9818 291.347 80.6211 292.941 79.8966 288.304V285.551Z" fill="#FFD42A"/>
<path d="M87.2859 285.551C84.3882 284.102 80.4763 285.551 80.4763 285.551C80.4763 285.551 79.1723 287.29 80.6211 290.332C80.6211 290.332 85.1126 292.506 87.141 290.477C87.141 290.477 88.3 286.421 87.2859 285.551Z" fill="#FFD42A" stroke="black" stroke-width="0.512893"/>
<path d="M92.5749 263.625L88.0671 260.757" stroke="black" stroke-width="0.974496"/>
<path d="M98.2971 256.864C93.9505 254.546 93.5159 258.458 93.5159 258.458L92.5017 258.023C90.1835 254.981 86.9961 255.416 86.9961 255.416L91.6324 251.214L84.2432 179.641L83.5188 185.146L76.4195 233.973L73.9564 251.504L77.7234 253.677L76.1297 255.416C76.1297 255.416 70.4792 252.083 66.5673 258.748C66.5673 258.748 64.9735 263.819 70.6241 263.964C70.6241 263.964 72.7973 264.398 73.0871 261.211C73.0871 261.211 73.6667 267.731 79.0274 270.339C79.0274 270.339 78.5927 278.018 80.3314 279.611C80.3314 279.611 77.1439 282.509 80.1865 285.841C80.1865 285.841 78.1581 291.202 83.3739 291.492C83.3739 291.492 89.3142 292.071 87.1409 286.131C87.1409 286.131 89.4591 283.523 87.2858 279.177C87.2858 279.177 88.8796 278.887 87.5756 269.904C87.5756 269.904 91.0528 268.31 91.3426 262.805C91.3426 262.805 98.1522 265.702 99.4562 260.921C99.4562 260.921 100.181 258.748 98.2971 256.864Z" stroke="black" stroke-width="0.974496"/>
<path d="M79.0273 270.483C79.0273 270.483 83.3739 272.946 87.5756 270.194" stroke="black" stroke-width="0.923207" stroke-linecap="round"/>
<path d="M80.1865 279.611C80.1865 279.611 83.0842 277.148 87.5757 279.756" stroke="black" stroke-width="0.923207" stroke-linecap="round"/>
<path d="M79.8967 285.696C79.8967 285.696 84.2433 283.958 87.2859 285.841" stroke="black" stroke-width="0.923207" stroke-linecap="round"/>
<path d="M74.2462 265.557C74.2462 265.557 72.073 258.458 76.1297 255.415" stroke="black" stroke-width="0.923207" stroke-linecap="round"/>
<path d="M88.3001 255.705L88.1552 264.253C88.1552 264.253 85.1126 269.614 80.7661 266.571C80.7661 266.571 74.536 264.253 79.607 256.429L77.2888 253.242" stroke="black" stroke-width="0.923207" stroke-linecap="round"/>
<path d="M79.7518 256.285L87.4307 256.43V263.819L78.7376 263.384C78.7376 263.384 78.0132 261.935 78.5928 261.211" stroke="black" stroke-width="0.923207" stroke-linecap="round"/>
<path d="M80.4762 261.066H86.1267L85.9818 258.023L80.6211 257.878L80.4762 261.066Z" stroke="black" stroke-width="0.923207" stroke-linecap="round"/>
<path d="M81.7802 254.98L83.9534 188.768" stroke="black" stroke-width="0.923207" stroke-linecap="round"/>
<path d="M121.769 256.43L120.32 253.242L116.553 251.214L126.55 182.249L126.84 194.274L125.246 236.87L124.811 256.43H121.769Z" fill="#D5E5FF"/>
<path d="M124.811 256.719L128.868 256.285L134.518 251.503L126.695 179.93L126.984 194.274L124.811 256.719Z" fill="#87AADE"/>
<path d="M135.533 257.879C131.766 254.546 130.607 255.995 130.607 255.995L122.783 256.285L121.334 256.14L120.32 253.242L118.436 255.271C118.436 255.271 113.51 253.387 111.337 256.43L109.019 259.182C109.019 259.182 108.584 264.253 114.235 264.109L115.683 261.79C115.683 261.79 116.842 268.02 122.058 270.484C122.058 270.484 127.564 273.381 131.766 268.6C131.766 268.6 134.808 267.006 133.939 263.239C133.939 263.239 140.749 264.543 141.618 262.225C141.618 262.225 143.936 258.603 139.589 255.85C136.837 256.14 136.402 258.458 136.402 258.458L135.533 257.879Z" fill="#FFD42A"/>
<path d="M121.189 263.529L131.186 263.963C131.186 263.963 128.433 267.585 125.825 267.585C125.825 267.585 120.175 265.847 121.189 263.529Z" fill="#FF0000"/>
<path d="M123.507 261.355H128.868V258.313L123.218 258.023L123.507 261.355Z" fill="#FF5555"/>
<path d="M121.913 271.353C121.913 271.353 121.189 277.583 123.217 279.466C123.217 279.466 125.68 277.583 129.882 279.321C129.882 279.321 131.766 276.569 130.172 270.773C130.172 270.773 125.536 272.222 121.913 271.353Z" fill="#FF0000"/>
<path d="M122.638 285.551C122.638 285.551 119.885 282.654 123.362 279.611C123.362 279.611 126.405 277.148 130.462 279.611C130.462 279.611 131.766 283.523 130.607 285.262L129.737 286.276C129.737 286.276 131.91 290.043 128.723 291.347C128.723 291.347 123.362 292.941 122.638 288.304V285.551Z" fill="#FFD42A"/>
<path d="M130.027 285.551C127.129 284.102 123.217 285.551 123.217 285.551C123.217 285.551 121.914 287.29 123.362 290.332C123.362 290.332 127.854 292.506 129.882 290.477C129.882 290.477 131.041 286.421 130.027 285.551Z" fill="#FFD42A" stroke="black" stroke-width="0.512893"/>
<path d="M135.316 263.625L130.808 260.757" stroke="black" stroke-width="0.974496"/>
<path d="M141.038 256.864C136.692 254.546 136.257 258.458 136.257 258.458L135.243 258.023C132.925 254.981 129.737 255.416 129.737 255.416L134.374 251.214L126.984 179.641L126.26 185.146L119.161 233.973L116.698 251.504L120.465 253.677L118.871 255.416C118.871 255.416 113.22 252.083 109.308 258.748C109.308 258.748 107.715 263.819 113.365 263.964C113.365 263.964 115.539 264.398 115.828 261.211C115.828 261.211 116.408 267.731 121.769 270.339C121.769 270.339 121.334 278.018 123.073 279.611C123.073 279.611 119.885 282.509 122.928 285.841C122.928 285.841 120.899 291.202 126.115 291.492C126.115 291.492 132.055 292.071 129.882 286.131C129.882 286.131 132.2 283.523 130.027 279.177C130.027 279.177 131.621 278.887 130.317 269.904C130.317 269.904 133.794 268.31 134.084 262.805C134.084 262.805 140.893 265.702 142.197 260.921C142.197 260.921 142.922 258.748 141.038 256.864Z" stroke="black" stroke-width="0.974496"/>
<path d="M121.769 270.483C121.769 270.483 126.115 272.946 130.317 270.194" stroke="black" stroke-width="0.923207" stroke-linecap="round"/>
<path d="M122.928 279.611C122.928 279.611 125.825 277.148 130.317 279.756" stroke="black" stroke-width="0.923207" stroke-linecap="round"/>
<path d="M122.638 285.696C122.638 285.696 126.984 283.958 130.027 285.841" stroke="black" stroke-width="0.923207" stroke-linecap="round"/>
<path d="M116.987 265.557C116.987 265.557 114.814 258.458 118.871 255.415" stroke="black" stroke-width="0.923207" stroke-linecap="round"/>
<path d="M131.041 255.705L130.896 264.253C130.896 264.253 127.854 269.614 123.507 266.571C123.507 266.571 117.277 264.253 122.348 256.429L120.03 253.242" stroke="black" stroke-width="0.923207" stroke-linecap="round"/>
<path d="M122.493 256.285L130.172 256.43V263.819L121.479 263.384C121.479 263.384 120.754 261.935 121.334 261.211" stroke="black" stroke-width="0.923207" stroke-linecap="round"/>
<path d="M123.218 261.066H128.868L128.723 258.023L123.362 257.878L123.218 261.066Z" stroke="black" stroke-width="0.923207" stroke-linecap="round"/>
<path d="M124.521 254.98L126.695 188.768" stroke="black" stroke-width="0.923207" stroke-linecap="round"/>
<path d="M164.51 256.43L163.061 253.242L159.294 251.214L169.291 182.249L169.581 194.274L167.987 236.87L167.553 256.43H164.51Z" fill="#D5E5FF"/>
<path d="M167.553 256.719L171.609 256.285L177.26 251.503L169.436 179.93L169.726 194.274L167.553 256.719Z" fill="#87AADE"/>
<path d="M178.274 257.879C174.507 254.546 173.348 255.995 173.348 255.995L165.524 256.285L164.075 256.14L163.061 253.242L161.178 255.271C161.178 255.271 156.252 253.387 154.078 256.43L151.76 259.182C151.76 259.182 151.326 264.253 156.976 264.109L158.425 261.79C158.425 261.79 159.584 268.02 164.8 270.484C164.8 270.484 170.305 273.381 174.507 268.6C174.507 268.6 177.55 267.006 176.68 263.239C176.68 263.239 183.49 264.543 184.359 262.225C184.359 262.225 186.677 258.603 182.331 255.85C179.578 256.14 179.143 258.458 179.143 258.458L178.274 257.879Z" fill="#FFD42A"/>
<path d="M163.931 263.529L173.928 263.963C173.928 263.963 171.175 267.585 168.567 267.585C168.567 267.585 162.916 265.847 163.931 263.529Z" fill="#FF0000"/>
<path d="M166.249 261.355H171.609V258.313L165.959 258.023L166.249 261.355Z" fill="#FF5555"/>
<path d="M164.655 271.353C164.655 271.353 163.931 277.583 165.959 279.466C165.959 279.466 168.422 277.583 172.624 279.321C172.624 279.321 174.507 276.569 172.913 270.773C172.913 270.773 168.277 272.222 164.655 271.353Z" fill="#FF0000"/>
<path d="M165.379 285.551C165.379 285.551 162.626 282.654 166.104 279.611C166.104 279.611 169.146 277.148 173.203 279.611C173.203 279.611 174.507 283.523 173.348 285.262L172.479 286.276C172.479 286.276 174.652 290.043 171.464 291.347C171.464 291.347 166.104 292.941 165.379 288.304V285.551Z" fill="#FFD42A"/>
<path d="M172.769 285.551C169.871 284.102 165.959 285.551 165.959 285.551C165.959 285.551 164.655 287.29 166.104 290.332C166.104 290.332 170.595 292.506 172.624 290.477C172.624 290.477 173.783 286.421 172.769 285.551Z" fill="#FFD42A" stroke="black" stroke-width="0.512893"/>
<path d="M178.058 263.625L173.55 260.757" stroke="black" stroke-width="0.974496"/>
<path d="M183.78 256.864C179.433 254.546 178.999 258.458 178.999 258.458L177.984 258.023C175.666 254.981 172.479 255.416 172.479 255.416L177.115 251.214L169.726 179.641L169.001 185.146L161.902 233.973L159.439 251.504L163.206 253.677L161.612 255.416C161.612 255.416 155.962 252.083 152.05 258.748C152.05 258.748 150.456 263.819 156.107 263.964C156.107 263.964 158.28 264.398 158.57 261.211C158.57 261.211 159.149 267.731 164.51 270.339C164.51 270.339 164.075 278.018 165.814 279.611C165.814 279.611 162.627 282.509 165.669 285.841C165.669 285.841 163.641 291.202 168.857 291.492C168.857 291.492 174.797 292.071 172.624 286.131C172.624 286.131 174.942 283.523 172.768 279.177C172.768 279.177 174.362 278.887 173.058 269.904C173.058 269.904 176.536 268.31 176.825 262.805C176.825 262.805 183.635 265.702 184.939 260.921C184.939 260.921 185.663 258.748 183.78 256.864Z" stroke="black" stroke-width="0.974496"/>
<path d="M164.51 270.483C164.51 270.483 168.857 272.946 173.058 270.194" stroke="black" stroke-width="0.923207" stroke-linecap="round"/>
<path d="M165.669 279.611C165.669 279.611 168.567 277.148 173.058 279.756" stroke="black" stroke-width="0.923207" stroke-linecap="round"/>
<path d="M165.379 285.696C165.379 285.696 169.726 283.958 172.769 285.841" stroke="black" stroke-width="0.923207" stroke-linecap="round"/>
<path d="M159.729 265.557C159.729 265.557 157.556 258.458 161.612 255.415" stroke="black" stroke-width="0.923207" stroke-linecap="round"/>
<path d="M173.783 255.705L173.638 264.253C173.638 264.253 170.595 269.614 166.249 266.571C166.249 266.571 160.019 264.253 165.09 256.429L162.771 253.242" stroke="black" stroke-width="0.923207" stroke-linecap="round"/>
<path d="M165.235 256.285L172.913 256.43V263.819L164.22 263.384C164.22 263.384 163.496 261.935 164.075 261.211" stroke="black" stroke-width="0.923207" stroke-linecap="round"/>
<path d="M165.959 261.066H171.609L171.465 258.023L166.104 257.878L165.959 261.066Z" stroke="black" stroke-width="0.923207" stroke-linecap="round"/>
<path d="M167.263 254.98L169.436 188.768" stroke="black" stroke-width="0.923207" stroke-linecap="round"/>
<defs>
<linearGradient id="paint0_linear_2689_21598" x1="135.067" y1="148.459" x2="-384.797" y2="148.459" gradientUnits="userSpaceOnUse">
<stop stop-color="white"/>
<stop offset="1" stop-color="#CCCCCC"/>
</linearGradient>
</defs>
</svg>
