<svg width="208" height="319" viewBox="0 0 208 319" fill="none" xmlns="http://www.w3.org/2000/svg">
<path d="M192.5 0.5H15.5C7.21573 0.5 0.5 7.21573 0.5 15.5V303.5C0.5 311.784 7.21573 318.5 15.5 318.5H192.5C200.784 318.5 207.5 311.784 207.5 303.5V15.5C207.5 7.21573 200.784 0.5 192.5 0.5Z" fill="url(#paint0_linear_2689_24114)" stroke="black" stroke-linecap="square"/>
<path d="M65.8571 15H91.2856M116.714 15H142.143M167.571 15H193V304H167.571M142.143 304H116.714M91.2856 304H65.8571M40.4285 304H15V15H40.4285" stroke="black"/>
<path d="M21.1695 21.4252C20.8913 21.4252 20.3347 21.5952 19.5 21.9353V21.6107L23.6738 19.5005L23.8595 19.5469V33.4599C23.8593 34.0165 23.9986 34.3798 24.2768 34.5498C24.5551 34.7199 25.1502 34.8127 26.0623 34.8281V35.1759H19.6622V34.8281C20.528 34.7972 21.1076 34.6735 21.4013 34.4571C21.7105 34.2252 21.8651 33.746 21.8651 33.0194V22.5151C21.8651 21.7885 21.6333 21.4252 21.1695 21.4252Z" fill="black"/>
<path d="M38.1203 33.2745C37.1618 34.7585 35.8941 35.5005 34.3173 35.5005C32.7406 35.5005 31.4729 34.743 30.5144 33.2281C29.556 31.7131 29.0767 29.7652 29.0767 27.3846C29.0767 25.143 29.556 23.2725 30.5144 21.773C31.4729 20.258 32.7714 19.5005 34.4101 19.5005C35.9251 19.5005 37.1618 20.2426 38.1203 21.7266C39.0788 23.2107 39.5579 25.143 39.5579 27.5237C39.5579 29.8735 39.0788 31.7904 38.1203 33.2745ZM34.3406 20.1034C32.3154 20.1034 31.3028 22.6 31.3028 27.5932C31.3028 32.4628 32.3076 34.8977 34.3173 34.8977C36.3269 34.8977 37.3318 32.4551 37.3318 27.5701C37.3318 25.1431 37.0767 23.2957 36.5666 22.0281C36.0565 20.745 35.3144 20.1034 34.3406 20.1034Z" fill="black"/>
<path d="M186.83 297.575C187.109 297.575 187.665 297.405 188.5 297.065V297.39L184.326 299.5L184.141 299.454V285.541C184.141 284.984 184.001 284.621 183.723 284.451C183.445 284.281 182.85 284.188 181.938 284.172V283.825H188.338V284.172C187.472 284.203 186.892 284.327 186.599 284.543C186.29 284.775 186.135 285.254 186.135 285.981V296.485C186.135 297.212 186.367 297.575 186.83 297.575Z" fill="black"/>
<path d="M169.88 285.726C170.838 284.242 172.106 283.5 173.683 283.5C175.259 283.5 176.527 284.257 177.486 285.772C178.444 287.287 178.923 289.235 178.923 291.616C178.923 293.857 178.444 295.728 177.486 297.228C176.527 298.742 175.229 299.5 173.59 299.5C172.075 299.5 170.838 298.758 169.88 297.274C168.921 295.79 168.442 293.857 168.442 291.477C168.442 289.127 168.921 287.21 169.88 285.726ZM173.659 298.897C175.685 298.897 176.697 296.4 176.697 291.407C176.697 286.538 175.692 284.103 173.683 284.103C171.673 284.103 170.668 286.545 170.668 291.43C170.668 293.857 170.923 295.705 171.433 296.972C171.944 298.256 172.686 298.897 173.659 298.897Z" fill="black"/>
<path d="M120.028 61.9654C120.296 61.9654 120.513 61.7648 120.513 61.5174C120.513 61.2699 120.296 61.0693 120.028 61.0693C119.76 61.0693 119.542 61.2699 119.542 61.5174C119.542 61.7648 119.76 61.9654 120.028 61.9654Z" fill="black" stroke="black" stroke-width="0.4" stroke-linecap="round" stroke-linejoin="round"/>
<path d="M76.0635 105.5L87.5792 103.197L130.92 104.034L141.808 124.344L149.764 136.278L144.949 147.375L119.195 150.935L97.6293 141.094L77.7385 149.05C77.7385 149.05 76.2728 144.444 76.2728 143.607C76.2728 142.769 76.0635 105.5 76.0635 105.5Z" fill="#677821" stroke="black" stroke-width="0.299488"/>
<path d="M118.463 124.239C102.655 120.052 88.46 124.016 88.46 124.016L91.1388 121.936L93.5467 121.099C93.5467 121.099 100.561 116.806 101.712 114.084L104.434 117.539L105.586 118.691L107.889 119.633L111.134 120.889L113.228 121.936L115.427 122.669L118.463 124.239Z" fill="#0066FF"/>
<path d="M114.665 42.7347C117.774 44.2152 119.773 51.5438 119.773 51.5438C107.855 46.5841 95.8625 54.0607 95.8625 54.0607C95.8625 54.0607 96.9729 45.0295 102.525 41.4763C102.525 41.4763 110.002 39.3295 114.665 42.7347Z" fill="#FF2A2A"/>
<path d="M102.599 41.4762C102.599 41.4762 100.23 41.6243 99.7858 38.071C99.7858 38.071 97.491 36.8866 97.639 34.4437L98.3052 33.9256L97.491 30.2243L98.0832 28.9658L98.8234 29.2619C98.8234 29.2619 102.821 33.9996 105.56 35.4061C105.56 35.4061 109.039 37.2567 109.039 39.7736L111.408 39.5515L112.296 36.7386L115.109 34.1476L116.294 33.5554L117.996 30.9645L118.588 30.8905C118.588 30.8905 119.329 34.1476 117.256 35.7022C117.256 35.7022 118.662 36.4425 118.44 38.1451C118.44 38.1451 117.848 39.3295 117.182 39.6256C117.182 39.6256 116.516 42.8087 115.183 42.8087C115.183 42.8087 111.482 39.4775 102.599 41.4762Z" fill="#FFD42A"/>
<path d="M96.0846 57.614C96.0846 57.614 108.891 47.4724 120.143 54.5789L119.625 51.3958C119.625 51.3958 109.409 45.6218 95.5664 54.5789C95.6405 54.3568 94.9002 56.2815 96.0846 57.614Z" fill="#FFD42A"/>
<path d="M104.598 53.0244C104.598 53.0244 104.82 57.392 101.563 59.1686C101.563 59.1686 102.229 62.6478 99.6379 64.9426C99.6379 64.9426 98.2314 66.3491 100.526 67.0894C100.526 67.0894 100.748 73.1595 101.266 74.64C101.266 74.64 100.526 75.9725 100.526 75.6024C100.526 75.2322 99.4898 74.492 99.4898 74.492L98.3794 75.6764L96.5288 73.1595L94.9742 73.2335L93.5677 73.3076L91.8651 73.3816L91.3469 71.827L91.2729 69.7543L92.0872 68.7179C92.0872 68.7179 92.7535 62.4257 94.6041 61.4634C94.6041 61.4634 94.9742 57.466 96.0846 57.3179C96.0846 57.3179 101.266 53.9868 104.598 53.0244Z" fill="#FFDD55"/>
<path d="M120.143 59.0947C120.143 59.0947 122.142 60.5753 121.179 63.4623C121.179 63.4623 121.697 66.8675 123.4 67.3116L124.14 68.6441L122.956 69.9766L122.438 70.1246L122.142 71.6792L120.809 71.9753L120.069 72.4194L118.366 73.6038L116.442 72.8636C116.442 72.8636 120.069 66.5714 120.143 59.0947Z" fill="#FFDD55"/>
<path d="M97.1208 76.8609C97.1208 76.8609 104.597 86.1142 117.552 77.9713L115.257 77.231L114.369 75.7505C114.369 75.7505 119.403 70.7908 120.069 59.983C120.069 59.983 121.031 56.9479 120.291 54.8752C120.291 54.8752 116.368 49.9895 104.375 53.2466C104.375 53.2466 104.672 57.318 101.859 58.8726C101.859 58.8726 101.859 63.6843 99.2676 65.2388C99.2676 65.2388 98.5273 67.0154 100.822 67.0895C100.822 67.0895 100.23 72.7155 101.414 74.4921L100.674 75.5284L97.1208 76.8609Z" fill="#FFE6D5"/>
<path d="M108.299 88.4088C110.076 88.5569 111.038 87.3725 111.038 87.3725L112.74 87.9647C113.851 88.2608 115.035 86.4101 115.035 86.4101C117.108 88.2608 118.885 85.5218 118.885 85.5218C122.142 85.5958 122.882 83.0789 122.882 83.0789C125.621 82.9309 125.177 80.0439 125.177 80.0439C124.437 79.3036 123.104 79.7478 123.104 79.7478C121.772 79.4517 122.66 77.601 122.66 77.601L117.626 77.8231C103.709 86.4841 97.195 76.6387 97.195 76.6387C97.195 76.6387 95.1963 77.3049 94.1599 78.1192C94.1599 78.1192 91.2729 78.5634 90.6807 79.4517C90.6807 79.4517 89.4963 82.0426 92.5314 81.9686C92.5314 81.9686 92.4573 84.9296 95.4924 84.0413C95.4924 84.0413 95.8625 86.7802 98.6015 85.5218C98.6015 85.5218 99.7119 88.4828 102.821 87.0023C102.821 87.0023 104.82 88.7789 106.522 87.5205L108.299 88.4088Z" fill="#FFD42A"/>
<path d="M85.2762 83.8294C85.2762 83.8294 90.3013 77.8621 94.3841 78.0715L96.3732 76.6059L86.7419 76.3965C86.7419 76.3965 86.9512 80.0606 84.9622 81.945L85.2762 83.8294Z" fill="#DDE9AF"/>
<path d="M142.436 89.3777C142.645 87.9121 141.18 82.0495 141.18 82.0495C140.761 78.0714 147.775 71.5807 147.775 71.5807L146.938 71.1619C142.645 70.2197 128.617 77.4432 128.617 77.4432C125.686 75.5588 122.231 78.0714 122.231 78.0714L122.65 79.4323C122.65 79.4323 126.733 79.3276 128.094 81.5261C128.094 81.5261 138.877 85.1902 139.191 97.6481L139.924 97.02C139.924 97.02 141.075 103.615 140.342 106.547L140.447 108.536C140.447 108.536 131.863 106.128 126.419 112.933C126.419 112.933 125.686 114.503 126.523 115.55C126.523 115.55 134.48 109.478 142.122 112.409L141.808 113.875L142.331 122.145V125.809L142.017 129.997C142.017 129.997 145.053 132.614 143.692 139.942L142.645 141.408C142.645 141.408 141.808 149.155 140.028 152.086C140.028 152.086 141.18 156.483 140.342 159.519C140.342 159.519 140.447 163.288 148.508 158.472L152.172 159.31L151.753 157.007C151.753 157.007 152.905 153.866 160.128 154.494C160.128 154.494 155.941 144.235 150.811 138.267L150.078 137.639L148.927 129.264L146.414 115.445L146.624 112.828L145.681 102.987L142.436 89.3777Z" fill="#AAD400"/>
<path d="M127.78 81.3169C127.78 81.3169 121.499 85.2951 123.488 98.7999L124.22 102.464C124.22 102.464 125.581 103.825 125.267 105.291C125.267 105.291 123.697 114.608 126.21 112.724C126.21 112.724 131.13 106.338 140.343 108.536C140.343 108.536 141.285 100.475 139.819 97.7531L139.714 97.0202L138.877 97.5437C138.877 97.5437 139.296 89.4826 133.747 84.7717C133.747 84.7717 128.617 81.0029 127.78 81.3169Z" fill="#2A7FFF"/>
<path d="M77.5291 32.1132C77.5291 32.1132 83.3917 36.1961 84.3339 44.4665L84.8573 48.9681L85.0667 53.0509L84.962 55.3541L85.2761 59.2276C85.2761 59.2276 85.4855 60.9026 85.5901 61.6354C85.6948 62.3682 86.0089 65.1948 86.0089 65.1948L85.9042 68.3355L85.1714 71.7902V73.0465L86.637 75.9778C86.637 75.9778 86.637 81.1075 84.7526 82.5732L85.3808 83.7247L85.2761 88.5404L84.648 90.4248L83.8104 96.8108V97.9624L83.3917 102.045L82.9729 104.872V106.442L82.8682 108.431L82.5542 111.363L81.9261 113.561L81.8214 115.655L81.7167 118.063L81.1932 118.481C81.1932 118.481 77.8432 115.864 72.19 118.377C72.19 118.377 71.2478 106.861 69.0494 103.302C69.0494 103.302 63.2915 93.1467 63.3961 88.2263C63.3961 88.2263 59.6274 81.631 60.7789 76.1871C60.7789 76.1871 55.1257 65.4042 57.743 59.2276L58.4758 41.1164L61.5118 35.3586C61.5118 35.3586 62.3493 32.1132 68.7353 29.8101C68.7353 29.8101 73.865 30.6476 75.226 31.3804L77.5291 32.1132Z" fill="#AAD400"/>
<path d="M74.987 145.335C72.6182 138.969 74.6909 132.306 74.6909 132.306C74.6909 132.306 78.6883 131.27 80.9091 128.457L80.3169 141.634C80.3169 141.634 78.8364 151.257 74.987 145.335Z" fill="#E5FF80"/>
<path d="M74.395 133.047C70.5457 134.971 69.2132 130.234 69.2132 130.234C66.5483 129.345 67.7327 126.236 67.7327 126.236C66.2522 123.423 68.4729 121.943 68.4729 121.943C68.621 116.909 71.7301 118.834 71.7301 118.834C72.6184 114.54 69.0651 102.548 69.0651 102.548C69.0651 102.548 65.808 111.875 65.808 114.392C65.808 114.392 60.9223 118.686 61.3664 127.865C61.3664 127.865 62.995 140.153 74.395 133.047Z" fill="#FF2A2A"/>
<path d="M72.1741 118.538C72.1741 118.538 68.0286 117.649 68.6208 121.943C68.6208 121.943 65.9559 123.571 67.8806 126.236C67.8806 126.236 66.252 129.641 69.3611 130.53C69.3611 130.53 71.2858 134.675 74.0988 133.195C74.0988 133.195 66.9923 125.792 72.1741 118.538Z" fill="#FFE680"/>
<path d="M72.1742 118.538C72.1742 118.538 76.9119 115.725 81.9456 118.982C81.9456 118.982 84.0184 119.722 81.7976 121.795C81.7976 121.795 83.4262 121.35 82.2418 124.015C82.2418 124.015 82.834 125.644 81.2054 126.384C81.2054 126.384 83.7223 125.052 81.7976 128.161C81.7976 128.161 75.5794 132.454 74.0989 132.751C74.0989 132.751 66.9924 126.532 72.1742 118.538Z" fill="#FFE6D5"/>
<path d="M125.177 79.8958C126.213 80.0439 127.842 81.2283 127.842 81.2283C119.995 88.6309 124.437 102.696 124.437 102.696L125.029 103.584L125.325 105.361L124.437 110.247L124.881 112.023C124.881 117.057 120.735 122.387 120.735 122.387L119.403 121.795L114.813 120.462L110.964 118.685C103.709 114.984 103.117 108.47 103.117 108.47C105.042 107.73 106.522 103.288 106.522 103.288L108.299 102.844C110.224 100.623 107.707 99.2906 107.707 99.2906C109.039 95.7374 105.93 92.0361 105.93 92.0361C106.966 91.2958 106.522 89.9634 106.522 89.9634L104.746 88.7789C103.709 87.4465 102.673 91.2958 102.673 91.2958C98.2314 92.6283 97.047 98.6984 97.047 98.6984C93.4937 100.623 97.1951 102.844 97.1951 102.844L97.4912 104.028C97.4912 106.249 99.5639 108.026 100.304 108.026C99.86 114.096 94.9743 116.169 94.9743 116.169C89.0522 118.537 85.795 122.683 85.795 122.683C82.5379 116.909 84.1664 106.841 84.1664 106.841L82.834 110.691L82.982 107.137L83.1301 103.732L83.5742 102.548C83.5742 102.548 83.7223 98.9945 83.7223 97.366C83.7223 95.7374 84.6106 93.5166 84.6106 93.5166L84.4625 89.9634L85.2028 88.4828L85.0548 83.7452L90.6808 79.4517C90.6808 79.4517 89.8302 82.0495 92.3951 81.9448C92.3951 81.9448 92.5521 84.8237 95.5881 84.0909C95.5881 84.0909 95.274 86.4464 98.6241 85.6613C98.6241 85.6613 99.6186 88.3308 102.602 86.8128C102.602 86.8128 104.748 89.273 106.371 87.441C106.371 87.441 108.569 89.7441 110.925 87.441C110.925 87.441 113.647 88.5925 114.641 86.5511C114.641 86.5511 116.788 88.2785 119.091 85.3995C119.091 85.3995 122.074 85.5566 122.912 83.0964C122.912 83.0964 125.453 82.6625 125.177 79.8958Z" fill="#FF2A2A"/>
<path d="M123.03 122.757C126.657 127.569 123.252 131.048 123.252 131.048L122.364 130.16C122.29 123.349 109.853 120.61 109.853 120.61C104.524 119.426 101.859 114.022 101.859 114.022C100.674 116.613 93.1235 121.277 93.1235 121.277C87.2014 123.201 86.2391 128.013 86.2391 128.013L84.5365 128.309C81.9456 122.165 93.9378 116.761 93.9378 116.761C99.1937 113.652 99.7859 110.395 99.7859 110.395L99.8599 107.952C99.8599 107.952 97.8612 107.73 97.269 103.658C97.269 103.658 95.6404 102.252 95.4924 101.067C95.4924 101.067 94.7521 99.1428 96.8989 98.6986C96.8989 98.6986 97.343 93.8129 102.451 91.5181L103.043 90.7038C103.043 90.7038 103.117 88.7051 104.079 88.7051L105.856 89.5934L106.522 90.3337C106.522 90.3337 107.04 91.5921 105.782 92.3324C105.782 92.3324 108.817 95.3674 107.707 99.2908C107.707 99.2908 109.927 100.179 108.521 102.474C108.521 102.474 107.781 103.436 106.522 103.436C106.522 103.436 104.82 107.878 103.043 108.47C103.043 108.47 103.709 116.687 114.887 120.61L117.552 121.128L120.587 122.461C120.587 122.461 124.807 117.057 124.733 111.949C124.733 111.949 124.881 112.838 125.991 112.986L126.065 114.466L126.731 115.428L125.473 116.687C125.473 116.687 124.881 120.98 123.03 122.757Z" fill="#FFD42A"/>
<path d="M101.192 121.276L103.117 120.98L103.635 119.426L103.413 118.167L102.303 117.501L101.414 117.649L100.23 118.463L99.7859 119.574L100.156 120.758L101.192 121.276Z" fill="#FFD42A"/>
<path d="M87.4234 114.614C87.4234 114.614 88.6818 114.022 89.126 114.91C89.126 114.91 89.6442 115.28 90.3104 114.244C90.3104 114.244 91.1247 113.8 89.8663 111.653C89.8663 111.653 88.8299 112.319 87.9416 112.171C87.9416 112.171 86.5351 110.913 87.3494 109.58C87.3494 109.58 88.6819 106.323 92.2351 108.396C92.2351 108.396 93.4936 105.065 95.7884 105.361C95.7884 105.361 98.0092 106.101 97.491 108.544C97.491 108.544 94.826 110.987 94.2338 108.84C94.2338 108.84 93.3455 109.728 93.4935 110.913C93.4935 110.913 94.9 114.022 92.013 114.762L91.5689 116.465C91.5689 116.465 90.6066 119.204 88.1637 117.575C88.1637 117.575 85.4247 115.799 87.4234 114.614Z" fill="#FFD42A"/>
<path d="M110.224 114.17C110.15 115.28 111.778 117.057 111.778 117.057C112.444 118.464 115.998 117.871 115.998 117.871C117.108 120.758 120.365 120.314 120.365 120.314C121.476 119.944 120.513 119.056 120.513 119.056C118.515 118.834 118.811 117.427 118.811 117.427C120.661 118.241 120.143 115.799 120.143 115.799C117.848 113.948 116.59 116.317 116.59 116.317L115.109 114.614C113.703 113.282 113.555 112.097 113.555 112.097C114.147 112.541 115.998 112.245 115.998 112.245C117.7 111.801 116.96 110.469 116.96 110.469C116.886 109.136 116.22 108.322 116.22 108.322C115.035 106.101 112.37 108.692 112.37 108.692L109.928 106.175C108.447 104.473 106.226 106.841 106.226 106.841C104.894 109.284 106.226 110.839 106.226 110.839C107.041 111.357 108.373 110.617 108.373 110.617C109.039 110.025 108.299 108.322 108.299 108.322C108.299 108.322 111.038 109.21 108.743 111.875C108.743 111.875 107.189 112.467 107.411 113.874C108.225 115.503 110.224 114.17 110.224 114.17Z" fill="#FFDD55"/>
<path d="M135.096 99.8086C136.799 97.5879 136.281 93.3684 136.281 93.3684C135.763 91.7398 132.357 90.8515 132.357 90.8515L131.839 89.593C130.285 87.6684 128.804 90.1112 128.804 90.1112L127.472 90.7034C127.472 90.7034 126.731 92.8502 127.768 94.1827C127.768 94.1827 126.139 95.8112 127.916 96.8476C127.916 96.8476 126.287 100.475 129.1 102.103C129.1 102.103 127.768 105.509 128.952 106.767C128.952 106.767 129.248 108.026 131.395 106.915L131.321 104.62C131.321 104.62 131.395 102.548 134.578 102.103C134.578 102.103 133.69 104.25 135.096 104.398L135.615 104.694L136.429 104.324L137.391 102.622L137.095 101.363C137.095 101.363 136.577 99.6606 135.985 99.8827L134.8 100.623L135.096 99.8086Z" fill="#FFD42A"/>
<path d="M121.475 130.974C104.598 124.904 86.7418 130.206 86.7418 130.206C84.8574 127.066 89.0449 123.716 89.0449 123.716C89.0449 123.716 108.891 120.314 118.366 124.312C118.366 124.312 123.4 126.532 121.475 130.974Z" fill="#D5FFF6"/>
<path d="M114.295 147.038C113.629 149.333 112.37 148.444 112.37 148.444C111.186 147.778 110.371 144.595 110.371 144.595L108.817 146.742C104.746 145.335 102.229 134.009 102.229 134.009L102.007 131.196L97.417 140.82L95.7144 143.559L94.6039 144.373L93.3455 144.595L91.865 144.299L90.6806 145.927L89.052 145.779L87.5715 144.891L85.9429 145.631L84.9065 145.483L84.3143 144.743L82.5377 146.075C78.5403 144.151 82.8338 138.969 82.8338 138.969C81.0572 134.083 86.6832 129.346 86.6832 129.346L86.9052 130.086L89.2741 129.568C89.2741 129.568 102.895 126.31 117.404 129.79L121.253 130.9L122.216 130.012L123.252 130.974L122.734 132.084C122.734 132.084 126.879 138.081 128.138 148.962L127.768 152.22L124.955 150.221C124.955 150.221 121.549 153.552 119.255 148.888C119.255 148.888 116.886 152.22 114.295 147.038Z" fill="#FFD42A"/>
<path d="M77.3559 152.59C77.3559 152.59 78.5404 155.847 76.6157 157.179L75.2832 179.091L78.3923 180.719V182.644H80.317L81.0573 185.013C81.0573 185.013 85.6468 186.493 86.2391 183.977C86.2391 183.977 89.6443 185.309 90.9768 184.421C90.9768 184.421 92.3092 186.049 95.1222 184.717C95.1222 184.717 97.343 186.938 100.896 185.309C100.896 185.309 100.452 187.974 106.374 185.309C106.374 185.309 107.114 188.122 111.852 185.605C111.852 185.605 112.74 188.27 117.922 185.457C117.922 185.457 119.107 187.53 122.068 184.865V183.829L123.548 183.68C123.548 183.68 123.844 185.605 126.805 183.236L129.914 181.016L127.101 151.405L124.881 150.517C124.881 150.517 122.512 151.997 121.475 151.257L119.181 148.814L118.514 149.628L116.886 149.703L116.146 149.628L114.147 146.815C114.147 146.815 113.333 151.923 110.298 144.965L108.965 146.593L108.151 146.519C108.151 146.519 102.007 138.673 102.007 131.936L101.711 131.27L98.6755 138.08L96.9728 142.152L95.4183 144.151C95.4183 144.151 92.9755 145.261 92.0131 144.299C92.0131 144.299 89.7923 147.63 87.8677 145.187L87.6456 144.669L86.1651 145.409C86.1651 145.409 84.9806 146.075 84.4624 144.817C84.4624 144.817 81.9456 146.741 81.3534 145.113L80.6871 146.519C80.6871 146.519 80.9092 148 79.7248 148.592C79.7248 148.592 80.7611 149.48 80.391 150.443C80.391 150.443 80.6131 151.923 77.3559 152.59Z" fill="#2A7FFF"/>
<path d="M127.466 114.503L127.78 123.402L128.827 123.611C128.827 123.611 126.523 126.228 128.303 128.113C128.303 128.113 126.419 129.055 128.198 130.311C128.198 130.311 127.361 133.347 128.617 134.499L128.198 147.166L127.884 152.505L127.361 151.877L127.047 154.494L127.78 160.357C127.78 160.357 130.502 166.638 137.83 159.624C137.83 159.624 139.086 159.415 138.563 157.112V156.065L140.238 153.552V152.086C140.238 152.086 144.53 141.722 141.703 134.08L140.866 132.928L141.285 131.358C141.285 131.358 143.274 128.322 142.227 124.763C142.227 124.763 142.75 117.225 141.913 113.98L142.122 112.514C142.122 112.514 135.527 109.792 127.466 114.503Z" fill="#FF2A2A"/>
<path d="M127.78 163.183C127.78 163.183 130.397 167.685 138.563 163.183C138.563 163.183 143.588 163.916 147.357 161.403C147.357 161.403 151.649 162.136 152.486 160.252L152.068 159.1L148.403 158.472C148.403 158.472 144.844 161.194 141.075 160.775L140.133 159.414L140.552 155.122L140.028 153.552L138.249 156.588C138.249 156.588 139.191 158.472 138.563 159.1C138.563 159.1 134.794 162.869 131.967 162.974C131.967 162.974 128.827 162.346 127.884 160.775L127.78 163.183Z" fill="#FFDD55"/>
<path d="M133.852 180.666C128.199 177.84 129.978 164.335 129.978 164.335C129.978 164.335 130.816 166.533 137.411 163.812C137.411 163.812 139.086 164.963 139.086 170.93L140.238 169.36L140.971 169.465L141.18 171.349V172.396L142.122 173.757L141.389 174.699L140.238 175.223L139.714 176.479L137.83 177.107L137.202 177.735L136.888 178.154L138.772 178.887V179.724C138.772 179.724 138.667 181.713 133.852 180.666Z" fill="#FFE6D5"/>
<path d="M90.8246 184.644C91.2433 185.796 95.0121 184.854 95.0121 184.854C95.9543 186.424 100.665 185.587 100.665 185.587C101.398 187.89 106.109 185.272 106.109 185.272C106.737 187.576 111.344 185.796 111.344 185.796L111.972 186.319C113.647 187.994 117.73 185.691 117.73 185.691C118.776 187.366 121.394 185.691 121.394 185.691C122.126 185.587 122.231 183.702 122.231 183.702L123.592 183.807L124.116 184.644L126 184.016L125.791 186.843C124.116 185.796 122.545 187.994 122.545 187.994C109.459 191.24 88.5214 188.308 88.5214 188.308L87.998 186.947L85.3808 186.738L84.6479 185.482C84.6479 185.482 86.0089 185.063 86.1136 184.226L89.0449 184.435L90.8246 184.644Z" fill="#216778"/>
<path d="M99.9327 214.481C98.8858 210.921 97.0014 211.235 97.0014 211.235L97.5249 204.221C92.4998 195.323 93.3373 188.832 93.3373 188.832L88.5216 188.308L87.9982 186.843H85.0669L88.9404 198.149C88.9404 198.149 87.6841 202.651 90.092 211.654L90.8248 212.701L90.406 216.574C90.406 216.574 92.4998 233.325 94.4889 238.873L96.0592 247.039L96.8967 251.017L97.7342 255.309L97.9436 258.659L98.4671 264.731C98.4671 264.731 100.351 263.998 101.189 269.547L104.225 269.756L103.911 264.417L102.445 257.403L101.398 251.122L100.037 244.317C100.037 244.317 99.0952 233.325 98.9905 227.881C98.4671 225.159 99.9327 214.481 99.9327 214.481Z" fill="#FFD42A"/>
<path d="M115.113 211.445C111.03 207.676 113.123 204.85 113.123 204.85C115.008 203.07 113.961 201.604 113.961 201.604C109.878 196.579 110.506 189.46 110.506 189.46L102.236 189.251C102.236 189.251 102.236 196.893 106.842 201.395V202.756C106.842 202.756 105.377 210.817 110.82 218.145L111.134 219.192C111.134 219.192 109.25 232.173 109.983 237.827L112.077 243.794L113.228 246.516L114.066 249.656C114.066 249.656 117.206 262.638 115.95 270.385L115.427 271.536L116.997 274.572L119.091 271.641L119.928 265.255L120.033 256.985V252.378L119.509 245.259L119.3 240.862L118.777 234.267L117.834 227.253L116.892 222.437C116.892 222.437 116.788 218.145 116.788 216.993C116.788 216.993 115.322 216.365 114.798 215.004C113.647 213.539 115.113 211.445 115.113 211.445Z" fill="#FFD42A"/>
<path d="M106.528 200.976C102.445 197.731 102.131 189.46 102.131 189.46L93.1279 188.832C93.1279 188.832 93.3373 198.882 97.2108 203.593L97.0014 211.235C97.0014 211.235 98.8858 211.235 99.9327 214.585C99.9327 214.585 98.153 231.022 99.0952 235L100.037 243.27L101.922 254.053L102.864 260.02L103.492 263.37L103.806 265.674L104.12 269.966L106.528 269.233L106.842 266.511L106.947 257.194L107.68 254.053C107.68 254.053 107.47 244.631 107.47 243.898C107.47 243.165 106.842 234.058 106.842 234.058C106.842 234.058 109.041 230.498 107.47 222.437C107.575 222.123 105.586 213.015 105.586 213.015L104.644 209.351L106.528 200.976Z" fill="#FF0000"/>
<path d="M122.231 211.026C124.325 206.42 125.791 186.738 125.791 186.738C123.697 186.005 122.859 187.89 122.859 187.89C120.766 189.251 110.401 189.565 110.401 189.565C110.401 189.565 110.611 197.312 113.333 201.08C113.333 201.08 114.798 201.499 114.275 203.279C114.275 203.279 112.39 205.163 112.6 206.943C112.6 206.943 113.228 210.398 114.798 210.712L114.275 213.643C114.275 213.643 114.589 215.842 116.683 216.888V221.913C116.683 221.913 119.823 236.465 119.3 243.27C119.3 243.27 120.766 262.428 119.823 265.778L119.195 270.803C119.195 270.803 121.184 268.186 123.592 268.395L123.697 265.464C123.697 265.464 124.22 261.381 124.22 260.962C124.22 260.544 125.686 253.006 125.686 253.006L126.733 247.248L127.78 242.851L128.094 234.685L127.361 227.881C127.361 227.881 124.848 217.621 123.906 216.784C122.964 215.946 121.917 213.434 121.917 213.434L122.231 211.026Z" fill="#FF2A2A"/>
<path d="M108.098 274.991C108.517 272.373 106.947 268.605 106.947 268.605C105.795 270.698 100.98 269.547 100.98 269.547C101.084 266.93 98.5717 264.417 98.5717 264.417L92.6044 269.547L90.8247 272.164L89.045 271.641L87.5794 273.211L83.4965 275.305L80.67 277.398C80.67 277.398 79.2043 277.922 79.9371 279.178C79.9371 279.178 82.0309 280.33 83.9153 279.806L90.8247 279.492C90.8247 279.492 94.4889 279.178 97.0014 276.351C97.0014 276.351 106.737 276.142 108.098 274.991Z" fill="#AAD400"/>
<path d="M132.072 292.055C133.119 292.16 133.747 289.647 133.747 289.647C133.433 287.03 131.549 286.821 131.549 286.821C131.235 281.9 127.256 280.12 127.256 280.12C127.885 276.77 123.383 269.023 123.383 269.023C120.556 267.034 117.416 274.363 117.416 274.363L115.845 272.269H115.113C115.113 272.269 113.752 280.016 119.405 281.691C119.405 281.691 120.242 286.192 123.697 287.972L126.942 289.438L132.072 292.055Z" fill="#AAD400"/>
<path d="M60.9884 127.38C60.9884 127.38 52.6133 142.036 52.8227 151.249C52.8227 151.249 53.3462 154.599 62.14 152.296L63.0822 149.05C63.0822 149.05 69.887 145.805 73.7605 147.689L74.2839 143.607C74.2839 143.607 73.1323 137.011 74.3886 133.138L70.9339 134.708C70.9339 134.708 63.815 138.791 60.9884 127.38Z" fill="#2A7FFF"/>
<path d="M52.9275 151.667C52.9275 151.667 49.6822 151.667 48.7399 160.461L47.0649 164.021V164.858C47.0649 164.858 56.9057 165.382 60.2557 167.79L63.9198 169.36L67.6886 168.313L69.0496 159.205L71.1433 159.31C71.1433 159.31 75.1215 158.472 76.2731 157.53C76.2731 157.53 78.6809 155.75 77.32 152.819C77.32 152.819 80.984 152.505 80.67 149.574L79.7278 148.632L80.5653 148.108V146.119C80.5653 146.119 81.4028 145.491 81.5075 144.967L80.67 143.606L79.8325 144.13C79.8325 144.13 78.3669 147.061 77.5293 147.166C77.5293 147.166 74.9121 146.538 74.284 144.13L73.6559 147.48C73.6559 147.48 68.6308 145.386 62.8729 149.364L62.3495 152.086C62.3495 152.086 54.9166 154.913 52.9275 151.667Z" fill="#FFD42A"/>
<path d="M128.198 163.812L129.873 164.649C129.873 164.649 128.303 176.584 133.328 180.143C132.177 181.085 129.769 180.771 129.769 180.771L128.198 163.812Z" fill="#AFDDE9"/>
<path d="M126.065 183.532C126.065 183.532 124.733 206.184 122.068 211.366C122.068 211.366 122.068 211.662 121.92 213.439C121.92 213.439 131.839 229.577 126.657 247.195L123.104 268.81C123.104 268.81 128.138 276.657 127.25 280.358C127.25 280.358 131.543 281.987 131.543 286.132C131.543 286.132 136.725 289.834 132.135 291.907L125.029 288.649C125.029 288.649 121.031 288.353 119.403 281.691C119.403 281.691 114.517 281.395 114.813 273.844L115.701 270.587C115.701 270.587 116.146 255.93 113.481 247.047C113.481 247.047 109.483 237.719 109.779 235.499C109.779 235.499 109.927 223.506 111.112 218.621C111.112 218.621 107.114 211.366 107.114 207.813C107.114 207.813 106.522 204.408 106.966 202.335L106.078 200.41C106.078 200.41 105.782 207.517 104.598 209.59C104.598 209.59 108.447 224.691 108.299 228.54C108.299 228.54 108.003 232.982 106.966 234.018C106.966 234.018 108.447 252.821 107.262 255.782C107.262 255.782 106.226 267.922 107.114 269.403C107.114 269.403 110.224 275.177 105.93 275.769C105.93 275.769 99.7118 275.917 97.195 276.213C97.195 276.213 94.0858 279.174 90.6807 279.47C90.6807 279.47 83.5741 280.062 82.2417 280.21C82.2417 280.21 77.8001 279.47 81.3534 276.509C81.3534 276.509 86.6832 273.696 88.4599 272.364C88.4599 272.364 89.9404 271.179 90.6807 271.919C90.6807 271.919 95.4183 265.701 98.5274 265.109C98.5274 265.109 98.8235 257.262 95.8625 245.418C95.8625 245.418 89.0521 221.434 90.8287 213.143C90.8287 213.143 87.2754 202.187 88.904 197.893L84.6105 185.457L81.2053 184.865L80.7612 182.792H78.8365L78.5404 180.719L75.4313 179.387L76.6157 156.735C76.6157 156.735 74.8391 159.696 69.2131 158.808L67.8806 167.987C67.8806 167.987 66.9923 170.356 62.2546 168.875C62.2546 168.875 56.3325 166.062 53.8156 165.766C53.8156 165.766 51.2988 164.434 47.1533 165.026C47.1533 165.026 46.1169 163.989 48.93 160.436C48.93 160.436 49.3741 153.182 52.7793 151.405C52.7793 151.405 56.6287 130.826 61.3663 126.828C61.3663 126.828 61.0702 118.982 65.5118 114.836C65.5118 114.836 67.5845 104.324 69.2131 103.14C69.2131 103.14 62.8468 92.6283 63.5871 88.4829C63.5871 88.4829 59.4416 81.5244 60.9222 76.1946C60.9222 76.1946 54.704 63.9062 57.665 59.6127C57.665 59.6127 57.665 41.5504 59.7377 39.0335C59.7377 39.0335 63.8832 27.0412 74.543 30.8906L76.4676 32.075C76.4676 32.075 82.2417 33.2594 84.0183 43.9192C84.0183 43.9192 86.091 51.3218 84.9066 54.5789C84.9066 54.5789 87.1274 67.4595 85.2027 72.9374L86.8313 76.3426L96.6027 76.9348L100.6 75.6023L99.2677 74.566C99.2677 74.566 98.8235 75.6023 98.0833 75.4543L96.4547 72.9374C96.4547 72.9374 95.8625 73.5296 94.0858 73.2335C94.0858 73.2335 92.9014 73.8257 92.0131 73.3816C92.0131 73.3816 89.7923 71.3088 92.0131 68.792C92.0131 68.792 92.7534 62.2777 94.9742 61.3893C94.9742 61.3893 93.9378 59.0205 96.3066 57.2439C96.3066 57.2439 94.0858 55.9114 95.8625 53.8387C95.8625 53.8387 97.6391 43.475 102.377 41.6984C102.377 41.6984 99.4157 40.2179 99.7118 37.9971C99.7118 37.9971 96.6027 36.6646 98.3794 33.8516C98.3794 33.8516 96.4547 28.8179 98.5274 28.8179C98.5274 28.8179 102.525 34.5919 106.818 35.9244C106.818 35.9244 109.335 37.9971 108.891 40.0698L111.26 39.9218C111.26 39.9218 110.372 37.5529 116.294 33.4075C116.294 33.4075 117.626 30.4464 118.811 31.0387C118.811 31.0387 119.255 34.4439 117.182 35.4802C117.182 35.4802 120.291 38.4413 117.034 39.4776C117.034 39.4776 117.478 43.327 114.369 42.7348C114.369 42.7348 119.403 45.6958 119.847 53.8387C119.847 53.8387 120.135 56.8744 119.996 59.1686C119.996 59.1686 122.068 59.3166 121.179 63.4621C121.179 63.4621 121.031 67.3114 123.844 67.7556C123.844 67.7556 125.769 69.5322 122.66 69.8283C122.66 69.8283 122.808 72.3452 119.995 72.3452C119.995 72.3452 118.514 74.4179 116.59 72.9374C116.59 72.9374 115.257 75.3062 114.369 75.7504C114.369 75.7504 114.369 76.9348 115.553 77.379C115.553 77.379 117.774 78.4153 122.66 77.8231C122.66 77.8231 124.733 75.8985 128.878 77.379C128.878 77.379 144.868 68.94 147.533 71.753C144.424 75.3062 141.166 79.5998 141.166 82.1166C141.166 82.1166 142.795 87.0024 142.203 89.5193C142.203 89.5193 146.94 101.956 146.348 114.688C146.348 114.688 149.605 133.195 150.198 137.784C150.198 137.784 157.304 145.927 159.969 154.218C159.969 154.218 152.714 154.514 151.678 156.883C151.826 158.956 153.455 161.769 149.457 161.621L147.089 161.473C147.089 161.473 142.647 164.434 138.501 162.953L137.021 163.841C137.021 163.841 138.946 162.805 138.946 168.727L139.094 170.948C139.094 170.948 141.314 166.506 141.314 172.577C141.314 172.577 142.795 174.205 140.426 175.389C140.426 175.389 139.686 177.166 137.465 177.018C137.465 177.018 136.873 178.499 135.985 178.499C135.985 178.499 138.946 177.906 138.946 179.535C138.946 179.535 138.946 182.2 133.172 180.423C133.172 180.423 132.135 181.164 130.359 180.571C130.359 180.571 127.25 183.68 126.065 183.532Z" stroke="black"/>
<path d="M105.272 58.3898C108.766 55.5613 108.361 56.634 112.034 56.355C112.034 56.355 113.573 56.3874 113.321 56.9083C113.161 57.2405 112.821 57.3369 112.495 57.5C112.495 57.5 108.988 55.7203 105.272 58.3898Z" fill="black"/>
<path d="M120.094 57.0362C120.094 57.1327 118.507 55.9676 115.785 56.804C115.785 56.804 114.275 57.4999 115.793 61.0069C115.793 61.0069 117.416 65.2468 115.479 65.3515C115.479 65.3515 114.694 64.7757 113.752 65.1422C113.752 65.1422 112.809 65.875 112.862 64.6711C112.862 64.6711 112.234 63.9382 112.548 65.3515C112.548 65.3515 113.176 66.2937 114.537 65.875C114.537 65.875 115.257 65.5355 115.676 66.0066C115.676 66.0066 117.203 65.3621 117.049 63.8335C117.06 63.8708 116.78 63.1612 116.508 62.1719C115.787 59.5396 115.055 55.375 120.115 57.5815L120.094 57.0362Z" fill="black"/>
<path d="M111.501 68.126C111.501 68.126 112.39 66.8174 112.862 67.4979C112.862 67.4979 113.856 67.9166 115.636 67.5502C115.636 67.5502 116.482 67.0881 116.473 68.4924C115.833 68.108 114.212 69.2191 112.495 68.2831L111.187 68.7542L111.501 68.126Z" fill="black"/>
<path d="M115.112 71.3191C114.013 70.6386 112.233 71.2667 112.233 71.2667L112.705 71.6331C112.705 71.6331 113.751 71.3191 114.275 71.6855L115.112 71.3191Z" fill="black"/>
<path d="M113.071 69.2251C113.071 69.2251 113.647 69.9579 115.322 69.3298C115.322 69.3298 116.002 69.9056 115.165 70.272C115.278 70.0449 113.653 70.2587 112.914 70.0626C112.233 69.7485 113.071 69.2251 113.071 69.2251Z" fill="black"/>
<path d="M128.199 86.4463C128.199 86.4463 127.989 87.9119 126.733 89.5869" stroke="black" stroke-width="0.50913" stroke-linecap="round"/>
<path d="M127.152 92.0999C127.152 92.0999 126.942 90.1108 128.827 90.2155C128.827 90.2155 130.502 86.9701 132.386 90.7389C132.386 90.7389 139.505 91.7858 135.003 100.161C135.003 100.161 137.411 99.0093 137.411 103.197C137.411 103.197 135.946 106.442 134.166 103.511C134.166 103.511 134.166 102.255 134.689 102.15C134.689 102.15 130.606 102.464 131.235 105.5C131.235 105.5 131.967 107.489 129.978 107.489" stroke="black" stroke-width="0.50913" stroke-linecap="round"/>
<path d="M131.235 95.0308L133.014 93.4604C133.014 93.4604 134.794 97.9621 131.13 100.579" stroke="black" stroke-width="0.50913" stroke-linecap="round"/>
<path d="M131.549 91.2622C131.549 91.2622 128.094 92.5185 129.978 94.5076" stroke="black" stroke-width="0.50913" stroke-linecap="round"/>
<path d="M127.675 94.0889C127.675 94.0889 126.524 95.7639 128.094 96.7061C128.094 96.7061 126.419 100.789 129.141 102.045C129.141 102.045 127.361 105.709 128.931 106.756" stroke="black" stroke-width="0.449233" stroke-linecap="round"/>
<path d="M130.083 96.6011C130.083 96.6011 132.072 96.4964 131.025 99.2183" stroke="black" stroke-width="0.50913" stroke-linecap="round"/>
<path d="M97.4724 56.2962C97.4724 56.2962 109.04 48.9156 118.934 53.7313" stroke="black" stroke-width="0.50913" stroke-linecap="round" stroke-linejoin="round"/>
<path d="M97.0015 53.5218C97.0015 53.5218 106.737 47.1357 118.41 50.9569" stroke="black" stroke-width="0.50913" stroke-linecap="round" stroke-linejoin="round"/>
<path d="M111.553 42.0586C111.553 42.0586 115.217 45.5657 115.531 48.811" stroke="black" stroke-width="0.50913" stroke-linecap="round" stroke-linejoin="round"/>
<path d="M106.842 41.4302C106.842 41.4302 102.34 44.4138 102.079 49.6482" stroke="black" stroke-width="0.50913" stroke-linecap="round" stroke-linejoin="round"/>
<path d="M103.178 42.9482C103.178 42.9482 100.718 46.1936 100.613 50.3811" stroke="black" stroke-width="0.50913" stroke-linecap="round" stroke-linejoin="round"/>
<path d="M104.487 54.0454C104.487 54.0454 103.911 56.8197 102.445 58.4947" stroke="black" stroke-width="0.50913" stroke-linecap="round" stroke-linejoin="round"/>
<path d="M103.021 54.5688C103.021 54.5688 103.23 56.3485 101.66 57.6572" stroke="black" stroke-width="0.50913" stroke-linecap="round" stroke-linejoin="round"/>
<path d="M101.712 59.0181C101.712 59.0181 101.869 63.5197 99.3046 65.1947C99.3046 65.1947 98.6241 66.608 100.718 67.0267C100.718 67.0267 100.194 72.4706 101.451 74.5643" stroke="black" stroke-width="0.50913" stroke-linecap="round" stroke-linejoin="round"/>
<path d="M102.655 70.0103C102.655 70.0103 107.156 77.7572 112.809 74.7736C112.809 74.7736 113.49 76.0299 115.374 74.8259" stroke="black" stroke-width="0.50913" stroke-linecap="round" stroke-linejoin="round"/>
<path d="M119.823 59.0181C119.823 59.0181 119.823 68.283 116.212 72.994" stroke="black" stroke-width="0.50913" stroke-linecap="round" stroke-linejoin="round"/>
<path d="M119.614 65.5088C119.614 65.5088 120.347 68.9635 121.812 69.1729" stroke="black" stroke-width="0.50913" stroke-linecap="round" stroke-linejoin="round"/>
<path d="M119.457 68.0215C119.457 68.0215 119.98 69.5395 120.609 69.7489" stroke="black" stroke-width="0.50913" stroke-linecap="round" stroke-linejoin="round"/>
<path d="M118.567 69.6963C118.567 69.6963 118.672 72.1041 120.294 72.2612" stroke="black" stroke-width="0.50913" stroke-linecap="round" stroke-linejoin="round"/>
<path d="M100.77 55.4062C100.77 55.4062 99.6186 58.6516 98.4671 59.4891C98.4671 59.4891 98.9381 60.9024 97.9436 61.3735C97.9436 61.3735 98.0483 62.8391 97.0538 63.4673C97.0538 63.4673 96.3733 65.9275 95.4834 66.3986C95.4834 66.3986 96.792 68.9634 95.3264 70.272L94.3842 69.7486C94.3842 69.7486 94.4889 71.8424 93.6514 72.2611" stroke="black" stroke-width="0.50913" stroke-linecap="round" stroke-linejoin="round"/>
<path d="M98.5718 66.7129C98.5718 66.7129 97.6296 71.3715 95.9546 71.4762" stroke="black" stroke-width="0.50913" stroke-linecap="round" stroke-linejoin="round"/>
<path d="M99.3569 67.9688C99.3569 67.9688 99.0428 70.6907 97.5771 71.5282" stroke="black" stroke-width="0.50913" stroke-linecap="round" stroke-linejoin="round"/>
<path d="M99.9849 69.7485C99.9849 69.7485 99.6708 71.6853 98.5193 72.4181" stroke="black" stroke-width="0.50913" stroke-linecap="round" stroke-linejoin="round"/>
<path d="M100.142 72.3657L99.3044 73.465L100.142 72.9939" stroke="black" stroke-width="0.50913" stroke-linecap="round" stroke-linejoin="round"/>
<path d="M98.5193 57.814L97.7341 58.9655" stroke="black" stroke-width="0.50913" stroke-linecap="round" stroke-linejoin="round"/>
<path d="M95.5357 62.3682C95.5357 62.3682 94.3317 63.1533 94.2271 65.4565" stroke="black" stroke-width="0.50913" stroke-linecap="round" stroke-linejoin="round"/>
<path d="M100.351 78.2286C100.351 78.2286 101.922 78.0192 101.032 75.6113" stroke="black" stroke-width="0.50913" stroke-linecap="round" stroke-linejoin="round"/>
<path d="M97.7341 77.7573C97.7341 77.7573 104.277 84.8762 116.892 78.7519" stroke="black" stroke-width="0.50913" stroke-linecap="round" stroke-linejoin="round"/>
<path d="M95.0122 78.438C95.0122 78.438 105.167 88.9069 120.242 79.4325" stroke="black" stroke-width="0.50913" stroke-linecap="round" stroke-linejoin="round"/>
<path d="M94.4366 78.1759C94.4366 78.1759 91.9764 77.2337 85.9568 83.0962" stroke="black" stroke-width="0.50913" stroke-linecap="round" stroke-linejoin="round"/>
<path d="M90.5629 79.6416C90.5629 79.6416 89.6207 82.1541 92.8137 81.8924C92.8137 81.8924 92.0286 85.1901 95.745 83.9862C95.745 83.9862 95.2739 86.6557 98.7286 85.6089C98.7286 85.6089 99.8279 88.3831 102.759 86.8128C102.759 86.8128 104.958 89.4823 106.633 87.3362C106.633 87.3362 108.622 90.0581 111.03 87.2839C111.03 87.2839 113.437 89.0112 114.851 86.4464C114.851 86.4464 116.892 88.069 119.143 85.2424C119.143 85.2424 121.917 85.7659 122.859 83.044C122.859 83.044 125.005 83.1487 125.215 80.5838" stroke="black" stroke-width="0.50913" stroke-linecap="round" stroke-linejoin="round"/>
<path d="M123.017 79.5373C123.017 79.5373 126.157 79.4849 128.094 81.3693C128.094 81.3693 122.127 83.149 123.331 98.4859" stroke="black" stroke-width="0.50913" stroke-linecap="round" stroke-linejoin="round"/>
<path d="M127.099 78.333L136.521 80.3744" stroke="black" stroke-width="0.50913" stroke-linecap="round" stroke-linejoin="round"/>
<path d="M130.763 77.8096L137.778 79.2752" stroke="black" stroke-width="0.50913" stroke-linecap="round" stroke-linejoin="round"/>
<path d="M132.491 77.0767L138.144 78.1235" stroke="black" stroke-width="0.50913" stroke-linecap="round" stroke-linejoin="round"/>
<path d="M133.59 76.2915L138.825 77.2337" stroke="black" stroke-width="0.50913" stroke-linecap="round" stroke-linejoin="round"/>
<path d="M136.103 75.2974L140.133 76.0825" stroke="black" stroke-width="0.50913" stroke-linecap="round" stroke-linejoin="round"/>
<path d="M137.359 74.5645L140.552 75.2973" stroke="black" stroke-width="0.50913" stroke-linecap="round" stroke-linejoin="round"/>
<path d="M139.296 73.7793L141.913 74.4598" stroke="black" stroke-width="0.50913" stroke-linecap="round" stroke-linejoin="round"/>
<path d="M141.023 72.9941L142.803 73.4652" stroke="black" stroke-width="0.50913" stroke-linecap="round" stroke-linejoin="round"/>
<path d="M143.064 72.418L144.164 72.732" stroke="black" stroke-width="0.50913" stroke-linecap="round" stroke-linejoin="round"/>
<path d="M123.435 78.3853C123.435 78.3853 135.527 79.6415 140.657 92.8323C140.657 92.8323 143.012 100.056 141.965 108.222" stroke="black" stroke-width="0.50913" stroke-linecap="round" stroke-linejoin="round"/>
<path d="M129.559 82.6255C129.559 82.6255 122.964 87.4412 126.105 98.3288L124.691 101.208L125.32 98.7475C125.32 98.7475 124.744 97.3343 124.796 95.0834" stroke="black" stroke-width="0.50913" stroke-linecap="round" stroke-linejoin="round"/>
<path d="M132.386 84.3003C132.386 84.3003 138.039 86.8652 139.034 96.3918" stroke="black" stroke-width="0.50913" stroke-linecap="round" stroke-linejoin="round"/>
<path d="M140.395 107.07C141.285 99.8988 139.61 97.1245 139.61 97.1245L138.406 98.2238C138.406 98.2238 139.4 102.411 138.667 106.128L139.61 105.709C139.61 105.709 140.133 104.4 139.819 101.993" stroke="black" stroke-width="0.50913" stroke-linecap="round" stroke-linejoin="round"/>
<path d="M142.593 112.462C143.536 109.688 142.07 108.902 142.07 108.902C132.543 106.023 126.89 112.043 126.89 112.043C126.89 112.043 125.11 113.666 126.576 115.445" stroke="black" stroke-width="0.50913" stroke-linecap="round" stroke-linejoin="round"/>
<path d="M127.204 115.027C127.204 115.027 134.061 109.845 141.808 112.305" stroke="black" stroke-width="0.50913" stroke-linecap="round" stroke-linejoin="round"/>
<path d="M139.767 112.985C139.767 112.985 141.023 118.219 139.714 122.302" stroke="black" stroke-width="0.50913" stroke-linecap="round" stroke-linejoin="round"/>
<path d="M140.5 125.391C140.343 124.972 139.4 123.663 139.4 123.663L139.61 122.669" stroke="black" stroke-width="0.50913" stroke-linecap="round" stroke-linejoin="round"/>
<path d="M140.29 126.595C140.29 126.595 140.133 129.735 137.935 132.51" stroke="black" stroke-width="0.50913" stroke-linecap="round" stroke-linejoin="round"/>
<path d="M141.651 113.247L142.489 122.878L143.797 125.6" stroke="black" stroke-width="0.50913" stroke-linecap="round" stroke-linejoin="round"/>
<path d="M142.227 124.344C142.227 124.344 143.064 128.06 141.128 131.567C141.128 131.567 138.72 139.576 138.667 144.81" stroke="black" stroke-width="0.50913" stroke-linecap="round" stroke-linejoin="round"/>
<path d="M140.604 136.854C140.604 136.854 140.657 147.951 137.882 151.982" stroke="black" stroke-width="0.50913" stroke-linecap="round" stroke-linejoin="round"/>
<path d="M143.064 113.247L144.635 113.561" stroke="black" stroke-width="0.50913" stroke-linecap="round" stroke-linejoin="round"/>
<path d="M143.169 114.87L144.792 115.288" stroke="black" stroke-width="0.50913" stroke-linecap="round" stroke-linejoin="round"/>
<path d="M143.274 116.335L144.949 116.911" stroke="black" stroke-width="0.50913" stroke-linecap="round" stroke-linejoin="round"/>
<path d="M143.064 117.958L145.158 118.638" stroke="black" stroke-width="0.50913" stroke-linecap="round" stroke-linejoin="round"/>
<path d="M143.326 119.528L145.629 120.209" stroke="black" stroke-width="0.50913" stroke-linecap="round" stroke-linejoin="round"/>
<path d="M143.378 120.732L145.996 121.779" stroke="black" stroke-width="0.50913" stroke-linecap="round" stroke-linejoin="round"/>
<path d="M143.85 122.407L145.943 122.826" stroke="black" stroke-width="0.50913" stroke-linecap="round" stroke-linejoin="round"/>
<path d="M144.268 123.82L145.839 124.501" stroke="black" stroke-width="0.50913" stroke-linecap="round" stroke-linejoin="round"/>
<path d="M144.687 125.443L146.467 126.071" stroke="black" stroke-width="0.50913" stroke-linecap="round" stroke-linejoin="round"/>
<path d="M144.739 127.013L146.728 127.851" stroke="black" stroke-width="0.50913" stroke-linecap="round" stroke-linejoin="round"/>
<path d="M145.315 128.898L147.304 129.631" stroke="black" stroke-width="0.50913" stroke-linecap="round" stroke-linejoin="round"/>
<path d="M145.629 130.73L147.252 131.358" stroke="black" stroke-width="0.50913" stroke-linecap="round" stroke-linejoin="round"/>
<path d="M146.205 132.562L147.775 132.981" stroke="black" stroke-width="0.50913" stroke-linecap="round" stroke-linejoin="round"/>
<path d="M146.99 134.185L148.247 134.394" stroke="black" stroke-width="0.50913" stroke-linecap="round" stroke-linejoin="round"/>
<path d="M147.252 135.493L148.508 135.755" stroke="black" stroke-width="0.50913" stroke-linecap="round" stroke-linejoin="round"/>
<path d="M87.7887 83.829C87.7887 83.829 86.2184 90.1103 87.9981 89.4822C87.9981 89.4822 87.684 82.6774 89.8301 82.0493" stroke="black" stroke-width="0.50913" stroke-linecap="round" stroke-linejoin="round"/>
<path d="M88.9403 87.2842L88.9926 89.9014C88.9926 89.9014 87.2129 91.4717 86.6895 94.6647" stroke="black" stroke-width="0.50913" stroke-linecap="round" stroke-linejoin="round"/>
<path d="M86.4277 91.3667C86.4277 91.3667 85.6949 92.5706 85.5378 94.7167" stroke="black" stroke-width="0.50913" stroke-linecap="round" stroke-linejoin="round"/>
<path d="M86.0169 74.7139C86.0169 74.7139 87.9416 77.4528 85.1286 82.0424C85.1286 82.0424 85.5728 88.1866 84.6845 89.7412C84.6845 89.7412 84.2403 95.2931 83.6481 97.3658C83.6481 97.3658 83.7222 102.918 83.0559 104.25C83.0559 104.25 83.1299 111.061 81.9455 113.281C81.9455 113.281 82.3157 117.353 81.4274 118.833C81.4274 118.833 78.8364 116.465 72.1741 118.241C72.1741 118.241 70.8416 106.027 68.991 102.992" stroke="black" stroke-width="0.50913" stroke-linecap="round" stroke-linejoin="round"/>
<path d="M64.6235 87.4468C64.6235 87.4468 70.1015 90.926 67.2144 95.3676" stroke="black" stroke-width="0.50913" stroke-linecap="round" stroke-linejoin="round"/>
<path d="M69.287 95.5894C69.287 95.5894 69.287 97.1439 68.3247 97.7361" stroke="black" stroke-width="0.50913" stroke-linecap="round" stroke-linejoin="round"/>
<path d="M68.991 98.5503L70.2494 98.8464L70.9897 99.9568" stroke="black" stroke-width="0.50913" stroke-linecap="round" stroke-linejoin="round"/>
<path d="M70.6936 101.363C70.6936 101.363 71.6559 102.77 70.8416 104.176" stroke="black" stroke-width="0.50913" stroke-linecap="round" stroke-linejoin="round"/>
<path d="M78.9846 96.4777L79.1326 88.853" stroke="black" stroke-width="0.50913" stroke-linecap="round" stroke-linejoin="round"/>
<path d="M78.9846 97.8843L79.0587 100.697" stroke="black" stroke-width="0.50913" stroke-linecap="round" stroke-linejoin="round"/>
<path d="M79.5767 84.4854C79.5767 84.4854 80.1689 85.5217 81.2793 85.5217L80.8351 99.2906L80.3169 101.363" stroke="black" stroke-width="0.50913" stroke-linecap="round" stroke-linejoin="round"/>
<path d="M80.8352 83.375C80.8352 83.375 81.9456 84.3373 83.056 84.3373L82.4637 96.4036" stroke="black" stroke-width="0.50913" stroke-linecap="round" stroke-linejoin="round"/>
<path d="M82.2418 98.9204L82.1677 102.992" stroke="black" stroke-width="0.50913" stroke-linecap="round" stroke-linejoin="round"/>
<path d="M80.3171 103.51L81.9457 104.843L80.9833 113.726L80.1691 114.54L80.4652 115.428L79.947 117.205" stroke="black" stroke-width="0.50913" stroke-linecap="round" stroke-linejoin="round"/>
<path d="M80.9092 77.4531C80.9092 77.4531 81.0572 84.6337 85.2767 81.9687" stroke="black" stroke-width="0.50913" stroke-linecap="round" stroke-linejoin="round"/>
<path d="M81.5754 75.4545C81.5754 75.4545 83.5001 75.0844 83.6482 78.1195C83.6482 78.1195 84.7586 75.9727 83.3521 74.4922" stroke="black" stroke-width="0.50913" stroke-linecap="round" stroke-linejoin="round"/>
<path d="M59.0715 63.3882C59.0715 63.3882 60.9222 61.6116 60.7741 67.8298" stroke="black" stroke-width="0.50913" stroke-linecap="round" stroke-linejoin="round"/>
<path d="M60.1819 60.353C60.1819 60.353 65.0676 68.4219 61.4403 71.753" stroke="black" stroke-width="0.50913" stroke-linecap="round" stroke-linejoin="round"/>
<path d="M63.0689 38.8853C63.0689 38.8853 59.8858 40.4398 60.8481 49.3229L59.5156 50.8775" stroke="black" stroke-width="0.50913" stroke-linecap="round" stroke-linejoin="round"/>
<path d="M75.6533 35.1841C75.6533 35.1841 78.6884 33.9257 76.4676 37.4049C76.4676 37.4049 77.2819 35.4802 78.9845 37.775" stroke="black" stroke-width="0.50913" stroke-linecap="round" stroke-linejoin="round"/>
<path d="M78.0963 38.2192L77.208 40.44L78.0223 44.2153" stroke="black" stroke-width="0.50913" stroke-linecap="round" stroke-linejoin="round"/>
<path d="M79.1326 44.0671L79.5768 41.3281C79.5768 41.3281 81.5755 41.7723 80.8352 47.3242" stroke="black" stroke-width="0.50913" stroke-linecap="round" stroke-linejoin="round"/>
<path d="M80.3911 39.1816C80.3911 39.1816 81.7236 39.6998 81.9457 43.7713" stroke="black" stroke-width="0.50913" stroke-linecap="round" stroke-linejoin="round"/>
<path d="M82.76 45.918L82.834 50.9517C82.834 50.9517 83.4262 51.9881 83.1301 53.6907C83.1301 53.6907 83.9444 56.7258 82.76 58.6505C82.76 58.6505 84.3146 59.7608 83.6483 62.8699C83.6483 62.8699 84.5366 64.4245 83.7223 66.2751V71.7531L85.0548 73.0115" stroke="black" stroke-width="0.50913" stroke-linecap="round" stroke-linejoin="round"/>
<path d="M81.0574 48.583C81.0574 48.583 82.2418 49.9155 81.2795 51.47C81.2795 51.47 82.3158 52.8025 81.2054 54.283C81.2054 54.283 82.0937 58.0583 81.1314 59.3168C81.1314 59.3168 82.2418 59.4648 82.1678 62.1298C82.1678 62.1298 82.0937 63.8324 81.5756 64.6467C81.5756 64.6467 82.4639 65.9791 81.7236 67.3116C81.7236 67.3116 82.908 67.3116 82.0937 69.6064C82.0937 69.6064 82.982 71.0129 82.0937 72.2713L83.2041 71.7532" stroke="black" stroke-width="0.50913" stroke-linecap="round" stroke-linejoin="round"/>
<path d="M79.0586 45.1777C79.0586 45.1777 79.7989 48.0648 79.4287 49.7674" stroke="black" stroke-width="0.50913" stroke-linecap="round" stroke-linejoin="round"/>
<path d="M76.1716 48.8049C77.5781 48.5088 76.9119 47.8426 77.6521 48.5828" stroke="black" stroke-width="0.50913" stroke-linecap="round" stroke-linejoin="round"/>
<path d="M76.0977 51.2478C76.0977 51.2478 76.1717 49.6192 77.7262 51.0997" stroke="black" stroke-width="0.50913" stroke-linecap="round" stroke-linejoin="round"/>
<path d="M77.356 54.357C77.356 54.357 78.6884 51.3219 79.7248 52.4323" stroke="black" stroke-width="0.50913" stroke-linecap="round" stroke-linejoin="round"/>
<path d="M79.5027 54.7271C79.5027 54.7271 80.465 59.4647 79.9469 61.8335" stroke="black" stroke-width="0.50913" stroke-linecap="round" stroke-linejoin="round"/>
<path d="M77.282 55.9854C77.282 55.9854 78.1703 58.2802 77.8001 60.3529" stroke="black" stroke-width="0.50913" stroke-linecap="round" stroke-linejoin="round"/>
<path d="M75.5794 56.3555C75.5794 56.3555 76.0976 59.1685 75.5054 61.7594C75.5054 61.7594 74.617 63.2399 76.1716 64.7204C76.1716 64.7204 75.4314 69.162 75.8755 69.9022" stroke="black" stroke-width="0.50913" stroke-linecap="round" stroke-linejoin="round"/>
<path d="M78.4663 61.8335V67.6816" stroke="black" stroke-width="0.50913" stroke-linecap="round" stroke-linejoin="round"/>
<path d="M79.9469 65.7568V69.088L79.1325 69.5322L78.8364 72.4192" stroke="black" stroke-width="0.50913" stroke-linecap="round" stroke-linejoin="round"/>
<path d="M78.1702 76.7866C78.1702 76.7866 76.9118 81.4503 78.8364 83.523" stroke="black" stroke-width="0.50913" stroke-linecap="round" stroke-linejoin="round"/>
<path d="M80.1689 75.6025C80.1689 75.6025 78.1702 78.0454 80.6131 82.2649" stroke="black" stroke-width="0.50913" stroke-linecap="round" stroke-linejoin="round"/>
<path d="M102.969 91.262C102.969 91.262 103.178 86.551 106.423 90.1104C106.423 90.1104 106.737 92.0995 105.795 92.4136C105.795 92.4136 108.936 95.1355 107.68 99.4277C107.68 99.4277 109.355 99.7418 109.041 101.731C109.041 101.731 108.831 103.511 106.423 103.301C106.423 103.301 105.272 108.012 101.817 108.745C101.817 108.745 97.839 108.745 97.4202 103.301C97.4202 103.301 95.117 102.254 95.3264 100.684C95.3264 100.684 95.3264 98.7996 97.1061 98.7996C97.1061 98.7996 97.2108 93.4605 102.969 91.262Z" stroke="black" stroke-width="0.50913" stroke-linecap="round" stroke-linejoin="round"/>
<path d="M100.875 94.717C100.875 94.717 106.319 91.0529 105.272 99.8468C105.272 99.8468 104.958 104.453 101.817 106.547" stroke="black" stroke-width="0.50913" stroke-linecap="round" stroke-linejoin="round"/>
<path d="M100.666 98.5903C100.666 98.5903 104.748 93.0418 102.131 102.568" stroke="black" stroke-width="0.50913" stroke-linecap="round" stroke-linejoin="round"/>
<path d="M100.142 102.987L100.77 104.662" stroke="black" stroke-width="0.50913" stroke-linecap="round" stroke-linejoin="round"/>
<path d="M99.8281 108.85C99.8281 108.85 100.142 113.456 94.1749 116.597C94.1749 116.597 82.1357 121.831 84.4388 128.322" stroke="black" stroke-width="0.50913" stroke-linecap="round" stroke-linejoin="round"/>
<path d="M86.009 128.322C86.009 128.322 87.2653 123.297 93.442 121.099C93.442 121.099 100.351 116.806 101.817 113.875C101.817 113.875 103.178 118.167 108.622 120.052C108.622 120.052 114.484 121.936 118.672 124.344C118.672 124.344 122.336 126.019 122.127 130.102" stroke="black" stroke-width="0.50913" stroke-linecap="round" stroke-linejoin="round"/>
<path d="M103.283 109.583C103.283 109.583 105.062 117.225 115.217 120.68C115.217 120.68 119.3 121.831 120.556 122.774C120.556 122.774 127.361 113.98 123.069 106.023" stroke="black" stroke-width="0.50913" stroke-linecap="round" stroke-linejoin="round"/>
<path d="M121.184 99.4277C121.184 99.4277 124.534 102.045 125.372 105.395" stroke="black" stroke-width="0.50913" stroke-linecap="round" stroke-linejoin="round"/>
<path d="M127.361 103.092C127.361 103.092 125.372 106.547 125.791 112.095" stroke="black" stroke-width="0.50913" stroke-linecap="round" stroke-linejoin="round"/>
<path d="M86.6372 129.892C86.6372 129.892 103.701 125.495 121.394 130.73" stroke="black" stroke-width="0.50913" stroke-linecap="round" stroke-linejoin="round"/>
<path d="M91.3481 123.506C91.3481 123.506 104.958 120.889 113.751 123.506" stroke="black" stroke-width="0.50913" stroke-linecap="round" stroke-linejoin="round"/>
<path d="M93.6513 124.03C93.6513 124.03 92.081 125.6 92.1857 127.799" stroke="black" stroke-width="0.50913" stroke-linecap="round" stroke-linejoin="round"/>
<path d="M89.8826 124.867C89.8826 124.867 88.417 127.275 88.417 128.531" stroke="black" stroke-width="0.50913" stroke-linecap="round" stroke-linejoin="round"/>
<path d="M98.2576 124.03L97.2107 127.38" stroke="black" stroke-width="0.50913" stroke-linecap="round" stroke-linejoin="round"/>
<path d="M102.55 123.611L103.073 127.589" stroke="black" stroke-width="0.50913" stroke-linecap="round" stroke-linejoin="round"/>
<path d="M107.68 123.716C107.68 123.716 108.203 126.228 108.098 127.275" stroke="black" stroke-width="0.50913" stroke-linecap="round" stroke-linejoin="round"/>
<path d="M113.228 124.448C113.228 124.448 113.856 126.437 113.856 128.112" stroke="black" stroke-width="0.50913" stroke-linecap="round" stroke-linejoin="round"/>
<path d="M100.77 121.203C98.781 119.423 100.979 117.958 100.979 117.958C100.979 117.958 102.236 116.597 103.492 118.691C103.492 118.691 104.225 121.831 100.77 121.203Z" stroke="black" stroke-width="0.50913" stroke-linecap="round" stroke-linejoin="round"/>
<path d="M71.9807 118.795C71.9807 118.795 67.0604 126.542 74.3886 132.614C74.3886 132.614 80.6699 130.206 82.4496 126.752C82.4496 126.752 83.6012 124.763 77.8433 127.589" stroke="black" stroke-width="0.50913" stroke-linecap="round" stroke-linejoin="round"/>
<path d="M77.1106 124.972C77.1106 124.972 83.3919 122.355 82.345 124.972" stroke="black" stroke-width="0.50913" stroke-linecap="round" stroke-linejoin="round"/>
<path d="M76.4824 120.68C76.4824 120.68 83.706 120.68 82.4497 122.878" stroke="black" stroke-width="0.50913" stroke-linecap="round" stroke-linejoin="round"/>
<path d="M82.2402 119.109C82.2402 119.109 83.3918 120.052 82.4496 120.994" stroke="black" stroke-width="0.50913" stroke-linecap="round" stroke-linejoin="round"/>
<path d="M88.4168 95.1357C88.4168 95.1357 83.9152 107.384 86.5324 119.947" stroke="black" stroke-width="0.50913" stroke-linecap="round" stroke-linejoin="round"/>
<path d="M85.1715 96.3921C85.1715 96.3921 82.2402 112.724 85.1715 120.889" stroke="black" stroke-width="0.50913" stroke-linecap="round" stroke-linejoin="round"/>
<path d="M88.1029 117.643C90.5107 119.004 91.2435 116.806 91.2435 116.806L91.767 114.817C94.803 114.817 93.6514 111.676 93.6514 111.676C93.1279 109.478 94.2795 108.745 94.2795 108.745C95.3264 110.839 97.2108 108.536 97.2108 108.536C98.5717 106.442 95.5358 105.395 95.5358 105.395C93.2326 105.186 92.2904 108.64 92.2904 108.64L91.1388 108.012C88.731 106.965 87.37 109.478 87.37 109.478C86.5325 113.561 89.7779 111.572 89.7779 111.572C89.7779 111.572 91.9764 113.875 89.4638 115.131C89.4638 115.131 88.2076 113.875 87.37 114.608" stroke="black" stroke-width="0.50913" stroke-linecap="round" stroke-linejoin="round"/>
<path d="M95.2217 110.839C95.2217 110.839 96.0592 113.875 97.7342 110.734" stroke="black" stroke-width="0.50913" stroke-linecap="round" stroke-linejoin="round"/>
<path d="M120.347 120.366C117.102 120.784 116.055 117.853 116.055 117.853C110.506 118.795 110.192 113.98 110.192 113.98L109.041 114.608C106.528 114.608 107.366 112.933 107.366 112.933C111.658 109.897 108.203 108.222 108.203 108.222C108.203 108.222 109.669 110.525 107.366 111.048C107.366 111.048 104.33 111.362 106.214 106.861C106.214 106.861 108.517 104.244 110.402 106.547C112.286 108.85 112.391 108.745 112.391 108.745C112.391 108.745 114.589 106.128 116.788 108.955C116.788 108.955 118.463 113.561 114.066 112.2C114.066 112.2 113.438 110.63 114.589 110.106C114.589 110.106 111.762 111.991 115.322 114.817" stroke="black" stroke-width="0.50913" stroke-linecap="round" stroke-linejoin="round"/>
<path d="M112.076 110.211C112.076 110.211 109.983 111.467 111.867 114.608" stroke="black" stroke-width="0.50913" stroke-linecap="round" stroke-linejoin="round"/>
<path d="M116.578 116.388C116.578 116.388 116.892 114.399 119.823 115.341C119.823 115.341 120.87 116.492 119.614 117.749C119.614 117.749 118.567 117.644 118.567 117.016C118.567 117.016 118.253 118.377 120.242 119.005" stroke="black" stroke-width="0.50913" stroke-linecap="round" stroke-linejoin="round"/>
<path d="M122.65 109.583C122.65 109.583 121.289 113.77 120.452 115.131" stroke="black" stroke-width="0.50913" stroke-linecap="round" stroke-linejoin="round"/>
<path d="M123.069 112.305C123.069 112.305 122.022 115.445 120.975 117.644" stroke="black" stroke-width="0.50913" stroke-linecap="round" stroke-linejoin="round"/>
<path d="M121.394 108.222C121.394 108.222 120.452 112.2 119.405 113.77" stroke="black" stroke-width="0.50913" stroke-linecap="round" stroke-linejoin="round"/>
<path d="M120.452 107.594C120.452 107.594 118.986 112.933 117.73 114.294" stroke="black" stroke-width="0.50913" stroke-linecap="round" stroke-linejoin="round"/>
<path d="M118.777 106.651C118.777 106.651 118.463 112.095 116.578 113.98" stroke="black" stroke-width="0.50913" stroke-linecap="round" stroke-linejoin="round"/>
<path d="M116.683 105.604L116.264 107.698" stroke="black" stroke-width="0.50913" stroke-linecap="round" stroke-linejoin="round"/>
<path d="M117.939 106.442L117.416 108.64" stroke="black" stroke-width="0.50913" stroke-linecap="round" stroke-linejoin="round"/>
<path d="M125.581 116.492C125.581 116.492 124.744 121.308 123.069 122.774C123.069 122.774 126.419 126.647 123.383 130.73" stroke="black" stroke-width="0.50913" stroke-linecap="round" stroke-linejoin="round"/>
<path d="M79.9372 104.977L79.7278 109.688" stroke="black" stroke-width="0.50913" stroke-linecap="round" stroke-linejoin="round"/>
<path d="M61.093 125.914C61.093 125.914 61.9305 139.314 72.3994 134.08" stroke="black" stroke-width="0.50913" stroke-linecap="round" stroke-linejoin="round"/>
<path d="M63.9197 124.344C63.9197 124.344 62.9775 131.253 67.6885 133.766" stroke="black" stroke-width="0.50913" stroke-linecap="round" stroke-linejoin="round"/>
<path d="M70.5151 118.69C70.5151 118.69 68.6307 117.434 68.8401 121.936C68.8401 121.936 65.6994 123.297 67.7932 126.333C67.7932 126.333 66.3276 129.683 69.4682 130.311C69.4682 130.311 69.5729 133.452 73.4464 133.452" stroke="black" stroke-width="0.50913" stroke-linecap="round" stroke-linejoin="round"/>
<path d="M66.0134 117.434C66.0134 117.434 68.0025 114.817 71.1432 116.597" stroke="black" stroke-width="0.50913" stroke-linecap="round" stroke-linejoin="round"/>
<path d="M74.4934 133.766C74.4934 133.766 72.2949 144.025 76.0637 146.433C76.0637 146.433 79.3091 149.155 80.1466 141.303L81.1935 129.264" fill="#AAD400"/>
<path d="M74.4934 133.766C74.4934 133.766 72.2949 144.025 76.0637 146.433C76.0637 146.433 79.3091 149.155 80.1466 141.303L81.1935 129.264" stroke="black" stroke-width="1.209" stroke-linecap="round" stroke-linejoin="round"/>
<path d="M79.623 131.358C79.623 131.358 79.8324 140.78 77.948 143.397" stroke="black" stroke-width="0.50913" stroke-linecap="round" stroke-linejoin="round"/>
<path d="M81.5073 144.758C81.5073 144.758 82.4496 147.061 84.4386 144.758C84.4386 144.758 84.8574 146.852 87.5793 144.549C87.5793 144.549 88.9402 148.004 92.0809 144.339C92.0809 144.339 95.0122 146.119 96.8966 141.827L101.922 131.044C101.922 131.044 102.55 141.094 107.784 146.224C107.784 146.224 109.04 147.899 110.192 144.339C110.192 144.339 111.658 150.307 113.856 148.213L114.275 146.538C114.275 146.538 115.845 151.039 118.881 149.469L119.405 148.736C119.405 148.736 120.766 153.238 124.848 150.307L127.78 152.191L128.198 148.318C128.198 148.318 126.209 136.802 122.65 132.091" stroke="black" stroke-width="0.50913" stroke-linecap="round" stroke-linejoin="round"/>
<path d="M119.719 132.195L125.581 143.711L124.534 144.863C124.534 144.863 126.942 146.642 126 147.899L124.22 146.956L123.802 148.422" stroke="black" stroke-width="0.50913" stroke-linecap="round" stroke-linejoin="round"/>
<path d="M89.2545 131.044L89.6732 133.452L88.3123 136.069C88.3123 136.069 85.4857 133.033 86.2185 137.43C86.2185 137.43 86.742 139.21 84.9623 138.896C84.9623 138.896 83.6013 140.257 85.7997 141.618C85.7997 141.618 85.0669 145.282 83.4966 143.188" stroke="black" stroke-width="0.50913" stroke-linecap="round" stroke-linejoin="round"/>
<path d="M98.8857 131.567C98.8857 131.567 95.745 141.617 91.5574 138.163C91.5574 138.163 88.4168 134.394 93.6512 132.405C93.6512 132.405 98.2575 133.766 93.7559 136.174C93.7559 136.174 92.709 136.278 93.4419 134.917" stroke="black" stroke-width="0.50913" stroke-linecap="round" stroke-linejoin="round"/>
<path d="M95.1169 139.209C95.1169 139.209 96.4779 140.78 93.9653 141.722" stroke="black" stroke-width="0.50913" stroke-linecap="round" stroke-linejoin="round"/>
<path d="M90.1965 138.163C90.1965 138.163 84.7527 139.209 89.0449 143.502C89.0449 143.502 90.9293 144.758 91.5574 141.722C91.5574 141.722 90.5106 140.152 89.5684 140.989" stroke="black" stroke-width="0.50913" stroke-linecap="round" stroke-linejoin="round"/>
<path d="M113.542 131.881C113.542 131.881 115.95 130.101 115.741 134.184C115.741 134.184 117.625 133.766 118.358 134.708" stroke="black" stroke-width="0.50913" stroke-linecap="round" stroke-linejoin="round"/>
<path d="M110.401 133.766C110.401 133.766 112.6 132.405 114.065 135.65C114.065 135.65 117.939 135.441 119.3 138.372" stroke="black" stroke-width="0.50913" stroke-linecap="round" stroke-linejoin="round"/>
<path d="M115.845 140.466C115.845 140.466 114.275 137.325 112.914 140.571C112.914 140.571 112.181 144.758 116.892 143.293C116.892 143.293 118.253 142.769 118.253 140.466C118.253 140.466 117.73 142.874 120.452 145.072C120.452 145.072 122.859 146.957 123.383 143.502C123.383 143.502 121.603 140.571 120.766 143.293" stroke="black" stroke-width="0.50913" stroke-linecap="round" stroke-linejoin="round"/>
<path d="M108.412 132.51C108.412 132.51 104.33 127.485 103.806 133.661L105.167 136.907C105.167 136.907 103.387 139.21 107.47 139.21C107.47 139.21 107.784 142.35 111.239 140.571C111.239 140.571 113.228 140.989 112.077 135.964C112.077 135.964 108.517 134.08 108.727 137.43L110.192 138.372H109.145" stroke="black" stroke-width="0.50913" stroke-linecap="round" stroke-linejoin="round"/>
<path d="M106.737 134.08L107.47 136.383" stroke="black" stroke-width="0.50913" stroke-linecap="round" stroke-linejoin="round"/>
<path d="M59.8369 150.411L65.6995 135.964L60.7791 160.671C60.7791 160.671 66.9558 166.533 65.0714 167.371" stroke="black" stroke-width="0.50913" stroke-linecap="round" stroke-linejoin="round"/>
<path d="M54.2883 153.028L60.6744 153.238" stroke="black" stroke-width="0.50913" stroke-linecap="round" stroke-linejoin="round"/>
<path d="M52.6133 157.321L53.3461 154.808L60.1509 155.227" stroke="black" stroke-width="0.50913" stroke-linecap="round" stroke-linejoin="round"/>
<path d="M49.4727 161.613C49.4727 161.613 54.1837 161.613 56.8009 164.23C56.8009 164.23 60.5697 164.23 62.5588 164.963" stroke="black" stroke-width="0.50913" stroke-linecap="round" stroke-linejoin="round"/>
<path d="M55.4401 157.111C55.4401 157.111 52.7182 157.425 56.0682 159.833" stroke="black" stroke-width="0.50913" stroke-linecap="round" stroke-linejoin="round"/>
<path d="M51.043 159.415C51.043 159.415 51.8805 160.147 53.2415 159.624" stroke="black" stroke-width="0.50913" stroke-linecap="round" stroke-linejoin="round"/>
<path d="M64.1292 148.736C64.1292 148.736 68.6308 145.91 73.1324 147.375" stroke="black" stroke-width="0.50913" stroke-linecap="round" stroke-linejoin="round"/>
<path d="M64.3384 151.144C64.3384 151.144 68.526 148.213 73.0276 149.364" stroke="black" stroke-width="0.50913" stroke-linecap="round" stroke-linejoin="round"/>
<path d="M63.3962 157.006C63.3962 157.006 66.9557 154.389 74.598 155.436" stroke="black" stroke-width="0.50913" stroke-linecap="round" stroke-linejoin="round"/>
<path d="M63.2915 161.194C63.2915 161.194 60.5696 158.158 70.515 158.786" stroke="black" stroke-width="0.50913" stroke-linecap="round" stroke-linejoin="round"/>
<path d="M73.9697 144.444C73.9697 144.444 72.5041 153.238 75.7495 154.703" stroke="black" stroke-width="0.50913" stroke-linecap="round" stroke-linejoin="round"/>
<path d="M80.6699 146.329C80.6699 146.329 82.0309 149.469 75.3308 150.307" stroke="black" stroke-width="0.50913" stroke-linecap="round" stroke-linejoin="round"/>
<path d="M80.251 150.097C80.251 150.097 81.7167 151.982 76.1682 152.819" stroke="black" stroke-width="0.50913" stroke-linecap="round" stroke-linejoin="round"/>
<path d="M79.309 153.552L78.6809 179.724" stroke="black" stroke-width="0.50913" stroke-linecap="round" stroke-linejoin="round"/>
<path d="M81.9262 148.108L81.1934 180.038" stroke="black" stroke-width="0.50913" stroke-linecap="round" stroke-linejoin="round"/>
<path d="M83.8105 147.689L83.7058 158.368L83.0776 160.88" stroke="black" stroke-width="0.50913" stroke-linecap="round" stroke-linejoin="round"/>
<path d="M95.9544 147.27C95.431 146.642 95.0122 184.749 95.0122 184.749C95.0122 184.749 95.745 186.319 99.8279 185.586" stroke="black" stroke-width="0.50913" stroke-linecap="round" stroke-linejoin="round"/>
<path d="M92.2904 147.375L90.9294 184.54C90.9294 184.54 91.4529 185.796 93.9654 184.854" stroke="black" stroke-width="0.50913" stroke-linecap="round" stroke-linejoin="round"/>
<path d="M88.5216 148.108C88.5216 148.108 87.5794 167.894 89.5684 177.735" stroke="black" stroke-width="0.50913" stroke-linecap="round" stroke-linejoin="round"/>
<path d="M90.406 148.108C90.406 148.108 88.8357 161.822 90.3013 170.825" stroke="black" stroke-width="0.50913" stroke-linecap="round" stroke-linejoin="round"/>
<path d="M86.3231 147.061C86.3231 147.061 84.7528 151.353 86.2185 160.147L84.6481 160.042C84.6481 160.042 84.5434 180.038 86.0091 184.121C86.0091 184.121 87.1607 184.958 89.4638 184.435" stroke="black" stroke-width="0.50913" stroke-linecap="round" stroke-linejoin="round"/>
<path d="M100.561 141.722L100.142 166.743L100.77 185.587C100.77 185.587 101.294 187.366 104.853 185.796" stroke="black" stroke-width="0.50913" stroke-linecap="round" stroke-linejoin="round"/>
<path d="M97.8389 142.141L98.9904 164.963" stroke="black" stroke-width="0.50913" stroke-linecap="round" stroke-linejoin="round"/>
<path d="M103.701 143.083C103.701 143.083 103.387 152.4 104.853 158.263L104.539 183.283" stroke="black" stroke-width="0.50913" stroke-linecap="round" stroke-linejoin="round"/>
<path d="M109.145 149.26C109.145 149.26 108.936 155.122 106.319 159.833" stroke="black" stroke-width="0.50913" stroke-linecap="round" stroke-linejoin="round"/>
<path d="M107.366 148.003C107.366 148.003 107.47 152.505 105.481 155.75" stroke="black" stroke-width="0.50913" stroke-linecap="round" stroke-linejoin="round"/>
<path d="M110.716 158.891L111.762 185.691C111.762 185.691 112.705 188.413 116.892 185.691" stroke="black" stroke-width="0.50913" stroke-linecap="round" stroke-linejoin="round"/>
<path d="M106.214 161.613L106.423 185.587C106.423 185.587 107.261 187.262 110.297 186.11" stroke="black" stroke-width="0.50913" stroke-linecap="round" stroke-linejoin="round"/>
<path d="M114.694 150.202L117.73 170.616C117.73 170.616 116.159 173.547 116.474 176.897C116.474 176.897 118.358 179.41 118.358 184.854" stroke="black" stroke-width="0.50913" stroke-linecap="round" stroke-linejoin="round"/>
<path d="M120.975 152.086L122.127 183.912C122.127 183.912 122.441 186.634 118.672 186.32" stroke="black" stroke-width="0.50913" stroke-linecap="round" stroke-linejoin="round"/>
<path d="M122.65 153.133L123.592 183.912C123.592 183.912 124.535 185.063 126.628 183.388" stroke="black" stroke-width="0.50913" stroke-linecap="round" stroke-linejoin="round"/>
<path d="M127.047 153.447C127.047 153.447 129.769 181.399 129.769 180.98" stroke="black" stroke-width="0.50913" stroke-linecap="round" stroke-linejoin="round"/>
<path d="M129.35 161.508C129.35 161.508 131.025 165.8 137.725 159.729" stroke="black" stroke-width="0.50913" stroke-linecap="round" stroke-linejoin="round"/>
<path d="M129.874 164.335C129.874 164.335 131.653 166.847 138.144 163.183" stroke="black" stroke-width="0.50913" stroke-linecap="round" stroke-linejoin="round"/>
<path d="M140.029 153.657L138.354 156.483C138.354 156.483 139.296 157.216 138.563 159.205" stroke="black" stroke-width="0.50913" stroke-linecap="round" stroke-linejoin="round"/>
<path d="M136.364 178.468C136.364 178.468 133.224 178.154 132.7 177.211" stroke="black" stroke-width="0.50913" stroke-linecap="round" stroke-linejoin="round"/>
<path d="M139.296 176.688C139.296 176.688 136.469 176.688 135.527 175.746" stroke="black" stroke-width="0.50913" stroke-linecap="round" stroke-linejoin="round"/>
<path d="M140.342 175.223C140.342 175.223 138.249 175.013 137.306 174.176" stroke="black" stroke-width="0.50913" stroke-linecap="round" stroke-linejoin="round"/>
<path d="M141.075 172.501L140.028 172.082" stroke="black" stroke-width="0.50913" stroke-linecap="round" stroke-linejoin="round"/>
<path d="M137.725 163.288L140.866 160.775C140.866 160.775 144.635 161.508 148.403 158.472L150.707 159.1" stroke="black" stroke-width="0.50913" stroke-linecap="round" stroke-linejoin="round"/>
<path d="M145.263 145.805C145.263 145.805 147.356 143.502 151.021 144.444C151.021 144.444 152.067 143.397 153.01 143.397" stroke="black" stroke-width="0.50913" stroke-linecap="round" stroke-linejoin="round"/>
<path d="M148.194 139.942C148.194 139.942 151.125 142.769 151.858 146.957C151.858 146.957 153.743 147.899 153.952 151.668C153.952 151.668 151.439 152.191 151.125 153.866C151.125 153.866 147.88 153.866 145.996 153.866" stroke="black" stroke-width="0.50913" stroke-linecap="round" stroke-linejoin="round"/>
<path d="M145.891 147.794C145.891 147.794 149.974 145.177 151.753 146.747C151.753 146.747 153.01 145.177 154.371 145.072" stroke="black" stroke-width="0.50913" stroke-linecap="round" stroke-linejoin="round"/>
<path d="M142.75 130.521C142.75 130.521 144.635 134.499 143.692 139.733C143.692 139.733 144.949 146.538 145.053 150.411C145.053 150.411 144.321 156.065 147.147 157.216" stroke="black" stroke-width="0.50913" stroke-linecap="round" stroke-linejoin="round"/>
<path d="M141.703 134.394C141.703 134.394 144.007 141.932 140.238 152.086" stroke="black" stroke-width="0.50913" stroke-linecap="round" stroke-linejoin="round"/>
<path d="M140.552 154.808V159.938" stroke="black" stroke-width="0.50913" stroke-linecap="round" stroke-linejoin="round"/>
<path d="M154.79 151.981C154.79 151.981 155.836 152.61 157.721 151.458" stroke="black" stroke-width="0.50913" stroke-linecap="round" stroke-linejoin="round"/>
<path d="M102.333 190.827C102.333 190.827 102.649 196.502 106.64 201.403" stroke="black" stroke-width="0.50913" stroke-linecap="round" stroke-linejoin="round"/>
<path d="M85.3809 186.738L87.9981 186.843L88.3121 188.308C88.3121 188.308 113.333 191.135 122.859 187.89C122.859 187.89 123.592 185.9 125.895 186.633" stroke="black" stroke-width="0.50913" stroke-linecap="round" stroke-linejoin="round"/>
<path d="M110.192 190.507C110.192 190.507 111.03 198.149 113.542 201.394" stroke="black" stroke-width="0.50913" stroke-linecap="round" stroke-linejoin="round"/>
<path d="M115.531 195.218C115.531 195.218 116.683 201.185 113.019 204.744C113.019 204.744 111.448 207.257 114.275 210.816" stroke="black" stroke-width="0.50913" stroke-linecap="round" stroke-linejoin="round"/>
<path d="M115.217 206.42C115.217 206.42 115.113 212.073 114.275 213.225C114.275 213.225 113.856 215.004 116.788 217.203C116.788 217.203 119.405 215.423 119.51 212.073" stroke="black" stroke-width="0.50913" stroke-linecap="round" stroke-linejoin="round"/>
<path d="M121.708 189.355C121.708 189.355 121.813 199.301 119.405 197.94C119.405 197.94 122.755 202.127 120.556 207.362" stroke="black" stroke-width="0.50913" stroke-linecap="round" stroke-linejoin="round"/>
<path d="M93.0232 189.46C93.0232 189.46 93.0232 196.998 97.4201 204.012L97.0014 211.34C97.0014 211.34 92.6044 211.759 91.4529 204.954" stroke="black" stroke-width="0.50913" stroke-linecap="round" stroke-linejoin="round"/>
<path d="M99.7232 190.507C99.7232 190.507 96.6873 193.438 96.6873 197.312" stroke="black" stroke-width="0.50913" stroke-linecap="round" stroke-linejoin="round"/>
<path d="M101.189 191.659C101.189 191.659 98.8857 194.171 98.8857 196.056" stroke="black" stroke-width="0.50913" stroke-linecap="round" stroke-linejoin="round"/>
<path d="M98.9905 205.478C98.9905 205.478 103.492 202.546 103.597 200.243C103.597 200.243 105.376 207.571 99.6186 212.701" stroke="black" stroke-width="0.50913" stroke-linecap="round" stroke-linejoin="round"/>
<path d="M101.922 195.846C101.922 195.846 98.5717 198.149 98.467 201.395" stroke="black" stroke-width="0.50913" stroke-linecap="round" stroke-linejoin="round"/>
<path d="M93.6513 211.968C93.6513 211.968 92.7092 220.029 94.8029 228.404" stroke="black" stroke-width="0.50913" stroke-linecap="round" stroke-linejoin="round"/>
<path d="M96.5826 220.448C96.5826 220.448 95.6404 213.538 99.1998 211.026" stroke="black" stroke-width="0.50913" stroke-linecap="round" stroke-linejoin="round"/>
<path d="M89.8826 208.828C89.8826 208.828 90.0919 211.026 92.2904 213.434" stroke="black" stroke-width="0.50913" stroke-linecap="round" stroke-linejoin="round"/>
<path d="M88.8357 197.626C88.8357 197.626 89.4638 198.568 91.1389 200.348" stroke="black" stroke-width="0.50913" stroke-linecap="round" stroke-linejoin="round"/>
<path d="M100.037 214.167C100.037 214.167 97.6295 225.473 100.142 244.422C100.142 244.422 104.225 264.731 104.12 269.128" stroke="black" stroke-width="0.50913" stroke-linecap="round" stroke-linejoin="round"/>
<path d="M109.878 215.318C109.878 215.318 114.065 219.401 114.589 227.358" stroke="black" stroke-width="0.50913" stroke-linecap="round" stroke-linejoin="round"/>
<path d="M113.647 215.737L116.578 221.913C116.578 221.913 120.033 237.721 119.3 243.793C119.3 243.793 120.975 263.58 119.3 269.442" stroke="black" stroke-width="0.50913" stroke-linecap="round" stroke-linejoin="round"/>
<path d="M119.823 216.365C119.823 216.365 125.267 225.683 124.116 239.083" stroke="black" stroke-width="0.50913" stroke-linecap="round" stroke-linejoin="round"/>
<path d="M121.08 215.423C121.08 215.423 125.162 222.96 125.372 233.011" stroke="black" stroke-width="0.50913" stroke-linecap="round" stroke-linejoin="round"/>
<path d="M98.5718 263.999C98.5718 263.999 101.084 266.616 101.294 269.652C101.294 269.652 104.853 270.594 106.528 269.024" stroke="black" stroke-width="0.50913" stroke-linecap="round" stroke-linejoin="round"/>
<path d="M98.0483 267.767C98.0483 267.767 95.2217 269.651 94.0701 272.373" stroke="black" stroke-width="0.50913" stroke-linecap="round" stroke-linejoin="round"/>
<path d="M98.3623 273.002C98.7811 273.107 102.131 274.572 104.539 272.792" stroke="black" stroke-width="0.50913" stroke-linecap="round" stroke-linejoin="round"/>
<path d="M97.4202 274.049L95.3264 275.515" stroke="black" stroke-width="0.50913" stroke-linecap="round" stroke-linejoin="round"/>
<path d="M115.322 271.432L117.206 274.677C117.206 274.677 120.452 267.035 123.592 268.919" stroke="black" stroke-width="0.50913" stroke-linecap="round" stroke-linejoin="round"/>
<path d="M121.394 274.781C121.394 274.781 123.697 276.247 123.802 278.655" stroke="black" stroke-width="0.50913" stroke-linecap="round" stroke-linejoin="round"/>
<path d="M121.603 269.861C121.603 269.861 124.849 273.525 125.163 276.77" stroke="black" stroke-width="0.50913" stroke-linecap="round" stroke-linejoin="round"/>
<path d="M117.834 278.131C117.834 278.131 119.614 279.074 120.033 282.11" stroke="black" stroke-width="0.50913" stroke-linecap="round" stroke-linejoin="round"/>
<path d="M124.011 281.063L125.372 280.749" stroke="black" stroke-width="0.50913" stroke-linecap="round" stroke-linejoin="round"/>
<path d="M124.953 283.052L128.303 283.156" stroke="black" stroke-width="0.50913" stroke-linecap="round" stroke-linejoin="round"/>
<path d="M125.267 285.355L128.722 284.832" stroke="black" stroke-width="0.50913" stroke-linecap="round" stroke-linejoin="round"/>
<path d="M127.546 115.725L127.694 123.423L128.878 123.571C128.878 123.571 126.509 126.829 128.36 127.791C128.36 127.791 126.361 129.197 128.138 130.382C128.138 130.382 127.471 133.565 128.582 134.379L128.286 143.41" stroke="black" stroke-width="0.449233" stroke-linecap="round"/>
<path d="M129.174 130.456C129.174 130.456 132.357 127.273 133.024 128.161" stroke="black" stroke-width="0.449233" stroke-linecap="round"/>
<path d="M129.544 133.861C129.544 133.861 130.581 132.528 131.025 132.751" stroke="black" stroke-width="0.449233" stroke-linecap="round"/>
<path d="M112.944 59.2192C109.658 57.1284 106.671 59.3685 106.671 59.3685L105.582 59.9771" stroke="black" stroke-width="0.5" stroke-linecap="round"/>
<path d="M109.876 59.4871C110.268 59.4871 110.585 59.2084 110.585 58.8646C110.585 58.5209 110.268 58.2422 109.876 58.2422C109.484 58.2422 109.167 58.5209 109.167 58.8646C109.167 59.2084 109.484 59.4871 109.876 59.4871Z" fill="black"/>
<path d="M115.818 59.0323C115.818 59.0323 117.76 57.5762 120 59.331" stroke="black" stroke-width="0.6" stroke-linecap="round"/>
<path d="M117.648 59.5181C117.937 59.5181 118.171 59.284 118.171 58.9954C118.171 58.7067 117.937 58.4727 117.648 58.4727C117.359 58.4727 117.125 58.7067 117.125 58.9954C117.125 59.284 117.359 59.5181 117.648 59.5181Z" fill="black"/>
<g opacity="0.145">
<path d="M113.185 75.2891C112.341 73.1771 114.558 71.4875 114.558 71.4875C114.241 70.0091 115.297 70.0091 115.297 70.0091C116.142 69.3755 115.509 67.7914 115.509 67.7914C114.347 65.8906 115.825 65.4682 115.825 65.4682L116.987 64.0954L115.509 59.977L115.333 57.7256C115.781 55.9335 114.885 52.1999 114.885 52.1999C116.976 46.5249 110.255 39.9538 110.255 39.9538L111.179 39.1735L112.129 36.9559L116.459 32.9431L118.465 31.2534L118.677 32.3094L117.409 35.2663L118.465 36.7447L118.149 38.3287L116.881 39.4903V41.6023L115.192 42.8696C115.192 42.8696 121.317 48.2552 119.733 58.7097C119.733 58.7097 120.155 69.7979 114.875 75.1835L113.185 75.2891Z" fill="black"/>
<path d="M134.728 161.776C132.405 148.893 136.629 111.299 136.629 111.299L141.381 112.144L142.542 122.598L142.437 126.189L142.331 128.617L140.642 133.053L142.12 134.742C142.12 134.742 143.493 144.246 140.219 152.061L140.008 153.751L138.318 156.496L138.741 159.031L134.728 161.776Z" fill="black"/>
<path d="M120.411 122.391C124.742 119.255 124.891 105.217 124.891 105.217C117.294 116.81 111.777 109.501 106.875 109.113C102.893 108.798 99.2869 107.315 96.7819 108.636C84.0178 115.37 83.468 99.7902 83.5233 99.5415C83.5233 99.5415 82.6272 116.119 85.7634 122.69C85.7634 122.69 89.3476 118.06 94.8733 116.417C94.8733 116.417 99.951 112.833 99.951 109.846L103.386 109.996C103.386 109.996 105.775 117.164 113.093 119.703L120.411 122.391Z" fill="black"/>
<path d="M70.8291 30.0972C70.8291 30.0972 75.608 41.7459 73.8159 55.4854C73.8159 55.4854 75.9067 72.5105 73.8159 78.7829C73.8159 78.7829 78.8936 95.5092 77.4001 117.612C78.1468 117.164 81.7311 118.657 81.7311 118.657L82.0298 113.58L82.1791 111.041L83.0752 108.95V104.768L83.3738 103.126L83.6725 99.0934L83.8219 96.5546C83.8219 96.5546 84.4192 91.3277 84.5686 90.7303C84.7179 90.1329 85.1659 88.7888 85.1659 88.7888L85.3153 82.2177C85.3153 82.2177 86.3607 79.5296 86.51 78.7829C86.6594 78.0362 86.6594 76.244 86.6594 76.244L85.0166 72.6598L85.9127 67.8809L85.0166 54.7387L85.7633 51.7519L84.8673 48.1676L83.3738 41.1485L81.5817 36.6682L78.2963 32.4866L76.056 32.3373L74.2639 30.9932L70.8291 30.0972Z" fill="black"/>
<path d="M78.2963 130.306L77.4001 147.182C77.4001 147.182 80.6857 147.182 80.835 137.325L81.5817 128.663L78.2963 130.306Z" fill="black"/>
</g>
<g opacity="0.377">
<path d="M65.4526 48.9146C65.4526 48.9146 66.6474 28.604 73.2184 44.4343L72.6211 83.8608L65.4526 48.9146Z" fill="white"/>
<path d="M98.5068 51.4235C99.8797 43.9258 103.576 42.4474 103.576 42.4474C103.576 42.4474 106.638 40.441 110.545 42.025C110.545 42.025 113.608 46.3547 113.608 48.3611C113.608 48.3611 103.681 48.6779 98.5068 51.4235Z" fill="white"/>
<path d="M65.7515 147.63L68.1409 136.429L70.8291 135.683L70.6797 146.883C70.6797 146.883 66.6476 146.883 65.7515 147.63Z" fill="white"/>
<path d="M53.9531 152.708C53.9531 152.708 58.8815 132.098 62.0177 130.605L62.7645 131.8C62.7645 131.8 59.1802 140.611 58.4335 144.046L59.9269 146.286L57.9855 153.305C57.9855 153.305 54.6998 153.454 53.9531 152.708Z" fill="white"/>
<path d="M86.6592 129.261C86.6592 129.261 85.4644 123.884 92.0355 123.436C92.0355 123.436 105.924 120.748 113.989 123.436C113.989 123.436 118.917 123.884 119.515 124.631C119.515 124.631 123.248 127.917 122.053 130.456C122.053 130.456 104.58 125.975 86.6592 129.261Z" fill="white"/>
<path d="M98.9054 184.219L98.0093 147.182L95.9185 146.883L95.321 184.518C95.321 184.518 97.7106 186.907 98.9054 184.219Z" fill="white"/>
<path d="M92.6329 150.169H94.7238L94.425 183.323C94.425 183.323 93.529 186.011 90.5422 184.219L92.6329 150.169Z" fill="white"/>
<path d="M76.6473 156.919L79.3929 160.721L81.9274 160.087L84.8842 164.311C84.8842 164.311 84.673 180.574 85.9402 183.53L84.673 185.642L81.0825 185.22V182.474L78.9705 183.108L78.3369 180.362L76.0137 179.518L76.6473 156.919Z" fill="white"/>
</g>
<defs>
<linearGradient id="paint0_linear_2689_24114" x1="135.067" y1="148.459" x2="-384.797" y2="148.459" gradientUnits="userSpaceOnUse">
<stop stop-color="white"/>
<stop offset="1" stop-color="#CCCCCC"/>
</linearGradient>
</defs>
</svg>
