<svg width="236" height="319" viewBox="0 0 236 319" fill="none" xmlns="http://www.w3.org/2000/svg">
<path d="M206.5 0.5H29.5C21.2157 0.5 14.5 7.21573 14.5 15.5V303.5C14.5 311.784 21.2157 318.5 29.5 318.5H206.5C214.784 318.5 221.5 311.784 221.5 303.5V15.5C221.5 7.21573 214.784 0.5 206.5 0.5Z" fill="url(#paint0_linear_2689_26079)" stroke="black" stroke-linecap="square"/>
<path d="M79.8571 15H105.286M130.714 15H156.143M181.571 15H207V304H181.571M156.143 304H130.714M105.286 304H79.8571M54.4285 304H29V15H54.4285" stroke="black"/>
<path d="M67.0146 66.1955C66.9354 62.7888 68.7972 57.243 68.7972 57.243C70.6986 54.2721 73.0357 55.9754 73.0357 55.9754C73.0357 55.9754 75.967 59.0652 73.8279 62.7888L72.8773 65.0863L73.0357 67.7799L72.1642 69.2852L69.5498 69.5229L67.6484 68.4137L67.0146 66.1955Z" fill="#FFDD55" stroke="black" stroke-width="0.320521"/>
<path d="M67.7277 88.2994C70.3421 84.7343 67.8861 79.8224 67.8861 79.8224C65.5094 78.3963 62.8157 81.6445 62.8157 81.6445L62.4988 82.4368L62.2612 87.1903C62.2612 87.1903 60.2013 91.5476 61.6274 93.6075C61.6274 93.6075 62.4988 95.0335 64.4795 93.9244C64.4795 93.9244 65.5094 93.2906 65.5886 91.0723L67.7277 88.2994Z" fill="#FFDD55" stroke="black" stroke-width="0.320521"/>
<path d="M49.8228 90.6758C49.902 87.0315 48.2383 84.5755 48.2383 84.5755C48.2383 84.5755 46.5746 82.4365 44.277 84.5755C44.277 84.5755 42.851 86.9523 43.6432 88.616L44.1186 89.7251L44.1186 90.9135L44.8316 91.7058C44.8316 91.7058 45.1485 96.2216 47.2084 96.4593C47.2084 96.4593 50.0604 97.0138 49.8228 90.6758Z" fill="#FFDD55" stroke="black" stroke-width="0.320521"/>
<path d="M57.7453 130.447C62.6572 128.07 61.6273 122.604 61.6273 122.604C61.5481 121.257 58.8545 121.178 58.8545 121.178C55.0517 121.97 55.1309 127.595 55.1309 127.595C53.2295 127.674 51.9619 133.22 51.9619 133.22C51.9619 133.22 49.9813 136.23 50.5358 137.023C50.5358 137.023 50.932 137.657 51.9619 137.419L53.6256 135.993L55.0517 134.091L56.7946 131.556L57.7453 130.447Z" fill="#FFDD55" stroke="black" stroke-width="0.320521"/>
<path d="M61.3922 105.16C62.9607 102.471 62.5126 95.6369 62.5126 95.6369L64.4733 93.9563C63.3248 93.9492 63.4892 94.8409 61.2801 93.5081C61.2055 93.1966 61.3264 92.8371 61.1912 92.5022C60.7057 91.3002 61.3855 89.63 62.2183 87.3029C62.5029 86.5075 62.3252 85.2059 62.3851 83.8644C62.4188 83.111 62.3633 82.2463 62.8349 81.6491C63.7522 80.4871 64.3073 79.867 65.3708 79.4359C66.7755 78.8665 68.0026 79.7271 68.0026 79.7271L69.6832 71.324L72.0361 69.3072L69.3471 69.5313C66.6581 68.8591 67.1062 64.6015 67.1062 64.6015L67.5544 61.2403L68.2267 58.4393C70.0193 54.2938 72.8203 55.9744 72.8203 55.9744C74.501 48.1315 71.1397 42.1934 71.1397 42.1934C71.924 36.5913 65.5377 31.9976 65.5377 31.9976L61.5042 30.317L55.2299 28.6364L53.2132 29.5327C49.2917 29.4207 45.0342 33.118 45.0342 33.118C39.5442 38.0478 38.0877 48.1315 38.0877 48.1315L38.1997 51.2687C36.9672 54.2938 41.6729 67.2905 41.6729 67.2905C40.8887 71.436 44.1379 84.3207 44.1379 84.3207C44.1379 84.3207 47.8352 81.9679 48.9556 86.2254C48.9556 86.2254 50.7483 92.1636 49.2917 94.8526C49.2917 94.8526 48.3954 96.9814 46.4907 96.5332L48.7315 110.65L50.3001 118.381L50.7483 126L50.8603 134.515L52.0928 133.507C52.0928 133.507 53.3252 127.905 55.2299 127.569C55.2299 127.569 55.566 119.838 60.2717 121.518L61.6162 122.415L61.8403 121.406L61.1681 119.053L60.6079 116.252L60.4958 113.9L60.4958 110.762L61.3922 105.16Z" fill="#AAD400" stroke="black" stroke-width="0.320521"/>
<path d="M61.6274 120.94C61.6274 120.94 58.9338 113.017 61.6274 104.936C61.6274 104.936 62.895 98.1232 62.7365 95.5879C62.7365 95.5879 65.7471 94.1619 65.5886 90.8344C65.5886 90.8344 71.2928 86.5563 67.9654 79.9014C67.9654 79.9014 69.0745 72.4543 69.7083 71.1867C69.7083 71.1867 73.9865 68.8099 72.8773 66.2747C72.8773 66.2747 72.8773 64.2149 73.3527 64.0564C73.3527 64.0564 76.3632 59.4614 73.0358 55.9755C73.0358 55.9755 74.1449 47.2608 71.2928 42.5073C71.2928 42.5073 71.6097 33.4756 63.0534 31.0989C63.0534 31.0989 56.2401 27.7714 53.0711 29.5144C53.0711 29.5144 44.0395 29.9897 39.9198 40.9228C39.9198 40.9228 37.0677 47.7361 38.3353 50.9051C38.4593 56.8384 40.357 61.2953 40.0507 66.8541C40.0507 66.8541 40.1955 73.6976 44.3564 84.4965C44.3564 84.4965 42.6134 86.7148 44.0395 89.2499C44.0395 89.2499 44.0395 91.4682 44.8317 91.7851C44.8317 91.7851 45.1486 95.5879 46.5746 96.3802L48.6345 110.482C48.6345 110.482 50.5359 118.246 50.219 120.306C50.219 120.306 51.1697 130.922 50.8528 134.883C50.8528 134.883 49.506 138.29 52.0412 137.339C52.0412 137.339 55.7647 134.25 56.4778 131.794L57.1908 130.922C57.1908 130.922 60.9936 128.625 61.5482 125.456C62.1027 124.505 61.6274 120.94 61.6274 120.94Z" fill="#FF0000" stroke="black"/>
<path d="M63.6872 86.9522C63.608 84.8924 65.034 83.0702 65.034 83.0702C67.49 81.0896 66.777 84.8132 66.777 84.8132C66.777 84.8132 64.7171 82.6741 64.5587 86.6353L64.7964 87.4276L63.9249 89.8043C63.9249 89.8043 64.0833 88.4575 63.608 89.8043L63.6872 86.9522Z" fill="black" stroke="black" stroke-width="0.320521"/>
<path d="M47.1292 86.5564C47.1292 86.5564 45.7824 84.8927 45.1486 86.4772L44.9901 88.1409L46.0993 91.1514C46.0993 91.1514 46.8123 89.25 45.9408 87.5071C45.9408 87.5071 45.5447 86.0018 47.1292 86.5564Z" fill="black" stroke="black" stroke-width="0.320521"/>
<path d="M55.9231 129.179L57.9037 127.278C57.9037 127.278 58.9337 123.554 59.1713 125.852L59.1713 126.882L59.8843 125.931C59.8843 125.931 60.2012 124.188 59.6467 123.554C59.6467 123.554 57.5868 123.475 57.5076 126.565C57.5076 126.565 55.2893 128.229 55.9231 129.179Z" fill="black" stroke="black" stroke-width="0.320521"/>
<path d="M42.8511 42.6655C42.8511 42.6655 41.1081 49.9542 42.8511 52.0141" stroke="black" stroke-width="0.544886" stroke-linecap="round"/>
<path d="M40.6327 44.5669C40.6327 44.5669 41.2665 47.0229 40.395 48.7658C40.395 48.7658 39.2859 52.4894 42.138 54.1531" stroke="black" stroke-width="0.544886" stroke-linecap="round"/>
<path d="M40.4743 55.104C40.4743 55.104 41.3458 56.1339 42.6134 55.104" stroke="black" stroke-width="0.544886" stroke-linecap="round"/>
<path d="M40.5535 56.7676C40.5535 56.7676 41.3458 57.7975 42.4549 57.243" stroke="black" stroke-width="0.544886" stroke-linecap="round"/>
<path d="M42.3757 58.5897C42.3757 58.5897 43.0887 58.7481 43.0887 60.4911C43.0887 60.4911 42.3757 62.0756 44.1979 63.3432" stroke="black" stroke-width="0.544886" stroke-linecap="round"/>
<path d="M41.2666 59.8574L41.9004 61.6004C41.9004 61.6004 42.2173 63.7394 43.168 64.2148" stroke="black" stroke-width="0.544886" stroke-linecap="round"/>
<path d="M43.564 65.4827L44.5939 65.0073" stroke="black" stroke-width="0.544886" stroke-linecap="round"/>
<path d="M44.9109 66.671L43.9602 67.2255" stroke="black" stroke-width="0.544886" stroke-linecap="round"/>
<path d="M44.9109 67.6214L44.1979 68.4137" stroke="black" stroke-width="0.544886" stroke-linecap="round"/>
<path d="M45.3863 69.6021L44.594 70.7905" stroke="black" stroke-width="0.544886" stroke-linecap="round"/>
<path d="M64.3612 44.098C64.3612 44.098 63.4089 46.3388 62.0084 46.955" stroke="black" stroke-width="0.544886" stroke-linecap="round"/>
<path d="M61.168 33.0058C61.168 33.0058 63.5208 34.5744 64.6412 34.5183C64.6412 34.5183 68.2826 38.2717 68.0025 40.2324" stroke="black" stroke-width="0.544886" stroke-linecap="round"/>
<path d="M65.5377 38.3279C65.5377 38.3279 67.4983 41.7451 63.857 40.4566" stroke="black" stroke-width="0.544886" stroke-linecap="round"/>
<path d="M61.056 34.7427C61.056 34.7427 62.5126 35.415 62.4566 35.8071C62.4566 35.8071 64.3052 34.8548 64.0811 37.6558" stroke="black" stroke-width="0.544886" stroke-linecap="round"/>
<path d="M65.8738 43.9858C65.8738 43.9858 68.7308 48.0753 66.546 49.1397" stroke="black" stroke-width="0.544886" stroke-linecap="round"/>
<path d="M67.0502 42.3052C67.0502 42.3052 69.291 46.2827 69.291 46.7868C69.291 46.7868 70.4674 51.2685 68.8988 53.6773" stroke="black" stroke-width="0.544886" stroke-linecap="round"/>
<path d="M68.9548 42.4731C68.9548 42.4731 70.8595 45.3302 70.9716 47.683C70.9716 47.683 71.1396 52.5008 70.6355 53.7893" stroke="black" stroke-width="0.544886" stroke-linecap="round"/>
<path d="M73.0357 55.9755C73.0357 55.9755 70.0752 54.0136 68.2826 58.3272L67.6664 60.9041C67.6664 60.9041 64.5292 71.548 71.9799 69.2512" stroke="black" stroke-width="0.544886" stroke-linecap="round"/>
<path d="M73.7726 62.4726L72.3161 62.4726C72.3161 62.4726 73.1564 57.2627 70.8035 59.3915C70.8035 59.3915 70.0192 60.5119 70.1873 61.9684C70.1873 61.9684 68.1145 63.3129 69.6271 66.8422" stroke="black" stroke-width="0.544886" stroke-linecap="round"/>
<path d="M73.3526 64.0565L71.6438 64.6575" stroke="black" stroke-width="0.544886" stroke-linecap="round"/>
<path d="M65.4255 54.5737C65.4255 54.5737 66.0418 55.1339 66.826 54.7417" stroke="black" stroke-width="0.544886" stroke-linecap="round"/>
<path d="M66.6581 51.7165C66.6581 51.7165 67.6664 52.0527 68.0586 51.1003" stroke="black" stroke-width="0.544886" stroke-linecap="round"/>
<path d="M66.0978 56.5347C66.0978 56.5347 67.1622 57.0389 67.7784 55.6944" stroke="black" stroke-width="0.544886" stroke-linecap="round"/>
<path d="M64.7533 58.3833C64.7533 58.3833 64.6973 59.8958 63.857 60.1199C63.857 60.1199 64.5292 61.4644 63.2968 62.0246" stroke="black" stroke-width="0.544886" stroke-linecap="round"/>
<path d="M66.2659 61.6323L65.7057 61.4642C65.7057 61.4642 64.5292 67.4023 66.0978 68.8029C66.0978 68.8029 67.2182 70.0353 67.7224 70.1474C67.7224 70.1474 67.2742 73.1725 67.0502 73.6206C67.0502 73.6206 66.3779 77.2059 66.2099 77.486" stroke="black" stroke-width="0.544886" stroke-linecap="round"/>
<path d="M64.025 65.7217C64.025 65.7217 63.5208 69.363 66.0978 71.0997C66.0978 71.0997 66.8261 72.5562 64.6413 72.5002C64.6413 72.5002 67.0501 74.5729 64.1371 74.797" stroke="black" stroke-width="0.544886" stroke-linecap="round"/>
<path d="M63.4089 75.5817C63.4089 75.5817 64.3612 76.534 65.5377 76.3099" stroke="black" stroke-width="0.544886" stroke-linecap="round"/>
<path d="M62.5126 76.9258C62.5126 76.9258 63.4089 78.4383 64.4173 78.3823" stroke="black" stroke-width="0.544886" stroke-linecap="round"/>
<path d="M61.7843 78.5503L61.8403 81.0152C61.8403 81.0152 59.3754 83.0879 60.0477 86.8413" stroke="black" stroke-width="0.544886" stroke-linecap="round"/>
<path d="M68.6187 86.3933C69.5711 83.1441 67.9653 79.9013 67.9653 79.9013C65.2952 77.947 62.6246 82.0797 62.6246 82.0797L62.3445 86.4493L62.3445 87.2336C62.3445 87.2336 59.8796 91.6592 61.6722 93.5639C61.6722 93.5639 62.7926 95.5806 64.8654 93.4519" stroke="black" stroke-width="0.544886" stroke-linecap="round"/>
<path d="M63.3528 91.0991C63.2407 89.2504 63.913 87.7939 63.913 87.7939C63.5208 85.0489 64.4172 83.7604 64.4172 83.7604C67.4983 80.0631 66.826 85.1049 66.826 85.1049C66.826 85.1049 65.2575 83.0882 64.9213 85.329C64.9213 85.329 64.3611 86.5054 64.7533 87.5698C64.7533 87.5698 64.081 88.7462 63.969 90.0347" stroke="black" stroke-width="0.544886" stroke-linecap="round"/>
<path d="M59.9916 87.6816C59.9916 87.6816 58.1989 93.6198 60.9439 95.3565C60.9439 95.3565 59.9916 97.2612 60.1036 98.1575" stroke="black" stroke-width="0.544886" stroke-linecap="round"/>
<path d="M58.255 87.626L58.1429 88.7464" stroke="black" stroke-width="0.544886" stroke-linecap="round"/>
<path d="M58.0309 89.7544C58.0309 89.7544 57.4147 93.2277 58.7591 94.236" stroke="black" stroke-width="0.544886" stroke-linecap="round"/>
<path d="M58.0869 95.4126L59.0953 96.3089C59.0953 96.3089 57.2466 99.8943 57.4707 102.527" stroke="black" stroke-width="0.544886" stroke-linecap="round"/>
<path d="M48.6755 98.2699C48.6755 98.2699 50.3001 97.0374 50.7483 96.3652" stroke="black" stroke-width="0.544886" stroke-linecap="round"/>
<path d="M49.1236 100.062C49.1236 100.062 50.5801 99.222 50.9723 98.7178" stroke="black" stroke-width="0.544886" stroke-linecap="round"/>
<path d="M44.3563 84.4965C44.3563 84.4965 47.499 81.4076 49.2357 86.5055C49.2357 86.5055 51.9805 97.2917 46.5746 96.3802" stroke="black" stroke-width="0.544886" stroke-linecap="round"/>
<path d="M50.3001 101.631L49.2357 102.583L49.6839 106.281L50.4121 106.057" stroke="black" stroke-width="0.544886" stroke-linecap="round"/>
<path d="M46.0985 92.2754C46.0985 91.155 45.4823 89.4184 45.4823 89.4184C44.754 87.9618 45.0341 86.6734 45.0341 86.6734C46.0289 84.0969 47.499 87.0655 47.499 87.0655C47.499 87.0655 45.8184 85.665 45.7624 87.1775C45.7624 87.1775 46.7148 89.1383 46.3226 91.155" stroke="black" stroke-width="0.544886" stroke-linecap="round"/>
<path d="M47.443 94.2922C48.6755 94.012 48.3394 91.7712 48.3394 91.7712L47.8912 91.6032L47.9472 88.9142L47.275 89.9786C47.275 89.9786 47.5551 92.3314 47.331 93.0037" stroke="black" stroke-width="0.544886" stroke-linecap="round"/>
<path d="M59.5435 99.5581L59.2073 104.936L58.367 105.216" stroke="black" stroke-width="0.544886" stroke-linecap="round"/>
<path d="M56.1821 103.368L56.1821 105.328L57.9748 107.065L58.8151 106.841" stroke="black" stroke-width="0.544886" stroke-linecap="round"/>
<path d="M58.5911 108.354C58.5911 108.354 58.0309 118.213 59.7114 120.006" stroke="black" stroke-width="0.544886" stroke-linecap="round"/>
<path d="M56.3503 108.578C56.3503 108.578 56.7425 109.922 57.6388 110.034" stroke="black" stroke-width="0.544886" stroke-linecap="round"/>
<path d="M57.0225 111.042L57.2466 117.541" stroke="black" stroke-width="0.544886" stroke-linecap="round"/>
<path d="M51.2524 109.193L50.4681 110.034" stroke="black" stroke-width="0.544886" stroke-linecap="round"/>
<path d="M50.8042 107.681L49.9639 108.353" stroke="black" stroke-width="0.544886" stroke-linecap="round"/>
<path d="M51.1964 111.435C51.1964 111.435 51.3645 116.252 51.8686 117.093" stroke="black" stroke-width="0.544886" stroke-linecap="round"/>
<path d="M50.8528 134.883L51.9807 133.45C51.9807 133.45 53.2132 128.128 55.0058 127.568C55.0058 127.568 55.5661 121.07 59.3754 121.126C59.3754 121.126 61.5602 121.406 61.7843 123.087" stroke="black" stroke-width="0.544886" stroke-linecap="round"/>
<path d="M53.7733 132.442C54.5576 131.714 54.9498 129.977 54.9498 129.977C55.1178 127.849 57.4707 126.952 57.4707 126.952L57.5267 126.56C57.5827 123.927 58.8712 123.479 58.8712 123.479C60.7759 122.807 59.8236 125.944 59.8236 125.944L59.2073 126.784L59.2073 125.384C59.2073 125.384 58.367 124.151 58.0309 127.288C58.0309 127.288 56.0702 128.017 55.678 129.585" stroke="black" stroke-width="0.544886" stroke-linecap="round"/>
<path d="M53.6531 78.7511C54.4591 84.9411 55.0028 91.1482 54.9734 97.3489C55.0052 98.0703 54.9282 101.147 55.0285 98.981C55.3942 93.0514 55.9317 81.7862 55.9317 81.7862C55.9703 77.4038 57.3218 73.5613 57.4904 69.1858C57.7063 66.3373 57.9253 63.4984 57.719 60.6302C57.8702 55.5543 59.2286 51.4472 59.2139 46.3636C58.305 43.9849 59.4862 38.2217 55.0876 37.9052C50.2693 39.0329 52.8434 41.1998 52.3862 42.9536C52.3512 46.1544 51.9659 51.2361 51.907 52.9115C52.6192 54.0919 53.3386 70.2033 53.6531 78.7511Z" fill="#FCE94F"/>
<path d="M190.06 67.0016C189.98 63.5949 191.842 58.0492 191.842 58.0492C193.744 55.0782 196.081 56.7816 196.081 56.7816C196.081 56.7816 199.012 59.8714 196.873 63.5949L195.922 65.8924L196.081 68.5861L195.209 70.0914L192.595 70.329L190.693 69.2199L190.06 67.0016Z" fill="#FFDD55" stroke="black" stroke-width="0.320521"/>
<path d="M190.773 89.1056C193.387 85.5405 190.931 80.6285 190.931 80.6285C188.554 79.2025 185.861 82.4507 185.861 82.4507L185.544 83.243L185.306 87.9964C185.306 87.9964 183.246 92.3538 184.672 94.4137C184.672 94.4137 185.544 95.8397 187.525 94.7306C187.525 94.7306 188.554 94.0968 188.634 91.8785L190.773 89.1056Z" fill="#FFDD55" stroke="black" stroke-width="0.320521"/>
<path d="M172.868 91.482C172.947 87.8376 171.283 85.3817 171.283 85.3817C171.283 85.3817 169.62 83.2426 167.322 85.3817C167.322 85.3817 165.896 87.7584 166.688 89.4221L167.164 90.5313L167.164 91.7197L167.877 92.5119C167.877 92.5119 168.194 97.0277 170.253 97.2654C170.253 97.2654 173.105 97.82 172.868 91.482Z" fill="#FFDD55" stroke="black" stroke-width="0.320521"/>
<path d="M180.79 131.253C185.702 128.876 184.672 123.41 184.672 123.41C184.593 122.063 181.899 121.984 181.899 121.984C178.097 122.776 178.176 128.401 178.176 128.401C176.275 128.48 175.007 134.026 175.007 134.026C175.007 134.026 173.026 137.037 173.581 137.829C173.581 137.829 173.977 138.463 175.007 138.225L176.671 136.799L178.097 134.898L179.84 132.362L180.79 131.253Z" fill="#FFDD55" stroke="black" stroke-width="0.320521"/>
<path d="M184.437 105.966C186.006 103.277 185.558 96.443 185.558 96.443L187.518 94.7624C186.37 94.7554 186.534 95.647 184.325 94.3142C184.251 94.0027 184.371 93.6433 184.236 93.3084C183.751 92.1064 184.431 90.4361 185.263 88.109C185.548 87.3137 185.37 86.0121 185.43 84.6705C185.464 83.9172 185.408 83.0525 185.88 82.4553C186.797 81.2932 187.352 80.6731 188.416 80.2421C189.821 79.6727 191.048 80.5332 191.048 80.5332L192.728 72.1301L195.081 70.1134L192.392 70.3375C189.703 69.6652 190.151 65.4077 190.151 65.4077L190.599 62.0464L191.272 59.2454C193.064 55.0999 195.865 56.7805 195.865 56.7805C197.546 48.9377 194.185 42.9995 194.185 42.9995C194.969 37.3974 188.583 32.8038 188.583 32.8038L184.549 31.1232L178.275 29.4425L176.258 30.3389C172.337 30.2268 168.079 33.9242 168.079 33.9242C162.589 38.854 161.133 48.9377 161.133 48.9377L161.245 52.0748C160.012 55.0999 164.718 68.0967 164.718 68.0967C163.934 72.2422 167.183 85.1269 167.183 85.1269C167.183 85.1269 170.88 82.774 172.001 87.0316C172.001 87.0316 173.793 92.9697 172.337 95.6587C172.337 95.6587 171.44 97.7875 169.536 97.3393L171.777 111.456L173.345 119.187L173.793 126.806L173.905 135.321L175.138 134.313C175.138 134.313 176.37 128.711 178.275 128.375C178.275 128.375 178.611 120.644 183.317 122.324L184.661 123.221L184.885 122.212L184.213 119.86L183.653 117.059L183.541 114.706L183.541 111.569L184.437 105.966Z" fill="#AAD400" stroke="black" stroke-width="0.320521"/>
<path d="M184.672 121.746C184.672 121.746 181.979 113.824 184.672 105.743C184.672 105.743 185.94 98.9293 185.782 96.3941C185.782 96.3941 188.792 94.9681 188.634 91.6406C188.634 91.6406 194.338 87.3625 191.01 80.7076C191.01 80.7076 192.12 73.2604 192.753 71.9928C192.753 71.9928 197.032 69.6161 195.922 67.0809C195.922 67.0809 195.922 65.0211 196.398 64.8626C196.398 64.8626 199.408 60.2676 196.081 56.7817C196.081 56.7817 197.19 48.0669 194.338 43.3134C194.338 43.3134 194.655 34.2818 186.098 31.9051C186.098 31.9051 179.285 28.5776 176.116 30.3206C176.116 30.3206 167.084 30.7959 162.965 41.7289C162.965 41.7289 160.113 48.5423 161.38 51.7113C161.504 57.6445 163.402 62.1015 163.096 67.6602C163.096 67.6602 163.241 74.5038 167.401 85.3026C167.401 85.3026 165.658 87.5209 167.084 90.0561C167.084 90.0561 167.084 92.2744 167.877 92.5913C167.877 92.5913 168.194 96.3941 169.62 97.1864L171.68 111.288C171.68 111.288 173.581 119.052 173.264 121.112C173.264 121.112 174.215 131.728 173.898 135.69C173.898 135.69 172.551 139.096 175.086 138.146C175.086 138.146 178.81 135.056 179.523 132.6L180.236 131.728C180.236 131.728 184.039 129.431 184.593 126.262C185.148 125.311 184.672 121.746 184.672 121.746Z" fill="#FF0000" stroke="black"/>
<path d="M186.732 87.7584C186.653 85.6985 188.079 83.8764 188.079 83.8764C190.535 81.8957 189.822 85.6193 189.822 85.6193C189.822 85.6193 187.762 83.4802 187.604 87.4415L187.841 88.2337L186.97 90.6105C186.97 90.6105 187.128 89.2637 186.653 90.6105L186.732 87.7584Z" fill="black" stroke="black" stroke-width="0.320521"/>
<path d="M170.174 87.3626C170.174 87.3626 168.827 85.6988 168.194 87.2833L168.035 88.9471L169.144 91.9576C169.144 91.9576 169.857 90.0562 168.986 88.3133C168.986 88.3133 168.59 86.808 170.174 87.3626Z" fill="black" stroke="black" stroke-width="0.320521"/>
<path d="M178.968 129.985L180.949 128.084C180.949 128.084 181.979 124.36 182.216 126.658L182.216 127.688L182.929 126.737C182.929 126.737 183.246 124.994 182.692 124.36C182.692 124.36 180.632 124.281 180.553 127.371C180.553 127.371 178.334 129.035 178.968 129.985Z" fill="black" stroke="black" stroke-width="0.320521"/>
<path d="M165.896 43.4717C165.896 43.4717 164.153 50.7604 165.896 52.8202" stroke="black" stroke-width="0.544886" stroke-linecap="round"/>
<path d="M163.678 45.373C163.678 45.373 164.312 47.829 163.44 49.572C163.44 49.572 162.331 53.2956 165.183 54.9593" stroke="black" stroke-width="0.544886" stroke-linecap="round"/>
<path d="M163.519 55.9101C163.519 55.9101 164.391 56.9401 165.658 55.9101" stroke="black" stroke-width="0.544886" stroke-linecap="round"/>
<path d="M163.599 57.5737C163.599 57.5737 164.391 58.6037 165.5 58.0491" stroke="black" stroke-width="0.544886" stroke-linecap="round"/>
<path d="M165.421 59.3959C165.421 59.3959 166.134 59.5543 166.134 61.2973C166.134 61.2973 165.421 62.8818 167.243 64.1494" stroke="black" stroke-width="0.544886" stroke-linecap="round"/>
<path d="M164.312 60.6636L164.945 62.4065C164.945 62.4065 165.262 64.5456 166.213 65.0209" stroke="black" stroke-width="0.544886" stroke-linecap="round"/>
<path d="M166.609 66.2888L167.639 65.8134" stroke="black" stroke-width="0.544886" stroke-linecap="round"/>
<path d="M167.956 67.4771L167.005 68.0317" stroke="black" stroke-width="0.544886" stroke-linecap="round"/>
<path d="M167.956 68.4276L167.243 69.2198" stroke="black" stroke-width="0.544886" stroke-linecap="round"/>
<path d="M168.431 70.4083L167.639 71.5966" stroke="black" stroke-width="0.544886" stroke-linecap="round"/>
<path d="M187.406 44.9042C187.406 44.9042 186.454 47.145 185.053 47.7612" stroke="black" stroke-width="0.544886" stroke-linecap="round"/>
<path d="M184.213 33.8119C184.213 33.8119 186.566 35.3805 187.686 35.3245C187.686 35.3245 191.328 39.0779 191.048 41.0386" stroke="black" stroke-width="0.544886" stroke-linecap="round"/>
<path d="M188.583 39.134C188.583 39.134 190.543 42.5513 186.902 41.2628" stroke="black" stroke-width="0.544886" stroke-linecap="round"/>
<path d="M184.101 35.5489C184.101 35.5489 185.558 36.2211 185.502 36.6132C185.502 36.6132 187.35 35.6609 187.126 38.4619" stroke="black" stroke-width="0.544886" stroke-linecap="round"/>
<path d="M188.919 44.792C188.919 44.792 191.776 48.8815 189.591 49.9459" stroke="black" stroke-width="0.544886" stroke-linecap="round"/>
<path d="M190.095 43.1113C190.095 43.1113 192.336 47.0888 192.336 47.593C192.336 47.593 193.512 52.0746 191.944 54.4835" stroke="black" stroke-width="0.544886" stroke-linecap="round"/>
<path d="M192 43.2793C192 43.2793 193.905 46.1363 194.017 48.4892C194.017 48.4892 194.185 53.3069 193.68 54.5954" stroke="black" stroke-width="0.544886" stroke-linecap="round"/>
<path d="M196.081 56.7817C196.081 56.7817 193.12 54.8198 191.328 59.1334L190.711 61.7103C190.711 61.7103 187.574 72.3542 195.025 70.0573" stroke="black" stroke-width="0.544886" stroke-linecap="round"/>
<path d="M196.818 63.2788L195.361 63.2788C195.361 63.2788 196.201 58.0688 193.849 60.1976C193.849 60.1976 193.064 61.318 193.232 62.7745C193.232 62.7745 191.16 64.119 192.672 67.6483" stroke="black" stroke-width="0.544886" stroke-linecap="round"/>
<path d="M196.398 64.8626L194.689 65.4636" stroke="black" stroke-width="0.544886" stroke-linecap="round"/>
<path d="M188.471 55.3798C188.471 55.3798 189.087 55.94 189.871 55.5479" stroke="black" stroke-width="0.544886" stroke-linecap="round"/>
<path d="M189.703 52.5227C189.703 52.5227 190.711 52.8588 191.104 51.9065" stroke="black" stroke-width="0.544886" stroke-linecap="round"/>
<path d="M189.143 57.3409C189.143 57.3409 190.207 57.845 190.823 56.5005" stroke="black" stroke-width="0.544886" stroke-linecap="round"/>
<path d="M187.798 59.1895C187.798 59.1895 187.742 60.702 186.902 60.9261C186.902 60.9261 187.574 62.2706 186.342 62.8308" stroke="black" stroke-width="0.544886" stroke-linecap="round"/>
<path d="M189.311 62.4384L188.751 62.2703C188.751 62.2703 187.574 68.2085 189.143 69.609C189.143 69.609 190.263 70.8415 190.767 70.9535C190.767 70.9535 190.319 73.9786 190.095 74.4268C190.095 74.4268 189.423 78.0121 189.255 78.2922" stroke="black" stroke-width="0.544886" stroke-linecap="round"/>
<path d="M187.07 66.5278C187.07 66.5278 186.566 70.1692 189.143 71.9058C189.143 71.9058 189.871 73.3623 187.686 73.3063C187.686 73.3063 190.095 75.3791 187.182 75.6032" stroke="black" stroke-width="0.544886" stroke-linecap="round"/>
<path d="M186.454 76.3878C186.454 76.3878 187.406 77.3401 188.583 77.1161" stroke="black" stroke-width="0.544886" stroke-linecap="round"/>
<path d="M185.558 77.7319C185.558 77.7319 186.454 79.2445 187.462 79.1885" stroke="black" stroke-width="0.544886" stroke-linecap="round"/>
<path d="M184.829 79.3564L184.885 81.8213C184.885 81.8213 182.42 83.8941 183.093 87.6475" stroke="black" stroke-width="0.544886" stroke-linecap="round"/>
<path d="M191.664 87.1994C192.616 83.9503 191.01 80.7074 191.01 80.7074C188.34 78.7531 185.67 82.8859 185.67 82.8859L185.39 87.2555L185.39 88.0398C185.39 88.0398 182.925 92.4654 184.717 94.37C184.717 94.37 185.838 96.3868 187.91 94.258" stroke="black" stroke-width="0.544886" stroke-linecap="round"/>
<path d="M186.398 91.9052C186.286 90.0566 186.958 88.6001 186.958 88.6001C186.566 85.8551 187.462 84.5666 187.462 84.5666C190.543 80.8692 189.871 85.9111 189.871 85.9111C189.871 85.9111 188.303 83.8943 187.966 86.1352C187.966 86.1352 187.406 87.3116 187.798 88.376C187.798 88.376 187.126 89.5524 187.014 90.8409" stroke="black" stroke-width="0.544886" stroke-linecap="round"/>
<path d="M183.037 88.4878C183.037 88.4878 181.244 94.426 183.989 96.1626C183.989 96.1626 183.037 98.0673 183.149 98.9636" stroke="black" stroke-width="0.544886" stroke-linecap="round"/>
<path d="M181.3 88.4321L181.188 89.5525" stroke="black" stroke-width="0.544886" stroke-linecap="round"/>
<path d="M181.076 90.5605C181.076 90.5605 180.46 94.0338 181.804 95.0422" stroke="black" stroke-width="0.544886" stroke-linecap="round"/>
<path d="M181.132 96.2188L182.14 97.1151C182.14 97.1151 180.292 100.7 180.516 103.333" stroke="black" stroke-width="0.544886" stroke-linecap="round"/>
<path d="M171.721 99.0761C171.721 99.0761 173.345 97.8436 173.793 97.1714" stroke="black" stroke-width="0.544886" stroke-linecap="round"/>
<path d="M172.169 100.868C172.169 100.868 173.625 100.028 174.017 99.5239" stroke="black" stroke-width="0.544886" stroke-linecap="round"/>
<path d="M167.401 85.3026C167.401 85.3026 170.544 82.2138 172.281 87.3116C172.281 87.3116 175.026 98.0978 169.62 97.1864" stroke="black" stroke-width="0.544886" stroke-linecap="round"/>
<path d="M173.345 102.437L172.281 103.39L172.729 107.087L173.457 106.863" stroke="black" stroke-width="0.544886" stroke-linecap="round"/>
<path d="M169.144 93.0816C169.144 91.9611 168.527 90.2245 168.527 90.2245C167.799 88.768 168.079 87.4795 168.079 87.4795C169.074 84.9031 170.544 87.8716 170.544 87.8716C170.544 87.8716 168.863 86.4712 168.807 87.9837C168.807 87.9837 169.76 89.9444 169.368 91.9611" stroke="black" stroke-width="0.544886" stroke-linecap="round"/>
<path d="M170.488 95.0983C171.721 94.8182 171.384 92.5774 171.384 92.5774L170.936 92.4093L170.992 89.7203L170.32 90.7847C170.32 90.7847 170.6 93.1376 170.376 93.8098" stroke="black" stroke-width="0.544886" stroke-linecap="round"/>
<path d="M182.589 100.364L182.252 105.742L181.412 106.022" stroke="black" stroke-width="0.544886" stroke-linecap="round"/>
<path d="M179.227 104.174L179.227 106.135L181.02 107.871L181.86 107.647" stroke="black" stroke-width="0.544886" stroke-linecap="round"/>
<path d="M181.636 109.16C181.636 109.16 181.076 119.019 182.756 120.812" stroke="black" stroke-width="0.544886" stroke-linecap="round"/>
<path d="M179.395 109.384C179.395 109.384 179.788 110.728 180.684 110.84" stroke="black" stroke-width="0.544886" stroke-linecap="round"/>
<path d="M180.068 111.849L180.292 118.347" stroke="black" stroke-width="0.544886" stroke-linecap="round"/>
<path d="M174.297 110L173.513 110.84" stroke="black" stroke-width="0.544886" stroke-linecap="round"/>
<path d="M173.849 108.487L173.009 109.16" stroke="black" stroke-width="0.544886" stroke-linecap="round"/>
<path d="M174.241 112.241C174.241 112.241 174.409 117.058 174.914 117.899" stroke="black" stroke-width="0.544886" stroke-linecap="round"/>
<path d="M173.898 135.689L175.026 134.257C175.026 134.257 176.258 128.935 178.051 128.374C178.051 128.374 178.611 121.876 182.42 121.932C182.42 121.932 184.605 122.212 184.829 123.893" stroke="black" stroke-width="0.544886" stroke-linecap="round"/>
<path d="M176.818 133.248C177.603 132.52 177.995 130.784 177.995 130.784C178.163 128.655 180.516 127.758 180.516 127.758L180.572 127.366C180.628 124.733 181.916 124.285 181.916 124.285C183.821 123.613 182.869 126.75 182.869 126.75L182.252 127.59L182.252 126.19C182.252 126.19 181.412 124.957 181.076 128.095C181.076 128.095 179.115 128.823 178.723 130.391" stroke="black" stroke-width="0.544886" stroke-linecap="round"/>
<path d="M176.698 79.5573C177.504 85.7472 178.048 91.9543 178.018 98.155C178.05 98.8765 177.973 101.954 178.074 99.7872C178.439 93.8575 178.977 82.5924 178.977 82.5924C179.015 78.21 180.367 74.3674 180.535 69.992C180.751 67.1435 180.97 64.3045 180.764 61.4364C180.915 56.3604 182.274 52.2533 182.259 47.1697C181.35 44.7911 182.531 39.0279 178.133 38.7113C173.314 39.839 175.888 42.0059 175.431 43.7598C175.396 46.9606 175.011 52.0422 174.952 53.7177C175.664 54.898 176.384 71.0094 176.698 79.5573Z" fill="#FCE94F"/>
<path d="M128.389 217.378C128.309 213.971 130.171 208.425 130.171 208.425C132.073 205.454 134.41 207.158 134.41 207.158C134.41 207.158 137.341 210.247 135.202 213.971L134.251 216.268L134.41 218.962L133.538 220.467L130.924 220.705L129.022 219.596L128.389 217.378Z" fill="#FFDD55" stroke="black" stroke-width="0.320521"/>
<path d="M129.102 239.482C131.716 235.916 129.26 231.004 129.26 231.004C126.883 229.578 124.19 232.827 124.19 232.827L123.873 233.619L123.635 238.372C123.635 238.372 121.575 242.73 123.001 244.79C123.001 244.79 123.873 246.216 125.854 245.107C125.854 245.107 126.883 244.473 126.963 242.254L129.102 239.482Z" fill="#FFDD55" stroke="black" stroke-width="0.320521"/>
<path d="M111.197 241.858C111.276 238.214 109.612 235.758 109.612 235.758C109.612 235.758 107.949 233.619 105.651 235.758C105.651 235.758 104.225 238.134 105.017 239.798L105.493 240.907L105.493 242.096L106.206 242.888C106.206 242.888 106.523 247.404 108.582 247.641C108.582 247.641 111.434 248.196 111.197 241.858Z" fill="#FFDD55" stroke="black" stroke-width="0.320521"/>
<path d="M119.119 281.629C124.031 279.252 123.001 273.786 123.001 273.786C122.922 272.439 120.228 272.36 120.228 272.36C116.426 273.152 116.505 278.777 116.505 278.777C114.603 278.856 113.336 284.402 113.336 284.402C113.336 284.402 111.355 287.413 111.91 288.205C111.91 288.205 112.306 288.839 113.336 288.601L115 287.175L116.426 285.274L118.169 282.738L119.119 281.629Z" fill="#FFDD55" stroke="black" stroke-width="0.320521"/>
<path d="M122.766 256.342C124.335 253.653 123.887 246.819 123.887 246.819L125.847 245.138C124.699 245.131 124.863 246.023 122.654 244.69C122.58 244.379 122.7 244.019 122.565 243.684C122.08 242.482 122.76 240.812 123.592 238.485C123.877 237.69 123.699 236.388 123.759 235.046C123.793 234.293 123.737 233.428 124.209 232.831C125.126 231.669 125.681 231.049 126.745 230.618C128.149 230.049 129.377 230.909 129.377 230.909L131.057 222.506L133.41 220.489L130.721 220.713C128.032 220.041 128.48 215.784 128.48 215.784L128.928 212.422L129.601 209.621C131.393 205.476 134.194 207.157 134.194 207.157C135.875 199.314 132.514 193.375 132.514 193.375C133.298 187.773 126.912 183.18 126.912 183.18L122.878 181.499L116.604 179.819L114.587 180.715C110.666 180.603 106.408 184.3 106.408 184.3C100.918 189.23 99.4617 199.314 99.4617 199.314L99.5737 202.451C98.3413 205.476 103.047 218.473 103.047 218.473C102.263 222.618 105.512 235.503 105.512 235.503C105.512 235.503 109.209 233.15 110.33 237.408C110.33 237.408 112.122 243.346 110.666 246.035C110.666 246.035 109.769 248.163 107.865 247.715L110.106 261.832L111.674 269.563L112.122 277.182L112.234 285.697L113.467 284.689C113.467 284.689 114.699 279.087 116.604 278.751C116.604 278.751 116.94 271.02 121.646 272.7L122.99 273.597L123.214 272.588L122.542 270.236L121.982 267.435L121.87 265.082L121.87 261.944L122.766 256.342Z" fill="#AAD400" stroke="black" stroke-width="0.320521"/>
<path d="M123.001 272.122C123.001 272.122 120.308 264.2 123.001 256.119C123.001 256.119 124.269 249.305 124.111 246.77C124.111 246.77 127.121 245.344 126.963 242.017C126.963 242.017 132.667 237.738 129.339 231.084C129.339 231.084 130.449 223.636 131.082 222.369C131.082 222.369 135.36 219.992 134.251 217.457C134.251 217.457 134.251 215.397 134.727 215.239C134.727 215.239 137.737 210.644 134.41 207.158C134.41 207.158 135.519 198.443 132.667 193.689C132.667 193.689 132.984 184.658 124.427 182.281C124.427 182.281 117.614 178.954 114.445 180.697C114.445 180.697 105.413 181.172 101.294 192.105C101.294 192.105 98.4417 198.918 99.7093 202.087C99.8333 208.021 101.731 212.477 101.425 218.036C101.425 218.036 101.57 224.88 105.73 235.679C105.73 235.679 103.987 237.897 105.413 240.432C105.413 240.432 105.413 242.65 106.206 242.967C106.206 242.967 106.523 246.77 107.949 247.562L110.009 261.664C110.009 261.664 111.91 269.428 111.593 271.488C111.593 271.488 112.544 282.104 112.227 286.066C112.227 286.066 110.88 289.472 113.415 288.522C113.415 288.522 117.139 285.432 117.852 282.976L118.565 282.104C118.565 282.104 122.368 279.807 122.922 276.638C123.477 275.687 123.001 272.122 123.001 272.122Z" fill="#FF0000" stroke="black"/>
<path d="M125.061 238.134C124.982 236.075 126.408 234.252 126.408 234.252C128.864 232.272 128.151 235.995 128.151 235.995C128.151 235.995 126.091 233.856 125.933 237.817L126.17 238.61L125.299 240.986C125.299 240.986 125.457 239.64 124.982 240.986L125.061 238.134Z" fill="black" stroke="black" stroke-width="0.320521"/>
<path d="M108.503 237.739C108.503 237.739 107.156 236.075 106.523 237.659L106.364 239.323L107.473 242.334C107.473 242.334 108.186 240.432 107.315 238.689C107.315 238.689 106.919 237.184 108.503 237.739Z" fill="black" stroke="black" stroke-width="0.320521"/>
<path d="M117.297 280.361L119.278 278.46C119.278 278.46 120.308 274.736 120.545 277.034L120.545 278.064L121.258 277.113C121.258 277.113 121.575 275.37 121.021 274.736C121.021 274.736 118.961 274.657 118.882 277.747C118.882 277.747 116.663 279.411 117.297 280.361Z" fill="black" stroke="black" stroke-width="0.320521"/>
<path d="M104.225 193.848C104.225 193.848 102.482 201.136 104.225 203.196" stroke="black" stroke-width="0.544886" stroke-linecap="round"/>
<path d="M102.007 195.749C102.007 195.749 102.641 198.205 101.769 199.948C101.769 199.948 100.66 203.672 103.512 205.335" stroke="black" stroke-width="0.544886" stroke-linecap="round"/>
<path d="M101.848 206.286C101.848 206.286 102.72 207.316 103.987 206.286" stroke="black" stroke-width="0.544886" stroke-linecap="round"/>
<path d="M101.928 207.95C101.928 207.95 102.72 208.98 103.829 208.425" stroke="black" stroke-width="0.544886" stroke-linecap="round"/>
<path d="M103.75 209.772C103.75 209.772 104.463 209.93 104.463 211.673C104.463 211.673 103.75 213.258 105.572 214.525" stroke="black" stroke-width="0.544886" stroke-linecap="round"/>
<path d="M102.641 211.04L103.274 212.782C103.274 212.782 103.591 214.922 104.542 215.397" stroke="black" stroke-width="0.544886" stroke-linecap="round"/>
<path d="M104.938 216.665L105.968 216.189" stroke="black" stroke-width="0.544886" stroke-linecap="round"/>
<path d="M106.285 217.853L105.334 218.408" stroke="black" stroke-width="0.544886" stroke-linecap="round"/>
<path d="M106.285 218.804L105.572 219.596" stroke="black" stroke-width="0.544886" stroke-linecap="round"/>
<path d="M106.76 220.784L105.968 221.973" stroke="black" stroke-width="0.544886" stroke-linecap="round"/>
<path d="M125.735 195.28C125.735 195.28 124.783 197.521 123.382 198.137" stroke="black" stroke-width="0.544886" stroke-linecap="round"/>
<path d="M122.542 184.188C122.542 184.188 124.895 185.756 126.015 185.7C126.015 185.7 129.657 189.454 129.377 191.415" stroke="black" stroke-width="0.544886" stroke-linecap="round"/>
<path d="M126.912 189.51C126.912 189.51 128.872 192.927 125.231 191.639" stroke="black" stroke-width="0.544886" stroke-linecap="round"/>
<path d="M122.43 185.925C122.43 185.925 123.887 186.597 123.831 186.989C123.831 186.989 125.679 186.037 125.455 188.838" stroke="black" stroke-width="0.544886" stroke-linecap="round"/>
<path d="M127.248 195.168C127.248 195.168 130.105 199.257 127.92 200.322" stroke="black" stroke-width="0.544886" stroke-linecap="round"/>
<path d="M128.424 193.487C128.424 193.487 130.665 197.465 130.665 197.969C130.665 197.969 131.841 202.451 130.273 204.859" stroke="black" stroke-width="0.544886" stroke-linecap="round"/>
<path d="M130.329 193.655C130.329 193.655 132.234 196.512 132.346 198.865C132.346 198.865 132.514 203.683 132.009 204.971" stroke="black" stroke-width="0.544886" stroke-linecap="round"/>
<path d="M134.41 207.158C134.41 207.158 131.449 205.196 129.657 209.509L129.04 212.086C129.04 212.086 125.903 222.73 133.354 220.433" stroke="black" stroke-width="0.544886" stroke-linecap="round"/>
<path d="M135.147 213.655L133.69 213.655C133.69 213.655 134.53 208.445 132.178 210.574C132.178 210.574 131.393 211.694 131.561 213.151C131.561 213.151 129.489 214.495 131.001 218.024" stroke="black" stroke-width="0.544886" stroke-linecap="round"/>
<path d="M134.727 215.239L133.018 215.84" stroke="black" stroke-width="0.544886" stroke-linecap="round"/>
<path d="M126.8 205.756C126.8 205.756 127.416 206.316 128.2 205.924" stroke="black" stroke-width="0.544886" stroke-linecap="round"/>
<path d="M128.032 202.899C128.032 202.899 129.04 203.235 129.433 202.282" stroke="black" stroke-width="0.544886" stroke-linecap="round"/>
<path d="M127.472 207.717C127.472 207.717 128.536 208.221 129.152 206.877" stroke="black" stroke-width="0.544886" stroke-linecap="round"/>
<path d="M126.127 209.565C126.127 209.565 126.071 211.078 125.231 211.302C125.231 211.302 125.903 212.647 124.671 213.207" stroke="black" stroke-width="0.544886" stroke-linecap="round"/>
<path d="M127.64 212.814L127.08 212.646C127.08 212.646 125.903 218.584 127.472 219.985C127.472 219.985 128.592 221.217 129.096 221.329C129.096 221.329 128.648 224.355 128.424 224.803C128.424 224.803 127.752 228.388 127.584 228.668" stroke="black" stroke-width="0.544886" stroke-linecap="round"/>
<path d="M125.399 216.904C125.399 216.904 124.895 220.545 127.472 222.282C127.472 222.282 128.2 223.738 126.015 223.682C126.015 223.682 128.424 225.755 125.511 225.979" stroke="black" stroke-width="0.544886" stroke-linecap="round"/>
<path d="M124.783 226.764C124.783 226.764 125.735 227.716 126.912 227.492" stroke="black" stroke-width="0.544886" stroke-linecap="round"/>
<path d="M123.887 228.108C123.887 228.108 124.783 229.62 125.791 229.564" stroke="black" stroke-width="0.544886" stroke-linecap="round"/>
<path d="M123.158 229.732L123.214 232.197C123.214 232.197 120.749 234.27 121.422 238.023" stroke="black" stroke-width="0.544886" stroke-linecap="round"/>
<path d="M129.993 237.575C130.945 234.326 129.339 231.083 129.339 231.083C126.669 229.129 123.999 233.262 123.999 233.262L123.719 237.631L123.719 238.416C123.719 238.416 121.254 242.841 123.046 244.746C123.046 244.746 124.167 246.763 126.239 244.634" stroke="black" stroke-width="0.544886" stroke-linecap="round"/>
<path d="M124.727 242.281C124.615 240.433 125.287 238.976 125.287 238.976C124.895 236.231 125.791 234.943 125.791 234.943C128.872 231.245 128.2 236.287 128.2 236.287C128.2 236.287 126.631 234.27 126.295 236.511C126.295 236.511 125.735 237.688 126.127 238.752C126.127 238.752 125.455 239.928 125.343 241.217" stroke="black" stroke-width="0.544886" stroke-linecap="round"/>
<path d="M121.366 238.864C121.366 238.864 119.573 244.802 122.318 246.539C122.318 246.539 121.366 248.443 121.478 249.34" stroke="black" stroke-width="0.544886" stroke-linecap="round"/>
<path d="M119.629 238.808L119.517 239.929" stroke="black" stroke-width="0.544886" stroke-linecap="round"/>
<path d="M119.405 240.937C119.405 240.937 118.789 244.41 120.133 245.418" stroke="black" stroke-width="0.544886" stroke-linecap="round"/>
<path d="M119.461 246.595L120.469 247.491C120.469 247.491 118.621 251.076 118.845 253.709" stroke="black" stroke-width="0.544886" stroke-linecap="round"/>
<path d="M110.05 249.452C110.05 249.452 111.674 248.22 112.122 247.547" stroke="black" stroke-width="0.544886" stroke-linecap="round"/>
<path d="M110.498 251.244C110.498 251.244 111.954 250.404 112.346 249.9" stroke="black" stroke-width="0.544886" stroke-linecap="round"/>
<path d="M105.73 235.679C105.73 235.679 108.873 232.59 110.61 237.688C110.61 237.688 113.355 248.474 107.949 247.562" stroke="black" stroke-width="0.544886" stroke-linecap="round"/>
<path d="M111.674 252.813L110.61 253.766L111.058 257.463L111.786 257.239" stroke="black" stroke-width="0.544886" stroke-linecap="round"/>
<path d="M107.473 243.458C107.473 242.337 106.856 240.601 106.856 240.601C106.128 239.144 106.408 237.855 106.408 237.855C107.403 235.279 108.873 238.248 108.873 238.248C108.873 238.248 107.192 236.847 107.136 238.36C107.136 238.36 108.089 240.32 107.697 242.337" stroke="black" stroke-width="0.544886" stroke-linecap="round"/>
<path d="M108.817 245.474C110.049 245.194 109.713 242.953 109.713 242.953L109.265 242.785L109.321 240.096L108.649 241.161C108.649 241.161 108.929 243.514 108.705 244.186" stroke="black" stroke-width="0.544886" stroke-linecap="round"/>
<path d="M120.917 250.74L120.581 256.118L119.741 256.398" stroke="black" stroke-width="0.544886" stroke-linecap="round"/>
<path d="M117.556 254.55L117.556 256.511L119.349 258.247L120.189 258.023" stroke="black" stroke-width="0.544886" stroke-linecap="round"/>
<path d="M119.965 259.536C119.965 259.536 119.405 269.395 121.085 271.188" stroke="black" stroke-width="0.544886" stroke-linecap="round"/>
<path d="M117.724 259.76C117.724 259.76 118.116 261.104 119.013 261.216" stroke="black" stroke-width="0.544886" stroke-linecap="round"/>
<path d="M118.396 262.225L118.621 268.723" stroke="black" stroke-width="0.544886" stroke-linecap="round"/>
<path d="M112.626 260.376L111.842 261.216" stroke="black" stroke-width="0.544886" stroke-linecap="round"/>
<path d="M112.178 258.863L111.338 259.535" stroke="black" stroke-width="0.544886" stroke-linecap="round"/>
<path d="M112.57 262.617C112.57 262.617 112.738 267.434 113.243 268.275" stroke="black" stroke-width="0.544886" stroke-linecap="round"/>
<path d="M112.227 286.065L113.355 284.632C113.355 284.632 114.587 279.311 116.38 278.75C116.38 278.75 116.94 272.252 120.749 272.308C120.749 272.308 122.934 272.588 123.158 274.269" stroke="black" stroke-width="0.544886" stroke-linecap="round"/>
<path d="M115.147 283.624C115.932 282.896 116.324 281.16 116.324 281.16C116.492 279.031 118.845 278.134 118.845 278.134L118.901 277.742C118.957 275.109 120.245 274.661 120.245 274.661C122.15 273.989 121.198 277.126 121.198 277.126L120.581 277.966L120.581 276.566C120.581 276.566 119.741 275.333 119.405 278.471C119.405 278.471 117.444 279.199 117.052 280.767" stroke="black" stroke-width="0.544886" stroke-linecap="round"/>
<path d="M115.027 229.933C115.833 236.123 116.377 242.33 116.347 248.531C116.379 249.252 116.302 252.33 116.403 250.163C116.768 244.234 117.306 232.968 117.306 232.968C117.344 228.586 118.696 224.743 118.864 220.368C119.08 217.519 119.299 214.68 119.093 211.812C119.244 206.736 120.603 202.629 120.588 197.546C119.679 195.167 120.86 189.404 116.462 189.087C111.643 190.215 114.217 192.382 113.76 194.136C113.725 197.337 113.34 202.418 113.281 204.094C113.993 205.274 114.713 221.385 115.027 229.933Z" fill="#FCE94F"/>
<path d="M168.63 251.28C168.71 254.686 166.848 260.232 166.848 260.232C164.946 263.203 162.609 261.5 162.609 261.5C162.609 261.5 159.678 258.41 161.817 254.686L162.768 252.389L162.609 249.695L163.481 248.19L166.095 247.952L167.997 249.061L168.63 251.28Z" fill="#FFDD55" stroke="black" stroke-width="0.320521"/>
<path d="M167.917 229.176C165.303 232.741 167.759 237.653 167.759 237.653C170.136 239.079 172.829 235.831 172.829 235.831L173.146 235.038L173.384 230.285C173.384 230.285 175.444 225.927 174.018 223.868C174.018 223.868 173.146 222.442 171.166 223.551C171.166 223.551 170.136 224.184 170.056 226.403L167.917 229.176Z" fill="#FFDD55" stroke="black" stroke-width="0.320521"/>
<path d="M185.822 226.799C185.743 230.444 187.407 232.9 187.407 232.9C187.407 232.9 189.07 235.039 191.368 232.9C191.368 232.9 192.794 230.523 192.002 228.859L191.526 227.75L191.526 226.562L190.813 225.769C190.813 225.769 190.496 221.254 188.437 221.016C188.437 221.016 185.585 220.461 185.822 226.799Z" fill="#FFDD55" stroke="black" stroke-width="0.320521"/>
<path d="M177.9 187.028C172.988 189.405 174.018 194.871 174.018 194.871C174.097 196.218 176.791 196.297 176.791 196.297C180.593 195.505 180.514 189.88 180.514 189.88C182.416 189.801 183.683 184.255 183.683 184.255C183.683 184.255 185.664 181.245 185.109 180.452C185.109 180.452 184.713 179.819 183.683 180.056L182.019 181.482L180.593 183.384L178.85 185.919L177.9 187.028Z" fill="#FFDD55" stroke="black" stroke-width="0.320521"/>
<path d="M174.253 212.315C172.684 215.004 173.132 221.838 173.132 221.838L171.172 223.519C172.32 223.526 172.156 222.634 174.365 223.967C174.439 224.279 174.319 224.638 174.454 224.973C174.939 226.175 174.26 227.845 173.427 230.172C173.142 230.968 173.32 232.269 173.26 233.611C173.226 234.364 173.282 235.229 172.81 235.826C171.893 236.988 171.338 237.608 170.274 238.039C168.87 238.609 167.642 237.748 167.642 237.748L165.962 246.151L163.609 248.168L166.298 247.944C168.987 248.616 168.539 252.874 168.539 252.874L168.091 256.235L167.418 259.036C165.626 263.181 162.825 261.501 162.825 261.501C161.144 269.344 164.505 275.282 164.505 275.282C163.721 280.884 170.107 285.477 170.107 285.477L174.141 287.158L180.415 288.839L182.432 287.942C186.353 288.054 190.611 284.357 190.611 284.357C196.101 279.427 197.557 269.344 197.557 269.344L197.445 266.206C198.678 263.181 193.972 250.185 193.972 250.185C194.756 246.039 191.507 233.154 191.507 233.154C191.507 233.154 187.81 235.507 186.689 231.25C186.689 231.25 184.897 225.312 186.353 222.623C186.353 222.623 187.25 220.494 189.154 220.942L186.913 206.825L185.345 199.094L184.897 191.475L184.785 182.96L183.552 183.968C183.552 183.968 182.32 189.57 180.415 189.907C180.415 189.907 180.079 197.637 175.373 195.957L174.029 195.06L173.805 196.069L174.477 198.422L175.037 201.223L175.149 203.576L175.149 206.713L174.253 212.315Z" fill="#AAD400" stroke="black" stroke-width="0.320521"/>
<path d="M174.018 196.535C174.018 196.535 176.711 204.458 174.018 212.539C174.018 212.539 172.75 219.352 172.908 221.887C172.908 221.887 169.898 223.313 170.056 226.641C170.056 226.641 164.352 230.919 167.68 237.574C167.68 237.574 166.57 245.021 165.937 246.288C165.937 246.288 161.659 248.665 162.768 251.2C162.768 251.2 162.768 253.26 162.292 253.419C162.292 253.419 159.282 258.014 162.609 261.5C162.609 261.5 161.5 270.214 164.352 274.968C164.352 274.968 164.035 283.999 172.592 286.376C172.592 286.376 179.405 289.704 182.574 287.961C182.574 287.961 191.606 287.485 195.725 276.552C195.725 276.552 198.577 269.739 197.31 266.57C197.186 260.637 195.288 256.18 195.594 250.621C195.594 250.621 195.449 243.777 191.289 232.979C191.289 232.979 193.032 230.76 191.606 228.225C191.606 228.225 191.606 226.007 190.813 225.69C190.813 225.69 190.496 221.887 189.07 221.095L187.011 206.993C187.011 206.993 185.109 199.229 185.426 197.169C185.426 197.169 184.475 186.553 184.792 182.592C184.792 182.592 186.139 179.185 183.604 180.136C183.604 180.136 179.88 183.225 179.167 185.681L178.454 186.553C178.454 186.553 174.651 188.85 174.097 192.019C173.542 192.97 174.018 196.535 174.018 196.535Z" fill="#ABC837" stroke="black"/>
<path d="M171.958 230.523C172.037 232.583 170.611 234.405 170.611 234.405C168.155 236.386 168.868 232.662 168.868 232.662C168.868 232.662 170.928 234.801 171.086 230.84L170.849 230.048L171.72 227.671C171.72 227.671 171.562 229.018 172.037 227.671L171.958 230.523Z" fill="black" stroke="black" stroke-width="0.320521"/>
<path d="M188.516 230.919C188.516 230.919 189.863 232.582 190.496 230.998L190.655 229.334L189.546 226.324C189.546 226.324 188.833 228.225 189.704 229.968C189.704 229.968 190.1 231.473 188.516 230.919Z" fill="black" stroke="black" stroke-width="0.320521"/>
<path d="M179.722 188.296L177.741 190.197C177.741 190.197 176.711 193.921 176.474 191.623L176.474 190.593L175.761 191.544C175.761 191.544 175.444 193.287 175.998 193.921C175.998 193.921 178.058 194 178.137 190.91C178.137 190.91 180.356 189.247 179.722 188.296Z" fill="black" stroke="black" stroke-width="0.320521"/>
<path d="M192.794 274.81C192.794 274.81 194.537 267.521 192.794 265.461" stroke="black" stroke-width="0.544886" stroke-linecap="round"/>
<path d="M195.012 272.908C195.012 272.908 194.379 270.452 195.25 268.709C195.25 268.709 196.359 264.986 193.507 263.322" stroke="black" stroke-width="0.544886" stroke-linecap="round"/>
<path d="M195.171 262.371C195.171 262.371 194.299 261.341 193.032 262.371" stroke="black" stroke-width="0.544886" stroke-linecap="round"/>
<path d="M195.092 260.708C195.092 260.708 194.299 259.678 193.19 260.232" stroke="black" stroke-width="0.544886" stroke-linecap="round"/>
<path d="M193.269 258.885C193.269 258.885 192.556 258.727 192.556 256.984C192.556 256.984 193.269 255.399 191.447 254.132" stroke="black" stroke-width="0.544886" stroke-linecap="round"/>
<path d="M194.378 257.618L193.745 255.875C193.745 255.875 193.428 253.736 192.477 253.26" stroke="black" stroke-width="0.544886" stroke-linecap="round"/>
<path d="M192.081 251.992L191.051 252.468" stroke="black" stroke-width="0.544886" stroke-linecap="round"/>
<path d="M190.734 250.804L191.685 250.25" stroke="black" stroke-width="0.544886" stroke-linecap="round"/>
<path d="M190.734 249.854L191.447 249.061" stroke="black" stroke-width="0.544886" stroke-linecap="round"/>
<path d="M190.259 247.873L191.051 246.685" stroke="black" stroke-width="0.544886" stroke-linecap="round"/>
<path d="M171.284 273.377C171.284 273.377 172.236 271.136 173.637 270.52" stroke="black" stroke-width="0.544886" stroke-linecap="round"/>
<path d="M174.477 284.469C174.477 284.469 172.124 282.901 171.004 282.957C171.004 282.957 167.362 279.203 167.643 277.243" stroke="black" stroke-width="0.544886" stroke-linecap="round"/>
<path d="M170.107 279.147C170.107 279.147 168.147 275.73 171.788 277.018" stroke="black" stroke-width="0.544886" stroke-linecap="round"/>
<path d="M174.589 282.732C174.589 282.732 173.132 282.06 173.188 281.668C173.188 281.668 171.34 282.62 171.564 279.819" stroke="black" stroke-width="0.544886" stroke-linecap="round"/>
<path d="M169.771 273.489C169.771 273.489 166.914 269.4 169.099 268.335" stroke="black" stroke-width="0.544886" stroke-linecap="round"/>
<path d="M168.595 275.17C168.595 275.17 166.354 271.192 166.354 270.688C166.354 270.688 165.178 266.207 166.746 263.798" stroke="black" stroke-width="0.544886" stroke-linecap="round"/>
<path d="M166.69 275.002C166.69 275.002 164.785 272.145 164.673 269.792C164.673 269.792 164.505 264.974 165.01 263.686" stroke="black" stroke-width="0.544886" stroke-linecap="round"/>
<path d="M162.609 261.5C162.609 261.5 165.57 263.461 167.362 259.148L167.979 256.571C167.979 256.571 171.116 245.927 163.665 248.224" stroke="black" stroke-width="0.544886" stroke-linecap="round"/>
<path d="M161.872 255.002L163.329 255.002C163.329 255.002 162.489 260.212 164.842 258.084C164.842 258.084 165.626 256.963 165.458 255.507C165.458 255.507 167.531 254.162 166.018 250.633" stroke="black" stroke-width="0.544886" stroke-linecap="round"/>
<path d="M162.292 253.419L164.001 252.818" stroke="black" stroke-width="0.544886" stroke-linecap="round"/>
<path d="M170.219 262.901C170.219 262.901 169.603 262.341 168.819 262.733" stroke="black" stroke-width="0.544886" stroke-linecap="round"/>
<path d="M168.987 265.759C168.987 265.759 167.979 265.422 167.586 266.375" stroke="black" stroke-width="0.544886" stroke-linecap="round"/>
<path d="M169.547 260.94C169.547 260.94 168.483 260.436 167.867 261.781" stroke="black" stroke-width="0.544886" stroke-linecap="round"/>
<path d="M170.892 259.092C170.892 259.092 170.948 257.579 171.788 257.355C171.788 257.355 171.116 256.011 172.348 255.45" stroke="black" stroke-width="0.544886" stroke-linecap="round"/>
<path d="M169.379 255.843L169.939 256.011C169.939 256.011 171.116 250.073 169.547 248.672C169.547 248.672 168.427 247.44 167.923 247.328C167.923 247.328 168.371 244.303 168.595 243.854C168.595 243.854 169.267 240.269 169.435 239.989" stroke="black" stroke-width="0.544886" stroke-linecap="round"/>
<path d="M171.62 251.753C171.62 251.753 172.124 248.112 169.547 246.375C169.547 246.375 168.819 244.919 171.004 244.975C171.004 244.975 168.595 242.902 171.508 242.678" stroke="black" stroke-width="0.544886" stroke-linecap="round"/>
<path d="M172.236 241.893C172.236 241.893 171.284 240.941 170.107 241.165" stroke="black" stroke-width="0.544886" stroke-linecap="round"/>
<path d="M173.132 240.549C173.132 240.549 172.236 239.037 171.228 239.093" stroke="black" stroke-width="0.544886" stroke-linecap="round"/>
<path d="M173.861 238.925L173.805 236.46C173.805 236.46 176.27 234.387 175.597 230.634" stroke="black" stroke-width="0.544886" stroke-linecap="round"/>
<path d="M167.026 231.082C166.074 234.331 167.68 237.574 167.68 237.574C170.35 239.528 173.02 235.395 173.02 235.395L173.301 231.026L173.301 230.241C173.301 230.241 175.765 225.816 173.973 223.911C173.973 223.911 172.852 221.894 170.78 224.023" stroke="black" stroke-width="0.544886" stroke-linecap="round"/>
<path d="M172.292 226.376C172.404 228.225 171.732 229.681 171.732 229.681C172.124 232.426 171.228 233.715 171.228 233.715C168.147 237.412 168.819 232.37 168.819 232.37C168.819 232.37 170.388 234.387 170.724 232.146C170.724 232.146 171.284 230.97 170.892 229.905C170.892 229.905 171.564 228.729 171.676 227.44" stroke="black" stroke-width="0.544886" stroke-linecap="round"/>
<path d="M175.653 229.793C175.653 229.793 177.446 223.855 174.701 222.119C174.701 222.119 175.653 220.214 175.541 219.318" stroke="black" stroke-width="0.544886" stroke-linecap="round"/>
<path d="M177.39 229.849L177.502 228.729" stroke="black" stroke-width="0.544886" stroke-linecap="round"/>
<path d="M177.614 227.721C177.614 227.721 178.23 224.247 176.886 223.239" stroke="black" stroke-width="0.544886" stroke-linecap="round"/>
<path d="M177.558 222.062L176.55 221.166C176.55 221.166 178.398 217.581 178.174 214.948" stroke="black" stroke-width="0.544886" stroke-linecap="round"/>
<path d="M186.97 219.205C186.97 219.205 185.345 220.438 184.897 221.11" stroke="black" stroke-width="0.544886" stroke-linecap="round"/>
<path d="M186.521 217.413C186.521 217.413 185.065 218.253 184.673 218.757" stroke="black" stroke-width="0.544886" stroke-linecap="round"/>
<path d="M191.289 232.979C191.289 232.979 188.146 236.067 186.409 230.97C186.409 230.97 183.665 220.183 189.07 221.095" stroke="black" stroke-width="0.544886" stroke-linecap="round"/>
<path d="M185.345 215.844L186.409 214.892L185.961 211.194L185.233 211.418" stroke="black" stroke-width="0.544886" stroke-linecap="round"/>
<path d="M189.546 225.2C189.546 226.32 190.163 228.057 190.163 228.057C190.891 229.513 190.611 230.802 190.611 230.802C189.616 233.378 188.146 230.41 188.146 230.41C188.146 230.41 189.827 231.81 189.883 230.298C189.883 230.298 188.93 228.337 189.322 226.32" stroke="black" stroke-width="0.544886" stroke-linecap="round"/>
<path d="M188.202 223.183C186.97 223.463 187.306 225.704 187.306 225.704L187.754 225.872L187.698 228.561L188.37 227.497C188.37 227.497 188.09 225.144 188.314 224.471" stroke="black" stroke-width="0.544886" stroke-linecap="round"/>
<path d="M176.102 217.917L176.438 212.539L177.278 212.259" stroke="black" stroke-width="0.544886" stroke-linecap="round"/>
<path d="M179.463 214.107L179.463 212.147L177.67 210.41L176.83 210.634" stroke="black" stroke-width="0.544886" stroke-linecap="round"/>
<path d="M177.054 209.122C177.054 209.122 177.614 199.262 175.934 197.469" stroke="black" stroke-width="0.544886" stroke-linecap="round"/>
<path d="M179.295 208.897C179.295 208.897 178.903 207.553 178.006 207.441" stroke="black" stroke-width="0.544886" stroke-linecap="round"/>
<path d="M178.623 206.433L178.398 199.934" stroke="black" stroke-width="0.544886" stroke-linecap="round"/>
<path d="M184.393 208.282L185.177 207.441" stroke="black" stroke-width="0.544886" stroke-linecap="round"/>
<path d="M184.841 209.794L185.681 209.122" stroke="black" stroke-width="0.544886" stroke-linecap="round"/>
<path d="M184.449 206.041C184.449 206.041 184.281 201.223 183.776 200.382" stroke="black" stroke-width="0.544886" stroke-linecap="round"/>
<path d="M184.792 182.592L183.664 184.025C183.664 184.025 182.432 189.347 180.639 189.907C180.639 189.907 180.079 196.405 176.27 196.349C176.27 196.349 174.085 196.069 173.861 194.388" stroke="black" stroke-width="0.544886" stroke-linecap="round"/>
<path d="M181.872 185.033C181.087 185.761 180.695 187.498 180.695 187.498C180.527 189.626 178.174 190.523 178.174 190.523L178.118 190.915C178.062 193.548 176.774 193.996 176.774 193.996C174.869 194.668 175.821 191.531 175.821 191.531L176.438 190.691L176.438 192.091C176.438 192.091 177.278 193.324 177.614 190.187C177.614 190.187 179.575 189.458 179.967 187.89" stroke="black" stroke-width="0.544886" stroke-linecap="round"/>
<path d="M181.992 238.724C181.186 232.534 180.642 226.327 180.672 220.126C180.64 219.405 180.717 216.328 180.617 218.494C180.251 224.424 179.713 235.689 179.713 235.689C179.675 240.071 178.323 243.914 178.155 248.289C177.939 251.138 177.72 253.977 177.926 256.845C177.775 261.921 176.416 266.028 176.431 271.112C177.34 273.49 176.159 279.253 180.557 279.57C185.376 278.442 182.802 276.275 183.259 274.521C183.294 271.321 183.679 266.239 183.738 264.564C183.026 263.383 182.306 247.272 181.992 238.724Z" fill="#FCE94F"/>
<path d="M45.5854 250.473C45.6646 253.88 43.8028 259.426 43.8028 259.426C41.9014 262.397 39.5643 260.694 39.5643 260.694C39.5643 260.694 36.633 257.604 38.772 253.88L39.7227 251.583L39.5643 248.889L40.4358 247.384L43.0502 247.146L44.9516 248.255L45.5854 250.473Z" fill="#FFDD55" stroke="black" stroke-width="0.320521"/>
<path d="M44.8723 228.37C42.2578 231.935 44.7138 236.847 44.7138 236.847C47.0906 238.273 49.7842 235.024 49.7842 235.024L50.1011 234.232L50.3388 229.479C50.3388 229.479 52.3986 225.121 50.9726 223.061C50.9726 223.061 50.1011 221.635 48.1205 222.745C48.1205 222.745 47.0906 223.378 47.0113 225.597L44.8723 228.37Z" fill="#FFDD55" stroke="black" stroke-width="0.320521"/>
<path d="M62.7772 225.993C62.698 229.637 64.3617 232.093 64.3617 232.093C64.3617 232.093 66.0254 234.232 68.3229 232.093C68.3229 232.093 69.749 229.717 68.9567 228.053L68.4814 226.944L68.4814 225.755L67.7684 224.963C67.7684 224.963 67.4515 220.447 65.3916 220.21C65.3916 220.21 62.5395 219.655 62.7772 225.993Z" fill="#FFDD55" stroke="black" stroke-width="0.320521"/>
<path d="M54.8547 186.222C49.9427 188.599 50.9727 194.065 50.9727 194.065C51.0519 195.412 53.7455 195.491 53.7455 195.491C57.5483 194.699 57.4691 189.074 57.4691 189.074C59.3705 188.995 60.6381 183.449 60.6381 183.449C60.6381 183.449 62.6187 180.438 62.0641 179.646C62.0641 179.646 61.668 179.012 60.6381 179.25L58.9744 180.676L57.5483 182.578L55.8054 185.113L54.8547 186.222Z" fill="#FFDD55" stroke="black" stroke-width="0.320521"/>
<path d="M51.2078 211.509C49.6393 214.198 50.0874 221.032 50.0874 221.032L48.1267 222.713C49.2752 222.72 49.1108 221.828 51.3198 223.161C51.3944 223.472 51.2735 223.832 51.4088 224.167C51.8943 225.369 51.2145 227.039 50.3817 229.366C50.0971 230.161 50.2748 231.463 50.2149 232.805C50.1812 233.558 50.2366 234.423 49.7651 235.02C48.8478 236.182 48.2926 236.802 47.2292 237.233C45.8245 237.802 44.5974 236.942 44.5974 236.942L42.9168 245.345L40.5639 247.362L43.2529 247.138C45.9419 247.81 45.4937 252.067 45.4937 252.067L45.0456 255.429L44.3733 258.23C42.5807 262.375 39.7796 260.695 39.7796 260.695C38.099 268.537 41.4603 274.476 41.4603 274.476C40.676 280.078 47.0623 284.671 47.0623 284.671L51.0958 286.352L57.3701 288.033L59.3868 287.136C63.3082 287.248 67.5658 283.551 67.5658 283.551C73.0558 278.621 74.5123 268.537 74.5123 268.537L74.4003 265.4C75.6327 262.375 70.927 249.378 70.927 249.378C71.7113 245.233 68.4621 232.348 68.4621 232.348C68.4621 232.348 64.7648 234.701 63.6444 230.444C63.6444 230.444 61.8517 224.505 63.3082 221.816C63.3082 221.816 64.2046 219.688 66.1093 220.136L63.8684 206.019L62.2999 198.288L61.8517 190.669L61.7397 182.154L60.5072 183.162C60.5072 183.162 59.2748 188.764 57.3701 189.1C57.3701 189.1 57.0339 196.831 52.3282 195.151L50.9837 194.254L50.7597 195.263L51.4319 197.616L51.9921 200.417L52.1042 202.769L52.1042 205.907L51.2078 211.509Z" fill="#AAD400" stroke="black" stroke-width="0.320521"/>
<path d="M50.9726 195.729C50.9726 195.729 53.6662 203.652 50.9726 211.732C50.9726 211.732 49.705 218.546 49.8634 221.081C49.8634 221.081 46.8529 222.507 47.0113 225.834C47.0113 225.834 41.3071 230.113 44.6346 236.768C44.6346 236.768 43.5254 244.215 42.8916 245.482C42.8916 245.482 38.6135 247.859 39.7226 250.394C39.7226 250.394 39.7226 252.454 39.2473 252.613C39.2473 252.613 36.2368 257.208 39.5642 260.693C39.5642 260.693 38.4551 269.408 41.3071 274.162C41.3071 274.162 40.9902 283.193 49.5465 285.57C49.5465 285.57 56.3599 288.897 59.5289 287.155C59.5289 287.155 68.5605 286.679 72.6802 275.746C72.6802 275.746 75.5323 268.933 74.2647 265.764C74.1407 259.831 72.2429 255.374 72.5493 249.815C72.5493 249.815 72.4045 242.971 68.2436 232.172C68.2436 232.172 69.9866 229.954 68.5605 227.419C68.5605 227.419 68.5605 225.201 67.7683 224.884C67.7683 224.884 67.4514 221.081 66.0253 220.289L63.9655 206.187C63.9655 206.187 62.0641 198.423 62.381 196.363C62.381 196.363 61.4303 185.747 61.7472 181.785C61.7472 181.785 63.094 178.379 60.5588 179.329C60.5588 179.329 56.8352 182.419 56.1222 184.875L55.4092 185.747C55.4092 185.747 51.6064 188.044 51.0518 191.213C50.4973 192.164 50.9726 195.729 50.9726 195.729Z" fill="#ABC837" stroke="black"/>
<path d="M48.9128 229.717C48.992 231.777 47.566 233.599 47.566 233.599C45.11 235.579 45.823 231.856 45.823 231.856C45.823 231.856 47.8829 233.995 48.0413 230.034L47.8036 229.241L48.6751 226.865C48.6751 226.865 48.5166 228.211 48.992 226.865L48.9128 229.717Z" fill="black" stroke="black" stroke-width="0.320521"/>
<path d="M65.4708 230.113C65.4708 230.113 66.8176 231.776 67.4514 230.192L67.6099 228.528L66.5007 225.518C66.5007 225.518 65.7877 227.419 66.6592 229.162C66.6592 229.162 67.0553 230.667 65.4708 230.113Z" fill="black" stroke="black" stroke-width="0.320521"/>
<path d="M56.6769 187.49L54.6962 189.391C54.6962 189.391 53.6663 193.115 53.4286 190.817L53.4287 189.787L52.7156 190.738C52.7156 190.738 52.3987 192.481 52.9533 193.115C52.9533 193.115 55.0132 193.194 55.0924 190.104C55.0924 190.104 57.3107 188.44 56.6769 187.49Z" fill="black" stroke="black" stroke-width="0.320521"/>
<path d="M69.7489 274.003C69.7489 274.003 71.4919 266.715 69.7489 264.655" stroke="black" stroke-width="0.544886" stroke-linecap="round"/>
<path d="M71.9673 272.102C71.9673 272.102 71.3335 269.646 72.205 267.903C72.205 267.903 73.3141 264.18 70.462 262.516" stroke="black" stroke-width="0.544886" stroke-linecap="round"/>
<path d="M72.1257 261.565C72.1257 261.565 71.2542 260.535 69.9866 261.565" stroke="black" stroke-width="0.544886" stroke-linecap="round"/>
<path d="M72.0465 259.901C72.0465 259.901 71.2542 258.871 70.1451 259.426" stroke="black" stroke-width="0.544886" stroke-linecap="round"/>
<path d="M70.2243 258.079C70.2243 258.079 69.5113 257.921 69.5113 256.178C69.5113 256.178 70.2243 254.593 68.4021 253.326" stroke="black" stroke-width="0.544886" stroke-linecap="round"/>
<path d="M71.3334 256.812L70.6996 255.069C70.6996 255.069 70.3827 252.93 69.432 252.454" stroke="black" stroke-width="0.544886" stroke-linecap="round"/>
<path d="M69.0359 251.186L68.006 251.662" stroke="black" stroke-width="0.544886" stroke-linecap="round"/>
<path d="M67.6891 249.998L68.6398 249.443" stroke="black" stroke-width="0.544886" stroke-linecap="round"/>
<path d="M67.689 249.048L68.402 248.255" stroke="black" stroke-width="0.544886" stroke-linecap="round"/>
<path d="M67.2137 247.067L68.006 245.878" stroke="black" stroke-width="0.544886" stroke-linecap="round"/>
<path d="M48.2387 272.571C48.2387 272.571 49.1911 270.33 50.5916 269.714" stroke="black" stroke-width="0.544886" stroke-linecap="round"/>
<path d="M51.432 283.663C51.432 283.663 49.0791 282.095 47.9587 282.151C47.9587 282.151 44.3174 278.397 44.5975 276.437" stroke="black" stroke-width="0.544886" stroke-linecap="round"/>
<path d="M47.0623 278.341C47.0623 278.341 45.1016 274.924 48.7429 276.212" stroke="black" stroke-width="0.544886" stroke-linecap="round"/>
<path d="M51.5439 281.926C51.5439 281.926 50.0874 281.254 50.1434 280.862C50.1434 280.862 48.2948 281.814 48.5188 279.013" stroke="black" stroke-width="0.544886" stroke-linecap="round"/>
<path d="M46.7262 272.683C46.7262 272.683 43.8692 268.594 46.054 267.529" stroke="black" stroke-width="0.544886" stroke-linecap="round"/>
<path d="M45.5498 274.364C45.5498 274.364 43.309 270.386 43.309 269.882C43.309 269.882 42.1326 265.4 43.7011 262.992" stroke="black" stroke-width="0.544886" stroke-linecap="round"/>
<path d="M43.6451 274.196C43.6451 274.196 41.7404 271.339 41.6284 268.986C41.6284 268.986 41.4603 264.168 41.9645 262.88" stroke="black" stroke-width="0.544886" stroke-linecap="round"/>
<path d="M39.5643 260.693C39.5643 260.693 42.5247 262.655 44.3174 258.342L44.9336 255.765C44.9336 255.765 48.0708 245.121 40.62 247.418" stroke="black" stroke-width="0.544886" stroke-linecap="round"/>
<path d="M38.8274 254.196L40.2839 254.196C40.2839 254.196 39.4436 259.406 41.7965 257.277C41.7965 257.277 42.5808 256.157 42.4127 254.701C42.4127 254.701 44.4855 253.356 42.9729 249.827" stroke="black" stroke-width="0.544886" stroke-linecap="round"/>
<path d="M39.2474 252.612L40.9561 252.011" stroke="black" stroke-width="0.544886" stroke-linecap="round"/>
<path d="M47.1745 262.095C47.1745 262.095 46.5582 261.535 45.7739 261.927" stroke="black" stroke-width="0.544886" stroke-linecap="round"/>
<path d="M45.9419 264.952C45.9419 264.952 44.9335 264.616 44.5414 265.569" stroke="black" stroke-width="0.544886" stroke-linecap="round"/>
<path d="M46.5022 260.134C46.5022 260.134 45.4378 259.63 44.8216 260.975" stroke="black" stroke-width="0.544886" stroke-linecap="round"/>
<path d="M47.8467 258.286C47.8467 258.286 47.9027 256.773 48.743 256.549C48.743 256.549 48.0708 255.205 49.3032 254.644" stroke="black" stroke-width="0.544886" stroke-linecap="round"/>
<path d="M46.3341 255.037L46.8943 255.205C46.8943 255.205 48.0707 249.267 46.5021 247.866C46.5021 247.866 45.3817 246.634 44.8775 246.522C44.8775 246.522 45.3257 243.496 45.5498 243.048C45.5498 243.048 46.222 239.463 46.3901 239.183" stroke="black" stroke-width="0.544886" stroke-linecap="round"/>
<path d="M48.575 250.947C48.575 250.947 49.0791 247.306 46.5022 245.569C46.5022 245.569 45.7739 244.113 47.9587 244.169C47.9587 244.169 45.5498 242.096 48.4629 241.872" stroke="black" stroke-width="0.544886" stroke-linecap="round"/>
<path d="M49.1911 241.087C49.1911 241.087 48.2388 240.135 47.0623 240.359" stroke="black" stroke-width="0.544886" stroke-linecap="round"/>
<path d="M50.0874 239.743C50.0874 239.743 49.1911 238.231 48.1827 238.287" stroke="black" stroke-width="0.544886" stroke-linecap="round"/>
<path d="M50.8157 238.119L50.7597 235.654C50.7597 235.654 53.2246 233.581 52.5523 229.828" stroke="black" stroke-width="0.544886" stroke-linecap="round"/>
<path d="M43.9812 230.276C43.0289 233.525 44.6346 236.768 44.6346 236.768C47.3048 238.722 49.9754 234.589 49.9754 234.589L50.2555 230.22L50.2555 229.435C50.2555 229.435 52.7204 225.01 50.9278 223.105C50.9278 223.105 49.8073 221.088 47.7346 223.217" stroke="black" stroke-width="0.544886" stroke-linecap="round"/>
<path d="M49.2472 225.57C49.3593 227.419 48.687 228.875 48.687 228.875C49.0792 231.62 48.1828 232.909 48.1828 232.909C45.1017 236.606 45.7739 231.564 45.7739 231.564C45.7739 231.564 47.3425 233.581 47.6786 231.34C47.6786 231.34 48.2388 230.164 47.8467 229.099C47.8467 229.099 48.5189 227.923 48.631 226.634" stroke="black" stroke-width="0.544886" stroke-linecap="round"/>
<path d="M52.6084 228.987C52.6084 228.987 54.401 223.049 51.656 221.312C51.656 221.312 52.6084 219.408 52.4963 218.511" stroke="black" stroke-width="0.544886" stroke-linecap="round"/>
<path d="M54.345 229.043L54.457 227.923" stroke="black" stroke-width="0.544886" stroke-linecap="round"/>
<path d="M54.5691 226.915C54.5691 226.915 55.1853 223.441 53.8408 222.433" stroke="black" stroke-width="0.544886" stroke-linecap="round"/>
<path d="M54.5131 221.256L53.5047 220.36C53.5047 220.36 55.3533 216.775 55.1293 214.142" stroke="black" stroke-width="0.544886" stroke-linecap="round"/>
<path d="M63.9245 218.399C63.9245 218.399 62.2999 219.632 61.8517 220.304" stroke="black" stroke-width="0.544886" stroke-linecap="round"/>
<path d="M63.4764 216.607C63.4764 216.607 62.0198 217.447 61.6277 217.951" stroke="black" stroke-width="0.544886" stroke-linecap="round"/>
<path d="M68.2437 232.172C68.2437 232.172 65.1009 235.261 63.3643 230.163C63.3643 230.163 60.6195 219.377 66.0254 220.289" stroke="black" stroke-width="0.544886" stroke-linecap="round"/>
<path d="M62.2999 215.038L63.3643 214.086L62.9161 210.388L62.1878 210.612" stroke="black" stroke-width="0.544886" stroke-linecap="round"/>
<path d="M66.5014 224.394C66.5014 225.514 67.1177 227.251 67.1177 227.251C67.8459 228.707 67.5658 229.996 67.5658 229.996C66.5711 232.572 65.1009 229.603 65.1009 229.603C65.1009 229.603 66.7815 231.004 66.8376 229.491C66.8376 229.491 65.8852 227.531 66.2774 225.514" stroke="black" stroke-width="0.544886" stroke-linecap="round"/>
<path d="M65.1569 222.377C63.9245 222.657 64.2606 224.898 64.2606 224.898L64.7088 225.066L64.6528 227.755L65.325 226.69C65.325 226.69 65.0449 224.338 65.269 223.665" stroke="black" stroke-width="0.544886" stroke-linecap="round"/>
<path d="M53.0565 217.111L53.3927 211.733L54.233 211.453" stroke="black" stroke-width="0.544886" stroke-linecap="round"/>
<path d="M56.4178 213.301L56.4178 211.341L54.6252 209.604L53.7849 209.828" stroke="black" stroke-width="0.544886" stroke-linecap="round"/>
<path d="M54.0089 208.315C54.0089 208.315 54.5691 198.456 52.8885 196.663" stroke="black" stroke-width="0.544886" stroke-linecap="round"/>
<path d="M56.2496 208.091C56.2496 208.091 55.8575 206.747 54.9612 206.635" stroke="black" stroke-width="0.544886" stroke-linecap="round"/>
<path d="M55.5775 205.626L55.3534 199.128" stroke="black" stroke-width="0.544886" stroke-linecap="round"/>
<path d="M61.3476 207.475L62.1318 206.635" stroke="black" stroke-width="0.544886" stroke-linecap="round"/>
<path d="M61.7958 208.988L62.636 208.316" stroke="black" stroke-width="0.544886" stroke-linecap="round"/>
<path d="M61.4036 205.234C61.4036 205.234 61.2355 200.417 60.7313 199.576" stroke="black" stroke-width="0.544886" stroke-linecap="round"/>
<path d="M61.7472 181.786L60.6192 183.219C60.6192 183.219 59.3868 188.541 57.5941 189.101C57.5941 189.101 57.0339 195.599 53.2245 195.543C53.2245 195.543 51.0397 195.263 50.8157 193.582" stroke="black" stroke-width="0.544886" stroke-linecap="round"/>
<path d="M58.8266 184.227C58.0423 184.955 57.6502 186.692 57.6502 186.692C57.4821 188.82 55.1293 189.717 55.1293 189.717L55.0733 190.109C55.0172 192.742 53.7288 193.19 53.7288 193.19C51.8241 193.862 52.7764 190.725 52.7764 190.725L53.3926 189.885L53.3926 191.285C53.3926 191.285 54.2329 192.518 54.569 189.381C54.569 189.381 56.5298 188.652 56.9219 187.084" stroke="black" stroke-width="0.544886" stroke-linecap="round"/>
<path d="M58.9468 237.918C58.1409 231.728 57.5972 225.521 57.6266 219.32C57.5948 218.599 57.6718 215.522 57.5715 217.688C57.2057 223.618 56.6683 234.883 56.6683 234.883C56.6297 239.265 55.2782 243.108 55.1096 247.483C54.8937 250.332 54.6747 253.171 54.881 256.039C54.7297 261.115 53.3713 265.222 53.386 270.305C54.295 272.684 53.1138 278.447 57.5124 278.764C62.3307 277.636 59.7566 275.469 60.2138 273.715C60.2488 270.515 60.6341 265.433 60.693 263.757C59.9808 262.577 59.2614 246.466 58.9468 237.918Z" fill="#FCE94F"/>
<path d="M107.256 100.098C107.336 103.504 105.474 109.05 105.474 109.05C103.572 112.021 101.235 110.318 101.235 110.318C101.235 110.318 98.304 107.228 100.443 103.504L101.394 101.207L101.235 98.513L102.107 97.0078L104.721 96.7701L106.623 97.8792L107.256 100.098Z" fill="#FFDD55" stroke="black" stroke-width="0.320521"/>
<path d="M106.543 77.9936C103.929 81.5586 106.385 86.4706 106.385 86.4706C108.762 87.8967 111.455 84.6484 111.455 84.6484L111.772 83.8562L112.01 79.1027C112.01 79.1027 114.07 74.7453 112.644 72.6855C112.644 72.6855 111.772 71.2594 109.792 72.3686C109.792 72.3686 108.762 73.0024 108.682 75.2207L106.543 77.9936Z" fill="#FFDD55" stroke="black" stroke-width="0.320521"/>
<path d="M124.448 75.6171C124.369 79.2615 126.033 81.7174 126.033 81.7174C126.033 81.7174 127.696 83.8565 129.994 81.7174C129.994 81.7174 131.42 79.3407 130.628 77.677L130.152 76.5678L130.152 75.3795L129.439 74.5872C129.439 74.5872 129.122 70.0714 127.063 69.8337C127.063 69.8337 124.211 69.2791 124.448 75.6171Z" fill="#FFDD55" stroke="black" stroke-width="0.320521"/>
<path d="M116.526 35.8459C111.614 38.2227 112.644 43.6892 112.644 43.6892C112.723 45.036 115.417 45.1152 115.417 45.1152C119.219 44.323 119.14 38.698 119.14 38.698C121.042 38.6188 122.309 33.0731 122.309 33.0731C122.309 33.0731 124.29 30.0625 123.735 29.2702C123.735 29.2702 123.339 28.6365 122.309 28.8742L120.645 30.3002L119.219 32.2016L117.476 34.7368L116.526 35.8459Z" fill="#FFDD55" stroke="black" stroke-width="0.320521"/>
<path d="M112.879 61.1326C111.31 63.8216 111.758 70.6561 111.758 70.6561L109.798 72.3367C110.946 72.3438 110.782 71.4521 112.991 72.7849C113.065 73.0964 112.945 73.4559 113.08 73.7907C113.565 74.9927 112.886 76.663 112.053 78.9901C111.768 79.7854 111.946 81.0871 111.886 82.4286C111.852 83.182 111.908 84.0466 111.436 84.6438C110.519 85.8059 109.964 86.426 108.9 86.8571C107.496 87.4264 106.268 86.5659 106.268 86.5659L104.588 94.969L102.235 96.9857L104.924 96.7616C107.613 97.4339 107.165 101.691 107.165 101.691L106.717 105.053L106.044 107.854C104.252 111.999 101.451 110.319 101.451 110.319C99.77 118.161 103.131 124.1 103.131 124.1C102.347 129.702 108.733 134.295 108.733 134.295L112.767 135.976L119.041 137.657L121.058 136.76C124.979 136.872 129.237 133.175 129.237 133.175C134.727 128.245 136.183 118.161 136.183 118.161L136.071 115.024C137.304 111.999 132.598 99.0024 132.598 99.0024C133.382 94.857 130.133 81.9722 130.133 81.9722C130.133 81.9722 126.436 84.3251 125.315 80.0676C125.315 80.0676 123.523 74.1294 124.979 71.4404C124.979 71.4404 125.876 69.3116 127.78 69.7598L125.539 55.6426L123.971 47.9118L123.523 40.293L123.411 31.7779L122.178 32.7863C122.178 32.7863 120.946 38.3883 119.041 38.7244C119.041 38.7244 118.705 46.4553 113.999 44.7746L112.655 43.8783L112.431 44.8867L113.103 47.2395L113.663 50.0406L113.775 52.3934L113.775 55.5306L112.879 61.1326Z" fill="#AAD400" stroke="black" stroke-width="0.320521"/>
<path d="M112.644 45.353C112.644 45.353 115.337 53.2755 112.644 61.3565C112.644 61.3565 111.376 68.1698 111.534 70.705C111.534 70.705 108.524 72.1311 108.682 75.4585C108.682 75.4585 102.978 79.7366 106.306 86.3915C106.306 86.3915 105.196 93.8387 104.563 95.1063C104.563 95.1063 100.285 97.483 101.394 100.018C101.394 100.018 101.394 102.078 100.918 102.237C100.918 102.237 97.9078 106.832 101.235 110.317C101.235 110.317 100.126 119.032 102.978 123.786C102.978 123.786 102.661 132.817 111.218 135.194C111.218 135.194 118.031 138.522 121.2 136.779C121.2 136.779 130.232 136.303 134.351 125.37C134.351 125.37 137.203 118.557 135.936 115.388C135.812 109.455 133.914 104.998 134.22 99.4389C134.22 99.4389 134.075 92.5953 129.915 81.7965C129.915 81.7965 131.658 79.5782 130.232 77.043C130.232 77.043 130.232 74.8247 129.439 74.5078C129.439 74.5078 129.122 70.705 127.696 69.9128L125.636 55.8107C125.636 55.8107 123.735 48.0467 124.052 45.9868C124.052 45.9868 123.101 35.3707 123.418 31.4095C123.418 31.4095 124.765 28.0028 122.23 28.9535C122.23 28.9535 118.506 32.0433 117.793 34.4992L117.08 35.3707C117.08 35.3707 113.277 37.6682 112.723 40.8372C112.168 41.7879 112.644 45.353 112.644 45.353Z" fill="#ABC837" stroke="black"/>
<path d="M110.584 79.3407C110.663 81.4006 109.237 83.2227 109.237 83.2227C106.781 85.2034 107.494 81.4798 107.494 81.4798C107.494 81.4798 109.554 83.6189 109.712 79.6576L109.475 78.8654L110.346 76.4886C110.346 76.4886 110.188 77.8355 110.663 76.4886L110.584 79.3407Z" fill="black" stroke="black" stroke-width="0.320521"/>
<path d="M127.142 79.7366C127.142 79.7366 128.489 81.4003 129.122 79.8158L129.281 78.1521L128.172 75.1415C128.172 75.1415 127.459 77.0429 128.33 78.7858C128.33 78.7858 128.726 80.2911 127.142 79.7366Z" fill="black" stroke="black" stroke-width="0.320521"/>
<path d="M118.348 37.1137L116.367 39.0151C116.367 39.0151 115.337 42.7387 115.1 40.4412L115.1 39.4113L114.387 40.3619C114.387 40.3619 114.07 42.1049 114.624 42.7387C114.624 42.7387 116.684 42.8179 116.763 39.7282C116.763 39.7282 118.982 38.0644 118.348 37.1137Z" fill="black" stroke="black" stroke-width="0.320521"/>
<path d="M131.42 123.627C131.42 123.627 133.163 116.339 131.42 114.279" stroke="black" stroke-width="0.544886" stroke-linecap="round"/>
<path d="M133.638 121.726C133.638 121.726 133.005 119.27 133.876 117.527C133.876 117.527 134.985 113.804 132.133 112.14" stroke="black" stroke-width="0.544886" stroke-linecap="round"/>
<path d="M133.797 111.189C133.797 111.189 132.925 110.159 131.658 111.189" stroke="black" stroke-width="0.544886" stroke-linecap="round"/>
<path d="M133.718 109.525C133.718 109.525 132.925 108.495 131.816 109.05" stroke="black" stroke-width="0.544886" stroke-linecap="round"/>
<path d="M131.895 107.703C131.895 107.703 131.182 107.545 131.182 105.802C131.182 105.802 131.895 104.217 130.073 102.95" stroke="black" stroke-width="0.544886" stroke-linecap="round"/>
<path d="M133.004 106.436L132.371 104.693C132.371 104.693 132.054 102.554 131.103 102.078" stroke="black" stroke-width="0.544886" stroke-linecap="round"/>
<path d="M130.707 100.81L129.677 101.286" stroke="black" stroke-width="0.544886" stroke-linecap="round"/>
<path d="M129.36 99.622L130.311 99.0674" stroke="black" stroke-width="0.544886" stroke-linecap="round"/>
<path d="M129.36 98.6716L130.073 97.8793" stroke="black" stroke-width="0.544886" stroke-linecap="round"/>
<path d="M128.885 96.6908L129.677 95.5025" stroke="black" stroke-width="0.544886" stroke-linecap="round"/>
<path d="M109.91 122.195C109.91 122.195 110.862 119.954 112.263 119.338" stroke="black" stroke-width="0.544886" stroke-linecap="round"/>
<path d="M113.103 133.287C113.103 133.287 110.75 131.719 109.63 131.775C109.63 131.775 105.988 128.021 106.269 126.061" stroke="black" stroke-width="0.544886" stroke-linecap="round"/>
<path d="M108.733 127.965C108.733 127.965 106.773 124.548 110.414 125.836" stroke="black" stroke-width="0.544886" stroke-linecap="round"/>
<path d="M113.215 131.55C113.215 131.55 111.758 130.878 111.814 130.486C111.814 130.486 109.966 131.438 110.19 128.637" stroke="black" stroke-width="0.544886" stroke-linecap="round"/>
<path d="M108.397 122.307C108.397 122.307 105.54 118.218 107.725 117.153" stroke="black" stroke-width="0.544886" stroke-linecap="round"/>
<path d="M107.221 123.988C107.221 123.988 104.98 120.01 104.98 119.506C104.98 119.506 103.804 115.025 105.372 112.616" stroke="black" stroke-width="0.544886" stroke-linecap="round"/>
<path d="M105.316 123.82C105.316 123.82 103.411 120.963 103.299 118.61C103.299 118.61 103.131 113.792 103.636 112.504" stroke="black" stroke-width="0.544886" stroke-linecap="round"/>
<path d="M101.235 110.317C101.235 110.317 104.196 112.279 105.988 107.966L106.605 105.389C106.605 105.389 109.742 94.7449 102.291 97.0418" stroke="black" stroke-width="0.544886" stroke-linecap="round"/>
<path d="M100.498 103.82L101.955 103.82C101.955 103.82 101.115 109.03 103.467 106.902C103.467 106.902 104.252 105.781 104.084 104.325C104.084 104.325 106.156 102.98 104.644 99.4508" stroke="black" stroke-width="0.544886" stroke-linecap="round"/>
<path d="M100.918 102.237L102.627 101.635" stroke="black" stroke-width="0.544886" stroke-linecap="round"/>
<path d="M108.845 111.719C108.845 111.719 108.229 111.159 107.445 111.551" stroke="black" stroke-width="0.544886" stroke-linecap="round"/>
<path d="M107.613 114.576C107.613 114.576 106.605 114.24 106.212 115.193" stroke="black" stroke-width="0.544886" stroke-linecap="round"/>
<path d="M108.173 109.758C108.173 109.758 107.109 109.254 106.493 110.599" stroke="black" stroke-width="0.544886" stroke-linecap="round"/>
<path d="M109.518 107.91C109.518 107.91 109.574 106.397 110.414 106.173C110.414 106.173 109.742 104.829 110.974 104.268" stroke="black" stroke-width="0.544886" stroke-linecap="round"/>
<path d="M108.005 104.661L108.565 104.829C108.565 104.829 109.742 98.8906 108.173 97.4901C108.173 97.4901 107.053 96.2577 106.549 96.1456C106.549 96.1456 106.997 93.1205 107.221 92.6724C107.221 92.6724 107.893 89.087 108.061 88.8069" stroke="black" stroke-width="0.544886" stroke-linecap="round"/>
<path d="M110.246 100.571C110.246 100.571 110.75 96.9299 108.173 95.1933C108.173 95.1933 107.445 93.7368 109.63 93.7928C109.63 93.7928 107.221 91.72 110.134 91.496" stroke="black" stroke-width="0.544886" stroke-linecap="round"/>
<path d="M110.862 90.7113C110.862 90.7113 109.91 89.759 108.733 89.9831" stroke="black" stroke-width="0.544886" stroke-linecap="round"/>
<path d="M111.758 89.3672C111.758 89.3672 110.862 87.8547 109.854 87.9106" stroke="black" stroke-width="0.544886" stroke-linecap="round"/>
<path d="M112.487 87.7427L112.431 85.2778C112.431 85.2778 114.896 83.205 114.223 79.4517" stroke="black" stroke-width="0.544886" stroke-linecap="round"/>
<path d="M105.652 79.8997C104.7 83.1489 106.306 86.3917 106.306 86.3917C108.976 88.346 111.646 84.2133 111.646 84.2133L111.927 79.8436L111.927 79.0594C111.927 79.0594 114.391 74.6338 112.599 72.7291C112.599 72.7291 111.478 70.7123 109.406 72.8411" stroke="black" stroke-width="0.544886" stroke-linecap="round"/>
<path d="M110.918 75.1939C111.03 77.0425 110.358 78.4991 110.358 78.4991C110.75 81.2441 109.854 82.5325 109.854 82.5325C106.773 86.2299 107.445 81.188 107.445 81.188C107.445 81.188 109.014 83.2048 109.35 80.964C109.35 80.964 109.91 79.7876 109.518 78.7232C109.518 78.7232 110.19 77.5467 110.302 76.2583" stroke="black" stroke-width="0.544886" stroke-linecap="round"/>
<path d="M114.279 78.6113C114.279 78.6113 116.072 72.6732 113.327 70.9365C113.327 70.9365 114.279 69.0318 114.167 68.1355" stroke="black" stroke-width="0.544886" stroke-linecap="round"/>
<path d="M116.016 78.667L116.128 77.5466" stroke="black" stroke-width="0.544886" stroke-linecap="round"/>
<path d="M116.24 76.5386C116.24 76.5386 116.856 73.0653 115.512 72.0569" stroke="black" stroke-width="0.544886" stroke-linecap="round"/>
<path d="M116.184 70.8804L115.176 69.984C115.176 69.984 117.024 66.3987 116.8 63.7658" stroke="black" stroke-width="0.544886" stroke-linecap="round"/>
<path d="M125.596 68.0231C125.596 68.0231 123.971 69.2555 123.523 69.9278" stroke="black" stroke-width="0.544886" stroke-linecap="round"/>
<path d="M125.147 66.2307C125.147 66.2307 123.691 67.071 123.299 67.5752" stroke="black" stroke-width="0.544886" stroke-linecap="round"/>
<path d="M129.915 81.7965C129.915 81.7965 126.772 84.8853 125.035 79.7875C125.035 79.7875 122.291 69.0013 127.696 69.9127" stroke="black" stroke-width="0.544886" stroke-linecap="round"/>
<path d="M123.971 64.662L125.035 63.7096L124.587 60.0123L123.859 60.2363" stroke="black" stroke-width="0.544886" stroke-linecap="round"/>
<path d="M128.172 74.0176C128.172 75.138 128.789 76.8746 128.789 76.8746C129.517 78.3311 129.237 79.6196 129.237 79.6196C128.242 82.196 126.772 79.2275 126.772 79.2275C126.772 79.2275 128.453 80.628 128.509 79.1154C128.509 79.1154 127.556 77.1547 127.948 75.138" stroke="black" stroke-width="0.544886" stroke-linecap="round"/>
<path d="M126.828 72.0008C125.596 72.2809 125.932 74.5218 125.932 74.5218L126.38 74.6898L126.324 77.3788L126.996 76.3144C126.996 76.3144 126.716 73.9615 126.94 73.2893" stroke="black" stroke-width="0.544886" stroke-linecap="round"/>
<path d="M114.728 66.7349L115.064 61.3569L115.904 61.0768" stroke="black" stroke-width="0.544886" stroke-linecap="round"/>
<path d="M118.089 62.9253L118.089 60.9646L116.296 59.228L115.456 59.452" stroke="black" stroke-width="0.544886" stroke-linecap="round"/>
<path d="M115.68 57.9395C115.68 57.9395 116.24 48.0798 114.56 46.2872" stroke="black" stroke-width="0.544886" stroke-linecap="round"/>
<path d="M117.921 57.7153C117.921 57.7153 117.529 56.3708 116.632 56.2588" stroke="black" stroke-width="0.544886" stroke-linecap="round"/>
<path d="M117.249 55.2505L117.024 48.7521" stroke="black" stroke-width="0.544886" stroke-linecap="round"/>
<path d="M123.019 57.0995L123.803 56.2592" stroke="black" stroke-width="0.544886" stroke-linecap="round"/>
<path d="M123.467 58.6118L124.307 57.9396" stroke="black" stroke-width="0.544886" stroke-linecap="round"/>
<path d="M123.075 54.8584C123.075 54.8584 122.907 50.0406 122.402 49.2003" stroke="black" stroke-width="0.544886" stroke-linecap="round"/>
<path d="M123.418 31.4097L122.29 32.8426C122.29 32.8426 121.058 38.1645 119.265 38.7247C119.265 38.7247 118.705 45.2231 114.896 45.1671C114.896 45.1671 112.711 44.887 112.487 43.2064" stroke="black" stroke-width="0.544886" stroke-linecap="round"/>
<path d="M120.498 33.8507C119.713 34.5789 119.321 36.3156 119.321 36.3156C119.153 38.4443 116.8 39.3407 116.8 39.3407L116.744 39.7328C116.688 42.3658 115.4 42.8139 115.4 42.8139C113.495 43.4862 114.447 40.349 114.447 40.349L115.064 39.5087L115.064 40.9092C115.064 40.9092 115.904 42.1417 116.24 39.0045C116.24 39.0045 118.201 38.2763 118.593 36.7077" stroke="black" stroke-width="0.544886" stroke-linecap="round"/>
<path d="M120.618 87.5418C119.812 81.3519 119.268 75.1448 119.298 68.9441C119.266 68.2226 119.343 65.1455 119.243 67.312C118.877 73.2416 118.339 84.5067 118.339 84.5067C118.301 88.8891 116.949 92.7317 116.781 97.1071C116.565 99.9557 116.346 102.795 116.552 105.663C116.401 110.739 115.042 114.846 115.057 119.929C115.966 122.308 114.785 128.071 119.183 128.388C124.002 127.26 121.428 125.093 121.885 123.339C121.92 120.139 122.305 115.057 122.364 113.381C121.652 112.201 120.932 96.0897 120.618 87.5418Z" fill="#FCE94F"/>
<path d="M196.721 282.513C198.264 282.513 199.51 283.124 200.457 284.347C201.39 285.584 201.856 287.212 201.856 289.229C201.856 289.856 201.794 290.497 201.672 291.155C201.55 291.827 201.283 292.583 200.87 293.424C200.457 294.28 199.923 295.044 199.265 295.716C198.608 296.389 197.691 296.984 196.515 297.504C195.323 298.039 193.955 298.375 192.412 298.513L192.365 298.146C194.169 297.856 195.674 297.122 196.881 295.945C198.088 294.784 198.845 293.34 199.15 291.613C198.432 292.041 197.89 292.316 197.523 292.438C197.156 292.576 196.721 292.644 196.216 292.644C194.902 292.644 193.855 292.209 193.076 291.338C192.297 290.482 191.907 289.321 191.907 287.854C191.907 286.28 192.358 284.996 193.259 284.003C194.146 283.009 195.3 282.513 196.721 282.513ZM197.087 291.59C198.126 291.59 198.829 291.361 199.196 290.902C199.548 290.444 199.724 289.764 199.723 288.862C199.724 287.09 199.433 285.691 198.852 284.667C198.272 283.659 197.477 283.155 196.468 283.155C195.659 283.155 195.04 283.491 194.612 284.163C194.184 284.851 193.97 285.821 193.97 287.074C193.97 288.511 194.245 289.619 194.795 290.398C195.33 291.193 196.094 291.59 197.087 291.59Z" fill="black"/>
<path d="M37.9905 34.5132C36.4471 34.5132 35.2016 33.9019 34.2541 32.6794C33.3219 31.4415 32.8558 29.8141 32.8558 27.7969C32.8558 27.1703 32.9176 26.5285 33.0393 25.8714C33.1616 25.199 33.429 24.4425 33.8415 23.602C34.2541 22.7462 34.789 21.9822 35.4462 21.3098C36.1032 20.6374 37.0201 20.0414 38.1969 19.5218C39.3888 18.987 40.7565 18.6507 42.3 18.5132L42.3462 18.88C40.543 19.1703 39.0377 19.9038 37.8305 21.0805C36.6232 22.242 35.8667 23.6861 35.5611 25.4129C36.2794 24.985 36.8218 24.7099 37.1886 24.5877C37.5554 24.4502 37.9908 24.3814 38.4952 24.3814C39.8093 24.3814 40.8562 24.8169 41.6356 25.688C42.415 26.5438 42.8046 27.7052 42.8046 29.1722C42.8046 30.7462 42.3538 32.0299 41.4522 33.0232C40.5659 34.0165 39.4118 34.5132 37.9905 34.5132ZM37.6242 25.4358C36.5851 25.4358 35.8821 25.6651 35.5154 26.1235C35.1638 26.582 34.988 27.262 34.9881 28.1637C34.988 29.9363 35.2784 31.3346 35.8591 32.3585C36.4398 33.367 37.2345 33.8714 38.2431 33.8714C39.053 33.8714 39.6718 33.5351 40.0998 32.8627C40.5277 32.1751 40.7415 31.2047 40.7415 29.9516C40.7415 28.5151 40.4666 27.4072 39.9165 26.6278C39.3815 25.8332 38.6175 25.4358 37.6242 25.4358Z" fill="black"/>
<defs>
<linearGradient id="paint0_linear_2689_26079" x1="149.067" y1="148.459" x2="-370.797" y2="148.459" gradientUnits="userSpaceOnUse">
<stop stop-color="white"/>
<stop offset="1" stop-color="#CCCCCC"/>
</linearGradient>
</defs>
</svg>
