<svg width="208" height="319" viewBox="0 0 208 319" fill="none" xmlns="http://www.w3.org/2000/svg">
<path d="M192.5 0.5H15.5C7.21573 0.5 0.5 7.21573 0.5 15.5V303.5C0.5 311.784 7.21573 318.5 15.5 318.5H192.5C200.784 318.5 207.5 311.784 207.5 303.5V15.5C207.5 7.21573 200.784 0.5 192.5 0.5Z" fill="url(#paint0_linear_2689_14152)" stroke="black" stroke-linecap="square"/>
<path d="M15 15H193V304H15V15Z" stroke="black"/>
<path d="M20.381 33.3671C20.7366 33.3671 21.2623 33.5836 21.9579 34.0164C22.6691 34.4493 23.2875 34.6657 23.813 34.6657C24.6633 34.6657 25.3821 34.3333 25.9695 33.6686C26.5569 33.0038 26.8507 32.1845 26.8507 31.2106C26.8507 30.6077 26.7428 30.0744 26.5261 29.6106C26.3252 29.1469 26.0622 28.7913 25.7376 28.544C25.4129 28.2812 25.0266 28.0724 24.5783 27.9178C24.13 27.7478 23.7049 27.6396 23.303 27.5932C22.9165 27.5468 22.499 27.5236 22.0507 27.5236V27.2222C22.5762 27.0367 23.0246 26.8589 23.3957 26.6889C23.7821 26.5034 24.184 26.2637 24.6014 25.97C25.0188 25.6608 25.3358 25.2898 25.5523 24.857C25.7841 24.4242 25.9 23.9294 25.9 23.3729C25.9 22.6463 25.6604 22.0512 25.1811 21.5874C24.7174 21.1236 24.1067 20.8917 23.3493 20.8917C22.6227 20.8917 21.9811 21.0927 21.4246 21.4947C20.8836 21.8811 20.3733 22.4995 19.8941 23.3497L19.5464 23.257C19.9483 22.1594 20.4894 21.2628 21.1695 20.5671C21.8652 19.856 22.8468 19.5005 24.1145 19.5005C25.1811 19.5005 26.0468 19.7942 26.7116 20.3817C27.3918 20.9691 27.7318 21.7344 27.7318 22.6773C27.7318 23.3112 27.5696 23.8676 27.2449 24.3469C26.9203 24.8261 26.356 25.3363 25.5523 25.8773C26.4798 26.2793 27.2063 26.7971 27.7318 27.431C28.2575 28.0493 28.5202 28.9382 28.5202 30.0976C28.5202 31.7363 27.9097 33.0502 26.6885 34.0396C25.4826 35.0135 23.9598 35.5005 22.1202 35.5005C21.3164 35.5005 20.6749 35.3845 20.1957 35.1527C19.7319 34.9053 19.5 34.5807 19.5 34.1788C19.5 33.9314 19.5767 33.7382 19.7319 33.599C19.902 33.4444 20.1183 33.3671 20.381 33.3671Z" fill="black"/>
<path d="M187.619 285.633C187.264 285.633 186.738 285.417 186.042 284.984C185.331 284.551 184.713 284.335 184.187 284.335C183.337 284.335 182.618 284.667 182.031 285.332C181.443 285.997 181.149 286.816 181.149 287.79C181.149 288.393 181.257 288.926 181.474 289.39C181.675 289.854 181.938 290.209 182.263 290.457C182.587 290.719 182.974 290.928 183.422 291.083C183.87 291.253 184.295 291.361 184.697 291.407C185.084 291.454 185.501 291.477 185.949 291.477V291.778C185.424 291.964 184.976 292.142 184.604 292.312C184.218 292.497 183.816 292.737 183.399 293.031C182.981 293.34 182.664 293.711 182.448 294.144C182.216 294.576 182.1 295.071 182.1 295.628C182.1 296.354 182.34 296.949 182.819 297.413C183.283 297.877 183.893 298.109 184.651 298.109C185.377 298.109 186.019 297.908 186.576 297.506C187.117 297.119 187.627 296.501 188.106 295.651L188.454 295.743C188.052 296.841 187.511 297.738 186.831 298.433C186.135 299.144 185.153 299.5 183.886 299.5C182.819 299.5 181.953 299.206 181.289 298.619C180.608 298.031 180.268 297.266 180.268 296.323C180.268 295.689 180.431 295.133 180.755 294.654C181.08 294.174 181.644 293.664 182.448 293.123C181.52 292.721 180.794 292.203 180.268 291.57C179.743 290.951 179.48 290.062 179.48 288.903C179.48 287.264 180.09 285.95 181.312 284.961C182.518 283.987 184.04 283.5 185.88 283.5C186.684 283.5 187.325 283.616 187.804 283.848C188.268 284.095 188.5 284.42 188.5 284.822C188.5 285.069 188.423 285.262 188.268 285.401C188.098 285.556 187.882 285.633 187.619 285.633Z" fill="black"/>
<path d="M72.9677 114.998C94.2307 114.998 111.468 97.7614 111.468 76.4985C111.468 55.2356 94.2307 37.9985 72.9677 37.9985C51.7048 37.9985 34.4678 55.2356 34.4678 76.4985C34.4678 97.7614 51.7048 114.998 72.9677 114.998Z" fill="#FFCC00"/>
<path opacity="0.506" d="M71.0181 99.5592C83.7303 99.5592 94.0355 89.254 94.0355 76.5418C94.0355 63.8297 83.7303 53.5244 71.0181 53.5244C58.306 53.5244 48.0007 63.8297 48.0007 76.5418C48.0007 89.254 58.306 99.5592 71.0181 99.5592Z" fill="#FF6600"/>
<path d="M70.7837 34.8237L68.9114 37.9008L66.4399 35.2804L64.8986 38.536L62.1669 36.1891L60.9747 39.5874L58.0124 37.5384L57.1817 41.0434L54.022 39.3156L53.5627 42.8879L50.2389 41.4992L50.1555 45.1002L46.7052 44.0667L46.9985 47.6569L43.4585 46.9895L44.126 50.5295L40.5357 50.2361L41.5692 53.6864L37.9682 53.7699L39.3569 57.0937L35.7846 57.553L37.5125 60.7135L34.0074 61.5434L36.0565 64.5056L32.6573 65.6979L35.005 68.4296L31.7494 69.9708L34.3699 72.4424L31.2928 74.3147L34.1573 76.4991L31.2928 78.6827L34.3699 80.5559L31.7494 83.0274L35.005 84.5678L32.6573 87.3004L36.0565 88.4917L34.0074 91.454L37.5125 92.2847L35.7846 95.4453L39.3569 95.9046L37.9682 99.2275L41.5692 99.3118L40.5357 102.762L44.126 102.469L43.4585 106.008L46.9985 105.341L46.7052 108.931L50.1555 107.897L50.2389 111.498L53.5627 110.11L54.022 113.683L57.1817 111.955L58.0124 115.459L60.9747 113.41L62.1669 116.809L64.8986 114.461L66.4399 117.717L68.9114 115.097L70.7837 118.174L72.9682 115.31L75.1518 118.174L77.0249 115.097L79.4965 117.717L81.0368 114.461L83.7685 116.809L84.9608 113.41L87.9231 115.459L88.7538 111.955L91.9134 113.683L92.3736 110.11L95.6965 111.498L95.78 107.897L99.2312 108.931L98.9378 105.341L102.477 106.008L101.81 102.469L105.4 102.762L104.366 99.3118L107.967 99.2275L106.579 95.9046L110.152 95.4453L108.423 92.2847L111.928 91.454L109.879 88.4917L113.278 87.3004L110.93 84.5678L114.186 83.0274L111.566 80.5559L114.643 78.6827L111.779 76.4991L114.643 74.3147L111.566 72.4424L114.186 69.9708L110.93 68.4296L113.278 65.6979L109.879 64.5056L111.928 61.5434L108.423 60.7135L110.152 57.553L106.579 57.0937L107.967 53.7699L104.366 53.6864L105.4 50.2361L101.81 50.5295L102.477 46.9895L98.9378 47.6569L99.2312 44.0667L95.78 45.1002L95.6965 41.4992L92.3736 42.8879L91.9134 39.3156L88.7538 41.0434L87.9231 37.5384L84.9608 39.5874L83.7685 36.1891L81.0368 38.536L79.4965 35.2804L77.0249 37.9008L75.1518 34.8237L72.9682 37.6882L70.7837 34.8237ZM72.9682 39.7139C77.7988 39.7139 82.5822 40.6655 87.0451 42.5141C91.508 44.3628 95.5631 47.0724 98.9788 50.4882C102.395 53.904 105.104 57.9592 106.953 62.4222C108.801 66.8851 109.753 71.6685 109.753 76.4991C109.752 86.2549 105.877 95.6111 98.9785 102.509C92.0802 109.408 82.724 113.283 72.9682 113.283C68.1375 113.284 63.3542 112.332 58.8912 110.484C54.4282 108.635 50.3731 105.926 46.9573 102.51C43.5414 99.0941 40.8318 95.039 38.9832 90.576C37.1345 86.1131 36.183 81.3298 36.183 76.4991C36.1829 71.6684 37.1343 66.885 38.9829 62.4219C40.8315 57.9589 43.5411 53.9037 46.9569 50.4879C50.3728 47.072 54.428 44.3625 58.891 42.5139C63.354 40.6653 68.1375 39.7138 72.9682 39.7139Z" fill="black"/>
<path d="M55.3975 98.002L56.3265 95.9377L60.4552 92.5315L61.2809 85.2031L58.1844 83.6549L55.604 81.797L55.9136 77.8747L54.8815 76.8425L55.2203 75.2596L54.7261 74.3082L54.3654 72.0946L52.301 70.0302L56.1717 63.3211L56.9458 60.3278L57.4619 57.5409L57.5651 54.3412L59.0101 51.1415L62.6227 49.49L66.4418 47.2192H74.183L78.3117 48.2514L80.2729 48.4578L85.2273 52.6897L88.8399 56.1991L90.5946 59.6053L91.6267 68.7916L91.9364 71.7849L90.1817 76.12L88.5302 77.4618L85.7434 78.494L82.9565 78.3908L86.6723 81.9002L87.6013 83.8613L89.0463 84.6354L90.1817 86.6482L88.427 89.435L85.9498 91.7058L82.234 92.6348L79.7568 90.5704L75.5249 91.4994L65.5128 95.8345L59.423 97.7956L55.3975 98.002Z" fill="#FFCC00"/>
<path d="M60.3738 90.3727L57.2772 90.992L54.4904 93.6757L51.4971 96.2561L51.2906 100.488L53.4582 101.83L58.9287 102.139L65.741 101.623L71.7276 100.385L79.1593 100.955L83.804 100.403L87.7502 97.8044L87.0038 92.1274L81.8429 92.6435L79.2625 90.2695L75.237 91.8178L67.7022 94.5014L60.1673 97.0819L55.8322 98.114L55.1097 97.4947L57.0708 95.3272L60.1673 92.85L60.3738 90.3727Z" fill="#E60000"/>
<path d="M72.863 58.8916L74.162 54.4282L76.2691 56.0015L78.6431 59.7173L80.8107 64.6718L83.0815 69.9358L83.9072 73.8581L82.875 78.2964L80.8107 77.6771L80.5187 74.4774L79.1592 71.897L78.2303 69.3165L76.682 68.0779L75.6498 63.2267L73.9984 62.2978L72.863 58.8916Z" fill="#E60000"/>
<path d="M42.6778 90.2932L45.1409 89.8792L45.7041 89.7434L45.732 89.797L45.2942 90.1743L43.5364 91.9461L44.041 92.9174L47.1301 89.6023L46.6952 88.7651L42.1844 89.3433L42.6778 90.2932Z" fill="black"/>
<path d="M43.9749 83.4918L44.5943 83.0629L44.2864 81.9873L40.6112 84.6622L40.9207 85.7436L45.463 86.0977L45.1751 85.0919L44.4225 85.0557L44.3145 85.074L44.2962 84.9661L43.9151 83.6347L43.8735 83.5334L43.9749 83.4918ZM43.4647 85.028L43.3468 85.0114L42.3458 84.9645L41.8557 84.9664L41.8391 84.9082L42.2576 84.6563L43.0838 84.0927L43.1768 84.0221L43.1952 84.13L43.4232 84.9266L43.4647 85.028Z" fill="black"/>
<path d="M40.7998 76.4976C40.3171 76.5297 40.0906 76.6782 39.9104 76.8841C39.6625 77.1673 39.5313 77.5639 39.5723 78.1793L39.7052 80.1766L43.9652 79.8932L43.8986 78.8915L42.4323 78.9891L42.3309 79.014L42.3358 78.9046L42.3012 78.3857L43.7914 77.2804L43.7147 76.1279C43.6664 76.1311 43.6374 76.1512 43.5912 76.1846L42.1095 77.3257C41.9265 76.6712 41.4334 76.4555 40.7998 76.4976ZM40.8713 77.4808C41.2333 77.4567 41.4264 77.6257 41.4525 78.0179L41.5151 78.9592L41.5344 79.067L41.4306 79.0557L40.5497 79.1143L40.4483 79.1393L40.4531 79.0299L40.3905 78.0885C40.3644 77.6963 40.5515 77.5021 40.8713 77.4808Z" fill="black"/>
<path d="M39.6357 73.4904L43.8832 73.9229L43.9849 72.9242L39.7374 72.4917L39.6357 73.4904Z" fill="black"/>
<path d="M40.6435 67.3901C40.4497 68.0769 40.5545 68.6406 40.8059 69.0634C41.074 69.5161 41.4188 69.8083 42.1987 70.0284C43.0193 70.26 43.5084 70.197 43.9802 69.928C44.4056 69.6899 44.7689 69.2709 44.9545 68.6132C45.1451 67.9381 45.047 67.3952 44.8131 66.9772C44.5515 66.5013 44.1676 66.1918 43.347 65.9602C42.5671 65.7401 42.1221 65.803 41.6568 66.0487C41.2198 66.2835 40.8374 66.7034 40.6435 67.3901ZM44.1164 68.3767C44.0244 68.7026 43.8449 68.9158 43.6359 69.0328C43.3656 69.189 43.0525 69.2074 42.4763 69.0448C41.906 68.8838 41.7227 68.7316 41.5633 68.4729C41.4346 68.2607 41.3847 67.9701 41.4816 67.6267C41.5802 67.2775 41.7772 67.0692 41.992 66.9539C42.2648 66.811 42.5006 66.777 43.071 66.938C43.6472 67.1006 43.9044 67.28 44.0515 67.5603C44.1685 67.7693 44.2117 68.0391 44.1164 68.3767Z" fill="black"/>
<path d="M43.948 61.34C44.1641 60.9344 44.4885 60.7372 44.7335 60.6759L44.8833 60.6392L44.9036 59.7524C44.8556 59.7268 44.8068 59.7282 44.7606 59.7379L44.709 59.7446C44.2711 59.8334 43.6317 60.1847 43.225 60.9479C42.7444 61.8498 42.8115 62.701 43.6281 63.1362C43.9376 63.3011 44.2457 63.3145 44.5295 63.2191C44.8461 63.1137 45.1224 62.8909 45.3976 62.5031L45.841 61.8896C45.9981 61.6719 46.2151 61.4448 46.4766 61.5842C46.7274 61.7179 46.778 62.0601 46.5192 62.5457C46.2661 63.0207 45.8731 63.2567 45.5569 63.3486L45.4481 63.3728L45.4277 64.2596C45.4758 64.2852 45.5057 64.2806 45.5654 64.2713L45.7397 64.2272C46.2135 64.1096 46.8042 63.7597 47.2621 62.9005C47.848 61.8011 47.482 60.9962 46.8736 60.672C46.5587 60.5042 46.2485 60.4691 45.954 60.5588C45.6349 60.656 45.3255 60.9023 45.0336 61.3087L44.607 61.9036C44.3908 62.2064 44.2094 62.3153 44.0013 62.2044C43.7931 62.0935 43.7119 61.7829 43.948 61.34Z" fill="black"/>
<path d="M98.307 59.5153C98.5978 59.5667 98.9117 59.5089 99.3052 59.2072L99.3532 59.1704C99.7804 58.8429 99.8855 58.6023 99.9272 58.3189C99.9768 57.976 99.8712 57.5998 99.5327 57.1583L98.2817 55.5265L94.8934 58.1242L95.5042 58.9208L96.6273 58.0599L96.6978 57.9829L96.7544 58.0767L97.3395 58.8397C97.678 59.2813 97.9774 59.4632 98.307 59.5153ZM98.7413 58.3822C98.4246 58.6251 98.1835 58.5889 97.9406 58.2722L97.4071 57.5763L97.3313 57.4972L97.4239 57.4491L98.1678 56.8788L98.2384 56.8018L98.295 56.8956L98.8285 57.5915C99.0713 57.9082 99.0245 58.1651 98.7413 58.3822Z" fill="black"/>
<path d="M102.405 64.8405C102.842 64.6319 102.997 64.4102 103.088 64.1521C103.214 63.7973 103.189 63.3803 102.923 62.8238L102.06 61.0177L98.2074 62.8583L98.6402 63.7641L99.9661 63.1306L100.051 63.0699L100.087 63.1733L100.311 63.6426L99.3363 65.221L99.8343 66.2632C99.8779 66.2423 99.8974 66.2129 99.928 66.1648L100.882 64.5562C101.294 65.0965 101.832 65.1142 102.405 64.8405ZM101.975 63.9537C101.647 64.1101 101.405 64.0246 101.236 63.6699L100.829 62.8187L100.771 62.7257L100.872 62.6978L101.669 62.3171L101.753 62.2564L101.789 62.3599L102.196 63.2111C102.366 63.5657 102.264 63.8155 101.975 63.9537Z" fill="black"/>
<path d="M102.125 71.4445L101.589 69.2346L101.552 69.1317L101.656 69.1251L102.367 68.9528L102.463 68.9109L102.477 69.0195L102.931 70.8944L103.736 70.6993L103.282 68.8244L103.244 68.7215L103.349 68.7149L104.03 68.5497L104.126 68.5078L104.14 68.6165L104.661 70.7675L105.46 70.5738L104.681 67.359L100.532 68.3646L101.325 71.6382L102.125 71.4445Z" fill="black"/>
<path d="M103.779 77.4632L101.717 77.4876L101.729 78.4853L105.998 78.4349L105.984 77.2497L103.596 76.2437L103.595 76.2075L105.959 75.1393L105.945 73.9239L101.676 73.9743L101.688 74.96L103.75 74.9356L104.408 74.8976L104.409 74.9459L103.729 75.2201L102.182 75.8794L102.19 76.5567L103.752 77.1793L104.438 77.4433L104.439 77.4917L103.779 77.4632Z" fill="black"/>
<path d="M105.563 81.7894L101.359 81.047L101.184 82.0356L105.389 82.778L105.563 81.7894Z" fill="black"/>
<path d="M104.109 87.8028C104.353 87.1323 104.291 86.5624 104.071 86.1221C103.837 85.6508 103.515 85.3339 102.754 85.0567C101.952 84.7649 101.46 84.7916 100.97 85.0249C100.528 85.2308 100.134 85.6218 99.9005 86.2639C99.6605 86.923 99.7182 87.4718 99.9205 87.9058C100.146 88.3999 100.506 88.7369 101.307 89.0286C102.069 89.3059 102.517 89.2761 102.999 89.0656C103.452 88.8637 103.865 88.4733 104.109 87.8028ZM100.719 86.5618C100.835 86.2436 101.03 86.0443 101.247 85.9431C101.528 85.8073 101.841 85.8121 102.404 86.017C102.961 86.2198 103.132 86.3852 103.272 86.6549C103.385 86.8761 103.413 87.1696 103.291 87.5048C103.167 87.8458 102.955 88.0389 102.732 88.138C102.449 88.2604 102.212 88.2768 101.655 88.074C101.092 87.8692 100.849 87.6712 100.723 87.3807C100.622 87.1637 100.599 86.8914 100.719 86.5618Z" fill="black"/>
<path d="M100.357 93.5947C100.11 93.9827 99.7719 94.1547 99.5229 94.1972L99.3707 94.2223L99.2831 95.105C99.329 95.1341 99.3777 95.1364 99.4245 95.1304L99.4765 95.1275C99.9198 95.0723 100.584 94.7706 101.048 94.0406C101.596 93.1778 101.593 92.3239 100.812 91.828C100.516 91.64 100.21 91.6032 99.9196 91.6768C99.596 91.7578 99.3035 91.9589 98.9996 92.3247L98.5109 92.9027C98.3376 93.1078 98.1041 93.3177 97.8539 93.1589C97.614 93.0065 97.5895 92.6615 97.8845 92.1969C98.173 91.7425 98.5828 91.5371 98.9051 91.4695L99.0154 91.4537L99.1031 90.5709C99.0572 90.5418 99.027 90.5441 98.9668 90.5488L98.7896 90.5796C98.3082 90.6608 97.6926 90.9647 97.1707 91.7867C96.503 92.8384 96.8067 93.6687 97.3887 94.0383C97.6899 94.2295 97.9965 94.2881 98.297 94.221C98.6225 94.1484 98.9498 93.9263 99.2717 93.5433L99.7424 92.9826C99.981 92.6971 100.17 92.6023 100.369 92.7287C100.568 92.8551 100.626 93.171 100.357 93.5947Z" fill="black"/>
<path d="M65.9755 101.965C69.3749 101.273 72.0405 101.062 76.6301 101.125C82.3493 101.203 82.9233 101.129 85.3741 100.007C88.2792 98.6771 88.3239 98.554 87.5701 93.9603C87.2115 91.7753 87.2549 91.6375 88.7457 90.2315C90.4639 88.6111 90.7143 87.1213 89.6232 85.0113C89.2543 84.2981 88.5309 83.6043 88.0155 83.4695C87.4998 83.3346 87.0785 82.8437 87.0785 82.3777C87.0785 81.9119 86.3034 80.8668 85.3561 80.0553L83.6336 78.5797L85.8001 78.5625C87.6414 78.5479 88.2018 78.31 89.5341 76.9777C91.3252 75.1866 93.0144 70.6694 92.2522 69.7091C91.7975 69.1362 91.5444 67.6588 90.8053 61.2639C90.5973 59.4643 90.1175 57.5498 89.7391 57.0095C89.3607 56.4692 87.0577 54.1695 84.6214 51.8989C81.1712 48.6835 79.8994 47.7707 78.87 47.7707C78.143 47.7707 76.6776 47.4635 75.6134 47.088C74.0831 46.5481 72.7507 46.4851 69.24 46.787C65.4074 47.1164 64.4912 47.3664 62.5297 48.6179C61.2802 49.4151 60.0204 50.0673 59.7301 50.0673C59.4398 50.0673 58.8418 50.4656 58.4013 50.9523C57.1828 52.2988 56.5738 55.0972 56.1821 61.1494C56.1132 62.2138 55.2863 64.06 53.8925 66.2613C52.6925 68.1565 51.7107 69.9341 51.7107 70.2114C51.7107 70.4887 52.2178 71.0478 52.8375 71.4539C53.6343 71.9759 53.9679 72.618 53.9768 73.6463C53.9828 74.3458 54.7937 74.9232 54.8079 75.4037C54.8137 75.5973 54.5769 75.7752 54.3792 75.939C54.0486 76.184 54.1312 76.438 54.1622 76.7884C54.2435 77.5463 54.3752 77.8194 54.7267 78.1111C55.2034 78.5067 55.3165 79.1338 55.1099 80.2349C54.75 82.1538 55.67 83.3448 58.4857 84.6046C60.0893 85.3221 60.4367 85.6998 60.4316 86.7197C60.419 89.2112 59.9513 89.9918 58.2838 90.3046C57.1801 90.5117 55.8063 91.4683 53.815 93.4163C51.5147 95.6666 51.0491 96.1892 50.9175 97.6299C50.8915 97.9152 51.2958 97.9294 51.2843 98.3071C51.2717 98.7198 50.8636 99.4224 50.8908 99.7782C50.9527 100.589 51.1083 101.193 51.3129 101.32C52.2062 101.872 56.8937 102.767 59.2174 102.83C60.4408 102.862 63.482 102.474 65.9755 101.965ZM54.3285 101.527C51.9625 101.069 51.3287 100.391 52.1044 99.1491C52.535 98.4596 52.5642 98.0473 52.2077 97.6908C51.3112 96.7942 51.6824 96.0289 53.6013 94.8175C54.6411 94.1611 55.592 93.2414 55.7143 92.7737C55.923 91.9755 57.9746 90.9469 59.3581 90.9469C60.5598 90.9469 60.0004 92.7493 58.5689 93.4896C56.9037 94.3507 54.4993 96.878 54.4801 97.7874C54.4503 99.2046 59.7711 97.9469 68.6147 94.4464C79.4867 90.143 78.9286 90.2936 80.1977 91.3212C82.2827 93.0095 79.7056 94.4516 73.808 94.8968C68.0489 95.3316 67.6819 96.2022 73.3834 95.904C77.0869 95.7103 78.1442 95.4653 80.4561 94.2652C85.321 91.7399 86.5017 91.8417 83.7116 94.5459C82.0198 96.1857 78.1758 97.8368 76.0499 97.8368C75.2947 97.8368 74.6768 98.0699 74.6768 98.3548C74.6768 99.6787 82.8794 96.9293 84.5991 95.029C85.5264 94.0044 86.6192 93.8904 86.6192 94.8184C86.6192 96.2624 84.4951 97.6299 80.4183 98.8105L77.6624 99.6086L79.5412 99.6413C80.7754 99.6628 82.3998 99.1844 84.2764 98.2467C85.8474 97.4616 87.2446 96.9311 87.3813 97.0678C87.8817 97.5682 86.9105 98.4163 84.6108 99.4871C81.6462 100.867 77.7423 100.936 72.5786 99.6977C66.6983 98.2879 64.6812 98.1613 60.923 98.9664C59.0426 99.3692 57.4401 99.7627 57.3621 99.8408C57.284 99.9189 59.3628 99.8874 61.9816 99.771C67.7953 99.5124 68.7346 100.175 64.0528 101.233C60.6474 102.002 57.303 102.103 54.3285 101.527ZM55.8446 97.0041C55.8446 96.528 57.9968 94.5613 59.6147 93.559C60.7704 92.843 60.8679 92.5362 60.9926 89.2266L61.1268 85.6647L63.4234 85.3798C66.2056 85.0345 69.0029 83.9076 70.4665 82.5424C71.7181 81.3749 73.5175 78.0859 72.9046 78.0859C72.6775 78.0859 72.2449 78.6817 71.9432 79.4099C70.7364 82.3236 67.5251 84.0992 63.2752 84.2028C60.22 84.2772 58.004 83.7364 56.8115 82.6255C55.9457 81.8189 55.8295 81.3722 56.0876 79.8444C56.3357 78.3756 56.2311 77.9031 55.5457 77.397C54.1982 76.402 55.3616 75.5311 57.1878 76.1677C57.6066 76.3137 58.0066 76.7158 58.216 76.7454C58.6328 76.8043 58.6005 76.3046 58.6005 75.7925C58.6005 74.7573 57.8416 74.1622 57.5678 74.9826C57.4219 75.4197 57.0503 75.4429 56.0358 75.0785C54.9199 74.6778 54.7203 74.3778 54.8402 73.2817C54.9463 72.3112 54.6707 71.7142 53.7901 71.0069L52.5961 70.0478L54.9264 66.3732C56.6219 63.6995 57.1851 62.4094 56.994 61.6366C56.8123 60.9015 57.2414 59.7351 58.3882 57.8472C59.2995 56.3471 60.2235 55.1198 60.4417 55.1198C60.6599 55.1198 61.3031 55.9466 61.871 56.9571C62.4389 57.9676 63.0722 58.7944 63.2783 58.7944C63.4845 58.7944 63.6531 59.3217 63.6531 59.9661C63.6531 60.8798 64.0215 61.2918 65.326 61.8368C66.246 62.2213 67.4862 62.4135 68.0819 62.264C69.0759 62.0145 69.1652 62.1344 69.168 63.7234C69.1698 64.6776 69.5806 66.073 70.0836 66.8325C71.1834 68.4932 71.2673 70.0774 70.2757 70.458C69.1173 70.9025 68.7056 70.7878 68.7056 70.0207C68.7056 69.6268 68.4989 69.4323 68.2463 69.5885C67.4891 70.0564 67.7257 71.5941 68.7056 72.5741C69.2109 73.0793 69.6243 73.6846 69.6243 73.9192C69.6243 74.1538 69.9676 74.689 70.3871 75.1086C70.9804 75.7019 71.6073 75.8029 73.2067 75.563C75.0784 75.2824 75.2324 75.3303 74.9192 76.0961C74.7299 76.5589 74.4686 78.3069 74.3386 79.9804C74.1307 82.6576 74.2204 83.1413 75.0847 84.0057C75.6251 84.5461 76.3905 85.7962 76.7857 86.7838C77.1808 87.7714 77.7981 88.6922 78.1574 88.8301C79.461 89.3304 78.7562 90.0185 76.17 90.7703C74.7176 91.1925 71.3588 92.4576 68.706 93.5816C66.0532 94.7056 62.7652 96.0195 61.3994 96.5013C58.8555 97.3988 55.8446 97.6713 55.8446 97.0041ZM58.8749 70.1589C58.9786 68.9059 58.4545 68.3553 57.9197 68.1501C57.0187 67.8043 56.6324 68.1616 57.0375 68.686C57.1306 68.8065 57.4981 68.7559 57.701 68.8485C58.7856 69.7857 58.1136 71.6044 56.7358 71.3161C56.1065 71.1581 55.3853 70.8955 55.3853 71.1108C55.3853 71.8345 56.0319 72.1578 57.2054 72.021C58.1915 71.906 58.7541 71.6194 58.8749 70.1589ZM60.9118 67.4067C60.9198 67.0909 61.2234 66.4401 61.5864 65.9606C62.113 65.2649 62.3803 65.1997 62.9089 65.6384C63.3904 66.038 63.6578 66.0483 63.8879 65.676C64.263 65.069 64.3773 65.1612 61.9306 64.0971C60.857 63.6302 59.9785 62.9721 59.9785 62.6347C59.9785 62.1892 60.7018 62.3457 62.6196 63.2061C66.5305 64.9606 66.7956 64.9865 65.0311 63.4418C64.5 62.9769 63.9567 62.5243 63.444 62.2645C63.103 62.0918 62.7348 62.0247 62.5409 62.022C62.0556 62.0152 61.2888 61.6751 60.837 61.2662C60.5306 60.989 60.2902 60.7464 59.9049 60.6864C59.609 60.6404 59.1828 60.7318 58.8487 60.8157C57.5732 61.1358 57.2461 62.0097 58.4018 62.0097C58.9127 62.0097 58.9855 62.0183 58.7786 62.6703C58.741 62.7886 58.5448 62.9161 58.4045 63.0192C58.1888 63.3553 58.5833 63.3608 58.8733 63.3933C59.2041 63.4867 59.6023 63.8089 59.6009 64.0606C59.5967 64.8784 59.7507 65.4983 60.6668 66.0493C60.925 66.2046 60.6333 66.3809 60.2524 66.6097C58.682 67.0471 61.2003 68.8279 60.9118 67.4067ZM81.1579 91.1144C80.3392 90.5409 80.1673 90.035 80.2792 88.5281C80.3557 87.4978 80.6749 86.5704 80.9884 86.4673C81.3988 86.3324 81.4781 86.6816 81.2715 87.7147C81.0503 88.8208 81.2169 89.3967 81.9991 90.2294C83.2028 91.5107 82.6116 92.1326 81.1579 91.1144ZM82.5772 90.3958C81.1809 88.9995 82.3646 87.8393 84.3476 88.6607C85.474 89.1273 85.884 89.0951 86.8461 88.4647C88.1821 87.5894 88.3511 86.1397 87.1933 85.4865C85.9318 84.7747 87.1186 83.8004 88.4072 84.49C89.9967 85.3408 89.8522 87.9468 88.1297 89.4939C86.955 90.549 86.1366 90.6053 84.0929 89.7717C83.2752 89.4381 83.2435 89.4821 83.8047 90.172C84.341 90.8313 84.3376 90.9469 83.7817 90.9469C83.4224 90.9469 82.8803 90.6989 82.5772 90.3958ZM85.2412 87.8262C85.2412 87.5835 85.5751 87.1077 85.9832 86.7691C86.6251 86.2363 86.7025 86.2701 86.5573 87.0193C86.3843 87.912 85.2412 88.6129 85.2412 87.8262ZM77.8434 85.913C77.4286 84.5287 77.4242 83.468 77.8249 81.4728C78.6606 77.3118 78.4332 76.0707 77.4148 79.2342C76.9269 80.75 76.518 82.4035 76.5063 82.9088L76.4849 83.8274L75.7744 82.9088C75.2504 82.2313 75.1263 81.327 75.3016 79.4639C75.7187 75.0312 76.5321 69.1878 76.7642 68.9556C77.3407 68.3791 78.1407 70.1031 78.3988 72.4783C78.6169 74.4845 78.7649 74.8588 79.0291 74.072C79.6149 72.3278 80.1887 73.4115 80.1887 76.262C80.1887 78.7461 80.3059 79.0637 81.5667 79.9958C82.7322 80.8575 82.9446 81.3241 82.9446 83.0223C82.9446 84.2438 83.1245 84.9188 83.404 84.7461C83.6566 84.59 83.8633 83.6837 83.8633 82.7321C83.8633 81.4813 83.5457 80.7036 82.7168 79.9249C80.8206 78.1435 81.8491 78.2896 84.0813 80.1187C85.7998 81.5269 86.1599 82.0907 86.1599 83.3728C86.1599 85.5241 84.7028 86.5739 82.9644 85.675C81.9172 85.1334 81.7705 84.8097 81.9349 83.402C82.1947 81.1767 81.7186 81.328 81.0876 83.6711C80.5301 85.7414 79.3973 87.7317 78.7764 87.7317C78.5629 87.7317 78.1431 86.9133 77.8434 85.913ZM82.9446 87.2724C82.9446 87.0197 83.1513 86.813 83.4039 86.813C83.6566 86.813 83.8633 87.0197 83.8633 87.2724C83.8633 87.525 83.6566 87.7317 83.4039 87.7317C83.1513 87.7317 82.9446 87.525 82.9446 87.2724ZM84.6574 77.5844C83.5375 76.9324 84.1294 76.1827 85.4938 76.5251C86.2194 76.7072 87.1921 76.4607 88.2794 75.8191C89.1984 75.2769 90.057 74.9401 90.1874 75.0706C90.8001 75.6832 87.4761 78.1049 86.0678 78.072C85.7395 78.0643 85.1048 77.8449 84.6574 77.5844ZM80.9073 75.1379C80.7399 74.0217 80.3031 72.8596 79.9365 72.5554C79.5699 72.2512 79.27 71.5014 79.27 70.8893C79.27 70.2772 78.7732 69.2796 78.1661 68.6724C77.535 68.0413 76.9202 66.7222 76.7307 65.5929C76.5366 64.4354 75.8552 62.9956 75.0854 62.1161C73.3651 60.1506 73.0488 58.7156 73.8779 56.637L74.556 54.9368L76.2284 56.7508C77.2546 57.8639 78.4352 59.9843 79.2842 62.2393C80.0451 64.2603 80.9116 66.3273 81.2098 66.8325C83.513 70.7354 83.9099 72.8229 82.8997 75.7208C82.1752 77.7989 81.2665 77.5331 80.9073 75.1379ZM84.7819 75.3156C84.7819 74.8186 85.1129 74.6675 87.2123 74.2065C88.0359 74.0257 89.0216 73.1742 89.9683 71.8262C91.2133 70.0531 91.4648 69.8768 91.5887 70.6906C91.6694 71.2204 91.3104 72.2508 90.7908 72.9803C89.4816 74.819 84.7819 76.6454 84.7819 75.3156ZM71.3085 74.1051C70.7689 73.5655 70.9758 73.1929 72.0992 72.681C72.8819 72.3244 73.4566 71.3771 74.1052 69.3741C75.1764 66.0665 74.4966 65.8545 73.2606 69.1107C72.3563 71.4929 71.7699 72.0964 70.348 72.1077C69.5179 72.1143 69.527 72.0478 70.4972 71.0151C71.0908 70.3832 71.8217 68.6378 72.2153 66.9122C73.0766 63.1364 73.9442 62.2624 75.2435 63.8618C76.0608 64.868 76.13 65.4075 75.8598 68.6662C75.5045 72.9513 74.7537 74.4113 72.9055 74.4113C72.1955 74.4113 71.4769 74.2736 71.3085 74.1051ZM84.3226 73.5587C84.3226 73.2875 84.7876 72.8265 85.3561 72.5341C87.2993 71.5345 88.9158 69.6763 88.9158 68.442C88.9158 67.7797 89.2219 66.8366 89.5961 66.3462C90.1865 65.5723 90.3398 65.5455 90.7568 66.1436C91.787 67.6207 90.384 70.8898 87.9688 72.6398C86.5515 73.6667 84.3226 74.2284 84.3226 73.5587ZM83.9085 70.6219C83.6301 69.8735 83.7609 69.2863 84.3826 68.493C84.8549 67.8906 85.2412 66.9255 85.2412 66.3485C85.2412 65.7715 85.5962 64.6808 86.0301 63.9248C86.801 62.5817 86.7879 62.4864 85.4559 59.7547C84.7063 58.2172 83.9344 56.9587 83.7407 56.9582C83.547 56.9577 83.9087 57.9837 84.5445 59.2384C85.87 61.8543 85.9897 63.0351 85.0116 63.8469C84.6326 64.1614 84.316 64.8585 84.308 65.396C84.2999 65.9335 83.9817 66.7856 83.6008 67.2896C82.8408 68.2954 82.7444 68.2225 81.2967 65.5468C80.653 64.3571 80.6751 64.1412 81.5929 62.6561C82.2839 61.538 82.4955 60.6742 82.2905 59.808C82.1287 59.1242 81.9358 57.7053 81.862 56.6549C81.7881 55.6045 81.3649 54.1914 80.9215 53.5146C79.8886 51.9382 79.4521 52.3292 80.331 54.0437C81.2986 55.9313 81.8194 61.7992 81.0609 62.268C80.7323 62.4711 80.401 62.4169 80.3104 62.1453C80.2213 61.8778 79.4183 60.4467 78.5261 58.965C77.3663 57.039 76.973 55.9259 77.1461 55.06C77.288 54.351 77.0411 53.1679 76.5506 52.2057C75.5801 50.3022 75.8217 49.7139 77.099 50.8701C77.9487 51.6392 80.1887 52.04 80.1887 51.4229C80.1887 50.8253 78.3942 49.5273 77.9486 49.8027C77.6953 49.9592 76.8038 49.6702 75.9676 49.1604C74.3582 48.1792 72.3802 47.9194 72.3802 48.6893C72.3802 48.9419 72.8969 49.1486 73.5285 49.1486C74.5974 49.1486 74.8755 49.5348 74.7252 50.8098C74.6919 51.0919 74.9775 51.5823 75.3597 51.8995C76.1078 52.5204 76.3292 55.1198 75.6341 55.1198C75.4027 55.1198 74.5585 54.293 73.7582 53.2825C72.9578 52.272 72.0777 51.4452 71.8022 51.4452C71.5268 51.4452 71.7508 51.9236 72.3001 52.5083C73.4513 53.7337 73.6072 55.9062 72.6378 57.2138C72.0737 57.9748 71.8382 58.0207 71.0302 57.5274C70.1818 57.0093 70.0836 57.0582 70.0836 57.9993C70.0836 60.1004 67.8278 61.9678 66.3746 61.0697C65.8931 60.7721 65.9053 60.5496 66.4386 59.9071C66.8631 59.3956 67.1073 57.9911 67.1242 55.9647C67.1567 52.0475 66.5077 52.4475 66.3184 56.4613C66.1777 59.4458 65.2407 60.8438 64.7188 58.848C64.5805 58.3189 64.2957 57.9921 64.0861 58.1217C63.4383 58.522 61.3565 54.4404 61.3565 52.7702C61.3565 50.8645 61.7024 49.984 63.7702 48.7056C65.0367 47.9226 65.2211 47.7927 69.9669 47.3113C72.6064 47.3113 74.7026 47.5609 75.7543 48.0003C76.6612 48.3793 78.1172 48.6893 78.9898 48.6893C80.271 48.6893 80.7314 49.2599 82.1402 50.5162C83.1273 51.3965 84.6709 53.0815 85.8528 53.9839C89.5358 56.796 90.8096 61.0833 89.1455 65.0661C88.7665 65.973 88.4565 67.1239 88.4565 67.6235C88.4565 68.5903 85.6866 71.6554 84.813 71.6554C84.527 71.6554 84.12 71.1904 83.9085 70.6219ZM65.88 52.3599C67.0666 50.755 66.5484 50.5126 65.1522 52.0194C64.1486 53.1025 63.934 53.9832 64.117 56.2681C64.2122 57.4564 64.2712 57.3768 64.5458 55.69C64.7209 54.6141 65.3213 53.1156 65.88 52.3599ZM70.6246 66.2456C70.2506 65.5789 70.1103 64.1624 70.2379 62.3413C70.4159 59.8021 70.5536 59.4661 71.4721 59.3284C73.3828 59.0419 73.9423 61.6532 72.4264 63.7821C71.9466 64.4559 71.477 65.5213 71.3828 66.1496L71.2117 67.2919L70.6246 66.2456ZM57.2226 56.2952C57.2226 55.9312 57.4293 55.5056 57.6819 55.3495C57.9345 55.1933 58.1412 54.5475 58.1412 53.9142C58.1412 52.3981 58.9243 50.9859 59.765 50.9859C60.8396 50.9859 60.5645 53.1109 59.2285 55.1297C57.9825 57.0125 57.2226 57.4541 57.2226 56.2952Z" fill="black"/>
<path d="M72.9677 281.001C94.2307 281.001 111.468 263.764 111.468 242.501C111.468 221.238 94.2307 204.001 72.9677 204.001C51.7048 204.001 34.4678 221.238 34.4678 242.501C34.4678 263.764 51.7048 281.001 72.9677 281.001Z" fill="#FFCC00"/>
<path opacity="0.506" d="M71.0181 265.562C83.7303 265.562 94.0355 255.256 94.0355 242.544C94.0355 229.832 83.7303 219.527 71.0181 219.527C58.306 219.527 48.0007 229.832 48.0007 242.544C48.0007 255.256 58.306 265.562 71.0181 265.562Z" fill="#FF6600"/>
<path d="M70.7837 200.826L68.9114 203.903L66.4399 201.283L64.8986 204.538L62.1669 202.192L60.9747 205.59L58.0124 203.541L57.1817 207.046L54.022 205.318L53.5627 208.89L50.2389 207.502L50.1555 211.103L46.7052 210.069L46.9985 213.659L43.4585 212.992L44.126 216.532L40.5357 216.239L41.5692 219.689L37.9682 219.772L39.3569 223.096L35.7846 223.555L37.5125 226.716L34.0074 227.546L36.0565 230.508L32.6573 231.7L35.005 234.432L31.7494 235.973L34.3699 238.445L31.2928 240.317L34.1573 242.502L31.2928 244.685L34.3699 246.558L31.7494 249.03L35.005 250.57L32.6573 253.303L36.0565 254.494L34.0074 257.456L37.5125 258.287L35.7846 261.448L39.3569 261.907L37.9682 265.23L41.5692 265.314L40.5357 268.765L44.126 268.471L43.4585 272.01L46.9985 271.344L46.7052 274.933L50.1555 273.9L50.2389 277.501L53.5627 276.113L54.022 279.685L57.1817 277.957L58.0124 281.461L60.9747 279.412L62.1669 282.812L64.8986 280.464L66.4399 283.719L68.9114 281.1L70.7837 284.176L72.9682 281.312L75.1518 284.176L77.0249 281.1L79.4965 283.719L81.0368 280.464L83.7685 282.812L84.9608 279.412L87.9231 281.461L88.7538 277.957L91.9134 279.685L92.3736 276.113L95.6965 277.501L95.78 273.9L99.2312 274.933L98.9378 271.344L102.477 272.01L101.81 268.471L105.4 268.765L104.366 265.314L107.967 265.23L106.579 261.907L110.152 261.448L108.423 258.287L111.928 257.456L109.879 254.494L113.278 253.303L110.93 250.57L114.186 249.03L111.566 246.558L114.643 244.685L111.779 242.502L114.643 240.317L111.566 238.445L114.186 235.973L110.93 234.432L113.278 231.7L109.879 230.508L111.928 227.546L108.423 226.716L110.152 223.555L106.579 223.096L107.967 219.772L104.366 219.689L105.4 216.239L101.81 216.532L102.477 212.992L98.9378 213.659L99.2312 210.069L95.78 211.103L95.6965 207.502L92.3736 208.89L91.9134 205.318L88.7538 207.046L87.9231 203.541L84.9608 205.59L83.7685 202.192L81.0368 204.538L79.4965 201.283L77.0249 203.903L75.1518 200.826L72.9682 203.691L70.7837 200.826ZM72.9682 205.716C77.7988 205.716 82.5822 206.668 87.0451 208.517C91.508 210.365 95.5631 213.075 98.9788 216.491C102.395 219.906 105.104 223.962 106.953 228.425C108.801 232.888 109.753 237.671 109.753 242.502C109.752 252.257 105.877 261.614 98.9785 268.512C92.0802 275.41 82.724 279.286 72.9682 279.286C68.1375 279.286 63.3542 278.335 58.8912 276.486C54.4282 274.637 50.3731 271.928 46.9573 268.512C43.5414 265.096 40.8318 261.041 38.9832 256.578C37.1345 252.116 36.183 247.332 36.183 242.502C36.1829 237.671 37.1343 232.887 38.9829 228.424C40.8315 223.961 43.5411 219.906 46.9569 216.49C50.3728 213.074 54.428 210.365 58.891 208.516C63.354 206.668 68.1375 205.716 72.9682 205.716Z" fill="black"/>
<path d="M55.3975 264.004L56.3265 261.94L60.4552 258.534L61.2809 251.206L58.1844 249.657L55.604 247.799L55.9136 243.877L54.8815 242.845L55.2203 241.262L54.7261 240.311L54.3654 238.097L52.301 236.033L56.1717 229.324L56.9458 226.33L57.4619 223.543L57.5651 220.344L59.0101 217.144L62.6227 215.492L66.4418 213.222H74.183L78.3117 214.254L80.2729 214.46L85.2273 218.692L88.8399 222.202L90.5946 225.608L91.6267 234.794L91.9364 237.787L90.1817 242.122L88.5302 243.464L85.7434 244.496L82.9565 244.393L86.6723 247.903L87.6013 249.864L89.0463 250.638L90.1817 252.651L88.427 255.437L85.9498 257.708L82.234 258.637L79.7568 256.573L75.5249 257.502L65.5128 261.837L59.423 263.798L55.3975 264.004Z" fill="#FFCC00"/>
<path d="M60.3738 256.375L57.2772 256.994L54.4904 259.678L51.4971 262.259L51.2906 266.49L53.4582 267.832L58.9287 268.142L65.741 267.626L71.7276 266.387L79.1593 266.958L83.804 266.405L87.7502 263.807L87.0038 258.13L81.8429 258.646L79.2625 256.272L75.237 257.82L67.7022 260.504L60.1673 263.084L55.8322 264.116L55.1097 263.497L57.0708 261.33L60.1673 258.852L60.3738 256.375Z" fill="#E60000"/>
<path d="M72.863 224.894L74.162 220.431L76.2691 222.004L78.6431 225.72L80.8107 230.674L83.0815 235.938L83.9072 239.861L82.875 244.299L80.8107 243.68L80.5187 240.48L79.1592 237.899L78.2303 235.319L76.682 234.08L75.6498 229.229L73.9984 228.3L72.863 224.894Z" fill="#E60000"/>
<path d="M42.6778 256.296L45.1409 255.882L45.7041 255.746L45.732 255.799L45.2942 256.177L43.5364 257.949L44.041 258.92L47.1301 255.605L46.6952 254.768L42.1844 255.346L42.6778 256.296Z" fill="black"/>
<path d="M43.9749 249.494L44.5943 249.065L44.2864 247.99L40.6112 250.665L40.9207 251.746L45.463 252.1L45.1751 251.094L44.4225 251.058L44.3145 251.076L44.2962 250.969L43.9151 249.637L43.8735 249.536L43.9749 249.494ZM43.4647 251.03L43.3468 251.014L42.3458 250.967L41.8557 250.969L41.8391 250.911L42.2576 250.659L43.0838 250.095L43.1768 250.025L43.1952 250.132L43.4232 250.929L43.4647 251.03Z" fill="black"/>
<path d="M40.7998 242.5C40.3171 242.532 40.0906 242.681 39.9104 242.887C39.6625 243.17 39.5313 243.566 39.5723 244.182L39.7052 246.179L43.9652 245.896L43.8986 244.894L42.4323 244.992L42.3309 245.016L42.3358 244.907L42.3012 244.388L43.7914 243.283L43.7147 242.13C43.6664 242.134 43.6374 242.154 43.5912 242.187L42.1095 243.328C41.9265 242.674 41.4334 242.458 40.7998 242.5ZM40.8713 243.483C41.2333 243.459 41.4264 243.628 41.4525 244.02L41.5151 244.962L41.5344 245.069L41.4306 245.058L40.5497 245.117L40.4483 245.142L40.4531 245.032L40.3905 244.091C40.3644 243.699 40.5515 243.505 40.8713 243.483Z" fill="black"/>
<path d="M39.6357 239.493L43.8832 239.925L43.9849 238.927L39.7374 238.494L39.6357 239.493Z" fill="black"/>
<path d="M40.6435 233.393C40.4497 234.079 40.5545 234.643 40.8059 235.066C41.074 235.519 41.4188 235.811 42.1987 236.031C43.0193 236.262 43.5084 236.199 43.9802 235.93C44.4056 235.692 44.7689 235.273 44.9545 234.616C45.1451 233.941 45.047 233.398 44.8131 232.98C44.5515 232.504 44.1676 232.194 43.347 231.963C42.5671 231.743 42.1221 231.805 41.6568 232.051C41.2198 232.286 40.8374 232.706 40.6435 233.393ZM44.1164 234.379C44.0244 234.705 43.8449 234.918 43.6359 235.035C43.3656 235.191 43.0525 235.21 42.4763 235.047C41.906 234.886 41.7227 234.734 41.5633 234.475C41.4346 234.263 41.3847 233.973 41.4816 233.629C41.5802 233.28 41.7772 233.072 41.992 232.956C42.2648 232.813 42.5006 232.779 43.071 232.94C43.6472 233.103 43.9044 233.282 44.0515 233.563C44.1685 233.772 44.2117 234.042 44.1164 234.379Z" fill="black"/>
<path d="M43.948 227.342C44.1641 226.937 44.4885 226.74 44.7335 226.678L44.8833 226.642L44.9036 225.755C44.8556 225.729 44.8068 225.731 44.7606 225.74L44.709 225.747C44.2711 225.836 43.6317 226.187 43.225 226.95C42.7444 227.852 42.8115 228.703 43.6281 229.139C43.9376 229.304 44.2457 229.317 44.5295 229.222C44.8461 229.116 45.1224 228.893 45.3976 228.506L45.841 227.892C45.9981 227.674 46.2151 227.447 46.4766 227.587C46.7274 227.72 46.778 228.062 46.5192 228.548C46.2661 229.023 45.8731 229.259 45.5569 229.351L45.4481 229.375L45.4277 230.262C45.4758 230.288 45.5057 230.283 45.5654 230.274L45.7397 230.23C46.2135 230.112 46.8042 229.762 47.2621 228.903C47.848 227.804 47.482 226.999 46.8736 226.674C46.5587 226.507 46.2485 226.472 45.954 226.561C45.6349 226.658 45.3255 226.905 45.0336 227.311L44.607 227.906C44.3908 228.209 44.2094 228.318 44.0013 228.207C43.7931 228.096 43.7119 227.785 43.948 227.342Z" fill="black"/>
<path d="M98.307 225.518C98.5978 225.569 98.9117 225.511 99.3052 225.21L99.3532 225.173C99.7804 224.845 99.8855 224.605 99.9272 224.321C99.9768 223.978 99.8712 223.602 99.5327 223.161L98.2817 221.529L94.8934 224.127L95.5042 224.923L96.6273 224.062L96.6978 223.985L96.7544 224.079L97.3395 224.842C97.678 225.284 97.9774 225.466 98.307 225.518ZM98.7413 224.385C98.4246 224.628 98.1835 224.591 97.9406 224.275L97.4071 223.579L97.3313 223.5L97.4239 223.452L98.1678 222.881L98.2384 222.804L98.295 222.898L98.8285 223.594C99.0713 223.911 99.0245 224.168 98.7413 224.385Z" fill="black"/>
<path d="M102.405 230.843C102.842 230.634 102.997 230.413 103.088 230.155C103.214 229.8 103.189 229.383 102.923 228.826L102.06 227.02L98.2074 228.861L98.6402 229.767L99.9661 229.133L100.051 229.072L100.087 229.176L100.311 229.645L99.3363 231.223L99.8343 232.266C99.8779 232.245 99.8974 232.215 99.928 232.167L100.882 230.559C101.294 231.099 101.832 231.117 102.405 230.843ZM101.975 229.956C101.647 230.113 101.405 230.027 101.236 229.672L100.829 228.821L100.771 228.728L100.872 228.7L101.669 228.32L101.753 228.259L101.789 228.362L102.196 229.214C102.366 229.568 102.264 229.818 101.975 229.956Z" fill="black"/>
<path d="M102.125 237.447L101.589 235.237L101.552 235.134L101.656 235.128L102.367 234.955L102.463 234.913L102.477 235.022L102.931 236.897L103.736 236.702L103.282 234.827L103.244 234.724L103.349 234.717L104.03 234.552L104.126 234.51L104.14 234.619L104.661 236.77L105.46 236.576L104.681 233.361L100.532 234.367L101.325 237.641L102.125 237.447Z" fill="black"/>
<path d="M103.779 243.466L101.717 243.49L101.729 244.488L105.998 244.437L105.984 243.252L103.596 242.246L103.595 242.21L105.959 241.142L105.945 239.926L101.676 239.977L101.688 240.962L103.75 240.938L104.408 240.9L104.409 240.948L103.729 241.223L102.182 241.882L102.19 242.559L103.752 243.182L104.438 243.446L104.439 243.494L103.779 243.466Z" fill="black"/>
<path d="M105.563 247.792L101.359 247.049L101.184 248.038L105.389 248.78L105.563 247.792Z" fill="black"/>
<path d="M104.109 253.805C104.353 253.135 104.291 252.565 104.071 252.125C103.837 251.653 103.515 251.336 102.754 251.059C101.952 250.767 101.46 250.794 100.97 251.027C100.528 251.233 100.134 251.624 99.9005 252.266C99.6605 252.925 99.7182 253.474 99.9205 253.908C100.146 254.402 100.506 254.739 101.307 255.031C102.069 255.308 102.517 255.279 102.999 255.068C103.452 254.866 103.865 254.476 104.109 253.805ZM100.719 252.564C100.835 252.246 101.03 252.047 101.247 251.946C101.528 251.81 101.841 251.815 102.404 252.019C102.961 252.222 103.132 252.388 103.272 252.657C103.385 252.879 103.413 253.172 103.291 253.507C103.167 253.848 102.955 254.041 102.732 254.14C102.449 254.263 102.212 254.279 101.655 254.076C101.092 253.872 100.849 253.674 100.723 253.383C100.622 253.166 100.599 252.894 100.719 252.564Z" fill="black"/>
<path d="M100.357 259.597C100.11 259.985 99.7719 260.157 99.5229 260.2L99.3707 260.225L99.2831 261.107C99.329 261.137 99.3777 261.139 99.4245 261.133L99.4765 261.13C99.9198 261.075 100.584 260.773 101.048 260.043C101.596 259.18 101.593 258.326 100.812 257.83C100.516 257.642 100.21 257.606 99.9196 257.679C99.596 257.76 99.3035 257.961 98.9996 258.327L98.5109 258.905C98.3376 259.11 98.1041 259.32 97.8539 259.161C97.614 259.009 97.5895 258.664 97.8845 258.199C98.173 257.745 98.5828 257.54 98.9051 257.472L99.0154 257.456L99.1031 256.573C99.0572 256.544 99.027 256.547 98.9668 256.551L98.7896 256.582C98.3082 256.663 97.6926 256.967 97.1707 257.789C96.503 258.841 96.8067 259.671 97.3887 260.041C97.6899 260.232 97.9965 260.291 98.297 260.223C98.6225 260.151 98.9498 259.929 99.2717 259.546L99.7424 258.985C99.981 258.7 100.17 258.605 100.369 258.731C100.568 258.858 100.626 259.173 100.357 259.597Z" fill="black"/>
<path d="M65.9755 267.968C69.3749 267.275 72.0405 267.065 76.6301 267.127C82.3493 267.205 82.9233 267.132 85.3741 266.01C88.2792 264.68 88.3239 264.556 87.5701 259.963C87.2115 257.778 87.2549 257.64 88.7457 256.234C90.4639 254.614 90.7143 253.124 89.6232 251.014C89.2543 250.301 88.5309 249.607 88.0155 249.472C87.4998 249.337 87.0785 248.846 87.0785 248.38C87.0785 247.914 86.3034 246.869 85.3561 246.058L83.6336 244.582L85.8001 244.565C87.6414 244.55 88.2018 244.312 89.5341 242.98C91.3252 241.189 93.0144 236.672 92.2522 235.712C91.7975 235.139 91.5444 233.661 90.8053 227.266C90.5973 225.467 90.1175 223.552 89.7391 223.012C89.3607 222.472 87.0577 220.172 84.6214 217.901C81.1712 214.686 79.8994 213.773 78.87 213.773C78.143 213.773 76.6776 213.466 75.6134 213.09C74.0831 212.551 72.7507 212.488 69.24 212.789C65.4074 213.119 64.4912 213.369 62.5297 214.62C61.2802 215.417 60.0204 216.07 59.7301 216.07C59.4398 216.07 58.8418 216.468 58.4013 216.955C57.1828 218.301 56.5738 221.1 56.1821 227.152C56.1132 228.216 55.2863 230.062 53.8925 232.264C52.6925 234.159 51.7107 235.936 51.7107 236.214C51.7107 236.491 52.2178 237.05 52.8375 237.456C53.6343 237.978 53.9679 238.62 53.9768 239.649C53.9828 240.348 54.7937 240.926 54.8079 241.406C54.8137 241.6 54.5769 241.778 54.3792 241.941C54.0486 242.186 54.1312 242.44 54.1622 242.791C54.2435 243.549 54.3752 243.822 54.7267 244.114C55.2034 244.509 55.3165 245.136 55.1099 246.237C54.75 248.156 55.67 249.347 58.4857 250.607C60.0893 251.325 60.4367 251.702 60.4316 252.722C60.419 255.214 59.9513 255.994 58.2838 256.307C57.1801 256.514 55.8063 257.471 53.815 259.419C51.5147 261.669 51.0491 262.192 50.9175 263.632C50.8915 263.918 51.2958 263.932 51.2843 264.31C51.2717 264.722 50.8636 265.425 50.8908 265.781C50.9527 266.592 51.1083 267.196 51.3129 267.322C52.2062 267.874 56.8937 268.77 59.2174 268.832C60.4408 268.865 63.482 268.476 65.9755 267.968ZM54.3285 267.529C51.9625 267.071 51.3287 266.394 52.1044 265.152C52.535 264.462 52.5642 264.05 52.2077 263.693C51.3112 262.797 51.6824 262.031 53.6013 260.82C54.6411 260.164 55.592 259.244 55.7143 258.776C55.923 257.978 57.9746 256.949 59.3581 256.949C60.5598 256.949 60.0004 258.752 58.5689 259.492C56.9037 260.353 54.4993 262.88 54.4801 263.79C54.4503 265.207 59.7711 263.949 68.6147 260.449C79.4867 256.145 78.9286 256.296 80.1977 257.324C82.2827 259.012 79.7056 260.454 73.808 260.899C68.0489 261.334 67.6819 262.205 73.3834 261.906C77.0869 261.713 78.1442 261.468 80.4561 260.268C85.321 257.742 86.5017 257.844 83.7116 260.548C82.0198 262.188 78.1758 263.839 76.0499 263.839C75.2947 263.839 74.6768 264.072 74.6768 264.357C74.6768 265.681 82.8794 262.932 84.5991 261.031C85.5264 260.007 86.6192 259.893 86.6192 260.821C86.6192 262.265 84.4951 263.632 80.4183 264.813L77.6624 265.611L79.5412 265.644C80.7754 265.665 82.3998 265.187 84.2764 264.249C85.8474 263.464 87.2446 262.934 87.3813 263.07C87.8817 263.571 86.9105 264.419 84.6108 265.49C81.6462 266.87 77.7423 266.938 72.5786 265.7C66.6983 264.29 64.6812 264.164 60.923 264.969C59.0426 265.372 57.4401 265.765 57.3621 265.843C57.284 265.921 59.3628 265.89 61.9816 265.773C67.7953 265.515 68.7346 266.178 64.0528 267.235C60.6474 268.004 57.303 268.105 54.3285 267.529ZM55.8446 263.007C55.8446 262.53 57.9968 260.564 59.6147 259.561C60.7704 258.845 60.8679 258.539 60.9926 255.229L61.1268 251.667L63.4234 251.382C66.2056 251.037 69.0029 249.91 70.4665 248.545C71.7181 247.377 73.5175 244.088 72.9046 244.088C72.6775 244.088 72.2449 244.684 71.9432 245.412C70.7364 248.326 67.5251 250.102 63.2752 250.205C60.22 250.28 58.004 249.739 56.8115 248.628C55.9457 247.821 55.8295 247.375 56.0876 245.847C56.3357 244.378 56.2311 243.906 55.5457 243.399C54.1982 242.404 55.3616 241.533 57.1878 242.17C57.6066 242.316 58.0066 242.718 58.216 242.748C58.6328 242.807 58.6005 242.307 58.6005 241.795C58.6005 240.76 57.8416 240.165 57.5678 240.985C57.4219 241.422 57.0503 241.445 56.0358 241.081C54.9199 240.68 54.7203 240.38 54.8402 239.284C54.9463 238.314 54.6707 237.717 53.7901 237.009L52.5961 236.05L54.9264 232.376C56.6219 229.702 57.1851 228.412 56.994 227.639C56.8123 226.904 57.2414 225.738 58.3882 223.85C59.2995 222.35 60.2235 221.122 60.4417 221.122C60.6599 221.122 61.3031 221.949 61.871 222.96C62.4389 223.97 63.0722 224.797 63.2783 224.797C63.4845 224.797 63.6531 225.324 63.6531 225.969C63.6531 226.882 64.0215 227.294 65.326 227.839C66.246 228.224 67.4862 228.416 68.0819 228.266C69.0759 228.017 69.1652 228.137 69.168 229.726C69.1698 230.68 69.5806 232.075 70.0836 232.835C71.1834 234.496 71.2673 236.08 70.2757 236.46C69.1173 236.905 68.7056 236.79 68.7056 236.023C68.7056 235.629 68.4989 235.435 68.2463 235.591C67.4891 236.059 67.7257 237.597 68.7056 238.577C69.2109 239.082 69.6243 239.687 69.6243 239.922C69.6243 240.156 69.9676 240.691 70.3871 241.111C70.9804 241.704 71.6073 241.805 73.2067 241.565C75.0784 241.285 75.2324 241.333 74.9192 242.099C74.7299 242.561 74.4686 244.309 74.3386 245.983C74.1307 248.66 74.2204 249.144 75.0847 250.008C75.6251 250.548 76.3905 251.799 76.7857 252.786C77.1808 253.774 77.7981 254.695 78.1574 254.833C79.461 255.333 78.7562 256.021 76.17 256.773C74.7176 257.195 71.3588 258.46 68.706 259.584C66.0532 260.708 62.7652 262.022 61.3994 262.504C58.8555 263.401 55.8446 263.674 55.8446 263.007ZM58.8749 236.161C58.9786 234.908 58.4545 234.358 57.9197 234.153C57.0187 233.807 56.6324 234.164 57.0375 234.688C57.1306 234.809 57.4981 234.758 57.701 234.851C58.7856 235.788 58.1136 237.607 56.7358 237.318C56.1065 237.161 55.3853 236.898 55.3853 237.113C55.3853 237.837 56.0319 238.16 57.2054 238.023C58.1915 237.908 58.7541 237.622 58.8749 236.161ZM60.9118 233.409C60.9198 233.093 61.2234 232.443 61.5864 231.963C62.113 231.267 62.3803 231.202 62.9089 231.641C63.3904 232.04 63.6578 232.051 63.8879 231.678C64.263 231.071 64.3773 231.164 61.9306 230.1C60.857 229.633 59.9785 228.975 59.9785 228.637C59.9785 228.192 60.7018 228.348 62.6196 229.209C66.5305 230.963 66.7956 230.989 65.0311 229.444C64.5 228.979 63.9567 228.527 63.444 228.267C63.103 228.094 62.7348 228.027 62.5409 228.024C62.0556 228.018 61.2888 227.678 60.837 227.269C60.5306 226.991 60.2902 226.749 59.9049 226.689C59.609 226.643 59.1828 226.734 58.8487 226.818C57.5732 227.138 57.2461 228.012 58.4018 228.012C58.9127 228.012 58.9855 228.021 58.7786 228.673C58.741 228.791 58.5448 228.919 58.4045 229.022C58.1888 229.358 58.5833 229.363 58.8733 229.396C59.2041 229.489 59.6023 229.811 59.6009 230.063C59.5967 230.881 59.7507 231.501 60.6668 232.052C60.925 232.207 60.6333 232.383 60.2524 232.612C58.682 233.049 61.2003 234.83 60.9118 233.409ZM81.1579 257.117C80.3392 256.543 80.1673 256.037 80.2792 254.531C80.3557 253.5 80.6749 252.573 80.9884 252.47C81.3988 252.335 81.4781 252.684 81.2715 253.717C81.0503 254.823 81.2169 255.399 81.9991 256.232C83.2028 257.513 82.6116 258.135 81.1579 257.117ZM82.5772 256.398C81.1809 255.002 82.3646 253.842 84.3476 254.663C85.474 255.13 85.884 255.098 86.8461 254.467C88.1821 253.592 88.3511 252.142 87.1933 251.489C85.9318 250.777 87.1186 249.803 88.4072 250.492C89.9967 251.343 89.8522 253.949 88.1297 255.496C86.955 256.551 86.1366 256.608 84.0929 255.774C83.2752 255.441 83.2435 255.485 83.8047 256.174C84.341 256.834 84.3376 256.949 83.7817 256.949C83.4224 256.949 82.8803 256.701 82.5772 256.398ZM85.2412 253.829C85.2412 253.586 85.5751 253.11 85.9832 252.772C86.6251 252.239 86.7025 252.273 86.5573 253.022C86.3843 253.914 85.2412 254.615 85.2412 253.829ZM77.8434 251.915C77.4286 250.531 77.4242 249.47 77.8249 247.475C78.6606 243.314 78.4332 242.073 77.4148 245.237C76.9269 246.752 76.518 248.406 76.5063 248.911L76.4849 249.83L75.7744 248.911C75.2504 248.234 75.1263 247.329 75.3016 245.466C75.7187 241.034 76.5321 235.19 76.7642 234.958C77.3407 234.382 78.1407 236.106 78.3988 238.481C78.6169 240.487 78.7649 240.861 79.0291 240.074C79.6149 238.33 80.1887 239.414 80.1887 242.264C80.1887 244.749 80.3059 245.066 81.5667 245.998C82.7322 246.86 82.9446 247.327 82.9446 249.025C82.9446 250.246 83.1245 250.921 83.404 250.749C83.6566 250.592 83.8633 249.686 83.8633 248.735C83.8633 247.484 83.5457 246.706 82.7168 245.927C80.8206 244.146 81.8491 244.292 84.0813 246.121C85.7998 247.529 86.1599 248.093 86.1599 249.375C86.1599 251.527 84.7028 252.576 82.9644 251.677C81.9172 251.136 81.7705 250.812 81.9349 249.404C82.1947 247.179 81.7186 247.33 81.0876 249.674C80.5301 251.744 79.3973 253.734 78.7764 253.734C78.5629 253.734 78.1431 252.916 77.8434 251.915ZM82.9446 253.275C82.9446 253.022 83.1513 252.815 83.4039 252.815C83.6566 252.815 83.8633 253.022 83.8633 253.275C83.8633 253.527 83.6566 253.734 83.4039 253.734C83.1513 253.734 82.9446 253.527 82.9446 253.275ZM84.6574 243.587C83.5375 242.935 84.1294 242.185 85.4938 242.528C86.2194 242.71 87.1921 242.463 88.2794 241.822C89.1984 241.279 90.057 240.943 90.1874 241.073C90.8001 241.686 87.4761 244.107 86.0678 244.074C85.7395 244.067 85.1048 243.847 84.6574 243.587ZM80.9073 241.14C80.7399 240.024 80.3031 238.862 79.9365 238.558C79.5699 238.254 79.27 237.504 79.27 236.892C79.27 236.28 78.7732 235.282 78.1661 234.675C77.535 234.044 76.9202 232.725 76.7307 231.595C76.5366 230.438 75.8552 228.998 75.0854 228.118C73.3651 226.153 73.0488 224.718 73.8779 222.639L74.556 220.939L76.2284 222.753C77.2546 223.866 78.4352 225.987 79.2842 228.242C80.0451 230.263 80.9116 232.33 81.2098 232.835C83.513 236.738 83.9099 238.825 82.8997 241.723C82.1752 243.801 81.2665 243.535 80.9073 241.14ZM84.7819 241.318C84.7819 240.821 85.1129 240.67 87.2123 240.209C88.0359 240.028 89.0216 239.177 89.9683 237.829C91.2133 236.056 91.4648 235.879 91.5887 236.693C91.6694 237.223 91.3104 238.253 90.7908 238.983C89.4816 240.821 84.7819 242.648 84.7819 241.318ZM71.3085 240.108C70.7689 239.568 70.9758 239.195 72.0992 238.683C72.8819 238.327 73.4566 237.38 74.1052 235.377C75.1764 232.069 74.4966 231.857 73.2606 235.113C72.3563 237.495 71.7699 238.099 70.348 238.11C69.5179 238.117 69.527 238.05 70.4972 237.018C71.0908 236.386 71.8217 234.64 72.2153 232.915C73.0766 229.139 73.9442 228.265 75.2435 229.864C76.0608 230.87 76.13 231.41 75.8598 234.669C75.5045 238.954 74.7537 240.414 72.9055 240.414C72.1955 240.414 71.4769 240.276 71.3085 240.108ZM84.3226 239.561C84.3226 239.29 84.7876 238.829 85.3561 238.537C87.2993 237.537 88.9158 235.679 88.9158 234.444C88.9158 233.782 89.2219 232.839 89.5961 232.349C90.1865 231.575 90.3398 231.548 90.7568 232.146C91.787 233.623 90.384 236.892 87.9688 238.642C86.5515 239.669 84.3226 240.231 84.3226 239.561ZM83.9085 236.624C83.6301 235.876 83.7609 235.289 84.3826 234.495C84.8549 233.893 85.2412 232.928 85.2412 232.351C85.2412 231.774 85.5962 230.683 86.0301 229.927C86.801 228.584 86.7879 228.489 85.4559 225.757C84.7063 224.22 83.9344 222.961 83.7407 222.961C83.547 222.96 83.9087 223.986 84.5445 225.241C85.87 227.857 85.9897 229.038 85.0116 229.849C84.6326 230.164 84.316 230.861 84.308 231.398C84.2999 231.936 83.9817 232.788 83.6008 233.292C82.8408 234.298 82.7444 234.225 81.2967 231.549C80.653 230.359 80.6751 230.144 81.5929 228.659C82.2839 227.54 82.4955 226.677 82.2905 225.81C82.1287 225.127 81.9358 223.708 81.862 222.657C81.7881 221.607 81.3649 220.194 80.9215 219.517C79.8886 217.941 79.4521 218.332 80.331 220.046C81.2986 221.934 81.8194 227.802 81.0609 228.27C80.7323 228.474 80.401 228.419 80.3104 228.148C80.2213 227.88 79.4183 226.449 78.5261 224.967C77.3663 223.041 76.973 221.928 77.1461 221.062C77.288 220.353 77.0411 219.17 76.5506 218.208C75.5801 216.305 75.8217 215.716 77.099 216.873C77.9487 217.642 80.1887 218.042 80.1887 217.425C80.1887 216.828 78.3942 215.53 77.9486 215.805C77.6953 215.962 76.8038 215.673 75.9676 215.163C74.3582 214.182 72.3802 213.922 72.3802 214.692C72.3802 214.944 72.8969 215.151 73.5285 215.151C74.5974 215.151 74.8755 215.537 74.7252 216.812C74.6919 217.094 74.9775 217.585 75.3597 217.902C76.1078 218.523 76.3292 221.122 75.6341 221.122C75.4027 221.122 74.5585 220.295 73.7582 219.285C72.9578 218.274 72.0777 217.448 71.8022 217.448C71.5268 217.448 71.7508 217.926 72.3001 218.511C73.4513 219.736 73.6072 221.909 72.6378 223.216C72.0737 223.977 71.8382 224.023 71.0302 223.53C70.1818 223.012 70.0836 223.061 70.0836 224.002C70.0836 226.103 67.8278 227.97 66.3746 227.072C65.8931 226.775 65.9053 226.552 66.4386 225.91C66.8631 225.398 67.1073 223.994 67.1242 221.967C67.1567 218.05 66.5077 218.45 66.3184 222.464C66.1777 225.448 65.2407 226.846 64.7188 224.85C64.5805 224.321 64.2957 223.995 64.0861 224.124C63.4383 224.524 61.3565 220.443 61.3565 218.773C61.3565 216.867 61.7024 215.986 63.7702 214.708C65.0367 213.925 65.2211 213.795 69.9669 213.314C72.6064 213.314 74.7026 213.563 75.7543 214.003C76.6612 214.382 78.1172 214.692 78.9898 214.692C80.271 214.692 80.7314 215.262 82.1402 216.519C83.1273 217.399 84.6709 219.084 85.8528 219.986C89.5358 222.798 90.8096 227.086 89.1455 231.069C88.7665 231.975 88.4565 233.126 88.4565 233.626C88.4565 234.593 85.6866 237.658 84.813 237.658C84.527 237.658 84.12 237.193 83.9085 236.624ZM65.88 218.362C67.0666 216.757 66.5484 216.515 65.1522 218.022C64.1486 219.105 63.934 219.986 64.117 222.271C64.2122 223.459 64.2712 223.379 64.5458 221.692C64.7209 220.617 65.3213 219.118 65.88 218.362ZM70.6246 232.248C70.2506 231.581 70.1103 230.165 70.2379 228.344C70.4159 225.805 70.5536 225.469 71.4721 225.331C73.3828 225.044 73.9423 227.656 72.4264 229.784C71.9466 230.458 71.477 231.524 71.3828 232.152L71.2117 233.294L70.6246 232.248ZM57.2226 222.298C57.2226 221.934 57.4293 221.508 57.6819 221.352C57.9345 221.196 58.1412 220.55 58.1412 219.917C58.1412 218.401 58.9243 216.988 59.765 216.988C60.8396 216.988 60.5645 219.113 59.2285 221.132C57.9825 223.015 57.2226 223.457 57.2226 222.298Z" fill="black"/>
<path d="M135.032 198C156.295 198 173.532 180.763 173.532 159.5C173.532 138.237 156.295 121 135.032 121C113.769 121 96.5323 138.237 96.5323 159.5C96.5323 180.763 113.769 198 135.032 198Z" fill="#FFCC00"/>
<path opacity="0.506" d="M133.083 182.561C145.795 182.561 156.1 172.255 156.1 159.543C156.1 146.831 145.795 136.526 133.083 136.526C120.37 136.526 110.065 146.831 110.065 159.543C110.065 172.255 120.37 182.561 133.083 182.561Z" fill="#FF6600"/>
<path d="M132.848 117.825L130.976 120.902L128.504 118.282L126.963 121.537L124.231 119.191L123.039 122.589L120.077 120.54L119.246 124.045L116.087 122.317L115.627 125.889L112.303 124.501L112.22 128.102L108.77 127.068L109.063 130.658L105.523 129.991L106.191 133.531L102.6 133.238L103.634 136.688L100.033 136.771L101.421 140.095L97.8491 140.554L99.577 143.715L96.072 144.545L98.121 147.507L94.7218 148.699L97.0696 151.431L93.8139 152.972L96.4344 155.444L93.3573 157.316L96.2218 159.501L93.3573 161.684L96.4344 163.557L93.8139 166.029L97.0696 167.569L94.7218 170.302L98.121 171.493L96.072 174.455L99.577 175.286L97.8491 178.447L101.421 178.906L100.033 182.229L103.634 182.313L102.6 185.764L106.191 185.47L105.523 189.009L109.063 188.343L108.77 191.932L112.22 190.899L112.303 194.5L115.627 193.112L116.087 196.684L119.246 194.956L120.077 198.46L123.039 196.411L124.231 199.811L126.963 197.463L128.504 200.718L130.976 198.099L132.848 201.175L135.033 198.312L137.216 201.175L139.089 198.099L141.561 200.718L143.101 197.463L145.833 199.811L147.025 196.411L149.988 198.46L150.818 194.956L153.978 196.684L154.438 193.112L157.761 194.5L157.844 190.899L161.296 191.932L161.002 188.343L164.541 189.009L163.875 185.47L167.464 185.764L166.431 182.313L170.032 182.229L168.644 178.906L172.216 178.447L170.488 175.286L173.993 174.455L171.944 171.493L175.343 170.302L172.995 167.569L176.251 166.029L173.631 163.557L176.707 161.684L173.844 159.501L176.707 157.316L173.631 155.444L176.251 152.972L172.995 151.431L175.343 148.699L171.944 147.507L173.993 144.545L170.488 143.715L172.216 140.554L168.644 140.095L170.032 136.771L166.431 136.688L167.464 133.238L163.875 133.531L164.541 129.991L161.002 130.658L161.296 127.068L157.844 128.102L157.761 124.501L154.438 125.889L153.978 122.317L150.818 124.045L149.988 120.54L147.025 122.589L145.833 119.191L143.101 121.537L141.561 118.282L139.089 120.902L137.216 117.825L135.033 120.69L132.848 117.825ZM135.033 122.715C139.863 122.715 144.647 123.667 149.11 125.516C153.573 127.364 157.628 130.074 161.043 133.49C164.459 136.905 167.169 140.961 169.017 145.424C170.866 149.887 171.817 154.67 171.817 159.501C171.817 169.256 167.941 178.613 161.043 185.511C154.145 192.409 144.788 196.285 135.033 196.285C130.202 196.285 125.419 195.334 120.956 193.485C116.493 191.637 112.438 188.927 109.022 185.511C105.606 182.096 102.896 178.04 101.048 173.578C99.199 169.115 98.2475 164.331 98.2475 159.501C98.2474 154.67 99.1988 149.886 101.047 145.423C102.896 140.96 105.606 136.905 109.021 133.489C112.437 130.074 116.492 127.364 120.956 125.515C125.419 123.667 130.202 122.715 135.033 122.715Z" fill="black"/>
<path d="M117.462 181.004L118.391 178.939L122.52 175.533L123.345 168.205L120.249 166.656L117.668 164.798L117.978 160.876L116.946 159.844L117.285 158.261L116.791 157.31L116.43 155.096L114.365 153.032L118.236 146.323L119.01 143.329L119.526 140.542L119.63 137.343L121.075 134.143L124.687 132.491L128.506 130.221H136.247L140.376 131.253L142.337 131.459L147.292 135.691L150.904 139.201L152.659 142.607L153.691 151.793L154.001 154.786L152.246 159.121L150.595 160.463L147.808 161.495L145.021 161.392L148.737 164.902L149.666 166.863L151.111 167.637L152.246 169.65L150.491 172.436L148.014 174.707L144.298 175.636L141.821 173.572L137.589 174.501L127.577 178.836L121.487 180.797L117.462 181.004Z" fill="#FFCC00"/>
<path d="M122.438 173.374L119.342 173.994L116.555 176.677L113.562 179.258L113.355 183.489L115.523 184.831L120.993 185.141L127.805 184.625L133.792 183.386L141.224 183.957L145.868 183.404L149.815 180.806L149.068 175.129L143.907 175.645L141.327 173.271L137.301 174.819L129.767 177.503L122.232 180.083L117.897 181.115L117.174 180.496L119.135 178.329L122.232 175.851L122.438 173.374Z" fill="#E60000"/>
<path d="M134.927 141.893L136.227 137.43L138.334 139.003L140.708 142.719L142.875 147.673L145.146 152.937L145.972 156.86L144.94 161.298L142.875 160.679L142.583 157.479L141.224 154.898L140.295 152.318L138.747 151.079L137.714 146.228L136.063 145.299L134.927 141.893Z" fill="#E60000"/>
<path d="M104.742 173.295L107.205 172.881L107.769 172.745L107.797 172.798L107.359 173.176L105.601 174.948L106.106 175.919L109.195 172.604L108.76 171.767L104.249 172.345L104.742 173.295Z" fill="black"/>
<path d="M106.039 166.493L106.659 166.064L106.351 164.989L102.676 167.664L102.985 168.745L107.528 169.099L107.24 168.093L106.487 168.057L106.379 168.076L106.361 167.968L105.98 166.636L105.938 166.535L106.039 166.493ZM105.529 168.029L105.411 168.013L104.41 167.966L103.92 167.968L103.904 167.91L104.322 167.658L105.148 167.094L105.241 167.024L105.26 167.132L105.488 167.928L105.529 168.029Z" fill="black"/>
<path d="M102.864 159.499C102.382 159.531 102.155 159.68 101.975 159.886C101.727 160.169 101.596 160.565 101.637 161.181L101.77 163.178L106.03 162.895L105.963 161.893L104.497 161.991L104.395 162.015L104.4 161.906L104.366 161.387L105.856 160.282L105.779 159.129C105.731 159.133 105.702 159.153 105.656 159.186L104.174 160.327C103.991 159.673 103.498 159.457 102.864 159.499ZM102.936 160.482C103.298 160.458 103.491 160.627 103.517 161.019L103.58 161.961L103.599 162.068L103.495 162.057L102.614 162.116L102.513 162.141L102.518 162.031L102.455 161.09C102.429 160.698 102.616 160.504 102.936 160.482Z" fill="black"/>
<path d="M101.7 156.492L105.948 156.924L106.049 155.926L101.802 155.493L101.7 156.492Z" fill="black"/>
<path d="M102.708 150.392C102.514 151.078 102.619 151.642 102.87 152.065C103.139 152.518 103.483 152.81 104.263 153.03C105.084 153.261 105.573 153.198 106.045 152.929C106.47 152.691 106.833 152.272 107.019 151.615C107.21 150.94 107.111 150.397 106.878 149.979C106.616 149.503 106.232 149.193 105.411 148.962C104.632 148.742 104.187 148.804 103.721 149.05C103.284 149.285 102.902 149.705 102.708 150.392ZM106.181 151.378C106.089 151.704 105.909 151.917 105.7 152.034C105.43 152.19 105.117 152.209 104.541 152.046C103.97 151.885 103.787 151.733 103.628 151.474C103.499 151.262 103.449 150.972 103.546 150.628C103.645 150.279 103.842 150.071 104.057 149.955C104.329 149.812 104.565 149.778 105.136 149.939C105.712 150.102 105.969 150.281 106.116 150.562C106.233 150.771 106.276 151.041 106.181 151.378Z" fill="black"/>
<path d="M106.012 144.341C106.229 143.936 106.553 143.739 106.798 143.677L106.948 143.641L106.968 142.754C106.92 142.728 106.871 142.73 106.825 142.739L106.774 142.746C106.336 142.835 105.696 143.186 105.289 143.949C104.809 144.851 104.876 145.703 105.693 146.138C106.002 146.303 106.31 146.316 106.594 146.221C106.911 146.115 107.187 145.892 107.462 145.505L107.905 144.891C108.063 144.673 108.28 144.446 108.541 144.586C108.792 144.719 108.843 145.062 108.584 145.547C108.331 146.022 107.938 146.258 107.621 146.35L107.513 146.374L107.492 147.261C107.54 147.287 107.57 147.282 107.63 147.273L107.804 147.229C108.278 147.111 108.869 146.761 109.327 145.902C109.912 144.803 109.547 143.998 108.938 143.673C108.623 143.506 108.313 143.471 108.019 143.56C107.699 143.658 107.39 143.904 107.098 144.31L106.671 144.905C106.455 145.208 106.274 145.317 106.066 145.206C105.858 145.095 105.776 144.784 106.012 144.341Z" fill="black"/>
<path d="M160.371 142.517C160.662 142.568 160.976 142.51 161.37 142.209L161.418 142.172C161.845 141.844 161.95 141.604 161.992 141.32C162.041 140.978 161.936 140.601 161.597 140.16L160.346 138.528L156.958 141.126L157.569 141.922L158.692 141.061L158.762 140.984L158.819 141.078L159.404 141.841C159.742 142.283 160.042 142.465 160.371 142.517ZM160.806 141.384C160.489 141.627 160.248 141.59 160.005 141.274L159.472 140.578L159.396 140.499L159.488 140.451L160.232 139.88L160.303 139.803L160.359 139.897L160.893 140.593C161.136 140.91 161.089 141.167 160.806 141.384Z" fill="black"/>
<path d="M164.47 147.842C164.906 147.633 165.062 147.412 165.153 147.154C165.278 146.799 165.253 146.382 164.987 145.825L164.124 144.019L160.272 145.86L160.705 146.766L162.031 146.132L162.116 146.071L162.152 146.175L162.376 146.644L161.401 148.222L161.899 149.265C161.942 149.244 161.962 149.214 161.993 149.166L162.946 147.558C163.359 148.098 163.897 148.116 164.47 147.842ZM164.039 146.955C163.712 147.112 163.47 147.026 163.3 146.671L162.894 145.82L162.836 145.727L162.936 145.699L163.733 145.319L163.818 145.258L163.854 145.361L164.261 146.213C164.43 146.567 164.328 146.817 164.039 146.955Z" fill="black"/>
<path d="M164.189 154.446L163.654 152.236L163.616 152.133L163.72 152.127L164.432 151.954L164.527 151.912L164.541 152.021L164.995 153.896L165.801 153.701L165.346 151.826L165.309 151.723L165.413 151.716L166.095 151.551L166.19 151.509L166.204 151.618L166.726 153.769L167.525 153.575L166.746 150.36L162.597 151.366L163.39 154.64L164.189 154.446Z" fill="black"/>
<path d="M165.844 160.465L163.782 160.489L163.794 161.487L168.063 161.436L168.049 160.251L165.66 159.245L165.66 159.209L168.024 158.141L168.01 156.925L163.74 156.976L163.752 157.961L165.814 157.937L166.473 157.899L166.473 157.947L165.793 158.222L164.247 158.881L164.255 159.558L165.816 160.181L166.503 160.445L166.503 160.493L165.844 160.465Z" fill="black"/>
<path d="M167.628 164.791L163.424 164.048L163.249 165.037L167.453 165.779L167.628 164.791Z" fill="black"/>
<path d="M166.174 170.804C166.418 170.134 166.355 169.564 166.136 169.124C165.902 168.652 165.58 168.335 164.818 168.058C164.017 167.766 163.524 167.793 163.034 168.026C162.592 168.232 162.199 168.623 161.965 169.265C161.725 169.924 161.783 170.473 161.985 170.907C162.211 171.401 162.571 171.738 163.372 172.03C164.133 172.307 164.582 172.278 165.064 172.067C165.517 171.865 165.929 171.475 166.174 170.804ZM162.783 169.563C162.899 169.245 163.094 169.046 163.311 168.945C163.592 168.809 163.906 168.814 164.468 169.018C165.025 169.221 165.197 169.387 165.337 169.656C165.449 169.878 165.477 170.171 165.355 170.506C165.231 170.847 165.019 171.04 164.797 171.139C164.514 171.262 164.276 171.278 163.719 171.075C163.157 170.871 162.914 170.673 162.788 170.382C162.686 170.165 162.663 169.893 162.783 169.563Z" fill="black"/>
<path d="M162.421 176.596C162.175 176.984 161.836 177.156 161.587 177.199L161.435 177.224L161.348 178.106C161.393 178.136 161.442 178.138 161.489 178.132L161.541 178.129C161.984 178.074 162.649 177.772 163.112 177.042C163.66 176.179 163.658 175.325 162.877 174.829C162.581 174.641 162.274 174.605 161.984 174.678C161.66 174.759 161.368 174.96 161.064 175.326L160.575 175.904C160.402 176.109 160.169 176.319 159.918 176.16C159.678 176.008 159.654 175.663 159.949 175.198C160.237 174.744 160.647 174.539 160.97 174.471L161.08 174.455L161.168 173.572C161.122 173.543 161.092 173.546 161.031 173.55L160.854 173.581C160.373 173.662 159.757 173.966 159.235 174.788C158.567 175.84 158.871 176.67 159.453 177.04C159.754 177.231 160.061 177.29 160.362 177.222C160.687 177.15 161.014 176.928 161.336 176.545L161.807 175.984C162.045 175.699 162.235 175.604 162.434 175.73C162.633 175.857 162.69 176.172 162.421 176.596Z" fill="black"/>
<path d="M128.04 184.967C131.439 184.274 134.105 184.064 138.695 184.126C144.414 184.204 144.988 184.131 147.439 183.009C150.344 181.679 150.388 181.556 149.635 176.962C149.276 174.777 149.319 174.639 150.81 173.233C152.528 171.613 152.779 170.123 151.688 168.013C151.319 167.3 150.595 166.606 150.08 166.471C149.564 166.336 149.143 165.845 149.143 165.379C149.143 164.913 148.368 163.868 147.421 163.057L145.698 161.581L147.865 161.564C149.706 161.549 150.266 161.311 151.599 159.979C153.39 158.188 155.079 153.671 154.317 152.711C153.862 152.138 153.609 150.66 152.87 144.265C152.662 142.466 152.182 140.551 151.804 140.011C151.425 139.471 149.122 137.171 146.686 134.9C143.236 131.685 141.964 130.772 140.934 130.772C140.207 130.772 138.742 130.465 137.678 130.089C136.148 129.55 134.815 129.487 131.304 129.788C127.472 130.118 126.556 130.368 124.594 131.619C123.345 132.417 122.085 133.069 121.795 133.069C121.504 133.069 120.906 133.467 120.466 133.954C119.247 135.3 118.638 138.099 118.247 144.151C118.178 145.215 117.351 147.061 115.957 149.263C114.757 151.158 113.775 152.936 113.775 153.213C113.775 153.49 114.282 154.049 114.902 154.455C115.699 154.977 116.032 155.62 116.041 156.648C116.047 157.347 116.858 157.925 116.872 158.405C116.878 158.599 116.641 158.777 116.444 158.94C116.113 159.185 116.196 159.439 116.227 159.79C116.308 160.548 116.44 160.821 116.791 161.113C117.268 161.508 117.381 162.135 117.174 163.236C116.814 165.155 117.734 166.346 120.55 167.606C122.154 168.324 122.501 168.701 122.496 169.721C122.483 172.213 122.016 172.993 120.348 173.306C119.245 173.513 117.871 174.47 115.879 176.418C113.579 178.668 113.114 179.191 112.982 180.631C112.956 180.917 113.36 180.931 113.349 181.309C113.336 181.721 112.928 182.424 112.955 182.78C113.017 183.591 113.173 184.195 113.377 184.321C114.271 184.873 118.958 185.769 121.282 185.831C122.505 185.864 125.546 185.475 128.04 184.967ZM116.393 184.529C114.027 184.07 113.393 183.393 114.169 182.151C114.599 181.461 114.629 181.049 114.272 180.692C113.376 179.796 113.747 179.03 115.666 177.819C116.706 177.163 117.656 176.243 117.779 175.775C117.987 174.977 120.039 173.948 121.423 173.948C122.624 173.948 122.065 175.751 120.633 176.491C118.968 177.352 116.564 179.879 116.545 180.789C116.515 182.206 121.836 180.948 130.679 177.448C141.551 173.144 140.993 173.295 142.262 174.323C144.347 176.011 141.77 177.453 135.872 177.898C130.113 178.333 129.746 179.204 135.448 178.905C139.151 178.712 140.209 178.467 142.521 177.267C147.385 174.741 148.566 174.843 145.776 177.547C144.084 179.187 140.24 180.838 138.114 180.838C137.359 180.838 136.741 181.071 136.741 181.356C136.741 182.68 144.944 179.931 146.664 178.03C147.591 177.006 148.684 176.892 148.684 177.82C148.684 179.264 146.56 180.631 142.483 181.812L139.727 182.61L141.606 182.643C142.84 182.664 144.464 182.186 146.341 181.248C147.912 180.463 149.309 179.933 149.446 180.069C149.946 180.57 148.975 181.418 146.675 182.489C143.711 183.869 139.807 183.937 134.643 182.699C128.763 181.289 126.746 181.163 122.987 181.968C121.107 182.371 119.505 182.764 119.427 182.842C119.348 182.92 121.427 182.889 124.046 182.772C129.86 182.514 130.799 183.177 126.117 184.234C122.712 185.003 119.367 185.104 116.393 184.529ZM117.909 180.006C117.909 179.529 120.061 177.563 121.679 176.56C122.835 175.844 122.932 175.538 123.057 172.228L123.191 168.666L125.488 168.381C128.27 168.036 131.067 166.909 132.531 165.544C133.783 164.376 135.582 161.087 134.969 161.087C134.742 161.087 134.309 161.683 134.008 162.411C132.801 165.325 129.59 167.101 125.34 167.204C122.284 167.279 120.068 166.738 118.876 165.627C118.01 164.82 117.894 164.374 118.152 162.846C118.4 161.377 118.296 160.905 117.61 160.398C116.263 159.403 117.426 158.533 119.252 159.169C119.671 159.315 120.071 159.717 120.28 159.747C120.697 159.806 120.665 159.306 120.665 158.794C120.665 157.759 119.906 157.164 119.632 157.984C119.486 158.421 119.115 158.444 118.1 158.08C116.984 157.679 116.785 157.379 116.905 156.283C117.011 155.313 116.735 154.716 115.855 154.008L114.661 153.049L116.991 149.375C118.686 146.701 119.25 145.411 119.058 144.638C118.877 143.903 119.306 142.737 120.453 140.849C121.364 139.349 122.288 138.121 122.506 138.121C122.724 138.121 123.368 138.948 123.935 139.959C124.503 140.969 125.137 141.796 125.343 141.796C125.549 141.796 125.718 142.323 125.718 142.968C125.718 143.881 126.086 144.293 127.39 144.838C128.31 145.223 129.551 145.415 130.146 145.265C131.14 145.016 131.23 145.136 131.232 146.725C131.234 147.679 131.645 149.074 132.148 149.834C133.248 151.495 133.332 153.079 132.34 153.459C131.182 153.904 130.77 153.789 130.77 153.022C130.77 152.628 130.563 152.434 130.311 152.59C129.554 153.058 129.79 154.596 130.77 155.576C131.275 156.081 131.689 156.686 131.689 156.921C131.689 157.155 132.032 157.69 132.452 158.11C133.045 158.703 133.672 158.804 135.271 158.565C137.143 158.284 137.297 158.332 136.984 159.098C136.794 159.56 136.533 161.308 136.403 162.982C136.195 165.659 136.285 166.143 137.149 167.007C137.69 167.548 138.455 168.798 138.85 169.785C139.245 170.773 139.863 171.694 140.222 171.832C141.525 172.332 140.821 173.02 138.234 173.772C136.782 174.194 133.423 175.459 130.77 176.583C128.118 177.707 124.83 179.021 123.464 179.503C120.92 180.4 117.909 180.673 117.909 180.006ZM120.939 153.16C121.043 151.907 120.519 151.357 119.984 151.152C119.083 150.806 118.697 151.163 119.102 151.687C119.195 151.808 119.563 151.757 119.765 151.85C120.85 152.787 120.178 154.606 118.8 154.318C118.171 154.16 117.45 153.897 117.45 154.112C117.45 154.836 118.096 155.159 119.27 155.022C120.256 154.907 120.819 154.621 120.939 153.16ZM122.976 150.408C122.984 150.092 123.288 149.442 123.651 148.962C124.177 148.266 124.445 148.201 124.973 148.64C125.455 149.039 125.722 149.05 125.952 148.677C126.327 148.07 126.442 148.163 123.995 147.099C122.921 146.632 122.043 145.974 122.043 145.636C122.043 145.191 122.766 145.347 124.684 146.208C128.595 147.962 128.86 147.988 127.096 146.443C126.564 145.978 126.021 145.526 125.508 145.266C125.167 145.093 124.799 145.026 124.605 145.023C124.12 145.017 123.353 144.677 122.901 144.268C122.595 143.99 122.355 143.748 121.969 143.688C121.673 143.642 121.247 143.733 120.913 143.817C119.638 144.137 119.311 145.011 120.466 145.011C120.977 145.011 121.05 145.02 120.843 145.672C120.805 145.79 120.609 145.918 120.469 146.021C120.253 146.357 120.648 146.362 120.938 146.395C121.269 146.488 121.667 146.81 121.665 147.062C121.661 147.88 121.815 148.5 122.731 149.051C122.989 149.206 122.698 149.382 122.317 149.611C120.746 150.049 123.265 151.829 122.976 150.408ZM143.222 174.116C142.404 173.542 142.232 173.036 142.344 171.53C142.42 170.499 142.739 169.572 143.053 169.469C143.463 169.334 143.543 169.683 143.336 170.716C143.115 171.822 143.281 172.398 144.064 173.231C145.267 174.512 144.676 175.134 143.222 174.116ZM144.642 173.397C143.245 172.001 144.429 170.841 146.412 171.662C147.538 172.129 147.948 172.097 148.911 171.466C150.247 170.591 150.416 169.141 149.258 168.488C147.996 167.776 149.183 166.802 150.472 167.492C152.061 168.342 151.917 170.948 150.194 172.495C149.019 173.55 148.201 173.607 146.157 172.773C145.34 172.44 145.308 172.484 145.869 173.173C146.405 173.833 146.402 173.948 145.846 173.948C145.487 173.948 144.945 173.7 144.642 173.397ZM147.306 170.828C147.306 170.585 147.64 170.109 148.048 169.771C148.69 169.238 148.767 169.272 148.622 170.021C148.449 170.913 147.306 171.614 147.306 170.828ZM139.908 168.914C139.493 167.53 139.489 166.469 139.889 164.474C140.725 160.313 140.498 159.072 139.479 162.236C138.991 163.751 138.582 165.405 138.571 165.91L138.549 166.829L137.839 165.91C137.315 165.233 137.191 164.328 137.366 162.465C137.783 158.033 138.597 152.189 138.829 151.957C139.405 151.381 140.205 153.105 140.463 155.48C140.681 157.486 140.829 157.86 141.094 157.073C141.679 155.329 142.253 156.413 142.253 159.263C142.253 161.748 142.37 162.065 143.631 162.997C144.797 163.859 145.009 164.326 145.009 166.024C145.009 167.245 145.189 167.92 145.468 167.748C145.721 167.591 145.928 166.685 145.928 165.734C145.928 164.483 145.61 163.705 144.781 162.926C142.885 161.145 143.914 161.291 146.146 163.12C147.864 164.528 148.224 165.092 148.224 166.374C148.224 168.526 146.767 169.575 145.029 168.676C143.982 168.135 143.835 167.811 143.999 166.403C144.259 164.178 143.783 164.329 143.152 166.673C142.595 168.743 141.462 170.733 140.841 170.733C140.627 170.733 140.208 169.915 139.908 168.914ZM145.009 170.274C145.009 170.021 145.216 169.815 145.468 169.815C145.721 169.815 145.928 170.021 145.928 170.274C145.928 170.526 145.721 170.733 145.468 170.733C145.216 170.733 145.009 170.526 145.009 170.274ZM146.722 160.586C145.602 159.934 146.194 159.184 147.558 159.527C148.284 159.709 149.257 159.462 150.344 158.821C151.263 158.278 152.121 157.942 152.252 158.072C152.865 158.685 149.541 161.106 148.132 161.073C147.804 161.066 147.169 160.846 146.722 160.586ZM142.972 158.139C142.804 157.023 142.368 155.861 142.001 155.557C141.634 155.253 141.334 154.503 141.334 153.891C141.334 153.279 140.838 152.281 140.231 151.674C139.599 151.043 138.985 149.724 138.795 148.594C138.601 147.437 137.92 145.997 137.15 145.118C135.43 143.152 135.113 141.717 135.942 139.638L136.62 137.938L138.293 139.752C139.319 140.865 140.5 142.986 141.349 145.241C142.11 147.262 142.976 149.329 143.274 149.834C145.577 153.737 145.974 155.824 144.964 158.722C144.24 160.8 143.331 160.535 142.972 158.139ZM146.846 158.317C146.846 157.82 147.177 157.669 149.277 157.208C150.1 157.027 151.086 156.176 152.033 154.828C153.278 153.055 153.529 152.878 153.653 153.692C153.734 154.222 153.375 155.252 152.855 155.982C151.546 157.82 146.846 159.647 146.846 158.317ZM133.373 157.107C132.833 156.567 133.04 156.194 134.164 155.682C134.946 155.326 135.521 154.379 136.17 152.376C137.241 149.068 136.561 148.856 135.325 152.112C134.421 154.494 133.834 155.098 132.412 155.109C131.582 155.116 131.591 155.049 132.562 154.017C133.155 153.385 133.886 151.639 134.28 149.914C135.141 146.138 136.009 145.264 137.308 146.863C138.125 147.869 138.194 148.409 137.924 151.668C137.569 155.953 136.818 157.413 134.97 157.413C134.26 157.413 133.541 157.275 133.373 157.107ZM146.387 156.56C146.387 156.289 146.852 155.828 147.421 155.536C149.364 154.536 150.98 152.678 150.98 151.443C150.98 150.781 151.286 149.838 151.661 149.348C152.251 148.574 152.404 148.547 152.821 149.145C153.851 150.622 152.448 153.891 150.033 155.641C148.616 156.668 146.387 157.23 146.387 156.56ZM145.973 153.623C145.695 152.875 145.825 152.288 146.447 151.495C146.919 150.892 147.306 149.927 147.306 149.35C147.306 148.773 147.661 147.682 148.095 146.926C148.865 145.583 148.852 145.488 147.52 142.756C146.771 141.219 145.999 139.96 145.805 139.96C145.611 139.959 145.973 140.985 146.609 142.24C147.934 144.856 148.054 146.037 147.076 146.848C146.697 147.163 146.38 147.86 146.372 148.397C146.364 148.935 146.046 149.787 145.665 150.291C144.905 151.297 144.809 151.224 143.361 148.548C142.717 147.359 142.74 147.143 143.657 145.658C144.348 144.54 144.56 143.676 144.355 142.809C144.193 142.126 144 140.707 143.926 139.656C143.853 138.606 143.429 137.193 142.986 136.516C141.953 134.94 141.517 135.331 142.395 137.045C143.363 138.933 143.884 144.801 143.125 145.269C142.797 145.473 142.465 145.418 142.375 145.147C142.286 144.879 141.483 143.448 140.591 141.966C139.431 140.04 139.037 138.927 139.211 138.062C139.352 137.352 139.106 136.169 138.615 135.207C137.645 133.304 137.886 132.715 139.163 133.872C140.013 134.641 142.253 135.041 142.253 134.424C142.253 133.827 140.459 132.529 140.013 132.804C139.76 132.961 138.868 132.672 138.032 132.162C136.423 131.181 134.445 130.921 134.445 131.691C134.445 131.943 134.961 132.15 135.593 132.15C136.662 132.15 136.94 132.536 136.79 133.811C136.756 134.093 137.042 134.584 137.424 134.901C138.172 135.522 138.394 138.121 137.699 138.121C137.467 138.121 136.623 137.295 135.823 136.284C135.022 135.273 134.142 134.447 133.867 134.447C133.591 134.447 133.815 134.925 134.365 135.51C135.516 136.735 135.672 138.908 134.702 140.215C134.138 140.976 133.903 141.022 133.095 140.529C132.246 140.011 132.148 140.06 132.148 141.001C132.148 143.102 129.892 144.969 128.439 144.071C127.958 143.774 127.97 143.551 128.503 142.909C128.928 142.397 129.172 140.993 129.189 138.966C129.221 135.049 128.572 135.449 128.383 139.463C128.242 142.447 127.305 143.845 126.783 141.849C126.645 141.32 126.36 140.994 126.151 141.123C125.503 141.523 123.421 137.442 123.421 135.772C123.421 133.866 123.767 132.985 125.835 131.707C127.101 130.924 127.286 130.794 132.031 130.313C134.671 130.313 136.767 130.562 137.819 131.002C138.726 131.381 140.182 131.691 141.054 131.691C142.335 131.691 142.796 132.261 144.205 133.518C145.192 134.398 146.735 136.083 147.917 136.985C151.6 139.797 152.874 144.085 151.21 148.068C150.831 148.974 150.521 150.125 150.521 150.625C150.521 151.592 147.751 154.657 146.877 154.657C146.591 154.657 146.184 154.192 145.973 153.623ZM127.944 135.361C129.131 133.756 128.613 133.514 127.217 135.021C126.213 136.104 125.998 136.985 126.181 139.27C126.277 140.458 126.336 140.378 126.61 138.691C126.785 137.616 127.386 136.117 127.944 135.361ZM132.689 149.247C132.315 148.58 132.175 147.164 132.302 145.343C132.48 142.804 132.618 142.468 133.537 142.33C135.447 142.043 136.007 144.655 134.491 146.784C134.011 147.457 133.541 148.523 133.447 149.151L133.276 150.293L132.689 149.247ZM119.287 139.297C119.287 138.933 119.494 138.507 119.746 138.351C119.999 138.195 120.206 137.549 120.206 136.916C120.206 135.4 120.989 133.987 121.829 133.987C122.904 133.987 122.629 136.112 121.293 138.131C120.047 140.014 119.287 140.456 119.287 139.297Z" fill="black"/>
<defs>
<linearGradient id="paint0_linear_2689_14152" x1="135.067" y1="148.459" x2="-384.797" y2="148.459" gradientUnits="userSpaceOnUse">
<stop stop-color="white"/>
<stop offset="1" stop-color="#CCCCCC"/>
</linearGradient>
</defs>
</svg>
