<svg width="208" height="319" viewBox="0 0 208 319" fill="none" xmlns="http://www.w3.org/2000/svg">
<path d="M192.5 0.5H15.5C7.21573 0.5 0.5 7.21573 0.5 15.5V303.5C0.5 311.784 7.21573 318.5 15.5 318.5H192.5C200.784 318.5 207.5 311.784 207.5 303.5V15.5C207.5 7.21573 200.784 0.5 192.5 0.5Z" fill="url(#paint0_linear_2689_17874)" stroke="black" stroke-linecap="square"/>
<path d="M133.667 15H193V304H133.667M74.3333 304H15V15H74.3333" stroke="black"/>
<path d="M21.1695 21.4252C20.8913 21.4252 20.3347 21.5952 19.5 21.9353V21.6107L23.6738 19.5005L23.8595 19.5469V33.4599C23.8593 34.0165 23.9986 34.3798 24.2768 34.5498C24.5551 34.7199 25.1502 34.8127 26.0623 34.8281V35.1759H19.6622V34.8281C20.528 34.7972 21.1076 34.6735 21.4013 34.4571C21.7105 34.2252 21.8651 33.746 21.8651 33.0194V22.5151C21.8651 21.7885 21.6333 21.4252 21.1695 21.4252Z" fill="black"/>
<path d="M38.1203 33.2745C37.1618 34.7585 35.8941 35.5005 34.3173 35.5005C32.7406 35.5005 31.4729 34.743 30.5144 33.2281C29.556 31.7131 29.0767 29.7652 29.0767 27.3846C29.0767 25.143 29.556 23.2725 30.5144 21.773C31.4729 20.258 32.7714 19.5005 34.4101 19.5005C35.9251 19.5005 37.1618 20.2426 38.1203 21.7266C39.0788 23.2107 39.5579 25.143 39.5579 27.5237C39.5579 29.8735 39.0788 31.7904 38.1203 33.2745ZM34.3406 20.1034C32.3154 20.1034 31.3028 22.6 31.3028 27.5932C31.3028 32.4628 32.3076 34.8977 34.3173 34.8977C36.3269 34.8977 37.3318 32.4551 37.3318 27.5701C37.3318 25.1431 37.0767 23.2957 36.5666 22.0281C36.0565 20.745 35.3144 20.1034 34.3406 20.1034Z" fill="black"/>
<path d="M186.83 297.575C187.109 297.575 187.665 297.405 188.5 297.065V297.39L184.326 299.5L184.141 299.454V285.541C184.141 284.984 184.001 284.621 183.723 284.451C183.445 284.281 182.85 284.188 181.938 284.172V283.825H188.338V284.172C187.472 284.203 186.892 284.327 186.599 284.543C186.29 284.775 186.135 285.254 186.135 285.981V296.485C186.135 297.212 186.367 297.575 186.83 297.575Z" fill="black"/>
<path d="M169.88 285.726C170.838 284.242 172.106 283.5 173.683 283.5C175.259 283.5 176.527 284.257 177.486 285.772C178.444 287.287 178.923 289.235 178.923 291.616C178.923 293.857 178.444 295.728 177.486 297.228C176.527 298.742 175.229 299.5 173.59 299.5C172.075 299.5 170.838 298.758 169.88 297.274C168.921 295.79 168.442 293.857 168.442 291.477C168.442 289.127 168.921 287.21 169.88 285.726ZM173.659 298.897C175.685 298.897 176.697 296.4 176.697 291.407C176.697 286.538 175.692 284.103 173.683 284.103C171.673 284.103 170.668 286.545 170.668 291.43C170.668 293.857 170.923 295.705 171.433 296.972C171.944 298.256 172.686 298.897 173.659 298.897Z" fill="black"/>
<path d="M114.413 145.253L119.38 142.769L128.487 156.015L134.696 174.229L128.28 181.266L113.792 175.057L114.413 145.253Z" fill="#800000" stroke="black" stroke-width="0.296049"/>
<path d="M108.204 122.486L111.309 127.867C111.309 127.867 122.382 131.489 130.661 130.765C130.661 130.765 138.008 124.038 134.593 104.375L132.834 102.72C132.834 102.72 118.242 110.688 108.825 119.691L107.79 121.347L108.204 122.486Z" fill="#FFD42A"/>
<path d="M135.11 53.7711C123.002 43.5259 114.103 50.563 114.103 50.563L110.895 47.7689C110.895 47.7689 115.241 37.0063 128.901 40.2144C128.901 40.2144 138.008 43.5259 135.11 53.7711Z" fill="#FF2A2A"/>
<path d="M121.554 39.3865C121.554 39.3865 123.106 36.5923 125.486 37.1098L125.59 35.454L126.107 34.6261L129.005 34.7296L131.592 36.2819C131.592 36.2819 136.352 34.6261 136.87 33.1773C136.87 33.1773 142.147 32.8668 143.907 35.5575C143.907 35.5575 147.115 43.5259 152.6 39.5935L152.496 36.4888L151.358 32.5564L154.255 33.1773L151.875 30.1762V28.9344L154.255 29.5553C154.255 29.5553 154.669 31.0041 157.67 31.211L156.739 28.21C156.739 28.21 158.291 30.4866 161.189 29.9692C161.189 29.9692 164.604 32.7633 164.708 36.4888C164.708 36.4888 167.812 35.247 168.33 39.49C168.33 39.49 168.33 44.9747 166.57 45.4922L167.295 50.149L163.673 46.6305L164.604 45.9061L163.569 44.9747L164.501 42.905L162.741 41.0423L162.845 43.7329L161.189 45.5956L162.12 48.3898L159.947 46.734L158.498 46.527L157.877 45.1817L156.636 47.8724L155.704 48.3898L154.462 50.149L153.117 50.77L151.358 52.1153L150.633 51.4944L147.322 52.4257L148.15 50.356L146.494 47.4584C146.494 47.4584 144.528 50.77 143.389 50.8735L139.871 49.9421L139.457 48.5968L140.802 48.8037L141.734 47.9758L142.768 44.8712L139.25 45.4922L137.698 44.2503L135.11 43.3189L133.869 44.2503C133.869 44.2503 132.627 38.869 121.554 39.3865Z" fill="#5599FF"/>
<path d="M112.964 77.0552C112.964 77.0552 117.518 79.8494 118.553 83.1609L135.11 83.4714C135.11 83.4714 134.593 77.7796 132.627 75.1925L130.66 65.6717L130.143 64.6369C130.143 64.6369 126.418 57.9102 126.831 52.0115C126.831 52.0115 126.211 48.079 122.175 48.079C122.175 48.079 115.551 48.493 114.206 50.3557L110.895 47.8721C110.895 47.8721 106.859 57.7033 112.654 67.9484C112.654 67.9484 114.31 72.1913 118.242 72.5018L117.311 73.5367L117.207 75.5029C117.207 75.5029 113.792 75.9169 112.964 77.0552Z" fill="#F4E3D7"/>
<path d="M124.141 48.0791C124.141 48.0791 126.935 50.4593 126.832 51.9081C126.832 51.9081 127.763 62.0498 129.729 63.809L132.109 67.1206L131.281 71.3635L131.488 72.3984L135.317 71.1566H136.249L138.008 71.7775H139.353L140.078 73.1228L142.354 72.8123L144.114 70.2252L143.286 68.3624L141.837 66.0857L140.906 66.1892C140.906 66.1892 141.734 62.3602 138.525 60.6009L137.905 60.4975C137.905 60.4975 138.629 56.565 137.077 55.7371C137.077 55.7371 131.799 49.7349 124.141 48.0791Z" fill="#FFDD55"/>
<path d="M109.549 55.9443C109.549 55.9443 107.479 58.5315 108.307 61.4291C108.307 61.4291 106.652 64.6372 108.204 67.5348L107.893 69.501L107.686 71.4673C107.686 71.4673 107.686 74.6754 109.446 74.2614L112.24 73.2266L114.62 73.8475L118.759 72.6056C118.759 72.6056 111.101 73.0196 109.549 55.9443Z" fill="#FFDD55"/>
<path d="M109.135 77.0552C109.135 77.0552 116.483 81.8156 118.035 85.4376L138.008 85.7481C138.008 85.7481 135.731 76.9517 134.282 74.4681L131.902 73.7437L131.695 75.296C131.695 75.296 134.179 76.2273 135.214 83.4714L118.759 83.1609C118.759 83.1609 114.103 76.5378 111.101 76.1238C111.101 76.1238 109.135 75.6064 109.135 77.0552Z" fill="#FFE680"/>
<path d="M102.202 79.5388C102.202 79.5388 111.826 85.6445 113.378 91.5432L144.942 91.3362C144.942 91.3362 142.561 80.1597 139.767 76.8482L137.077 75.1924C137.077 75.1924 140.388 79.8493 141.941 89.0595L114.517 88.6456C114.517 88.6456 110.481 80.6771 104.685 78.09C104.685 78.09 101.891 77.4691 102.202 79.5388Z" fill="#FFE680"/>
<path d="M105.306 78.1939C105.306 78.1939 107.79 77.0556 109.342 77.1591C109.342 77.1591 117.207 82.2299 118.242 85.5414L138.112 85.8519C138.112 85.8519 135.938 76.1242 134.49 74.9858L137.801 75.5033C137.801 75.5033 140.802 81.9194 141.734 88.9565L114.103 88.5426C114.103 88.5426 110.791 81.402 105.306 78.1939Z" fill="#FF2A2A"/>
<path d="M148.977 122.9C154.048 113.483 133.144 100.133 133.144 100.133C119.587 104.065 106.548 118.864 106.548 118.864C106.548 118.864 104.478 112.758 104.685 111.62C104.685 111.62 102.098 107.791 101.891 102.824C101.891 102.824 95.268 110.689 89.7832 110.792C89.7832 110.792 86.9891 123.521 83.6775 126.729C83.6775 126.729 84.4019 131.075 81.8148 132.835L81.1939 142.562C81.1939 142.562 77.3649 156.223 77.4684 166.675L77.0544 170.4L74.8812 172.366L76.4335 137.285L77.1579 127.557C77.1579 127.557 76.6405 101.375 74.6742 94.6482C74.6742 94.6482 73.7429 92.5784 68.3616 90.1983C68.3616 90.1983 71.8801 86.6797 76.537 89.7843C76.537 89.7843 79.1241 87.5076 83.0566 89.0599C83.0566 89.0599 87.5065 85.9553 89.2658 86.3693C89.2658 86.3693 93.0948 80.781 99.2005 81.6089L102.305 79.9531C102.305 79.9531 110.791 83.9891 113.482 91.3366L144.734 91.4401C144.734 91.4401 141.319 78.0903 139.664 76.4346C139.664 76.4346 142.665 76.952 142.872 78.7113C142.872 78.7113 144.941 78.9182 145.666 80.574C145.666 80.574 156.635 82.1263 157.36 98.5806C157.36 98.5806 163.362 105.307 163.362 109.654C163.362 109.654 171.123 114.518 169.675 124.245L168.95 151.669L167.398 170.814L166.777 189.752L165.328 199.79L164.086 208.069L162.741 212.726L161.81 200.929L161.706 188.096L160.982 175.057L160.671 159.017L159.533 131.8C159.533 131.8 156.014 121.037 148.977 122.9Z" fill="#AAD400"/>
<path d="M108.1 122.279C108.1 122.279 112.033 121.658 113.275 122.486C113.275 122.486 110.791 112.965 119.277 118.243L120.105 119.588C120.105 119.588 119.277 112.551 120.519 110.792C120.519 110.792 114.31 113.069 107.583 121.037L108.1 122.279Z" fill="#2A7FFF"/>
<path d="M121.036 110.067C121.036 110.067 124.969 108.722 127.866 112.448C127.866 112.448 127.245 105.203 133.868 103.755L132.834 103.03C132.834 103.03 122.381 107.687 121.036 110.067Z" fill="#2A7FFF"/>
<path d="M136.87 106.342C136.87 106.342 139.457 124.555 133.041 130.351C133.041 130.351 141.733 129.523 147.839 124.762C153.634 118.967 136.87 106.342 136.87 106.342Z" fill="#2A7FFF"/>
<path d="M149.081 122.693C148.977 115.035 132.834 103.548 132.834 103.548C120.933 107.584 107.79 121.348 107.79 121.348L106.341 118.346C106.341 118.346 122.071 101.789 133.454 100.236C133.454 100.236 153.634 113.483 149.081 122.693Z" fill="#FFD42A"/>
<path d="M134.489 104.376C134.489 104.376 137.594 123.935 130.971 130.765H132.73C132.73 130.765 139.353 126.315 137.077 106.342L134.489 104.376Z" fill="#FFD42A"/>
<path d="M112.654 159.431C118.035 160.465 118.139 157.878 118.139 157.878C121.036 155.602 116.69 148.771 116.69 148.771C117.725 144.322 114.62 136.457 114.62 136.457C132.006 142.459 146.287 134.697 146.287 134.697L147.322 130.972C146.494 127.971 150.84 123.935 150.84 123.935L150.426 123.624L151.151 122.796L149.495 122.9C135.731 137.388 110.791 127.557 110.791 127.557L110.274 130.04C110.274 130.04 115.448 129.937 113.482 135.422C113.482 135.422 113.585 140.182 108.928 139.561C108.928 139.561 107.066 143.08 105.72 139.665L105.824 138.733C105.824 138.733 103.651 138.319 103.651 137.905C103.651 137.905 100.339 143.08 97.3379 144.115C97.3379 144.115 95.2682 145.874 93.4054 146.391C93.4054 146.391 93.4054 149.91 91.5427 151.566C91.5427 151.566 83.3673 157.878 92.3706 169.883L92.9915 169.676C92.9915 169.676 93.7159 158.292 96.0961 156.119C96.0961 156.119 98.3728 162.328 105.099 159.741L105.617 159.12C105.617 159.12 107.376 162.846 112.654 159.431Z" fill="#FFD42A"/>
<path d="M103.03 131.179C103.03 131.179 104.685 126.729 108.721 130.661C108.721 130.661 111.826 128.695 113.068 130.972C113.068 130.972 115.137 133.145 113.068 136.87C113.068 136.87 112.033 139.561 108.825 139.457L107.273 141.424L106.031 140.492L105.824 138.733C105.824 138.733 102.409 139.457 103.03 131.179Z" fill="#AAD400"/>
<path d="M103.133 130.765C103.133 130.765 100.029 127.453 95.8891 131.386C95.8891 131.386 91.7497 130.247 90.9218 133.352C90.9218 133.352 85.5405 136.249 89.3695 139.871C89.3695 139.871 86.8858 146.495 92.9915 146.702L95.8891 145.149L98.3728 143.39L103.961 137.698C103.961 137.698 102.098 133.352 103.133 130.765Z" fill="#FF2A2A"/>
<path d="M154.255 152.394C154.566 145.977 152.393 141.528 152.393 141.528L151.979 142.045L151.047 142.355L150.737 140.907L152.186 137.699L148.874 139.872C147.218 139.872 148.564 138.319 148.564 138.319C145.252 138.526 147.529 135.422 147.529 135.422H147.218L142.665 140.7C140.285 139.872 138.318 137.492 138.318 137.492L134.903 138.216L126.521 138.423L126.314 145.977C121.036 147.012 115.034 138.63 115.034 138.63C115.034 138.63 117.414 143.08 117 145.564L122.278 148.461C122.278 148.461 124.969 168.331 121.036 172.47C121.036 172.47 123.83 177.437 128.901 173.194C128.901 173.194 133.248 169.158 132.523 160.776C132.523 160.776 134.696 160.88 136.145 159.638L135.835 149.082C135.835 149.082 141.423 146.702 142.768 145.046L147.011 146.805C147.011 146.805 150.426 155.809 148.564 161.086C148.564 161.086 150.012 169.469 146.287 172.677L144.631 174.747L149.909 175.885L155.497 170.09C155.497 170.09 156.325 155.395 154.255 152.394Z" fill="#FFD42A"/>
<path d="M126.521 146.081C119.38 147.116 114.206 136.25 114.206 136.25C114.206 136.25 123.623 138.526 126.314 138.63L126.521 146.081Z" fill="#0066FF"/>
<path d="M138.525 137.388L146.08 134.904C146.08 134.904 146.804 135.732 148.357 135.422C148.357 135.422 145.252 136.353 142.665 140.7C142.665 140.7 138.732 139.044 138.525 137.388Z" fill="#2A7FFF"/>
<path d="M144.941 174.229C150.219 170.297 148.46 160.776 148.46 160.776C150.116 155.395 146.908 147.012 146.908 147.012L142.354 145.253L139.146 147.116C139.146 147.116 143.182 166.985 138.111 172.78C138.111 172.78 141.009 177.437 145.148 165.64C145.148 165.64 145.355 171.228 142.872 173.608C142.872 173.608 142.768 174.85 144.941 174.229Z" fill="#2A7FFF"/>
<path d="M117.828 150.117L120.415 147.943L122.382 148.461C122.382 148.461 124.969 170.503 117.828 174.539C117.828 174.539 113.171 174.022 111.309 174.85L111.516 160.258L112.861 159.223C112.861 159.223 117.311 160.776 118.76 156.533C118.76 156.533 119.174 151.876 117.828 150.117Z" fill="#5599FF"/>
<path d="M101.788 160.362L102.719 163.881H101.581L101.167 168.744L100.028 170.504L99.8215 176.92L101.27 177.23L101.581 175.678L102.512 175.471L102.926 174.229L103.857 173.712C103.857 173.712 106.652 173.401 105.306 159.534C104.478 160.362 101.788 160.362 101.788 160.362Z" fill="#2A7FFF"/>
<path d="M104.789 180.956C104.789 180.956 110.584 177.955 115.551 178.162L115.448 211.381L113.171 243.048L111.412 267.677C111.412 267.677 109.653 266.849 108.1 269.333C108.1 269.333 107.065 262.089 108.307 258.777C108.307 258.777 102.926 238.184 103.547 232.285C103.547 232.285 104.375 222.971 107.065 219.453L107.79 217.693C107.79 217.693 107.583 210.139 109.239 209.207C109.239 209.207 102.409 188.821 104.789 180.956Z" fill="#5599FF"/>
<path d="M148.771 179.921C139.56 175.885 130.557 179.093 130.557 179.093L130.454 177.437C132.316 176.816 131.178 174.022 131.178 174.022C130.35 174.747 129.833 175.782 128.694 175.782C127.659 175.782 128.901 173.091 128.901 173.091C132.937 169.572 132.213 161.086 132.213 161.086L136.145 159.845L135.938 151.669L135.524 149.393L139.25 147.426C139.25 147.426 144.321 170.193 136.559 173.815L138.629 172.884C138.629 172.884 137.698 174.229 141.113 173.401L145.149 166.778C145.149 166.778 144.631 172.16 142.872 173.608L143.286 174.333L149.495 176.092C149.495 176.092 149.185 179.714 148.771 179.921Z" fill="#FF2A2A"/>
<path d="M102.098 160.672L102.409 163.052L101.477 163.777L101.27 169.261L99.8216 170.503V189.959C99.8216 189.959 100.546 181.68 98.0623 181.576L91.4392 187.579C91.4392 187.579 91.4392 172.159 92.4741 170.296L93.095 169.675C93.095 169.675 94.0264 158.085 96.0961 156.326C96.0961 156.326 97.7519 160.155 102.098 160.672Z" fill="#FF2A2A"/>
<path d="M91.4392 187.786C91.4392 187.786 98.0623 177.748 99.4076 183.439L99.6146 190.89L97.9588 192.236L97.131 192.65L95.5787 193.995L94.9577 193.685L93.6124 194.512L92.888 194.616L91.7497 194.926L91.4392 187.786Z" fill="#FFD42A"/>
<path d="M105.513 159.224C105.513 159.224 107.066 162.328 111.826 160.052L111.619 174.954C111.619 174.954 124.141 172.366 130.247 179.3L129.108 182.405C129.108 182.405 121.968 174.126 104.479 180.956C104.479 180.956 101.684 180.024 102.202 178.265L101.063 177.334C101.063 177.334 101.477 176.506 101.477 175.885L102.719 175.368V174.229L104.065 173.815C104.065 173.815 106.238 170.4 105.617 163.777L105.41 162.432L105.513 159.224Z" fill="#FF2A2A"/>
<path d="M155.503 170.251L157.699 187.667L157.845 195.277L159.601 205.082L162.528 212.985L162.235 197.033L161.065 177.129L159.455 131.028L158.284 128.394C158.284 128.394 157.845 134.248 154.186 136.443C154.186 136.443 156.089 139.078 152.137 142.005C152.137 142.005 155.503 146.395 154.186 154.006C154.186 154.006 156.381 153.567 155.503 170.251Z" fill="#445016"/>
<path d="M124.77 199.374C127.989 194.106 129.16 182.544 129.16 182.544C124.623 178.3 115.696 178.3 115.696 178.3L115.842 209.765L115.257 215.034L113.647 241.231L111.305 267.574C111.305 267.574 114.964 269.477 114.964 274.892L115.696 273.867L116.135 265.379C116.135 265.379 115.11 260.11 116.135 256.598C116.135 256.598 119.94 243.865 119.647 241.524C119.647 241.524 124.916 233.913 122.282 222.059L121.842 218.986C121.842 218.986 123.16 217.083 123.16 212.546C123.16 212.546 122.282 203.765 124.77 199.374Z" fill="#FF2A2A"/>
<path d="M138.966 178.007C138.966 178.007 145.698 177.276 148.478 180.056C148.478 180.056 145.551 201.131 141.6 207.863C141.6 207.863 140.868 216.059 139.258 217.376C139.258 217.376 139.551 238.743 135.892 244.012C135.892 244.012 133.112 256.013 134.136 261.721C134.136 261.721 131.648 264.062 131.794 269.331L127.111 268.746L128.721 250.891L132.087 214.303C132.087 214.303 134.282 206.253 134.136 202.302C134.136 202.302 140.283 189.13 138.966 178.007Z" fill="#FF2A2A"/>
<path d="M138.234 186.35C139.112 182.544 138.966 177.715 138.966 177.715L130.331 179.325L129.014 182.252C129.014 182.252 128.867 194.838 125.209 198.936C125.209 198.936 128.575 208.449 125.501 213.571L122.282 221.913C122.282 221.913 124.77 234.06 121.257 238.597L123.306 243.134C123.306 243.134 122.867 247.086 123.599 251.183L124.038 254.989L124.184 258.794L124.623 261.282V266.111C124.623 266.111 125.648 268.892 127.404 268.307L127.55 259.965L129.892 238.158L131.648 215.035L131.794 213.278C131.794 213.278 134.282 205.814 134.136 203.326V202.009C134.136 202.009 138.38 190.447 138.234 186.35Z" fill="#AAAAFF"/>
<path d="M107.687 269.436C107.687 269.436 113.482 262.813 114.62 274.714L115.241 275.232L112.55 281.751L111.309 284.028C111.309 284.028 107.997 287.236 106.238 287.236C106.238 287.236 103.133 290.444 101.063 289.616C101.063 289.616 98.1659 289.823 98.3728 287.546L99.0972 285.477L99.3042 282.786C99.3042 282.786 97.131 282.269 98.2693 280.716C98.2693 280.716 100.753 277.922 102.098 277.819L103.961 275.232L107.687 269.436Z" fill="#AAD400"/>
<path d="M138.318 268.919C139.664 269.126 143.182 273.059 143.182 273.059C145.459 273.265 147.115 274.714 147.115 274.714C149.495 275.439 151.875 277.715 151.875 277.715L150.219 278.75C146.597 280.716 143.596 279.268 143.596 279.268C139.767 280.406 136.249 277.612 136.249 277.612C132.316 274.714 128.28 275.335 128.28 275.335C124.555 275.853 123.209 273.886 123.209 273.886C120.726 270.782 124.244 266.125 124.244 266.125C124.244 266.125 126.314 269.85 131.178 268.816C131.178 268.816 132.834 261.778 134.593 261.882C134.593 261.882 138.836 265.711 138.318 268.919Z" fill="#AAD400"/>
<path d="M119.281 124.808L120.598 125.394L119.72 122.686C119.72 122.686 117.891 120.418 116.501 120.125L115.549 121.296C115.549 121.296 116.647 123.272 117.598 123.93L119.281 124.808Z" fill="#FF8080"/>
<path d="M123.672 118.222L127.038 120.491C127.038 120.491 126.818 117.198 125.94 115.369C125.94 115.369 124.989 113.685 123.086 113.905L122.062 114.637L122.428 116.539L123.672 118.222Z" fill="#FF2A2A"/>
<path d="M135.16 117.125C135.16 117.125 131.355 112.002 131.428 110.319C131.428 110.319 131.428 105.782 134.794 108.197L135.16 117.125Z" fill="#FF2A2A"/>
<path d="M75.1563 125.321C69.0095 117.71 71.0584 109.222 71.0584 109.222L65.4971 104.832L66.5215 127.077L66.6679 133.956L68.7168 142.444L69.8876 148.298L71.4975 158.104L72.2293 161.762L73.4001 165.275C73.4001 165.275 72.6683 170.836 74.8636 172.007L76.9125 133.517C76.9125 133.517 77.7906 128.394 75.1563 125.321Z" fill="#FFD42A"/>
<path d="M76.6196 112.003C74.5707 112.003 70.9119 108.929 70.9119 108.929C70.9119 108.929 69.7411 119.027 75.1561 125.174L76.9123 128.687C76.9123 128.687 77.6441 114.491 76.6196 112.003Z" fill="#445016"/>
<path d="M64.4726 87.269C64.4726 87.269 72.6683 93.5622 74.8636 94.4403L76.6198 112.002C76.6198 112.002 59.0576 102.49 53.3499 88.1472L64.4726 87.269Z" fill="#FF2A2A"/>
<path d="M42.9589 84.6348V88.0009L64.6189 87.4155L64.7653 83.7567L62.7163 83.903L57.4477 77.6099L58.1794 76.1464L57.7404 74.2438C57.7404 74.2438 52.9108 72.9267 53.3498 71.4631L55.3987 71.6095L57.594 70.146V67.9507C57.594 67.9507 64.6189 63.5601 63.8872 57.9988L62.2773 57.1207C62.2773 57.1207 59.3502 58.5842 59.3502 59.4623L58.1794 57.1207L55.3987 59.1696L53.0571 56.0962L50.7155 59.1696C50.7155 59.1696 48.0812 57.5597 47.3494 57.1207L46.9103 60.0477L42.8125 56.6816C42.8125 56.6816 43.5443 65.0237 50.1301 67.658L49.3983 67.8043L49.7642 70.5119L52.0327 69.2679C52.0327 69.2679 54.0816 71.0241 50.4228 73.3657C50.4228 73.3657 55.3987 75.4146 55.6914 76C55.6914 76 56.8623 77.7563 54.9597 77.9026C54.9597 77.9026 56.2769 80.0979 51.1546 79.5125C51.1546 79.5125 55.5451 82.4395 51.74 82.2932L46.9103 80.976L45.4468 84.1957L42.9589 84.6348Z" fill="#FFE680"/>
<path d="M63.8138 57.7793C63.8138 57.7793 64.3992 51.7788 67.3263 49.7299C67.3263 49.7299 52.1057 45.2662 39.9585 50.4617C39.9585 50.4617 42.3733 51.9984 42.5196 56.7548L47.2029 59.9014L47.4956 56.9743L49.9836 58.511L50.6422 59.316L53.1302 56.2426L55.4718 59.0964L58.2525 57.3402L59.4233 59.1696C59.4233 59.1696 61.0332 56.3889 63.8138 57.7793Z" fill="#FF2A2A"/>
<path d="M38.1292 50.9009C38.1292 50.9009 55.0329 45.4859 67.1801 49.7301L67.8387 49.1447L69.6681 49.2911L69.8876 45.925C69.8876 45.925 64.7653 43.2907 52.7644 43.8029C52.7644 43.8029 43.032 44.0224 36.8853 46.2909L38.1292 50.9009Z" fill="#FFD42A"/>
<path d="M49.5447 70.4389L51.8132 69.2681C51.8132 69.2681 54.0085 69.9998 50.6424 73.0732L54.5207 75.0489L56.2769 76.3661C56.2769 76.3661 57.0087 77.3906 55.1793 77.8296C55.1793 77.8296 56.7891 79.7322 52.9108 79.8054L50.7155 79.659C50.7155 79.659 53.4962 81.1957 52.8376 81.6348C52.8376 81.6348 52.6913 82.3665 50.496 82.147L47.2031 81.0494L45.8127 80.1713L46.1055 79.0736L46.764 78.3419L47.7885 76.5856L47.7153 74.1708L48.3739 73.805L48.1544 71.9024L49.5447 70.4389Z" fill="#E9C6AF"/>
<path d="M54.74 71.2435L57.228 70.5117C57.228 70.5117 60.4477 71.2435 60.96 72.8533C60.96 72.8533 61.0331 75.9999 62.0576 77.6829C62.0576 77.6829 63.3016 79.366 62.643 80.6832L61.8381 82.4394L57.3012 77.9757L58.3988 76.0731L57.7402 74.0973L54.8132 73.5851L53.4229 72.4875L54.0083 71.3167L54.74 71.2435Z" fill="#E9C6AF"/>
<path d="M146.649 134.468L147.6 130.809L147.527 128.101L150.674 123.857L150.454 123.199C150.454 123.199 152.723 121.955 155.43 124.516L157.625 127.662C157.625 127.662 158.796 128.979 157.699 130.882C157.699 130.882 155.796 135.273 154.333 136.077C154.333 136.077 155.211 137.907 154.406 139.078L151.771 142.517L150.747 142.151L151.845 138.2L148.991 139.956L148.332 139.224L148.478 138.273L147.088 137.687L147.015 136.517L147.82 135.785L146.503 135.346L146.649 134.468Z" fill="#E9C6AF"/>
<path d="M110.481 129.523L110.998 127.764C110.998 127.764 104.789 117.415 104.892 111.516L103.857 110.585C103.857 110.585 102.098 106.549 102.098 102.927C102.098 102.927 94.8542 110.999 90.0938 110.792L89.3694 110.481C89.3694 110.481 87.2997 122.693 83.5742 127.246C83.5742 127.246 84.609 130.972 81.7114 133.248L81.0905 142.976C81.0905 142.976 76.5371 159.017 77.2615 166.468C77.2615 166.468 77.7789 171.849 75.0883 171.952C75.0883 171.952 73.2255 171.435 73.4325 166.054C73.4325 166.054 71.5698 161.086 71.3628 157.154C71.3628 157.154 70.5349 153.946 70.5349 151.979C70.5349 151.979 69.707 144.115 68.4652 141.32C68.4652 141.32 66.7059 134.904 66.8094 130.661C66.8094 130.661 64.6362 109.136 65.4641 104.376C65.4641 104.376 55.0119 93.4062 53.4596 87.9214L43.0075 88.3354L42.904 84.2994H45.2842C45.2842 84.2994 46.94 82.0227 46.94 81.0913C46.94 81.0913 44.6633 79.6425 46.8365 78.0902C46.8365 78.0902 46.94 76.331 47.9749 76.331C47.9749 76.331 46.94 74.7786 48.6993 73.7438C48.6993 73.7438 46.8365 72.088 49.8376 70.2253C49.8376 70.2253 48.8028 68.673 49.7341 67.5346C49.7341 67.5346 44.1459 65.3614 42.5936 57.5999C42.5936 57.5999 41.9727 52.0117 40.0064 50.5628C39.696 50.5628 38.2471 50.9768 38.2471 50.9768L36.7983 46.1129C36.7983 46.1129 53.2527 40.7317 69.8105 45.492L69.6035 49.321L67.5338 49.114C67.5338 49.114 63.9118 54.4953 63.8083 57.186C63.8083 57.186 63.0839 65.5684 57.4956 67.6381C57.4956 67.6381 57.7026 69.7078 57.2886 70.4322C57.2886 70.4322 61.0141 71.3636 61.1176 74.0543C61.1176 74.0543 61.1176 76.7449 62.6699 79.0216C62.6699 79.0216 62.8769 81.5053 62.049 82.2297L63.1873 83.9889L64.6362 84.0924V87.3005L68.3617 90.1981C68.3617 90.1981 70.8453 86.8866 76.4336 89.5772C76.4336 89.5772 79.4347 86.6796 82.9532 89.2667C82.9532 89.2667 86.6787 86.1622 89.4729 86.5761C89.4729 86.5761 91.6461 81.4018 99.0971 81.4018L102.409 79.539C102.409 79.539 102.098 77.6763 104.478 78.1937C104.478 78.1937 107.893 76.7449 109.342 77.1588C109.342 77.1588 109.446 75.71 111.619 76.2275L113.275 77.0554C113.275 77.0554 115.551 75.3996 117.104 75.5031L117.414 72.9159C117.414 72.9159 113.171 74.7786 112.033 73.0194C112.033 73.0194 108.204 76.0205 107.376 71.0531C107.376 71.0531 108.514 68.8799 108.204 67.3276C108.204 67.3276 106.962 64.844 108.204 61.1185C108.204 61.1185 108.204 57.0825 109.446 55.8407C109.446 55.8407 109.653 49.0106 111.205 47.5617C111.205 47.5617 114.827 40.2142 121.761 39.2828C121.761 39.2828 122.692 37.0061 125.072 37.3166C125.072 37.3166 126.107 36.2817 125.176 35.3503C125.176 35.3503 126.521 32.9702 131.592 36.1783C131.592 36.1783 134.179 35.7643 136.766 32.9702C136.766 32.9702 142.251 32.0388 144.528 36.3852C144.528 36.3852 148.046 44.5606 152.6 38.8689C152.6 38.8689 153.013 34.5225 150.84 32.9702C150.84 32.9702 151.254 32.2458 153.22 33.0737C153.22 33.0737 152.91 32.0388 154.462 32.9702C154.462 32.9702 150.944 30.9005 152.393 28.8307C152.393 28.8307 153.324 30.1761 154.255 30.0726C154.255 30.0726 153.324 29.0377 153.531 27.8993C153.531 27.8993 154.98 31.8318 158.084 31.4179C158.084 31.4179 156.222 29.1412 156.532 27.6924C156.532 27.6924 158.498 30.6935 161.085 30.0726C161.085 30.0726 165.328 32.6597 164.5 36.6957C164.5 36.6957 168.226 35.5573 168.433 40.8351C168.433 40.8351 168.64 44.7676 166.26 45.699C166.26 45.699 167.605 47.5617 167.191 50.5628C167.191 50.5628 165.121 46.8373 163.569 46.8373L164.604 45.8025L163.88 45.1816C163.88 45.1816 165.328 41.663 162.638 41.2491C162.638 41.2491 162.534 45.492 160.878 45.492C160.878 45.492 162.327 47.6652 161.913 49.321" stroke="black"/>
<path d="M161.913 49.321C161.913 49.321 160.672 46.8374 158.912 46.7339L157.877 45.3886L157.36 45.5955C157.36 45.5955 156.739 48.0792 155.601 48.1827C155.601 48.1827 154.98 50.3559 153.221 50.5629C153.221 50.5629 151.254 52.6326 150.116 51.3908C150.116 51.3908 148.978 52.5291 147.115 52.5291L148.15 50.1489L146.701 47.1478C146.701 47.1478 143.596 55.2197 138.318 47.5618C138.318 47.5618 141.63 51.2873 142.768 46.3199L143.079 45.0781C143.079 45.0781 139.043 46.7339 137.387 44.0432L135.524 43.2153L133.662 44.2502C133.662 44.2502 137.18 47.4583 135.731 54.3919C135.731 54.3919 139.664 57.8069 137.905 60.3941C137.905 60.3941 141.63 62.7743 141.113 65.9823C141.113 65.9823 145.873 68.9834 143.182 71.881C143.182 71.881 141.113 74.4682 139.146 71.7776C139.146 71.7776 136.456 71.9845 135.938 70.6392C135.938 70.6392 135.731 71.5706 133.972 71.4671L132.109 72.6054L132.213 73.8473C132.213 73.8473 134.283 74.1578 134.8 75.1926C134.8 75.1926 139.25 75.6066 139.974 76.8484C139.974 76.8484 142.044 76.124 142.872 79.1251C142.872 79.1251 144.321 77.5728 145.666 80.7809C145.666 80.7809 154.669 80.2635 157.256 97.0282L157.36 98.891C157.36 98.891 162.845 103.651 163.569 110.274C163.569 110.274 169.468 113.069 169.675 121.554C169.675 121.554 169.571 146.805 168.433 159.948C168.433 159.948 166.777 172.366 166.881 181.37C166.881 181.37 166.984 196.272 162.741 213.036C162.741 213.036 158.705 206.517 157.981 190.166C157.981 190.166 155.704 170.814 155.394 170.297C155.394 170.297 151.461 175.057 149.909 175.471C149.909 175.471 149.702 178.886 148.357 180.024C148.357 180.024 147.218 195.133 141.734 207.759C141.734 207.759 141.734 215.106 139.146 217.486C139.146 217.486 140.181 237.563 135.835 244.496C135.835 244.496 132.523 256.19 134.283 261.468C134.283 261.468 138.215 264.883 138.318 269.023C138.318 269.023 142.458 271.196 142.768 272.955C142.768 272.955 145.976 273.265 147.011 274.714C147.011 274.714 151.668 276.577 151.565 277.819C151.565 277.819 148.874 281.751 143.286 279.061C143.286 279.061 139.974 280.303 136.973 278.026C136.973 278.026 136.249 275.542 126.004 275.335C126.004 275.335 118.656 274.093 124.141 266.021C124.141 266.021 125.486 263.538 124.348 257.122C124.348 257.122 122.071 245.221 123.313 242.22L121.243 238.494L119.484 241.806C119.484 241.806 118.139 250.809 116.586 253.914C116.586 253.914 114.206 259.916 116.276 265.297C116.276 265.297 115.345 273.162 115.655 274.507C115.655 274.507 112.343 279.889 112.24 282.062C112.24 282.062 111.412 286.098 105.72 287.236C105.72 287.236 102.719 290.237 100.236 289.616C100.236 289.616 96.9239 289.72 99.0972 285.373L99.3041 282.786C99.3041 282.786 95.3717 281.544 102.719 277.612C102.719 277.612 106.962 270.057 108.1 269.229C108.1 269.229 106.755 261.365 107.997 258.674C107.997 258.674 100.339 232.802 105.72 222.454L107.893 217.59C107.893 217.59 107.169 212.415 108.928 209.207C108.928 209.207 108.618 206.724 107.997 205.068C107.997 205.068 103.237 192.029 104.892 181.266C104.892 181.266 102.305 180.852 102.305 179.3C102.305 179.3 102.926 177.127 100.029 177.127L99.7181 190.373C99.7181 190.373 98.8902 192.236 97.4414 191.822C97.4414 191.822 96.9239 193.995 94.8542 193.477C94.8542 193.477 94.0263 194.719 93.1984 194.305C93.1984 194.305 92.0601 195.133 91.5427 194.719C91.5427 194.719 91.1287 171.435 92.5775 169.676C92.5775 169.676 83.3672 161.604 90.9217 152.29C90.9217 152.29 93.4054 149.185 93.4054 146.598C93.4054 146.598 88.0241 147.219 88.645 142.045L89.266 139.872C89.266 139.872 85.7474 135.939 91.3357 133.145C91.3357 133.145 92.474 130.144 95.9926 131.593C95.9926 131.593 99.2007 127.246 103.34 130.765C103.34 130.765 105.617 127.66 108.721 130.351L110.481 129.523" stroke="black"/>
<path d="M111.205 47.5615L113.939 50.5347C113.939 50.5347 123.16 43.9489 133.99 52.8763L135.731 54.3916" stroke="black" stroke-width="0.680912" stroke-linecap="round"/>
<path d="M114.232 48.4858C114.232 48.4858 115.696 41.8999 120.818 40.8755" stroke="black" stroke-width="0.680912" stroke-linecap="round"/>
<path d="M129.014 43.5103C129.014 43.5103 132.672 46.1446 132.672 51.2669" stroke="black" stroke-width="0.680912" stroke-linecap="round"/>
<path d="M128.867 41.4609C128.867 41.4609 134.282 44.827 133.989 51.2665" stroke="black" stroke-width="0.680912" stroke-linecap="round"/>
<path d="M123.16 39.8515C123.16 39.8515 130.477 38.9734 132.819 43.0712" stroke="black" stroke-width="0.680912" stroke-linecap="round"/>
<path d="M132.672 38.6807C132.672 38.6807 135.599 40.5832 134.575 42.1931" stroke="black" stroke-width="0.680912" stroke-linecap="round"/>
<path d="M128.867 37.3633L130.184 36.3389" stroke="black" stroke-width="0.680912" stroke-linecap="round"/>
<path d="M135.307 38.0952C135.307 38.0952 137.941 39.9978 136.77 41.9004" stroke="black" stroke-width="0.680912" stroke-linecap="round"/>
<path d="M137.868 37.3633C137.868 37.3633 139.405 40.5098 138.014 41.5343" stroke="black" stroke-width="0.680912" stroke-linecap="round"/>
<path d="M139.624 36.5586C139.624 36.5586 140.502 39.3393 139.112 39.4125" stroke="black" stroke-width="0.680912" stroke-linecap="round"/>
<path d="M141.234 39.2656C141.234 39.2656 142.332 42.7781 138.307 43.1439" stroke="black" stroke-width="0.680912" stroke-linecap="round"/>
<path d="M144.234 42.1929C144.234 42.1929 144.82 43.2173 144.161 43.8759" stroke="black" stroke-width="0.680912" stroke-linecap="round"/>
<path d="M142.844 42.8516C142.844 42.8516 142.405 44.7541 141.234 44.7541" stroke="black" stroke-width="0.680912" stroke-linecap="round"/>
<path d="M146.576 43.3638C146.576 43.3638 144.893 48.7788 142.624 49.4374" stroke="black" stroke-width="0.680912" stroke-linecap="round"/>
<path d="M150.088 43.5103C150.088 43.5103 150.82 45.3396 150.088 46.2909C150.088 46.2909 151.332 48.4862 150.966 49.5838" stroke="black" stroke-width="0.680912" stroke-linecap="round"/>
<path d="M152.576 44.6079C152.576 44.6079 153.601 48.0472 152.869 49.1448" stroke="black" stroke-width="0.680912" stroke-linecap="round"/>
<path d="M154.406 44.5347C154.406 44.5347 155.284 45.7787 154.845 46.8031" stroke="black" stroke-width="0.680912" stroke-linecap="round"/>
<path d="M154.113 34.8022C154.113 34.8022 155.503 38.8269 153.381 40.2173" stroke="black" stroke-width="0.680912" stroke-linecap="round"/>
<path d="M155.357 33.4116C155.357 33.4116 157.552 37.2899 155.796 39.2657" stroke="black" stroke-width="0.680912" stroke-linecap="round"/>
<path d="M159.748 31.6558C159.748 31.6558 162.089 32.168 162.309 36.7049" stroke="black" stroke-width="0.680912" stroke-linecap="round"/>
<path d="M165.675 40.0708C165.675 40.0708 167.87 42.4124 165.382 44.4614" stroke="black" stroke-width="0.680912" stroke-linecap="round"/>
<path d="M160.479 39.9243L159.308 41.6805C159.308 41.6805 160.699 41.8269 160.772 43.4368" stroke="black" stroke-width="0.680912" stroke-linecap="round"/>
<path d="M155.43 42.7051C155.43 42.7051 157.113 43.1441 157.406 44.3881" stroke="black" stroke-width="0.680912" stroke-linecap="round"/>
<path d="M160.04 38.3879C160.04 38.3879 161.138 38.3147 161.284 39.3392" stroke="black" stroke-width="0.680912" stroke-linecap="round"/>
<path d="M158.65 32.168C158.65 32.168 160.04 32.4607 160.04 35.5341" stroke="black" stroke-width="0.680912" stroke-linecap="round"/>
<path d="M157.552 32.7529C157.552 32.7529 158.504 32.7529 158.577 35.3141" stroke="black" stroke-width="0.680912" stroke-linecap="round"/>
<path d="M125.282 56.5352L123.745 54.7058C122.867 55.218 121.037 54.6326 121.037 54.6326C119.428 53.1691 118.257 54.6326 118.257 54.6326C116.793 55.657 115.696 53.8276 115.696 53.8276C115.696 53.8276 116.171 56.6815 118.952 54.5594L120.159 54.7058C120.159 54.7058 121.733 55.3277 123.379 55.3643C123.379 55.3643 124.257 56.5352 125.282 56.5352Z" fill="black"/>
<path d="M110.939 55.0717C110.939 55.0717 112.915 52.5105 113.866 56.1693C113.866 56.1693 113.939 60.1209 112.549 62.0234C112.549 62.0234 111.891 62.7552 113.647 63.6333C113.647 63.6333 115.037 62.3893 116.281 63.2674C116.281 63.2674 114.818 63.5601 114.232 64.5114C114.232 64.5114 112.403 63.8528 112.256 62.9015L112.037 62.0966C112.037 62.0966 114.159 59.1696 113.061 55.8035C113.061 55.8035 112.183 54.4863 110.939 55.0717Z" fill="black"/>
<path d="M113.135 66.1946C113.135 66.1946 113.976 64.7311 116.537 66.1215L118.074 65.4629L118.037 66.8532C118.037 66.8532 117.525 66.1215 117.159 66.2678C117.159 66.2678 116.354 66.4142 114.818 65.8288C114.818 65.8288 114.086 65.9751 113.647 66.4142L113.135 66.1946Z" fill="black"/>
<path d="M116.574 67.6579C115.476 68.8288 114.744 68.3165 114.744 68.3165L113.866 67.5848C113.866 67.5848 114.086 66.853 115.622 67.4384C115.622 67.4384 116.72 67.2189 116.574 67.6579Z" fill="black"/>
<path d="M109.622 55.2915C109.622 55.2915 110.427 78.0492 122.794 70.8048" stroke="black" stroke-width="0.680912" stroke-linecap="round"/>
<path d="M128.721 55.2183C128.721 55.2183 128.94 59.7552 132.746 61.4382C132.746 61.4382 134.355 62.4627 135.234 64.8043" stroke="black" stroke-width="0.680912" stroke-linecap="round"/>
<path d="M129.233 60.2671C129.233 60.2671 131.063 64.2186 133.551 65.9016C133.551 65.9016 134.502 67.8774 134.282 69.9263" stroke="black" stroke-width="0.680912" stroke-linecap="round"/>
<path d="M127.404 50.0957C127.404 50.0957 129.453 53.9009 130.916 54.7058" stroke="black" stroke-width="0.680912" stroke-linecap="round"/>
<path d="M128.282 53.3154C128.282 53.3154 129.087 55.4375 130.916 56.3888" stroke="black" stroke-width="0.680912" stroke-linecap="round"/>
<path d="M132.892 55.7305C132.892 55.7305 135.965 60.0478 137.868 60.6333" stroke="black" stroke-width="0.680912" stroke-linecap="round"/>
<path d="M134.355 54.4131C134.355 54.4131 133.99 56.6084 136.404 57.8524" stroke="black" stroke-width="0.680912" stroke-linecap="round"/>
<path d="M135.307 60.9258C135.307 60.9258 140.429 65.3163 138.234 68.8288" stroke="black" stroke-width="0.680912" stroke-linecap="round"/>
<path d="M134.282 60.9258C134.282 60.9258 137.721 64.8041 136.404 68.5361" stroke="black" stroke-width="0.680912" stroke-linecap="round"/>
<path d="M132.672 57.5596C132.672 57.5596 133.843 57.5596 134.282 59.9744" stroke="black" stroke-width="0.680912" stroke-linecap="round"/>
<path d="M141.161 67.292C141.161 67.292 142.771 68.8287 140.063 70.7313" stroke="black" stroke-width="0.680912" stroke-linecap="round"/>
<path d="M110.427 63.6333C110.427 63.6333 111.159 68.9751 109.842 70.585C109.842 70.585 110.939 70.2191 111.598 68.8288" stroke="black" stroke-width="0.680912" stroke-linecap="round"/>
<path d="M117.159 75.0488C117.159 75.0488 117.671 78.0491 118.55 78.3418" stroke="black" stroke-width="0.680912" stroke-linecap="round"/>
<path d="M113.354 77.0976C113.354 77.0976 117.891 80.3174 118.915 83.4639L135.307 83.6834C135.307 83.6834 135.234 79.5124 133.185 76.5122" stroke="black" stroke-width="0.680912" stroke-linecap="round"/>
<path d="M110.72 78.1222C110.72 78.1222 115.842 80.976 118.257 85.4398L138.234 85.8057C138.234 85.8057 137.063 80.0248 135.16 77.1709" stroke="black" stroke-width="0.680912" stroke-linecap="round"/>
<path d="M105.744 78.8542C105.744 78.8542 112.842 83.6106 114.378 88.6598L141.819 89.172C141.819 89.172 140.649 81.1227 138.38 77.4639" stroke="black" stroke-width="0.680912" stroke-linecap="round"/>
<path d="M136.917 77.0977C136.917 77.0977 140.429 84.6348 140.502 88.0009" stroke="black" stroke-width="0.680912" stroke-linecap="round"/>
<path d="M114.964 87.0496L116.94 85.147" stroke="black" stroke-width="0.680912" stroke-linecap="round"/>
<path d="M114.305 85.7326L116.135 84.269" stroke="black" stroke-width="0.680912" stroke-linecap="round"/>
<path d="M113.135 84.4152L115.183 82.9517" stroke="black" stroke-width="0.680912" stroke-linecap="round"/>
<path d="M108.159 89.6841C108.159 89.6841 105.817 91.733 106.695 94.8064C106.695 94.8064 106.695 98.4652 103.914 99.5628" stroke="black" stroke-width="0.680912" stroke-linecap="round"/>
<path d="M112.183 91.8794L105.524 102.051L107.573 111.491L105.963 111.344" stroke="black" stroke-width="0.680912" stroke-linecap="round"/>
<path d="M103.256 80.1709C103.256 80.1709 111.378 84.8542 113.354 91.6595L144.6 91.5132C144.6 91.5132 142.917 82.7321 141.307 79.6587" stroke="black" stroke-width="0.680912" stroke-linecap="round"/>
<path d="M132.453 92.6108C132.453 92.6108 133.99 97.2209 133.404 99.7089" stroke="black" stroke-width="0.680912" stroke-linecap="round"/>
<path d="M116.5 102.124L118.549 106.954" stroke="black" stroke-width="0.680912" stroke-linecap="round"/>
<path d="M107.354 117.344C107.354 117.344 123.16 101.977 133.404 100.148C133.404 100.148 143.429 106.953 148.625 115.149" stroke="black" stroke-width="0.680912" stroke-linecap="round"/>
<path d="M108.744 119.906C108.744 119.906 124.769 105.197 132.892 103.222C132.892 103.222 143.429 110.832 148.552 119.613" stroke="black" stroke-width="0.680912" stroke-linecap="round"/>
<path d="M143.21 80.7563C143.21 80.7563 145.039 82.5857 145.844 91.44" stroke="black" stroke-width="0.680912" stroke-linecap="round"/>
<path d="M146.649 82.5127C146.649 82.5127 149.064 90.0498 147.673 93.855C147.673 94.2209 147.82 98.6846 147.82 98.6846C147.82 98.6846 147.381 94.1477 145.844 93.1232" stroke="black" stroke-width="0.680912" stroke-linecap="round"/>
<path d="M149.649 84.3423C149.649 84.3423 151.625 87.3425 151.552 93.0502C151.552 93.0502 151.04 95.026 153.308 97.7335" stroke="black" stroke-width="0.680912" stroke-linecap="round"/>
<path d="M152.723 90.7085C152.723 90.7085 153.967 98.5383 156.601 100.075" stroke="black" stroke-width="0.680912" stroke-linecap="round"/>
<path d="M149.503 97.7334C149.503 97.7334 148.551 105.783 151.405 109.807L151.259 116.393" stroke="black" stroke-width="0.680912" stroke-linecap="round"/>
<path d="M148.113 100.075L148.771 113.54" stroke="black" stroke-width="0.680912" stroke-linecap="round"/>
<path d="M146.869 104.026L146.942 111.051" stroke="black" stroke-width="0.680912" stroke-linecap="round"/>
<path d="M145.478 102.563L145.625 109.076" stroke="black" stroke-width="0.680912" stroke-linecap="round"/>
<path d="M144.234 101.539L144.307 107.173" stroke="black" stroke-width="0.680912" stroke-linecap="round"/>
<path d="M142.917 100.733L142.844 105.929" stroke="black" stroke-width="0.680912" stroke-linecap="round"/>
<path d="M140.649 99.6357L140.868 104.904" stroke="black" stroke-width="0.680912" stroke-linecap="round"/>
<path d="M134.721 106.295C134.721 106.295 136.697 123.345 132.307 129.199" stroke="black" stroke-width="0.680912" stroke-linecap="round"/>
<path d="M137.063 108.783C137.063 108.783 138.526 121.003 134.575 128.321" stroke="black" stroke-width="0.680912" stroke-linecap="round"/>
<path d="M132.526 104.246C132.526 104.246 127.623 105.197 128.209 112.734C128.209 112.734 126.379 109.954 122.867 109.954" stroke="black" stroke-width="0.680912" stroke-linecap="round"/>
<path d="M120.452 111.417C120.452 111.417 118.915 116.028 120.086 119.174C120.086 119.174 117.452 116.32 114.598 116.613" stroke="black" stroke-width="0.680912" stroke-linecap="round"/>
<path d="M113.427 117.491C113.427 117.491 112.037 120.71 113.427 122.833C113.427 122.833 112.183 122.028 109.768 122.174" stroke="black" stroke-width="0.680912" stroke-linecap="round"/>
<path d="M109.403 120.198L111.378 120.564V118.808" stroke="black" stroke-width="0.680912" stroke-linecap="round"/>
<path d="M116.5 114.637L118.476 115.223L118.403 112.954" stroke="black" stroke-width="0.680912" stroke-linecap="round"/>
<path d="M124.989 108.271L127.038 109.075L127.257 106.661" stroke="black" stroke-width="0.680912" stroke-linecap="round"/>
<path d="M112.33 128.102C112.33 128.102 130.77 136.444 147.6 124.809" stroke="black" stroke-width="0.680912" stroke-linecap="round"/>
<path d="M111.525 130.077C111.525 130.077 113.866 130.443 114.013 132.565C114.013 132.565 131.063 141.566 146.064 131.321" stroke="black" stroke-width="0.680912" stroke-linecap="round"/>
<path d="M120.086 131.687C120.086 131.687 126.672 133.955 133.404 132.126" stroke="black" stroke-width="0.680912" stroke-linecap="round"/>
<path d="M134.721 132.785C135.087 132.785 143.283 131.248 147.747 127.37" stroke="black" stroke-width="0.680912" stroke-linecap="round"/>
<path d="M141.893 118.076C141.893 118.076 144.746 118.076 141.307 122.979" stroke="black" stroke-width="0.680912" stroke-linecap="round"/>
<path d="M145.112 120.857C145.112 120.857 144.161 124.223 142.917 124.808" stroke="black" stroke-width="0.680912" stroke-linecap="round"/>
<path d="M139.99 110.393C139.99 110.393 141.673 113.685 140.21 114.929C140.21 114.929 145.185 112.515 145.332 118.808C145.332 118.808 148.771 119.027 147.161 123.784" stroke="black" stroke-width="0.680912" stroke-linecap="round"/>
<path d="M134.136 107.612C134.136 107.612 128.282 106.222 133.77 115.222" stroke="black" stroke-width="0.680912" stroke-linecap="round"/>
<path d="M123.525 113.759C123.525 113.759 126.599 113.1 127.038 120.198C118.623 115.076 123.525 113.759 123.525 113.759Z" stroke="black" stroke-width="0.680912" stroke-linecap="round"/>
<path d="M116.5 120.418C116.5 120.418 119.574 120.198 120.598 125.321C112.988 121.808 116.5 120.418 116.5 120.418Z" fill="#FF2A2A" stroke="black" stroke-width="0.680912" stroke-linecap="round"/>
<path d="M100.132 93.5095L100.856 90.1979L103.754 89.0596L102.823 92.5781L100.132 93.5095Z" stroke="black" stroke-width="0.680912" stroke-linecap="round"/>
<path d="M97.1309 90.7155L100.028 88.9562L100.339 86.0586L97.3378 87.6109L97.1309 90.7155Z" stroke="black" stroke-width="0.680912" stroke-linecap="round"/>
<path d="M93.7158 90.8188C93.7158 90.8188 94.2333 99.7187 101.581 101.788" stroke="black" stroke-width="0.680912" stroke-linecap="round"/>
<path d="M91.2322 96.4072C91.2322 96.4072 93.1984 99.5118 96.096 99.8223" stroke="black" stroke-width="0.680912" stroke-linecap="round"/>
<path d="M94.3367 106.032C94.3367 106.032 97.8552 104.686 99.304 102.306" stroke="black" stroke-width="0.680912" stroke-linecap="round"/>
<path d="M96.717 100.754C96.717 100.754 97.3379 104.169 90.9217 106.135C90.5078 107.067 89.6799 108.412 89.5764 110.585" stroke="black" stroke-width="0.680912" stroke-linecap="round"/>
<path d="M83.3672 89.1631C83.3672 89.1631 84.1951 92.0607 89.5764 94.4409" stroke="black" stroke-width="0.680912" stroke-linecap="round"/>
<path d="M89.4729 86.4725C89.4729 86.4725 91.5426 85.5411 92.681 86.783" stroke="black" stroke-width="0.680912" stroke-linecap="round"/>
<path d="M77.0544 91.3364L78.2963 93.7166L80.8834 131.075" stroke="black" stroke-width="0.680912" stroke-linecap="round"/>
<path d="M77.9858 90.5088C77.9858 90.5088 82.7462 95.5796 80.78 96.718L83.8846 97.1319C83.8846 97.1319 77.5719 103.031 84.7125 103.548L85.9543 118.45" stroke="black" stroke-width="0.680912" stroke-linecap="round"/>
<path d="M86.1614 103.237L87.0928 111.102" stroke="black" stroke-width="0.680912" stroke-linecap="round"/>
<path d="M83.8845 112.551L84.8159 121.969" stroke="black" stroke-width="0.680912" stroke-linecap="round"/>
<path d="M82.5393 111.31L83.0567 124.349" stroke="black" stroke-width="0.680912" stroke-linecap="round"/>
<path d="M81.0906 105.307L81.1941 118.036" stroke="black" stroke-width="0.680912" stroke-linecap="round"/>
<path d="M65.3606 104.272C65.3606 104.272 72.0872 110.482 75.0883 111.62" stroke="black" stroke-width="0.680912" stroke-linecap="round"/>
<path d="M69.3965 90.9224C69.3965 90.9224 73.6394 92.9921 74.7778 94.4409C74.7778 94.4409 77.7789 116.69 76.951 129.316" stroke="black" stroke-width="0.680912" stroke-linecap="round"/>
<path d="M61.842 88.5425L61.9455 92.8889" stroke="black" stroke-width="0.680912" stroke-linecap="round"/>
<path d="M61.1177 89.9912L58.7375 92.4749C58.7375 92.4749 63.8084 103.755 74.8814 108.308" stroke="black" stroke-width="0.680912" stroke-linecap="round"/>
<path d="M76.9511 131.179L75.0884 169.469" stroke="black" stroke-width="0.680912" stroke-linecap="round"/>
<path d="M74.6744 142.769C74.6744 142.769 76.0197 136.043 72.6046 134.697L74.1569 133.766C74.1569 133.766 73.1221 123.831 70.8454 122.589C70.8454 122.589 70.0175 119.795 74.8814 124.866" stroke="black" stroke-width="0.680912" stroke-linecap="round"/>
<path d="M73.6394 124.97C73.6394 124.97 75.6056 129.213 75.2952 133.973" stroke="black" stroke-width="0.680912" stroke-linecap="round"/>
<path d="M70.6384 110.792C70.6384 110.792 70.7419 118.036 73.2256 121.348" stroke="black" stroke-width="0.680912" stroke-linecap="round"/>
<path d="M47.4575 84.1958H62.3596" stroke="black" stroke-width="0.680912" stroke-linecap="round"/>
<path d="M55.012 87.9214H63.8083" stroke="black" stroke-width="0.680912" stroke-linecap="round"/>
<path d="M57.1851 77.6763C57.1851 77.6763 59.0478 80.2634 60.8071 81.5053" stroke="black" stroke-width="0.680912" stroke-linecap="round"/>
<path d="M56.1504 79.6426C56.1504 79.6426 58.2201 82.2297 59.048 82.6437" stroke="black" stroke-width="0.680912" stroke-linecap="round"/>
<path d="M56.1502 81.4019L54.4944 83.2646L57.2885 82.9541L56.2537 82.1263L56.1502 81.4019Z" fill="black" stroke="black" stroke-width="0.680912" stroke-linecap="round"/>
<path d="M50.4585 73.2264C50.4585 73.2264 54.184 70.9497 52.1143 69.2939" stroke="black" stroke-width="0.680912" stroke-linecap="round"/>
<path d="M51.4934 68.1554C51.4934 68.1554 54.0806 67.1206 55.7364 69.0868" stroke="black" stroke-width="0.680912" stroke-linecap="round"/>
<path d="M51.3899 73.6401C51.3899 73.6401 57.1851 75.7099 56.1503 77.1587" stroke="black" stroke-width="0.680912" stroke-linecap="round"/>
<path d="M49.5271 76.7449C49.5271 76.7449 52.6317 76.2275 54.9084 77.7798" stroke="black" stroke-width="0.680912" stroke-linecap="round"/>
<path d="M49.4238 79.0215C49.4238 79.0215 53.8737 80.9877 53.1493 81.9191C53.1493 81.9191 51.9075 82.954 48.3889 81.7121" stroke="black" stroke-width="0.680912" stroke-linecap="round"/>
<path d="M52.6318 79.5393C52.6318 79.5393 54.9085 80.4706 55.426 78.5044" stroke="black" stroke-width="0.680912" stroke-linecap="round"/>
<path d="M56.0468 71.0532C56.0468 71.0532 54.2875 71.9846 53.6666 71.2602C53.6666 71.2602 52.0108 73.3299 56.6677 73.9508L57.9095 74.0543C57.9095 74.0543 57.7026 75.1927 58.5304 75.9171" stroke="black" stroke-width="0.680912" stroke-linecap="round"/>
<path d="M57.3921 76.4346L58.427 77.159" stroke="black" stroke-width="0.680912" stroke-linecap="round"/>
<path d="M51.1829 66.7067C51.1829 66.7067 54.184 65.2579 56.0467 67.1207" stroke="black" stroke-width="0.680912" stroke-linecap="round"/>
<path d="M43.6284 57.2892L47.1987 60.2386V56.8753C47.1987 56.8753 49.4754 57.3927 50.562 59.359C50.562 59.359 52.2178 56.5131 53.0974 56.2026C53.0974 56.2026 54.2875 56.6683 55.4259 58.9968C55.4259 58.9968 57.2886 57.4962 58.3752 57.4445C58.3752 57.4445 59.2031 58.1171 59.3066 59.7729C59.3066 59.7729 60.6002 57.2892 62.3594 57.134" stroke="black" stroke-width="0.680912" stroke-linecap="round"/>
<path d="M53.5115 59.8247L53.5632 65.3612" stroke="black" stroke-width="0.680912" stroke-linecap="round"/>
<path d="M55.5293 59.98C55.5293 59.98 56.1502 63.0846 54.7014 65.62" stroke="black" stroke-width="0.680912" stroke-linecap="round"/>
<path d="M57.4439 60.7046C57.4439 60.7046 57.6509 62.4639 55.9434 65.465" stroke="black" stroke-width="0.680912" stroke-linecap="round"/>
<path d="M59.0997 61.1184C59.0997 61.1184 58.3753 64.3264 56.823 66.0857C56.823 66.0857 59.2549 65.0508 60.9625 60.0835" stroke="black" stroke-width="0.680912" stroke-linecap="round"/>
<path d="M50.9242 60.4458C50.9242 60.4458 50.8724 63.1882 52.0625 65.2579" stroke="black" stroke-width="0.680912" stroke-linecap="round"/>
<path d="M48.9062 60.5493C48.9062 60.5493 49.1132 63.9126 51.0277 65.8789" stroke="black" stroke-width="0.680912" stroke-linecap="round"/>
<path d="M47.4573 61.1184C47.4573 61.1184 47.716 63.7573 49.9927 65.827C49.9927 65.827 47.5608 66.1892 44.9736 60.187" stroke="black" stroke-width="0.680912" stroke-linecap="round"/>
<path d="M41.4553 49.7869C41.4553 49.7869 52.8906 46.1131 65.8264 49.3212" stroke="black" stroke-width="0.680912" stroke-linecap="round"/>
<path d="M59.8757 44.8711V47.51" stroke="black" stroke-width="0.680912" stroke-linecap="round"/>
<path d="M61.7385 45.0264L61.842 47.4583" stroke="black" stroke-width="0.680912" stroke-linecap="round"/>
<path d="M63.446 45.3369L63.3425 47.7171" stroke="black" stroke-width="0.680912" stroke-linecap="round"/>
<path d="M64.9465 45.854L65.05 47.9755" stroke="black" stroke-width="0.680912" stroke-linecap="round"/>
<path d="M66.3955 46.2681L66.3438 48.3895" stroke="black" stroke-width="0.680912" stroke-linecap="round"/>
<path d="M67.7924 46.1128L67.4819 49.0104" stroke="black" stroke-width="0.680912" stroke-linecap="round"/>
<path d="M42.1797 50.3556C42.1797 50.3556 53.0975 46.8888 65.2571 49.8899" stroke="black" stroke-width="0.680912" stroke-linecap="round"/>
<path d="M58.6858 49.7866C58.6858 49.7866 57.2887 53.0982 57.03 56.6685" stroke="black" stroke-width="0.680912" stroke-linecap="round"/>
<path d="M60.0311 50.2007C60.0311 50.2007 58.4788 53.0983 58.4788 56.4616" stroke="black" stroke-width="0.680912" stroke-linecap="round"/>
<path d="M61.8938 50.2524C61.8938 50.2524 59.5136 52.6326 59.8241 56.7203" stroke="black" stroke-width="0.680912" stroke-linecap="round"/>
<path d="M63.2908 50.2524C63.2908 50.2524 61.3763 53.4605 61.428 56.6686" stroke="black" stroke-width="0.680912" stroke-linecap="round"/>
<path d="M64.1187 50.77C64.1187 50.77 62.7216 52.995 62.6182 56.0478" stroke="black" stroke-width="0.680912" stroke-linecap="round"/>
<path d="M114.378 136.297C114.378 136.297 131.355 142.444 145.844 134.541" stroke="black" stroke-width="0.680912" stroke-linecap="round"/>
<path d="M149.137 123.125C149.137 123.125 151.259 118.662 155.576 119.54C155.576 119.54 157.333 120.198 155.869 117.71" stroke="black" stroke-width="0.680912" stroke-linecap="round"/>
<path d="M151.406 119.247C151.406 119.247 153.674 114.125 156.747 113.832C156.747 113.832 158.284 107.173 154.625 111.93" stroke="black" stroke-width="0.680912" stroke-linecap="round"/>
<path d="M150.308 123.491C150.308 123.491 152.576 120.052 157.772 127.955" stroke="black" stroke-width="0.680912" stroke-linecap="round"/>
<path d="M151.186 121.881C151.186 121.881 153.601 119.393 158.65 126.418" stroke="black" stroke-width="0.680912" stroke-linecap="round"/>
<path d="M150.747 123.93C150.747 123.93 147.088 127.077 147.454 131.175C147.454 131.175 145.185 135.931 147.82 135.565C147.82 135.565 145.478 138.419 148.405 138.199C148.405 138.199 147.015 142.005 151.844 138.126C151.844 138.126 149.869 143.102 151.771 142.371C151.991 142.371 156.089 138.273 154.406 136.37C154.406 136.37 158.357 131.467 157.845 129.418" stroke="black" stroke-width="0.680912" stroke-linecap="round"/>
<path d="M148.844 128.98C148.844 128.98 152.284 125.54 150.966 130.224C150.966 130.224 149.283 133.297 148.405 134.395" stroke="black" stroke-width="0.680912" stroke-linecap="round"/>
<path d="M152.284 129.565C152.284 129.565 155.211 131.321 149.21 137.102" stroke="black" stroke-width="0.680912" stroke-linecap="round"/>
<path d="M154.186 131.614C154.186 131.614 154.991 134.541 152.649 137.102" stroke="black" stroke-width="0.680912" stroke-linecap="round"/>
<path d="M134.429 139.224L135.014 156.713C135.014 156.713 132.819 159.494 129.014 157.152" stroke="black" stroke-width="0.680912" stroke-linecap="round"/>
<path d="M132.307 140.249L132.892 154.298" stroke="black" stroke-width="0.680912" stroke-linecap="round"/>
<path d="M136.258 141.566C136.258 141.566 149.722 149.615 151.479 147.713C151.479 147.713 155.211 146.176 139.844 139.371" stroke="black" stroke-width="0.680912" stroke-linecap="round"/>
<path d="M144.966 137.907L142.99 140.102" stroke="black" stroke-width="0.680912" stroke-linecap="round"/>
<path d="M138.38 143.688L135.526 145.225" stroke="black" stroke-width="0.680912" stroke-linecap="round"/>
<path d="M135.599 149.176C135.599 149.176 140.429 146.981 142.039 145.444" stroke="black" stroke-width="0.680912" stroke-linecap="round"/>
<path d="M147.234 139.956L145.917 141.566" stroke="black" stroke-width="0.680912" stroke-linecap="round"/>
<path d="M117.671 141.785C117.671 141.785 120.672 145.883 125.794 146.322" stroke="black" stroke-width="0.680912" stroke-linecap="round"/>
<path d="M126.452 140.468L126.599 158.835C126.599 158.835 129.965 163.299 135.599 159.86" stroke="black" stroke-width="0.680912" stroke-linecap="round"/>
<path d="M129.014 159.055C129.014 159.055 131.868 160.299 135.234 158.177" stroke="black" stroke-width="0.680912" stroke-linecap="round"/>
<path d="M135.965 149.761L136.258 161.543V167.104C136.258 167.104 135.673 168.494 133.697 168.787" stroke="black" stroke-width="0.680912" stroke-linecap="round"/>
<path d="M139.551 148.151C139.551 148.151 142.332 163.884 139.771 170.763C139.771 170.763 138.453 174.056 135.6 174.056C135.6 174.056 135.892 171.421 134.721 169.738" stroke="black" stroke-width="0.680912" stroke-linecap="round"/>
<path d="M143.941 151.737C143.941 151.737 153.162 162.055 146.356 172.666" stroke="black" stroke-width="0.680912" stroke-linecap="round"/>
<path d="M147.234 148.591C147.234 148.591 149.869 153.201 148.844 158.47" stroke="black" stroke-width="0.680912" stroke-linecap="round"/>
<path d="M151.332 157.811C151.332 157.811 151.771 161.835 150.015 164.47" stroke="black" stroke-width="0.680912" stroke-linecap="round"/>
<path d="M153.088 142.883C153.088 142.883 156.82 155.03 152.357 163.079" stroke="black" stroke-width="0.680912" stroke-linecap="round"/>
<path d="M140.795 173.251C143.063 172.227 145.332 165.202 145.332 165.202C145.332 165.202 145.112 171.641 142.917 173.544" stroke="black" stroke-width="0.680912" stroke-linecap="round"/>
<path d="M134.721 175.446C134.721 175.446 141.38 173.104 148.918 175.812" stroke="black" stroke-width="0.680912" stroke-linecap="round"/>
<path d="M148.478 179.69C148.478 179.69 140.868 175.885 130.404 179.178L129.014 182.325C129.014 182.325 120.745 174.056 104.5 180.861" stroke="black" stroke-width="0.680912" stroke-linecap="round"/>
<path d="M102.304 179.032C102.304 179.032 114.964 169.153 129.306 178.3" stroke="black" stroke-width="0.680912" stroke-linecap="round"/>
<path d="M111.451 161.689V174.056" stroke="black" stroke-width="0.680912" stroke-linecap="round"/>
<path d="M105.451 161.689C105.451 161.689 106.549 174.202 102.963 174.056C102.963 174.056 102.963 176.031 101.207 175.958" stroke="black" stroke-width="0.680912" stroke-linecap="round"/>
<path d="M115.183 170.69C115.183 170.69 118.257 170.397 118.623 166.153C118.623 166.153 118.33 172.885 115.11 173.397" stroke="black" stroke-width="0.680912" stroke-linecap="round"/>
<path d="M119.062 173.544C124.184 169.373 122.281 149.542 122.281 149.542C122.281 149.542 124.916 166.153 121.184 172.885" stroke="black" stroke-width="0.680912" stroke-linecap="round"/>
<path d="M118.257 146.396C118.257 146.396 121.989 149.542 125.648 149.103" stroke="black" stroke-width="0.680912" stroke-linecap="round"/>
<path d="M111.964 140.102C111.964 140.102 116.061 145.883 113.866 152.396" stroke="black" stroke-width="0.680912" stroke-linecap="round"/>
<path d="M110.061 140.542C110.061 140.542 108.378 149.103 110.573 154.152" stroke="black" stroke-width="0.680912" stroke-linecap="round"/>
<path d="M103.183 132.346C103.183 132.346 101.939 139.371 106.549 138.785C106.549 138.785 107.793 136.151 109.11 136.297" stroke="black" stroke-width="0.680912" stroke-linecap="round"/>
<path d="M109.695 130.882C109.695 130.882 110.939 134.321 108.305 134.907C108.305 134.907 107.353 134.907 106.768 136.224" stroke="black" stroke-width="0.680912" stroke-linecap="round"/>
<path d="M96.5967 130.955C96.5967 130.955 95.1332 132.199 95.0601 133.516C95.0601 133.516 91.5476 132.419 92.3525 138.273" stroke="black" stroke-width="0.680912" stroke-linecap="round"/>
<path d="M91.5476 142.078C91.5476 142.078 94.3283 149.542 103.256 138.492" stroke="black" stroke-width="0.680912" stroke-linecap="round"/>
<path d="M94.8406 141.346C95.2796 141.493 96.3041 142.81 98.9384 140.98" stroke="black" stroke-width="0.680912" stroke-linecap="round"/>
<path d="M97.9138 136.59C97.9138 136.59 97.3284 137.614 98.6456 139.297" stroke="black" stroke-width="0.680912" stroke-linecap="round"/>
<path d="M99.7432 135.711C99.7432 135.711 98.3529 137.907 100.768 138.712" stroke="black" stroke-width="0.680912" stroke-linecap="round"/>
<path d="M97.2553 145.005C97.2553 145.005 91.8402 159.421 101.939 160.591" stroke="black" stroke-width="0.680912" stroke-linecap="round"/>
<path d="M103.329 140.542C103.329 140.542 94.8405 161.763 105.012 157.591C105.012 157.591 107.793 161.104 113.939 155.616" stroke="black" stroke-width="0.680912" stroke-linecap="round"/>
<path d="M103.695 160.445C103.695 160.445 105.232 160.225 105.671 159.201C105.671 159.201 107.354 163.299 112.915 159.347C112.915 159.347 119.867 161.469 118.842 153.493C118.842 153.493 117.671 150.566 117.964 150.274C118.257 149.981 119.501 148.737 119.501 148.737" stroke="black" stroke-width="0.680912" stroke-linecap="round"/>
<path d="M114.891 137.98C114.891 137.98 118.184 143.688 116.354 149.395" stroke="black" stroke-width="0.680912" stroke-linecap="round"/>
<path d="M113.5 135.053C113.5 135.053 113.135 140.029 109.11 139.444" stroke="black" stroke-width="0.680912" stroke-linecap="round"/>
<path d="M105.963 139.663C105.963 139.663 105.817 147.566 105.817 147.273C105.817 146.981 106.402 140.907 106.402 140.907C106.402 140.907 107.793 142.297 108.012 140.175" stroke="black" stroke-width="0.680912" stroke-linecap="round"/>
<path d="M99.9629 161.689L99.6702 175.739L100.475 169.958L100.987 169.007L101.353 163.738L102.744 163.519L102.451 161.543" stroke="black" stroke-width="0.680912" stroke-linecap="round"/>
<path d="M95.2797 157.152C95.2797 157.152 90.8891 167.251 94.8406 178.666" stroke="black" stroke-width="0.680912" stroke-linecap="round"/>
<path d="M92.572 186.203C92.572 186.203 95.9381 182.032 98.3529 181.447" stroke="black" stroke-width="0.680912" stroke-linecap="round"/>
<path d="M91.9866 156.274C91.9866 156.274 92.7183 158.396 93.3769 158.542" stroke="black" stroke-width="0.680912" stroke-linecap="round"/>
<path d="M90.8889 163.445C90.8889 163.445 91.9134 165.494 92.3524 165.86" stroke="black" stroke-width="0.680912" stroke-linecap="round"/>
<path d="M97.1821 183.349V190.081" stroke="black" stroke-width="0.680912" stroke-linecap="round"/>
<path d="M94.7673 186.057L94.6941 191.545" stroke="black" stroke-width="0.680912" stroke-linecap="round"/>
<path d="M93.3039 188.325L93.2307 192.496" stroke="black" stroke-width="0.680912" stroke-linecap="round"/>
<path d="M130.843 141.346C130.77 139.59 129.315 139.975 129.315 139.975C129.315 139.975 127.696 140.468 129.014 142.334C129.014 142.334 130.623 142.993 130.843 141.346Z" stroke="black" stroke-width="0.680912" stroke-linecap="round"/>
<path d="M128.575 146.359C128.575 146.359 130.185 145.371 130.953 147.2C130.953 147.2 130.916 149.139 129.123 148.773C129.123 148.773 127.66 147.932 128.575 146.359Z" stroke="black" stroke-width="0.680912" stroke-linecap="round"/>
<path d="M129.782 152.725C129.782 152.725 131.355 152.433 131.428 154.408C131.428 154.408 130.623 156.128 129.416 154.884C128.318 153.457 129.782 152.725 129.782 152.725Z" stroke="black" stroke-width="0.680912" stroke-linecap="round"/>
<path d="M132.523 162.432C132.523 162.432 132.316 169.572 130.04 172.47" stroke="black" stroke-width="0.680912" stroke-linecap="round"/>
<path d="M122.692 174.126C122.692 174.126 126.107 175.988 129.625 172.987C129.625 172.987 126.624 177.127 130.246 175.161L131.385 173.815C131.385 173.815 132.42 175.471 130.453 177.541" stroke="black" stroke-width="0.680912" stroke-linecap="round"/>
<path d="M133.558 169.883C133.558 169.883 135.11 174.747 132.316 177.437" stroke="black" stroke-width="0.680912" stroke-linecap="round"/>
<path d="M133.869 162.432L133.662 167.399" stroke="black" stroke-width="0.680912" stroke-linecap="round"/>
<path d="M134.903 162.328L135.007 167.295" stroke="black" stroke-width="0.680912" stroke-linecap="round"/>
<path d="M105.513 173.608C105.513 173.608 106.341 176.092 110.17 174.229" stroke="black" stroke-width="0.680912" stroke-linecap="round"/>
<path d="M103.444 176.92C103.444 176.92 105.41 177.023 105.72 175.678" stroke="black" stroke-width="0.680912" stroke-linecap="round"/>
<path d="M97.4413 160.672C97.4413 160.672 95.2681 165.329 98.1657 171.021" stroke="black" stroke-width="0.680912" stroke-linecap="round"/>
<path d="M115.448 179.817L115.655 211.381L111.412 267.16" stroke="black" stroke-width="0.680912" stroke-linecap="round"/>
<path d="M109.86 210.76C109.86 210.76 110.377 216.141 107.894 217.279" stroke="black" stroke-width="0.680912" stroke-linecap="round"/>
<path d="M110.791 201.343C110.791 201.343 108.721 216.452 119.898 210.346C119.898 210.346 121.45 207.862 120.829 203.205C120.829 203.205 123.623 197.927 123.52 195.34" stroke="black" stroke-width="0.680912" stroke-linecap="round"/>
<path d="M129.108 181.99C129.108 181.99 128.901 192.339 124.451 200.1C124.451 200.1 122.382 206.413 122.795 211.07C122.795 211.07 123.52 216.037 121.657 219.038C121.657 219.038 125.176 232.492 121.243 238.494" stroke="black" stroke-width="0.680912" stroke-linecap="round"/>
<path d="M125.59 199.479C125.59 199.479 129.005 208.069 124.969 215.209L123.002 220.591" stroke="black" stroke-width="0.680912" stroke-linecap="round"/>
<path d="M120.622 211.484C120.622 211.484 121.14 214.588 118.242 216.037C118.242 216.037 121.14 216.141 116.172 219.659" stroke="black" stroke-width="0.680912" stroke-linecap="round"/>
<path d="M139.146 179.3C139.146 179.3 137.594 196.686 134.075 201.549C134.075 201.549 133.041 211.07 132.006 213.036L127.038 268.402" stroke="black" stroke-width="0.680912" stroke-linecap="round"/>
<path d="M124.555 246.463C124.555 246.463 124.451 243.772 123.52 242.323" stroke="black" stroke-width="0.680912" stroke-linecap="round"/>
<path d="M120.519 234.147C120.519 234.147 116.897 242.944 119.173 241.805" stroke="black" stroke-width="0.680912" stroke-linecap="round"/>
<path d="M108.1 269.126C108.1 269.126 112.861 262.399 114.93 275.128" stroke="black" stroke-width="0.680912" stroke-linecap="round"/>
<path d="M124.348 265.297C124.348 265.297 124.348 269.333 131.592 269.126C131.592 269.126 131.385 263.124 134.282 261.571" stroke="black" stroke-width="0.680912" stroke-linecap="round"/>
<path d="M134.282 265.4C134.282 265.4 138.422 269.436 137.18 272.334C137.18 272.334 139.664 272.437 140.388 273.576" stroke="black" stroke-width="0.680912" stroke-linecap="round"/>
<path d="M141.733 274.197C141.733 274.197 144.838 274.507 145.769 275.956" stroke="black" stroke-width="0.680912" stroke-linecap="round"/>
<path d="M124.037 271.713C124.037 271.713 126.728 274.611 133.869 273.783L137.801 275.749" stroke="black" stroke-width="0.680912" stroke-linecap="round"/>
<path d="M110.791 272.748C110.791 272.748 108.721 275.439 107.687 279.061" stroke="black" stroke-width="0.680912" stroke-linecap="round"/>
<path d="M108.825 272.438C108.825 272.438 104.789 275.956 104.892 279.061" stroke="black" stroke-width="0.680912" stroke-linecap="round"/>
<path d="M113.999 275.438C113.999 275.438 110.481 279.578 110.687 282.062" stroke="black" stroke-width="0.680912" stroke-linecap="round"/>
<path d="M100.132 282.062C100.132 282.062 101.995 279.061 105.306 283.407" stroke="black" stroke-width="0.680912" stroke-linecap="round"/>
<path d="M100.856 284.649C100.856 284.649 101.581 281.855 103.961 283.614" stroke="black" stroke-width="0.680912" stroke-linecap="round"/>
<path d="M159.119 129.523L162.431 206.931" stroke="black" stroke-width="0.680912" stroke-linecap="round"/>
<path d="M156.843 170.089L159.119 187.061" stroke="black" stroke-width="0.680912" stroke-linecap="round"/>
<path d="M158.705 171.952L160.361 181.68" stroke="black" stroke-width="0.680912" stroke-linecap="round"/>
<path d="M162.638 175.264L160.982 127.66L163.052 132.007C163.052 132.007 165.742 125.591 163.466 121.451" stroke="black" stroke-width="0.680912" stroke-linecap="round"/>
<path d="M165.535 118.14L165.742 170.711" stroke="black" stroke-width="0.680912" stroke-linecap="round"/>
<path d="M166.156 115.449C166.156 115.449 168.847 117.932 166.57 124.142" stroke="black" stroke-width="0.680912" stroke-linecap="round"/>
<path d="M164.086 132.834L163.673 150.22L162.638 148.978" stroke="black" stroke-width="0.680912" stroke-linecap="round"/>
<path d="M123.182 56.8984C119.004 55.6201 117.009 56.9694 117.009 56.9694L118.054 58.0346" stroke="black" stroke-width="0.466599" stroke-linecap="round"/>
<path d="M119.634 57.3912C120.001 57.3912 120.298 57.1076 120.298 56.7576C120.298 56.4077 120.001 56.124 119.634 56.124C119.267 56.124 118.969 56.4077 118.969 56.7576C118.969 57.1076 119.267 57.3912 119.634 57.3912Z" fill="black"/>
<path d="M113.08 57.3361C113.08 57.3361 111.918 56.1745 110.334 57.0193" stroke="black" stroke-width="0.5" stroke-linecap="round"/>
<path d="M111.6 57.6845C111.909 57.6845 112.16 57.4338 112.16 57.1245C112.16 56.8152 111.909 56.5645 111.6 56.5645C111.29 56.5645 111.04 56.8152 111.04 57.1245C111.04 57.4338 111.29 57.6845 111.6 57.6845Z" fill="black"/>
<defs>
<linearGradient id="paint0_linear_2689_17874" x1="135.067" y1="148.459" x2="-384.797" y2="148.459" gradientUnits="userSpaceOnUse">
<stop stop-color="white"/>
<stop offset="1" stop-color="#CCCCCC"/>
</linearGradient>
</defs>
</svg>
